<svg xmlns="http://www.w3.org/2000/svg" viewBox="0 0 677.09 67.74"><defs><style>.cls-1{fill:#fff;}</style></defs><g id="圖層_2" data-name="圖層 2"><g id="text"><path class="cls-1" d="M0,47.74,11.62,15H19L30.61,47.74h-6.4L18.46,30.58q-.86-2.7-1.79-5.82c-.63-2.08-1.34-4.52-2.15-7.32h1.54q-1.18,4.2-2.13,7.32t-1.82,5.82L6.28,47.74Zm6.88-7.89V35.08H23.75v4.77Z"/><path class="cls-1" d="M82.16,5V37.74H76.31V5Zm5.23,32.74H79.12v-5h8a11.54,11.54,0,0,0,5.83-1.33,8.15,8.15,0,0,0,3.46-3.88,15.17,15.17,0,0,0,1.15-6.21,15,15,0,0,0-1.14-6.17A8.08,8.08,0,0,0,93,11.31,11.31,11.31,0,0,0,87.25,10H79V5h8.66A16.89,16.89,0,0,1,96,7a13.41,13.41,0,0,1,5.43,5.63,18.67,18.67,0,0,1,1.9,8.72,18.8,18.8,0,0,1-1.91,8.75A13.48,13.48,0,0,1,96,35.75,17.35,17.35,0,0,1,87.39,37.74Z"/><path class="cls-1" d="M158,47.74,146.35,15h6.33l5.86,17.16c.55,1.69,1.14,3.6,1.8,5.76s1.38,4.6,2.18,7.36H161q1.18-4.14,2.13-7.36c.63-2.16,1.21-4.07,1.74-5.76L170.52,15h6.26L165.31,47.74Z"/><path class="cls-1" d="M222.48,67.74V35h22.44v5H228.33v8.68h15.36v4.92H228.33v9.12h16.61v5Z"/><path class="cls-1" d="M292.16,52.74V20h6.35L310,38.22c.35.54.77,1.24,1.26,2.09s1,1.79,1.55,2.78,1.07,2,1.58,3l-.63,1.1c-.06-1-.12-2.09-.17-3.32s-.09-2.4-.11-3.52,0-2,0-2.67V20h5.84V52.74H312.9L302.57,36.35c-.42-.69-.93-1.53-1.51-2.51s-1.24-2.11-2-3.38-1.49-2.67-2.33-4.2l.9-.66c.09,1.63.16,3.14.21,4.54s.09,2.63.11,3.68,0,1.89,0,2.51V52.74Z"/><path class="cls-1" d="M365.33,5V0h26.15V5H381.33V32.74h-5.85V5Z"/><path class="cls-1" d="M450.7,63.27a15.21,15.21,0,0,1-7-1.52,11.17,11.17,0,0,1-6.27-10.33V30h5.75V50.94a7.26,7.26,0,0,0,.93,3.7,6.49,6.49,0,0,0,2.6,2.54,9,9,0,0,0,7.94,0,6.55,6.55,0,0,0,2.6-2.54,7.36,7.36,0,0,0,.92-3.7V30H464V51.42a11.15,11.15,0,0,1-6.28,10.33A15.17,15.17,0,0,1,450.7,63.27Z"/><path class="cls-1" d="M512.24,42.74V10h12.68a14,14,0,0,1,6.24,1.29,9.31,9.31,0,0,1,4,3.63,10.65,10.65,0,0,1,1.39,5.54A10.12,10.12,0,0,1,535.1,26,9.56,9.56,0,0,1,531,29.54a14.68,14.68,0,0,1-6.35,1.27h-9V26h8.82a8,8,0,0,0,3.42-.67,4.86,4.86,0,0,0,2.15-1.92,5.66,5.66,0,0,0,.73-2.95,5.58,5.58,0,0,0-.75-2.95,5,5,0,0,0-2.15-1.91,7.88,7.88,0,0,0-3.43-.68h-6.37V42.74Zm18.65,0L523.2,28h6.26l7.85,14.79Z"/><path class="cls-1" d="M583.81,52.74V20h22.43v5H589.65v8.68H605v4.92H589.65v9.12h16.61v5Z"/><path class="cls-1" d="M664.52,38.27A16.61,16.61,0,0,1,657.65,37a10,10,0,0,1-4.45-3.77,10.85,10.85,0,0,1-1.58-5.89h5.71a6,6,0,0,0,.94,3.27,5.64,5.64,0,0,0,2.49,2.06,9.17,9.17,0,0,0,3.78.71,9.82,9.82,0,0,0,3.55-.58,5.34,5.34,0,0,0,2.35-1.65,3.91,3.91,0,0,0,.85-2.49,3.35,3.35,0,0,0-.64-2,5.2,5.2,0,0,0-2-1.49A18.71,18.71,0,0,0,665.24,24l-3.56-.83a15.11,15.11,0,0,1-7-3.29,7.4,7.4,0,0,1-2.32-5.63,8.74,8.74,0,0,1,1.52-5.12,10.07,10.07,0,0,1,4.23-3.4,15.22,15.22,0,0,1,6.27-1.21,14.59,14.59,0,0,1,6.29,1.25,9.76,9.76,0,0,1,4.14,3.53,10.34,10.34,0,0,1,1.57,5.43h-5.56a5.29,5.29,0,0,0-1.91-3.89,7.08,7.08,0,0,0-4.57-1.4,8.23,8.23,0,0,0-3.2.58,5.23,5.23,0,0,0-2.17,1.59,3.72,3.72,0,0,0-.78,2.33,3.13,3.13,0,0,0,.65,2,5.18,5.18,0,0,0,2,1.41,19.67,19.67,0,0,0,3.26,1l3.26.77a24.26,24.26,0,0,1,4.21,1.35,11.41,11.41,0,0,1,3.07,1.92,7.47,7.47,0,0,1,1.88,2.6,8.38,8.38,0,0,1,.64,3.33,9.19,9.19,0,0,1-1.52,5.26,9.82,9.82,0,0,1-4.34,3.46A16.89,16.89,0,0,1,664.52,38.27Z"/></g></g></svg>