<svg xmlns="http://www.w3.org/2000/svg" viewBox="0 0 643.76 152.74"><defs><style>.cls-1{fill:#fff;}</style></defs><g id="圖層_2" data-name="圖層 2"><g id="text"><path class="cls-1" d="M0,82.74V50H22.43v5H5.84v8.68H21.2v4.92H5.84v9.12H22.46v5Z"/><path class="cls-1" d="M65.41,32.74,78.66,13.86v4.33L66.34,0H73l4,6c.52.79,1,1.56,1.46,2.29s.88,1.46,1.32,2.17l1.3,2.2H79.74c.47-.75.92-1.48,1.35-2.2S82,9.06,82.43,8.33s1-1.5,1.48-2.29L88,0h6.51L82.33,17.91V13.73l13,19H88.57l-5-7.41-1.29-2c-.41-.63-.81-1.25-1.2-1.87l-1.2-1.92h1c-.39.65-.79,1.29-1.18,1.91l-1.22,1.86-1.33,2-5.1,7.41Z"/><path class="cls-1" d="M151,103.25a15.09,15.09,0,0,1-7.92-2.07,14.32,14.32,0,0,1-5.43-5.86,19.13,19.13,0,0,1-2-8.93,19.21,19.21,0,0,1,2-9,14.28,14.28,0,0,1,5.44-5.86A15.13,15.13,0,0,1,151,69.5a15.82,15.82,0,0,1,5.14.81,13.43,13.43,0,0,1,4.23,2.34,12.75,12.75,0,0,1,3,3.67,14.33,14.33,0,0,1,1.62,4.84h-5.91a8.79,8.79,0,0,0-1-2.73A7.25,7.25,0,0,0,154,75.14a9.52,9.52,0,0,0-2.89-.42A8.94,8.94,0,0,0,146,76.15a9.13,9.13,0,0,0-3.3,4,17.21,17.21,0,0,0,0,12.37,9.13,9.13,0,0,0,3.3,4A9,9,0,0,0,151.09,98,9.48,9.48,0,0,0,154,97.6a7.55,7.55,0,0,0,2.39-1.24,7.65,7.65,0,0,0,1.78-2,8.82,8.82,0,0,0,1.05-2.73h5.89a13.51,13.51,0,0,1-1.57,4.75,13,13,0,0,1-3.05,3.67,13.68,13.68,0,0,1-4.23,2.37A15.48,15.48,0,0,1,151,103.25Z"/><path class="cls-1" d="M209.73,152.74V120h22.43v5H215.57v8.68h15.36v4.92H215.57v9.12h16.61v5Z"/><path class="cls-1" d="M277.15,82.74V50H283V77.73h15v5Z"/><path class="cls-1" d="M342.55,112.74V80h5.85v27.73h15v5Z"/><path class="cls-1" d="M407.94,112.74V80h22.44v5H413.79v8.68h15.36v4.92H413.79v9.12H430.4v5Z"/><path class="cls-1" d="M475.37,62.74V30h6.35l11.47,18.22c.35.54.78,1.24,1.27,2.09s1,1.79,1.55,2.78,1.06,2,1.58,3L497,57.2c-.06-1-.11-2.09-.16-3.32s-.09-2.4-.11-3.52,0-2,0-2.67V30h5.85V62.74h-6.38L485.79,46.35c-.43-.69-.93-1.53-1.52-2.51s-1.24-2.11-1.95-3.38-1.5-2.67-2.33-4.2l.9-.66c.09,1.63.16,3.14.21,4.54s.08,2.63.11,3.68,0,1.89,0,2.51V62.74Z"/><path class="cls-1" d="M562.6,43.25a15.14,15.14,0,0,1-7.92-2.07,14.32,14.32,0,0,1-5.43-5.86,19.13,19.13,0,0,1-2-8.93,19.21,19.21,0,0,1,2-9,14.34,14.34,0,0,1,5.44-5.86A15.15,15.15,0,0,1,562.6,9.5a15.78,15.78,0,0,1,5.14.81A13.32,13.32,0,0,1,572,12.65,12.79,12.79,0,0,1,575,16.32a14.32,14.32,0,0,1,1.61,4.84h-5.91a8.32,8.32,0,0,0-1-2.73,7.28,7.28,0,0,0-4.15-3.29,9.57,9.57,0,0,0-2.89-.42,9,9,0,0,0-5.07,1.43,9.11,9.11,0,0,0-3.29,4.05,15.2,15.2,0,0,0-1.16,6.19,15.25,15.25,0,0,0,1.16,6.18A8.64,8.64,0,0,0,562.67,38a9.53,9.53,0,0,0,2.87-.41,7.38,7.38,0,0,0,4.16-3.25,8.82,8.82,0,0,0,1-2.73h5.89a13.51,13.51,0,0,1-1.57,4.75A13.16,13.16,0,0,1,572,40a13.68,13.68,0,0,1-4.23,2.37A15.54,15.54,0,0,1,562.6,43.25Z"/><path class="cls-1" d="M621.3,102.74V70h22.43v5H627.15v8.68H642.5v4.92H627.15v9.12h16.61v5Z"/></g></g></svg>