<svg xmlns="http://www.w3.org/2000/svg" viewBox="0 0 380.04 54.78"><defs><style>.cls-1{fill:#fff;}</style></defs><g id="圖層_2" data-name="圖層 2"><g id="text"><path class="cls-1" d="M6,11.67H6.2l.19,0,.45.17a16.37,16.37,0,0,1-2.37,6.13A12.48,12.48,0,0,1,.61,21.69a1.3,1.3,0,0,0-.16-.21l-.22-.2A1.18,1.18,0,0,0,0,21.14a11.44,11.44,0,0,0,3.76-3.56A15,15,0,0,0,6,11.86Zm-5.33,1a1.28,1.28,0,0,0-.12-.29A3.59,3.59,0,0,1,.4,12a2.13,2.13,0,0,0-.16-.28,4.52,4.52,0,0,0,.57-.21,2.41,2.41,0,0,0,.62-.46,12.92,12.92,0,0,0,.93-1c.41-.47.84-1,1.31-1.56S4.58,7.42,5,6.89,5.7,6,5.91,5.65v0l.4-.17L7,5.77c-.32.4-.71.88-1.17,1.43S4.89,8.33,4.37,8.92l-1.49,1.7q-.73.81-1.32,1.38a4,4,0,0,0-.43.23,2.77,2.77,0,0,0-.31.21A.29.29,0,0,0,.69,12.67ZM.4,5.56h6v.71H.4Zm.29,7.11V12l.77-.31H6.31v.69H2.23a4.74,4.74,0,0,0-1,.09A1.41,1.41,0,0,0,.69,12.67Zm1-12L2.28.36,3.49,1.63,4.67,3a10.24,10.24,0,0,1,.87,1.11l-.64.38A14.48,14.48,0,0,0,4,3.28L2.84,1.92C2.43,1.45,2,1,1.64.64ZM4.48,17.06A5.82,5.82,0,0,0,7,19.34a11.65,11.65,0,0,0,3.79,1,48,48,0,0,0,5.09.24l2.91,0c1,0,2,0,3-.08l2.67-.13a.7.7,0,0,0-.15.24,1.62,1.62,0,0,0-.11.28c0,.1-.05.18-.06.26-.73,0-1.56.07-2.5.1s-1.89.05-2.87.06H15.88c-1.56,0-3-.05-4.22-.14a18,18,0,0,1-3.34-.55,8.13,8.13,0,0,1-2.54-1.17,6.88,6.88,0,0,1-1.86-2ZM9.68,2.74h.74V18.08H9.68Zm.37,8.76h12.4v6.56H10.05v-.69H21.68V12.19H10.05Zm0-8.76H21.39V8.52H10.07V7.8H20.62V3.44H10.07ZM15.24,0,16,.24l-.66,1.59a12.42,12.42,0,0,1-.69,1.41L14,3c.2-.41.42-.91.67-1.5A14.88,14.88,0,0,0,15.24,0Z"/><path class="cls-1" d="M32.67,15.63H56.55v.71H32.67Zm.4-11.48H52.5v.72H33.07Zm.15,9.31,3-.23c1.14-.09,2.36-.19,3.65-.31l3.92-.35v.67l-5.62.51-4.82.45Zm.64-4.13h9.25V10H33.86Zm2.89-7.95H52.84V7.66H36.59V7H52.05V2.08H36.75ZM37,17.32l.53-.5c.58.27,1.18.58,1.79.93s1.17.71,1.69,1.07a8.73,8.73,0,0,1,1.26,1l-.55.52a11.66,11.66,0,0,0-1.25-1,17.84,17.84,0,0,0-1.67-1.09A19.26,19.26,0,0,0,37,17.32ZM38.1,9.64h.77v3.67H38.1Zm11.93,4h.77v6.87a1.13,1.13,0,0,1-.17.68,1,1,0,0,1-.65.33,9.66,9.66,0,0,1-1.58.1l-3,0a1.54,1.54,0,0,0-.12-.3,4,4,0,0,0-.2-.35l2,0h2.32a1.08,1.08,0,0,0,.49-.15.43.43,0,0,0,.12-.36ZM45.42,9.33h9.3v4.44h-9.3Zm.79.69v3.05H54V10Zm6.23-5.87h3.87v.72H52.44Z"/><path class="cls-1" d="M66.09,16.65H89.26v.69H66.09Zm3-11.14H86.53V14H69.06Zm.77.72V9.38H85.76V6.23Zm0,3.84v3.22H85.76V10.07ZM77,.09h.77V6H77Zm.21,13.58H78v7.9h-.8Zm.22-11.38h11V3h-11Z"/><path class="cls-1" d="M100.1,10.76l.72,0c0,1.1,0,2.28-.15,3.55A21.35,21.35,0,0,1,100,18.1a11.06,11.06,0,0,1-1.55,3.42,1.33,1.33,0,0,0-.19-.14l-.21-.15a.64.64,0,0,0-.21-.09,10.89,10.89,0,0,0,1.48-3.33,20.3,20.3,0,0,0,.62-3.66Q100.13,12.31,100.1,10.76Zm-2-2.58h11.35v.7H98.14Zm1.12-4.72h9.62v.69H99.26ZM100.66,14a9.88,9.88,0,0,0,1.45,3.11,6.32,6.32,0,0,0,2.21,1.9,9.92,9.92,0,0,0,3.18,1,29.12,29.12,0,0,0,4.37.29h10.37a.87.87,0,0,0-.16.2l-.15.26c0,.09-.07.17-.09.23h-9.91a32.09,32.09,0,0,1-4.72-.3,10.45,10.45,0,0,1-3.37-1,6.72,6.72,0,0,1-2.3-2A11.19,11.19,0,0,1,100,14.29Zm3-13.91h.77V8.52h-.77ZM104,8.76h.77V19.49H104Zm.4,4.1h4.83v.69h-4.83Zm5.2,3.6a1.08,1.08,0,0,0-.11-.21l-.17-.25-.17-.23a3.5,3.5,0,0,0,.69-.47,1.22,1.22,0,0,0,.42-1V4.87H111V15.39l-.72.4a4.32,4.32,0,0,0-.5.35A.49.49,0,0,0,109.57,16.46Zm0,0v-.74l.48-.52,5.08-2.39c0,.1.08.2.12.32a1.47,1.47,0,0,0,.12.25l-2.93,1.46c-.73.37-1.29.65-1.67.86l-.82.46A2.28,2.28,0,0,0,109.57,16.46Zm.66-11.86h12v.7h-12Zm10.39,2.77.66.17a22.8,22.8,0,0,1-2.1,4.78,20.09,20.09,0,0,1-3,4,15.49,15.49,0,0,1-3.73,2.81,2.89,2.89,0,0,0-.56-.58,13,13,0,0,0,3.7-2.63,19.38,19.38,0,0,0,3-3.88A21.84,21.84,0,0,0,120.62,7.37Zm-5-7.25h.79c0,2.21.09,4.24.23,6.08s.32,3.49.57,4.94a23,23,0,0,0,.87,3.66,8.05,8.05,0,0,0,1.11,2.28,1.68,1.68,0,0,0,1.3.79c.3,0,.52-.33.65-1a19.86,19.86,0,0,0,.28-3.12l.37.19.37.14a20.6,20.6,0,0,1-.25,2.65,3.15,3.15,0,0,1-.52,1.41,1.16,1.16,0,0,1-1,.43,2.18,2.18,0,0,1-1.7-.88,7.92,7.92,0,0,1-1.31-2.5,23.63,23.63,0,0,1-1-3.93q-.39-2.28-.6-5.1T115.59.12Zm2.17.62.61-.33c.51.46,1,1,1.62,1.52s1,1,1.32,1.39l-.56.45c-.33-.4-.79-.89-1.36-1.47S118.27,1.2,117.76.74Z"/><path class="cls-1" d="M136.34,14.77l-.34-.6a6.76,6.76,0,0,0,2.43-1.76,4.2,4.2,0,0,0,.83-2.7L138.47,8l1.4,1.48a1.14,1.14,0,0,1-.6.45,2.1,2.1,0,0,1-.65.1,1.68,1.68,0,0,1-1-.3,1.15,1.15,0,0,1-.4-1,1.12,1.12,0,0,1,.44-1,1.65,1.65,0,0,1,1-.29,1.41,1.41,0,0,1,1.24.6,2.74,2.74,0,0,1,.43,1.61,4.63,4.63,0,0,1-1.1,3.12A6.85,6.85,0,0,1,136.34,14.77Z"/><path class="cls-1" d="M155.5,1.24H175V8.76h-.79V1.93h-17.9v6.9h-.76Zm2,9H173V21.47h-.76V11h-14V21.54h-.77Zm.43,3.06h14.74v.71H157.91Zm0,3.1h14.74v.69H157.91Zm0,3.12h14.74v.72H157.91Zm.4-15.48h13.94V4.8H158.31Zm.07,3.08h13.84v.69H158.38Z"/><path class="cls-1" d="M186.18,1.1H192v.69H187V21.54h-.8Zm5.65,0H192l.16-.05.5.33c-.42.94-.89,2-1.4,3s-1,2.12-1.54,3.11A9.2,9.2,0,0,1,192,10.43a6.43,6.43,0,0,1,.57,2.52,4.94,4.94,0,0,1-.21,1.45,1.7,1.7,0,0,1-.72,1,1.61,1.61,0,0,1-.55.24l-.69.12-.92,0-.91,0c0-.08-.06-.19-.11-.33a1.53,1.53,0,0,0-.21-.37l1.06,0c.34,0,.63,0,.88,0a2.49,2.49,0,0,0,1-.24,1.22,1.22,0,0,0,.5-.78,4.44,4.44,0,0,0,.14-1.11,5.92,5.92,0,0,0-.6-2.43,9.78,9.78,0,0,0-2.35-2.91c.3-.56.59-1.12.88-1.68l.82-1.67c.26-.55.51-1.08.74-1.59s.43-1,.61-1.41Zm4.53,13.76.8.15a11.37,11.37,0,0,1-2.2,3.85,14.25,14.25,0,0,1-3.29,2.78.89.89,0,0,0-.17-.17l-.25-.18-.24-.15a12.17,12.17,0,0,0,3.27-2.64A10.53,10.53,0,0,0,196.36,14.86ZM200.29.05l.79.19a18.59,18.59,0,0,1-3.31,3.52,24.27,24.27,0,0,1-4.51,3,.4.4,0,0,0-.17-.13l-.22-.13-.22-.12a22.37,22.37,0,0,0,3.13-1.84,21.24,21.24,0,0,0,2.63-2.17A13.44,13.44,0,0,0,200.29.05ZM193.9,8.56h5.49v5.49H193.9Zm.79.7v4.08h3.93V9.26Zm1,8.25.53-.43a22.5,22.5,0,0,1,2,1.24,10.65,10.65,0,0,1,1.55,1.27l-.53.52a12.59,12.59,0,0,0-1.56-1.31A21.91,21.91,0,0,0,195.65,17.51Zm.69-12h8.06v.72h-8.06Zm7.47,9.31.83.12a10.86,10.86,0,0,1-1.74,3.82A11.19,11.19,0,0,1,200,21.52l-.17-.14-.25-.19-.24-.17a9.14,9.14,0,0,0,2.82-2.57A10.18,10.18,0,0,0,203.81,14.84Zm-3.58-14A10.05,10.05,0,0,0,202,2.25a24.32,24.32,0,0,0,2.27,1.36c.81.44,1.63.84,2.46,1.21s1.62.68,2.36.95l-.21.17-.2.18-.14.15c-1-.39-2-.87-3.15-1.42a33.79,33.79,0,0,1-3.2-1.77,15.75,15.75,0,0,1-2.51-1.91Zm1.25,7.73h5.62v5.49h-5.62Zm.77.7v4.08h4.08V9.26Zm.9,8.28.53-.46c.64.34,1.29.72,2,1.16s1.3.87,1.88,1.29a10.4,10.4,0,0,1,1.41,1.16l-.53.54A17.36,17.36,0,0,0,207,20.05c-.57-.43-1.2-.88-1.87-1.32S203.79,17.89,203.15,17.54Z"/><path class="cls-1" d="M224.11.09l.75.2a22.51,22.51,0,0,1-1.67,2.53,26.6,26.6,0,0,1-2,2.31A24,24,0,0,1,219,7.06a.89.89,0,0,0-.17-.17l-.25-.19a1.62,1.62,0,0,0-.24-.14,20.13,20.13,0,0,0,3.25-2.89A17.53,17.53,0,0,0,224.11.09ZM218.39,14.6h23.27v.72H218.39Zm1-5.8h21.76v.72H219.4Zm2.49,8,.69.14c-.2.48-.43,1-.69,1.55s-.55,1.1-.84,1.62a10.4,10.4,0,0,1-.91,1.41l-.69-.21a12.4,12.4,0,0,0,.93-1.36q.45-.76.84-1.59A16.27,16.27,0,0,0,221.89,16.8Zm.58-13.72h18.27v.71H221.91Zm.45,2.57h.77V15h-.77Zm3.39,11.53.72,0a21.94,21.94,0,0,1,.44,2.2c.11.78.18,1.42.2,1.93l-.77.1a12.51,12.51,0,0,0-.08-1.27c0-.47-.12-1-.2-1.49A11,11,0,0,0,226.31,17.18ZM227.4,5.65h.77v9.26h-.77Zm4.46,11.48.71-.14a16.05,16.05,0,0,1,.77,1.44q.38.78.66,1.5a9.15,9.15,0,0,1,.43,1.28l-.75.19a16.08,16.08,0,0,0-.74-2A21,21,0,0,0,231.86,17.13Zm.42-11.48h.79V15h-.79Zm4.69,0h.77V15H237Zm.43,11.29.74-.14c.32.46.63,1,1,1.5s.62,1.07.9,1.59.52.95.69,1.32l-.77.26c-.16-.38-.38-.83-.66-1.36s-.58-1.06-.9-1.62S237.71,17.42,237.4,16.94Z"/><path class="cls-1" d="M261,9.35l.67.31A13.88,13.88,0,0,1,259,12.07a23.72,23.72,0,0,1-3.5,2,28.43,28.43,0,0,1-3.65,1.47.79.79,0,0,0-.14-.23l-.2-.21a1.68,1.68,0,0,0-.21-.18,21.5,21.5,0,0,0,3.64-1.34,24,24,0,0,0,3.45-1.95A13.51,13.51,0,0,0,261,9.35Zm-2.51,4.06h.76V14.7a9.13,9.13,0,0,1-.17,1.77,5.51,5.51,0,0,1-.71,1.84,6.78,6.78,0,0,1-1.65,1.79,11.51,11.51,0,0,1-3,1.61.9.9,0,0,0-.16-.19l-.2-.18a1,1,0,0,0-.2-.15,12.2,12.2,0,0,0,2.91-1.51A6.17,6.17,0,0,0,257.67,18a5.07,5.07,0,0,0,.66-1.7,9.28,9.28,0,0,0,.15-1.61ZM254.23.83H271.7v9H254.23Zm.77.72V5h15.94V1.55Zm0,4.1V9.11h15.94V5.65Zm7.53-4.39h.8V9.59h-.8Zm2.68,8.07a12.16,12.16,0,0,0,2.57,2.32,20.22,20.22,0,0,0,3.43,1.91,22.26,22.26,0,0,0,3.73,1.28,1.69,1.69,0,0,0-.19.19c-.07.08-.13.16-.2.23l-.17.2a25,25,0,0,1-3.72-1.4,21.28,21.28,0,0,1-3.5-2,13.33,13.33,0,0,1-2.64-2.44Zm2,4H268v8.21h-.77Z"/><path class="cls-1" d="M290.93,7.47a3.88,3.88,0,0,1,3.27,1.69,3,3,0,0,1,.52,1.72,3.07,3.07,0,0,1-.52,1.71,4,4,0,0,1-6.55,0,3.07,3.07,0,0,1-.52-1.71,3,3,0,0,1,.52-1.72,3.92,3.92,0,0,1,3.28-1.69Zm0,6.11a3.09,3.09,0,0,0,2.12-.79,2.49,2.49,0,0,0,.87-1.91,2.4,2.4,0,0,0-.4-1.35,3,3,0,0,0-1.07-1,3.19,3.19,0,0,0-1.52-.37,3.1,3.1,0,0,0-2.59,1.35,2.41,2.41,0,0,0-.41,1.35,2.44,2.44,0,0,0,.41,1.36,3,3,0,0,0,1.09,1A3.14,3.14,0,0,0,290.93,13.58Z"/><path class="cls-1" d="M11.93,33.8l.61.39a25.43,25.43,0,0,1-2.36,2.5c-.92.86-1.9,1.71-2.94,2.54s-2.11,1.61-3.18,2.33S2,42.89,1,43.4a3.09,3.09,0,0,0-.25-.31,1.28,1.28,0,0,0-.31-.27A29.46,29.46,0,0,0,3.5,41.07c1.08-.69,2.14-1.45,3.19-2.27s2-1.66,2.93-2.51A25.64,25.64,0,0,0,11.93,33.8ZM1,53.3H23.59V54H1Zm2.68-5.8H20.78v.69H3.71Zm1-5.3H20v.72H4.75Zm.82-8.4h6.92v.72H5.57Zm6.15,0h1a20.5,20.5,0,0,0,2.36,2.65A30.36,30.36,0,0,0,18,38.9,36.64,36.64,0,0,0,21.13,41a26.82,26.82,0,0,0,3.07,1.55l-.2.16-.22.19-.19.2a29.46,29.46,0,0,1-4.08-2.24,34.78,34.78,0,0,1-4-3.05,26.28,26.28,0,0,1-3.33-3.47h-.42Zm.08,8.62h.79V53.68H11.8Z"/><path class="cls-1" d="M33.63,41.46h12.3v.69H33.63Zm.08,3.84H45.77V46H33.71Zm2.86,2.46.77.17a14.08,14.08,0,0,1-1.19,2.56,12.59,12.59,0,0,1-1.59,2.16l-.32-.24a1.63,1.63,0,0,0-.37-.19,10.54,10.54,0,0,0,1.56-2A14.3,14.3,0,0,0,36.57,47.76ZM34,35.88H45.51v.69H34Zm2,1.22.71-.12a13.57,13.57,0,0,1,.84,2,11.06,11.06,0,0,1,.46,1.89l-.77.2a12.68,12.68,0,0,0-.43-1.94A12.05,12.05,0,0,0,36.07,37.1Zm2.33-3.68.74-.21a18.35,18.35,0,0,1,1.08,1.5A9.73,9.73,0,0,1,41,36.12l-.74.28a14.62,14.62,0,0,0-.8-1.44C39.11,34.4,38.75,33.88,38.4,33.42Zm1,8.33h.77v13h-.77Zm3.47-4.82.8.21c-.29.78-.6,1.62-1,2.52a24,24,0,0,1-1,2.28L41,41.75q.31-.64.66-1.5c.23-.58.45-1.16.66-1.75S42.74,37.39,42.88,36.93ZM42.06,48l.66-.24a24.28,24.28,0,0,1,1.35,2.12,12.54,12.54,0,0,1,1,2l-.69.28a17.55,17.55,0,0,0-1-2A23,23,0,0,0,42.06,48Zm5.57-12.43h.77v8c0,.84,0,1.74-.1,2.69a19.43,19.43,0,0,1-.4,2.9A15.34,15.34,0,0,1,47,52a10.08,10.08,0,0,1-1.57,2.58.46.46,0,0,0-.17-.17l-.22-.17a1,1,0,0,0-.22-.13,10.09,10.09,0,0,0,1.87-3.37A16.53,16.53,0,0,0,47.47,47c.1-1.24.16-2.41.16-3.49Zm8.53-1.69.77.54a27.26,27.26,0,0,1-2.65.68c-1,.22-2.05.41-3.14.58s-2.15.31-3.2.44a.84.84,0,0,0-.11-.28,3.16,3.16,0,0,0-.2-.27c1-.14,2.07-.3,3.14-.48s2.08-.37,3-.58S55.54,34.08,56.16,33.88ZM48,41.46h9.38v.69H48Zm5.22.24H54V54.63h-.77Z"/><path class="cls-1" d="M67.52,53.06V35.74h4.64a13.13,13.13,0,0,1,3.74.46,4.59,4.59,0,0,1,2.34,1.49,4.37,4.37,0,0,1,.81,2.77,4.61,4.61,0,0,1-.79,2.77A4.76,4.76,0,0,1,76,44.87a10.79,10.79,0,0,1-3.69.55H68.5v7.64Zm1-8.42h3.42a8.61,8.61,0,0,0,4.57-1A3.52,3.52,0,0,0,78,40.46a3.23,3.23,0,0,0-1.52-3.1,10,10,0,0,0-4.66-.84H68.5Z"/><path class="cls-1" d="M89.21,53.06V35.74h4.64a13,13,0,0,1,3.74.46,4.58,4.58,0,0,1,2.35,1.49,4.37,4.37,0,0,1,.81,2.77,4.61,4.61,0,0,1-.8,2.77,4.71,4.71,0,0,1-2.31,1.64,10.69,10.69,0,0,1-3.68.55H90.19v7.64Zm1-8.42h3.42a8.65,8.65,0,0,0,4.58-1,3.52,3.52,0,0,0,1.5-3.21,3.22,3.22,0,0,0-1.53-3.1,10,10,0,0,0-4.65-.84H90.19Z"/><path class="cls-1" d="M110.68,34.26h6.84V35h-6V54.7h-.8Zm6.58,0h.15l.16,0,.53.33c-.3.66-.63,1.34-1,2.07L116,38.78c-.37.72-.74,1.43-1.11,2.11a9.73,9.73,0,0,1,2.41,3,6.66,6.66,0,0,1,.61,2.62,5.21,5.21,0,0,1-.21,1.49,1.69,1.69,0,0,1-.75,1,2.12,2.12,0,0,1-.61.26,5.25,5.25,0,0,1-.71.15l-1,0-1,0a1.92,1.92,0,0,0-.11-.37,1,1,0,0,0-.21-.35l1.17,0c.37,0,.69,0,1,0a2.26,2.26,0,0,0,1-.24,1.25,1.25,0,0,0,.52-.81,5,5,0,0,0,.14-1.16A6.2,6.2,0,0,0,116.5,44,9.62,9.62,0,0,0,114,41c.32-.57.64-1.15,1-1.74s.6-1.17.88-1.74.55-1.13.79-1.65l.65-1.46Zm5.48,3.65h.8c-.06,1.72-.17,3.41-.35,5.07a23.86,23.86,0,0,1-1,4.7,13.11,13.11,0,0,1-2.09,4,10.53,10.53,0,0,1-3.71,3,3.26,3.26,0,0,0-.29-.23l-.34-.22a10.56,10.56,0,0,0,3.67-2.9,12.26,12.26,0,0,0,2-3.93,22.22,22.22,0,0,0,.91-4.59C122.58,41.2,122.69,39.56,122.74,37.91Zm-5.06-.48h15.56v.72H117.68Zm5.17,5.15h8.22v.7h-8.22Zm1.54-9,.71-.1q.41.86.78,1.86a17.62,17.62,0,0,1,.57,1.67l-.71.19c-.13-.46-.32-1-.58-1.72S124.63,34.15,124.39,33.57Zm6.41,9h.77v.48c-.09,2-.18,3.6-.26,4.94s-.19,2.43-.31,3.27a13.26,13.26,0,0,1-.38,2,2.26,2.26,0,0,1-.53,1,1.39,1.39,0,0,1-.63.39,3.6,3.6,0,0,1-.91.13c-.39,0-.94,0-1.66,0s-1.43-.06-2.16-.11c0-.09,0-.2-.08-.33a1,1,0,0,0-.18-.36c.86.06,1.67.1,2.41.12s1.24,0,1.51,0a1.37,1.37,0,0,0,1-.26,3,3,0,0,0,.59-1.47,30.49,30.49,0,0,0,.43-3.44q.21-2.32.36-6.16Z"/><path class="cls-1" d="M150.08,39.63h.19l.16-.05.5.21a20.63,20.63,0,0,1-2,5.38,19,19,0,0,1-3,4.12,17.41,17.41,0,0,1-3.58,2.88,1,1,0,0,0-.18-.2l-.23-.21a1,1,0,0,0-.23-.16,16.1,16.1,0,0,0,3.57-2.75,17.89,17.89,0,0,0,2.89-4,19.6,19.6,0,0,0,1.86-5.06Zm-7.58,0h7.77v.71H142.5Zm10.61-6.3h.82V53.49a1.32,1.32,0,0,1-.2.8,1.07,1.07,0,0,1-.62.34,5.75,5.75,0,0,1-1.24.12c-.55,0-1.31,0-2.26,0a1.07,1.07,0,0,0-.1-.23l-.12-.28a.58.58,0,0,0-.13-.23l2.11,0c.61,0,1,0,1.18,0a.92.92,0,0,0,.42-.12.49.49,0,0,0,.14-.41Zm.74,5.56a30.28,30.28,0,0,0,2.25,3.78A33.3,33.3,0,0,0,159,46.25a27.68,27.68,0,0,0,3.35,3,18,18,0,0,0,3.54,2.13l-.19.18-.21.21-.18.2a19.06,19.06,0,0,1-3.54-2.23,26.32,26.32,0,0,1-3.36-3.1A32,32,0,0,1,155.52,43a28.94,28.94,0,0,1-2.28-3.89Zm8.51-.84.69.43c-.55.64-1.17,1.31-1.86,2s-1.39,1.41-2.09,2.07-1.37,1.25-2,1.75l-.5-.36c.6-.51,1.25-1.11,2-1.8s1.39-1.4,2.06-2.13S161.88,38.66,162.36,38.05Z"/><path class="cls-1" d="M179.12,44.8h.19l.18,0L180,45a17.25,17.25,0,0,1-2.16,6,12,12,0,0,1-3.51,3.76.75.75,0,0,0-.17-.19,2.29,2.29,0,0,1-.23-.21.69.69,0,0,0-.21-.15,11.13,11.13,0,0,0,3.4-3.57,15.36,15.36,0,0,0,2-5.62Zm-4.85,1a1.28,1.28,0,0,0-.12-.29,3.78,3.78,0,0,1-.17-.35,1.06,1.06,0,0,0-.16-.27,3.16,3.16,0,0,0,.57-.22,2,2,0,0,0,.6-.45,11.74,11.74,0,0,0,.91-1c.4-.47.82-1,1.27-1.56s.88-1.12,1.28-1.65.7-.94.91-1.24v0l.37-.16.69.31c-.32.39-.7.87-1.14,1.43l-1.4,1.73c-.5.59-1,1.16-1.46,1.7s-.9,1-1.27,1.39a3.57,3.57,0,0,0-.44.22l-.31.22A.32.32,0,0,0,174.27,45.81ZM174,38.7h5.88v.71H174Zm.29,7.11v-.7l.77-.31h4.48v.7h-3.74a4.58,4.58,0,0,0-.95.09A1.33,1.33,0,0,0,174.27,45.81Zm1-12.27.63-.28c.57.6,1.14,1.26,1.72,2A14.43,14.43,0,0,1,179,37.05l-.66.33c-.21-.33-.49-.72-.82-1.17s-.7-.9-1.09-1.37S175.66,33.94,175.31,33.54Zm2.75,16.66a5.85,5.85,0,0,0,2.51,2.27,11.78,11.78,0,0,0,3.81,1,48.85,48.85,0,0,0,5.13.24l2.91,0,3-.07c1,0,1.88-.08,2.69-.15a1.26,1.26,0,0,0-.13.23,1.43,1.43,0,0,0-.09.27l-.07.24c-.74,0-1.58.07-2.52.1s-1.9.05-2.89.06h-2.86c-1.57,0-3,0-4.24-.14a18,18,0,0,1-3.35-.55,8.25,8.25,0,0,1-2.56-1.16,6.47,6.47,0,0,1-1.86-2ZM188.35,38l.66.28a12.7,12.7,0,0,1-2.21,2.18A24.77,24.77,0,0,1,184,42.35a21.41,21.41,0,0,1-2.86,1.4l-.26-.31a1.74,1.74,0,0,0-.32-.26,18.09,18.09,0,0,0,2.89-1.3A20.34,20.34,0,0,0,186.2,40,13.35,13.35,0,0,0,188.35,38ZM181,37.79h16.38v.69H181Zm5.81,6.08h.82a14.46,14.46,0,0,1-.88,3.31A7.66,7.66,0,0,1,185,49.84a8.87,8.87,0,0,1-3.13,1.88,1.87,1.87,0,0,0-.25-.28,3.1,3.1,0,0,0-.31-.27,8.15,8.15,0,0,0,3-1.75,7.09,7.09,0,0,0,1.69-2.51A12.34,12.34,0,0,0,186.84,43.87Zm8.61-10.14.66.58c-.86.17-1.86.33-3,.48s-2.34.29-3.62.41-2.58.22-3.88.31-2.57.16-3.79.2a1.89,1.89,0,0,0-.1-.32,1.4,1.4,0,0,0-.14-.3c1.2-.06,2.45-.14,3.76-.22s2.59-.19,3.85-.3,2.42-.24,3.5-.38S194.69,33.89,195.45,33.73Zm-11.93,10h8.91v.69h-8.91ZM188.75,35h.76v8h-.76Zm1.37,4.25.51-.43c.88.46,1.76,1,2.62,1.46s1.69,1,2.45,1.52,1.44,1,2,1.46l-.64.48a27.56,27.56,0,0,0-3.1-2.22C192.71,40.69,191.43,39.94,190.12,39.22Zm5.46,7h.8c0,.21,0,.35,0,.43a22.7,22.7,0,0,1-.55,3.18,2.38,2.38,0,0,1-.73,1.33,1.46,1.46,0,0,1-.55.29,3.89,3.89,0,0,1-.77.07c-.3,0-.75,0-1.34,0s-1.22,0-1.9-.1a2.49,2.49,0,0,0-.06-.32,1.13,1.13,0,0,0-.17-.35c.72.07,1.4.11,2,.12l1.26,0a4.18,4.18,0,0,0,.59,0,.59.59,0,0,0,.31-.13,2.35,2.35,0,0,0,.63-1.25,25.27,25.27,0,0,0,.51-3.12Zm-3.49-2.53h.79l-.5,1.72q-.27.89-.51,1.5h-.79a15.5,15.5,0,0,0,.55-1.56C191.81,44.76,192,44.21,192.09,43.68Zm-.35,2.53h4.08v.69h-4.08Z"/><path class="cls-1" d="M206.93,40.56l.39-.55a15,15,0,0,1,1.58.68,16.47,16.47,0,0,1,1.51.82,10.05,10.05,0,0,1,1.15.81l-.39.62a9.58,9.58,0,0,0-1.17-.82c-.48-.3-1-.58-1.51-.85S207.44,40.76,206.93,40.56Zm.76,13.12c.43-.62.89-1.37,1.4-2.23s1-1.78,1.53-2.73,1-1.87,1.42-2.75l.53.48q-.62,1.24-1.35,2.64c-.5.93-1,1.84-1.5,2.73s-1,1.68-1.42,2.38Zm.64-19.61.42-.53c.52.21,1.05.45,1.6.73s1.06.57,1.55.87a9.32,9.32,0,0,1,1.18.86l-.4.64a8.58,8.58,0,0,0-1.18-.89c-.49-.31-1-.61-1.55-.91S208.86,34.29,208.33,34.07Zm7.21,16.08.64.28c-.34.67-.76,1.41-1.26,2.21a9.87,9.87,0,0,1-1.69,2l-.63-.36a7.91,7.91,0,0,0,1.19-1.25,15.64,15.64,0,0,0,1-1.5C215.08,51.05,215.33,50.58,215.54,50.15ZM214,45.59a1.48,1.48,0,0,0-.12-.39,3.42,3.42,0,0,0-.17-.4,1.13,1.13,0,0,0,.48-.19,2.84,2.84,0,0,0,.45-.38,6.91,6.91,0,0,0,.64-.63c.28-.31.59-.68.92-1.11a8.33,8.33,0,0,0,.85-1.31l.82.33a18.18,18.18,0,0,1-1.53,2,14.71,14.71,0,0,1-1.59,1.58v0l-.38.15a1.27,1.27,0,0,0-.26.15A.26.26,0,0,0,214,45.59Zm.14,3.72c0-.09-.06-.22-.11-.39a1.65,1.65,0,0,0-.19-.42,1.54,1.54,0,0,0,.71-.27,9,9,0,0,0,.83-.64q.31-.26,1.08-1c.5-.47,1-1,1.65-1.67a24.6,24.6,0,0,0,1.65-2l.82.38c-.92,1.07-1.86,2.07-2.81,3a22,22,0,0,1-2.87,2.42v0a2,2,0,0,0-.38.14l-.26.15A.24.24,0,0,0,214.14,49.31ZM214,45.59V45l.61-.26,4.22-.22a2.84,2.84,0,0,0,0,.35,1.07,1.07,0,0,0,0,.32l-2.91.19-1.36.12A2,2,0,0,0,214,45.59Zm.14,3.72v-.62l.61-.31,5.75-.5a1.75,1.75,0,0,0,0,.35v.32l-3.19.31-1.85.2q-.63.09-.9.15A2.36,2.36,0,0,0,214.14,49.31Zm.55-15.22h13.87v6.78H214.69Zm.8.69V37.1h12.27V34.78Zm0,3v2.36h12.27V37.81Zm3.36,12.67.69-.12a15.76,15.76,0,0,1,.64,2.1,14.48,14.48,0,0,1,.34,2l-.74.14a15.62,15.62,0,0,0-.33-2A17.54,17.54,0,0,0,218.85,50.48Zm.06-4,.66-.27a12.35,12.35,0,0,1,1.09,1.67,13,13,0,0,1,.74,1.6l-.69.31a11.91,11.91,0,0,0-.74-1.62A14.88,14.88,0,0,0,218.91,46.43Zm3.28-.74a2.55,2.55,0,0,0-.1-.4,1.92,1.92,0,0,0-.16-.39,1.25,1.25,0,0,0,.45-.18,3.92,3.92,0,0,0,.48-.37c.12-.11.32-.32.59-.62a12.83,12.83,0,0,0,.89-1.09,9.41,9.41,0,0,0,.82-1.27l.85.33c-.49.69-1,1.33-1.51,1.95A10.55,10.55,0,0,1,223,45.18v0a2.61,2.61,0,0,0-.38.14,1.75,1.75,0,0,0-.27.16A.21.21,0,0,0,222.19,45.69Zm.14,3.72c0-.1-.06-.23-.11-.41a1.57,1.57,0,0,0-.16-.4,1.59,1.59,0,0,0,.69-.28,6.84,6.84,0,0,0,.85-.63c.23-.17.6-.5,1.11-1s1.08-1,1.69-1.67a25,25,0,0,0,1.68-2l.79.38c-.91,1.06-1.86,2.07-2.83,3a23.07,23.07,0,0,1-2.92,2.42v0l-.39.14a1.47,1.47,0,0,0-.28.16A.21.21,0,0,0,222.33,49.41Zm-.14-3.72v-.62l.64-.27,4.22-.21a1.59,1.59,0,0,0,0,.34,1.13,1.13,0,0,0,0,.33l-2.92.19c-.65,0-1.11.08-1.36.12A2,2,0,0,0,222.19,45.69Zm.14,3.72v-.65l.66-.28,6.26-.58a2.22,2.22,0,0,0,0,.37,1.42,1.42,0,0,0,0,.33l-3.49.34-2,.21a8.8,8.8,0,0,0-1,.13A1.92,1.92,0,0,0,222.33,49.41Zm.55,1.07.64-.19a18.73,18.73,0,0,1,1.17,2.05,17,17,0,0,1,.82,1.91l-.72.24a10.57,10.57,0,0,0-.77-1.94A21.87,21.87,0,0,0,222.88,50.48Zm4.17-.28.61-.27c.42.46.84,1,1.25,1.52s.8,1.08,1.14,1.6a9.77,9.77,0,0,1,.81,1.39l-.66.29a12.67,12.67,0,0,0-.79-1.41c-.34-.52-.72-1.06-1.13-1.61S227.45,50.66,227.05,50.2Zm.53-3.77.63-.29a14.73,14.73,0,0,1,1.3,1.73,10.38,10.38,0,0,1,.9,1.63l-.69.34a11,11,0,0,0-.88-1.67A15,15,0,0,0,227.58,46.43Z"/><path class="cls-1" d="M242.21,34.16H243v8.4c0,.89,0,1.85-.08,2.89s-.16,2.09-.31,3.17a21.82,21.82,0,0,1-.68,3.19,14.19,14.19,0,0,1-1.19,2.92.6.6,0,0,0-.17-.2l-.24-.21a1.13,1.13,0,0,0-.22-.14,13.45,13.45,0,0,0,1.41-3.77,25.72,25.72,0,0,0,.57-4.07c.09-1.36.14-2.62.14-3.78Zm.37,0h5.06v.69h-5.06Zm.47,12.58c.61-.26,1.31-.58,2.13-1l2.51-1.22.19.62-2.17,1.16-2.1,1.08Zm.61-7.76.64-.33c.51.49,1,1,1.54,1.61A12.65,12.65,0,0,1,247,41.75l-.66.4a18.41,18.41,0,0,0-1.18-1.55A19.93,19.93,0,0,0,243.66,39Zm3.64-4.82h.77V53.39a1.13,1.13,0,0,1-.18.69.92.92,0,0,1-.54.34,7.45,7.45,0,0,1-1.19.12l-2.15,0a1.76,1.76,0,0,0-.12-.34,2.56,2.56,0,0,0-.2-.37l2,0h1.12c.35,0,.53-.18.53-.48ZM256,45.83h.83a16.69,16.69,0,0,1-.65,3.32,7.08,7.08,0,0,1-3.75,4.35,16,16,0,0,1-3.72,1.25l-.13-.18a1.63,1.63,0,0,0-.17-.2l-.17-.17a15.39,15.39,0,0,0,3.63-1.15,6.94,6.94,0,0,0,2.28-1.73,7,7,0,0,0,1.27-2.39A14.88,14.88,0,0,0,256,45.83Zm-6.83,2.58H264v.69H249.21Zm0-12.91h7.05v.69h-7.05Zm1.32,3.72h11.51v6.87H250.58Zm.8.69v2.36h9.94V39.91Zm0,3.06v2.41h9.94V43Zm1.8-9.62h.8v4.94h-.8ZM257,50.15l.47-.48c.8.46,1.62,1,2.48,1.5s1.67,1.07,2.44,1.59,1.4,1,1.9,1.35l-.45.59c-.52-.39-1.16-.86-1.93-1.39s-1.58-1.08-2.44-1.64S257.74,50.61,257,50.15Zm.34-14.65h7v.69h-7Zm2.41-2.24h.8v5h-.8Z"/><path class="cls-1" d="M279,38.84l.72.21a26.15,26.15,0,0,1-1.09,3c-.44,1-.92,2-1.44,3a27.6,27.6,0,0,1-1.65,2.74,14.57,14.57,0,0,1-1.71,2.12l-.27-.28-.31-.27a15,15,0,0,0,1.7-2,26,26,0,0,0,1.61-2.62A29.28,29.28,0,0,0,278,41.81,23.87,23.87,0,0,0,279,38.84Zm-4.69-.29h9.47v.72h-9.47Zm4.77-5.32h.77V54.68h-.77Zm.67,6.59c.15.16.39.41.71.77l1.06,1.2c.39.43.77.88,1.15,1.33l1,1.23.67.81-.68.62-.89-1.22c-.4-.52-.84-1.07-1.31-1.65l-1.34-1.6-.94-1.09Zm13.89-1,.61.33a25.31,25.31,0,0,1-1.82,3.24,38.7,38.7,0,0,1-2.35,3.17,34.27,34.27,0,0,1-2.63,2.85,22.18,22.18,0,0,1-2.72,2.24,1.76,1.76,0,0,0-.24-.32,1.71,1.71,0,0,0-.29-.27,19.76,19.76,0,0,0,2.68-2.14,33.47,33.47,0,0,0,2.62-2.79A31.33,31.33,0,0,0,291.86,42,25.87,25.87,0,0,0,293.67,38.84ZM285,38.58h12.54v.71H285Zm8.81-5.3h.76V53.34a1.43,1.43,0,0,1-.23.93,1.29,1.29,0,0,1-.77.36,9.39,9.39,0,0,1-1.61.12c-.73,0-1.65,0-2.77,0a4.1,4.1,0,0,0-.16-.39l-.18-.4,2.7,0c.81,0,1.34,0,1.59,0a1.09,1.09,0,0,0,.52-.14.58.58,0,0,0,.15-.46Z"/><path class="cls-1" d="M306.71,46.38l2.41-.66c.9-.24,1.86-.52,2.86-.81l3-.87.11.64L310.87,46l-3.82,1.13Zm.32-8h7.84v.71H307Zm3.79-5.08h.79v20.3a.91.91,0,0,1-.77,1,6,6,0,0,1-1.11.12q-.74,0-2.07,0a1,1,0,0,0-.13-.31q-.11-.2-.21-.36c.72,0,1.36,0,1.91,0s.91,0,1.08,0q.51,0,.51-.48ZM328,42.37h.16l.18,0,.48.26A16.24,16.24,0,0,1,326.34,47a20.39,20.39,0,0,1-3.51,3.5,23,23,0,0,1-4.17,2.56,26.78,26.78,0,0,1-4.42,1.67,1.08,1.08,0,0,0-.11-.21L314,54.3a1.72,1.72,0,0,0-.17-.19,25.89,25.89,0,0,0,4.3-1.55,22.85,22.85,0,0,0,4.1-2.46,19.2,19.2,0,0,0,3.45-3.35A14.81,14.81,0,0,0,328,42.54Zm-12.67-5h14.39v.71H315.3Zm.61,5H328v.69H315.91Zm1.69.33a18.12,18.12,0,0,0,4.88,7.23,18.35,18.35,0,0,0,8.11,4.2,1.2,1.2,0,0,0-.21.19l-.2.23-.17.2a19.32,19.32,0,0,1-8.12-4.38,18.84,18.84,0,0,1-5-7.45Zm4.48-9.47h.8v9.59h-.8Z"/><path class="cls-1" d="M345.34,37.81l.74.22a21.82,21.82,0,0,1-1.86,2.79A27.55,27.55,0,0,1,342,43.36a25.44,25.44,0,0,1-2.41,2.11,1.56,1.56,0,0,0-.18-.17l-.23-.19a1.18,1.18,0,0,0-.23-.14,22.68,22.68,0,0,0,3.59-3.21A19.82,19.82,0,0,0,345.34,37.81Zm-1-4.55.8.23a14.9,14.9,0,0,1-1.45,1.88,24.54,24.54,0,0,1-1.83,1.85A18.37,18.37,0,0,1,340,38.79a.78.78,0,0,0-.16-.17l-.21-.19-.18-.16a21.94,21.94,0,0,0,1.91-1.48A19.49,19.49,0,0,0,343.07,35,11.14,11.14,0,0,0,344.38,33.26ZM342.66,42l.71-.65.06,0V54.78h-.77Zm5.17-.27h.77c0,1.58-.09,3-.22,4.25a12.77,12.77,0,0,1-.7,3.28,5.93,5.93,0,0,1-1.55,2.35,1.94,1.94,0,0,0-.29-.26,1.54,1.54,0,0,0-.35-.22A5.26,5.26,0,0,0,347,49a13.62,13.62,0,0,0,.67-3.13C347.74,44.64,347.81,43.28,347.83,41.77Zm-1.51-2.53h9.94v.7h-9.94Zm4.34-5.67h.77V54.7h-.77Zm2.23,1.55.61-.36a14.19,14.19,0,0,1,1.62,1.66A8.69,8.69,0,0,1,356.23,38l-.61.4a11.29,11.29,0,0,0-1.14-1.63A14.25,14.25,0,0,0,352.89,35.12Zm.69,6.68h.77v7.51a1.59,1.59,0,0,0,.07.6.27.27,0,0,0,.27.14h1.81l.42,0a2.94,2.94,0,0,1,.05.35,3.14,3.14,0,0,0,.06.32l-.42,0h-1.92a1.62,1.62,0,0,1-.71-.12.63.63,0,0,1-.32-.44,4,4,0,0,1-.08-.87Zm6.49-.65h.77V53.32a.9.9,0,0,1-.77,1,8,8,0,0,1-1.29.12l-2.36,0a1.58,1.58,0,0,0-.12-.37c-.07-.14-.12-.26-.18-.37l2.19,0c.63,0,1,0,1.23,0a.86.86,0,0,0,.43-.1.42.42,0,0,0,.1-.33Zm-3.81-.5h7.29v.72h-7.29Zm.61-5.39h6.33V36h-6.33Z"/><path class="cls-1" d="M379,53.06a1.22,1.22,0,0,1-.73-.25.89.89,0,0,1-.33-.75,1,1,0,0,1,.33-.8A1.06,1.06,0,0,1,379,51a1.07,1.07,0,0,1,.73.3,1,1,0,0,1,.33.8.89.89,0,0,1-.33.75A1.24,1.24,0,0,1,379,53.06Zm-.37-5.39-.37-10.36v-2.1h1.48v2.1l-.37,10.36Z"/></g></g></svg>