<svg xmlns="http://www.w3.org/2000/svg" viewBox="0 0 313 41.04"><defs><style>.cls-1{fill:#ffc500;}</style></defs><g id="圖層_2" data-name="圖層 2"><g id="text"><path class="cls-1" d="M1.06,10.19l.56.1c-.14.73-.31,1.48-.5,2.26a16.41,16.41,0,0,1-.58,2L.3,14.42a1.12,1.12,0,0,0-.3-.08,12.38,12.38,0,0,0,.62-2C.79,11.63.94,10.9,1.06,10.19ZM.34,5.73.29,5.56a1.72,1.72,0,0,1-.07-.21,1.38,1.38,0,0,0-.08-.17A.74.74,0,0,0,.57,4.9a7,7,0,0,0,.49-.64,10.75,10.75,0,0,0,.62-.9c.28-.44.59-.95.92-1.54A16.38,16.38,0,0,0,3.47,0L4,.26c-.3.62-.62,1.25-1,1.86S2.34,3.32,2,3.87A15.63,15.63,0,0,1,.85,5.36v0L.59,5.5l-.18.11A.19.19,0,0,0,.34,5.73ZM.45,9.28l0-.16c0-.06-.05-.13-.08-.2a.54.54,0,0,0-.07-.17,1,1,0,0,0,.52-.34c.19-.21.42-.46.67-.76s.33-.4.59-.73.56-.73.89-1.19.67-1,1-1.49.66-1.07.95-1.6l.54.21C5,3.6,4.51,4.34,4,5.07S3,6.5,2.52,7.16A20.09,20.09,0,0,1,1,8.94V9a1.45,1.45,0,0,0-.25.1.77.77,0,0,0-.18.1A.15.15,0,0,0,.45,9.28ZM.34,5.73V5.28l.42-.19,3-.28a.85.85,0,0,0,0,.23c0,.08,0,.15,0,.21L1.69,5.5c-.47.06-.79.1-1,.14ZM.45,9.28V8.84l.41-.22,4.43-.55a1.48,1.48,0,0,0,0,.22c0,.08,0,.14,0,.2l-2.47.35-1.4.22-.68.12Zm2.14.89.52-.06c.14.59.25,1.24.36,1.94s.17,1.31.2,1.82L3.13,14A10.67,10.67,0,0,0,3,12.78c0-.43-.12-.87-.2-1.33S2.68,10.57,2.59,10.17Zm1.53-.29.47-.1c.22.49.43,1,.64,1.61a14.63,14.63,0,0,1,.46,1.49L5.18,13a11.86,11.86,0,0,0-.45-1.51C4.53,10.92,4.33,10.38,4.12,9.88Zm.09-3.72.51-.09c.16.38.32.79.47,1.22s.29.84.4,1.24a10.37,10.37,0,0,1,.24,1l-.54.13a9.87,9.87,0,0,0-.23-1.06Q4.9,8,4.67,7.37C4.52,6.94,4.37,6.53,4.21,6.16Zm5.1,6.44.59.31c-.65.3-1.35.61-2.1.92l-2,.81-.16-.2a.79.79,0,0,0-.19-.18l1.31-.52,1.39-.59C8.61,13,9,12.77,9.31,12.6ZM5.9,1.1H16.15v.49H5.9Zm.18,3h9.8V6.8H6.08Zm.49,3.58H15.3v4.68H6.57Zm0-3.11V6.33h8.74V4.6Zm.16-1.85h8.49v.49H6.77ZM7.09,8.2v.89h7.69V8.2Zm0,1.37v.93h7.69V9.57Zm0,1.4v.95h7.69V11ZM9.4,4.21h.52V6.62H9.4ZM10.84.05h.54V3h-.54Zm1.44,12.83.28-.37c.69.26,1.36.53,2,.83s1.23.56,1.7.79l-.31.42c-.46-.25-1-.52-1.7-.82S13,13.15,12.28,12.88Zm.19-8.65H13V6.59h-.54Z"/><path class="cls-1" d="M32.35,8.15l.51.14a9.11,9.11,0,0,1-1.51,1.54,16.34,16.34,0,0,1-1.93,1.31,21.83,21.83,0,0,1-2.05,1l-.1-.13a2.09,2.09,0,0,0-.14-.17L27,11.74a19.44,19.44,0,0,0,2-.94A12.91,12.91,0,0,0,30.9,9.58,7.29,7.29,0,0,0,32.35,8.15Zm-4.8-6.61h15v2.4H42V2H28.09V3.94h-.54Zm3.7,9.38.47.19c-.21.48-.48,1-.8,1.58a6.27,6.27,0,0,1-1.1,1.48l-.45-.27a5.67,5.67,0,0,0,.77-.89,11.73,11.73,0,0,0,.65-1.07A8.63,8.63,0,0,0,31.25,10.92Zm2.69-8,.43.4c-.6.2-1.31.39-2.13.59s-1.61.36-2.35.5a.71.71,0,0,0-.08-.19,2.12,2.12,0,0,1-.12-.2l1.53-.34c.53-.12,1-.24,1.5-.38S33.6,3,33.94,2.9Zm-4.25,5H39.88V4.29H35.61V3.82H40.4V8.34H29.69Zm0-3.87.52.16v4h-.52Zm.38,1.83h4.14v.49H30.07Zm1,3.89H41.68v.47H30.59ZM32.93,11l.5-.06A8.44,8.44,0,0,1,34,12.41a6.14,6.14,0,0,1,.25,1.34l-.51.08a5.52,5.52,0,0,0-.24-1.34A9.38,9.38,0,0,0,32.93,11ZM34,.15l.5-.15c.19.25.39.53.59.84a4.89,4.89,0,0,1,.42.81l-.49.18A6.06,6.06,0,0,0,34.62,1,7.58,7.58,0,0,0,34,.15ZM35.27,11l.45-.16a9.54,9.54,0,0,1,.94,1.33,5.48,5.48,0,0,1,.57,1.26l-.48.2a6.46,6.46,0,0,0-.58-1.28A9.9,9.9,0,0,0,35.27,11Zm.67-5.15h4.37v.49H35.94ZM37.63,11l.43-.24a9.35,9.35,0,0,1,1.12,1,4.64,4.64,0,0,1,.79,1l-.42.28a6.15,6.15,0,0,0-.81-1A9.39,9.39,0,0,0,37.63,11Zm3.83-1.26H42A2.9,2.9,0,0,1,42,10c-.08,1-.15,1.77-.24,2.36a7.75,7.75,0,0,1-.28,1.34,1.45,1.45,0,0,1-.37.66,1,1,0,0,1-.37.2,2,2,0,0,1-.54.06h-.9c-.4,0-.82,0-1.27-.07a1.12,1.12,0,0,0,0-.22.46.46,0,0,0-.12-.23c.49,0,.94.07,1.36.07H40a1.66,1.66,0,0,0,.4,0,.35.35,0,0,0,.23-.12,1.37,1.37,0,0,0,.31-.61,13,13,0,0,0,.25-1.33c.08-.58.16-1.36.23-2.32Z"/><path class="cls-1" d="M53.64,11.29l1.61-.58L57.17,10l2-.78.11.45-2.9,1.13-2.58,1Zm.27-7.21h5.16v.47H53.91ZM56.32.19h.54V10.48h-.54Zm2.27,6.69L68.65,3.09l.23.42L58.8,7.32Zm2.1-5.39h.54V12.68a1.27,1.27,0,0,0,.13.64.73.73,0,0,0,.46.34,4,4,0,0,0,1,.09H68a1.36,1.36,0,0,0,.86-.22,1.25,1.25,0,0,0,.39-.77,10.11,10.11,0,0,0,.17-1.58l.27.14a1.8,1.8,0,0,0,.27.07,9.71,9.71,0,0,1-.22,1.7,1.32,1.32,0,0,1-.57.87,2.29,2.29,0,0,1-1.24.26h-5a5.09,5.09,0,0,1-1.31-.13,1,1,0,0,1-.69-.47,2,2,0,0,1-.2-1ZM64.58,0h.52V11.18h-.52Zm3.89,3.4h-.2l.38-.34.43.15,0,.13c-.08.78-.17,1.6-.28,2.48s-.24,1.71-.38,2.53a19.61,19.61,0,0,1-.46,2.08l-.45-.13c.11-.43.21-.92.32-1.49s.19-1.15.28-1.77.17-1.24.24-1.87S68.42,4,68.47,3.43Z"/><path class="cls-1" d="M80.85,12.26l1.64-.45,2-.57,2.14-.61.08.48-3,.88L81,12.77ZM81,1.3h5.32v.48H81ZM81.21,6h4.84V6.5H81.21Zm2.25-4.42H84V11.71l-.54.16Zm2.8,11.13c.46-.38,1-.82,1.57-1.33L89.7,9.75c.66-.58,1.32-1.16,2-1.75l.26.39-2.77,2.5c-.93.83-1.76,1.56-2.49,2.18Zm.6-9.66H97.12v.47H86.86Zm.43,2,.43-.19a11.76,11.76,0,0,1,.9,1c.29.38.55.75.79,1.12A6.29,6.29,0,0,1,90,8l-.48.23a4.77,4.77,0,0,0-.52-1q-.35-.55-.78-1.14C87.88,5.73,87.59,5.38,87.29,5.05Zm4.25-5h.54V13.77a.75.75,0,0,1-.16.55.88.88,0,0,1-.44.23,5.34,5.34,0,0,1-.9.08H88.86l-.07-.14-.08-.17a.51.51,0,0,0-.09-.16c.61,0,1.15,0,1.6,0s.76,0,.9,0a.61.61,0,0,0,.32-.09.39.39,0,0,0,.1-.29ZM92,3.77a25,25,0,0,0,.65,3.16,11.64,11.64,0,0,0,1,2.51,8.77,8.77,0,0,0,1.53,2,13.64,13.64,0,0,0,2.18,1.74,1.27,1.27,0,0,0-.2.16.91.91,0,0,0-.18.21,12.84,12.84,0,0,1-2.22-1.79,9.67,9.67,0,0,1-1.55-2.1,12,12,0,0,1-1-2.58,26.63,26.63,0,0,1-.65-3.25Zm4.2,1L96.7,5c-.31.43-.66.89-1.06,1.38s-.79,1-1.2,1.41S93.66,8.63,93.3,9l-.38-.22q.52-.52,1.14-1.23c.41-.47.8-.95,1.19-1.45S96,5.13,96.24,4.73Zm-3-4.15.37-.27a11.4,11.4,0,0,1,1.24.88,6.09,6.09,0,0,1,.92.9l-.36.34a7.51,7.51,0,0,0-.94-.94A9.28,9.28,0,0,0,93.27.58Z"/><path class="cls-1" d="M108.07,13.66h16.22v.47H108.07Zm.18-12.35h7.24V1.8h-7.24Zm7.89,2v.47h-6.48V8.67h6.67v.47h-7.2V3.35ZM109.44,5h6.26V7.26h-6.26V6.77h5.72V5.52h-5.72Zm.68,5h12.1v3.84h-.52V10.53h-3.35v3.35h-.54V10.53h-3.33v3.35H114V10.53h-3.31v3.35h-.53Zm2.29-6.57H113V5.33h-.54Zm0,3.61H113V8.94h-.54Zm0-7H113v2.7h-.54Zm6.14,3.19.54.1A19.7,19.7,0,0,1,118,6a11.73,11.73,0,0,1-1.4,2.2.46.46,0,0,0-.12-.09L116.35,8l-.16-.08a10.53,10.53,0,0,0,1.39-2.14A16.19,16.19,0,0,0,118.57,3.24Zm-1.82-1.93h7.16V1.8h-7.16Zm1.15,7h5.17v.49H117.9Zm.34-3.43h5.17v.47h-5.17ZM119.65.05h.52v2.7h-.52Z"/><path class="cls-1" d="M135.65.81h14.67V14.6h-.54V1.28H136.19V14.6h-.54Zm.3,12.6H150.1v.47H136Zm1.32-7.66h11.44v.47H137.27Zm1.6,1.39h8.21V12.2h-8.21Zm.52.47v4.12h7.16V7.61Zm0-5.31h7.11V4.75h-7.11Zm.52.47V4.26H146V2.77Zm1,5.75h4v2.3h-4Zm.54.47v1.36h2.91V9Zm1.17-4.58h.54V6h-.54Z"/><path class="cls-1" d="M164.61,30.94h.54c-.08.44-.18.91-.29,1.41s-.21,1-.32,1.46-.21.87-.31,1.22h-.56c.11-.36.22-.78.34-1.25s.22-1,.33-1.46S164.54,31.37,164.61,30.94Zm.23,0h6V27.61h-7.16v-.47h7.69v4.27h-6.58Zm-.63,3.62h6.92V35h-7Zm6.68,0h.54a1.21,1.21,0,0,0,0,.18.37.37,0,0,1,0,.12c-.11,1.28-.22,2.31-.34,3.08a11.82,11.82,0,0,1-.37,1.79,1.9,1.9,0,0,1-.5.85,1.07,1.07,0,0,1-.46.26,2.22,2.22,0,0,1-.64.07c-.26,0-.66,0-1.18,0l-1.7-.09a1.89,1.89,0,0,0-.05-.23.8.8,0,0,0-.13-.24c.65,0,1.25.09,1.81.1H169a3.11,3.11,0,0,0,.48,0,.53.53,0,0,0,.29-.14,1.55,1.55,0,0,0,.47-.79,11.09,11.09,0,0,0,.36-1.78c.11-.78.22-1.81.32-3.08Zm5.53-8h.52V41h-.52Z"/><path class="cls-1" d="M192.73,26.28l.41.24a15.42,15.42,0,0,1-1.1,2.13,21.11,21.11,0,0,1-1.37,2,14.24,14.24,0,0,1-1.45,1.58l-.17-.24-.19-.23a10.56,10.56,0,0,0,1.46-1.51,18.37,18.37,0,0,0,1.35-1.93A15.82,15.82,0,0,0,192.73,26.28Zm-3.17,7.63h5.69v.52h-5.69Zm.61,3.42.34-.36A15.46,15.46,0,0,1,191.87,38c.46.4.9.8,1.32,1.21a9,9,0,0,1,1,1.14l-.36.4a11.06,11.06,0,0,0-1-1.14c-.4-.41-.84-.83-1.31-1.24A15.33,15.33,0,0,0,190.17,37.33Zm.31-5.87h4.39V32h-4.39ZM195,33.91h.11l.11,0,.41.22a14,14,0,0,1-.91,1.82c-.36.62-.74,1.21-1.12,1.76s-.73,1-1,1.35a.65.65,0,0,0-.13-.16l-.15-.16-.15-.12a7.2,7.2,0,0,0,.77-.88c.27-.36.54-.76.81-1.18s.52-.84.74-1.27a9.58,9.58,0,0,0,.56-1.19Zm-2.77-6.43.41-.28c.44.4.87.84,1.31,1.31s.84.94,1.21,1.39a9.83,9.83,0,0,1,.85,1.19l-.41.36a11.88,11.88,0,0,0-.88-1.23c-.36-.46-.76-.93-1.19-1.41S192.69,27.89,192.26,27.48Zm6.68,11.18.59.22a7.27,7.27,0,0,1-.95.81,13.83,13.83,0,0,1-1.17.76,10.33,10.33,0,0,1-1.21.59,1.86,1.86,0,0,0-.2-.2l-.21-.18a11.13,11.13,0,0,0,1.22-.57,9.48,9.48,0,0,0,1.13-.71A4.15,4.15,0,0,0,198.94,38.66ZM196.4,27.3h8.75v.47H196.4Zm.7,2.48h7.49v8.31H197.1Zm.52.47v2.1h6.45v-2.1Zm0,2.59V35h6.45V32.84Zm0,2.61v2.17h6.45V35.45Zm2.94-8,.57.1c-.12.43-.24.87-.38,1.33s-.28.86-.41,1.21l-.5-.11c.08-.23.17-.49.26-.8s.18-.6.26-.91S200.51,27.67,200.56,27.43ZM201.91,39l.45-.26c.35.19.7.41,1.07.65s.72.47,1,.7a7.28,7.28,0,0,1,.83.66l-.48.29c-.21-.19-.47-.41-.8-.66s-.67-.48-1-.72S202.26,39.17,201.91,39Z"/><path class="cls-1" d="M215.93,38.7c.64-.17,1.39-.39,2.24-.66l2.66-.84.07.47-2.53.81-2.26.73Zm.2-11h4.79v.48h-4.79Zm.22,4.71h4.3v.49h-4.3Zm2-4.52h.52V38.1l-.52.2Zm8.13,7.81.43.21a9.14,9.14,0,0,1-1.6,1.22,16.33,16.33,0,0,1-2,1.07,15.78,15.78,0,0,1-2,.77,1.05,1.05,0,0,0-.15-.21l-.19-.18a14.22,14.22,0,0,0,2.05-.7,15,15,0,0,0,2-1A7.64,7.64,0,0,0,226.46,35.69Zm-5-4.36h10.73v.47H221.44ZM222.3,27h9.24v3.21H222.3Zm.54.47v2.27h2.29V27.49Zm0,5.51h8v3.13h-8Zm.6,7.92a2.08,2.08,0,0,0-.13-.26l-.18-.24a1,1,0,0,0,.33-.26.94.94,0,0,0,.18-.65V37.72l.52-.13v2.67a3.89,3.89,0,0,0-.36.23,1.86,1.86,0,0,0-.25.22A.31.31,0,0,0,223.44,40.92Zm-.07-7.43v2.15h7V33.49Zm.07,7.43V40.5l.38-.27,3.83-.93a1.62,1.62,0,0,0,0,.21,1.06,1.06,0,0,0,0,.2l-2.15.57-1.23.33c-.28.08-.48.14-.6.19Zm2.21-13.43v2.27h2.4V27.49Zm1.55,8.3a7.57,7.57,0,0,0,1.18,2,7.78,7.78,0,0,0,4.17,2.65,1.63,1.63,0,0,0-.21.19.79.79,0,0,0-.17.23,8.2,8.2,0,0,1-5.42-5Zm4.19.76.44.32c-.46.31-1,.61-1.57.93s-1.13.57-1.62.79l-.36-.24,1.06-.56c.39-.21.76-.43,1.13-.65S231.14,36.72,231.39,36.55Zm-2.82-9.06v2.27H231V27.49Z"/><path class="cls-1" d="M247.36,26.47l.52.13a22.29,22.29,0,0,1-1.41,2.64,22.79,22.79,0,0,1-1.72,2.39,19.12,19.12,0,0,1-1.89,2l-.11-.13-.14-.15-.15-.12a15.42,15.42,0,0,0,1.87-1.91A21.11,21.11,0,0,0,246,29,18.19,18.19,0,0,0,247.36,26.47Zm-2,3.88.51-.46,0,0V41h-.54Zm1.91,4.06h11.84v.47H247.25ZM250.76,36l.5.16c-.32.46-.68.93-1.07,1.41s-.78,1-1.18,1.4-.78.85-1.15,1.21l-.11-.1-.18-.12-.16-.09A21,21,0,0,0,249.18,38,24,24,0,0,0,250.76,36Zm-2-8.72h9.16V32h-9.16Zm.52.47v3.78h8.12V27.7ZM253,31.8h.54V41H253Zm2,4.38.43-.23c.45.4.9.83,1.36,1.3s.89.93,1.29,1.38a13.6,13.6,0,0,1,.95,1.19l-.46.29a13.82,13.82,0,0,0-1-1.22c-.39-.46-.82-.93-1.27-1.4S255.42,36.58,255,36.18Z"/><path class="cls-1" d="M270.08,32h8.35v.47h-8.35Zm.05,2.61h8.19v.48h-8.19Zm1.94,1.66.53.12a10.49,10.49,0,0,1-.81,1.74,8.74,8.74,0,0,1-1.08,1.47,1.72,1.72,0,0,0-.22-.17l-.25-.13a7.17,7.17,0,0,0,1.06-1.39A9.41,9.41,0,0,0,272.07,36.27Zm-1.72-8.06h7.79v.47h-7.79Zm1.38.82.49-.08a10.57,10.57,0,0,1,.57,1.39,8,8,0,0,1,.31,1.28l-.52.13a9.34,9.34,0,0,0-.3-1.31A8.79,8.79,0,0,0,271.73,29Zm1.59-2.49.5-.15c.24.3.48.64.73,1a6.13,6.13,0,0,1,.53,1l-.5.19a8.75,8.75,0,0,0-.54-1C273.8,27.2,273.56,26.85,273.32,26.54Zm.68,5.65h.52V41H274Zm2.36-3.27.54.14c-.19.53-.41,1.1-.65,1.71s-.47,1.13-.68,1.55l-.47-.13q.21-.43.45-1L276,30C276.14,29.59,276.26,29.23,276.36,28.92Zm-.56,7.52.45-.17c.31.44.62.92.92,1.45a9.42,9.42,0,0,1,.65,1.36l-.47.19a11.66,11.66,0,0,0-.66-1.38A14.59,14.59,0,0,0,275.8,36.44ZM279.58,28h.52v5.41q0,.86-.06,1.83a13.69,13.69,0,0,1-.27,2,11.15,11.15,0,0,1-.6,1.94,7.09,7.09,0,0,1-1.07,1.76.25.25,0,0,0-.11-.12l-.16-.12a.42.42,0,0,0-.14-.09A6.76,6.76,0,0,0,279,38.3a11.06,11.06,0,0,0,.51-2.52c.07-.85.11-1.64.11-2.37Zm5.8-1.15.52.37c-.52.16-1.12.31-1.8.46s-1.4.28-2.13.39l-2.17.3a1,1,0,0,0-.08-.19,1.41,1.41,0,0,0-.14-.18l2.13-.33c.73-.12,1.42-.25,2.06-.4A15.75,15.75,0,0,0,285.38,26.85ZM279.83,32h6.37v.47h-6.37Zm3.55.16h.52v8.78h-.52Z"/><path class="cls-1" d="M296.78,30.54H313V31H296.78Zm0,7.71h16.05v.47H296.78ZM298,28h13.73v.47H298Zm1,4.2h11.65v4.53H299.06Zm.53.47v1.53h10.6V32.65Zm0,2v1.58h10.6V34.65ZM301,28.84l.45-.18a7.79,7.79,0,0,1,.77,1,6.61,6.61,0,0,1,.51,1l-.49.21a5.35,5.35,0,0,0-.5-1A7.11,7.11,0,0,0,301,28.84Zm3-2.5.45-.17a7.1,7.1,0,0,1,.76,1,7.58,7.58,0,0,1,.53,1l-.48.2a6.72,6.72,0,0,0-.54-1C304.48,27,304.24,26.65,304,26.34Zm.59,10.23h.54V41h-.54Zm3.73-8,.52.23c-.24.36-.51.74-.8,1.14s-.58.73-.84,1l-.4-.19a8.53,8.53,0,0,0,.53-.68c.19-.26.37-.53.55-.8S308.21,28.78,308.32,28.58Z"/></g></g></svg>