<svg xmlns="http://www.w3.org/2000/svg" viewBox="0 0 449.53 47.56"><defs><style>.cls-1{fill:#ffc500;}.cls-2{fill:#fff;}</style></defs><g id="圖層_2" data-name="圖層 2"><g id="text"><path class="cls-1" d="M3.94.1l.51.13A14.94,14.94,0,0,1,3.31,1.94,16.18,16.18,0,0,1,1.94,3.52,17.69,17.69,0,0,1,.45,4.83a.45.45,0,0,0-.12-.12L.16,4.58,0,4.49a14.26,14.26,0,0,0,2.21-2A11.9,11.9,0,0,0,3.94.1ZM.05,10H15.86v.48H.05ZM.74,6H15.52V6.5H.74Zm1.69,5.43.47.09c-.13.33-.29.68-.47,1.06s-.37.74-.57,1.1a6.24,6.24,0,0,1-.62,1L.77,14.5a7.4,7.4,0,0,0,.63-.92c.21-.35.4-.71.58-1.08A11.15,11.15,0,0,0,2.43,11.44Zm.4-9.32h12.4v.49H2.45Zm.3,1.75h.52v6.37H3.13ZM5.44,11.7l.48,0a14.52,14.52,0,0,1,.3,1.49,11.22,11.22,0,0,1,.13,1.31l-.52.07c0-.25,0-.54,0-.86s-.08-.66-.14-1A8.46,8.46,0,0,0,5.44,11.7Zm.73-7.83H6.7v6.29H6.17Zm3,7.79.48-.09c.18.3.36.63.53,1s.31.69.45,1a7,7,0,0,1,.28.86l-.5.13c-.11-.37-.28-.84-.5-1.38A15.37,15.37,0,0,0,9.2,11.66Zm.29-7.79H10v6.37H9.49Zm3.18,0h.52v6.37h-.52ZM13,11.53l.5-.09a12,12,0,0,1,.65,1c.22.37.42.72.61,1.08s.35.65.47.89l-.52.18c-.11-.26-.26-.56-.45-.92s-.4-.72-.61-1.1S13.18,11.86,13,11.53Z"/><path class="cls-1" d="M21.93,8.05H37.5v.47H21.93Zm2-7.09H35.57V6.42H23.92Zm.33,13.72a.71.71,0,0,0-.07-.16,1.63,1.63,0,0,1-.11-.17,1.71,1.71,0,0,0-.11-.14,2.87,2.87,0,0,0,.5-.31.78.78,0,0,0,.31-.68V8.31h.52V14l-.37.19-.3.18a1.09,1.09,0,0,0-.26.19C24.28,14.58,24.25,14.63,24.25,14.68Zm0,0v-.44L24.7,14l5.49-1.18a1.1,1.1,0,0,0,0,.25q0,.12,0,.21c-1.29.28-2.32.5-3.08.68l-1.73.39c-.39.09-.67.17-.82.22A2.31,2.31,0,0,0,24.25,14.68Zm.2-13.25v2h10.6v-2Zm0,2.47v2h10.6v-2ZM29.7,8.12A9.52,9.52,0,0,0,32.84,12a12.87,12.87,0,0,0,5.07,2.18l-.13.13a1.49,1.49,0,0,0-.12.14l-.11.16A14.26,14.26,0,0,1,34,13.26a11.25,11.25,0,0,1-2.83-2.15,10,10,0,0,1-1.91-2.85Zm-.29-7H30V6.33h-.54Zm6.74,8.2.39.29c-.41.25-.87.5-1.38.76s-1,.5-1.58.74-1,.43-1.5.6l-.33-.27,1.5-.64c.54-.25,1.07-.5,1.58-.76S35.79,9.53,36.15,9.32Z"/><path class="cls-1" d="M43.91,9.1l2.39-.77q1.41-.45,2.91-1l0,.49-2.73.91-2.42.84Zm.22-5.54h5.2v.49h-5.2ZM46.74.11h.54V13.93a.68.68,0,0,1-.13.47.67.67,0,0,1-.38.21,2.82,2.82,0,0,1-.71.08H44.74a1.19,1.19,0,0,0-.08-.21c0-.08-.09-.16-.14-.24l1.21,0c.35,0,.58,0,.69,0a.36.36,0,0,0,.24-.07.3.3,0,0,0,.08-.24Zm6,.05h.54V7.37a16.12,16.12,0,0,1-.15,2.27,6.42,6.42,0,0,1-.62,2,5.5,5.5,0,0,1-1.35,1.68,9,9,0,0,1-2.35,1.4.47.47,0,0,0-.09-.12.76.76,0,0,0-.11-.14l-.14-.12A8.39,8.39,0,0,0,50.77,13a5.28,5.28,0,0,0,1.28-1.6,5.9,5.9,0,0,0,.57-1.87,14.65,14.65,0,0,0,.15-2.16Zm-4,10.16c.53-.29,1.17-.67,1.92-1.13L53,7.78l.18.4-2.1,1.34q-1,.68-1.92,1.2Zm.85-8.07.45-.19a9.69,9.69,0,0,1,.84,1.19,13,13,0,0,1,.67,1.27A5.75,5.75,0,0,1,52,5.65l-.51.2a6.32,6.32,0,0,0-.38-1.14,10.11,10.11,0,0,0-1.47-2.46ZM55.85.16h.52V13.32a.8.8,0,0,0,.13.55,1,1,0,0,0,.59.13H59.3a.44.44,0,0,0,.4-.21,2.16,2.16,0,0,0,.19-.77c0-.38.07-.9.08-1.57a1.24,1.24,0,0,0,.27.17,1.43,1.43,0,0,0,.27.09c0,.71-.07,1.26-.13,1.66a1.58,1.58,0,0,1-.33.86,1,1,0,0,1-.76.25H57.11a2.49,2.49,0,0,1-.76-.09A.67.67,0,0,1,56,14a2,2,0,0,1-.11-.74Zm.36,7.42.36-.32c.45.32.92.68,1.41,1.06s.94.75,1.37,1.11.77.66,1,.92l-.41.39q-.42-.4-1-1C58.49,9.4,58,9,57.57,8.63S56.64,7.9,56.21,7.58ZM59.5,1.93l.52.24c-.23.39-.48.8-.77,1.24s-.58.86-.88,1.27-.59.77-.85,1.09l-.41-.23c.26-.31.54-.68.84-1.1s.59-.86.86-1.31S59.31,2.28,59.5,1.93Z"/><path class="cls-1" d="M66.91,11.44h9.14v.48H66.91ZM67.56.68H71v3H67.56Zm.12,4.13h7.69V10H67.68Zm.42-3.66V3.22h2.34V1.15Zm.12,4.13V7.13h6.61V5.28Zm0,2.32V9.48h6.61V7.6Zm3-2.59h.54v9.72h-.54V5ZM72,.68h3.51v3H72Zm.54.47V3.22H75V1.15ZM81.9,6l.47.22a15.68,15.68,0,0,1-1.75,3.37,16.42,16.42,0,0,1-2.53,2.91A12.25,12.25,0,0,1,75,14.58l-.19-.21a1.09,1.09,0,0,0-.22-.18,11.22,11.22,0,0,0,3.08-2A14.65,14.65,0,0,0,80.2,9.35,14.3,14.3,0,0,0,81.9,6Zm-6.3-.91,7.55-.84.09.43-7.55.86ZM77.69.23h.52c.06,1.51.16,3,.3,4.34s.32,2.66.53,3.82a21.7,21.7,0,0,0,.78,3,7.5,7.5,0,0,0,1,2,1.71,1.71,0,0,0,1.25.77c.23,0,.43-.23.59-.71A10.29,10.29,0,0,0,83,11.47l.15.07.17.08.15.06a11.82,11.82,0,0,1-.33,1.83,2.55,2.55,0,0,1-.47,1,.72.72,0,0,1-.61.28A2.13,2.13,0,0,1,80.54,14a6.67,6.67,0,0,1-1.16-2.14,21,21,0,0,1-.82-3.19c-.23-1.22-.42-2.54-.55-4S77.76,1.76,77.69.23ZM79.82.7l.41-.26a11.28,11.28,0,0,1,1,.86c.32.32.62.64.89,1a5.3,5.3,0,0,1,.62.86l-.43.31a5.82,5.82,0,0,0-.62-.88c-.27-.32-.57-.64-.89-1S80.14,1,79.82.7Z"/><path class="cls-1" d="M105.54,9.59h.56a6.6,6.6,0,0,1-.8,1.95A4.65,4.65,0,0,1,103.87,13a8.8,8.8,0,0,1-2.28,1,20,20,0,0,1-3.36.66.77.77,0,0,0-.06-.15c0-.05-.07-.1-.1-.16a.75.75,0,0,0-.11-.13,20.15,20.15,0,0,0,3.28-.61,7.84,7.84,0,0,0,2.21-1,4.58,4.58,0,0,0,1.36-1.34A5.78,5.78,0,0,0,105.54,9.59Zm-6.55,1h13.19V11H99ZM99.18.83h12.08V1.3H99.18Zm.47,2.91h12.17v.49H100.19V9.64h-.54Zm.29,1.85h11.83v.47H99.94Zm0,1.88h11.83v.47H99.94Zm2.23-5,.24-.42c.57.05,1.17.12,1.8.22s1.26.21,1.88.33,1.19.24,1.73.38,1,.29,1.41.43l-.2.47c-.4-.14-.86-.28-1.4-.43s-1.12-.27-1.74-.39S104.64,2.8,104,2.7,102.76,2.51,102.17,2.45Zm3.42,1.45h.54V9.19h-.54ZM111.14.83h.14l.14,0,.42.3a11.36,11.36,0,0,1-1.6.79c-.62.25-1.25.47-1.89.67s-1.28.37-1.88.51a1.15,1.15,0,0,0-.16-.18l-.2-.16c.59-.13,1.2-.29,1.82-.48s1.22-.39,1.78-.62a10.76,10.76,0,0,0,1.43-.68Zm.81,9.73h.55a2.9,2.9,0,0,1,0,.29c-.11.77-.22,1.4-.33,1.88a5.54,5.54,0,0,1-.34,1.13,1.74,1.74,0,0,1-.41.59,1.14,1.14,0,0,1-.4.19,2.79,2.79,0,0,1-.57,0h-1c-.46,0-1,0-1.48-.08a1.89,1.89,0,0,0-.06-.21,1.08,1.08,0,0,0-.12-.24l1.59.09,1,0,.45,0a.52.52,0,0,0,.25-.11,1.8,1.8,0,0,0,.52-1,19,19,0,0,0,.44-2.5Zm-.42-6.82h.52V9a.74.74,0,0,1-.09.4.58.58,0,0,1-.36.23,4,4,0,0,1-.83.07h-1.52a1.18,1.18,0,0,0-.09-.23,2.56,2.56,0,0,1-.11-.24l1,0h1.16a.55.55,0,0,0,.26-.07.27.27,0,0,0,.06-.19Z"/><path class="cls-1" d="M123.85,3.79l.52.15a14.51,14.51,0,0,1-1.3,1.82,20.41,20.41,0,0,1-1.55,1.66,17,17,0,0,1-1.63,1.39l-.12-.12-.17-.14-.16-.11a16.12,16.12,0,0,0,1.66-1.31,15.4,15.4,0,0,0,1.53-1.6A12.19,12.19,0,0,0,123.85,3.79ZM123.59.16l.53.16A11.17,11.17,0,0,1,123,1.64a15.77,15.77,0,0,1-1.42,1.28A14.13,14.13,0,0,1,120.05,4l-.1-.13-.14-.13-.12-.09c.49-.31,1-.65,1.48-1a15,15,0,0,0,1.39-1.22A8.33,8.33,0,0,0,123.59.16Zm-1.27,6,.54-.47v9.06h-.54Zm2,7.57h11.52v.47H124.35Zm.48-10.42H135.4v.47H124.83Zm.69,4.9h9.29v.46h-9.29ZM128.63.24l.47-.19a14.82,14.82,0,0,1,1,1.42,9.81,9.81,0,0,1,.73,1.3l-.51.26a9,9,0,0,0-.71-1.35A12.55,12.55,0,0,0,128.63.24Zm1.14,3.28h.54V14h-.54Z"/><path class="cls-1" d="M142.32,13.51h16.22V14H142.32Zm.62-11.74h14.95v.47H142.94ZM145.13,4H155.9v9.88h-.54V4.46h-9.71v9.41h-.52Zm.31,2.36h10.24v.47H145.44Zm0,2.24h10.24v.47H145.44Zm0,2.41h10.25v.47H145.47ZM150.08.11l.58.07q-.14.63-.27,1.38c-.1.51-.19,1-.29,1.47s-.19.89-.29,1.25l-.5-.08a11.15,11.15,0,0,0,.3-1.28c.1-.49.19-1,.27-1.49S150,.49,150.08.11Z"/><path class="cls-1" d="M166.32,5.09h.52v4a18.6,18.6,0,0,1-.11,1.88,9.36,9.36,0,0,1-.43,2,5.82,5.82,0,0,1-1,1.81.44.44,0,0,0-.12-.1l-.16-.11a.6.6,0,0,0-.15-.09,5.1,5.1,0,0,0,1-1.72,8.47,8.47,0,0,0,.4-1.9c.06-.63.09-1.23.09-1.78ZM165,2.82h15.8V3.3H165Zm1.58,2.27H172v.47h-5.42Zm0,2.64H172v.48h-5.42Zm0,2.7H172v.47h-5.42ZM168.14.26l.45-.18a12.68,12.68,0,0,1,1.09,1.26,11.69,11.69,0,0,1,.83,1.19l-.48.19a8.32,8.32,0,0,0-.79-1.2A12.41,12.41,0,0,0,168.14.26Zm3.67,4.83h.54v8.73a.82.82,0,0,1-.11.46.75.75,0,0,1-.41.24,5.43,5.43,0,0,1-.89.08h-1.58c0-.06-.06-.14-.1-.24s-.09-.18-.13-.26l1.5,0h.84a.51.51,0,0,0,.27-.08.35.35,0,0,0,.07-.23Zm3.38.13h.54v6.66h-.54ZM177.42,0l.53.21c-.32.49-.67,1-1.06,1.56s-.76,1-1.1,1.42L175.34,3a11.2,11.2,0,0,0,.74-.93c.26-.36.51-.71.74-1.08S177.26.29,177.42,0Zm1.46,4.68h.54V13.8a.76.76,0,0,1-.13.51.88.88,0,0,1-.44.24,5.43,5.43,0,0,1-1,.07h-1.75a1.11,1.11,0,0,0-.08-.24l-.14-.25,1.66,0c.47,0,.78,0,.93,0a.57.57,0,0,0,.3-.08c.06,0,.08-.12.08-.24Z"/><path class="cls-2" d="M82,43l.56.09c-.13.68-.29,1.38-.48,2.09A18.39,18.39,0,0,1,81.55,47a.84.84,0,0,0-.16-.07l-.2-.07L81,46.81A10.15,10.15,0,0,0,81.61,45C81.77,44.33,81.91,43.67,82,43Zm-.72-4.46,0-.17a1.72,1.72,0,0,1-.07-.21.91.91,0,0,0-.08-.17.85.85,0,0,0,.44-.28,6.62,6.62,0,0,0,.54-.64c.14-.17.36-.46.67-.9s.64-1,1-1.54.67-1.19,1-1.79l.55.23c-.5.94-1,1.86-1.63,2.76a18.75,18.75,0,0,1-1.8,2.35l-.26.13a.78.78,0,0,0-.18.11A.19.19,0,0,0,81.31,38.55Zm.11,3.55,0-.16-.08-.21a.67.67,0,0,0-.07-.17,1,1,0,0,0,.54-.34c.21-.2.44-.45.7-.74s.34-.4.62-.73.59-.73.94-1.19.71-1,1.08-1.49.7-1.07,1-1.61l.54.22c-.47.75-1,1.49-1.49,2.22S84.1,39.33,83.56,40a19,19,0,0,1-1.64,1.78h0l-.25.1a.78.78,0,0,0-.18.11A.15.15,0,0,0,81.42,42.1Zm-.11-3.55V38.1l.42-.2L85,37.61a.82.82,0,0,0,0,.23.62.62,0,0,0,0,.21l-1.82.21-1.06.13a4.29,4.29,0,0,0-.53.09Zm.11,3.55v-.44l.41-.22,4.52-.57a1.48,1.48,0,0,0,0,.22c0,.09,0,.16,0,.22l-2.52.34-1.43.22-.69.13A1.61,1.61,0,0,0,81.42,42.1Zm2.3.94.53-.07c.1.57.21,1.17.31,1.83a15.85,15.85,0,0,1,.19,1.69l-.52.08c0-.47-.09-1-.18-1.7S83.84,43.6,83.72,43ZM85.29,39l.52-.09A12.36,12.36,0,0,1,86.33,40c.17.42.32.82.46,1.2a8,8,0,0,1,.3,1l-.56.14a7.51,7.51,0,0,0-.29-1c-.13-.38-.28-.79-.44-1.2S85.47,39.34,85.29,39Zm0,3.78.48-.12c.21.48.41,1,.62,1.56a11,11,0,0,1,.45,1.46l-.53.13a10.83,10.83,0,0,0-.42-1.47Q85.61,43.46,85.31,42.75Zm1.55,3.85H97.21v.49H86.86Zm2.62-11.53.54.18c-.21.4-.49.85-.83,1.37s-.67,1-1,1.44c.42.5.82,1,1.21,1.61a14.09,14.09,0,0,1,.89,1.44l-.52.24a10.56,10.56,0,0,0-.9-1.53,20,20,0,0,0-1.33-1.74c.24-.33.48-.68.73-1s.47-.72.68-1.07S89.35,35.32,89.48,35.07Zm-1.81-1.28h9.39v.47H87.67ZM88,42.18h8.46v.47H88Zm4.69-7.11.54.18c-.22.4-.52.85-.88,1.37s-.69,1-1,1.44c.29.34.58.69.86,1.07s.54.73.78,1.07a8.12,8.12,0,0,1,.56.91l-.5.24a12.34,12.34,0,0,0-1-1.53,20.9,20.9,0,0,0-1.4-1.74q.39-.49.78-1c.26-.37.5-.72.72-1.07S92.59,35.32,92.72,35.07ZM92,42.41h.52v4.5H92Zm3.88-7.34.56.18c-.25.4-.56.85-.92,1.37s-.7,1-1,1.44c.3.33.59.68.89,1s.57.73.82,1.08a9,9,0,0,1,.59.9l-.5.26a13.4,13.4,0,0,0-1-1.53,21.56,21.56,0,0,0-1.45-1.74c.26-.33.53-.68.78-1s.5-.72.72-1.07S95.73,35.32,95.87,35.07Z"/><path class="cls-2" d="M107.85,36.49l.49.15a13.81,13.81,0,0,1-1.3,1.82,19,19,0,0,1-1.58,1.65,17.31,17.31,0,0,1-1.67,1.39l-.11-.11-.15-.13-.16-.12a13.93,13.93,0,0,0,1.68-1.31,16.63,16.63,0,0,0,1.54-1.6A12.77,12.77,0,0,0,107.85,36.49Zm-.18-3.58.53.17a11.88,11.88,0,0,1-1.14,1.32c-.44.44-.92.87-1.42,1.28a15.55,15.55,0,0,1-1.51,1.07l-.1-.13-.14-.13-.12-.09c.49-.31,1-.65,1.48-1a15,15,0,0,0,1.39-1.22A7.85,7.85,0,0,0,107.67,32.91ZM106.4,38.6l.54-.49v9.32h-.54Zm2.17,3.71h11.36v.47H108.57Zm.36-2.33h10.73v.47H108.93Zm1.34-6.6h8.26v5.09h-8.26Zm.23,10.26.41-.24a15.19,15.19,0,0,1,1.37,1.22,8.58,8.58,0,0,1,1,1.17l-.43.31a8.32,8.32,0,0,0-.63-.77c-.27-.29-.55-.58-.85-.87S110.8,43.89,110.5,43.64Zm.29-9.77v1.8H118v-1.8Zm0,2.28V38H118V36.15Zm5.69,4.22H117V46.7a.82.82,0,0,1-.11.46.64.64,0,0,1-.41.22,6.25,6.25,0,0,1-1,.08l-1.73,0a.68.68,0,0,0-.09-.23,1.38,1.38,0,0,0-.14-.24h2.54a.54.54,0,0,0,.3-.08.3.3,0,0,0,.08-.23Z"/><path class="cls-2" d="M127.15,40.09l.55,0c0,1-.1,2-.19,2.91a15.62,15.62,0,0,1-.47,2.48,6.71,6.71,0,0,1-.94,2,.44.44,0,0,0-.12-.11l-.18-.12-.17-.09a5.6,5.6,0,0,0,.92-1.9,12.66,12.66,0,0,0,.43-2.41C127.07,42,127.12,41.07,127.15,40.09ZM125.94,38h8v.49h-8Zm.43-3.07h7.08v.48h-7.08Zm1.14,7.38a7.06,7.06,0,0,0,1,2.1,4.2,4.2,0,0,0,1.47,1.31,6.74,6.74,0,0,0,2.14.66,19.75,19.75,0,0,0,3,.19h7.18a.85.85,0,0,0-.11.14l-.1.18A.77.77,0,0,0,142,47H135.1a21.16,21.16,0,0,1-3.21-.2,7,7,0,0,1-2.27-.7,4.46,4.46,0,0,1-1.54-1.39,7.78,7.78,0,0,1-1-2.24Zm2.19-9.44h.52v5.36h-.52Zm.18,5.54h.52V46h-.52Zm.16,3.14h3.68V42H130Zm4.9-7.38h.52v9.52a.67.67,0,0,0,.23.59,2,2,0,0,0,1,.16h3.92a.88.88,0,0,0,.59-.17.93.93,0,0,0,.27-.6,11.66,11.66,0,0,0,.12-1.28,1.15,1.15,0,0,0,.27.14l.27.09a7,7,0,0,1-.17,1.39,1.11,1.11,0,0,1-.44.71,1.8,1.8,0,0,1-.94.2h-3.85a4.26,4.26,0,0,1-1.06-.1.82.82,0,0,1-.54-.36,1.65,1.65,0,0,1-.15-.79Zm.18,0h6v5.29h-6V39h5.45V34.63h-5.45Z"/><path class="cls-2" d="M163.12,33.71l.45.24a24.87,24.87,0,0,1-3,2.82A35.47,35.47,0,0,1,157,39.22a44.25,44.25,0,0,1-3.92,2.07A43.54,43.54,0,0,1,148.92,43a.42.42,0,0,0-.11-.13l-.15-.16a1.09,1.09,0,0,0-.17-.13,44.47,44.47,0,0,0,4.2-1.63,38.71,38.71,0,0,0,3.95-2.05,31.39,31.39,0,0,0,3.53-2.43A24.2,24.2,0,0,0,163.12,33.71ZM149,37.9h15.48v.49H149Zm1.68-2.9h9.7v.47h-9.7Zm3.49,5.46h.57c-.2.51-.43,1-.68,1.6s-.48,1-.67,1.4h-.57a15.32,15.32,0,0,0,.7-1.45C153.77,41.45,154,40.94,154.18,40.46ZM153.33,43h8v.47h-8.15Zm1-2.53h8.59V41h-8.84Zm1.33-7.61h.54v5.28h-.54ZM161.16,43h.54a1.76,1.76,0,0,0,0,.19.41.41,0,0,1,0,.12,17.54,17.54,0,0,1-.55,2.57,2.34,2.34,0,0,1-.68,1.12,1.14,1.14,0,0,1-.48.21,4.44,4.44,0,0,1-.65.07l-1.33,0q-.9,0-1.95-.09c0-.07,0-.15-.05-.24a.7.7,0,0,0-.13-.24l1.41.09c.45,0,.85,0,1.19.05h.73a4.12,4.12,0,0,0,.55,0,.67.67,0,0,0,.31-.11,1.83,1.83,0,0,0,.61-1,21.27,21.27,0,0,0,.51-2.56Z"/><path class="cls-2" d="M171.4,42.55l.47.13c-.06.36-.14.76-.23,1.22s-.19.9-.29,1.33a9.48,9.48,0,0,1-.36,1.16l-.49-.19a8.85,8.85,0,0,0,.39-1.14q.17-.64.3-1.32C171.28,43.3,171.35,42.9,171.4,42.55Zm6-8.86v.47h-5.31v6.9h5v.49h-5.56V33.69Zm-5.53,2.41h5.1v.49h-5.1Zm0,2.4h5.1V39h-5.1Zm.56,4.31.49-.06c.09.46.17,1,.23,1.5s.1,1,.11,1.4l-.51.08c0-.4,0-.87-.1-1.41S172.47,43.28,172.39,42.81Zm1-.22.47-.12c.17.42.35.88.53,1.37a11.3,11.3,0,0,1,.41,1.27l-.51.13c-.08-.35-.21-.78-.37-1.29S173.61,43,173.43,42.59Zm.72-8.72h.54v7.45h-.54Zm2.58,7.19h.54v.33c-.06,1.35-.12,2.42-.18,3.2a14.87,14.87,0,0,1-.21,1.76,1.9,1.9,0,0,1-.3.79.77.77,0,0,1-.32.22,2,2,0,0,1-.49,0,5.69,5.69,0,0,1-.59,0l-.76,0c0-.06,0-.14,0-.23a.57.57,0,0,0-.11-.22l.87,0h.57a.9.9,0,0,0,.25,0,.23.23,0,0,0,.18-.14,1.69,1.69,0,0,0,.26-.73,16.8,16.8,0,0,0,.18-1.75c.06-.79.11-1.83.16-3.14Zm-2.22,1.2.42-.16c.25.33.5.71.76,1.12a7.67,7.67,0,0,1,.57,1l-.45.21a9,9,0,0,0-.57-1.07C175,43,174.75,42.6,174.51,42.26Zm5.13.73.54.08a8.17,8.17,0,0,1-1.05,2.51,7.26,7.26,0,0,1-1.68,1.88.63.63,0,0,0-.12-.1l-.16-.13-.15-.11a6.47,6.47,0,0,0,1.64-1.77A7.4,7.4,0,0,0,179.64,43ZM182,32.75l.58.13a12.1,12.1,0,0,1-2.1,2.54,15,15,0,0,1-2.92,2.16.63.63,0,0,0-.12-.1l-.16-.09-.15-.09a14.89,14.89,0,0,0,2-1.33,13.31,13.31,0,0,0,1.68-1.57A8.89,8.89,0,0,0,182,32.75Zm-3.72,6h3.29v3.55h-3.29Zm.52.49v2.59H181V39.22Zm.5,5.46.36-.3a12.86,12.86,0,0,1,1.34.85,7.45,7.45,0,0,1,1.06.85l-.34.36a10.71,10.71,0,0,0-1.08-.89A13.17,13.17,0,0,0,179.28,44.68Zm.15-8.14h5.49V37h-5.49Zm4.79,6.32.55.07a7.25,7.25,0,0,1-1.08,2.59,7.06,7.06,0,0,1-1.81,1.88l-.12-.1-.17-.13-.18-.11a6.25,6.25,0,0,0,1.79-1.76A7.32,7.32,0,0,0,184.22,42.86Zm-2.07-9.72a9.44,9.44,0,0,0,1.31,1.47A15.9,15.9,0,0,0,185.2,36,16.07,16.07,0,0,0,187,37.09l-.15.09-.15.12a.43.43,0,0,0-.11.12c-.54-.33-1.12-.71-1.73-1.16a18.5,18.5,0,0,1-1.73-1.43,8.65,8.65,0,0,1-1.31-1.48Zm.54,5.59h3.4v3.55h-3.4Zm.52.49v2.59h2.34V39.22Zm.45,5.54.38-.3c.34.22.69.46,1.05.73s.68.52,1,.78a7.21,7.21,0,0,1,.73.7l-.4.35a7.12,7.12,0,0,0-.73-.73c-.3-.27-.63-.53-1-.81S184,45,183.66,44.76Z"/><path class="cls-2" d="M193.85,35.44h.54V47.09h-.54Zm.25,4.68h5.33v.47H194.1Zm.1-4.68h5.41V45.71H194.2v-.48h4.87V35.91H194.2Zm2.6-2.64.56.16c-.15.46-.33.93-.54,1.44s-.39.92-.57,1.27l-.45-.15c.12-.25.24-.53.37-.85s.24-.64.36-1S196.73,33.06,196.8,32.8Zm6.25-.08.52.1a20,20,0,0,1-.73,2.35,16.82,16.82,0,0,1-.94,2.14,10.69,10.69,0,0,1-1.15,1.78l-.13-.09-.18-.09-.16-.08a10.71,10.71,0,0,0,1.15-1.74,15.35,15.35,0,0,0,.93-2.09A21.47,21.47,0,0,0,203.05,32.72Zm-.77,6.48.41-.23c.39.39.77.82,1.17,1.27s.76.91,1.09,1.33a13.14,13.14,0,0,1,.8,1.13l-.47.29a11.8,11.8,0,0,0-.78-1.16q-.5-.66-1.08-1.35C203,40,202.65,39.59,202.28,39.2Zm.09-3.74h5.79v.48h-5.79Zm5.58,0h.54v.37c-.09,1.89-.17,3.48-.25,4.78s-.16,2.35-.27,3.17a12.11,12.11,0,0,1-.34,1.87,2.22,2.22,0,0,1-.46.94,1.3,1.3,0,0,1-.48.33,2.31,2.31,0,0,1-.67.1h-1.1c-.46,0-.95,0-1.44-.08,0-.08,0-.17,0-.26a.57.57,0,0,0-.13-.21c.6.05,1.15.07,1.63.08l1,0a1.92,1.92,0,0,0,.45,0,.56.56,0,0,0,.31-.2,2.1,2.1,0,0,0,.41-.89,12.49,12.49,0,0,0,.32-1.88c.1-.82.19-1.88.27-3.19s.17-2.89.24-4.77Z"/><path class="cls-2" d="M219.45,32.83l.5.15a10.58,10.58,0,0,1-1.2,1.62A13.78,13.78,0,0,1,217.23,36a16.73,16.73,0,0,1-1.65,1.17.6.6,0,0,0-.11-.12l-.15-.14-.15-.12a12.91,12.91,0,0,0,2.42-1.75A9.68,9.68,0,0,0,219.45,32.83ZM216,39.46h7.07v.48H216Zm.59,2.67h5.87v4.8h-.52V42.6h-4.83v4.63h-.52Zm.29,3.76h5.25v.49h-5.25Zm0-9H222v.47h-5.09Zm2.19-3,.33-.36c.49.28,1,.6,1.49.94s1,.69,1.41,1a9.77,9.77,0,0,1,1,.92l-.35.42a10.93,10.93,0,0,0-1.06-1c-.44-.35-.9-.7-1.4-1.06A15.6,15.6,0,0,0,219.07,33.87Zm.18,3.19h.52v5.3h-.52Zm4.16,1.67h7.79v.49h-7.79Zm.72-5h6.12v.47h-6.12Zm.56,2.08.37-.31a14,14,0,0,1,1.55.86,16.47,16.47,0,0,1,1.44,1,7,7,0,0,1,1.07,1l-.42.34a7.75,7.75,0,0,0-1-1c-.43-.34-.91-.68-1.42-1A14.19,14.19,0,0,0,224.69,35.77Zm2.39,3.09h.54v7.87a.81.81,0,0,1-.1.46.51.51,0,0,1-.35.19,4,4,0,0,1-.76.08l-1.42,0a1,1,0,0,0-.08-.22c0-.09-.08-.18-.12-.25h2A.45.45,0,0,0,227,47a.27.27,0,0,0,.06-.2Zm3-5.17h.11l.13,0,.39.21a10.66,10.66,0,0,1-1,1.17,14.28,14.28,0,0,1-1.24,1.11,12.9,12.9,0,0,1-1.23.91l-.18-.15-.2-.14a10.18,10.18,0,0,0,1.2-.88,14.18,14.18,0,0,0,1.14-1,9.74,9.74,0,0,0,.9-1Zm.85,5h.11l.12,0,.38.16c-.29.51-.59,1-.92,1.57a11.35,11.35,0,0,1-.93,1.36l-.49-.18c.19-.23.39-.51.6-.81s.41-.63.61-1,.36-.66.52-1Z"/><path class="cls-2" d="M241.37,40.71h.13l.12,0,.31.11A11.27,11.27,0,0,1,240.38,45a8.44,8.44,0,0,1-2.52,2.56.47.47,0,0,0-.12-.14l-.15-.14a.55.55,0,0,0-.14-.09,7.8,7.8,0,0,0,2.46-2.43,10.22,10.22,0,0,0,1.46-3.87Zm-3.53.68a.75.75,0,0,0-.08-.2,1.63,1.63,0,0,1-.11-.23,1.39,1.39,0,0,0-.11-.19,1.66,1.66,0,0,0,.38-.15,1.45,1.45,0,0,0,.43-.32,7.21,7.21,0,0,0,.65-.67c.29-.32.59-.67.91-1.05s.63-.76.91-1.11l.66-.85v0l.27-.11.47.22-.82,1-1,1.16-1,1.15c-.34.37-.65.68-.92.94l-.3.16-.21.14A.21.21,0,0,0,237.84,41.39Zm-.16-4.83h4.07V37h-4.07Zm.16,4.83v-.47l.53-.21h3.29v.47h-2.77a3.26,3.26,0,0,0-.67.06A.82.82,0,0,0,237.84,41.39Zm.69-8.3.43-.19.82.86.8.89a7,7,0,0,1,.59.77l-.43.25c-.16-.23-.36-.49-.61-.79l-.79-.92Q238.92,33.48,238.53,33.09Zm1.92,11.28a4,4,0,0,0,1.7,1.54,7.83,7.83,0,0,0,2.57.68c1,.1,2.16.16,3.45.16l2,0,2,0,1.81-.09a.49.49,0,0,0-.1.16,1.46,1.46,0,0,0-.07.19c0,.07,0,.13,0,.18l-1.69.07-2,0h-1.94c-1.05,0-2,0-2.86-.09a11.79,11.79,0,0,1-2.27-.38,5.49,5.49,0,0,1-1.73-.79,4.43,4.43,0,0,1-1.25-1.36Zm1.64-9.9H253.7v.47H242.09Zm1.28,2.64h9.14v.49h-8.62v7.8h-.52ZM244.56,39h7.07v.47h-7.07Zm.43-3.8.45-.15a5.87,5.87,0,0,1,.6.9,3.36,3.36,0,0,1,.37.87l-.47.19a4.4,4.4,0,0,0-.37-.9A8.43,8.43,0,0,0,245,35.17Zm.79,5.7h.52v3.29h-.52Zm.24,0h4.57v2.54H246v-.47h4v-1.6h-4Zm.75-7.79.45-.2a8,8,0,0,1,.73.87,7.23,7.23,0,0,1,.53.83l-.5.23a4.72,4.72,0,0,0-.52-.84C247.23,33.64,247,33.35,246.77,33.08Zm1.1,4.42h.52v3.56h-.52ZM250.46,35l.5.2c-.21.37-.44.76-.7,1.15a9.56,9.56,0,0,1-.73,1l-.45-.19a10.39,10.39,0,0,0,.75-1.08Q250.22,35.44,250.46,35Zm1.82,2.14h.52v7.34a.88.88,0,0,1-.09.44.59.59,0,0,1-.34.22,4,4,0,0,1-.82.08l-1.34,0a.69.69,0,0,0-.09-.25l-.14-.25,1.28,0a7.25,7.25,0,0,0,.73,0,.4.4,0,0,0,.24-.07.32.32,0,0,0,.05-.2Z"/><path class="cls-2" d="M262,34.68h.54v4.49c0,.6,0,1.26-.07,2a21.16,21.16,0,0,1-.24,2.17,14.59,14.59,0,0,1-.52,2.17,9.1,9.1,0,0,1-.92,2,.28.28,0,0,0-.13-.1l-.17-.1a.47.47,0,0,0-.15-.06,8.44,8.44,0,0,0,.9-1.95,15.26,15.26,0,0,0,.5-2.1,19.21,19.21,0,0,0,.21-2.09c0-.68,0-1.32,0-1.91Zm.25,0h14.15v.49H262.21Zm11.73,7.44h.13l.11,0,.34.21a7,7,0,0,1-2,2.09,12.27,12.27,0,0,1-2.84,1.47,24.43,24.43,0,0,1-3.34,1c-1.17.24-2.35.42-3.54.55a.81.81,0,0,0-.09-.21,1.18,1.18,0,0,0-.14-.22,34.41,34.41,0,0,0,3.44-.51,20.63,20.63,0,0,0,3.27-.9A12.55,12.55,0,0,0,272,44.15a6.58,6.58,0,0,0,1.91-1.92ZM263,37.39h13.1v.46H263Zm.36,4.73h10.73v.48H263.38Zm2.72.5a7.82,7.82,0,0,0,2.5,2.15,15.48,15.48,0,0,0,3.62,1.48,26.57,26.57,0,0,0,4.33.79l-.11.13a1.58,1.58,0,0,0-.12.15.8.8,0,0,0-.09.14,26.77,26.77,0,0,1-4.33-.87,16.22,16.22,0,0,1-3.69-1.53,7.92,7.92,0,0,1-2.58-2.25Zm.27-7h.54v4.58h5.47V35.64h.52v5h-6.53ZM268.13,33l.5-.14c.23.3.46.63.7,1a8.67,8.67,0,0,1,.51.92l-.5.2c-.12-.26-.3-.58-.52-1A9.06,9.06,0,0,0,268.13,33Z"/><path class="cls-2" d="M285.65,42.81l-.23-.4a4.57,4.57,0,0,0,1.64-1.2,2.82,2.82,0,0,0,.57-1.83l-.54-1.14,1,1a.83.83,0,0,1-.4.31,1.72,1.72,0,0,1-.44.06,1.16,1.16,0,0,1-.7-.2.78.78,0,0,1-.27-.66.78.78,0,0,1,.29-.67,1.12,1.12,0,0,1,.66-.2,1,1,0,0,1,.85.41,1.9,1.9,0,0,1,.28,1.09,3.12,3.12,0,0,1-.74,2.12A4.59,4.59,0,0,1,285.65,42.81Z"/><path class="cls-2" d="M302.13,33l.5.1a23.68,23.68,0,0,1-1.18,2.68A21.7,21.7,0,0,1,300,38.22a17.32,17.32,0,0,1-1.64,2.05l-.11-.12-.15-.13a.53.53,0,0,0-.14-.12,16.37,16.37,0,0,0,1.62-2A20.54,20.54,0,0,0,301,35.55,21.44,21.44,0,0,0,302.13,33Zm-1.48,3.5.5-.45,0,0V47.46h-.52Zm1.64-.26h6.28v.47h-6.28Zm.68,4h.52v6.42H303Zm.25,0H308v5.44h-4.77v-.48h4.25V40.69h-4.25Zm2-7.19h.54v7.42h-.54Zm8.1,3.29.56.06a25.72,25.72,0,0,1-1.1,4.86,12,12,0,0,1-2,3.65,10.81,10.81,0,0,1-3.29,2.65l-.11-.12-.17-.14-.15-.11a10,10,0,0,0,3.29-2.54,11.1,11.1,0,0,0,1.94-3.58A24.27,24.27,0,0,0,313.3,36.32Zm-3.13-3.47.52.08a26.77,26.77,0,0,1-.6,2.64,22,22,0,0,1-.8,2.41,11,11,0,0,1-1,2l-.15-.08a.82.82,0,0,1-.19-.09l-.16-.06a9.88,9.88,0,0,0,1-2,21.22,21.22,0,0,0,.8-2.37C309.82,34.57,310,33.71,310.17,32.85Zm-.47,3.66c.1.94.25,1.92.45,2.93a17.8,17.8,0,0,0,.88,3,10.48,10.48,0,0,0,1.52,2.66,8,8,0,0,0,2.39,2l-.12.11-.15.14-.12.14a8.63,8.63,0,0,1-2.42-2.13,11.83,11.83,0,0,1-1.53-2.67,17.12,17.12,0,0,1-.87-2.92c-.2-1-.34-1.94-.44-2.84Zm0-.36h4.95v.47h-5.1Z"/><path class="cls-2" d="M320.87,45.74l1.95-.2,2.35-.27L327.7,45v.47l-3.63.42-3.12.36Zm.27-6.51h15.65v.47H321.14Zm1.61.13h.54v6.42h-.54Zm.23,1.83h4.77v.49H323Zm0,2h4.77v.47H323Zm.32-9.55h11.45v4.68h-.54V34.1H323.84v4.21h-.54Zm1.55,1.79h8.34v.47h-8.34Zm0,1.84h8.34v.48h-8.34Zm2.59,2.12H328v8.06h-.53Zm8,1.75h.11l.11,0,.32.17a8.33,8.33,0,0,1-1.82,2.84,11.15,11.15,0,0,1-2.66,2,14.62,14.62,0,0,1-3,1.26l-.15-.21a1,1,0,0,0-.19-.18,12.87,12.87,0,0,0,2.92-1.18,10.82,10.82,0,0,0,2.6-1.94,7.55,7.55,0,0,0,1.73-2.65Zm-6.89,0h7.05v.48h-7.05Zm1.76.47a8.64,8.64,0,0,0,2.6,3.45,10.28,10.28,0,0,0,4.19,2l-.13.12a.75.75,0,0,0-.12.14l-.11.12a11,11,0,0,1-4.21-2.13,9,9,0,0,1-2.67-3.57Z"/><path class="cls-2" d="M343.58,46.38h16.29v.47H343.58Zm1-12.83h6.73V34h-6.19v7.14h-.54Zm0,7.35h7.24v.47h-7.24Zm.27-5h6.52v3h-6.52v-.47h6v-2h-6Zm.67,7.41h12.4v.47h-12.4Zm2.59-9.45h.54v2.37h-.54Zm0,4.86h.54v2.43h-.54Zm3.31,3.19H352v4.72h-.54Zm7.15-8.35h.11l.1,0,.33.15a12,12,0,0,1-1.66,3.64A13,13,0,0,1,355,40a12.6,12.6,0,0,1-2.81,1.75.53.53,0,0,0-.1-.12l-.12-.14a.75.75,0,0,0-.14-.12,11.08,11.08,0,0,0,2.75-1.66A13,13,0,0,0,357,37.1a11.17,11.17,0,0,0,1.59-3.42Zm-6.54,0h6.75V34H352Zm1.23.27a14.22,14.22,0,0,0,1.46,3.35,10.91,10.91,0,0,0,2.2,2.65,9.8,9.8,0,0,0,2.91,1.76,1.4,1.4,0,0,0-.2.17,1.24,1.24,0,0,0-.18.22,10.54,10.54,0,0,1-4.12-3.14,14.06,14.06,0,0,1-2.54-4.91Z"/><path class="cls-2" d="M367,37.55h.54c-.05.43-.11.89-.19,1.37s-.15.94-.23,1.4-.14.84-.21,1.18h-.54c.08-.35.16-.75.24-1.21s.15-.93.22-1.41S367,38,367,37.55Zm.23,0h3.89V34.24h-4.7v-.47h5.22V38h-4.41ZM366.8,41h4.68v.49H366.8Zm4.5,0h.56a1.68,1.68,0,0,0,0,.2.49.49,0,0,1,0,.13c-.1,1.27-.2,2.3-.29,3.07a11.29,11.29,0,0,1-.33,1.74,1.78,1.78,0,0,1-.43.81,1,1,0,0,1-.38.23,1.68,1.68,0,0,1-.55.08H369c-.37,0-.75,0-1.14-.07,0-.06,0-.14-.05-.23a.55.55,0,0,0-.12-.24c.46,0,.88.06,1.26.07h.78a1.9,1.9,0,0,0,.38,0,.37.37,0,0,0,.23-.14,1.59,1.59,0,0,0,.38-.76,12.11,12.11,0,0,0,.3-1.73q.15-1.15.27-3Zm.8,5.51,2.62-.16,3.24-.21,3.46-.24,0,.45-3.32.23-3.17.23-2.69.19Zm.75-8.94a.55.55,0,0,0,0-.16l-.08-.2a.59.59,0,0,0-.07-.16.8.8,0,0,0,.42-.2,4.68,4.68,0,0,0,.52-.5q.19-.2.66-.72c.32-.35.65-.76,1-1.24a13,13,0,0,0,1-1.44l.54.15c-.36.53-.73,1-1.11,1.54s-.77,1-1.16,1.41a14.59,14.59,0,0,1-1.18,1.18v0l-.25.09-.17.11A.19.19,0,0,0,372.85,37.58Zm0,0v-.39l.49-.21,7.49-.6c0,.06,0,.14,0,.23s0,.15.05.21l-3.54.28-2.27.2c-.57,0-1,.09-1.31.12a5.26,5.26,0,0,0-.65.09A2.28,2.28,0,0,0,372.85,37.58Zm.13,1.68h8.37v4H373Zm.52.47v3h7.33v-3Zm3.31-2.33h.56v9l-.56,0Zm1.86-2.69.41-.21c.36.34.73.7,1.11,1.1s.73.79,1.05,1.17.58.71.77,1l-.39.29c-.21-.29-.47-.63-.79-1s-.68-.79-1.06-1.19S379,35.06,378.67,34.71Zm.72,9.43.45-.23a14.38,14.38,0,0,1,1,1.14c.34.41.64.81.92,1.2a8.14,8.14,0,0,1,.63,1.07l-.47.24a7,7,0,0,0-.62-1.07c-.27-.4-.58-.8-.92-1.22S379.73,44.49,379.39,44.14Z"/><path class="cls-2" d="M389.33,35.44h.54V47.09h-.54Zm.25,4.68h5.33v.47h-5.33Zm.09-4.68h5.42V45.71h-5.42v-.48h4.88V35.91h-4.88Zm2.61-2.64.56.16c-.16.46-.34.93-.54,1.44s-.4.92-.58,1.27l-.45-.15c.12-.25.25-.53.37-.85s.25-.64.36-1S392.21,33.06,392.28,32.8Zm6.25-.08.52.1a22.14,22.14,0,0,1-.73,2.35,18.37,18.37,0,0,1-.94,2.14,10.72,10.72,0,0,1-1.16,1.78.46.46,0,0,0-.12-.09l-.18-.09-.16-.08a10.71,10.71,0,0,0,1.15-1.74,16.67,16.67,0,0,0,.92-2.09C398.1,34.26,398.33,33.5,398.53,32.72Zm-.78,6.48.42-.23c.38.39.77.82,1.17,1.27s.76.91,1.09,1.33.59.8.8,1.13l-.47.29a11.8,11.8,0,0,0-.78-1.16q-.5-.66-1.08-1.35C398.51,40,398.12,39.59,397.75,39.2Zm.09-3.74h5.8v.48h-5.8Zm5.58,0H404v.37c-.08,1.89-.16,3.48-.24,4.78s-.17,2.35-.27,3.17a13.46,13.46,0,0,1-.34,1.87,2.34,2.34,0,0,1-.46.94,1.33,1.33,0,0,1-.49.33,2.24,2.24,0,0,1-.66.1h-1.1c-.47,0-.95,0-1.44-.08,0-.08,0-.17,0-.26a.57.57,0,0,0-.13-.21c.6.05,1.14.07,1.63.08l1,0a2,2,0,0,0,.45,0,.5.5,0,0,0,.3-.2,2,2,0,0,0,.42-.89,15.75,15.75,0,0,0,.32-1.88c.1-.82.19-1.88.27-3.19s.16-2.89.23-4.77Z"/><path class="cls-2" d="M415.12,36l.52.14A15.55,15.55,0,0,1,414.29,38a21.83,21.83,0,0,1-1.57,1.73,19.47,19.47,0,0,1-1.65,1.45.45.45,0,0,0-.12-.12l-.17-.13-.16-.09a17.67,17.67,0,0,0,2.47-2.2A16.33,16.33,0,0,0,415.12,36Zm-.52-3.12.52.17A11.16,11.16,0,0,1,414,34.35a17,17,0,0,1-1.37,1.31,14.44,14.44,0,0,1-1.46,1.11l-.1-.11-.14-.14-.12-.11a17.39,17.39,0,0,0,1.42-1.06,14.33,14.33,0,0,0,1.33-1.24A8.93,8.93,0,0,0,414.6,32.86Zm-1.26,5.64.36-.34.18.08v9.29h-.54Zm11.3,2.63h.13l.12,0,.36.22a8.12,8.12,0,0,1-1.72,2.26,12.84,12.84,0,0,1-2.43,1.77,18,18,0,0,1-2.82,1.29,22,22,0,0,1-2.91.83.37.37,0,0,0-.07-.14l-.12-.17a.44.44,0,0,0-.13-.14,22.77,22.77,0,0,0,2.84-.78A17.94,17.94,0,0,0,420.65,45,12.68,12.68,0,0,0,423,43.35a7.13,7.13,0,0,0,1.64-2.11ZM420,39.33l.5.13a11.89,11.89,0,0,1-2,2.58A15.21,15.21,0,0,1,416,44.09l-.11-.12-.16-.15a1,1,0,0,0-.16-.1,14.32,14.32,0,0,0,2.53-1.94A10.78,10.78,0,0,0,420,39.33Zm-4.18.61a.41.41,0,0,0,0-.16l-.06-.19a.91.91,0,0,0-.06-.16,3.9,3.9,0,0,0,.82-.25,11.49,11.49,0,0,0,1.14-.55l1.05-.57c.48-.25,1-.57,1.63-.93s1.25-.77,1.91-1.21,1.3-.89,1.91-1.35l.47.26a49.11,49.11,0,0,1-4.14,2.73,35.14,35.14,0,0,1-4.09,2.09v0l-.27.09a.84.84,0,0,0-.19.09C415.87,39.88,415.84,39.91,415.84,39.94Zm0,0v-.38l.52-.2,8.91-.45a.64.64,0,0,0,0,.22c0,.09,0,.16.05.22l-4.21.21-2.68.14-1.54.1a6.15,6.15,0,0,0-.75.07Zm.43-2.62a.55.55,0,0,0,0-.16c0-.07-.05-.13-.08-.19a.52.52,0,0,0-.07-.15,1.42,1.42,0,0,0,.52-.2,6.42,6.42,0,0,0,.65-.4c.17-.12.45-.33.83-.64s.81-.68,1.29-1.11.91-.88,1.32-1.33l.49.24c-.72.73-1.45,1.4-2.19,2a17.11,17.11,0,0,1-2.22,1.6v0l-.26.09a.76.76,0,0,0-.18.09A.15.15,0,0,0,416.27,37.32Zm0,0V36.9l.45-.2,4.77-.19-.14.25a2.21,2.21,0,0,0-.11.22c-1.06,0-1.9.08-2.53.12l-1.44.09a5.08,5.08,0,0,0-.69.07Zm.76,3.9a10.61,10.61,0,0,0,2.37,2.58,15.11,15.11,0,0,0,3.34,2A19,19,0,0,0,426.66,47l-.13.13-.13.16a.5.5,0,0,0-.1.13,19.81,19.81,0,0,1-3.92-1.3A15.65,15.65,0,0,1,419,44.08a10.77,10.77,0,0,1-2.42-2.66Zm2-.09h5.8v.48h-6.23Zm3.94-4,.45-.21c.41.35.82.73,1.24,1.15s.79.84,1.15,1.25a11.21,11.21,0,0,1,.84,1.09l-.45.27a11.2,11.2,0,0,0-.84-1.1c-.35-.41-.74-.83-1.15-1.26S423.41,37.53,423,37.17Z"/><path class="cls-2" d="M435.2,34.24h.52V39.8c0,.58,0,1.21-.07,1.87a18.08,18.08,0,0,1-.27,2,10.12,10.12,0,0,1-.6,2,7.21,7.21,0,0,1-1.09,1.8.57.57,0,0,0-.11-.11l-.15-.11-.16-.09a7,7,0,0,0,1.29-2.35,12.17,12.17,0,0,0,.52-2.58q.12-1.29.12-2.43Zm12.29-1.08.47.4q-1.11.22-2.61.42c-1,.12-2.06.23-3.2.32s-2.3.17-3.46.23-2.28.1-3.35.13a1.89,1.89,0,0,0-.06-.21l-.08-.21c1.05,0,2.16-.08,3.32-.14s2.3-.15,3.42-.24,2.16-.2,3.12-.31S446.83,33.3,447.49,33.16Zm-11.95,3.37h14V37h-14ZM437.79,39h9.9v8.45h-.54v-8h-8.84v8h-.52Zm.33,2.33h9.28v.49h-9.28Zm0,2.43h9.28v.47h-9.28Zm0,2.45h9.28v.47h-9.28ZM442.2,34l.56,0c0,.55-.06,1.15-.12,1.79s-.11,1.27-.16,1.87-.11,1.11-.17,1.54h-.52c.06-.44.11-1,.17-1.58s.1-1.24.14-1.88S442.18,34.56,442.2,34Z"/></g></g></svg>