<svg xmlns="http://www.w3.org/2000/svg" viewBox="0 0 663.98 120.03"><defs><style>.cls-1{fill:#fff;}</style></defs><g id="圖層_2" data-name="圖層 2"><g id="text"><path class="cls-1" d="M1.4,44.33V.67H30.88V7.35H9.3V19.54H29.22V26.1H9.3V44.33Z"/><path class="cls-1" d="M60.19,45a20.21,20.21,0,0,1-10.57-2.77,19.5,19.5,0,0,1-7.33-7.82,25.09,25.09,0,0,1-2.67-11.88,25.29,25.29,0,0,1,2.67-12,19.46,19.46,0,0,1,7.33-7.83A20.39,20.39,0,0,1,60.19,0,20.32,20.32,0,0,1,70.74,2.75a19.42,19.42,0,0,1,7.31,7.83,25.29,25.29,0,0,1,2.67,12,25.16,25.16,0,0,1-2.67,11.91,19.42,19.42,0,0,1-7.31,7.81A20.32,20.32,0,0,1,60.19,45Zm0-7a11.87,11.87,0,0,0,6.45-1.8A12.37,12.37,0,0,0,71.14,31a19.51,19.51,0,0,0,1.65-8.44,19.64,19.64,0,0,0-1.65-8.48,12.31,12.31,0,0,0-4.5-5.28,12.51,12.51,0,0,0-12.93,0,12.33,12.33,0,0,0-4.51,5.28,19.64,19.64,0,0,0-1.65,8.48A19.51,19.51,0,0,0,49.2,31a12.39,12.39,0,0,0,4.51,5.26A11.88,11.88,0,0,0,60.19,38Z"/><path class="cls-1" d="M92.46,44.33V.67h17.15a19.22,19.22,0,0,1,8.44,1.72,12.53,12.53,0,0,1,5.43,4.85,14.11,14.11,0,0,1,1.88,7.38,13.31,13.31,0,0,1-2,7.34,12.94,12.94,0,0,1-5.6,4.77,20.16,20.16,0,0,1-8.59,1.69H97.1V22H109a10.89,10.89,0,0,0,4.63-.89,6.53,6.53,0,0,0,2.9-2.55,7.44,7.44,0,0,0,1-3.94,7.41,7.41,0,0,0-1-3.93,6.82,6.82,0,0,0-2.92-2.55,10.74,10.74,0,0,0-4.63-.9h-8.62V44.33Zm25.24,0L107.29,24.61h8.47l10.61,19.72Z"/><path class="cls-1" d="M172,44.33V23.64L155.16.67h1.67l10.73,14.59q1.4,1.88,2.73,3.75t2.7,3.75h-.53L175.18,19l2.72-3.75L188.57.67h1.66l-16.82,23V44.33Z"/><path class="cls-1" d="M214.07,44.82A16.67,16.67,0,0,1,204.46,42,18.45,18.45,0,0,1,198,34.17a27.57,27.57,0,0,1-2.31-11.64A27.76,27.76,0,0,1,198,10.83,18.74,18.74,0,0,1,204.47,3a17.75,17.75,0,0,1,19.17,0,18.57,18.57,0,0,1,6.44,7.84,27.92,27.92,0,0,1,2.3,11.7,27.84,27.84,0,0,1-2.3,11.67A18.54,18.54,0,0,1,223.64,42,16.67,16.67,0,0,1,214.07,44.82Zm0-1.34a15.14,15.14,0,0,0,8.84-2.64,17.4,17.4,0,0,0,6-7.35,26.27,26.27,0,0,0,2.14-11,26.35,26.35,0,0,0-2.14-11,17.52,17.52,0,0,0-6-7.37,15.15,15.15,0,0,0-8.84-2.65,15.32,15.32,0,0,0-8.86,2.63,17.33,17.33,0,0,0-6,7.33,26.34,26.34,0,0,0-2.16,11.05,26.35,26.35,0,0,0,2.13,10.93,17.37,17.37,0,0,0,6,7.37A15.3,15.3,0,0,0,214.07,43.48Z"/><path class="cls-1" d="M260.72,44.82a16.37,16.37,0,0,1-8.12-2,15,15,0,0,1-7.81-13.41V.67h1.37V29.41a13.6,13.6,0,0,0,7.1,12.24,16.16,16.16,0,0,0,14.94,0,13.72,13.72,0,0,0,5.19-5,13.88,13.88,0,0,0,1.9-7.23V.67h1.37V29.41a14.92,14.92,0,0,1-7.78,13.41A16.44,16.44,0,0,1,260.72,44.82Z"/><path class="cls-1" d="M291.44,44.33V.67h14.14a13.4,13.4,0,0,1,6.54,1.56,11.34,11.34,0,0,1,4.49,4.36,12.83,12.83,0,0,1,1.64,6.56,12.65,12.65,0,0,1-1.62,6.48A11.31,11.31,0,0,1,312.15,24a13.46,13.46,0,0,1-6.57,1.56H292.15V24.17h13.43a12,12,0,0,0,5.84-1.38,10.08,10.08,0,0,0,4-3.85,11.22,11.22,0,0,0,1.46-5.79,11.45,11.45,0,0,0-1.46-5.86,10.29,10.29,0,0,0-4-3.88A12,12,0,0,0,305.58,2H292.8V44.33Zm26,0-10.7-19.87h1.55L319,44.33Z"/><path class="cls-1" d="M353.45,44.33V.67h26.1V2H354.82V21.47H377.5v1.35H354.82V43H379.7v1.35Z"/><path class="cls-1" d="M406.09,44.33,389.51.67H391L403.8,34.48q.9,2.35,1.77,4.69t1.74,4.69h-.54l1.74-4.69,1.77-4.69L423.06.67h1.46L408,44.33Z"/><path class="cls-1" d="M435.65,44.33V.67h26.1V2H437V21.47H459.7v1.35H437V43H461.9v1.35Z"/><path class="cls-1" d="M473.89,44.33V.67H488a13.4,13.4,0,0,1,6.54,1.56,11.41,11.41,0,0,1,4.49,4.36,12.82,12.82,0,0,1,1.63,6.56,12.65,12.65,0,0,1-1.62,6.48A11.35,11.35,0,0,1,494.6,24,13.46,13.46,0,0,1,488,25.52H474.6V24.17H488a12,12,0,0,0,5.84-1.38,10.08,10.08,0,0,0,4-3.85,11.22,11.22,0,0,0,1.46-5.79,11.45,11.45,0,0,0-1.46-5.86,10.29,10.29,0,0,0-4-3.88A12,12,0,0,0,488,2H475.25V44.33Zm26,0-10.7-19.87h1.55l10.7,19.87Z"/><path class="cls-1" d="M525.1,44.33V23.64L508.22.67h1.66l10.73,14.59Q522,17.14,523.34,19l2.71,3.75h-.54c.92-1.25,1.82-2.5,2.72-3.75L531,15.26,541.62.67h1.67l-16.82,23V44.33Z"/><path class="cls-1" d="M555.79.67V44.33h-1.37V.67ZM566,44.33H555.13V43H566a20.72,20.72,0,0,0,10.45-2.46A15.91,15.91,0,0,0,583,33.43a25.29,25.29,0,0,0,2.23-11.08,25.69,25.69,0,0,0-2.12-10.92,15.71,15.71,0,0,0-6.15-7A18.65,18.65,0,0,0,567.14,2h-12V.67h12a20,20,0,0,1,10.46,2.6,16.88,16.88,0,0,1,6.66,7.44,26.7,26.7,0,0,1,2.32,11.64,26.73,26.73,0,0,1-2.42,11.87,17.05,17.05,0,0,1-7,7.51A22.33,22.33,0,0,1,566,44.33Z"/><path class="cls-1" d="M593.49,44.33,610,.67h1.87L628.5,44.33H627L614.2,10.52C613.61,9,613,7.39,612.44,5.83s-1.17-3.12-1.74-4.69h.53q-.86,2.36-1.74,4.69c-.58,1.56-1.17,3.13-1.77,4.69L594.94,44.33Zm6.57-14.42V28.56H622v1.35Z"/><path class="cls-1" d="M645.79,44.33V23.64L628.91.67h1.67l10.73,14.59q1.4,1.88,2.73,3.75t2.7,3.75h-.53L648.93,19l2.72-3.75L662.32.67H664l-16.82,23V44.33Z"/><path class="cls-1" d="M17,120a21.52,21.52,0,0,1-9-1.74,13.47,13.47,0,0,1-5.88-5A14.41,14.41,0,0,1,0,105.62H6.63A8.75,8.75,0,0,0,8,110.33a8,8,0,0,0,3.61,3,13.66,13.66,0,0,0,5.45,1,14.63,14.63,0,0,0,5.19-.85A8,8,0,0,0,25.68,111a5.83,5.83,0,0,0,1.25-3.7,4.94,4.94,0,0,0-.91-3,7.24,7.24,0,0,0-2.76-2.15,22.89,22.89,0,0,0-4.8-1.61l-4.94-1.18Q7.1,97.89,4,95.05A9.51,9.51,0,0,1,1,87.71a11.39,11.39,0,0,1,2-6.69,13.13,13.13,0,0,1,5.55-4.44A20.12,20.12,0,0,1,16.73,75,19.23,19.23,0,0,1,25,76.64a12.8,12.8,0,0,1,5.45,4.64,13.36,13.36,0,0,1,2.08,7.11H26.07a7.62,7.62,0,0,0-2.81-5.64,10.31,10.31,0,0,0-6.65-2,12.3,12.3,0,0,0-4.69.85,7.62,7.62,0,0,0-3.2,2.36,5.56,5.56,0,0,0-1.14,3.44,4.49,4.49,0,0,0,.95,2.89,7.67,7.67,0,0,0,2.81,2A23.84,23.84,0,0,0,16,93.81L20.6,95a30.55,30.55,0,0,1,5.47,1.77,16,16,0,0,1,4.07,2.54,10,10,0,0,1,2.54,3.4,10.66,10.66,0,0,1,.87,4.42,11.57,11.57,0,0,1-2,6.78,13.12,13.12,0,0,1-5.73,4.54A21.65,21.65,0,0,1,17,120Z"/><path class="cls-1" d="M62.93,120a20,20,0,0,1-9.27-2,14.78,14.78,0,0,1-8.33-13.65V75.67h6.6v28.16a10.41,10.41,0,0,0,1.34,5.3,9.55,9.55,0,0,0,3.8,3.65,12.16,12.16,0,0,0,5.86,1.33,12.09,12.09,0,0,0,5.85-1.33,9.39,9.39,0,0,0,3.79-3.65,10.41,10.41,0,0,0,1.33-5.3V75.67h6.59v28.69a15.24,15.24,0,0,1-2.16,8.1A15.08,15.08,0,0,1,72.2,118,20,20,0,0,1,62.93,120Z"/><path class="cls-1" d="M94.54,119.33V75.67h16.29a18.6,18.6,0,0,1,8.29,1.7,12.33,12.33,0,0,1,5.29,4.79,13.88,13.88,0,0,1,1.85,7.25,13.58,13.58,0,0,1-1.89,7.23,12.65,12.65,0,0,1-5.38,4.8,18.73,18.73,0,0,1-8.31,1.71H98.35V97.5h12.1a11.27,11.27,0,0,0,5-1,7.11,7.11,0,0,0,3.13-2.82,8.95,8.95,0,0,0,0-8.56,7.25,7.25,0,0,0-3.13-2.8,11.49,11.49,0,0,0-5-1H101.2v38Z"/><path class="cls-1" d="M137.09,119.33V75.67h16.29a18.63,18.63,0,0,1,8.29,1.7A12.38,12.38,0,0,1,167,82.16a13.88,13.88,0,0,1,1.85,7.25,13.58,13.58,0,0,1-1.89,7.23,12.65,12.65,0,0,1-5.38,4.8,18.73,18.73,0,0,1-8.31,1.71H140.9V97.5H153a11.28,11.28,0,0,0,5-1,7.16,7.16,0,0,0,3.13-2.82,8.95,8.95,0,0,0,0-8.56,7.31,7.31,0,0,0-3.13-2.8,11.51,11.51,0,0,0-5-1h-9.21v38Z"/><path class="cls-1" d="M198.93,120a19.26,19.26,0,0,1-17.67-10.68,25.12,25.12,0,0,1-2.63-11.79,25.25,25.25,0,0,1,2.63-11.85,19.79,19.79,0,0,1,35.31,0,25.38,25.38,0,0,1,2.63,11.85,25.24,25.24,0,0,1-2.63,11.79,19.76,19.76,0,0,1-7.21,7.87A19.56,19.56,0,0,1,198.93,120Zm0-6a12.87,12.87,0,0,0,6.89-1.9,13.24,13.24,0,0,0,4.91-5.6,20.24,20.24,0,0,0,1.81-9,20.4,20.4,0,0,0-1.81-9,13.21,13.21,0,0,0-4.91-5.61,13.46,13.46,0,0,0-13.79,0,13.3,13.3,0,0,0-4.92,5.61,20.4,20.4,0,0,0-1.82,9,20.23,20.23,0,0,0,1.82,9,13.33,13.33,0,0,0,4.92,5.6A12.88,12.88,0,0,0,198.93,114Z"/><path class="cls-1" d="M231.51,119.33V75.67h16.64a19,19,0,0,1,8.3,1.67,12.24,12.24,0,0,1,5.29,4.75,13.73,13.73,0,0,1,1.84,7.21,13.08,13.08,0,0,1-1.93,7.17,12.64,12.64,0,0,1-5.47,4.71,19.67,19.67,0,0,1-8.38,1.65H235.35V97.24H247.8a11.71,11.71,0,0,0,5-1,7,7,0,0,0,3.12-2.74A8,8,0,0,0,257,89.3a8.06,8.06,0,0,0-1.08-4.25,7.19,7.19,0,0,0-3.14-2.76,11.8,11.8,0,0,0-5-1h-9.57v38Zm25.47,0L246.43,99.64h7.31l10.73,19.69Z"/><path class="cls-1" d="M272.6,81.39V75.67h34.68v5.72h-14v37.94h-6.65V81.39Z"/></g></g></svg>