<svg xmlns="http://www.w3.org/2000/svg" viewBox="0 0 465.8 241.17"><defs><style>.cls-1{fill:#00643c;}</style></defs><g id="圖層_2" data-name="圖層 2"><g id="text"><path class="cls-1" d="M14.13,116.22a17,17,0,0,1-7.39-1.49,11.64,11.64,0,0,1-4.9-4.19A11.82,11.82,0,0,1,0,104.22H3.73a8.76,8.76,0,0,0,1.4,4.6,8.16,8.16,0,0,0,3.6,3,13.1,13.1,0,0,0,5.4,1,13.72,13.72,0,0,0,5.37-1,8.35,8.35,0,0,0,3.6-2.75A6.85,6.85,0,0,0,24.38,105a5.9,5.9,0,0,0-.87-3.24,7.35,7.35,0,0,0-2.71-2.37,21.43,21.43,0,0,0-4.74-1.8l-4.54-1.24q-5.47-1.47-8.06-4A8.52,8.52,0,0,1,.89,86a10.12,10.12,0,0,1,1.66-5.76,11.22,11.22,0,0,1,4.63-3.88A16,16,0,0,1,14.05,75a15,15,0,0,1,6.78,1.45,11.26,11.26,0,0,1,4.58,4,11.92,11.92,0,0,1,1.79,6.07H23.55a8.19,8.19,0,0,0-2.83-6,10.11,10.11,0,0,0-6.78-2.21,11.65,11.65,0,0,0-4.88,1A8.1,8.1,0,0,0,5.72,82a6.42,6.42,0,0,0-1.21,3.86A5.46,5.46,0,0,0,5.42,89a7.53,7.53,0,0,0,2.73,2.3,21.84,21.84,0,0,0,4.47,1.69l4.46,1.23a28.21,28.21,0,0,1,4.65,1.67,13.5,13.5,0,0,1,3.45,2.27,8.76,8.76,0,0,1,2.13,3,9.27,9.27,0,0,1,.73,3.78,10.4,10.4,0,0,1-1.72,5.9,11.43,11.43,0,0,1-4.85,4A17.26,17.26,0,0,1,14.13,116.22Z"/><path class="cls-1" d="M87.33,241.17a16.48,16.48,0,0,1-7.92-1.85,13.65,13.65,0,0,1-5.36-5.07A13.93,13.93,0,0,1,72.13,227v-26.4h3.68v26.13a11.2,11.2,0,0,0,1.43,5.68,10.25,10.25,0,0,0,4,3.91,13.58,13.58,0,0,0,12.13,0,10.26,10.26,0,0,0,4-3.91,11.1,11.1,0,0,0,1.44-5.68V200.56h3.68V227a13.93,13.93,0,0,1-1.92,7.29,13.69,13.69,0,0,1-5.35,5.07A16.44,16.44,0,0,1,87.33,241.17Z"/><path class="cls-1" d="M148.79,165.58v-40h13.73a14.56,14.56,0,0,1,6.86,1.51,10.83,10.83,0,0,1,4.46,4.2,12.37,12.37,0,0,1,1.57,6.3,12.09,12.09,0,0,1-1.6,6.3,10.9,10.9,0,0,1-4.51,4.2,14.87,14.87,0,0,1-6.89,1.5H150.86v-3.3h11.55a10.94,10.94,0,0,0,5-1.07,7.69,7.69,0,0,0,3.22-3,9.87,9.87,0,0,0,0-9.17,7.81,7.81,0,0,0-3.22-3,10.89,10.89,0,0,0-5-1.08h-9.91v36.71Z"/><path class="cls-1" d="M218.82,90.58v-40h13.72a14.63,14.63,0,0,1,6.87,1.51,10.75,10.75,0,0,1,4.45,4.2,13.28,13.28,0,0,1,0,12.6,11,11,0,0,1-4.51,4.2,14.89,14.89,0,0,1-6.89,1.5H220.89v-3.3h11.55a10.87,10.87,0,0,0,5-1.07,7.72,7.72,0,0,0,3.23-3,9.94,9.94,0,0,0,0-9.17,7.84,7.84,0,0,0-3.23-3,10.82,10.82,0,0,0-5-1.08H222.5V90.58Z"/><path class="cls-1" d="M305.37,41.14a16.32,16.32,0,0,1-9.13-2.6A17.68,17.68,0,0,1,290,31.3a24.23,24.23,0,0,1-2.26-10.7A24.37,24.37,0,0,1,290,9.84a17.68,17.68,0,0,1,6.23-7.24,17.31,17.31,0,0,1,18.25,0,17.61,17.61,0,0,1,6.2,7.24,24.37,24.37,0,0,1,2.24,10.76,24.23,24.23,0,0,1-2.24,10.7,17.61,17.61,0,0,1-6.2,7.24A16.26,16.26,0,0,1,305.37,41.14Zm0-3.43a12.69,12.69,0,0,0,7.06-2.05,14.11,14.11,0,0,0,5-5.88,21,21,0,0,0,1.85-9.18,21.1,21.1,0,0,0-1.85-9.21,14.24,14.24,0,0,0-5-5.9,12.61,12.61,0,0,0-7.06-2.05,12.79,12.79,0,0,0-7.1,2,14,14,0,0,0-5,5.88,21.32,21.32,0,0,0-1.84,9.24,21.09,21.09,0,0,0,1.84,9.17,14.1,14.1,0,0,0,5,5.88A12.72,12.72,0,0,0,305.37,37.71Z"/><path class="cls-1" d="M367.62,140.58v-40h14a14.93,14.93,0,0,1,6.86,1.48,10.68,10.68,0,0,1,4.46,4.16,12.26,12.26,0,0,1,1.57,6.31,11.86,11.86,0,0,1-1.62,6.26,10.85,10.85,0,0,1-4.56,4.15,15.19,15.19,0,0,1-6.9,1.46H369.66v-3.3h11.87a10.83,10.83,0,0,0,5-1.06,7.65,7.65,0,0,0,3.21-3,8.8,8.8,0,0,0,1.13-4.53,9,9,0,0,0-1.13-4.59,7.58,7.58,0,0,0-3.22-3,11,11,0,0,0-5-1.06H371.3v36.71Zm23.31,0-9.64-18.08h4.13l9.78,18.08Z"/><path class="cls-1" d="M435.72,53.87V50.56H465.8v3.31H452.61V90.58h-3.68V53.87Z"/></g></g></svg>