<svg xmlns="http://www.w3.org/2000/svg" viewBox="0 0 846.76 345"><defs><style>.cls-1{fill:#fff;}</style></defs><g id="圖層_2" data-name="圖層 2"><g id="text"><path class="cls-1" d="M473.65,45a20.23,20.23,0,0,1-10.56-2.75,19.13,19.13,0,0,1-7.24-7.81,25.51,25.51,0,0,1-2.62-11.91,25.65,25.65,0,0,1,2.62-12,19.15,19.15,0,0,1,7.25-7.81A20.29,20.29,0,0,1,473.65,0a21.06,21.06,0,0,1,6.85,1.08,18.24,18.24,0,0,1,5.64,3.12,17.14,17.14,0,0,1,4.08,4.9,19.08,19.08,0,0,1,2.15,6.46h-7.88a11.66,11.66,0,0,0-1.36-3.65,9.75,9.75,0,0,0-5.54-4.38A12.84,12.84,0,0,0,473.74,7,11.92,11.92,0,0,0,467,8.88a12.16,12.16,0,0,0-4.39,5.39,20.26,20.26,0,0,0-1.54,8.26,20.18,20.18,0,0,0,1.54,8.23A11.56,11.56,0,0,0,473.74,38a12.74,12.74,0,0,0,3.82-.56,10,10,0,0,0,3.18-1.65,9.89,9.89,0,0,0,2.37-2.69,11.5,11.5,0,0,0,1.41-3.63h7.85a17.78,17.78,0,0,1-2.1,6.33,17.27,17.27,0,0,1-4,4.89,18.13,18.13,0,0,1-5.64,3.17A20.9,20.9,0,0,1,473.65,45Z"/><path class="cls-1" d="M519.05,45a19.67,19.67,0,0,1-10.41-2.77,19.34,19.34,0,0,1-7.23-7.82,25.44,25.44,0,0,1-2.63-11.88,25.65,25.65,0,0,1,2.63-12,19.3,19.3,0,0,1,7.23-7.83,21.06,21.06,0,0,1,20.81,0,19.32,19.32,0,0,1,7.21,7.83,25.53,25.53,0,0,1,2.63,12,25.39,25.39,0,0,1-2.63,11.91,19.33,19.33,0,0,1-7.21,7.81A19.8,19.8,0,0,1,519.05,45Zm0-7a11.57,11.57,0,0,0,6.36-1.8A12.39,12.39,0,0,0,529.85,31a19.82,19.82,0,0,0,1.62-8.44,20,20,0,0,0-1.62-8.48,12.33,12.33,0,0,0-4.44-5.28,12.19,12.19,0,0,0-12.75,0,12.24,12.24,0,0,0-4.43,5.28,19.79,19.79,0,0,0-1.63,8.48A19.67,19.67,0,0,0,508.23,31a12.3,12.3,0,0,0,4.43,5.26A11.62,11.62,0,0,0,519.05,38Z"/><path class="cls-1" d="M547.88,44.33V.67h8.46L571.64,25c.47.72,1,1.66,1.68,2.8s1.35,2.38,2.07,3.7,1.42,2.67,2.11,4l-.85,1.46c-.08-1.31-.15-2.78-.22-4.42s-.12-3.21-.15-4.7,0-2.68,0-3.56V.67H584V44.33h-8.5L561.76,22.47c-.56-.92-1.24-2-2-3.34s-1.65-2.81-2.6-4.51-2-3.57-3.11-5.6l1.2-.88q.18,3.25.28,6c.07,1.87.12,3.51.15,4.91s0,2.52,0,3.34V44.33Z"/><path class="cls-1" d="M591.17,7.35V.67H626V7.35H612.5v37h-7.79v-37Z"/><path class="cls-1" d="M640.94.67V44.33h-7.8V.67Z"/><path class="cls-1" d="M651.22,44.33V.67h8.47L675,25c.47.72,1,1.66,1.69,2.8s1.34,2.38,2.06,3.7,1.43,2.67,2.11,4L680,36.94c-.07-1.31-.15-2.78-.22-4.42s-.11-3.21-.14-4.7,0-2.68,0-3.56V.67h7.8V44.33h-8.5L665.11,22.47c-.57-.92-1.24-2-2-3.34s-1.65-2.81-2.61-4.51-2-3.57-3.1-5.6l1.2-.88q.18,3.25.28,6c.06,1.87.11,3.51.14,4.91s0,2.52,0,3.34V44.33Z"/><path class="cls-1" d="M715.18,45a20.17,20.17,0,0,1-9.3-2,14.86,14.86,0,0,1-8.37-13.77V.67h7.68V28.59a9.79,9.79,0,0,0,1.23,4.94,8.75,8.75,0,0,0,3.47,3.38,12,12,0,0,0,10.59,0,8.79,8.79,0,0,0,3.46-3.38,9.79,9.79,0,0,0,1.23-4.94V.67h7.67V29.24a15.34,15.34,0,0,1-2.19,8.19A15.19,15.19,0,0,1,724.48,43,20.23,20.23,0,0,1,715.18,45Z"/><path class="cls-1" d="M750.8.67V44.33H743V.67Z"/><path class="cls-1" d="M761.09,44.33V.67h8.47L784.85,25c.47.72,1,1.66,1.69,2.8s1.34,2.38,2.06,3.7,1.43,2.67,2.11,4l-.85,1.46c-.08-1.31-.15-2.78-.22-4.42s-.12-3.21-.15-4.7,0-2.68,0-3.56V.67h7.79V44.33h-8.49L775,22.47c-.57-.92-1.24-2-2-3.34s-1.65-2.81-2.61-4.51-2-3.57-3.11-5.6l1.2-.88q.18,3.25.28,6c.07,1.87.12,3.51.15,4.91s0,2.52,0,3.34V44.33Z"/><path class="cls-1" d="M826.14,45a20,20,0,0,1-10.64-2.81,19.43,19.43,0,0,1-7.19-7.87,25.48,25.48,0,0,1-2.59-11.79,25.65,25.65,0,0,1,2.63-12,19.26,19.26,0,0,1,7.24-7.83A20,20,0,0,1,826,0a21.3,21.3,0,0,1,6.86,1.08,18.8,18.8,0,0,1,5.68,3.09,17.67,17.67,0,0,1,4.12,4.75A16.24,16.24,0,0,1,844.77,15h-7.91a10.74,10.74,0,0,0-1.38-3.33A9.9,9.9,0,0,0,830,7.53,12.66,12.66,0,0,0,826.2,7a11.77,11.77,0,0,0-6.68,1.89,12.25,12.25,0,0,0-4.41,5.38,20,20,0,0,0-1.57,8.29,19.85,19.85,0,0,0,1.57,8.23,12.17,12.17,0,0,0,4.44,5.38A12,12,0,0,0,826.28,38a12.4,12.4,0,0,0,5.8-1.31A9.72,9.72,0,0,0,836,33.05a10.61,10.61,0,0,0,1.42-5.51l2,.17h-12.1V21.56h17.75v5.28a18.07,18.07,0,0,1-2.44,9.47,17.12,17.12,0,0,1-6.71,6.39A20.29,20.29,0,0,1,826.14,45Z"/><path class="cls-1" d="M102,77V75.67h31.29V77h-15v42.31H117V77Z"/><path class="cls-1" d="M141.9,119.33V75.67h1.35V96.36H171V75.67h1.35v43.66H171V97.71H143.25v21.62Z"/><path class="cls-1" d="M184.43,119.33V75.67h25.73V77H185.78V96.47h22.35v1.35H185.78V118H210.3v1.35Z"/><path class="cls-1" d="M286.05,120a16.37,16.37,0,0,1-6.94-1.38,11.44,11.44,0,0,1-4.72-3.83,10.86,10.86,0,0,1-1.93-5.69h1.34a9.62,9.62,0,0,0,1.76,5,10.32,10.32,0,0,0,4.24,3.35,15.15,15.15,0,0,0,6.25,1.2,15.5,15.5,0,0,0,6.59-1.3,10.34,10.34,0,0,0,4.38-3.65,9.48,9.48,0,0,0,1.57-5.42,8.09,8.09,0,0,0-1-4.13,9.43,9.43,0,0,0-3.2-3.18,23.55,23.55,0,0,0-5.73-2.47l-4.92-1.53A18.08,18.08,0,0,1,276,92.7a8.9,8.9,0,0,1-2.55-6.42,10.18,10.18,0,0,1,1.69-5.77,11.66,11.66,0,0,1,4.61-4A14.74,14.74,0,0,1,286.4,75,14,14,0,0,1,293,76.52a11.92,11.92,0,0,1,4.5,4.09,12.26,12.26,0,0,1,1.87,6H298a10.6,10.6,0,0,0-3.42-7.32,11.55,11.55,0,0,0-8.18-2.87,13.42,13.42,0,0,0-5.94,1.27,10.24,10.24,0,0,0-4.15,3.52,8.9,8.9,0,0,0-1.51,5.11,7.86,7.86,0,0,0,1,3.94,9.45,9.45,0,0,0,3.06,3.12A20.44,20.44,0,0,0,284,95.65l5,1.53a29.11,29.11,0,0,1,4.88,2,13.79,13.79,0,0,1,3.41,2.43,8.84,8.84,0,0,1,2,3,9.79,9.79,0,0,1,.66,3.67,10.7,10.7,0,0,1-1.75,6,11.75,11.75,0,0,1-4.86,4.16A16.5,16.5,0,0,1,286.05,120Z"/><path class="cls-1" d="M305,77V75.67h31.29V77h-15v42.31H320V77Z"/><path class="cls-1" d="M357.51,119.82A16.3,16.3,0,0,1,348,117a18.46,18.46,0,0,1-6.35-7.84,27.89,27.89,0,0,1-2.27-11.64,28,28,0,0,1,2.28-11.7A18.56,18.56,0,0,1,348.05,78,17.3,17.3,0,0,1,367,78a18.59,18.59,0,0,1,6.34,7.84,28.2,28.2,0,0,1,2.27,11.7,28.16,28.16,0,0,1-2.27,11.67A18.56,18.56,0,0,1,367,117,16.3,16.3,0,0,1,357.51,119.82Zm0-1.34a14.81,14.81,0,0,0,8.72-2.64,17.37,17.37,0,0,0,5.87-7.35,26.59,26.59,0,0,0,2.11-11,26.67,26.67,0,0,0-2.11-11,17.49,17.49,0,0,0-5.87-7.37,15.74,15.74,0,0,0-17.45,0,17.25,17.25,0,0,0-5.9,7.33,26.66,26.66,0,0,0-2.13,11,26.68,26.68,0,0,0,2.1,10.93,17.34,17.34,0,0,0,5.87,7.37A15,15,0,0,0,357.51,118.48Z"/><path class="cls-1" d="M385.45,119.33V75.67H399.4a13,13,0,0,1,6.44,1.56,11.32,11.32,0,0,1,4.43,4.36,13,13,0,0,1,1.61,6.56,12.74,12.74,0,0,1-1.6,6.48A11.2,11.2,0,0,1,405.87,99a13.1,13.1,0,0,1-6.47,1.56H386.16V99.17H399.4a11.74,11.74,0,0,0,5.76-1.38,10.06,10.06,0,0,0,3.94-3.85,11.4,11.4,0,0,0,1.43-5.79,11.64,11.64,0,0,0-1.43-5.86,10.2,10.2,0,0,0-3.94-3.88A11.75,11.75,0,0,0,399.4,77H386.8v42.31Zm25.67,0L400.57,99.46h1.52l10.55,19.87Z"/><path class="cls-1" d="M433,119.33V98.64l-16.64-23H418l10.58,14.59q1.38,1.88,2.69,3.75t2.67,3.75h-.53c.9-1.25,1.8-2.5,2.68-3.75l2.68-3.75,10.52-14.59h1.64l-16.58,23v20.69Z"/><path class="cls-1" d="M529.06,119.82a16.3,16.3,0,0,1-9.48-2.81,18.46,18.46,0,0,1-6.35-7.84A27.89,27.89,0,0,1,511,97.53a28,28,0,0,1,2.28-11.7A18.63,18.63,0,0,1,519.6,78a17.3,17.3,0,0,1,18.9,0,18.52,18.52,0,0,1,6.34,7.84,28.2,28.2,0,0,1,2.27,11.7,28.16,28.16,0,0,1-2.27,11.67A18.49,18.49,0,0,1,538.5,117,16.3,16.3,0,0,1,529.06,119.82Zm0-1.34a14.81,14.81,0,0,0,8.72-2.64,17.37,17.37,0,0,0,5.87-7.35,26.59,26.59,0,0,0,2.11-11,26.67,26.67,0,0,0-2.11-11,17.49,17.49,0,0,0-5.87-7.37,15.74,15.74,0,0,0-17.45,0,17.25,17.25,0,0,0-5.9,7.33,26.66,26.66,0,0,0-2.13,11,26.68,26.68,0,0,0,2.1,10.93,17.42,17.42,0,0,0,5.87,7.37A15,15,0,0,0,529.06,118.48Z"/><path class="cls-1" d="M557,119.33V75.67h24.85V77h-23.5V96.47h20.89v1.35H558.35v21.51Z"/><path class="cls-1" d="M644.41,119.33V75.67h29.92v6.68H652.21V93.93h20.47v6.56H652.21v12.16h22.14v6.68Z"/><path class="cls-1" d="M680.34,119.33l15.5-43.66h9.78l15.53,43.66h-8.53L705,96.45c-.76-2.41-1.56-5-2.39-7.77s-1.78-6-2.86-9.75h2q-1.57,5.59-2.84,9.75c-.84,2.78-1.65,5.36-2.43,7.77l-7.76,22.88Zm9.17-10.52v-6.36H712v6.36Z"/><path class="cls-1" d="M727.83,119.33V75.67h16.9a18.68,18.68,0,0,1,8.32,1.72,12.37,12.37,0,0,1,5.35,4.85,14.2,14.2,0,0,1,1.86,7.38,13.47,13.47,0,0,1-2,7.34,12.78,12.78,0,0,1-5.52,4.77,19.57,19.57,0,0,1-8.47,1.69H732.4V97h11.75a10.64,10.64,0,0,0,4.57-.89,6.53,6.53,0,0,0,2.86-2.55,7.63,7.63,0,0,0,1-3.94,7.5,7.5,0,0,0-1-3.93,6.68,6.68,0,0,0-2.87-2.55,10.49,10.49,0,0,0-4.57-.9h-8.5v37.09Zm24.87,0L742.45,99.61h8.35l10.46,19.72Z"/><path class="cls-1" d="M766.15,82.35V75.67H801v6.68H787.48v37h-7.8v-37Z"/><path class="cls-1" d="M808.12,119.33V75.67h7.79v18h20.16v-18h7.76v43.66h-7.76v-19H815.91v19Z"/><path class="cls-1" d="M370.3,194.33l15.5-43.66h9.78l15.53,43.66h-8.53l-7.67-22.88c-.76-2.41-1.56-5-2.39-7.77s-1.78-6-2.85-9.75h2.05q-1.59,5.59-2.85,9.75c-.84,2.78-1.65,5.36-2.43,7.77l-7.76,22.88Zm9.17-10.52v-6.36H402v6.36Z"/><path class="cls-1" d="M417.79,194.33V150.67h8.47L441.55,175c.47.72,1,1.66,1.69,2.8s1.34,2.38,2.06,3.7,1.43,2.67,2.11,4l-.85,1.46c-.08-1.31-.15-2.78-.22-4.42s-.12-3.21-.15-4.7,0-2.68,0-3.56V150.67h7.79v43.66h-8.49l-13.77-21.86c-.57-.92-1.24-2-2-3.34s-1.65-2.81-2.61-4.51-2-3.57-3.11-5.6l1.2-.88q.18,3.26.28,6.05c.07,1.87.12,3.51.15,4.91s0,2.52,0,3.34v21.89Z"/><path class="cls-1" d="M472.07,150.67v43.66h-7.8V150.67Zm7,43.66H468v-6.65h10.61a15.49,15.49,0,0,0,7.78-1.78,10.88,10.88,0,0,0,4.61-5.17,23.32,23.32,0,0,0,0-16.51,10.91,10.91,0,0,0-4.56-5.14,15.07,15.07,0,0,0-7.62-1.76h-11v-6.65h11.54a22.56,22.56,0,0,1,11.21,2.64,17.85,17.85,0,0,1,7.23,7.52,27.91,27.91,0,0,1,0,23.29,17.85,17.85,0,0,1-7.3,7.55A23.11,23.11,0,0,1,479,194.33Z"/><path class="cls-1" d="M561.82,194.33V150.67h1.41V193h22.35v1.35Z"/><path class="cls-1" d="M594.18,194.33V150.67H619.9V152H595.53v19.45h22.35v1.35H595.53V193h24.52v1.35Z"/><path class="cls-1" d="M626.83,194.33l16.31-43.66H645l16.35,43.66H659.9l-12.65-33.81c-.59-1.56-1.17-3.13-1.75-4.69s-1.15-3.12-1.71-4.69h.53q-.86,2.36-1.72,4.69c-.57,1.56-1.16,3.13-1.74,4.69l-12.6,33.81Zm6.47-14.42v-1.35h21.59v1.35Z"/><path class="cls-1" d="M670.67,150.67v43.66h-1.35V150.67Zm10.08,43.66H670V193h10.72a20.19,20.19,0,0,0,10.3-2.46,15.89,15.89,0,0,0,6.43-7.09,29.22,29.22,0,0,0,.1-22,15.65,15.65,0,0,0-6.06-7,18.18,18.18,0,0,0-9.66-2.43H670v-1.35h11.83a19.55,19.55,0,0,1,10.32,2.6,16.91,16.91,0,0,1,6.56,7.44,30.82,30.82,0,0,1-.1,23.51,17,17,0,0,1-6.93,7.51A21.76,21.76,0,0,1,680.75,194.33Z"/><path class="cls-1" d="M712.35,150.67v43.66H711V150.67Z"/><path class="cls-1" d="M724.41,194.33V150.67h1.29l24.11,33.14c.74,1,1.48,2,2.2,3.05l2.17,3,2.17,3h-.5q0-1.53,0-3c0-1,0-2-.05-3s0-2,0-3.05V150.67h1.35v43.66h-1.29l-24.05-33.08c-.75-1-1.48-2-2.2-3.05l-2.17-3c-.72-1-1.45-2-2.2-3h.5c0,1,0,2,0,3l0,3c0,1,0,2,0,3.05v33.08Z"/><path class="cls-1" d="M785.21,194.82A16.69,16.69,0,0,1,775.6,192a18.29,18.29,0,0,1-6.35-7.83,31.4,31.4,0,0,1,0-23.42A18.49,18.49,0,0,1,775.6,153a17.81,17.81,0,0,1,16.25-1.49,15.93,15.93,0,0,1,5,3.44,18.39,18.39,0,0,1,3.31,4.6,16.62,16.62,0,0,1,1.61,4.81h-1.37a15.35,15.35,0,0,0-1.57-4.49,16.62,16.62,0,0,0-3.13-4.14,15.76,15.76,0,0,0-19.41-1.55,17.14,17.14,0,0,0-5.88,7.33,27.16,27.16,0,0,0-2.09,11.05,26.84,26.84,0,0,0,2.08,10.93,17.2,17.2,0,0,0,5.87,7.37,16.54,16.54,0,0,0,17.17.48,14.44,14.44,0,0,0,5.38-6.15,21.77,21.77,0,0,0,1.9-9.47l.59.3H785.62v-1.35h16.47v1.29a22.17,22.17,0,0,1-2.1,10,15.64,15.64,0,0,1-5.89,6.58A16.56,16.56,0,0,1,785.21,194.82Z"/><path class="cls-1" d="M167.94,269.33l16.32-43.66h1.84l16.35,43.66H201l-12.65-33.81c-.59-1.56-1.17-3.13-1.75-4.69l-1.71-4.69h.53q-.85,2.36-1.72,4.69c-.57,1.56-1.15,3.13-1.74,4.69l-12.6,33.81Zm6.47-14.42v-1.35H196v1.35Z"/><path class="cls-1" d="M271.54,269.33V225.67h1.29l24.11,33.14c.75,1,1.48,2,2.2,3.05l2.17,3,2.17,3H303q0-1.53,0-3c0-1,0-2,0-3s0-2,0-3.05V225.67h1.35v43.66H303L278.9,236.25c-.75-1-1.48-2-2.2-3.05l-2.17-3c-.72-1-1.45-2-2.2-3h.5c0,1,0,2,0,3l0,3c0,1,0,2,0,3.05v33.08Z"/><path class="cls-1" d="M316.3,269.33V225.67H342V227H317.65v19.45H340v1.35H317.65V268h24.52v1.35Z"/><path class="cls-1" d="M361.22,269.33l-12.37-43.66h1.41L359.69,259l.93,3.28.9,3.29c.31,1.09.61,2.18.93,3.28h-.38c.27-1.1.55-2.19.85-3.28l.87-3.29.88-3.28,9.08-33.34h2.06L384.89,259l.88,3.28.88,3.29.87,3.28h-.38c.3-1.1.59-2.19.9-3.28l.91-3.29c.3-1.09.61-2.18.92-3.28l9.43-33.34h1.41l-12.37,43.66h-2L377.48,237c-.49-1.79-1-3.59-1.45-5.39s-1-3.59-1.43-5.39H375c-.49,1.8-1,3.59-1.45,5.39s-1,3.6-1.46,5.39l-8.81,32.35Z"/><path class="cls-1" d="M485.45,269.82A16.33,16.33,0,0,1,476,267a18.47,18.47,0,0,1-6.37-7.81,31.06,31.06,0,0,1,0-23.41A18.5,18.5,0,0,1,476,228a16.2,16.2,0,0,1,9.45-2.81,16.6,16.6,0,0,1,6.78,1.3,15.89,15.89,0,0,1,5,3.44,18.26,18.26,0,0,1,3.28,4.6,18,18,0,0,1,1.63,4.81h-1.38a16.7,16.7,0,0,0-1.61-4.52,16.22,16.22,0,0,0-3.09-4.13A15.49,15.49,0,0,0,477.16,229a17.28,17.28,0,0,0-6.14,7.1,29.5,29.5,0,0,0,0,23,17,17,0,0,0,6.14,7,15.3,15.3,0,0,0,8.29,2.39,15,15,0,0,0,6.05-1.15,14.61,14.61,0,0,0,4.55-3,16.94,16.94,0,0,0,3.09-4.14,16.49,16.49,0,0,0,1.63-4.49h1.38a18.05,18.05,0,0,1-1.63,4.78,18.26,18.26,0,0,1-3.28,4.6,16.11,16.11,0,0,1-5,3.46A16.6,16.6,0,0,1,485.45,269.82Z"/><path class="cls-1" d="M511.59,269.33V225.67h1.35v20.69h27.77V225.67h1.35v43.66h-1.35V247.71H512.94v21.62Z"/><path class="cls-1" d="M550,269.33l16.32-43.66h1.85l16.35,43.66h-1.44l-12.66-33.81-1.74-4.69q-.87-2.34-1.71-4.69h.52q-.84,2.36-1.71,4.69l-1.74,4.69-12.6,33.81Zm6.48-14.42v-1.35h21.59v1.35Z"/><path class="cls-1" d="M592.54,269.33V225.67h14a13,13,0,0,1,6.44,1.57,11.42,11.42,0,0,1,4.43,4.4,14.13,14.13,0,0,1,0,13.08A11.32,11.32,0,0,1,613,249.1a13.1,13.1,0,0,1-6.47,1.56H593.25v-1.34h13.24a11.6,11.6,0,0,0,5.75-1.4,10,10,0,0,0,3.94-3.89,12.58,12.58,0,0,0,0-11.69,10.21,10.21,0,0,0-3.94-3.91,11.5,11.5,0,0,0-5.75-1.41h-12.6v42.31Z"/><path class="cls-1" d="M623.52,227v-1.35h31.29V227h-15v42.31H638.5V227Z"/><path class="cls-1" d="M663.43,269.33V225.67h25.72V227H664.78v19.45h22.35v1.35H664.78V268H689.3v1.35Z"/><path class="cls-1" d="M698.14,269.33V225.67h13.94a13.1,13.1,0,0,1,6.45,1.56,11.3,11.3,0,0,1,4.42,4.36,13,13,0,0,1,1.61,6.56,12.74,12.74,0,0,1-1.6,6.48,11.24,11.24,0,0,1-4.4,4.33,13.16,13.16,0,0,1-6.48,1.56H698.84v-1.35h13.24a11.74,11.74,0,0,0,5.76-1.38,10.06,10.06,0,0,0,3.94-3.85,11.3,11.3,0,0,0,1.43-5.79,11.54,11.54,0,0,0-1.43-5.86,10.2,10.2,0,0,0-3.94-3.88,11.75,11.75,0,0,0-5.76-1.39h-12.6v42.31Zm25.66,0-10.55-19.87h1.53l10.54,19.87Z"/><path class="cls-1" d="M797.55,225.67v43.66H796.2V225.67Z"/><path class="cls-1" d="M809.61,269.33V225.67h1.29L835,258.81c.75,1,1.48,2,2.2,3.05l2.17,3c.72,1,1.45,2,2.17,3h-.5q0-1.53,0-3c0-1,0-2,0-3s0-2,0-3.05V225.67h1.35v43.66H841l-24-33.08c-.74-1-1.48-2-2.2-3.05l-2.17-3c-.72-1-1.45-2-2.19-3h.49c0,1,0,2,0,3l0,3c0,1,0,2,0,3.05v33.08Z"/><path class="cls-1" d="M0,344.33V300.67H30.88v7.65H9v10.22H29.21V326H9v10.66H30.88v7.65Z"/><path class="cls-1" d="M57.31,345a20.64,20.64,0,0,1-10.6-2.71,19.07,19.07,0,0,1-7.34-7.75,28.38,28.38,0,0,1,0-24.08,19.1,19.1,0,0,1,7.35-7.75A20.71,20.71,0,0,1,57.31,300a21.89,21.89,0,0,1,7.08,1.11,18.4,18.4,0,0,1,5.78,3.2,17.31,17.31,0,0,1,4.15,5A18.84,18.84,0,0,1,76.44,316H67.36a11.07,11.07,0,0,0-1.24-3.4A8.8,8.8,0,0,0,64,310.05,9.39,9.39,0,0,0,61,308.48a11.32,11.32,0,0,0-3.57-.54,10.94,10.94,0,0,0-6.26,1.77,11.42,11.42,0,0,0-4,5,22,22,0,0,0,0,15.54,11.33,11.33,0,0,0,4,5,11,11,0,0,0,6.26,1.76,11.26,11.26,0,0,0,3.56-.54A9.51,9.51,0,0,0,63.93,335a9,9,0,0,0,2.17-2.5,10.55,10.55,0,0,0,1.26-3.36h9.08a18.25,18.25,0,0,1-2,6.43,17.12,17.12,0,0,1-4.1,5,18.27,18.27,0,0,1-5.8,3.28A21.5,21.5,0,0,1,57.31,345Z"/><path class="cls-1" d="M102.93,345a20.54,20.54,0,0,1-10.52-2.72,19.23,19.23,0,0,1-7.33-7.77,28.3,28.3,0,0,1,0-24,19.08,19.08,0,0,1,7.33-7.76,21.72,21.72,0,0,1,21,0,19.19,19.19,0,0,1,7.32,7.76,28.17,28.17,0,0,1,0,24.07,19.22,19.22,0,0,1-7.32,7.75A20.34,20.34,0,0,1,102.93,345Zm0-7.94a10.58,10.58,0,0,0,5.95-1.7,11.2,11.2,0,0,0,4-4.95,19,19,0,0,0,1.47-7.88,19.26,19.26,0,0,0-1.47-7.93,11.23,11.23,0,0,0-4-5,11.28,11.28,0,0,0-11.91,0,11.27,11.27,0,0,0-4.06,5,19.43,19.43,0,0,0-1.46,7.93,19.22,19.22,0,0,0,1.46,7.88A11.24,11.24,0,0,0,97,335.36,10.66,10.66,0,0,0,102.93,337.06Z"/><path class="cls-1" d="M131.38,344.33V300.67h9v36H160v7.65Z"/><path class="cls-1" d="M184.68,345a20.51,20.51,0,0,1-10.52-2.72,19.32,19.32,0,0,1-7.34-7.77,28.3,28.3,0,0,1,0-24,19.17,19.17,0,0,1,7.34-7.76,21.72,21.72,0,0,1,21,0,19.32,19.32,0,0,1,7.32,7.76,28.17,28.17,0,0,1,0,24.07,19.36,19.36,0,0,1-7.32,7.75A20.37,20.37,0,0,1,184.68,345Zm0-7.94a10.61,10.61,0,0,0,5.95-1.7,11.34,11.34,0,0,0,4-4.95,19.05,19.05,0,0,0,1.46-7.88,19.27,19.27,0,0,0-1.46-7.93,11.37,11.37,0,0,0-4-5,11.28,11.28,0,0,0-11.91,0,11.27,11.27,0,0,0-4.06,5,19.26,19.26,0,0,0-1.47,7.93,19,19,0,0,0,1.47,7.88,11.24,11.24,0,0,0,4.06,4.95A10.62,10.62,0,0,0,184.68,337.06Z"/><path class="cls-1" d="M232.18,345a20.59,20.59,0,0,1-10.84-2.8,19.16,19.16,0,0,1-7.27-7.85,28.27,28.27,0,0,1,.09-23.88,19.26,19.26,0,0,1,7.35-7.76A20.53,20.53,0,0,1,232,300a22.25,22.25,0,0,1,7,1.08,18.77,18.77,0,0,1,5.81,3.12A17.3,17.3,0,0,1,249,309a15.9,15.9,0,0,1,2,6.17h-9.15a9.71,9.71,0,0,0-1.2-3,8.07,8.07,0,0,0-2.08-2.28,9.4,9.4,0,0,0-2.85-1.47,11.58,11.58,0,0,0-3.53-.51,10.89,10.89,0,0,0-6.24,1.77,11.45,11.45,0,0,0-4.08,5,21.82,21.82,0,0,0,0,15.54,10.81,10.81,0,0,0,10.43,6.78,11.72,11.72,0,0,0,5.38-1.17,8.91,8.91,0,0,0,3.59-3.25,9.06,9.06,0,0,0,1.29-4.87l2.08.18h-11.6v-6.83h18.31v5.54a18.34,18.34,0,0,1-2.48,9.61,17.15,17.15,0,0,1-6.81,6.43A21,21,0,0,1,232.18,345Z"/><path class="cls-1" d="M268.8,300.67v43.66h-9V300.67Z"/><path class="cls-1" d="M297.44,345a20.64,20.64,0,0,1-10.6-2.71,19.14,19.14,0,0,1-7.34-7.75,28.38,28.38,0,0,1,0-24.08,19.16,19.16,0,0,1,7.35-7.75A20.71,20.71,0,0,1,297.44,300a21.89,21.89,0,0,1,7.08,1.11,18.34,18.34,0,0,1,5.79,3.2,17.12,17.12,0,0,1,4.14,5,18.85,18.85,0,0,1,2.13,6.64h-9.09a11.07,11.07,0,0,0-1.24-3.4,8.8,8.8,0,0,0-2.16-2.52,9.45,9.45,0,0,0-2.92-1.57,11.43,11.43,0,0,0-3.58-.54,10.88,10.88,0,0,0-6.25,1.77,11.37,11.37,0,0,0-4,5,22,22,0,0,0,0,15.54,11.28,11.28,0,0,0,4,5,11,11,0,0,0,6.25,1.76,11.22,11.22,0,0,0,3.56-.54,9.56,9.56,0,0,0,2.92-1.57,9.16,9.16,0,0,0,2.16-2.5,10.55,10.55,0,0,0,1.26-3.36h9.09a18.46,18.46,0,0,1-2.06,6.43,17.12,17.12,0,0,1-4.1,5,18.27,18.27,0,0,1-5.8,3.28A21.5,21.5,0,0,1,297.44,345Z"/><path class="cls-1" d="M319.7,344.33l15.24-43.66h11.63l15.32,43.66h-10L345,323.12c-.84-2.78-1.7-5.67-2.59-8.69s-1.84-6.41-2.85-10.18h2.37q-1.56,5.65-2.87,10.19t-2.61,8.68l-7,21.21Zm9.64-9.64v-7.18h22.91v7.18Z"/><path class="cls-1" d="M368.08,344.33V300.67h9v36h19.63v7.65Z"/><path class="cls-1" d="M435.4,345a16.4,16.4,0,0,1-6.94-1.38,11.44,11.44,0,0,1-4.72-3.83,11,11,0,0,1-1.93-5.69h1.35a9.53,9.53,0,0,0,1.75,5,10.32,10.32,0,0,0,4.24,3.35,15.15,15.15,0,0,0,6.25,1.2,15.5,15.5,0,0,0,6.59-1.3,10.34,10.34,0,0,0,4.38-3.65,9.48,9.48,0,0,0,1.57-5.42,8.19,8.19,0,0,0-1-4.13,9.56,9.56,0,0,0-3.21-3.18,23.55,23.55,0,0,0-5.73-2.47l-4.92-1.53a18.08,18.08,0,0,1-7.71-4.24,8.9,8.9,0,0,1-2.55-6.42,10.25,10.25,0,0,1,1.69-5.77,11.66,11.66,0,0,1,4.61-4,14.77,14.77,0,0,1,6.65-1.46,13.94,13.94,0,0,1,6.58,1.49,11.85,11.85,0,0,1,4.5,4.09,12.15,12.15,0,0,1,1.87,6h-1.34a10.65,10.65,0,0,0-3.43-7.32,11.55,11.55,0,0,0-8.18-2.87,13.45,13.45,0,0,0-5.94,1.27,10.24,10.24,0,0,0-4.15,3.52,9,9,0,0,0-1.51,5.11,7.86,7.86,0,0,0,1,3.94,9.45,9.45,0,0,0,3.06,3.12,20.44,20.44,0,0,0,5.13,2.31l5,1.53a29.11,29.11,0,0,1,4.88,2,13.79,13.79,0,0,1,3.41,2.43,8.84,8.84,0,0,1,2,3,9.79,9.79,0,0,1,.66,3.67,10.77,10.77,0,0,1-1.74,6.05,11.84,11.84,0,0,1-4.87,4.16A16.47,16.47,0,0,1,435.4,345Z"/><path class="cls-1" d="M474.1,344.82a16,16,0,0,1-8-2,15,15,0,0,1-5.62-5.5,15.18,15.18,0,0,1-2.07-7.91V300.67h1.35v28.74a14,14,0,0,0,1.88,7.23,13.75,13.75,0,0,0,5.12,5,15.72,15.72,0,0,0,14.72,0,13.75,13.75,0,0,0,5.12-5,14,14,0,0,0,1.87-7.23V300.67h1.35v28.74a15.29,15.29,0,0,1-2.05,7.93,15,15,0,0,1-5.61,5.48A16.07,16.07,0,0,1,474.1,344.82Z"/><path class="cls-1" d="M512.23,345a16.45,16.45,0,0,1-7-1.38,11.4,11.4,0,0,1-4.71-3.83,11,11,0,0,1-1.94-5.69H500a9.53,9.53,0,0,0,1.76,5,10.29,10.29,0,0,0,4.23,3.35,15.2,15.2,0,0,0,6.26,1.2,15.53,15.53,0,0,0,6.59-1.3,10.46,10.46,0,0,0,4.38-3.65,9.56,9.56,0,0,0,1.57-5.42,8.19,8.19,0,0,0-1-4.13,9.38,9.38,0,0,0-3.21-3.18,23.29,23.29,0,0,0-5.72-2.47l-4.93-1.53a18.1,18.1,0,0,1-7.7-4.24,8.9,8.9,0,0,1-2.55-6.42,10.25,10.25,0,0,1,1.68-5.77,11.76,11.76,0,0,1,4.62-4,14.74,14.74,0,0,1,6.65-1.46,14,14,0,0,1,6.58,1.49,11.82,11.82,0,0,1,4.49,4.09,12.16,12.16,0,0,1,1.88,6h-1.35a10.6,10.6,0,0,0-3.43-7.32,11.52,11.52,0,0,0-8.17-2.87,13.5,13.5,0,0,0-6,1.27,10.15,10.15,0,0,0-4.14,3.52,8.9,8.9,0,0,0-1.51,5.11,7.76,7.76,0,0,0,1,3.94,9.26,9.26,0,0,0,3.06,3.12,20.44,20.44,0,0,0,5.13,2.31l5,1.53a29.46,29.46,0,0,1,4.88,2,14,14,0,0,1,3.41,2.43,8.84,8.84,0,0,1,2,3,10,10,0,0,1,.65,3.67,10.77,10.77,0,0,1-1.74,6.05,11.75,11.75,0,0,1-4.86,4.16A16.5,16.5,0,0,1,512.23,345Z"/><path class="cls-1" d="M531.18,302v-1.35h31.29V302h-15v42.31h-1.35V302Z"/><path class="cls-1" d="M560.93,344.33l16.32-43.66h1.85l16.34,43.66H594l-12.66-33.81-1.74-4.69q-.87-2.34-1.71-4.69h.52q-.84,2.36-1.71,4.69L575,310.52l-12.6,33.81Zm6.48-14.42v-1.35H589v1.35Z"/><path class="cls-1" d="M604.78,300.67v43.66h-1.35V300.67Z"/><path class="cls-1" d="M616.84,344.33V300.67h1.29l24.11,33.14c.74,1,1.48,2,2.2,3.05l2.17,3q1.08,1.5,2.16,3h-.49q0-1.53,0-3c0-1,0-2,0-3s0-2,0-3.05V300.67h1.35v43.66h-1.29l-24.06-33.08c-.74-1-1.47-2-2.19-3.05l-2.17-3c-.72-1-1.46-2-2.2-3.05h.5c0,1,0,2,0,3.05l0,3c0,1,0,2,0,3.05v33.08Z"/><path class="cls-1" d="M657.52,344.33l16.32-43.66h1.84L692,344.33h-1.44l-12.65-33.81c-.59-1.56-1.17-3.13-1.75-4.69l-1.71-4.69H675q-.85,2.36-1.72,4.69c-.57,1.56-1.15,3.13-1.74,4.69L659,344.33ZM664,329.91v-1.35h21.59v1.35Z"/><path class="cls-1" d="M700,344.33V300.67h13.59a15.79,15.79,0,0,1,6.71,1.34,10.4,10.4,0,0,1,4.47,3.82,11.65,11.65,0,0,1,.58,10.62,10.51,10.51,0,0,1-2.71,3.57,10.16,10.16,0,0,1-3.78,2.07v.06a11,11,0,0,1,4.43,1.73,10.83,10.83,0,0,1,3.44,3.64,10.27,10.27,0,0,1,1.33,5.29,11.36,11.36,0,0,1-1.58,6,10.75,10.75,0,0,1-4.48,4.05,15.5,15.5,0,0,1-6.95,1.45Zm1.34-22.86h13.71a9.91,9.91,0,0,0,5.23-1.34,9.66,9.66,0,0,0,4.74-8.38,8.7,8.7,0,0,0-3.17-7.18,12.75,12.75,0,0,0-8.26-2.55H701.36Zm0,21.51h13.71c3.62,0,6.46-.94,8.54-2.83a9.44,9.44,0,0,0,3.12-7.34,8.85,8.85,0,0,0-1.62-5.34,10.58,10.58,0,0,0-4.29-3.45,13.87,13.87,0,0,0-5.75-1.2H701.36Z"/><path class="cls-1" d="M739.48,300.67v43.66h-1.35V300.67Z"/><path class="cls-1" d="M751.54,344.33V300.67H753V343H775.3v1.35Z"/><path class="cls-1" d="M774.34,302v-1.35h31.29V302h-15v42.31h-1.35V302Z"/><path class="cls-1" d="M828.83,344.33V323.64l-16.64-23h1.64l10.58,14.59q1.38,1.88,2.69,3.75t2.67,3.75h-.53c.9-1.25,1.8-2.5,2.68-3.75l2.68-3.75,10.52-14.59h1.64l-16.58,23v20.69Z"/></g></g></svg>