<?xml version="1.0" encoding="UTF-8"?>
<svg id="_圖層_2" data-name="圖層 2" xmlns="http://www.w3.org/2000/svg" viewBox="0 0 714.44 120.03">
  <defs>
    <style>
      .cls-1 {
        fill: #fff;
      }
    </style>
  </defs>
  <g id="text">
    <g>
      <path class="cls-1" d="M1.52,44.33V.67h29.48v6.68H9.42v12.19h19.91v6.56H9.42v18.22H1.52Z"/>
      <path class="cls-1" d="M60.3,45c-3.94,0-7.46-.92-10.57-2.77-3.1-1.85-5.54-4.45-7.33-7.82s-2.67-7.33-2.67-11.88.89-8.57,2.67-11.95c1.78-3.38,4.23-5.99,7.33-7.82,3.1-1.84,6.62-2.75,10.57-2.75s7.46.92,10.55,2.75c3.09,1.84,5.53,4.44,7.31,7.82,1.78,3.38,2.67,7.36,2.67,11.95s-.89,8.54-2.67,11.91-4.22,5.97-7.31,7.81c-3.09,1.84-6.61,2.75-10.55,2.75ZM60.3,38.03c2.4,0,4.55-.6,6.45-1.8,1.9-1.2,3.4-2.95,4.5-5.26,1.1-2.3,1.65-5.12,1.65-8.44s-.55-6.17-1.65-8.48-2.6-4.07-4.5-5.27c-1.9-1.2-4.05-1.8-6.45-1.8s-4.58.6-6.48,1.8c-1.9,1.2-3.4,2.96-4.5,5.27-1.1,2.31-1.65,5.14-1.65,8.48s.55,6.13,1.65,8.44c1.1,2.3,2.6,4.06,4.5,5.26,1.9,1.2,4.06,1.8,6.48,1.8Z"/>
      <path class="cls-1" d="M92.58,44.33V.67h17.15c3.27,0,6.08.57,8.44,1.71,2.36,1.14,4.17,2.76,5.42,4.85,1.26,2.09,1.89,4.55,1.89,7.38s-.66,5.28-1.98,7.34c-1.32,2.06-3.19,3.65-5.6,4.78-2.42,1.12-5.28,1.68-8.59,1.68h-12.1v-6.42h11.92c1.82,0,3.37-.3,4.64-.89,1.27-.6,2.23-1.45,2.9-2.55.66-1.1,1-2.42,1-3.94s-.34-2.83-1.01-3.93c-.67-1.09-1.64-1.94-2.91-2.55-1.27-.6-2.81-.91-4.64-.91h-8.62v37.09h-7.91ZM117.81,44.33l-10.4-19.72h8.47l10.61,19.72h-8.68Z"/>
      <path class="cls-1" d="M171.36,44.33v-16.88L154.98.67h9.09l7.97,13.51c.77,1.31,1.51,2.61,2.2,3.9.69,1.29,1.4,2.65,2.11,4.07h-2.11c.67-1.43,1.36-2.78,2.05-4.07.69-1.29,1.42-2.59,2.17-3.9l7.79-13.51h9.06l-16.2,26.78v16.88h-7.76Z"/>
      <path class="cls-1" d="M220.69,45c-3.94,0-7.46-.92-10.57-2.77-3.1-1.85-5.54-4.45-7.33-7.82s-2.67-7.33-2.67-11.88.89-8.57,2.67-11.95c1.78-3.38,4.23-5.99,7.33-7.82,3.1-1.84,6.62-2.75,10.57-2.75s7.46.92,10.55,2.75c3.09,1.84,5.53,4.44,7.31,7.82,1.78,3.38,2.67,7.36,2.67,11.95s-.89,8.54-2.67,11.91-4.22,5.97-7.31,7.81c-3.09,1.84-6.61,2.75-10.55,2.75ZM220.69,38.03c2.4,0,4.55-.6,6.45-1.8,1.9-1.2,3.4-2.95,4.5-5.26,1.1-2.3,1.65-5.12,1.65-8.44s-.55-6.17-1.65-8.48-2.6-4.07-4.5-5.27c-1.9-1.2-4.05-1.8-6.45-1.8s-4.58.6-6.48,1.8c-1.9,1.2-3.4,2.96-4.5,5.27-1.1,2.31-1.65,5.14-1.65,8.48s.55,6.13,1.65,8.44c1.1,2.3,2.6,4.06,4.5,5.26,1.9,1.2,4.06,1.8,6.48,1.8Z"/>
      <path class="cls-1" d="M270.55,45.03c-3.61,0-6.75-.67-9.44-2.02s-4.77-3.21-6.26-5.58c-1.49-2.37-2.23-5.1-2.23-8.19V.67h7.79v27.92c0,1.86.42,3.5,1.25,4.94.83,1.44,2.01,2.56,3.52,3.38,1.52.82,3.3,1.23,5.36,1.23s3.87-.41,5.38-1.23,2.67-1.95,3.51-3.38c.83-1.44,1.25-3.08,1.25-4.94V.67h7.79v28.56c0,3.09-.74,5.82-2.23,8.19-1.49,2.37-3.57,4.23-6.26,5.58-2.69,1.35-5.83,2.02-9.44,2.02Z"/>
      <path class="cls-1" d="M301.79,44.33V.67h17.15c3.27,0,6.08.57,8.44,1.71,2.36,1.14,4.17,2.76,5.42,4.85,1.26,2.09,1.89,4.55,1.89,7.38s-.66,5.28-1.98,7.34c-1.32,2.06-3.19,3.65-5.6,4.78-2.42,1.12-5.28,1.68-8.59,1.68h-12.1v-6.42h11.92c1.82,0,3.37-.3,4.64-.89,1.27-.6,2.23-1.45,2.9-2.55.66-1.1,1-2.42,1-3.94s-.34-2.83-1.01-3.93c-.67-1.09-1.64-1.94-2.91-2.55-1.27-.6-2.81-.91-4.64-.91h-8.62v37.09h-7.91ZM327.02,44.33l-10.4-19.72h8.47l10.61,19.72h-8.68Z"/>
      <path class="cls-1" d="M367.4,44.33V.67h30.34v6.68h-22.44v11.57h20.77v6.56h-20.77v12.16h22.47v6.68h-30.37Z"/>
      <path class="cls-1" d="M422.65,44.33L406.84.67h8.56l7.94,22.88c.73,2.25,1.54,4.8,2.42,7.68s1.87,6.14,2.96,9.81h-2.11c1.07-3.67,2.03-6.94,2.88-9.81.85-2.87,1.63-5.43,2.35-7.68l7.7-22.88h8.47l-15.51,43.65h-9.84Z"/>
      <path class="cls-1" d="M457.8,44.33V.67h30.34v6.68h-22.44v11.57h20.78v6.56h-20.78v12.16h22.47v6.68h-30.38Z"/>
      <path class="cls-1" d="M500.05,44.33V.67h17.15c3.27,0,6.08.57,8.44,1.71,2.36,1.14,4.17,2.76,5.42,4.85,1.26,2.09,1.89,4.55,1.89,7.38s-.66,5.28-1.98,7.34c-1.32,2.06-3.19,3.65-5.6,4.78-2.42,1.12-5.28,1.68-8.59,1.68h-12.1v-6.42h11.92c1.82,0,3.37-.3,4.64-.89,1.27-.6,2.23-1.45,2.9-2.55.66-1.1,1-2.42,1-3.94s-.34-2.83-1.01-3.93c-.67-1.09-1.65-1.94-2.91-2.55-1.27-.6-2.81-.91-4.64-.91h-8.62v37.09h-7.91ZM525.28,44.33l-10.4-19.72h8.47l10.61,19.72h-8.68Z"/>
      <path class="cls-1" d="M555.73,44.33v-16.88l-16.38-26.78h9.09l7.96,13.51c.77,1.31,1.51,2.61,2.2,3.9s1.4,2.65,2.11,4.07h-2.11c.67-1.43,1.36-2.78,2.05-4.07s1.42-2.59,2.17-3.9l7.79-13.51h9.06l-16.2,26.78v16.88h-7.76Z"/>
      <path class="cls-1" d="M597.38.67v43.65h-7.91V.67h7.91ZM604.45,44.33h-11.17v-6.65h10.76c3.17,0,5.8-.59,7.89-1.77,2.09-1.18,3.65-2.9,4.68-5.17,1.03-2.27,1.55-5.03,1.55-8.29s-.51-5.96-1.53-8.22c-1.02-2.26-2.56-3.97-4.62-5.14s-4.64-1.76-7.73-1.76h-11.2V.67h11.71c4.4,0,8.19.88,11.37,2.64,3.18,1.76,5.63,4.26,7.34,7.51s2.57,7.12,2.57,11.62-.86,8.4-2.58,11.67c-1.72,3.27-4.19,5.79-7.4,7.56-3.21,1.77-7.08,2.65-11.62,2.65Z"/>
      <path class="cls-1" d="M632.14,44.33l15.72-43.65h9.93l15.75,43.65h-8.65l-7.79-22.88c-.77-2.4-1.58-4.99-2.42-7.76-.84-2.77-1.81-6.02-2.9-9.76h2.08c-1.07,3.73-2.03,6.98-2.88,9.76-.85,2.77-1.67,5.36-2.47,7.76l-7.88,22.88h-8.5ZM641.45,33.81v-6.36h22.83v6.36h-22.83Z"/>
      <path class="cls-1" d="M690.49,44.33v-16.88l-16.38-26.78h9.09l7.96,13.51c.77,1.31,1.51,2.61,2.2,3.9s1.4,2.65,2.11,4.07h-2.11c.67-1.43,1.36-2.78,2.05-4.07s1.42-2.59,2.17-3.9l7.79-13.51h9.06l-16.2,26.78v16.88h-7.76Z"/>
      <path class="cls-1" d="M17.45,120.03c-3.59,0-6.68-.58-9.29-1.74s-4.61-2.84-6.02-5.02c-1.41-2.19-2.12-4.8-2.14-7.85h7.73c.04,1.7.46,3.15,1.26,4.35.8,1.2,1.93,2.12,3.37,2.75,1.45.63,3.15.95,5.11.95,1.84,0,3.44-.26,4.8-.78,1.36-.52,2.42-1.25,3.18-2.2.76-.95,1.14-2.06,1.14-3.33,0-1.05-.29-1.96-.86-2.72-.58-.76-1.47-1.42-2.68-1.98s-2.75-1.05-4.64-1.48l-4.81-1.11c-4.26-.98-7.44-2.44-9.53-4.38-2.09-1.94-3.14-4.45-3.14-7.51,0-2.62.68-4.89,2.05-6.83s3.27-3.44,5.72-4.53c2.45-1.08,5.28-1.63,8.48-1.63s6.1.56,8.5,1.67c2.4,1.11,4.26,2.69,5.6,4.72,1.34,2.03,2.05,4.44,2.12,7.24h-7.52c-.16-2.21-1.02-3.94-2.59-5.19-1.57-1.25-3.63-1.88-6.18-1.88-1.62,0-3.07.26-4.32.78-1.26.52-2.24,1.23-2.94,2.12-.7.9-1.05,1.93-1.05,3.11,0,1.04.3,1.92.89,2.65.59.73,1.48,1.36,2.66,1.88,1.18.52,2.65.98,4.41,1.39l4.4,1.03c2.16.49,4.06,1.09,5.71,1.8,1.64.71,3.03,1.57,4.15,2.56,1.12,1,1.97,2.15,2.54,3.46.57,1.31.86,2.79.86,4.45,0,2.68-.68,5.01-2.05,7s-3.32,3.53-5.87,4.61c-2.55,1.08-5.57,1.63-9.08,1.63Z"/>
      <path class="cls-1" d="M63.51,120.03c-3.61,0-6.75-.67-9.44-2.02s-4.77-3.21-6.26-5.58c-1.49-2.37-2.23-5.1-2.23-8.19v-28.56h7.79v27.92c0,1.86.42,3.5,1.25,4.94.83,1.44,2.01,2.56,3.52,3.38,1.52.82,3.3,1.23,5.36,1.23s3.87-.41,5.38-1.23,2.67-1.95,3.51-3.38c.83-1.44,1.25-3.08,1.25-4.94v-27.92h7.79v28.56c0,3.09-.74,5.82-2.23,8.19-1.49,2.37-3.57,4.23-6.26,5.58-2.69,1.35-5.83,2.02-9.44,2.02Z"/>
      <path class="cls-1" d="M94.75,119.33v-43.65h16.85c3.29,0,6.11.58,8.47,1.74,2.36,1.16,4.17,2.8,5.42,4.91s1.89,4.58,1.89,7.41-.64,5.33-1.93,7.44c-1.29,2.11-3.12,3.75-5.5,4.91-2.38,1.16-5.21,1.74-8.5,1.74h-12.16v-6.56h11.71c1.82,0,3.37-.31,4.64-.94,1.27-.62,2.24-1.5,2.91-2.62.67-1.12,1.01-2.45,1.01-3.97s-.34-2.84-1.01-3.96c-.67-1.11-1.64-1.98-2.91-2.59s-2.81-.92-4.64-.92h-8.35v37.06h-7.91Z"/>
      <path class="cls-1" d="M137.76,119.33v-43.65h16.85c3.29,0,6.11.58,8.47,1.74,2.36,1.16,4.17,2.8,5.42,4.91s1.89,4.58,1.89,7.41-.64,5.33-1.93,7.44c-1.29,2.11-3.12,3.75-5.5,4.91-2.38,1.16-5.21,1.74-8.5,1.74h-12.16v-6.56h11.71c1.82,0,3.37-.31,4.64-.94,1.27-.62,2.24-1.5,2.91-2.62.67-1.12,1.01-2.45,1.01-3.97s-.34-2.84-1.01-3.96c-.67-1.11-1.64-1.98-2.91-2.59s-2.81-.92-4.64-.92h-8.35v37.06h-7.91Z"/>
      <path class="cls-1" d="M200.41,120c-3.94,0-7.46-.92-10.57-2.77-3.1-1.85-5.54-4.45-7.33-7.82s-2.67-7.33-2.67-11.88.89-8.57,2.67-11.95c1.78-3.38,4.23-5.99,7.33-7.82,3.1-1.84,6.62-2.75,10.57-2.75s7.46.92,10.55,2.75c3.09,1.84,5.53,4.44,7.31,7.82,1.78,3.38,2.67,7.36,2.67,11.95s-.89,8.54-2.67,11.91-4.22,5.97-7.31,7.81c-3.09,1.84-6.61,2.75-10.55,2.75ZM200.41,113.03c2.4,0,4.55-.6,6.45-1.8,1.9-1.2,3.4-2.95,4.5-5.26,1.1-2.3,1.65-5.12,1.65-8.44s-.55-6.17-1.65-8.48-2.6-4.07-4.5-5.27c-1.9-1.2-4.05-1.8-6.45-1.8s-4.58.6-6.48,1.8c-1.9,1.2-3.4,2.96-4.5,5.27-1.1,2.31-1.65,5.14-1.65,8.48s.55,6.13,1.65,8.44c1.1,2.3,2.6,4.06,4.5,5.26,1.9,1.2,4.06,1.8,6.48,1.8Z"/>
      <path class="cls-1" d="M232.68,119.33v-43.65h17.15c3.27,0,6.08.57,8.44,1.71,2.36,1.14,4.17,2.76,5.42,4.85,1.26,2.09,1.89,4.55,1.89,7.38s-.66,5.28-1.98,7.34c-1.32,2.06-3.19,3.65-5.6,4.78-2.42,1.12-5.28,1.68-8.59,1.68h-12.1v-6.42h11.92c1.82,0,3.37-.3,4.64-.89,1.27-.6,2.23-1.45,2.9-2.55.66-1.1,1-2.42,1-3.94s-.34-2.83-1.01-3.93c-.67-1.09-1.64-1.94-2.91-2.55-1.27-.6-2.81-.91-4.64-.91h-8.62v37.09h-7.91ZM257.92,119.33l-10.4-19.72h8.47l10.61,19.72h-8.68Z"/>
      <path class="cls-1" d="M274.58,82.35v-6.68h35.37v6.68h-13.73v36.97h-7.91v-36.97h-13.73Z"/>
    </g>
  </g>
</svg>