<svg xmlns="http://www.w3.org/2000/svg" viewBox="0 0 561.25 226.94"><defs><style>.cls-1{fill:#fff;}</style></defs><g id="圖層_2" data-name="圖層 2"><g id="text"><path class="cls-1" d="M15.72,37.52a18.39,18.39,0,0,1-7.63-1.45,11,11,0,0,1-4.94-4.19,12.09,12.09,0,0,1-1.76-6.54H7.74a6.71,6.71,0,0,0,1,3.63,6.28,6.28,0,0,0,2.77,2.29,10.25,10.25,0,0,0,4.2.8,11,11,0,0,0,3.94-.65,6,6,0,0,0,2.61-1.83,4.3,4.3,0,0,0,.94-2.77,3.64,3.64,0,0,0-.71-2.27,5.54,5.54,0,0,0-2.19-1.65,19,19,0,0,0-3.81-1.23l-4-.93c-3.5-.82-6.1-2-7.82-3.65a8.22,8.22,0,0,1-2.58-6.26A9.63,9.63,0,0,1,3.86,5.13a11.19,11.19,0,0,1,4.7-3.78,16.9,16.9,0,0,1,7-1.35,16.22,16.22,0,0,1,7,1.39,10.89,10.89,0,0,1,4.6,3.93,11.51,11.51,0,0,1,1.75,6H22.68A5.83,5.83,0,0,0,20.56,7a7.84,7.84,0,0,0-5.08-1.56,9,9,0,0,0-3.55.65A5.74,5.74,0,0,0,9.51,7.89a4.08,4.08,0,0,0-.87,2.58,3.41,3.41,0,0,0,.74,2.21,5.71,5.71,0,0,0,2.18,1.57,21.66,21.66,0,0,0,3.63,1.16l3.61.85a27,27,0,0,1,4.69,1.5,12.75,12.75,0,0,1,3.4,2.14A8.26,8.26,0,0,1,29,22.78a9.3,9.3,0,0,1,.71,3.71A10.1,10.1,0,0,1,28,32.32a10.79,10.79,0,0,1-4.82,3.85A18.79,18.79,0,0,1,15.72,37.52Z"/><path class="cls-1" d="M41.78,6.13V.56H70.84V6.13H59.56V36.94h-6.5V6.13Z"/><path class="cls-1" d="M77.5,36.94,90.42.56h8.15l12.94,36.38h-7.1L98,17.87c-.63-2-1.3-4.16-2-6.47s-1.48-5-2.38-8.13h1.71Q94,7.94,93,11.4t-2,6.47L84.49,36.94Zm7.65-8.77V22.88H103.9v5.29Z"/><path class="cls-1" d="M124.73,36.94V.56h14.09A15.61,15.61,0,0,1,145.75,2a10.37,10.37,0,0,1,4.46,4,11.85,11.85,0,0,1,1.55,6.15,11.27,11.27,0,0,1-1.63,6.12,10.62,10.62,0,0,1-4.6,4,16.53,16.53,0,0,1-7.06,1.4h-9.93V18.33h9.79a8.78,8.78,0,0,0,3.81-.74,5.41,5.41,0,0,0,2.38-2.12,6.39,6.39,0,0,0,.81-3.29,6.11,6.11,0,0,0-.83-3.27,5.5,5.5,0,0,0-2.39-2.12A8.6,8.6,0,0,0,138.3,6h-7.08V36.94Zm20.73,0-8.55-16.43h7l8.72,16.43Z"/><path class="cls-1" d="M164.32,6.13V.56h29.05V6.13H182.09V36.94H175.6V6.13Z"/><path class="cls-1" d="M226.8,36.94,239.71.56h8.16l12.94,36.38H253.7l-6.39-19.07q-1-3-2-6.47t-2.38-8.13h1.7q-1.3,4.67-2.36,8.13t-2,6.47l-6.47,19.07Zm7.64-8.77V22.88h18.75v5.29Z"/><path class="cls-1" d="M296.07,36.94V.56h7.05L315.87,20.8c.39.6.85,1.38,1.4,2.33s1.12,2,1.72,3.09,1.19,2.22,1.76,3.35L320,30.79q-.1-1.63-.18-3.69c-.06-1.37-.1-2.67-.13-3.92s0-2.23,0-3V.56h6.49V36.94h-7.08L307.64,18.73c-.47-.77-1-1.7-1.69-2.79s-1.37-2.34-2.17-3.76-1.66-3-2.59-4.66l1-.73q.15,2.7.24,5c.05,1.55.09,2.92.12,4.09s0,2.1,0,2.78V36.94Z"/><path class="cls-1" d="M342.45,36.94V.56h24.92V6.13H348.94v9.64H366v5.47H348.94V31.37H367.4v5.57Z"/><path class="cls-1" d="M389.81,36.94,380,.56h6.86l4.79,19.56c.34,1.38.66,2.79.95,4.22s.58,2.86.86,4.29.53,2.84.78,4.26h-1.15c.28-1.42.56-2.84.85-4.26s.6-2.86.91-4.29.63-2.84,1-4.22l5-19.56h6.84l5,19.56c.34,1.38.67,2.79,1,4.22s.62,2.86.91,4.29.58,2.84.86,4.26h-1.2c.28-1.42.55-2.84.82-4.26s.55-2.86.86-4.29.62-2.84.93-4.22L421.55.56h6.91l-9.87,36.38h-7.32l-5.52-20.83c-.41-1.59-.79-3.3-1.16-5.14s-.77-3.8-1.21-5.92H405c-.44,2.1-.84,4.07-1.19,5.89s-.73,3.55-1.16,5.17l-5.49,20.83Z"/><path class="cls-1" d="M0,116.94,12.92,80.56h8.15L34,116.94H26.9L20.51,97.87q-1-3-2-6.47c-.69-2.31-1.49-5-2.38-8.13h1.71q-1.32,4.67-2.37,8.13t-2,6.47L7,116.94Zm7.64-8.77v-5.29H26.39v5.29Z"/><path class="cls-1" d="M53.72,80.56v36.38H47.23V80.56Zm5.81,36.38H50.35V111.4h8.84a12.94,12.94,0,0,0,6.48-1.48,9.15,9.15,0,0,0,3.85-4.31,17,17,0,0,0,1.27-6.91,16.76,16.76,0,0,0-1.26-6.85,9,9,0,0,0-3.8-4.28,12.51,12.51,0,0,0-6.35-1.47h-9.2V80.56H59.8a18.75,18.75,0,0,1,9.34,2.2,14.87,14.87,0,0,1,6,6.26,20.73,20.73,0,0,1,2.11,9.68,20.94,20.94,0,0,1-2.12,9.73,15,15,0,0,1-6.08,6.3A19.35,19.35,0,0,1,59.53,116.94Z"/><path class="cls-1" d="M100.45,116.94l-13-36.38h7L101,99.63q.9,2.81,2,6.4t2.42,8.17H103.7q1.32-4.59,2.37-8.17t1.93-6.4l6.32-19.07h7l-12.74,36.38Z"/><path class="cls-1" d="M134.49,116.94V80.56h24.93v5.57H141v9.64h17.06v5.47H141v10.13h18.45v5.57Z"/><path class="cls-1" d="M174.35,116.94V80.56h7.06l12.74,20.24c.39.6.86,1.38,1.41,2.33s1.11,2,1.72,3.09,1.18,2.22,1.75,3.35l-.7,1.22c-.07-1.09-.13-2.32-.19-3.69s-.09-2.67-.12-3.92,0-2.23,0-3V80.56h6.5v36.38H197.4L185.92,98.73q-.71-1.16-1.68-2.79c-.65-1.09-1.38-2.34-2.17-3.76s-1.66-3-2.59-4.66l1-.73c.1,1.8.17,3.48.23,5s.1,2.92.12,4.09,0,2.1,0,2.78v18.24Z"/><path class="cls-1" d="M218.08,86.13V80.56h29.06v5.57H235.86v30.81h-6.5V86.13Z"/><path class="cls-1" d="M275.37,117.52a16.89,16.89,0,0,1-7.75-1.68,12.54,12.54,0,0,1-5.14-4.65,12.73,12.73,0,0,1-1.83-6.82V80.56H267v23.27a8.14,8.14,0,0,0,1,4.11,7.26,7.26,0,0,0,2.89,2.82,10,10,0,0,0,8.83,0,7.24,7.24,0,0,0,2.88-2.82,8.14,8.14,0,0,0,1-4.11V80.56h6.4v23.81a12.73,12.73,0,0,1-1.83,6.82,12.54,12.54,0,0,1-5.14,4.65A16.89,16.89,0,0,1,275.37,117.52Z"/><path class="cls-1" d="M306.18,116.94V80.56h14.09A15.58,15.58,0,0,1,327.2,82a10.37,10.37,0,0,1,4.46,4,11.85,11.85,0,0,1,1.55,6.15,11.27,11.27,0,0,1-1.62,6.12,10.71,10.71,0,0,1-4.61,4,16.45,16.45,0,0,1-7.05,1.4H310V98.33h9.79a8.75,8.75,0,0,0,3.81-.74A5.41,5.41,0,0,0,326,95.47a6.3,6.3,0,0,0,.82-3.29,6.21,6.21,0,0,0-.83-3.27,5.56,5.56,0,0,0-2.39-2.12,8.66,8.66,0,0,0-3.81-.76h-7.08v30.91Zm20.73,0-8.55-16.43h7L334,116.94Z"/><path class="cls-1" d="M348.14,116.94V80.56h24.92v5.57H354.63v9.64H371.7v5.47H354.63v10.13h18.46v5.57Z"/><path class="cls-1" d="M416.92,116.94,407.1,80.56H414l4.79,19.56c.34,1.38.66,2.79.95,4.22s.58,2.86.85,4.29.54,2.84.79,4.26h-1.15c.27-1.42.56-2.84.85-4.26s.6-2.86.91-4.29.63-2.84,1-4.22l5-19.56h6.84l4.95,19.56c.35,1.38.68,2.79,1,4.22s.63,2.86.92,4.29.58,2.84.85,4.26h-1.19c.27-1.42.55-2.84.82-4.26s.55-2.86.86-4.29.62-2.84.93-4.22l4.78-19.56h6.91l-9.86,36.38h-7.32l-5.52-20.83c-.41-1.59-.79-3.3-1.16-5.14s-.77-3.8-1.21-5.92h1.64c-.44,2.1-.84,4.07-1.19,5.89s-.73,3.55-1.16,5.17l-5.49,20.83Z"/><path class="cls-1" d="M475.27,80.56v36.38h-6.49V80.56Z"/><path class="cls-1" d="M488.86,86.13V80.56h29v5.57H506.63v30.81h-6.49V86.13Z"/><path class="cls-1" d="M531.49,116.94V80.56H538v15h16.8v-15h6.47v36.38h-6.47v-15.8H538v15.8Z"/><path class="cls-1" d="M2.64,196.94V160.56H27.56v5.57H9.13v9.64H26.2v5.47H9.13v10.13H27.59v5.57Z"/><path class="cls-1" d="M40.59,186.13v-5.57H69.64v5.57H58.36v30.81H51.87V186.13Z"/><path class="cls-1" d="M89.71,140.56v36.38H83.22V140.56Z"/><path class="cls-1" d="M105.93,206.94V170.56H113l12.74,20.24c.39.6.86,1.38,1.41,2.33s1.12,2,1.72,3.09,1.19,2.22,1.76,3.35l-.71,1.22q-.1-1.64-.18-3.69c-.06-1.37-.1-2.67-.13-3.92s0-2.23,0-3V170.56h6.49v36.38H129l-11.47-18.21c-.48-.77-1-1.7-1.69-2.79s-1.37-2.34-2.17-3.76-1.66-3-2.59-4.66l1-.73c.1,1.8.18,3.48.23,5s.1,2.92.13,4.09,0,2.1,0,2.78v18.24Z"/><path class="cls-1" d="M152.31,226.94V190.56h13.85a15.47,15.47,0,0,1,7,1.45,10.48,10.48,0,0,1,4.46,4.09,12,12,0,0,1,1.55,6.18,11.77,11.77,0,0,1-1.59,6.2,10.61,10.61,0,0,1-4.51,4.09,15.57,15.57,0,0,1-7,1.45h-10v-5.47h9.62a8.46,8.46,0,0,0,3.81-.78,5.63,5.63,0,0,0,2.39-2.18,7,7,0,0,0,0-6.61,5.65,5.65,0,0,0-2.39-2.16,8.59,8.59,0,0,0-3.81-.77h-6.86v30.89Z"/><path class="cls-1" d="M208.94,212.5a16.45,16.45,0,0,1-8.68-2.31,16.08,16.08,0,0,1-6-6.52,21,21,0,0,1-2.2-9.9,21.27,21.27,0,0,1,2.2-10,16.14,16.14,0,0,1,6-6.52,17.58,17.58,0,0,1,17.35,0,16.21,16.21,0,0,1,6,6.52,23.68,23.68,0,0,1,0,19.89,16.12,16.12,0,0,1-6,6.51A16.47,16.47,0,0,1,208.94,212.5Zm0-5.81a9.62,9.62,0,0,0,5.3-1.5,10.17,10.17,0,0,0,3.7-4.38,19.08,19.08,0,0,0,0-14.1,10.18,10.18,0,0,0-3.7-4.4,10.15,10.15,0,0,0-10.62,0,10.18,10.18,0,0,0-3.7,4.4,19.08,19.08,0,0,0,0,14.1,10.17,10.17,0,0,0,3.7,4.38A9.66,9.66,0,0,0,208.94,206.69Z"/><path class="cls-1" d="M243.48,197.38a3.79,3.79,0,0,1-3.81-3.81,3.64,3.64,0,0,1,1.11-2.7,4,4,0,0,1,5.44,0,3.86,3.86,0,0,1,0,5.4A3.72,3.72,0,0,1,243.48,197.38Zm-2.83-11.11-.51-25.71h6.69l-.52,25.71Z"/></g></g></svg>