<svg xmlns="http://www.w3.org/2000/svg" viewBox="0 0 421.23 56.68"><defs><style>.cls-1{fill:#004632;}</style></defs><g id="圖層_2" data-name="圖層 2"><g id="text"><path class="cls-1" d="M0,6.29H15.8v.46H0Zm3.82-6,.52.12a17.41,17.41,0,0,1-.93,2A20.73,20.73,0,0,1,2.29,4.09,11.83,11.83,0,0,1,1,5.59L.92,5.5.73,5.39.56,5.3A11.35,11.35,0,0,0,2.41,3,16.42,16.42,0,0,0,3.82.24ZM2.41,8.81h11v6h-.49V9.28H2.92v5.56H2.41Zm.34,4.51H13.16v.47H2.75ZM2.81,2.58H14.26V3H2.81ZM7.94,0h.52V6.51H7.94Z"/><path class="cls-1" d="M23.94,5.41h.54c0,.85-.13,1.72-.25,2.61a18,18,0,0,1-.54,2.57,9.9,9.9,0,0,1-1,2.3,6,6,0,0,1-1.61,1.77,1,1,0,0,0-.21-.15l-.22-.11a5.65,5.65,0,0,0,1.58-1.72,9.32,9.32,0,0,0,1-2.26,18.58,18.58,0,0,0,.5-2.51C23.82,7.05,23.9,6.22,23.94,5.41ZM21.8.75h6.84v5H21.8Zm.52.46v4h5.8v-4ZM24,7.87h4.37v.47H24Zm4.19,0h.53v.31c-.08,1.4-.15,2.52-.23,3.35a14.74,14.74,0,0,1-.27,1.88,1.86,1.86,0,0,1-.4.86.8.8,0,0,1-.39.24,3.82,3.82,0,0,1-.59.07h-.95c-.42,0-.86,0-1.31-.07,0-.06,0-.14-.06-.22a.64.64,0,0,0-.12-.25c.52.05,1,.08,1.44.09h.9l.39,0a.42.42,0,0,0,.25-.14,1.54,1.54,0,0,0,.34-.8A18,18,0,0,0,28,11.31c.08-.83.15-1.94.22-3.32ZM31,1.93h.52v8.79H31ZM35.52.29h.54V13.72a.89.89,0,0,1-.16.58.91.91,0,0,1-.47.23,6.76,6.76,0,0,1-1,.08H32.51l-.06-.13-.09-.17a.56.56,0,0,0-.1-.15h2.79a.61.61,0,0,0,.36-.11.39.39,0,0,0,.11-.31Z"/><path class="cls-1" d="M45.94,7.86h.12l.13,0L46.5,8A11.45,11.45,0,0,1,45,12.1a8.33,8.33,0,0,1-2.52,2.56l-.12-.14-.15-.13a.44.44,0,0,0-.15-.1,7.82,7.82,0,0,0,2.47-2.43A10.22,10.22,0,0,0,45.94,8Zm-3.58.68a.83.83,0,0,0-.09-.2,1.63,1.63,0,0,1-.11-.23.79.79,0,0,0-.11-.19,2.66,2.66,0,0,0,.39-.14,1.55,1.55,0,0,0,.4-.31,7.88,7.88,0,0,0,.62-.67l.88-1.07c.31-.38.6-.76.87-1.11s.48-.64.62-.85v0l.25-.11.47.23c-.22.26-.47.59-.77,1L44.82,6c-.33.4-.67.79-1,1.15s-.62.68-.87.94l-.3.16-.2.14A.21.21,0,0,0,42.36,8.54Zm-.17-4.83h4.07V4.2H42.19Zm.17,4.83V8.07l.52-.21h3.29v.47H43.4a3.4,3.4,0,0,0-.67.06A.77.77,0,0,0,42.36,8.54ZM43,.4l.43-.19c.27.27.54.56.82.87s.55.6.8.89a8.88,8.88,0,0,1,.6.75L45.25,3a9.07,9.07,0,0,0-.61-.79l-.79-.92Q43.43.79,43,.4ZM45,11.52a4,4,0,0,0,1.69,1.55,7.91,7.91,0,0,0,2.57.67c1,.1,2.16.16,3.46.16l2,0,2-.05,1.81-.09a.74.74,0,0,0-.1.16,1.46,1.46,0,0,0-.07.19c0,.07,0,.13,0,.18l-1.7.07-2,0H52.71c-1.06,0-2,0-2.87-.1a12.54,12.54,0,0,1-2.26-.37,5.63,5.63,0,0,1-1.73-.8,4.59,4.59,0,0,1-1.26-1.36ZM48.85,1.07h.53V4.88q0,.86-.09,1.83a14,14,0,0,1-.34,2,9.16,9.16,0,0,1-.72,2A7.23,7.23,0,0,1,47,12.46a.33.33,0,0,0-.11-.13l-.16-.12a.29.29,0,0,0-.14-.08,7.27,7.27,0,0,0,1.21-1.72,8.91,8.91,0,0,0,.7-1.88,13,13,0,0,0,.31-1.9c.06-.62.08-1.2.08-1.75Zm0-.19h9v.46h-9Zm7.58,3.58h.11l.11,0,.3.15a11.45,11.45,0,0,1-1.84,3.66,13.2,13.2,0,0,1-2.75,2.69,14,14,0,0,1-3.13,1.72.74.74,0,0,0-.13-.22,1.13,1.13,0,0,0-.19-.19,12.67,12.67,0,0,0,2.3-1.1,11.81,11.81,0,0,0,2.17-1.68,12.48,12.48,0,0,0,1.81-2.2,10.68,10.68,0,0,0,1.24-2.67Zm-7.32,0h7.56v.48H49.11Zm1.53,2L51,6.17c.63.45,1.26.92,1.9,1.44s1.26,1,1.86,1.57,1.15,1.05,1.65,1.55a17.58,17.58,0,0,1,1.25,1.37l-.45.29A16.64,16.64,0,0,0,56,11c-.49-.51-1-1-1.63-1.58s-1.21-1.06-1.86-1.58S51.26,6.86,50.64,6.43Z"/><path class="cls-1" d="M63.73,5.23l.34-.32c.32.14.63.3,1,.48s.63.36.93.54a5.25,5.25,0,0,1,.71.52l-.35.39a5.07,5.07,0,0,0-.7-.53c-.29-.19-.59-.38-.92-.57S64,5.38,63.73,5.23Zm.43,8.9c.26-.44.53-1,.82-1.55s.59-1.23.89-1.9.57-1.29.8-1.88l.43.29c-.22.57-.47,1.18-.75,1.82s-.57,1.27-.85,1.88-.57,1.16-.83,1.66ZM64.36.7l.33-.34c.32.15.65.32,1,.52l1,.59c.3.2.54.38.74.54l-.33.39a6.64,6.64,0,0,0-.75-.56l-1-.61A9.54,9.54,0,0,0,64.36.7Zm3.13,10.22h6.68v.47H67.49ZM67.89,2H74.1v.49H67.89Zm.5,2.22h5.1v5h-5.1Zm.53.49V6.45h4V4.7Zm0,2.22V8.7h4V6.92ZM70.63,0h.54V4.42h-.54Zm0,8.81h.54V14.6h-.54ZM75.14.66h.54V7c0,.59,0,1.22-.07,1.89a14,14,0,0,1-.29,2,9.56,9.56,0,0,1-.64,2,6.75,6.75,0,0,1-1.16,1.75.27.27,0,0,0-.11-.1l-.16-.1-.16-.08A6.54,6.54,0,0,0,74.46,12,11.47,11.47,0,0,0,75,9.45c.08-.87.12-1.69.12-2.45Zm.22,0h3.91v.47H75.36Zm0,3.88h3.91V5H75.36Zm0,4h3.91V9H75.36ZM78.91.66h.52V13.77a1,1,0,0,1-.11.51.58.58,0,0,1-.4.23,4.73,4.73,0,0,1-.83.09H76.66a1,1,0,0,0-.07-.15,1.59,1.59,0,0,1-.08-.18.76.76,0,0,0-.09-.18l1.36,0h.77a.58.58,0,0,0,.28-.08.33.33,0,0,0,.08-.26Z"/><path class="cls-1" d="M85.28,5l.27-.37c.35.13.7.28,1.07.46s.71.37,1,.56a9.12,9.12,0,0,1,.78.55l-.27.42A7.94,7.94,0,0,0,87.37,6c-.33-.2-.67-.39-1-.57S85.63,5.11,85.28,5Zm.52,8.91c.29-.42.6-.92,1-1.51s.69-1.21,1-1.86.67-1.27,1-1.86l.36.32c-.27.57-.58,1.16-.92,1.79s-.67,1.25-1,1.86-.67,1.14-1,1.62ZM86.23.57l.29-.36c.35.14.71.31,1.08.49s.72.39,1.05.6a5.38,5.38,0,0,1,.8.58l-.27.44a4.74,4.74,0,0,0-.8-.61c-.33-.21-.68-.42-1-.62A12.06,12.06,0,0,0,86.23.57Zm4.9,10.92.43.19c-.23.45-.51,1-.85,1.5a6.64,6.64,0,0,1-1.15,1.38l-.43-.24a5.06,5.06,0,0,0,.81-.85,9.52,9.52,0,0,0,.68-1Zm-1-3.1A1.2,1.2,0,0,0,90,8.12a2.54,2.54,0,0,0-.11-.26,1.13,1.13,0,0,0,.32-.13,2.25,2.25,0,0,0,.31-.26A5.58,5.58,0,0,0,91,7q.28-.32.63-.75a5.2,5.2,0,0,0,.57-.9l.56.23a11.89,11.89,0,0,1-1,1.36,9.83,9.83,0,0,1-1.08,1.07v0l-.25.09a.7.7,0,0,0-.18.11A.17.17,0,0,0,90.08,8.39Zm.09,2.53a1.35,1.35,0,0,0-.07-.27,1.24,1.24,0,0,0-.12-.28,1.06,1.06,0,0,0,.47-.19A4.73,4.73,0,0,0,91,9.75c.14-.12.39-.33.73-.65s.72-.7,1.12-1.14A16.81,16.81,0,0,0,94,6.63l.56.25c-.63.73-1.26,1.41-1.91,2.05a15.64,15.64,0,0,1-1.94,1.65h0l-.26.1a.78.78,0,0,0-.18.11A.15.15,0,0,0,90.17,10.92Zm-.09-2.53V8l.42-.18,2.86-.14c0,.06,0,.14,0,.23a1.35,1.35,0,0,0,0,.22l-2,.13-.92.08A1.64,1.64,0,0,0,90.08,8.39Zm.09,2.53V10.5l.42-.21,3.9-.34a1.55,1.55,0,0,0,0,.23v.22l-2.17.21-1.25.14c-.29,0-.5.07-.62.1A1.68,1.68,0,0,0,90.17,10.92ZM90.55.58H100v4.6H90.55Zm.54.47V2.62h8.34V1.05Zm0,2.06v1.6h8.34V3.11Zm2.29,8.6.47-.08a11.57,11.57,0,0,1,.43,1.43,9.55,9.55,0,0,1,.23,1.33l-.5.09a11.1,11.1,0,0,0-.23-1.34A11.7,11.7,0,0,0,93.38,11.71Zm0-2.75.45-.18a7.88,7.88,0,0,1,.74,1.13A8.28,8.28,0,0,1,95.11,11l-.47.21a7.77,7.77,0,0,0-.51-1.1A8,8,0,0,0,93.41,9Zm2.24-.5c0-.07,0-.16-.08-.27a2,2,0,0,0-.1-.27.86.86,0,0,0,.3-.12,2,2,0,0,0,.33-.25c.08-.08.22-.22.4-.42a8.66,8.66,0,0,0,.6-.74,5.56,5.56,0,0,0,.56-.87l.58.23c-.34.46-.68.91-1,1.32a8,8,0,0,1-1,1h0a1.42,1.42,0,0,0-.26.1l-.18.1A.15.15,0,0,0,95.65,8.46ZM95.74,11c0-.06,0-.15-.08-.27a1.73,1.73,0,0,0-.1-.28,1.08,1.08,0,0,0,.46-.18,6.14,6.14,0,0,0,.58-.43c.16-.12.41-.34.76-.66s.73-.7,1.14-1.13.79-.89,1.14-1.34l.54.26c-.62.72-1.26,1.41-1.92,2.05a15.07,15.07,0,0,1-2,1.64v0a1.18,1.18,0,0,0-.27.1.67.67,0,0,0-.19.1A.14.14,0,0,0,95.74,11Zm-.09-2.52V8l.43-.18,2.86-.15c0,.07,0,.14,0,.24a1.22,1.22,0,0,0,0,.21l-2,.13c-.44,0-.75.06-.92.09A1.08,1.08,0,0,0,95.65,8.46ZM95.74,11v-.43l.45-.2,4.24-.39a2,2,0,0,0,0,.25,1.28,1.28,0,0,0,0,.22l-2.36.24-1.36.13-.67.09Zm.37.73.44-.13a14,14,0,0,1,.79,1.4,11,11,0,0,1,.56,1.29l-.49.16a8.21,8.21,0,0,0-.52-1.32A14,14,0,0,0,96.11,11.71Zm2.83-.19.41-.18a13,13,0,0,1,.86,1c.28.37.54.73.77,1.08a6.65,6.65,0,0,1,.55,1l-.45.2a8.39,8.39,0,0,0-.54-1c-.23-.36-.48-.72-.76-1.09S99.22,11.83,98.94,11.52ZM99.3,9l.43-.2a9.78,9.78,0,0,1,.88,1.18,8.38,8.38,0,0,1,.62,1.11l-.47.23a7.11,7.11,0,0,0-.6-1.14A10,10,0,0,0,99.3,9Z"/><path class="cls-1" d="M107.54.78h.54V14.63h-.54Zm.31,2.28h5.58v.47h-5.58Zm0-2.28h5.84V5.93h-5.84V5.46h5.31V1.25h-5.31ZM110.78,9l.45.12a10.74,10.74,0,0,1-.35,1.38,7.6,7.6,0,0,1-.57,1.34,3.47,3.47,0,0,1-.86,1.07l-.41-.26A4.23,4.23,0,0,0,110.18,11,10,10,0,0,0,110.78,9Zm2-.32h.54V13c0,.17,0,.29.13.34a1.33,1.33,0,0,0,.61.08h2.28a.6.6,0,0,0,.43-.13.88.88,0,0,0,.18-.54c0-.28.06-.69.08-1.26a.42.42,0,0,0,.16.09l.19.07a.49.49,0,0,1,.17.06,7.27,7.27,0,0,1-.12,1.35,1,1,0,0,1-.33.65,1.15,1.15,0,0,1-.7.18h-2.34a3.86,3.86,0,0,1-.77-.06.59.59,0,0,1-.39-.26,1.1,1.1,0,0,1-.12-.57Zm0-1.93.35-.31c.39.17.8.35,1.22.57s.81.44,1.17.67a5.76,5.76,0,0,1,.86.66l-.34.37a8.13,8.13,0,0,0-.87-.66c-.35-.24-.74-.47-1.15-.7A12.74,12.74,0,0,0,112.83,6.77Zm8.9-6v.47h-5.48V5.46h5.48v.47h-6V.78Zm-5.64,2.28h5.65v.47h-5.65Zm1.41,6,.43-.17a9.82,9.82,0,0,1,1,1.11,10.79,10.79,0,0,1,.83,1.2,5.66,5.66,0,0,1,.53,1.09l-.47.22a6.37,6.37,0,0,0-.51-1.08,13.72,13.72,0,0,0-.82-1.22A12.62,12.62,0,0,0,117.5,9.1Zm4-8.32h.54V13.71a.94.94,0,0,1-.14.54.73.73,0,0,1-.44.26,5,5,0,0,1-1,.08h-1.68s0-.1,0-.16a1.34,1.34,0,0,0-.07-.18.77.77,0,0,0-.1-.18h2.52a.53.53,0,0,0,.3-.09.38.38,0,0,0,.08-.27Z"/><path class="cls-1" d="M131.46,10l-.24-.4a4.7,4.7,0,0,0,1.65-1.2,2.82,2.82,0,0,0,.57-1.83l-.54-1.14.95,1a.83.83,0,0,1-.4.31,1.72,1.72,0,0,1-.44.06,1.19,1.19,0,0,1-.71-.2.78.78,0,0,1-.27-.66.76.76,0,0,1,.3-.67A1.19,1.19,0,0,1,133,5a1,1,0,0,1,.84.41,1.82,1.82,0,0,1,.29,1.09,3.12,3.12,0,0,1-.75,2.12A4.49,4.49,0,0,1,131.46,10Z"/><path class="cls-1" d="M150,9.49h.56a6.77,6.77,0,0,1-.8,2,4.73,4.73,0,0,1-1.43,1.46,8.34,8.34,0,0,1-2.28,1,20,20,0,0,1-3.36.66.53.53,0,0,0-.06-.14l-.1-.17-.11-.13a20.5,20.5,0,0,0,3.29-.61,7.9,7.9,0,0,0,2.2-1,4.58,4.58,0,0,0,1.36-1.34A5.68,5.68,0,0,0,150,9.49Zm-6.55,1h13.19v.47H143.48Zm.19-9.73h12.08V1.2H143.67Zm.47,2.91h12.17v.49H144.68V9.54h-.54Zm.29,1.85h11.83V6H144.43Zm0,1.88h11.83v.47H144.43Zm2.23-5,.24-.42c.57.05,1.18.13,1.81.22s1.25.21,1.87.33,1.19.25,1.73.39,1,.28,1.41.42l-.2.47c-.4-.14-.86-.28-1.4-.42s-1.12-.28-1.74-.4-1.25-.24-1.88-.34S147.25,2.41,146.66,2.35Zm3.42,1.46h.54V9.09h-.54ZM155.63.73h.14l.14,0,.42.29a11.36,11.36,0,0,1-1.6.79c-.62.25-1.25.47-1.89.67s-1.28.37-1.88.51a.81.81,0,0,0-.16-.17,2.61,2.61,0,0,0-.2-.17c.59-.13,1.2-.29,1.82-.47s1.22-.4,1.78-.63a9.64,9.64,0,0,0,1.43-.68Zm.81,9.73H157c0,.15,0,.24,0,.3-.11.76-.22,1.39-.33,1.88a5.42,5.42,0,0,1-.34,1.12,1.65,1.65,0,0,1-.41.59,1.14,1.14,0,0,1-.4.19,2.16,2.16,0,0,1-.57.06h-1c-.46,0-.95,0-1.48-.09a1.89,1.89,0,0,0-.06-.21,1.34,1.34,0,0,0-.12-.24l1.59.09,1,0a2.7,2.7,0,0,0,.45,0,.52.52,0,0,0,.25-.11,1.8,1.8,0,0,0,.52-1,19.13,19.13,0,0,0,.44-2.49ZM156,3.64h.52V8.86a.8.8,0,0,1-.09.41.62.62,0,0,1-.36.22,3.82,3.82,0,0,1-.83.08h-1.52a1.52,1.52,0,0,0-.08-.22,1.87,1.87,0,0,1-.12-.25l1,0h1.16a.55.55,0,0,0,.26-.07.25.25,0,0,0,.06-.19Z"/><path class="cls-1" d="M164.63,7.24l.57,0a25.36,25.36,0,0,1-.28,2.93,11.77,11.77,0,0,1-.6,2.44,6.79,6.79,0,0,1-1.08,2,.33.33,0,0,0-.12-.11l-.18-.12a.65.65,0,0,0-.15-.1,5.67,5.67,0,0,0,1.06-1.86A10.84,10.84,0,0,0,164.4,10C164.52,9.17,164.59,8.24,164.63,7.24ZM163.3,5.51h8.91V6H163.3Zm.55-3.24h7.73v.47h-7.73ZM165,9.44a6.82,6.82,0,0,0,.94,2.1,4.11,4.11,0,0,0,1.44,1.31,6.8,6.8,0,0,0,2.11.66,18.8,18.8,0,0,0,2.91.2h7a.36.36,0,0,0-.11.13,1.62,1.62,0,0,0-.1.18.77.77,0,0,0-.06.15h-6.72a20.6,20.6,0,0,1-3.16-.21,6.72,6.72,0,0,1-2.23-.71,4.24,4.24,0,0,1-1.51-1.38,7.83,7.83,0,0,1-1-2.23ZM167.45,0H168V5.65h-.54Zm.09,5.9h.54v7.51h-.54Zm.27,2.78h3.84v.47h-3.84Zm6-8.68h.53V12.65h-.53Zm.36,4.49.38-.29c.55.28,1.12.6,1.7,1s1.13.73,1.65,1.09a11.08,11.08,0,0,1,1.26,1l-.41.34a11.53,11.53,0,0,0-1.24-1c-.51-.36-1-.73-1.64-1.11S174.76,4.78,174.2,4.49Z"/><path class="cls-1" d="M189.93.13l.48.11A21.36,21.36,0,0,1,188.91,3a23.09,23.09,0,0,1-1.83,2.46,17.92,17.92,0,0,1-2.05,2,.57.57,0,0,0-.11-.12.93.93,0,0,0-.14-.14l-.14-.11a17.64,17.64,0,0,0,2-2,19.78,19.78,0,0,0,1.82-2.39A19.26,19.26,0,0,0,189.93.13ZM187.8,4.07l.53-.49v11h-.53Zm1.77,3h11.68v.47H189.57Zm.61,6.32h10.66v.47H190.18ZM191,1.6h9.47v.47H191Zm4.28.26h.53V13.72h-.53Z"/><path class="cls-1" d="M211,.06l.52.12a22.85,22.85,0,0,1-1.21,2.61,22,22,0,0,1-1.48,2.4,18.26,18.26,0,0,1-1.67,2l-.11-.12L207,7a.6.6,0,0,0-.14-.11,15.83,15.83,0,0,0,1.64-1.93,20.75,20.75,0,0,0,1.44-2.33A21.94,21.94,0,0,0,211,.06ZM209.27,4l.51-.46,0,0V14.6h-.54Zm2.54-2.2H223.1v.47H211.81Zm.85,3.28h.52v6.52h-.52Zm.28,0h5v5.32h-5V9.88h4.47V5.54h-4.47ZM221,1.94h.52v11.6a1,1,0,0,1-.17.65,1.09,1.09,0,0,1-.59.28,11,11,0,0,1-1.28.07h-2.28a1.08,1.08,0,0,0-.08-.26A1.51,1.51,0,0,0,217,14l1.56,0h1.23l.73,0a.71.71,0,0,0,.41-.1.5.5,0,0,0,.1-.35Z"/><path class="cls-1" d="M227.82,9l2.38-.77,2.91-1,0,.49-2.72.91L228,9.51ZM228,3.47h5.2V4H228ZM230.64,0h.54V13.83a.72.72,0,0,1-.12.47.7.7,0,0,1-.38.21,3.34,3.34,0,0,1-.71.09h-1.32a.88.88,0,0,0-.09-.21,2,2,0,0,0-.13-.25l1.21,0,.68,0a.38.38,0,0,0,.24-.06.3.3,0,0,0,.08-.25Zm6,0h.54V7.27a16.12,16.12,0,0,1-.15,2.27,6.4,6.4,0,0,1-.61,2,5.56,5.56,0,0,1-1.35,1.68,9.35,9.35,0,0,1-2.35,1.4l-.09-.12-.12-.14-.13-.11a9,9,0,0,0,2.27-1.33,5.1,5.1,0,0,0,1.27-1.6,6.09,6.09,0,0,0,.58-1.87,16.18,16.18,0,0,0,.14-2.15Zm-4,10.16c.53-.29,1.16-.66,1.91-1.12l2.28-1.42.18.4L235,9.42,233,10.63Zm.84-8.07L234,2a10.52,10.52,0,0,1,.84,1.19,12,12,0,0,1,.67,1.27,5,5,0,0,1,.4,1.14l-.5.19A6.25,6.25,0,0,0,235,4.62a11.87,11.87,0,0,0-.65-1.28A10.09,10.09,0,0,0,233.52,2.15ZM239.75.06h.52V13.22a.79.79,0,0,0,.14.55.86.86,0,0,0,.58.13h2.22a.41.41,0,0,0,.39-.21,2,2,0,0,0,.19-.77c0-.37.07-.89.08-1.56l.27.16.27.1a14.94,14.94,0,0,1-.12,1.66,1.47,1.47,0,0,1-.34.85,1,1,0,0,1-.76.26H241a2.54,2.54,0,0,1-.76-.1.66.66,0,0,1-.38-.35,1.77,1.77,0,0,1-.12-.74Zm.36,7.42.36-.32c.46.32.93.68,1.41,1.06s1,.75,1.37,1.11.77.67,1,.92l-.42.39q-.41-.41-1.05-1l-1.35-1.14C241,8.15,240.54,7.8,240.11,7.48Zm3.3-5.65.52.24c-.23.39-.49.81-.78,1.24s-.58.86-.88,1.27-.58.78-.84,1.09L241,5.44c.26-.31.55-.68.85-1.1s.58-.85.85-1.3S243.21,2.19,243.41,1.83Z"/><path class="cls-1" d="M249.91,11.34h9.15v.49h-9.15ZM250.56.58H254v3h-3.42Zm.13,4.13h7.68V9.85h-7.68Zm.41-3.66V3.13h2.34V1.05Zm.13,4.13V7h6.6V5.18Zm0,2.32V9.38h6.6V7.5Zm3-2.59h.54v9.72h-.54V4.91ZM255,.58h3.51v3H255Zm.54.47V3.13H258V1.05Zm9.34,4.88.47.23a16,16,0,0,1-1.76,3.37,16.36,16.36,0,0,1-2.53,2.9A12.08,12.08,0,0,1,258,14.48a1.63,1.63,0,0,0-.19-.21,1.74,1.74,0,0,0-.22-.18,11.63,11.63,0,0,0,3.09-2,15.39,15.39,0,0,0,2.52-2.87A15.12,15.12,0,0,0,264.91,5.93ZM258.61,5l7.54-.84.09.44-7.54.86ZM260.7.13h.52c.06,1.51.16,3,.29,4.34s.32,2.66.54,3.82a20.16,20.16,0,0,0,.77,3.05,7.22,7.22,0,0,0,1,2,1.68,1.68,0,0,0,1.25.77c.23,0,.42-.22.58-.71a9.62,9.62,0,0,0,.37-2.06l.15.08.18.07.14.06a10.87,10.87,0,0,1-.32,1.83,2.62,2.62,0,0,1-.47,1,.77.77,0,0,1-.61.29,2.12,2.12,0,0,1-1.56-.81,6.65,6.65,0,0,1-1.16-2.15,21,21,0,0,1-.83-3.19c-.23-1.22-.41-2.54-.55-4S260.77,1.66,260.7.13Zm2.12.47.41-.26a10,10,0,0,1,1,.87c.33.32.62.63.89.94a6.14,6.14,0,0,1,.63.86l-.44.31a5.33,5.33,0,0,0-.62-.87,13.15,13.15,0,0,0-.89-1A12.67,12.67,0,0,0,262.82.6Z"/><path class="cls-1" d="M276.63,5a2.69,2.69,0,0,1,1.3.31,2.57,2.57,0,0,1,.92.84,2,2,0,0,1,.35,1.16,2,2,0,0,1-.35,1.16,2.57,2.57,0,0,1-.92.84,2.78,2.78,0,0,1-2.59,0,2.52,2.52,0,0,1-.93-.84,2,2,0,0,1-.35-1.16,2,2,0,0,1,.35-1.16,2.52,2.52,0,0,1,.93-.84A2.67,2.67,0,0,1,276.63,5Zm0,4.14a2.12,2.12,0,0,0,1.44-.53,1.67,1.67,0,0,0,.59-1.3,1.62,1.62,0,0,0-.27-.91,2,2,0,0,0-.73-.67,2.14,2.14,0,0,0-2.79.67,1.62,1.62,0,0,0-.27.91,1.71,1.71,0,0,0,.27.93,2,2,0,0,0,.74.66A2.19,2.19,0,0,0,276.63,9.15Z"/><path class="cls-1" d="M187.58,52.27h16.06v.47H187.58ZM193,53.38l.6.22A15,15,0,0,1,192,54.7c-.59.37-1.21.72-1.84,1s-1.23.61-1.82.86l-.16-.19a1.46,1.46,0,0,0-.2-.18c.58-.24,1.19-.52,1.82-.84s1.23-.65,1.8-1A10.33,10.33,0,0,0,193,53.38Zm-.56-11.23.4.4c-.48.23-1,.45-1.65.68l-1.77.6a.53.53,0,0,0-.09-.19l-.13-.21c.56-.19,1.13-.39,1.74-.63A14.73,14.73,0,0,0,192.44,42.15Zm-3.24,1.28.56.16.36,8.93h-.52Zm.38,2.62h3.1v.47h-3.1Zm.11,3.08h3v.47h-3Zm5.08-.87.52.08a11.31,11.31,0,0,1-.55,1.77,7.07,7.07,0,0,1-.8,1.48l-.23-.13-.26-.13a5.17,5.17,0,0,0,.82-1.41A10.58,10.58,0,0,0,194.77,48.26Zm-.9-6.13h.52v4.64h2.75v.47h-3.27ZM194.1,44h3.42v.49H194.1Zm2.81,2.77h.52v4.51a.76.76,0,0,1-.07.37.6.6,0,0,1-.31.21,3.19,3.19,0,0,1-.66.08l-1.1,0a1.09,1.09,0,0,0-.07-.24,1.14,1.14,0,0,0-.15-.23h1.6a.27.27,0,0,0,.19,0,.23.23,0,0,0,0-.16Zm.74,6.9.28-.3c.66.28,1.32.58,2,.91s1.27.66,1.85,1a16.88,16.88,0,0,1,1.51.94l-.36.34c-.42-.29-.91-.6-1.48-.92s-1.18-.66-1.82-1S198.31,54,197.65,53.68ZM198.42,43h3.35v.47h-3.35Zm.07,6.28h3.1v.47h-3.1Zm.06-3.11h3.18v.47h-3.18Zm3-3.17h.53c0,.73,0,1.54-.05,2.4s0,1.75-.07,2.62-.06,1.7-.1,2.49-.07,1.46-.11,2h-.52c0-.57.07-1.25.12-2s.07-1.63.1-2.51.06-1.76.08-2.62S201.53,43.68,201.53,43Z"/><path class="cls-1" d="M213.62,55.71a4.49,4.49,0,0,1-2.18-.54,3.91,3.91,0,0,1-1.57-1.53,4.63,4.63,0,0,1-.59-2.39,5,5,0,0,1,.34-1.88,4.15,4.15,0,0,1,.92-1.41,3.75,3.75,0,0,1,1.31-.9,4.07,4.07,0,0,1,3.42.14,3,3,0,0,1,1.24,1.34,4.68,4.68,0,0,1,.44,2.15V51a2,2,0,0,1,0,.32H210a4.24,4.24,0,0,0,.46,2,3.44,3.44,0,0,0,1.28,1.39,3.66,3.66,0,0,0,1.95.51A4.55,4.55,0,0,0,215.1,55a5.26,5.26,0,0,0,1.17-.56l.29.5a11.47,11.47,0,0,1-1.21.55A4.89,4.89,0,0,1,213.62,55.71Zm-3.65-5h6.35a3.66,3.66,0,0,0-.81-2.59,2.81,2.81,0,0,0-2.14-.86,3.14,3.14,0,0,0-1.58.42,3.38,3.38,0,0,0-1.23,1.18A4.21,4.21,0,0,0,210,50.73Z"/><path class="cls-1" d="M224.51,55.5V44.27H220.3v-.53h9.13v.53h-4.21V55.5Z"/><path class="cls-1" d="M235.38,55.5V43.74h.67V55.5Z"/><path class="cls-1" d="M243.21,55.5V43.74h.71l5.76,8.57,1.49,2.31h.09c0-.57-.06-1.13-.08-1.67s0-1.1,0-1.65V43.74h.65V55.5h-.72l-5.74-8.57-1.5-2.32h-.07c0,.55,0,1.09.06,1.6s0,1.06,0,1.62V55.5Z"/><path class="cls-1" d="M259,55.5V43.74h3.15a9,9,0,0,1,2.54.31,3.15,3.15,0,0,1,1.59,1,3,3,0,0,1,.55,1.88,3.1,3.1,0,0,1-.54,1.88,3.2,3.2,0,0,1-1.57,1.12,7.32,7.32,0,0,1-2.5.37h-2.56V55.5Zm.66-5.72H262a5.79,5.79,0,0,0,3.1-.66,2.39,2.39,0,0,0,1-2.18,2.19,2.19,0,0,0-1-2.1,6.77,6.77,0,0,0-3.16-.57h-2.25Z"/><path class="cls-1" d="M277.71,55.71A5.07,5.07,0,0,1,275,55a5.17,5.17,0,0,1-1.88-2.14,7.12,7.12,0,0,1-.68-3.23,7,7,0,0,1,.68-3.21,5.12,5.12,0,0,1,1.88-2.1,5.46,5.46,0,0,1,5.49,0,5.12,5.12,0,0,1,1.88,2.1,7,7,0,0,1,.69,3.21,7.12,7.12,0,0,1-.69,3.23A5.17,5.17,0,0,1,280.45,55,5.06,5.06,0,0,1,277.71,55.71Zm0-.57a4.27,4.27,0,0,0,2.42-.69,4.59,4.59,0,0,0,1.61-1.93,7,7,0,0,0,.57-2.94,6.87,6.87,0,0,0-.57-2.91,4.53,4.53,0,0,0-1.61-1.91,4.71,4.71,0,0,0-4.84,0,4.55,4.55,0,0,0-1.62,1.91,6.87,6.87,0,0,0-.57,2.91,7,7,0,0,0,.57,2.94,4.61,4.61,0,0,0,1.62,1.93A4.29,4.29,0,0,0,277.71,55.14Z"/><path class="cls-1" d="M290,42.91h.54v4.7c0,.66,0,1.37-.07,2.14s-.15,1.56-.28,2.37a14.91,14.91,0,0,1-.62,2.36,9.1,9.1,0,0,1-1.12,2.14l-.14-.09-.16-.09a.34.34,0,0,0-.15-.07,8.36,8.36,0,0,0,1.08-2.1,14,14,0,0,0,.59-2.29,18.52,18.52,0,0,0,.26-2.28c.05-.75.07-1.44.07-2.09Zm.27,0H303V46.1H290.23v-.48h12.24V43.38H290.23ZM290.7,51h13.51v.48H290.7Zm.63-2.76h12.24v.47H291.33Zm1.29,8.3a.48.48,0,0,0-.08-.16l-.13-.18-.11-.15a2.43,2.43,0,0,0,.53-.31.78.78,0,0,0,.31-.68v-3.8h.56v4.54l-.38.19-.32.18a1.57,1.57,0,0,0-.27.19C292.66,56.47,292.62,56.52,292.62,56.57Zm0,0,0-.47.42-.31,5.42-1.2a2,2,0,0,0,0,.24c0,.08,0,.14,0,.18l-3,.75c-.75.18-1.32.32-1.7.43l-.8.23A1.4,1.4,0,0,0,292.62,56.57Zm1.84-10H295v4.86h-.52Zm2.75,4.61a7.63,7.63,0,0,0,2.73,3.26,11.49,11.49,0,0,0,4.44,1.81,1,1,0,0,0-.21.2.83.83,0,0,0-.15.21,11.92,11.92,0,0,1-4.47-1.94,8.26,8.26,0,0,1-2.81-3.39Zm5.29.7.42.29a14.49,14.49,0,0,1-1.71,1.1c-.65.37-1.26.69-1.82,1l-.34-.28c.36-.18.75-.39,1.18-.63s.84-.48,1.24-.73S302.22,52.12,302.5,51.9Zm-3-5.31h.54v4.79h-.54Z"/><path class="cls-1" d="M310.37,42.81h.54V56.66h-.54Zm.3,2.29h5.58v.47h-5.58Zm0-2.29h5.83V48h-5.83v-.47H316V43.28h-5.31ZM312.6,52h10v.49h-10Zm2.7-2.59h.52v2.8a4.72,4.72,0,0,1-.1.89,5.28,5.28,0,0,1-1.14,2.37,5.11,5.11,0,0,1-1.31,1.08l-.19-.18a1.5,1.5,0,0,0-.23-.17,4.7,4.7,0,0,0,1.57-1.33,4.52,4.52,0,0,0,.7-1.46,5.13,5.13,0,0,0,.18-1.2Zm-2.3-.18h9.14v.47H313Zm11.55-6.37v.47h-5.47v4.21h5.47V48h-6V42.81Zm-5.63,2.29h5.65v.47h-5.65Zm.27,4.23h.54v7h-.54Zm5.16-6.52h.54V55.74a.9.9,0,0,1-.13.54.73.73,0,0,1-.44.27,5.43,5.43,0,0,1-1,.07h-1.68a1.55,1.55,0,0,1,0-.15c0-.06-.05-.12-.08-.19l-.09-.18,1.59,0,.93,0a.47.47,0,0,0,.29-.09.31.31,0,0,0,.08-.26Z"/><path class="cls-1" d="M338.7,42.42l.41.26a16.42,16.42,0,0,1-1.6,1.7c-.62.59-1.29,1.16-2,1.73s-1.43,1.09-2.16,1.58-1.43.9-2.09,1.25a1,1,0,0,0-.17-.21.67.67,0,0,0-.2-.18A22,22,0,0,0,333,47.36c.74-.47,1.46-1,2.17-1.54s1.38-1.13,2-1.71A16.93,16.93,0,0,0,338.7,42.42Zm-7.4,13.24h15.32v.47H331.3Zm1.82-3.94h11.59v.47H333.12Zm.7-3.59h10.33v.48H333.82Zm.56-5.71h4.7v.49h-4.7Zm4.17,0h.67a14,14,0,0,0,1.6,1.8,20.21,20.21,0,0,0,2,1.66,22.64,22.64,0,0,0,2.14,1.42A17.76,17.76,0,0,0,347,48.35a1.67,1.67,0,0,1-.13.12l-.16.13a.74.74,0,0,0-.12.13,19.81,19.81,0,0,1-2.77-1.52,23.82,23.82,0,0,1-2.75-2.07,17.76,17.76,0,0,1-2.26-2.36h-.29Zm.06,5.85h.54v7.65h-.54Z"/><path class="cls-1" d="M352.65,47.62H361v.47h-8.35Zm.05,2.61h8.19v.49H352.7Zm1.95,1.67.52.11a8.9,8.9,0,0,1-.81,1.75,9.07,9.07,0,0,1-1.08,1.46,1.83,1.83,0,0,0-.22-.16,1,1,0,0,0-.25-.13,6.8,6.8,0,0,0,1.06-1.39A9.82,9.82,0,0,0,354.65,51.9Zm-1.73-8.07h7.79v.47h-7.79Zm1.39.83.48-.08a8.65,8.65,0,0,1,.57,1.38,7.13,7.13,0,0,1,.31,1.29l-.52.13a10.16,10.16,0,0,0-.84-2.72Zm1.58-2.5.5-.14a11.26,11.26,0,0,1,.73,1,5.4,5.4,0,0,1,.53,1l-.5.19a8,8,0,0,0-.54-1Q356.25,42.64,355.89,42.16Zm.68,5.66h.53v8.8h-.53Zm2.36-3.27.54.14c-.19.53-.41,1.1-.65,1.71a16.36,16.36,0,0,1-.68,1.55l-.47-.13a10.23,10.23,0,0,0,.45-1c.16-.39.31-.79.45-1.18S358.84,44.86,358.93,44.55Zm-.56,7.51.45-.16a13.77,13.77,0,0,1,.92,1.44,8.89,8.89,0,0,1,.65,1.36l-.47.2a10.26,10.26,0,0,0-.66-1.38A16.08,16.08,0,0,0,358.37,52.06Zm3.78-8.44h.53V49c0,.58,0,1.19-.07,1.83a13.5,13.5,0,0,1-.27,2,11.26,11.26,0,0,1-.6,2,7,7,0,0,1-1.06,1.75.68.68,0,0,0-.12-.12l-.15-.11a.6.6,0,0,0-.15-.09,6.76,6.76,0,0,0,1.27-2.28,11.89,11.89,0,0,0,.52-2.52c.07-.85.1-1.64.1-2.38Zm5.8-1.15.52.37a17.73,17.73,0,0,1-1.8.47q-1,.21-2.13.39l-2.17.3a.6.6,0,0,0-.08-.19,1.33,1.33,0,0,0-.14-.19c.7-.09,1.41-.2,2.14-.32s1.41-.25,2.06-.4A15.18,15.18,0,0,0,368,42.47Zm-5.54,5.15h6.37v.47h-6.37Zm3.54.17h.52v8.78H366Z"/><path class="cls-1" d="M375.08,42.81h13.21v5.11h-.54V43.28H375.6V48h-.52ZM376.43,49H387v7.6h-.52V49.42H377V56.6h-.52Zm.29,2.08h10v.48h-10Zm0,2.1h10v.47h-10Zm0,2.12h10v.49h-10ZM377,44.74h9.47v.49H377Zm.05,2.09h9.4v.47H377Z"/><path class="cls-1" d="M395.17,42.71h4v.48h-3.43V56.6h-.54Zm3.83,0h.11l.11,0,.34.23c-.29.64-.61,1.32-1,2.06s-.69,1.43-1,2.1a6.28,6.28,0,0,1,1.52,2,4.35,4.35,0,0,1,.39,1.72,3.19,3.19,0,0,1-.15,1,1.13,1.13,0,0,1-.48.67,1,1,0,0,1-.38.16l-.47.08-.62,0-.62,0s0-.12-.07-.22a1.28,1.28,0,0,0-.15-.25l.72,0h.6a1.88,1.88,0,0,0,.65-.16.88.88,0,0,0,.34-.53,3.08,3.08,0,0,0,.09-.75,4.08,4.08,0,0,0-.41-1.66,6.57,6.57,0,0,0-1.59-2c.2-.38.4-.76.59-1.14s.38-.77.56-1.14.35-.73.51-1.08.29-.66.41-1Zm3.08,9.35.54.1a7.73,7.73,0,0,1-1.5,2.62,9.49,9.49,0,0,1-2.23,1.88.44.44,0,0,0-.12-.11l-.17-.12-.16-.11a8.21,8.21,0,0,0,2.22-1.79A7.06,7.06,0,0,0,402.08,52.06ZM404.74,42l.54.13A12.15,12.15,0,0,1,403,44.52a16.22,16.22,0,0,1-3.06,2,.31.31,0,0,0-.12-.09l-.15-.09-.14-.08A15.34,15.34,0,0,0,401.68,45a13.14,13.14,0,0,0,1.78-1.47A8.37,8.37,0,0,0,404.74,42Zm-4.34,5.79h3.73v3.72H400.4Zm.54.47V51h2.67V48.26Zm.65,5.6.36-.29c.43.24.88.52,1.34.84a8,8,0,0,1,1.06.86l-.36.36a8.63,8.63,0,0,0-1.07-.89A13.24,13.24,0,0,0,401.59,53.86Zm.47-8.13h5.47v.48h-5.47Zm5.08,6.32.55.08a7.22,7.22,0,0,1-1.18,2.59,7.34,7.34,0,0,1-1.95,1.86l-.12-.09a1.09,1.09,0,0,0-.17-.13l-.16-.12A6.16,6.16,0,0,0,406,54.5,7,7,0,0,0,407.14,52.05Zm-2.43-9.51a7.51,7.51,0,0,0,1.17,1,17.4,17.4,0,0,0,1.54.92c.56.3,1.11.57,1.68.82s1.1.47,1.6.65l-.14.11-.14.12-.1.11q-1-.4-2.13-1c-.76-.38-1.49-.78-2.18-1.21a9.54,9.54,0,0,1-1.7-1.3Zm.84,5.25h3.82v3.72h-3.82Zm.52.47V51h2.78V48.26Zm.62,5.62.36-.31c.43.23.87.49,1.33.78s.88.59,1.28.88a8.8,8.8,0,0,1,.95.79l-.36.37a10.1,10.1,0,0,0-1-.8c-.39-.3-.82-.6-1.27-.9S407.12,54.12,406.69,53.88Z"/><path class="cls-1" d="M420.51,55.5a.84.84,0,0,1-.5-.17.61.61,0,0,1-.22-.51.71.71,0,0,1,.22-.55.76.76,0,0,1,.5-.2.73.73,0,0,1,.49.2.72.72,0,0,1,.23.55.62.62,0,0,1-.23.51A.81.81,0,0,1,420.51,55.5Zm-.25-3.66-.25-7V43.38h1V44.8l-.25,7Z"/></g></g></svg>