<svg xmlns="http://www.w3.org/2000/svg" viewBox="0 0 583.06 14.9"><defs><style>.cls-1{fill:#004632;}</style></defs><g id="圖層_2" data-name="圖層 2"><g id="text"><path class="cls-1" d="M0,0H5.4V.49H.54v10.1H0Z"/><path class="cls-1" d="M17.14.16l.54.13a23.52,23.52,0,0,1-1.52,3.49A19,19,0,0,1,14,7a14.09,14.09,0,0,1-3,2.65l-.09-.11-.14-.14a.5.5,0,0,0-.13-.1,14.49,14.49,0,0,0,2.24-1.88,17.75,17.75,0,0,0,1.81-2.26,20.15,20.15,0,0,0,1.41-2.47A18.26,18.26,0,0,0,17.14.16ZM11,2.92H26.46V3.4H11Zm2.63,3.8h.52v7.94h-.52Zm1.94,7.18h11v.49h-11Zm.72-6h9.54v.47H16.27Zm4.45-3.57h.52v9.81h-.52Z"/><path class="cls-1" d="M34.63,3.52l.52.11c-.12.63-.28,1.29-.47,2S34.26,7,34,7.7,33.53,9,33.26,9.59a9.69,9.69,0,0,1-.81,1.49l-.13-.14-.16-.16a.59.59,0,0,0-.16-.1,9.61,9.61,0,0,0,.79-1.42c.27-.56.52-1.16.76-1.81s.45-1.31.64-2S34.52,4.14,34.63,3.52Zm-2.25-.13h4.7v.47h-4.7ZM34.67.18h.59V14.74h-.59Zm.46,4.55c.08.1.2.27.36.52s.36.52.55.81.38.56.54.81.28.43.35.55l-.46.49c-.08-.17-.19-.38-.35-.65s-.32-.56-.5-.86-.35-.58-.51-.83-.29-.43-.39-.55Zm1.34,8.93H48.31v.47H36.47ZM37.24.81H48.06v.47H37.24ZM37.64,5H40.5v.47H38.16v6.37h-.52Zm2.62,0h.53v5.83h-2.9v-.47h2.37Zm2.58-1.49h.52v.34c0,1.54-.07,2.82-.1,3.86s-.07,1.87-.12,2.51A8.93,8.93,0,0,1,43,11.69a1.63,1.63,0,0,1-.27.69.82.82,0,0,1-.36.29,2.18,2.18,0,0,1-.52.1h-.69l-.87,0c0-.08,0-.16-.06-.25a.46.46,0,0,0-.11-.22l1,0h.65a.71.71,0,0,0,.3,0,.34.34,0,0,0,.2-.16,1.59,1.59,0,0,0,.22-.66A14.14,14.14,0,0,0,42.61,10c0-.64.08-1.48.12-2.51s.07-2.3.11-3.8ZM41.38,1h.54c-.18.5-.37,1-.58,1.59S41,3.62,40.79,4h-.56c.19-.41.39-.89.6-1.45S41.22,1.48,41.38,1Zm-.77,2.53H43V4H40.44ZM47.34,4.7h.12l.13,0,.31.12a13.79,13.79,0,0,1-1.47,4.4A8.64,8.64,0,0,1,44,12a.42.42,0,0,0-.11-.13,1.07,1.07,0,0,1-.16-.14.45.45,0,0,0-.14-.1A8.18,8.18,0,0,0,45.94,9a12.63,12.63,0,0,0,1.4-4.13Zm-3.21,0h3.44v.47H44.13Zm.09,1.8.42-.25c.47.53.93,1.11,1.4,1.73s.9,1.23,1.28,1.82a11.58,11.58,0,0,1,.88,1.59l-.45.24A13.76,13.76,0,0,0,46.86,10c-.38-.6-.79-1.21-1.25-1.83A19.4,19.4,0,0,0,44.22,6.5Z"/><path class="cls-1" d="M53.61,12.47c.78-.16,1.72-.37,2.82-.64L59.8,11l.07.47-3.24.79-2.84.7Zm0-9h6v.47h-6Zm.72,1.49.5-.08c.17.66.32,1.36.46,2.1s.26,1.48.36,2.19a19,19,0,0,1,.19,1.93l-.49.06c0-.57-.1-1.21-.19-1.92S55,7.74,54.82,7,54.52,5.56,54.35,4.91ZM55.59.49l.47-.17c.27.38.54.8.8,1.25a8.16,8.16,0,0,1,.57,1.18l-.51.2a7.79,7.79,0,0,0-.57-1.2C56.08,1.29,55.83.86,55.59.49Zm2.75,4.14.54.13c-.09.55-.2,1.15-.31,1.78s-.24,1.27-.37,1.92-.26,1.26-.39,1.85-.25,1.11-.38,1.57L57,11.75c.13-.46.26-1,.38-1.58s.25-1.21.38-1.87S58,7,58.08,6.38,58.27,5.16,58.34,4.63Zm1.08,1.46H69.68v.49H59.42Zm.74,2.43H69V9H60.68v5.73h-.52ZM60.34,1h.54V4.05h7.58V1H69V4.52H60.34ZM62.92,8.7h.54v5.86h-.54ZM64.3,6.24l.58.09c-.11.42-.22.85-.32,1.31a10.43,10.43,0,0,1-.31,1.16l-.49-.1c.1-.33.2-.74.31-1.22S64.25,6.58,64.3,6.24ZM64.23.16h.52V4.31h-.52ZM65.8,8.7h.54v5.8H65.8Zm2.89-.18h.53v5.62a.8.8,0,0,1-.07.35.37.37,0,0,1-.26.17,2.5,2.5,0,0,1-.57.08l-1,0a.56.56,0,0,0-.09-.2,1.18,1.18,0,0,0-.14-.22h1.37a.18.18,0,0,0,.21-.2Z"/><path class="cls-1" d="M82.82,1.73h.54v2.5a19.3,19.3,0,0,1-.12,2.1,10,10,0,0,1-.54,2.2,8.43,8.43,0,0,1-1.27,2.2,10.85,10.85,0,0,1-2.3,2.12,18.49,18.49,0,0,1-3.61,1.92l-.1-.12-.13-.13a.71.71,0,0,0-.13-.12,17.66,17.66,0,0,0,3.55-1.87,10.51,10.51,0,0,0,2.24-2,8.13,8.13,0,0,0,1.23-2.12,8.82,8.82,0,0,0,.53-2.11c.07-.7.11-1.37.11-2ZM75.43,6.66H91.07v.47H75.43ZM76,1.57H90.24V2H76Zm7.56,5.25a11.81,11.81,0,0,0,2.87,4.77,10.84,10.84,0,0,0,4.89,2.81l-.13.12-.13.13a.53.53,0,0,0-.1.14,12,12,0,0,1-3.49-1.71,11.45,11.45,0,0,1-2.63-2.66A13.62,13.62,0,0,1,83.11,7Z"/><path class="cls-1" d="M100.75.11l.54.13a13.47,13.47,0,0,1-1.14,1.92,15,15,0,0,1-1.41,1.72,14.47,14.47,0,0,1-1.57,1.4.36.36,0,0,0-.13-.1l-.18-.12L96.7,5A12.31,12.31,0,0,0,99,2.81,11.93,11.93,0,0,0,100.75.11ZM97.12,9.7h11v.47h-11ZM101,11l.44.19a9.45,9.45,0,0,1-1.08,1.31A13.12,13.12,0,0,1,99,13.7a11.22,11.22,0,0,1-1.39.93,1.62,1.62,0,0,0-.18-.2,1.4,1.4,0,0,0-.2-.17,8.74,8.74,0,0,0,1.38-.85A14.77,14.77,0,0,0,100,12.25,7,7,0,0,0,101,11ZM98.27,5.61h11v.47h-11ZM98.59,7,99,6.79a9.12,9.12,0,0,1,1,1.12A5,5,0,0,1,100.7,9l-.45.23a5.68,5.68,0,0,0-.67-1.1A9,9,0,0,0,98.59,7Zm1.32-3.34h11v.49h-11Zm0-1.89h12.17v.47H99.92Zm2.43,4.69h.53v8.28h-.53Zm1.82,4.86.36-.25c.43.29.87.6,1.31.95s.84.69,1.22,1A9.69,9.69,0,0,1,108,14l-.38.33a10.11,10.11,0,0,0-.93-.94c-.37-.35-.78-.7-1.21-1S104.59,11.62,104.17,11.32Zm2.2-4.55.48.26c-.32.4-.68.82-1.07,1.25s-.75.8-1.09,1.12l-.39-.23c.23-.22.47-.46.73-.75s.5-.56.74-.85S106.21,7,106.37,6.77Zm2.84-1.16h.52q0,2.11.06,3.75a19.22,19.22,0,0,0,.24,2.73,4.14,4.14,0,0,0,.59,1.66,1.26,1.26,0,0,0,1.09.55c.23,0,.38-.22.45-.68a14.5,14.5,0,0,0,.15-1.78.89.89,0,0,0,.24.13l.24.1a13.77,13.77,0,0,1-.13,1.65,1.54,1.54,0,0,1-.32.81.87.87,0,0,1-.66.23,1.76,1.76,0,0,1-1.38-.56,3.59,3.59,0,0,1-.72-1.69,18.36,18.36,0,0,1-.29-2.86C109.25,8.5,109.22,7.15,109.21,5.61Z"/><path class="cls-1" d="M120.92.19l.5.12a25.5,25.5,0,0,1-1,2.67,24.9,24.9,0,0,1-1.3,2.47,15.43,15.43,0,0,1-1.5,2.08.56.56,0,0,0-.11-.11l-.14-.14-.14-.12a15.06,15.06,0,0,0,1.46-2,20.83,20.83,0,0,0,1.28-2.39A22.67,22.67,0,0,0,120.92.19Zm-1.46,3.93.51-.47V14.76h-.52ZM122,2.19h.52V12H122Zm3.82,8.05.52.11a11.91,11.91,0,0,1-1.23,1.91,12.57,12.57,0,0,1-1.49,1.57l-.13-.08-.18-.09a.56.56,0,0,0-.19-.07,9.7,9.7,0,0,0,1.53-1.54A10.72,10.72,0,0,0,125.82,10.24Zm5.47-8.39.54.13a8.76,8.76,0,0,1-2,2.5A13.22,13.22,0,0,1,127,6.33a22.94,22.94,0,0,1-3.34,1.3.32.32,0,0,0-.08-.13,1.83,1.83,0,0,0-.13-.16.87.87,0,0,0-.15-.13A19.32,19.32,0,0,0,126.64,6a12.53,12.53,0,0,0,2.76-1.77A8,8,0,0,0,131.29,1.85ZM127,.18l.52.13a11.3,11.3,0,0,1-1.56,2.33,12.14,12.14,0,0,1-2,1.86.57.57,0,0,0-.11-.1l-.16-.12a.59.59,0,0,0-.16-.1,12,12,0,0,0,1.95-1.79A10.1,10.1,0,0,0,127,.18Zm-3.31,8.7H133v.47h-9.38ZM126,2.14a7.7,7.7,0,0,0,1.41,2A9.8,9.8,0,0,0,129.79,6a12.86,12.86,0,0,0,3.42,1.25l-.11.13-.12.14-.11.13a13,13,0,0,1-3.4-1.3,10.38,10.38,0,0,1-2.38-1.8,9,9,0,0,1-1.42-1.9Zm.5-.49h6.59v.47h-6.93Zm1.59,5.28h.52v7.8h-.52Zm2.05,3.54.41-.23a13.54,13.54,0,0,1,1,1c.34.36.64.71.92,1.06a7.7,7.7,0,0,1,.65.94l-.45.26a9.07,9.07,0,0,0-.67-1q-.42-.54-.9-1.08C130.77,11.1,130.44,10.77,130.12,10.47Z"/><path class="cls-1" d="M143.31.21l.53.13A25.85,25.85,0,0,1,142.56,3,21.66,21.66,0,0,1,141,5.4a18.67,18.67,0,0,1-1.75,2l-.11-.13L139,7.17a.53.53,0,0,0-.14-.12,14.41,14.41,0,0,0,1.72-1.95,22.1,22.1,0,0,0,1.53-2.35A18.4,18.4,0,0,0,143.31.21Zm-1.85,3.87.5-.45,0,0V14.71h-.54Zm2.29,4.39h11.19V9H143.75ZM146.07.89l.52.08A22.63,22.63,0,0,1,146,3.23a14.42,14.42,0,0,1-.79,2,9.84,9.84,0,0,1-1,1.68l-.11-.09-.16-.1-.16-.09a8.64,8.64,0,0,0,1-1.63,14.54,14.54,0,0,0,.77-2A18.57,18.57,0,0,0,146.07.89Zm-.34,2.76h8.49v.48h-8.64ZM149.22.34h.52V14.76h-.52Z"/><path class="cls-1" d="M159.52,1.36h15.89v.49H159.52Zm7.34.16h.53V14.74h-.53Zm.35,3.76.3-.32c.59.25,1.2.52,1.83.82l1.85.93c.61.32,1.17.63,1.69.93s1,.56,1.35.8l-.31.42c-.37-.25-.82-.52-1.34-.82s-1.09-.62-1.69-.94-1.23-.65-1.86-1S167.79,5.54,167.21,5.28Z"/><path class="cls-1" d="M180.13,9.15c.66-.19,1.46-.44,2.41-.74l2.89-.93.09.48-2.73.89-2.44.81Zm.22-5.54h5.26V4.1h-5.26ZM182.87.16h.54V14a.6.6,0,0,1-.5.68,3.6,3.6,0,0,1-.72.08h-1.32a1.19,1.19,0,0,0-.08-.21l-.13-.24h1.89a.34.34,0,0,0,.25-.07.3.3,0,0,0,.07-.24Zm4.55,8.65.53,0a10.64,10.64,0,0,1-1,3.48,6.83,6.83,0,0,1-2,2.43l-.13-.1-.17-.11-.14-.09a6.05,6.05,0,0,0,2-2.32A10.51,10.51,0,0,0,187.42,8.81Zm-1.27-1.52h10v.47h-10ZM186.9.71h8.17v5H186.9Zm.65,9.82a5,5,0,0,0,1.32,2.22,4.32,4.32,0,0,0,2,1,12.56,12.56,0,0,0,2.56.25h3.36a.8.8,0,0,1-.09.14,1.3,1.3,0,0,0-.08.17,1.24,1.24,0,0,0,0,.16H193.4a14.09,14.09,0,0,1-2.14-.15,5.88,5.88,0,0,1-1.75-.54,4.28,4.28,0,0,1-1.35-1.14,6.56,6.56,0,0,1-1-1.93Zm-.14-9.35V3h7.14V1.18Zm0,2.25V5.22h7.14V3.43Zm3.31,4h.5v6.65l-.5-.14Zm.27,2.7h4.34v.49H191Z"/><path class="cls-1" d="M206.51.21l.52.13A22.47,22.47,0,0,1,205.64,3a22.68,22.68,0,0,1-1.7,2.42,19.32,19.32,0,0,1-1.88,2l-.1-.13-.13-.15a.48.48,0,0,0-.15-.11,16.39,16.39,0,0,0,1.85-1.94,21.38,21.38,0,0,0,1.65-2.35A20.64,20.64,0,0,0,206.51.21Zm-2,3.87.5-.45,0,0V14.71h-.54Zm2.16,5.07h11.68v.49H206.65ZM210,10.81l.54.14a12.17,12.17,0,0,1-1,1.39,15.82,15.82,0,0,1-1.14,1.3,13.08,13.08,0,0,1-1.19,1.09l-.13-.09-.17-.12a.62.62,0,0,0-.17-.1,15.83,15.83,0,0,0,1.78-1.65A11.72,11.72,0,0,0,210,10.81Zm-2.91-6.89h11v.47h-11ZM209.76.37h.54V9.46h-.54Zm4.5,10.76.42-.24c.43.36.86.77,1.3,1.2s.84.87,1.2,1.29a9.45,9.45,0,0,1,.86,1.14l-.45.27a10.33,10.33,0,0,0-.86-1.16c-.36-.42-.75-.86-1.18-1.29S214.7,11.5,214.26,11.13ZM214.73.37h.52V9.46h-.52Z"/><path class="cls-1" d="M223.91,6.76h15.25v.48H223.91ZM235.21,5l.54.1A13.67,13.67,0,0,1,234.46,9a8.89,8.89,0,0,1-2.23,2.73A11.48,11.48,0,0,1,229,13.57a25.89,25.89,0,0,1-4.45,1.19l-.11-.13-.15-.16a.58.58,0,0,0-.15-.13,25.14,25.14,0,0,0,4.47-1.11,10.86,10.86,0,0,0,3.23-1.78A8.38,8.38,0,0,0,234,8.79,13.35,13.35,0,0,0,235.21,5ZM224.43,2.14h14.08V5.09H238V2.62H225V5.09h-.52Zm1.87,7.68c.34-.39.7-.84,1.07-1.36s.75-1.05,1.12-1.62.71-1.13,1-1.69a17.36,17.36,0,0,0,.82-1.59l.53.1c-.24.52-.53,1.06-.85,1.62S229.36,6.4,229,7s-.72,1.08-1.08,1.57-.68.92-1,1.29Zm0,0,.4-.39c1.07.29,2.17.63,3.29,1s2.24.79,3.32,1.23,2.1.88,3,1.32a25.55,25.55,0,0,1,2.41,1.31l-.47.42a25.14,25.14,0,0,0-2.35-1.29c-.92-.45-1.92-.89-3-1.33s-2.2-.86-3.33-1.25S227.37,10.11,226.3,9.82ZM230.37.28l.43-.15c.26.33.52.71.79,1.12a10.41,10.41,0,0,1,.6,1l-.43.23-.62-1C230.88,1,230.62.62,230.37.28Z"/><path class="cls-1" d="M252.79.54l.41.25a16.39,16.39,0,0,1-1.6,1.71c-.62.58-1.29,1.15-2,1.72s-1.42,1.09-2.16,1.58a23.36,23.36,0,0,1-2.08,1.25l-.17-.21a.84.84,0,0,0-.21-.18,23.46,23.46,0,0,0,2.09-1.19c.73-.47,1.45-1,2.17-1.54s1.37-1.13,2-1.71A15.78,15.78,0,0,0,252.79.54Zm-7.4,13.23h15.32v.47H245.39Zm1.82-3.94H258.8v.47H247.21Zm.7-3.59h10.33v.48H247.91Zm.56-5.7h4.7V1h-4.7Zm4.18,0h.66a14.59,14.59,0,0,0,1.6,1.79,21.2,21.2,0,0,0,2,1.66A22.76,22.76,0,0,0,259,5.41a17.66,17.66,0,0,0,2.08,1,1.67,1.67,0,0,1-.13.12.93.93,0,0,0-.15.13l-.13.13a19.81,19.81,0,0,1-2.77-1.52,23.82,23.82,0,0,1-2.75-2.07A17.76,17.76,0,0,1,252.93.89h-.28Zm0,5.84h.54V14h-.54Z"/><path class="cls-1" d="M267.15,2.74h.54V14.39h-.54Zm.25,4.68h5.33v.47H267.4Zm.09-4.68h5.42V13h-5.42v-.49h4.88V3.21h-4.88ZM270.1.1l.56.16c-.15.45-.33.93-.54,1.43A12.49,12.49,0,0,1,269.55,3l-.45-.14c.12-.25.24-.53.37-.85l.36-1C269.94.65,270,.36,270.1.1ZM276.35,0l.52.09a20.21,20.21,0,0,1-.73,2.36,17.47,17.47,0,0,1-.94,2.14,10.59,10.59,0,0,1-1.15,1.77l-.13-.08-.18-.09-.16-.09a10.19,10.19,0,0,0,1.15-1.73,15.35,15.35,0,0,0,.93-2.09A22.2,22.2,0,0,0,276.35,0Zm-.77,6.48.41-.23c.38.39.77.81,1.17,1.27s.76.9,1.09,1.33a13.14,13.14,0,0,1,.8,1.13l-.47.29a10.72,10.72,0,0,0-.78-1.16q-.49-.66-1.08-1.35C276.33,7.31,276,6.89,275.58,6.5Zm.09-3.75h5.79v.49h-5.79Zm5.58,0h.54v.38c-.09,1.89-.17,3.48-.25,4.78s-.16,2.35-.27,3.16a12.28,12.28,0,0,1-.34,1.88,2.11,2.11,0,0,1-.46.93,1.22,1.22,0,0,1-.48.34,2.31,2.31,0,0,1-.67.1c-.26,0-.63,0-1.1,0s-1,0-1.44-.07a2.38,2.38,0,0,0,0-.26.44.44,0,0,0-.13-.21c.6,0,1.15.07,1.63.08l1,0a2.68,2.68,0,0,0,.45,0,.52.52,0,0,0,.3-.21,1.93,1.93,0,0,0,.42-.88,12.91,12.91,0,0,0,.32-1.89q.15-1.23.27-3.18c.09-1.3.16-2.89.24-4.77Z"/><path class="cls-1" d="M292.3.21l.52.13A22.29,22.29,0,0,1,291.41,3a23.89,23.89,0,0,1-1.72,2.39,21.48,21.48,0,0,1-1.89,2l-.11-.13-.15-.15A.53.53,0,0,0,287.4,7a15.42,15.42,0,0,0,1.87-1.91A23.65,23.65,0,0,0,291,2.75,19.32,19.32,0,0,0,292.3.21Zm-2,3.87.5-.45,0,0V14.71h-.54Zm1.91,4.07H304v.47H292.19Zm3.51,1.54.5.16c-.32.45-.68.92-1.07,1.41s-.78,1-1.18,1.4-.78.85-1.15,1.21l-.12-.1-.17-.12-.16-.09a21,21,0,0,0,1.76-1.84C294.71,11,295.24,10.35,295.7,9.69Zm-2-8.72h9.17V5.7h-9.17Zm.53.47V5.22h8.11V1.44ZM298,5.54h.54v9.22H298Zm2,4.38.43-.23c.45.4.9.83,1.36,1.3s.89.93,1.29,1.38a14,14,0,0,1,.95,1.19l-.47.29a13.49,13.49,0,0,0-1-1.22c-.4-.46-.82-.93-1.27-1.4S300.35,10.31,299.91,9.92Z"/><path class="cls-1" d="M309.19,3h6v.49h-6Zm.7,2.05h4.72v.47h-4.72Zm0,2.05h4.72v.47h-4.72Zm0,2.09h.54v5.38h-.54Zm.23,0h4.43v4.54h-4.43V13.2h3.89V9.64h-3.89ZM311.31.34l.42-.24a11.28,11.28,0,0,1,.83,1,8.85,8.85,0,0,1,.64,1l-.47.29a8.71,8.71,0,0,0-.62-1A9.58,9.58,0,0,0,311.31.34Zm12.31,10h.13l.13,0,.34.22a6.21,6.21,0,0,1-1.57,1.63,10.45,10.45,0,0,1-2.18,1.23,17,17,0,0,1-2.52.87c-.87.23-1.74.42-2.59.56a.85.85,0,0,0-.12-.23l-.17-.21a23.37,23.37,0,0,0,2.52-.5A18.49,18.49,0,0,0,320,13a10.87,10.87,0,0,0,2.11-1.14,5.44,5.44,0,0,0,1.47-1.48Zm-6-7.7.52.12A9.34,9.34,0,0,1,317,4.86a10,10,0,0,1-1.48,1.75.44.44,0,0,0-.12-.11l-.17-.14-.16-.11a8.28,8.28,0,0,0,1.47-1.63A9.31,9.31,0,0,0,317.63,2.59ZM315.4,1.34h3.67v.49H315.4Zm.11,9h8.28v.47h-8.28Zm1.83-6.08H325v.47h-7.62V9.87h-.52V4.6l.41-.39ZM317,9h8.35v.47H317Zm0-3.18h7.4v.47h-7.4Zm0,1.56h7.4v.47h-7.4Zm.54,3.38a7.65,7.65,0,0,0,2.05,1.62,15.31,15.31,0,0,0,2.84,1.24,20.5,20.5,0,0,0,3.16.77,2.08,2.08,0,0,0-.21.21,1,1,0,0,0-.15.2,21.47,21.47,0,0,1-3.14-.84,16.62,16.62,0,0,1-2.89-1.29,8.33,8.33,0,0,1-2.14-1.69ZM318.78.15h.54v2.7h-.54ZM320,2.83l.47-.12c.14.27.28.56.42.88s.25.58.32.8l-.52.18a7.71,7.71,0,0,0-.29-.83C320.31,3.42,320.17,3.12,320,2.83Zm.4,1.54H321V9.1h-.54ZM321.66.15h.52v2.7h-.52ZM322,1.38h3.35v.48H322Z"/><path class="cls-1" d="M337.47,10.11l-.24-.41a4.57,4.57,0,0,0,1.65-1.19,2.83,2.83,0,0,0,.57-1.84l-.54-1.13.95,1a.76.76,0,0,1-.4.31,1.45,1.45,0,0,1-.45.07,1.12,1.12,0,0,1-.7-.21.75.75,0,0,1-.27-.65.75.75,0,0,1,.3-.67,1.13,1.13,0,0,1,.66-.21,1,1,0,0,1,.84.42,1.88,1.88,0,0,1,.29,1.09,3.1,3.1,0,0,1-.75,2.11A4.57,4.57,0,0,1,337.47,10.11Z"/><path class="cls-1" d="M353.27,10.3l.56.1c-.13.68-.29,1.38-.48,2.08a16.68,16.68,0,0,1-.57,1.82l-.15-.06-.2-.07-.17-.06a10.27,10.27,0,0,0,.59-1.8Q353.09,11.29,353.27,10.3Zm-.72-4.45-.05-.17-.08-.21a.54.54,0,0,0-.07-.17.85.85,0,0,0,.44-.29,4.74,4.74,0,0,0,.53-.64,10.39,10.39,0,0,0,.69-.89c.31-.44.65-1,1-1.54a18.65,18.65,0,0,0,1-1.79l.54.22a32.19,32.19,0,0,1-1.66,2.77,18,18,0,0,1-1.84,2.35v0l-.25.11a.78.78,0,0,0-.18.11A.14.14,0,0,0,352.55,5.85Zm.11,3.55a.88.88,0,0,0-.06-.17c0-.06,0-.13-.07-.2a1.47,1.47,0,0,0-.07-.17,1,1,0,0,0,.55-.34c.21-.2.45-.45.71-.74s.36-.4.64-.73.6-.73.95-1.19.72-1,1.08-1.49.71-1.08,1-1.62L358,3c-.48.75-1,1.49-1.51,2.22s-1.07,1.43-1.62,2.08a22.27,22.27,0,0,1-1.66,1.78h0l-.25.1-.18.1A.16.16,0,0,0,352.66,9.4Zm-.11-3.55V5.39L353,5.2l3.24-.29a1.55,1.55,0,0,0,0,.23,1.34,1.34,0,0,0,0,.21l-1.81.21-1.06.13a4.29,4.29,0,0,0-.53.09A1.64,1.64,0,0,0,352.55,5.85Zm.11,3.55V9l.41-.24L358,8.1a.89.89,0,0,0,0,.23.62.62,0,0,0,0,.21l-2.73.39-1.54.22c-.35.06-.59.1-.74.14A1.65,1.65,0,0,0,352.66,9.4Zm2.41.94.52-.07c.11.56.21,1.17.32,1.82s.16,1.22.19,1.7l-.53.08c0-.33,0-.69-.09-1.1s-.12-.82-.19-1.24S355.15,10.7,355.07,10.34Zm1.76-4.07.54-.1c.18.36.36.75.53,1.16l.45,1.2c.13.38.23.72.3,1l-.56.14a9,9,0,0,0-.28-1c-.14-.39-.29-.79-.45-1.21S357,6.64,356.83,6.27Zm0,3.77.49-.11c.2.48.4,1,.61,1.56a10.46,10.46,0,0,1,.43,1.45l-.5.13a12.15,12.15,0,0,0-.43-1.46C357.27,11,357.07,10.52,356.87,10Zm6.68-9.8.57.13A13.83,13.83,0,0,1,362,3.75a14.72,14.72,0,0,1-3.16,2.83.75.75,0,0,0-.13-.11l-.17-.11-.17-.09a14.15,14.15,0,0,0,2.22-1.75,14,14,0,0,0,1.76-2.06A11,11,0,0,0,363.55.24Zm-3.49,8.12h7.3v6.38h-.52V8.85h-6.26v6h-.52Zm.27,5h6.76v.48h-6.76Zm.48-7.88h5.89V6h-5.89ZM363.87.57a13.37,13.37,0,0,0,1.41,2.11A14.46,14.46,0,0,0,367.1,4.6,10.12,10.12,0,0,0,369,6l-.16.12-.15.16-.12.14a12.51,12.51,0,0,1-1.93-1.47,17.5,17.5,0,0,1-1.85-2A15.56,15.56,0,0,1,363.4.75Z"/><path class="cls-1" d="M378.58.21l.52.13A21,21,0,0,1,377.72,3,24.21,24.21,0,0,1,376,5.42a20.46,20.46,0,0,1-1.88,2l-.1-.13c-.05,0-.09-.1-.14-.15a.45.45,0,0,0-.14-.11,15,15,0,0,0,1.86-1.94,21.44,21.44,0,0,0,1.66-2.35A18,18,0,0,0,378.58.21Zm-2,3.87.49-.45,0,0V14.71h-.53ZM382,.24l.54.1a25.58,25.58,0,0,1-.76,2.53,22.28,22.28,0,0,1-1,2.31,12.12,12.12,0,0,1-1.22,1.92.35.35,0,0,0-.11-.09l-.17-.12-.17-.09a10.11,10.11,0,0,0,1.21-1.86,17.69,17.69,0,0,0,1-2.25A22.25,22.25,0,0,0,382,.24Zm-.1,6.53.54.1A19.17,19.17,0,0,1,381.67,9a19.08,19.08,0,0,1-1,1.92,11.48,11.48,0,0,1-1.12,1.59l-.14-.09-.18-.11-.17-.08a10.22,10.22,0,0,0,1.62-2.45A18.2,18.2,0,0,0,381.88,6.77Zm-.63-3.27h8.82V4h-9Zm3.52.13h.54V14a.85.85,0,0,1-.11.48.65.65,0,0,1-.37.22,4.14,4.14,0,0,1-.78.08l-1.33,0a2.08,2.08,0,0,0-.1-.24,1.26,1.26,0,0,0-.13-.26h2a.32.32,0,0,0,.22-.06.3.3,0,0,0,.06-.22Zm2.51,3.21.48-.13a16.19,16.19,0,0,1,1.08,1.88c.34.67.63,1.33.89,2a12.44,12.44,0,0,1,.57,1.74l-.5.14a12.36,12.36,0,0,0-.57-1.73c-.26-.65-.56-1.31-.89-2S387.65,7.42,387.28,6.84Zm2.57-3.34h.09l.13,0,.34.11L390,5.26c-.14.59-.27,1.07-.39,1.46l-.47-.09c.07-.26.15-.56.23-.9s.17-.7.26-1.07l.23-1.06Z"/><path class="cls-1" d="M397.36,5.14h.52v4a18.6,18.6,0,0,1-.11,1.88,10,10,0,0,1-.43,2,5.82,5.82,0,0,1-1,1.81l-.12-.1-.16-.12-.15-.08a5.2,5.2,0,0,0,.95-1.72,9.06,9.06,0,0,0,.4-1.9c.06-.63.09-1.23.09-1.78Zm-1.28-2.27h15.8v.48h-15.8Zm1.58,2.27h5.42v.47h-5.42Zm0,2.64h5.42v.48h-5.42Zm0,2.7h5.42V11h-5.42ZM399.17.31l.45-.18a11.54,11.54,0,0,1,1.1,1.26,11.69,11.69,0,0,1,.83,1.19l-.49.19a8.13,8.13,0,0,0-.78-1.2A11.35,11.35,0,0,0,399.17.31Zm3.68,4.83h.54v8.73a.82.82,0,0,1-.11.46.69.69,0,0,1-.42.23,5,5,0,0,1-.88.09H400.4c0-.06-.06-.14-.1-.24a1.26,1.26,0,0,0-.14-.26l1.51,0h.83c.14,0,.23,0,.27-.09a.27.27,0,0,0,.08-.22Zm3.38.13h.54v6.65h-.54ZM408.46.05l.52.21c-.31.49-.66,1-1.05,1.55a16.37,16.37,0,0,1-1.11,1.43l-.45-.19a11.88,11.88,0,0,0,.75-.94c.26-.35.5-.71.74-1.07Zm1.46,4.68h.54v9.12a.76.76,0,0,1-.14.51.91.91,0,0,1-.44.24,6.31,6.31,0,0,1-1,.07h-1.75a1,1,0,0,0-.09-.24,2,2,0,0,0-.13-.25l1.66,0,.93,0a.6.6,0,0,0,.3-.08.3.3,0,0,0,.08-.24Z"/><path class="cls-1" d="M418.1,1.9h.53V7.34c0,.55,0,1.14-.05,1.77s-.09,1.28-.18,1.93A13.93,13.93,0,0,1,418,13a8.25,8.25,0,0,1-.72,1.75l-.12-.11a.91.91,0,0,1-.16-.11.43.43,0,0,0-.16-.07,8.38,8.38,0,0,0,.85-2.29A16.37,16.37,0,0,0,418,9.64c.05-.83.07-1.6.07-2.3ZM424.3.52l.37.39a8.25,8.25,0,0,1-1.78.63c-.72.18-1.48.34-2.28.46s-1.58.23-2.31.32a.58.58,0,0,0-.07-.21,1.07,1.07,0,0,0-.13-.21c.72-.09,1.48-.2,2.27-.33s1.54-.28,2.24-.46A8.15,8.15,0,0,0,424.3.52Zm-5.89,3.69h5.31V8.38h-5.31V7.91h4.77V4.68h-4.77Zm7.36-2.28h.54V7.66c0,.55,0,1.14-.07,1.76a12.1,12.1,0,0,1-.29,1.87,8.65,8.65,0,0,1-.64,1.83,6.2,6.2,0,0,1-1.12,1.64,1.13,1.13,0,0,0-.11-.11l-.15-.11-.14-.09a6.12,6.12,0,0,0,1.06-1.57,7.79,7.79,0,0,0,.6-1.74,12.53,12.53,0,0,0,.26-1.78c0-.59.06-1.16.06-1.7ZM432.29.36l.41.37a10.9,10.9,0,0,1-1.9.66c-.76.2-1.56.37-2.4.53s-1.65.29-2.43.41a.91.91,0,0,0-.08-.2,1.17,1.17,0,0,0-.12-.2q1.16-.18,2.4-.42c.82-.15,1.6-.33,2.34-.52A10.82,10.82,0,0,0,432.29.36ZM426.06,5.7h7.07v.47h-7.07Zm4,.2h.54v8.84H430Z"/><path class="cls-1" d="M445.72,7.14l.45.2a13,13,0,0,1-1.51,1.9,21.37,21.37,0,0,1-1.9,1.77,20.55,20.55,0,0,1-2.08,1.5,18.2,18.2,0,0,1-2.09,1.15.75.75,0,0,0-.12-.14l-.14-.14a.69.69,0,0,0-.13-.11,15.34,15.34,0,0,0,2.09-1.07,18,18,0,0,0,2.09-1.47A17.18,17.18,0,0,0,444.25,9,13.6,13.6,0,0,0,445.72,7.14ZM438.59,7h15.57v.49H438.59Zm1.23-4H453v.49H439.82ZM446.05.18h.54V14.74h-.54Zm.84,7A15.28,15.28,0,0,0,448.4,9a21.22,21.22,0,0,0,1.91,1.74,18.29,18.29,0,0,0,2.12,1.47,14.15,14.15,0,0,0,2.13,1.07l-.13.12-.14.13-.13.14a16.85,16.85,0,0,1-2.11-1.13A20.37,20.37,0,0,1,449.92,11,20.33,20.33,0,0,1,448,9.21a13.73,13.73,0,0,1-1.54-1.89Z"/><path class="cls-1" d="M465.81.16l.51.13a21.8,21.8,0,0,1-1.53,3.4,16.8,16.8,0,0,1-2.22,3.13,14.25,14.25,0,0,1-3,2.54.38.38,0,0,0-.08-.13l-.12-.13L459.3,9a13.8,13.8,0,0,0,2.24-1.78,16.34,16.34,0,0,0,1.83-2.16,16.14,16.14,0,0,0,1.43-2.38A17.1,17.1,0,0,0,465.81.16ZM459.6,2.4h15.48v.47H459.6Zm3.62,2.95h.52V9.61c0,.41,0,.84-.06,1.28a7.5,7.5,0,0,1-.26,1.37,6.09,6.09,0,0,1-.56,1.32,5.32,5.32,0,0,1-.95,1.21.46.46,0,0,0-.09-.14l-.13-.14a.58.58,0,0,0-.13-.11,4.39,4.39,0,0,0,1.09-1.51,5.94,5.94,0,0,0,.46-1.67,13.2,13.2,0,0,0,.11-1.61Zm.14,5.59h9.24v.48h-9.24Zm.11-5.59h9.15v.48h-9.15Zm.07,2.78h9.08V8.6h-9.08Zm8.79-2.78h.54v8.47a.86.86,0,0,1-.13.53.83.83,0,0,1-.48.25,7.11,7.11,0,0,1-1.09.06h-2c0-.06-.05-.14-.09-.23a1.83,1.83,0,0,0-.15-.25l1.33,0q.6,0,1,0h.6a.53.53,0,0,0,.34-.1.38.38,0,0,0,.08-.27Z"/><path class="cls-1" d="M481.27,2.74h.54V14.39h-.54Zm.25,4.68h5.33v.47h-5.33Zm.09-4.68H487V13h-5.42v-.49h4.88V3.21h-4.88ZM484.22.1l.56.16c-.16.45-.34.93-.54,1.43A12.31,12.31,0,0,1,483.66,3l-.45-.14c.12-.25.25-.53.37-.85s.25-.65.36-1S484.15.36,484.22.1ZM490.47,0l.52.09a22.32,22.32,0,0,1-.73,2.36,19.15,19.15,0,0,1-.94,2.14,10.62,10.62,0,0,1-1.16,1.77L488,6.3l-.18-.09-.16-.09a10.19,10.19,0,0,0,1.15-1.73,15.33,15.33,0,0,0,.92-2.09A22.25,22.25,0,0,0,490.47,0Zm-.78,6.48.42-.23c.38.39.77.81,1.17,1.27s.76.9,1.09,1.33.59.8.8,1.13l-.47.29a10.72,10.72,0,0,0-.78-1.16q-.5-.66-1.08-1.35C490.45,7.31,490.07,6.89,489.69,6.5Zm.09-3.75h5.8v.49h-5.8Zm5.58,0h.54v.38c-.08,1.89-.16,3.48-.24,4.78s-.17,2.35-.27,3.16a13.66,13.66,0,0,1-.34,1.88,2.22,2.22,0,0,1-.46.93,1.25,1.25,0,0,1-.49.34,2.24,2.24,0,0,1-.66.1c-.27,0-.63,0-1.1,0s-.95,0-1.44-.07a2.38,2.38,0,0,0,0-.26.44.44,0,0,0-.13-.21c.6,0,1.14.07,1.63.08l1,0a2.68,2.68,0,0,0,.45,0,.52.52,0,0,0,.3-.21,1.93,1.93,0,0,0,.42-.88,14.43,14.43,0,0,0,.32-1.89q.15-1.23.27-3.18c.08-1.3.16-2.89.23-4.77Z"/><path class="cls-1" d="M502,6.76h15.25v.48H502ZM513.29,5l.54.1A13.66,13.66,0,0,1,512.53,9a9,9,0,0,1-2.22,2.73A11.68,11.68,0,0,1,507,13.57a25.65,25.65,0,0,1-4.45,1.19l-.1-.13-.16-.16a.58.58,0,0,0-.15-.13,24.71,24.71,0,0,0,4.47-1.11,10.74,10.74,0,0,0,3.23-1.78A8.38,8.38,0,0,0,512,8.79,13.35,13.35,0,0,0,513.29,5ZM502.5,2.14h14.08V5.09h-.52V2.62H503V5.09h-.53Zm1.88,7.68c.33-.39.69-.84,1.07-1.36s.75-1.05,1.11-1.62.71-1.13,1-1.69.6-1.09.83-1.59l.52.1a18.25,18.25,0,0,1-.85,1.62c-.32.56-.67,1.12-1,1.68S506.34,8,506,8.53s-.69.92-1,1.29Zm0,0,.39-.39c1.07.29,2.17.63,3.3,1s2.23.79,3.32,1.23,2.09.88,3,1.32a24.35,24.35,0,0,1,2.41,1.31l-.47.42A24.86,24.86,0,0,0,514,13.42c-.92-.45-1.92-.89-3-1.33s-2.2-.86-3.33-1.25S505.44,10.11,504.38,9.82ZM508.44.28l.44-.15c.25.33.51.71.78,1.12a10.41,10.41,0,0,1,.6,1l-.43.23c-.16-.28-.36-.63-.62-1A12.74,12.74,0,0,0,508.44.28Z"/><path class="cls-1" d="M524.13,6l.49.11q-.15.86-.42,2c-.19.73-.4,1.46-.64,2.18a13.44,13.44,0,0,1-.79,1.91l-.51-.22a12.31,12.31,0,0,0,.82-1.88c.25-.7.46-1.41.64-2.13S524,6.59,524.13,6Zm2.51-1.46h.54v8.52a.82.82,0,0,0,.27.73,2.49,2.49,0,0,0,1.17.18H533a1.44,1.44,0,0,0,1-.29,1.82,1.82,0,0,0,.45-1.1,21.79,21.79,0,0,0,.2-2.32l.18.1a.66.66,0,0,0,.19.09l.17.07a18,18,0,0,1-.24,2.39,1.9,1.9,0,0,1-.62,1.2,2.16,2.16,0,0,1-1.35.34h-4.27a5,5,0,0,1-1.22-.11,1,1,0,0,1-.63-.42,1.78,1.78,0,0,1-.18-.88Zm1.08-3.26.36-.26c.57.38,1.16.8,1.77,1.25s1.17.91,1.7,1.35,1,.85,1.28,1.19l-.35.31c-.33-.34-.76-.74-1.29-1.19s-1.1-.91-1.7-1.38S528.29,1.69,527.72,1.31Zm7.74,4.54.48-.13c.36.65.71,1.34,1,2.08s.64,1.46.91,2.17a16,16,0,0,1,.59,1.91L538,12a16.83,16.83,0,0,0-.6-1.91c-.26-.71-.56-1.44-.89-2.19S535.81,6.49,535.46,5.85Z"/><path class="cls-1" d="M545.07,1.94h.52v3.7c0,.65,0,1.35-.05,2.12s-.11,1.56-.22,2.36a17.6,17.6,0,0,1-.49,2.4,12,12,0,0,1-.84,2.22l-.14-.09-.16-.11a.4.4,0,0,0-.15-.07,11.07,11.07,0,0,0,.83-2.17,18.12,18.12,0,0,0,.45-2.31c.11-.78.17-1.55.2-2.29s.05-1.44.05-2.06Zm.28,0h14.32v.47H545.35Zm1.28,9,.43.16c-.07.29-.16.62-.26,1s-.23.73-.36,1.08a6.74,6.74,0,0,1-.44.93l-.46-.21A7.05,7.05,0,0,0,546,13c.13-.34.26-.7.37-1.06S546.56,11.21,546.63,10.92ZM546.72,4h7v.47h-7Zm.49,1.92h6V9.35h-6Zm.54.47v2.5h5V6.38Zm.23,4.33h.54v3c0,.16.05.27.16.31a2,2,0,0,0,.71.08h2.71a.75.75,0,0,0,.49-.13.91.91,0,0,0,.24-.55c0-.28.07-.72.09-1.31a1.33,1.33,0,0,0,.24.11l.26.08a8.5,8.5,0,0,1-.14,1.42,1,1,0,0,1-.36.68,1.33,1.33,0,0,1-.76.18h-2.75a4.82,4.82,0,0,1-.87-.06.66.66,0,0,1-.43-.25,1,1,0,0,1-.13-.56Zm1.53-.75L550,9.8c.33.37.67.77,1,1.22a13.78,13.78,0,0,1,.82,1.11l-.49.21c-.19-.3-.46-.68-.8-1.14S549.84,10.33,549.51,10ZM558.3,3.6l.5.11a14.66,14.66,0,0,1-2.17,3.8,14.61,14.61,0,0,1-3,2.86.66.66,0,0,0-.12-.12l-.18-.13-.16-.09a12.73,12.73,0,0,0,3-2.76A14.3,14.3,0,0,0,558.3,3.6ZM553.67,11l.49-.13c.21.32.43.67.65,1s.43.73.63,1.07.34.63.46.88l-.52.2c-.12-.26-.28-.57-.47-.92s-.39-.71-.61-1.09S553.88,11.34,553.67,11ZM555,.15h.56c0,1.38.07,2.68.17,3.92s.25,2.37.43,3.41a26.2,26.2,0,0,0,.62,2.82,16.08,16.08,0,0,0,.74,2.12,5.32,5.32,0,0,0,.78,1.34,1.06,1.06,0,0,0,.77.46c.18,0,.32-.22.43-.68a14.54,14.54,0,0,0,.22-2.15,1.33,1.33,0,0,0,.24.12l.25.09c0,.76-.1,1.36-.17,1.82a2.23,2.23,0,0,1-.36,1,.83.83,0,0,1-.66.3,1.4,1.4,0,0,1-1-.51,5.41,5.41,0,0,1-.92-1.47,16,16,0,0,1-.79-2.27c-.24-.88-.45-1.87-.64-3s-.33-2.25-.45-3.48S555,1.5,555,.15Zm1.23.21.36-.29a13,13,0,0,1,1.22.63c.44.25.78.46,1.05.63l-.34.36c-.27-.19-.62-.41-1.06-.66S556.59.55,556.21.36Z"/><path class="cls-1" d="M573.4,5.15a2.62,2.62,0,0,1,1.29.32,2.58,2.58,0,0,1,.93.83,2.11,2.11,0,0,1,0,2.33,2.52,2.52,0,0,1-.93.84,2.62,2.62,0,0,1-1.29.32,2.68,2.68,0,0,1-1.29-.32,2.52,2.52,0,0,1-.93-.84,2.11,2.11,0,0,1,0-2.33,2.58,2.58,0,0,1,.93-.83A2.68,2.68,0,0,1,573.4,5.15Zm0,4.15a2.08,2.08,0,0,0,1.44-.54,1.67,1.67,0,0,0,.59-1.29,1.65,1.65,0,0,0-.27-.92,2,2,0,0,0-.73-.66,2.23,2.23,0,0,0-2,0,2.24,2.24,0,0,0-.74.66,1.65,1.65,0,0,0-.27.92,1.68,1.68,0,0,0,.27.92,2.17,2.17,0,0,0,.74.67A2.19,2.19,0,0,0,573.4,9.3Z"/><path class="cls-1" d="M583.06,14.9h-5.39v-.48h4.85V4.31h.54Z"/></g></g></svg>