<svg xmlns="http://www.w3.org/2000/svg" viewBox="0 0 815.87 83.02"><defs><style>.cls-1{fill:#004632;}</style></defs><g id="圖層_2" data-name="圖層 2"><g id="text"><path class="cls-1" d="M10.32,27A13.18,13.18,0,0,1,4.83,26a8,8,0,0,1-3.56-3A8.68,8.68,0,0,1,0,18.25H4.57a4.77,4.77,0,0,0,.75,2.61,4.51,4.51,0,0,0,2,1.65,7.45,7.45,0,0,0,3,.57,7.8,7.8,0,0,0,2.83-.47,4.42,4.42,0,0,0,1.89-1.31,3.14,3.14,0,0,0,.67-2,2.64,2.64,0,0,0-.51-1.63,4,4,0,0,0-1.58-1.19,14.46,14.46,0,0,0-2.74-.89l-2.85-.67A12.07,12.07,0,0,1,2.42,12.3,5.92,5.92,0,0,1,.56,7.79a7,7,0,0,1,1.22-4.1A7.92,7.92,0,0,1,5.16,1a12.15,12.15,0,0,1,5-1,11.7,11.7,0,0,1,5,1,7.85,7.85,0,0,1,3.31,2.83,8.29,8.29,0,0,1,1.26,4.34H15.33A4.24,4.24,0,0,0,13.8,5.06a5.65,5.65,0,0,0-3.66-1.12,6.64,6.64,0,0,0-2.56.46A4.21,4.21,0,0,0,5.84,5.68a3,3,0,0,0-.62,1.86,2.48,2.48,0,0,0,.53,1.59,4.06,4.06,0,0,0,1.57,1.13,14.66,14.66,0,0,0,2.61.83l2.6.62a18.42,18.42,0,0,1,3.38,1.08,9.08,9.08,0,0,1,2.45,1.54,6,6,0,0,1,1.5,2.07,6.69,6.69,0,0,1,.51,2.67,7.28,7.28,0,0,1-1.21,4.2A7.79,7.79,0,0,1,15.69,26,13.51,13.51,0,0,1,10.32,27Z"/><path class="cls-1" d="M25.65,4.41V.4H46.57v4H38.45V26.6H33.78V4.41Z"/><path class="cls-1" d="M52.92,26.6V.4H63.06a11.27,11.27,0,0,1,5,1,7.51,7.51,0,0,1,3.21,2.91,8.57,8.57,0,0,1,1.12,4.43,8.05,8.05,0,0,1-1.17,4.4A7.65,7.65,0,0,1,67.89,16a11.86,11.86,0,0,1-5.08,1H55.66V13.2h7.05a6.44,6.44,0,0,0,2.74-.53,3.87,3.87,0,0,0,1.71-1.53,4.51,4.51,0,0,0,.59-2.37,4.41,4.41,0,0,0-.6-2.35,3.9,3.9,0,0,0-1.72-1.53,6.14,6.14,0,0,0-2.74-.55h-5.1V26.6Zm14.92,0L61.69,14.77h5L73,26.6Z"/><path class="cls-1" d="M84.34.4V26.6H79.66V.4Z"/><path class="cls-1" d="M99.74,26.6,90.39.4h5.06l4.69,13.73c.44,1.35.91,2.89,1.44,4.61s1.1,3.68,1.74,5.89h-1.24q.94-3.31,1.7-5.89c.51-1.72,1-3.26,1.39-4.61L109.72.4h5l-9.17,26.2Z"/><path class="cls-1" d="M120.8,26.6V.4h18v4H125.48v7h12.29v3.93H125.48v7.3h13.29v4Z"/><path class="cls-1" d="M158,26.6V.4h17.44v4H162.66v7.31h11.78v3.94H162.66V26.6Z"/><path class="cls-1" d="M193,27a11.85,11.85,0,0,1-6.25-1.66,11.7,11.7,0,0,1-4.33-4.69,15.3,15.3,0,0,1-1.58-7.13,15.35,15.35,0,0,1,1.58-7.17,11.6,11.6,0,0,1,4.33-4.7,12.64,12.64,0,0,1,12.49,0,11.6,11.6,0,0,1,4.33,4.7,15.35,15.35,0,0,1,1.58,7.17,15.28,15.28,0,0,1-1.58,7.14,11.63,11.63,0,0,1-4.33,4.69A11.82,11.82,0,0,1,193,27Zm0-4.18a7,7,0,0,0,3.82-1.08,7.45,7.45,0,0,0,2.66-3.16,11.83,11.83,0,0,0,1-5.06,11.94,11.94,0,0,0-1-5.09,7.42,7.42,0,0,0-2.66-3.17,7.31,7.31,0,0,0-7.65,0,7.42,7.42,0,0,0-2.66,3.17,11.94,11.94,0,0,0-1,5.09,11.83,11.83,0,0,0,1,5.06,7.45,7.45,0,0,0,2.66,3.16A7,7,0,0,0,193,22.82Z"/><path class="cls-1" d="M212.4,26.6V.4h10.14a11.32,11.32,0,0,1,5,1,7.48,7.48,0,0,1,3.2,2.91,8.48,8.48,0,0,1,1.12,4.43,8.05,8.05,0,0,1-1.17,4.4A7.63,7.63,0,0,1,227.38,16a11.9,11.9,0,0,1-5.08,1h-7.16V13.2h7.05a6.44,6.44,0,0,0,2.74-.53,3.9,3.9,0,0,0,1.72-1.53,4.6,4.6,0,0,0,.59-2.37,4.41,4.41,0,0,0-.6-2.35,4,4,0,0,0-1.72-1.53,6.17,6.17,0,0,0-2.74-.55h-5.1V26.6Zm14.93,0-6.16-11.83h5l6.28,11.83Z"/><path class="cls-1" d="M251.23,26.6V.4h18v4H255.91v7H268.2v3.93H255.91v7.3H269.2v4Z"/><path class="cls-1" d="M274.87,26.6l10.6-15.1V15L275.61.4H281l3.22,4.84q.63.95,1.17,1.83t1.05,1.74c.35.57.7,1.16,1.05,1.75h-1.11c.38-.59.74-1.18,1.08-1.75s.71-1.16,1.08-1.74.76-1.2,1.18-1.83L292.94.4h5.2l-9.73,14.33V11.39l10.4,15.21H293.4l-4-5.93-1-1.59c-.33-.5-.65-1-1-1.49l-1-1.54h.8c-.32.53-.64,1-.95,1.53s-.64,1-1,1.49-.69,1-1.06,1.6l-4.08,5.93Z"/><path class="cls-1" d="M314.7,27a12.16,12.16,0,0,1-6.34-1.65A11.52,11.52,0,0,1,304,20.66a15.28,15.28,0,0,1-1.57-7.14A15.36,15.36,0,0,1,304,6.34a11.48,11.48,0,0,1,4.35-4.69A12.15,12.15,0,0,1,314.7,0a12.69,12.69,0,0,1,4.11.65,10.76,10.76,0,0,1,3.39,1.87,10.36,10.36,0,0,1,2.44,2.94,11.33,11.33,0,0,1,1.29,3.87H321.2a6.46,6.46,0,0,0-.82-2.18A5.85,5.85,0,0,0,319,5.52a5.72,5.72,0,0,0-1.91-1,7.46,7.46,0,0,0-2.31-.34,7.06,7.06,0,0,0-4.05,1.15,7.38,7.38,0,0,0-2.64,3.23,12.33,12.33,0,0,0-.92,5,12.27,12.27,0,0,0,.92,4.94,7.3,7.3,0,0,0,2.64,3.22,7.13,7.13,0,0,0,4.05,1.14,7.33,7.33,0,0,0,2.29-.34,5.88,5.88,0,0,0,1.91-1,6.15,6.15,0,0,0,1.43-1.61,7.18,7.18,0,0,0,.84-2.18h4.71a10.79,10.79,0,0,1-1.26,3.8,10.42,10.42,0,0,1-2.43,2.93,10.78,10.78,0,0,1-3.38,1.9A12.43,12.43,0,0,1,314.7,27Z"/><path class="cls-1" d="M333,26.6V.4h17.95v4H337.64v7h12.29v3.93H337.64v7.3h13.29v4Z"/><path class="cls-1" d="M358.22,26.6V.4h4.67V22.59h12v4Z"/><path class="cls-1" d="M381.26,26.6V.4h4.68V22.59h12v4Z"/><path class="cls-1" d="M404.3,26.6V.4h17.95v4H409v7h12.29v3.93H409v7.3h13.29v4Z"/><path class="cls-1" d="M429.55,26.6V.4h5.08L443.81,15c.28.43.62,1,1,1.68s.8,1.42,1.24,2.22.85,1.6,1.26,2.41l-.51.88c0-.79-.09-1.67-.13-2.66s-.07-1.92-.09-2.82,0-1.61,0-2.14V.4h4.67V26.6h-5.09l-8.27-13.12c-.34-.55-.74-1.22-1.21-2s-1-1.69-1.56-2.71-1.2-2.14-1.87-3.36l.72-.52c.08,1.3.13,2.51.17,3.63s.07,2.1.09,2.94,0,1.51,0,2V26.6Z"/><path class="cls-1" d="M470.65,27a12.13,12.13,0,0,1-6.34-1.65A11.45,11.45,0,0,1,460,20.66a15.28,15.28,0,0,1-1.58-7.14A15.37,15.37,0,0,1,460,6.34a11.48,11.48,0,0,1,4.35-4.69A12.15,12.15,0,0,1,470.65,0a12.74,12.74,0,0,1,4.11.65,10.82,10.82,0,0,1,3.38,1.87,10.39,10.39,0,0,1,2.45,2.94,11.33,11.33,0,0,1,1.29,3.87h-4.73a6.67,6.67,0,0,0-.82-2.18A5.78,5.78,0,0,0,473,4.52a7.46,7.46,0,0,0-2.31-.34,7.06,7.06,0,0,0-4.05,1.15A7.32,7.32,0,0,0,464,8.56a12.33,12.33,0,0,0-.92,5,12.27,12.27,0,0,0,.92,4.94,7.23,7.23,0,0,0,2.64,3.22,7.13,7.13,0,0,0,4.05,1.14,7.37,7.37,0,0,0,2.29-.34,5.84,5.84,0,0,0,3.33-2.6,6.94,6.94,0,0,0,.85-2.18h4.71a10.79,10.79,0,0,1-1.26,3.8,10.59,10.59,0,0,1-2.43,2.93,10.83,10.83,0,0,1-3.39,1.9A12.33,12.33,0,0,1,470.65,27Z"/><path class="cls-1" d="M488.92,26.6V.4h17.94v4H493.59v7h12.29v3.93H493.59v7.3h13.29v4Z"/><path class="cls-1" d="M524.2,26.6,533.5.4h5.87l9.31,26.2h-5.11L539,12.87c-.45-1.44-.93-3-1.43-4.66s-1.07-3.62-1.71-5.85h1.23q-1,3.35-1.71,5.85c-.5,1.66-1,3.22-1.46,4.66L529.22,26.6Zm5.5-6.31V16.47h13.5v3.82Z"/><path class="cls-1" d="M554.76,26.6V.4h5.08L569,15c.28.43.62,1,1,1.68s.81,1.42,1.24,2.22.86,1.6,1.27,2.41l-.51.88c0-.79-.09-1.67-.13-2.66s-.07-1.92-.09-2.82,0-1.61,0-2.14V.4h4.68V26.6h-5.1l-8.26-13.12c-.34-.55-.75-1.22-1.21-2s-1-1.69-1.57-2.71l-1.86-3.36.72-.52c.07,1.3.12,2.51.17,3.63s.07,2.1.08,2.94,0,1.51,0,2V26.6Z"/><path class="cls-1" d="M589.38.4V26.6H584.7V.4Zm4.18,26.2H587v-4h6.37A9.23,9.23,0,0,0,598,21.54a6.55,6.55,0,0,0,2.77-3.1,12.13,12.13,0,0,0,.92-5,12,12,0,0,0-.91-4.93A6.47,6.47,0,0,0,598,5.45a9.06,9.06,0,0,0-4.57-1.06h-6.63V.4h6.93A13.47,13.47,0,0,1,600.48,2a10.62,10.62,0,0,1,4.34,4.51,14.83,14.83,0,0,1,1.52,7,15,15,0,0,1-1.53,7A10.79,10.79,0,0,1,600.44,25,13.81,13.81,0,0,1,593.56,26.6Z"/><path class="cls-1" d="M625.57,26.6V.4h17.95v4H630.25v7h12.29v3.93H630.25v7.3h13.29v4Z"/><path class="cls-1" d="M650.82,26.6V.4h6.79l5.08,13.72.59,1.85c.23.73.46,1.5.7,2.31s.47,1.59.68,2.33.38,1.37.53,1.89h-1.11c.14-.5.31-1.13.52-1.87s.42-1.53.66-2.34.48-1.59.71-2.32.42-1.35.59-1.85l5-13.72h6.8V26.6h-4.6V13.27c0-.57,0-1.24,0-2s0-1.58.06-2.44,0-1.72.07-2.59,0-1.71,0-2.5h.53l-.83,2.71c-.28.92-.56,1.81-.83,2.67s-.51,1.64-.74,2.35-.43,1.32-.61,1.81l-5,13.33h-3.83l-5-13.33c-.18-.49-.38-1.09-.62-1.8s-.49-1.49-.76-2.35-.56-1.74-.84-2.66l-.87-2.73h.65c0,.78,0,1.61,0,2.48s0,1.74.06,2.6,0,1.66.06,2.43,0,1.45,0,2V26.6Z"/><path class="cls-1" d="M686.6,26.6V.4h10.12a11.37,11.37,0,0,1,4.7.87,6.55,6.55,0,0,1,2.93,2.38,6.29,6.29,0,0,1,1,3.56,5.9,5.9,0,0,1-.56,2.67,5.19,5.19,0,0,1-1.58,1.9,7,7,0,0,1-2.41,1.12V13a6.69,6.69,0,0,1,2.79.93,5.85,5.85,0,0,1,2,2.12,6.58,6.58,0,0,1,.75,3.24,7.13,7.13,0,0,1-1,3.82,6.77,6.77,0,0,1-3.07,2.57,12.23,12.23,0,0,1-5.08.93Zm4.6-15.09h5.22a5.47,5.47,0,0,0,2.27-.44,3.47,3.47,0,0,0,1.49-1.28,3.52,3.52,0,0,0,.53-2,3.35,3.35,0,0,0-1.12-2.63,4.61,4.61,0,0,0-3.15-1H691.2Zm0,11.27h5.43a6,6,0,0,0,3.7-1,3.26,3.26,0,0,0,1.28-2.74A3.72,3.72,0,0,0,701,17a3.85,3.85,0,0,0-1.66-1.38,6.24,6.24,0,0,0-2.61-.49H691.2Z"/><path class="cls-1" d="M713.49,26.6V.4h10.15a11.3,11.3,0,0,1,5,1,7.56,7.56,0,0,1,3.21,2.91A8.57,8.57,0,0,1,733,8.77a8.05,8.05,0,0,1-1.17,4.4A7.57,7.57,0,0,1,728.47,16a11.86,11.86,0,0,1-5.08,1h-7.15V13.2h7a6.47,6.47,0,0,0,2.74-.53,3.87,3.87,0,0,0,1.71-1.53,4.6,4.6,0,0,0,.59-2.37,4.41,4.41,0,0,0-.6-2.35A4,4,0,0,0,726,4.89a6.14,6.14,0,0,0-2.74-.55h-5.1V26.6Zm14.93,0-6.15-11.83h5l6.27,11.83Z"/><path class="cls-1" d="M739,26.6,748.28.4h5.87l9.31,26.2h-5.11l-4.61-13.73c-.45-1.44-.93-3-1.43-4.66s-1.07-3.62-1.71-5.85h1.23q-1,3.35-1.71,5.85c-.5,1.66-1,3.22-1.46,4.66L744,26.6Zm5.5-6.31V16.47H758v3.82Z"/><path class="cls-1" d="M779.64,27a12.16,12.16,0,0,1-6.34-1.65A11.52,11.52,0,0,1,769,20.66a15.28,15.28,0,0,1-1.57-7.14A15.36,15.36,0,0,1,769,6.34a11.48,11.48,0,0,1,4.35-4.69A12.15,12.15,0,0,1,779.64,0a12.65,12.65,0,0,1,4.11.65,10.76,10.76,0,0,1,3.39,1.87,10.36,10.36,0,0,1,2.44,2.94,11.33,11.33,0,0,1,1.29,3.87h-4.73a6.66,6.66,0,0,0-.81-2.18,6,6,0,0,0-1.42-1.63,5.72,5.72,0,0,0-1.91-1,7.46,7.46,0,0,0-2.31-.34,7.06,7.06,0,0,0-4.05,1.15A7.38,7.38,0,0,0,773,8.56a12.33,12.33,0,0,0-.92,5,12.27,12.27,0,0,0,.92,4.94,7.3,7.3,0,0,0,2.64,3.22,7.13,7.13,0,0,0,4.05,1.14,7.44,7.44,0,0,0,2.3-.34,5.93,5.93,0,0,0,3.33-2.6,7.18,7.18,0,0,0,.84-2.18h4.71a10.79,10.79,0,0,1-1.26,3.8,10.42,10.42,0,0,1-2.43,2.93,10.67,10.67,0,0,1-3.38,1.9A12.43,12.43,0,0,1,779.64,27Z"/><path class="cls-1" d="M797.91,26.6V.4h18v4H802.58v7h12.29v3.93H802.58v7.3h13.29v4Z"/><path class="cls-1" d="M252.73,82.6,262,56.4h5.88l9.31,26.2H272.1l-4.61-13.73c-.46-1.44-.93-3-1.43-4.66s-1.07-3.62-1.72-5.85h1.24q-1,3.35-1.71,5.85c-.5,1.66-1,3.22-1.46,4.66L257.75,82.6Zm5.5-6.31V72.47h13.5v3.82Z"/><path class="cls-1" d="M286.15,56.4V82.6h-4.68V56.4Zm4.18,26.2h-6.61v-4h6.37a9.23,9.23,0,0,0,4.66-1.07,6.55,6.55,0,0,0,2.77-3.1,13.87,13.87,0,0,0,0-9.91,6.47,6.47,0,0,0-2.73-3.08,9.09,9.09,0,0,0-4.57-1.06H283.6v-4h6.93A13.47,13.47,0,0,1,297.25,58a10.62,10.62,0,0,1,4.34,4.51,15,15,0,0,1,1.52,7,15,15,0,0,1-1.53,7A10.75,10.75,0,0,1,297.2,81,13.74,13.74,0,0,1,290.33,82.6Z"/><path class="cls-1" d="M314.57,82.6l-9.35-26.2h5.06L315,70.13q.64,2,1.43,4.61t1.75,5.89h-1.25q.94-3.31,1.71-5.89c.5-1.72,1-3.26,1.38-4.61l4.56-13.73h5l-9.18,26.2Z"/><path class="cls-1" d="M333.82,82.6V56.4h17.95v4H338.5v7h12.29v3.93H338.5v7.3h13.29v4Z"/><path class="cls-1" d="M357.26,82.6V56.4h5.08L371.52,71c.28.43.61,1,1,1.68s.8,1.42,1.24,2.22.85,1.6,1.26,2.41l-.51.88c0-.79-.09-1.67-.13-2.66s-.07-1.92-.09-2.82,0-1.61,0-2.14V56.4H379V82.6h-5.1l-8.26-13.12c-.34-.55-.74-1.22-1.21-2s-1-1.69-1.57-2.71L361,61.41l.72-.52c.07,1.3.13,2.51.17,3.63s.07,2.1.09,2.94,0,1.51,0,2V82.6Z"/><path class="cls-1" d="M383.5,60.41v-4h20.92v4H396.3V82.6h-4.68V60.41Z"/><path class="cls-1" d="M419.5,83a12.15,12.15,0,0,1-5.59-1.22,9.08,9.08,0,0,1-3.7-3.34,9.19,9.19,0,0,1-1.31-4.92V56.4h4.6V73.16a5.88,5.88,0,0,0,.74,3,5.28,5.28,0,0,0,2.08,2,7.2,7.2,0,0,0,6.36,0,5.25,5.25,0,0,0,2.07-2,5.88,5.88,0,0,0,.74-3V56.4h4.6V73.54a9.19,9.19,0,0,1-1.31,4.92,9.08,9.08,0,0,1-3.7,3.34A12.14,12.14,0,0,1,419.5,83Z"/><path class="cls-1" d="M436.42,82.6V56.4h10.14a11.32,11.32,0,0,1,5,1,7.48,7.48,0,0,1,3.2,2.91,8.48,8.48,0,0,1,1.12,4.43,8.05,8.05,0,0,1-1.17,4.4A7.63,7.63,0,0,1,451.4,72a11.9,11.9,0,0,1-5.08,1h-7.16V69.2h7a6.44,6.44,0,0,0,2.74-.53,3.9,3.9,0,0,0,1.72-1.53,4.6,4.6,0,0,0,.59-2.37,4.41,4.41,0,0,0-.6-2.35,4,4,0,0,0-1.72-1.53,6.19,6.19,0,0,0-2.75-.55H441.1V82.6Zm14.92,0-6.15-11.83h5l6.28,11.83Z"/><path class="cls-1" d="M461.37,82.6V56.4h17.95v4H466.05v7h12.29v3.93H466.05v7.3h13.29v4Z"/><path class="cls-1" d="M500.09,82.6,493,56.4H498l3.44,14.08c.25,1,.48,2,.69,3s.41,2,.61,3.08.39,2,.57,3.07h-.83c.2-1,.4-2,.61-3.07s.43-2,.65-3.08.46-2,.71-3L508,56.4h4.93l3.56,14.08c.25,1,.49,2,.72,3l.66,3.08c.21,1,.41,2,.61,3.07h-.86c.2-1,.39-2,.59-3.07s.4-2,.62-3.08.45-2,.67-3L523,56.4h5l-7.1,26.2h-5.28l-4-15c-.29-1.15-.57-2.38-.83-3.7l-.87-4.26H511c-.31,1.51-.6,2.92-.85,4.24s-.53,2.55-.83,3.72l-4,15Z"/><path class="cls-1" d="M536.85,56.4V82.6h-4.67V56.4Z"/><path class="cls-1" d="M541.39,60.41v-4H562.3v4h-8.12V82.6h-4.67V60.41Z"/><path class="cls-1" d="M566.83,82.6V56.4h4.68V67.21H583.6V56.4h4.66V82.6H583.6V71.22H571.51V82.6Z"/><path class="cls-1" d="M605.77,83a11.85,11.85,0,0,1-6.25-1.66,11.63,11.63,0,0,1-4.33-4.69,15.18,15.18,0,0,1-1.58-7.13,15.23,15.23,0,0,1,1.58-7.17,11.53,11.53,0,0,1,4.33-4.7,12.64,12.64,0,0,1,12.49,0,11.6,11.6,0,0,1,4.33,4.7,15.35,15.35,0,0,1,1.58,7.17,15.28,15.28,0,0,1-1.58,7.14A11.63,11.63,0,0,1,612,81.35,11.87,11.87,0,0,1,605.77,83Zm0-4.18a7,7,0,0,0,3.82-1.08,7.45,7.45,0,0,0,2.66-3.16,11.83,11.83,0,0,0,1-5.06,11.94,11.94,0,0,0-1-5.09,7.42,7.42,0,0,0-2.66-3.17,7.31,7.31,0,0,0-7.65,0,7.35,7.35,0,0,0-2.66,3.17,13.63,13.63,0,0,0,0,10.15,7.38,7.38,0,0,0,2.66,3.16A6.94,6.94,0,0,0,605.77,78.82Z"/><path class="cls-1" d="M633.72,83a12.14,12.14,0,0,1-5.58-1.22,9,9,0,0,1-3.7-3.34,9.2,9.2,0,0,1-1.32-4.92V56.4h4.61V73.16a5.88,5.88,0,0,0,.74,3,5.21,5.21,0,0,0,2.08,2,7.18,7.18,0,0,0,6.35,0,5.28,5.28,0,0,0,2.08-2,5.88,5.88,0,0,0,.74-3V56.4h4.6V73.54A9.2,9.2,0,0,1,643,78.46a9,9,0,0,1-3.7,3.34A12.08,12.08,0,0,1,633.72,83Z"/><path class="cls-1" d="M648.82,60.41v-4h20.92v4h-8.12V82.6h-4.68V60.41Z"/><path class="cls-1" d="M684.91,82.6V56.4h4.67V78.59h12v4Z"/><path class="cls-1" d="M710.81,56.4V82.6h-4.68V56.4Z"/><path class="cls-1" d="M717.23,82.6V56.4H724l5.08,13.72c.17.5.36,1.12.59,1.85s.46,1.5.7,2.31.47,1.59.68,2.33.39,1.37.53,1.89h-1.11c.14-.5.31-1.13.52-1.87s.43-1.53.67-2.34.47-1.59.7-2.32.42-1.35.59-1.85l5-13.72h6.8V82.6h-4.6V69.27c0-.57,0-1.24,0-2s0-1.58.07-2.44,0-1.72.06-2.59,0-1.71,0-2.5h.53L740,62.44c-.28.92-.55,1.81-.82,2.67s-.52,1.64-.75,2.35-.43,1.32-.61,1.81l-5,13.33h-3.84l-5-13.33c-.17-.49-.38-1.09-.61-1.8S723,66,722.7,65.12l-.84-2.66q-.43-1.38-.87-2.73h.65c0,.78,0,1.61,0,2.48s0,1.74.06,2.6,0,1.66.07,2.43,0,1.45,0,2V82.6Z"/><path class="cls-1" d="M755.85,56.4V82.6h-4.68V56.4Z"/><path class="cls-1" d="M760.38,60.41v-4H781.3v4h-8.12V82.6H768.5V60.41Z"/><path class="cls-1" d="M795.16,83a13.2,13.2,0,0,1-5.5-1,8,8,0,0,1-3.56-3,8.76,8.76,0,0,1-1.26-4.71h4.57a4.85,4.85,0,0,0,.74,2.61,4.54,4.54,0,0,0,2,1.65,7.36,7.36,0,0,0,3,.57,7.86,7.86,0,0,0,2.84-.47,4.39,4.39,0,0,0,1.88-1.31,3.14,3.14,0,0,0,.68-2,2.64,2.64,0,0,0-.51-1.63,4,4,0,0,0-1.58-1.19,14.7,14.7,0,0,0-2.74-.89l-2.85-.67a12.16,12.16,0,0,1-5.64-2.62,6,6,0,0,1-1.85-4.51,7,7,0,0,1,1.21-4.1A8,8,0,0,1,790,57a12.1,12.1,0,0,1,5-1,11.67,11.67,0,0,1,5,1,7.88,7.88,0,0,1,3.32,2.83,8.19,8.19,0,0,1,1.25,4.34h-4.44a4.24,4.24,0,0,0-1.53-3.11A5.65,5.65,0,0,0,795,59.94a6.64,6.64,0,0,0-2.56.46,4.21,4.21,0,0,0-1.74,1.28,3,3,0,0,0-.62,1.86,2.47,2.47,0,0,0,.52,1.59,4.18,4.18,0,0,0,1.58,1.13,14.66,14.66,0,0,0,2.61.83l2.6.62a18.67,18.67,0,0,1,3.38,1.08,9.08,9.08,0,0,1,2.45,1.54,6,6,0,0,1,1.5,2.07,6.69,6.69,0,0,1,.51,2.67,7.28,7.28,0,0,1-1.21,4.2A7.79,7.79,0,0,1,800.53,82,13.51,13.51,0,0,1,795.16,83Z"/><path class="cls-1" d="M812.67,82.91a2.61,2.61,0,0,1-1.94-.8,2.76,2.76,0,1,1,1.94.8Z"/></g></g></svg>