<svg xmlns="http://www.w3.org/2000/svg" viewBox="0 0 490.98 73.17"><defs><style>.cls-1{fill:#fff;}</style></defs><g id="圖層_2" data-name="圖層 2"><g id="text"><path class="cls-1" d="M7.25,31.84l1.63.56a28.63,28.63,0,0,1-2.33,2.38c-.88.8-1.78,1.57-2.71,2.29A30.23,30.23,0,0,1,1.1,39a4.25,4.25,0,0,0-.52-.5C.35,38.28.16,38.13,0,38a22.62,22.62,0,0,0,2.78-1.84A29.7,29.7,0,0,0,5.35,34,14.26,14.26,0,0,0,7.25,31.84ZM.43,29.16H22.7v1.25H.43Zm1-24.88H21.5V5.53H1.39ZM4.08,9.76H19.73V30H18.34v-19H5.47V30H4.08Zm.38,14.69H19.3v1.3H4.46Zm.24-4.71H19.15V21H4.7Zm.1-4.92H19v1.25H4.8ZM11.52.13,13.1.35c-.16,1.06-.33,2.23-.52,3.49s-.38,2.5-.56,3.7-.36,2.24-.55,3.13l-1.34-.22c.19-.89.37-1.95.55-3.19s.34-2.49.5-3.76S11.46,1.11,11.52.13Zm3.22,32.44,1.1-.65a34.62,34.62,0,0,1,3,2,15.71,15.71,0,0,1,2.35,2.11l-1.06.82a21.68,21.68,0,0,0-2.37-2.16Q16.23,33.53,14.74,32.57Zm13.53-.17L29.9,33a20,20,0,0,1-2.54,2.25,27.77,27.77,0,0,1-3.14,2q-1.66.93-3.24,1.62a3.46,3.46,0,0,0-.48-.52,7.1,7.1,0,0,0-.58-.47,27.64,27.64,0,0,0,3.26-1.56,24.64,24.64,0,0,0,3-1.92A11.11,11.11,0,0,0,28.27,32.4ZM22.56,2.46h21V3.71h-21ZM24.24,9h17v21.6h-17Zm1.39,1.25v5.44H39.79V10.28Zm0,6.74v5.49H39.79V17Zm0,6.78v5.58H39.79V23.8Zm6.58-21,1.53.3c-.32,1.12-.63,2.31-.93,3.54a27,27,0,0,1-1,3.24l-1.39-.3c.23-.6.45-1.31.67-2.12s.44-1.62.65-2.46S32.11,3.44,32.21,2.81Zm2.21,30.41,1.15-.73c1,.51,2,1.1,3,1.75s2,1.29,2.88,1.94a25.54,25.54,0,0,1,2.21,1.75l-1.2.82A22.08,22.08,0,0,0,40.25,37c-.88-.65-1.83-1.3-2.86-2S35.38,33.74,34.42,33.22Z"/><path class="cls-1" d="M70.59,17.88l1.39.44a32.78,32.78,0,0,1-3.14,3.8,51.78,51.78,0,0,1-4,3.71A41.59,41.59,0,0,1,60.6,29a2.26,2.26,0,0,0-.43-.48c-.19-.17-.37-.31-.53-.43a39.56,39.56,0,0,0,4.2-3,38.79,38.79,0,0,0,3.87-3.56A23.89,23.89,0,0,0,70.59,17.88Zm-1.25-4.57,1.44.38a26.63,26.63,0,0,1-2.76,3,39.37,39.37,0,0,1-3.41,2.86,41.92,41.92,0,0,1-3.53,2.37l-.48-.45a3.84,3.84,0,0,0-.52-.45,41.16,41.16,0,0,0,3.48-2.27,37.81,37.81,0,0,0,3.28-2.68A18,18,0,0,0,69.34,13.31ZM60.89,2.16h41.28V3.41H60.89ZM63.2,6.35H99.48v6.26H63.2ZM64.59,7.6v3.72h33.5V7.6Zm1.63,16,1.44-1.3V39H66.22ZM79,13l1.39.35a28.39,28.39,0,0,1-3.75,5.33A31.07,31.07,0,0,1,72,23.07a2.92,2.92,0,0,0-.34-.24l-.48-.32a2.34,2.34,0,0,0-.43-.26,29.06,29.06,0,0,0,4.68-4.19A24.75,24.75,0,0,0,79,13ZM96,29.55h.34l.33-.09.87.61a16.16,16.16,0,0,1-4.64,3.54,35.45,35.45,0,0,1-6.36,2.57,62.15,62.15,0,0,1-7.32,1.73c-2.54.44-5,.8-7.51,1.06a4.31,4.31,0,0,0-.31-.57,2.65,2.65,0,0,0-.46-.56q3.6-.3,7.35-.93a69.15,69.15,0,0,0,7.17-1.57A35.46,35.46,0,0,0,91.61,33,14.44,14.44,0,0,0,96,29.85ZM82.88,26.7l1.53.34a22.59,22.59,0,0,1-4.87,4,38.25,38.25,0,0,1-6.41,3.17l-.55-.34-.65-.39a38.94,38.94,0,0,0,6.39-3.07A19,19,0,0,0,82.88,26.7Zm-7.92,2A22.23,22.23,0,0,0,79.88,32a46.27,46.27,0,0,0,6.55,2.66,70.19,70.19,0,0,0,7.53,2q3.95.8,7.83,1.23a3.61,3.61,0,0,0-.46.54c-.14.22-.26.41-.36.59q-3.89-.48-7.85-1.34a74.68,74.68,0,0,1-7.6-2.08,44.53,44.53,0,0,1-6.68-2.78,24.34,24.34,0,0,1-5.08-3.44ZM74.67,2.51h1.39V12H74.67Zm1.68,16.2H97.76v8.55H76.35Zm1.39-3.24h23.09v1.29H77.74ZM77.79,20v2.33H96.36V20Zm0,3.63V26H96.36V23.59Zm2.35,6H96.27V30.8H79Zm6.24-27h1.39V12H86.38Z"/><path class="cls-1" d="M120.6,8.17l1.35.21c-.1,1.1-.26,2.31-.48,3.65s-.51,2.67-.87,4a20,20,0,0,1-1.24,3.47l-1.4-.39a17.89,17.89,0,0,0,1.25-3.32c.35-1.27.65-2.57.89-3.91S120.51,9.29,120.6,8.17ZM125.4,0h1.44V38.88H125.4Zm3.27,7.26,1.15-.47a36.86,36.86,0,0,1,2.26,3.95,24.79,24.79,0,0,1,1.48,3.52l-1.24.69a20.14,20.14,0,0,0-.87-2.31c-.38-.88-.81-1.79-1.29-2.74S129.18,8.11,128.67,7.3ZM131.84,36h29v1.25h-29Zm7.34-34,1.44.26q-.76,3.07-1.82,6a58.49,58.49,0,0,1-2.31,5.51,32.78,32.78,0,0,1-2.69,4.6l-.38-.22c-.16-.09-.33-.16-.5-.24l-.46-.19a28.27,28.27,0,0,0,2.81-4.52,41.23,41.23,0,0,0,2.25-5.4A56.48,56.48,0,0,0,139.18,2.07Zm-3.74,19.75H159v1.25H135.44Zm2.11-12.19h22.51v1.3H137Zm9-9.5H148V36.68h-1.49Z"/><path class="cls-1" d="M181.43,15.25h1.39V26.78a34.6,34.6,0,0,1-.26,4.06,19.32,19.32,0,0,1-1,4.26,11.79,11.79,0,0,1-2.4,3.87,1,1,0,0,0-.22-.35l-.36-.37a1.47,1.47,0,0,0-.38-.28,10.43,10.43,0,0,0,2.16-3.54,17.39,17.39,0,0,0,.88-3.89,33.4,33.4,0,0,0,.22-3.76Zm-.58-4c0-.11-.08-.26-.14-.43s-.13-.35-.19-.54a3.58,3.58,0,0,0-.19-.45,2.55,2.55,0,0,0,1.1-.52,15.36,15.36,0,0,0,1.3-1.12c.35-.32.91-.91,1.68-1.75s1.6-1.84,2.49-3A37.6,37.6,0,0,0,189.35,0l1.49.65q-1.35,1.86-2.76,3.6T185.2,7.56a31.29,31.29,0,0,1-2.95,2.77v0c-.29.11-.52.21-.7.3a3.57,3.57,0,0,0-.48.28C180.93,11.05,180.85,11.15,180.85,11.23Zm0,0V10.11l1.25-.56,15.22-.82a2.27,2.27,0,0,0,.09.62,4,4,0,0,0,.2.54l-8.64.56c-2.15.15-3.77.27-4.88.37s-1.87.18-2.3.24A7.2,7.2,0,0,0,180.85,11.23Zm1.3,4h13.78V16.5H182.15ZM183,31.88q2.49-1,5.95-2.48c2.3-1,4.62-2,7-3.09l.33,1.17-6.43,2.95q-3.21,1.5-5.85,2.62Zm1.2-10.71.76-.91c1.09.46,2.24,1,3.44,1.56s2.33,1.13,3.4,1.68,2,1,2.67,1.47l-.77,1.08c-.7-.46-1.59-1-2.66-1.56s-2.21-1.16-3.41-1.74S185.25,21.63,184.17,21.17Zm11.18-5.92h1.39V36.72a2.48,2.48,0,0,1-.26,1.25,1.65,1.65,0,0,1-1,.65,11.9,11.9,0,0,1-2.28.2l-3.86,0a2.61,2.61,0,0,0-.22-.65,4.44,4.44,0,0,0-.36-.69c1.41,0,2.63,0,3.65,0s1.73,0,2.11,0a1,1,0,0,0,.68-.15.92.92,0,0,0,.14-.59ZM192.09,3.67l1.15-.56A40.15,40.15,0,0,1,196,6.22c.9,1.12,1.72,2.23,2.45,3.31a24.79,24.79,0,0,1,1.73,2.87l-1.2.69a19.64,19.64,0,0,0-1.68-2.94c-.74-1.09-1.55-2.21-2.45-3.35A40.81,40.81,0,0,0,192.09,3.67ZM202,0h1.39V15.08a2.3,2.3,0,0,0,.46,1.62,2.42,2.42,0,0,0,1.7.45h10.71c.48,0,1.09,0,1.82,0a16,16,0,0,0,1.68-.13c0,.2.07.42.12.65s.09.41.12.56c-.32,0-.81.06-1.46.08s-1.4.05-2.23.05H205.62a5.88,5.88,0,0,1-2.13-.31,2,2,0,0,1-1.13-1,4.62,4.62,0,0,1-.34-2Zm0,20h1.39v15.6a1.38,1.38,0,0,0,.6,1.3,6.46,6.46,0,0,0,2.67.34H217a3.07,3.07,0,0,0,1.8-.43,2.62,2.62,0,0,0,.81-1.77,34.91,34.91,0,0,0,.32-4,6,6,0,0,0,.72.32,3.8,3.8,0,0,0,.72.24,28,28,0,0,1-.48,4.26A3.22,3.22,0,0,1,219.66,38a4.76,4.76,0,0,1-2.61.58H206.77a15.57,15.57,0,0,1-2.88-.21,2.21,2.21,0,0,1-1.46-.84,3.41,3.41,0,0,1-.41-1.84Zm.53-13.17h15v1.3h-15Zm0,19.18h15.69v1.34H202.6Z"/><path class="cls-1" d="M268.86,67q2.55-.69,6-1.77l7.08-2.25.19,1.25-6.74,2.16-6,2Zm.53-29.38h12.77v1.3H269.39ZM270,50.14h11.47v1.3H270Zm5.28-12h1.39V65.35l-1.39.52Zm21.69,20.82,1.15.56a23.88,23.88,0,0,1-4.27,3.24,46.67,46.67,0,0,1-5.42,2.88,44.52,44.52,0,0,1-5.43,2,3.3,3.3,0,0,0-.4-.56,3.66,3.66,0,0,0-.51-.48,39.49,39.49,0,0,0,5.47-1.88,39.69,39.69,0,0,0,5.33-2.7A20.61,20.61,0,0,0,296.94,58.91ZM283.55,47.29h28.61v1.25H283.55Zm2.3-11.49h24.63v8.55H285.85Zm1.44,1.25V43.1h6.1V37.05Zm0,14.69h21.46v8.34H287.29Zm1.59,21.13a3.35,3.35,0,0,0-.34-.69,4.06,4.06,0,0,0-.48-.65,3.16,3.16,0,0,0,.87-.69,2.57,2.57,0,0,0,.48-1.73v-4.8L290.8,64V71.1a10.2,10.2,0,0,0-1,.62,4.91,4.91,0,0,0-.67.58A.84.84,0,0,0,288.88,72.87ZM288.69,53v5.74h18.67V53Zm.19,19.83V71.74l1-.73,10.22-2.46c0,.14,0,.32,0,.54a3.46,3.46,0,0,0,.08.54l-5.74,1.51c-1.42.37-2.51.67-3.26.88s-1.29.39-1.61.52A6.74,6.74,0,0,0,288.88,72.87Zm5.9-35.82V43.1h6.39V37.05Zm4.13,22.12a19.88,19.88,0,0,0,3.14,5.42,20.82,20.82,0,0,0,11.12,7.07,3.75,3.75,0,0,0-.56.49,2.32,2.32,0,0,0-.45.63,22,22,0,0,1-14.45-13.26Zm11.18,2,1.16.87q-1.83,1.2-4.18,2.46t-4.32,2.12l-1-.65c.86-.43,1.81-.93,2.83-1.49s2-1.14,3-1.73S309.42,61.66,310.09,61.2Zm-7.53-24.15V43.1H309V37.05Z"/><path class="cls-1" d="M340.09,34.33l1.4.35a59.61,59.61,0,0,1-3.77,7,58.5,58.5,0,0,1-4.59,6.37,53.92,53.92,0,0,1-5,5.34c-.06-.09-.16-.2-.28-.35l-.39-.41a2.15,2.15,0,0,0-.38-.32,41.47,41.47,0,0,0,5-5.08,56.24,56.24,0,0,0,4.49-6.18A48.16,48.16,0,0,0,340.09,34.33Zm-5.37,10.33,1.34-1.21.1,0V73h-1.44Zm5.09,10.84h31.58v1.25H339.81Zm9.36,4.1,1.34.44c-.86,1.21-1.82,2.46-2.86,3.75s-2.08,2.55-3.14,3.74-2.08,2.27-3.07,3.22l-.31-.26c-.15-.11-.3-.22-.46-.32s-.31-.18-.43-.24a60.43,60.43,0,0,0,4.7-4.9A66.23,66.23,0,0,0,349.17,59.6Zm-5.43-23.24h24.43V49H343.74Zm1.39,1.26V47.68h21.65V37.62Zm10,10.92h1.44V73.13h-1.44Zm5.23,11.67,1.15-.61q1.77,1.6,3.62,3.48c1.23,1.25,2.38,2.48,3.44,3.67a37.66,37.66,0,0,1,2.54,3.18l-1.25.78a35.92,35.92,0,0,0-2.54-3.26c-1.06-1.23-2.19-2.47-3.39-3.74S361.58,61.27,360.4,60.21Z"/><path class="cls-1" d="M397.33,33.81l1.11.65a42.57,42.57,0,0,1-2.93,5.68,53.69,53.69,0,0,1-3.67,5.29A36.34,36.34,0,0,1,388,49.67c-.12-.2-.28-.42-.45-.65s-.35-.43-.51-.6a28.45,28.45,0,0,0,3.89-4,51.07,51.07,0,0,0,3.6-5.14A41.59,41.59,0,0,0,397.33,33.81Zm-8.44,20.35h15.16v1.38H388.89Zm1.63,9.12.91-1a44.87,44.87,0,0,1,3.62,2.85c1.23,1.06,2.4,2.14,3.51,3.22a26.94,26.94,0,0,1,2.71,3l-1,1.08a27,27,0,0,0-2.64-3q-1.64-1.67-3.5-3.31A45,45,0,0,0,390.52,63.28Zm.81-15.64h11.72v1.29H391.33Zm12.15,6.52h.29l.28-.09,1.11.61a39.1,39.1,0,0,1-2.43,4.84q-1.46,2.5-3,4.69a44.14,44.14,0,0,1-2.78,3.6,3.42,3.42,0,0,0-.36-.43l-.41-.41a2.58,2.58,0,0,0-.38-.32,18.47,18.47,0,0,0,2-2.36c.72-1,1.44-2,2.16-3.13s1.38-2.25,2-3.39a31.25,31.25,0,0,0,1.49-3.18ZM396.09,37l1.1-.73q1.72,1.59,3.48,3.5t3.22,3.69a27.54,27.54,0,0,1,2.28,3.17l-1.11,1a31.14,31.14,0,0,0-2.33-3.26c-1-1.22-2-2.47-3.19-3.76S397.24,38.11,396.09,37Zm17.8,29.81,1.59.6a20.56,20.56,0,0,1-2.55,2.16,33.24,33.24,0,0,1-3.12,2,27.15,27.15,0,0,1-3.21,1.58,6.66,6.66,0,0,0-.53-.52,5.72,5.72,0,0,0-.58-.47,32.11,32.11,0,0,0,3.27-1.54,25.59,25.59,0,0,0,3-1.88A11.17,11.17,0,0,0,413.89,66.82Zm-6.76-30.28h23.32v1.25H407.13Zm1.87,6.6h20V65.31H409Zm1.39,1.26V50h17.18V44.4Zm0,6.91V57h17.18v-5.7Zm0,6.95v5.79h17.18V58.26Zm7.82-21.38,1.54.26c-.32,1.15-.67,2.34-1,3.56s-.73,2.3-1.08,3.22l-1.35-.3c.23-.6.46-1.31.7-2.12s.47-1.62.7-2.44S418.09,37.51,418.21,36.88Zm3.6,30.8L423,67c.93.52,1.88,1.1,2.86,1.73s1.91,1.26,2.81,1.88a19.17,19.17,0,0,1,2.21,1.75l-1.3.78a23.58,23.58,0,0,0-2.11-1.75c-.87-.65-1.79-1.3-2.79-1.95S422.74,68.2,421.81,67.68Z"/><path class="cls-1" d="M451.18,39.65h1.4V55.59q0,2-.15,4.32a42.13,42.13,0,0,1-.55,4.64,26.35,26.35,0,0,1-1.2,4.54,15.63,15.63,0,0,1-2.14,4,1.08,1.08,0,0,0-.31-.26l-.45-.28a1.46,1.46,0,0,0-.44-.19,16,16,0,0,0,2.57-5.29,31.41,31.41,0,0,0,1-5.86c.16-2,.24-3.86.24-5.61Zm-3.74,14.47,5.64-.52,6.82-.67,7.36-.76v1.21q-3.54.34-7.1.74c-2.37.26-4.62.49-6.74.71s-4,.43-5.74.63Zm4.27-14.47h11.52v1.29H451.71ZM457.14,34l1.53.47c-.38,1-.81,2-1.27,3.14s-.89,2-1.27,2.78l-1.2-.39c.38-.8.79-1.79,1.22-3S456.91,34.89,457.14,34ZM455,57.49l1.16-.48c.73,1.1,1.49,2.29,2.28,3.59a33.62,33.62,0,0,1,1.8,3.32l-1.25.52a30.44,30.44,0,0,0-1.73-3.35C456.51,59.78,455.76,58.58,455,57.49Zm.05-13.27,1.2-.43c.61,1,1.23,2.11,1.88,3.31a29.27,29.27,0,0,1,1.43,3l-1.2.52A29.94,29.94,0,0,0,457,47.55C456.34,46.34,455.71,45.23,455.07,44.22Zm7.54-4.57H464V70.32a1.94,1.94,0,0,1-.29,1.16,1.85,1.85,0,0,1-.91.61,9.7,9.7,0,0,1-2,.21c-.88,0-2.09,0-3.63,0a2.31,2.31,0,0,0-.24-.63,3.9,3.9,0,0,0-.38-.62c1.28,0,2.38,0,3.31,0s1.55,0,1.87,0a1.52,1.52,0,0,0,.68-.18.65.65,0,0,0,.19-.56Zm7.92,8.59H472V58a33.54,33.54,0,0,1-.41,5A19.93,19.93,0,0,1,470,68.24,14.06,14.06,0,0,1,466.4,73a1.57,1.57,0,0,0-.29-.28l-.38-.3a.88.88,0,0,0-.39-.19,13.6,13.6,0,0,0,3.41-4.54,17.7,17.7,0,0,0,1.44-5,35.08,35.08,0,0,0,.34-4.73ZM467,41h22.27v1.25H467Zm4.32,7.25h12.52v1.3H471.3Zm2.83-13.52,1.25-.43a32.7,32.7,0,0,1,2.47,3.65,20.39,20.39,0,0,1,1.65,3.39l-1.39.56a21.31,21.31,0,0,0-1.61-3.47A30.22,30.22,0,0,0,474.13,34.72ZM483,48.24h1.44V68.63a12,12,0,0,0,.07,1.51c0,.38.14.6.27.65a1.78,1.78,0,0,0,1.05.22h1.78a4.08,4.08,0,0,0,.77-.07,1.4,1.4,0,0,0,.57-.19c.29-.14.48-.53.58-1.17a17.36,17.36,0,0,0,.14-1.79c0-.79.07-1.75.1-2.87.19.11.39.22.6.32a3.61,3.61,0,0,0,.65.24c0,1,0,1.92-.08,2.92a10.83,10.83,0,0,1-.21,2,2.2,2.2,0,0,1-1,1.47,3.06,3.06,0,0,1-.84.28,4.65,4.65,0,0,1-1.08.11H485.7a4.71,4.71,0,0,1-1.06-.11,3.08,3.08,0,0,1-1-.36,1.56,1.56,0,0,1-.58-1,16.61,16.61,0,0,1-.14-2.7Z"/></g></g></svg>