<svg xmlns="http://www.w3.org/2000/svg" viewBox="0 0 338.17 72.48"><defs><style>.cls-1{fill:#fff;}</style></defs><g id="圖層_2" data-name="圖層 2"><g id="text"><path class="cls-1" d="M8.17,15.84h.25l.26,0,.61.23a22.1,22.1,0,0,1-3.22,8.32A16.76,16.76,0,0,1,.83,29.45a1,1,0,0,0-.22-.27,4,4,0,0,0-.3-.28A1.18,1.18,0,0,0,0,28.71a15.71,15.71,0,0,0,5.11-4.83A20.52,20.52,0,0,0,8.17,16.1ZM.94,17.2a1.66,1.66,0,0,0-.17-.38c-.08-.16-.16-.31-.23-.47A1.31,1.31,0,0,0,.32,16a4.46,4.46,0,0,0,.78-.29,3.12,3.12,0,0,0,.84-.61A15.88,15.88,0,0,0,3.2,13.72c.56-.64,1.15-1.34,1.79-2.12s1.23-1.52,1.78-2.24S7.74,8.09,8,7.68V7.61l.54-.22.93.45c-.43.54-1,1.19-1.58,1.94s-1.28,1.54-2,2.34l-2,2.3c-.66.73-1.26,1.36-1.79,1.88-.24.11-.43.21-.59.3a3.64,3.64,0,0,0-.41.3A.39.39,0,0,0,.94,17.2ZM.54,7.55H8.68v1H.54Zm.4,9.65v-.94l1-.42H8.57v.94H3a6.59,6.59,0,0,0-1.33.13A2,2,0,0,0,.94,17.2ZM2.23.88,3.1.49C3.62,1,4.17,1.6,4.73,2.22S5.83,3.43,6.34,4A13.93,13.93,0,0,1,7.52,5.51L6.66,6A18.64,18.64,0,0,0,5.44,4.46L3.85,2.61C3.3,2,2.76,1.39,2.23.88ZM6.08,23.17a7.89,7.89,0,0,0,3.39,3.09,15.56,15.56,0,0,0,5.15,1.34,64.28,64.28,0,0,0,6.91.33l3.94,0c1.38,0,2.74-.06,4.07-.12s2.54-.11,3.62-.18a1.32,1.32,0,0,0-.2.33,3.12,3.12,0,0,0-.15.39c0,.13-.06.25-.09.35-1,0-2.11.09-3.38.13s-2.57.07-3.91.08l-3.87,0c-2.11,0-4-.06-5.72-.19A23.61,23.61,0,0,1,11.3,28a11.18,11.18,0,0,1-3.45-1.59,8.92,8.92,0,0,1-2.52-2.72ZM13.14,3.73h1V24.56h-1Zm.5,11.89H30.49v8.91H13.64v-.94H29.45v-7H13.64Zm0-11.89H29.05v7.84H13.68v-1H28V4.67H13.68ZM20.7,0l1,.32c-.28.7-.58,1.41-.9,2.16a17.57,17.57,0,0,1-.93,1.93L19,4.11q.41-.84.9-2A19.21,19.21,0,0,0,20.7,0Z"/><path class="cls-1" d="M44.36,21.22H76.8v1H44.36ZM44.9,5.64H71.29v1H44.9Zm.22,12.63L49.2,18c1.55-.12,3.2-.26,4.95-.43l5.33-.47V18l-7.63.7-6.55.6Zm.86-5.6H58.55v.94H46ZM49.91,1.88H71.76V10.4H49.69V9.46h21V2.82H49.91Zm.32,21.64.72-.68c.79.37,1.6.79,2.43,1.27s1.6,1,2.3,1.45A13.16,13.16,0,0,1,57.4,27l-.76.71A15.27,15.27,0,0,0,55,26.26a28.34,28.34,0,0,0-4.72-2.74Zm1.51-10.43h1v5h-1Zm16.2,5.41h1v9.33a1.47,1.47,0,0,1-.24.92,1.35,1.35,0,0,1-.88.44,12.9,12.9,0,0,1-2.14.15H61.68a2.52,2.52,0,0,0-.16-.4l-.27-.47,2.71.05h2l1.13,0a1.54,1.54,0,0,0,.67-.19.6.6,0,0,0,.16-.49Zm-6.26-5.83H74.31v6H61.68Zm1.08.94v4.14H73.27V13.61Zm8.46-8h5.25v1H71.22Z"/><path class="cls-1" d="M89.76,22.62h31.46v.93H89.76Zm4-15.14h23.72V19H93.79Zm1,1v4.27h21.64V8.46Zm0,5.21v4.38h21.64V13.67ZM104.52.13h1v8h-1Zm.28,18.43h1.08V29.29H104.8Zm.29-15.45h15v.94h-15Z"/><path class="cls-1" d="M135.94,14.61l1,0c0,1.49-.07,3.1-.2,4.82a29.31,29.31,0,0,1-.87,5.12,14.68,14.68,0,0,1-2.1,4.64L133.5,29l-.29-.19a.81.81,0,0,0-.29-.13,15,15,0,0,0,2-4.52,28.63,28.63,0,0,0,.84-5C135.91,17.55,136,16,135.94,14.61Zm-2.66-3.5h15.41v.94H133.28Zm1.51-6.41h13.07v.94H134.79ZM136.7,19a13.72,13.72,0,0,0,2,4.21,8.53,8.53,0,0,0,3,2.59A13.81,13.81,0,0,0,146,27.15a39.38,39.38,0,0,0,5.94.39H166a1.13,1.13,0,0,0-.21.28,4,4,0,0,0-.2.35,2.33,2.33,0,0,0-.13.31H152a43.85,43.85,0,0,1-6.41-.41,14.3,14.3,0,0,1-4.57-1.4,9.06,9.06,0,0,1-3.13-2.78,15.3,15.3,0,0,1-2.09-4.48ZM140.84.13h1V11.57h-1Zm.36,11.76h1V26.47h-1Zm.54,5.57h6.55v.94h-6.55Zm7.06,4.9a1.39,1.39,0,0,0-.15-.3l-.23-.34c-.09-.11-.16-.22-.24-.3a4.73,4.73,0,0,0,.94-.64,1.67,1.67,0,0,0,.57-1.37V6.61h1.05V20.9c-.39.21-.71.4-1,.55a4.36,4.36,0,0,0-.69.47A.64.64,0,0,0,148.8,22.36Zm0,0v-1l.64-.71,6.91-3.24c.05.13.11.27.17.44a1.57,1.57,0,0,0,.16.34l-4,2c-1,.5-1.75.89-2.27,1.17s-.89.49-1.11.63A2.41,2.41,0,0,0,148.8,22.36Zm.89-16.11h16.24v.94H149.69ZM163.81,10l.9.23a31.27,31.27,0,0,1-2.86,6.49,27.13,27.13,0,0,1-4.11,5.38,20.76,20.76,0,0,1-5.06,3.81,3.12,3.12,0,0,0-.36-.42,3.06,3.06,0,0,0-.39-.36,18.08,18.08,0,0,0,5-3.58A26.8,26.8,0,0,0,161,16.3,30.83,30.83,0,0,0,163.81,10ZM157,.16h1.08c0,3,.12,5.76.3,8.26s.44,4.75.78,6.71a33.27,33.27,0,0,0,1.18,5,10.62,10.62,0,0,0,1.52,3.1,2.29,2.29,0,0,0,1.76,1.07c.41,0,.7-.44.88-1.33a28.79,28.79,0,0,0,.38-4.25,3.87,3.87,0,0,0,.5.26,4,4,0,0,0,.51.2,30.68,30.68,0,0,1-.34,3.59,4.28,4.28,0,0,1-.71,1.92,1.58,1.58,0,0,1-1.29.58,3,3,0,0,1-2.3-1.18,10.66,10.66,0,0,1-1.79-3.41,32.46,32.46,0,0,1-1.29-5.32q-.52-3.12-.81-6.94C157.13,5.84,157,3.1,157,.16Zm2.95.84.83-.45q1,.94,2.19,2.07c.77.76,1.37,1.39,1.8,1.88l-.75.62c-.46-.54-1.08-1.2-1.86-2S160.61,1.63,159.92,1Z"/><path class="cls-1" d="M176,44.68h26.43V54.89h-1.08V45.62H177V55h-1ZM178.66,57h21.13v15.2h-1V57.9h-19V72.25h-1.05Zm.58,4.15h20v1h-20Zm0,4.21h20v.94h-20Zm0,4.24h20v1h-20Zm.54-21h18.93v1H179.78Zm.11,4.17h18.79v.94H179.89Z"/><path class="cls-1" d="M217.64,44.49h8v.93h-6.88V72.25h-1.08Zm7.67,0h.21l.22-.07.68.45c-.57,1.28-1.21,2.65-1.9,4.12s-1.4,2.87-2.09,4.21a12.68,12.68,0,0,1,3,3.95,8.89,8.89,0,0,1,.77,3.44,6.64,6.64,0,0,1-.28,2,2.34,2.34,0,0,1-1,1.34,2.14,2.14,0,0,1-.75.33c-.29.06-.6.12-.94.16s-.8,0-1.24,0-.86,0-1.24,0a2.87,2.87,0,0,0-.15-.44,1.89,1.89,0,0,0-.28-.5l1.44.05c.45,0,.85,0,1.18,0a3.49,3.49,0,0,0,1.3-.32,1.65,1.65,0,0,0,.68-1.06,6.16,6.16,0,0,0,.18-1.5,8.05,8.05,0,0,0-.81-3.31,13.28,13.28,0,0,0-3.18-4c.41-.76.8-1.52,1.19-2.28l1.11-2.27c.36-.75.7-1.46,1-2.16s.59-1.33.83-1.91Zm6.15,18.69,1.08.19a15.15,15.15,0,0,1-3,5.24,19.52,19.52,0,0,1-4.47,3.77,1.23,1.23,0,0,0-.23-.22l-.34-.25-.33-.21a16.5,16.5,0,0,0,4.45-3.58A14.26,14.26,0,0,0,231.46,63.18Zm5.33-20.12,1.08.26a25.19,25.19,0,0,1-4.5,4.78,33.06,33.06,0,0,1-6.12,4A.76.76,0,0,0,227,52a3.07,3.07,0,0,1-.31-.17,1.69,1.69,0,0,0-.29-.17,29.6,29.6,0,0,0,4.25-2.49,28.58,28.58,0,0,0,3.57-2.95A17.45,17.45,0,0,0,236.79,43.06Zm-8.67,11.57h7.45v7.45h-7.45Zm1.08.94v5.54h5.32V55.57Zm1.29,11.21.72-.59a28.56,28.56,0,0,1,2.68,1.69A14.51,14.51,0,0,1,236,69.6l-.72.71a17,17,0,0,0-2.12-1.78A27.58,27.58,0,0,0,230.49,66.78Zm.94-16.27h10.94v1H231.43Zm10.15,12.64,1.12.16a14.63,14.63,0,0,1-2.36,5.18,15.22,15.22,0,0,1-3.91,3.73c-.05,0-.12-.11-.23-.19s-.22-.18-.34-.26l-.33-.23a12.57,12.57,0,0,0,3.84-3.48A14.1,14.1,0,0,0,241.58,63.15Zm-4.86-19a14.29,14.29,0,0,0,2.36,1.93,35.31,35.31,0,0,0,3.08,1.84c1.1.6,2.22,1.14,3.34,1.64s2.2.93,3.21,1.3a2.77,2.77,0,0,0-.29.22l-.27.25a1,1,0,0,0-.2.21c-1.32-.54-2.74-1.19-4.26-1.93a46.67,46.67,0,0,1-4.36-2.42,19.55,19.55,0,0,1-3.4-2.59Zm1.69,10.5H246v7.45h-7.63Zm1.05.94v5.54H245V55.57Zm1.22,11.24.72-.62c.86.46,1.75,1,2.66,1.57s1.77,1.18,2.56,1.75a16.87,16.87,0,0,1,1.91,1.58l-.72.74c-.51-.47-1.15-1-1.93-1.6s-1.62-1.2-2.54-1.8S241.54,67.28,240.68,66.81Z"/><path class="cls-1" d="M269.15,43.12l1,.26a28,28,0,0,1-2.27,3.44A32.1,32.1,0,0,1,265.13,50a29.65,29.65,0,0,1-3,2.62,1.23,1.23,0,0,0-.23-.22l-.34-.26a1.45,1.45,0,0,0-.33-.19A26.71,26.71,0,0,0,265.67,48,23.38,23.38,0,0,0,269.15,43.12Zm-7.78,19.7H293v1H261.37ZM262.74,55H292.3v1H262.74Zm3.38,10.85.94.2c-.26.65-.58,1.35-.94,2.1s-.73,1.5-1.13,2.21a16.18,16.18,0,0,1-1.24,1.91l-.94-.29a16.54,16.54,0,0,0,1.26-1.85c.41-.69.79-1.41,1.15-2.15A22.43,22.43,0,0,0,266.12,65.8Zm.8-18.63h24.8v1H266.16Zm.61,3.5h1V63.41h-1Zm4.61,15.65,1,0a27.1,27.1,0,0,1,.59,3A22.5,22.5,0,0,1,274,71.9l-1,.13a16.36,16.36,0,0,0-.11-1.72c-.07-.65-.16-1.32-.27-2A19.84,19.84,0,0,0,272.14,66.32Zm1.47-15.65h1.05V63.25h-1.05Zm6.05,15.59,1-.2c.36.61.71,1.26,1.05,2s.63,1.39.9,2a12.8,12.8,0,0,1,.57,1.73l-1,.26a25.2,25.2,0,0,0-1-2.77A28.48,28.48,0,0,0,279.66,66.26Zm.58-15.59h1.08V63.41h-1.08Zm6.37,0h1V63.41h-1ZM287.18,66l1-.2c.43.63.87,1.31,1.3,2s.84,1.45,1.22,2.15.7,1.3.94,1.8l-1,.36a17.78,17.78,0,0,0-.9-1.85c-.38-.71-.79-1.45-1.22-2.21S287.62,66.65,287.18,66Z"/><path class="cls-1" d="M319.23,55.7l.9.42a19.33,19.33,0,0,1-3.65,3.27,33.16,33.16,0,0,1-4.75,2.77,41,41,0,0,1-5,2,1.49,1.49,0,0,0-.2-.31l-.27-.29a2.82,2.82,0,0,0-.29-.24,30.34,30.34,0,0,0,5-1.81,33.21,33.21,0,0,0,4.68-2.66A18.11,18.11,0,0,0,319.23,55.7Zm-3.42,5.5h1V63a12.77,12.77,0,0,1-.23,2.42,7.79,7.79,0,0,1-1,2.49,9.2,9.2,0,0,1-2.23,2.43,16.06,16.06,0,0,1-4.05,2.19,1,1,0,0,0-.22-.26,2.91,2.91,0,0,0-.27-.24,1.39,1.39,0,0,0-.27-.21,15.74,15.74,0,0,0,3.94-2,8.1,8.1,0,0,0,2.16-2.26,6.64,6.64,0,0,0,.9-2.32,13.2,13.2,0,0,0,.2-2.19Zm-5.76-17.07h23.73V56.31H310.05Zm1.05,1v4.63h21.63V45.1Zm0,5.57v4.7h21.63v-4.7Zm10.22-6h1.08V56h-1.08ZM325,55.66a16.35,16.35,0,0,0,3.49,3.16,26.78,26.78,0,0,0,4.66,2.59,30,30,0,0,0,5.06,1.74,2.12,2.12,0,0,0-.25.26l-.27.3-.24.28a35.44,35.44,0,0,1-5.06-1.9,29,29,0,0,1-4.75-2.73A18,18,0,0,1,324,56.05Zm2.77,5.48h1V72.28h-1Z"/></g></g></svg>