<svg xmlns="http://www.w3.org/2000/svg" viewBox="0 0 208.63 72.09"><defs><style>.cls-1{fill:#fff;}</style></defs><g id="圖層_2" data-name="圖層 2"><g id="text"><path class="cls-1" d="M68.23,59.82h31.93v1H68.23Zm2.34-7.65H98.22v.94H70.57Zm24.84-9.11.86.75a42.2,42.2,0,0,1-5,1.17q-3,.51-6.41.89c-2.29.25-4.62.45-7,.61s-4.61.29-6.77.38c0-.13-.06-.28-.1-.44a3.68,3.68,0,0,0-.15-.41c2.11-.1,4.34-.24,6.68-.4s4.64-.36,6.89-.6,4.34-.52,6.25-.84A34.11,34.11,0,0,0,95.41,43.06ZM83.64,45.4h1.08V70a1.69,1.69,0,0,1-.38,1.24,2.23,2.23,0,0,1-1.1.54,17.16,17.16,0,0,1-2.41.16c-1.1,0-2.64,0-4.61,0a2.13,2.13,0,0,0-.12-.31l-.18-.35a2.09,2.09,0,0,0-.2-.31l3.09,0h2.38c.65,0,1.1,0,1.37,0a1.43,1.43,0,0,0,.84-.23.88.88,0,0,0,.24-.71Z"/><path class="cls-1" d="M121.47,42.9l1.26.2a22.72,22.72,0,0,1-3.34,4.65,29.52,29.52,0,0,1-5.28,4.5A35.13,35.13,0,0,1,106.89,56a1,1,0,0,0-.21-.26,3.38,3.38,0,0,1-.27-.26,1.11,1.11,0,0,0-.27-.19,34.75,34.75,0,0,0,7.11-3.6,27.77,27.77,0,0,0,5.15-4.36A18.45,18.45,0,0,0,121.47,42.9ZM106.64,63.41h31.47v.94H106.64Zm.43-16.78h30.64v1H107.07Zm3.21,24.46a3.19,3.19,0,0,1-.09-.34c0-.14-.08-.28-.13-.42a1.2,1.2,0,0,0-.18-.34,2.23,2.23,0,0,0,.92-.31,8.49,8.49,0,0,0,1.06-.73,15.69,15.69,0,0,0,1.41-1.12c.64-.55,1.36-1.2,2.14-2a25.77,25.77,0,0,0,2.14-2.33l1,.52q-1.75,1.88-3.6,3.53a27.5,27.5,0,0,1-3.67,2.82v0a3.57,3.57,0,0,0-.52.2,2.12,2.12,0,0,0-.36.21A.29.29,0,0,0,110.28,71.09Zm0,0v-.74l1.08-.49,20.7-1.17a3.63,3.63,0,0,0,.27.42,3.86,3.86,0,0,0,.3.39l-9.93.59q-4,.22-6.34.39l-3.6.25c-.81.07-1.39.13-1.73.18A5.2,5.2,0,0,0,110.28,71.09Zm3.85-19.18H130.8v1H115.17V63.83h-1Zm.25,3.79h16.67v.94H114.38Zm0,3.76h16.67v1H114.38Zm11.7-12.6A23.55,23.55,0,0,0,129.59,50a36.93,36.93,0,0,0,4.5,2.86,32.48,32.48,0,0,0,4.56,2l-.27.24a2.69,2.69,0,0,0-.29.3c-.09.09-.16.18-.24.27a34.77,34.77,0,0,1-4.5-2.15,42.89,42.89,0,0,1-4.55-3,25.56,25.56,0,0,1-3.65-3.29Zm1.73,19,.83-.45c.81.62,1.66,1.31,2.54,2.06s1.7,1.47,2.48,2.18,1.42,1.34,1.93,1.88l-.87.58c-.5-.54-1.14-1.17-1.91-1.89s-1.59-1.47-2.46-2.24S128.63,66.49,127.81,65.84Z"/><path class="cls-1" d="M14,33.75a15.54,15.54,0,0,1-7.42-1.68,11.9,11.9,0,0,1-4.86-4.7,14.1,14.1,0,0,1-1.71-7,20.89,20.89,0,0,1,5.42-14A19.81,19.81,0,0,1,11.63,1.7a18.56,18.56,0,0,1,8-1.7A17.29,17.29,0,0,1,25,.8a12.48,12.48,0,0,1,4.2,2.28,10.38,10.38,0,0,1,2.73,3.49,10.28,10.28,0,0,1,1,4.46H28.42a7.75,7.75,0,0,0-.76-3,7.08,7.08,0,0,0-1.82-2.3,7.94,7.94,0,0,0-2.77-1.5,11.92,11.92,0,0,0-3.61-.52,13.59,13.59,0,0,0-6.23,1.41A15,15,0,0,0,8.47,8.92a17.84,17.84,0,0,0-4.1,11.29A9.76,9.76,0,0,0,7,27.38,9.69,9.69,0,0,0,14.16,30,13.91,13.91,0,0,0,20,28.76a13.14,13.14,0,0,0,4.64-3.47,10.83,10.83,0,0,0,2.43-5.12l1.37.22H17.55l.66-3.54H32.1l-.68,3.69a14.61,14.61,0,0,1-2.11,5.31,16.34,16.34,0,0,1-3.93,4.2,18.12,18.12,0,0,1-5.28,2.73A19.12,19.12,0,0,1,14,33.75Z"/><path class="cls-1" d="M40.2,33.24,46.23.5h4.44L45.28,29.68H62.66L62,33.24Z"/><path class="cls-1" d="M84.36,33.75A15.49,15.49,0,0,1,77,32.08a11.74,11.74,0,0,1-4.82-4.7,14.27,14.27,0,0,1-1.7-7.08,20.49,20.49,0,0,1,1.41-7.49,21.13,21.13,0,0,1,4-6.53,19.21,19.21,0,0,1,6.22-4.59A18.46,18.46,0,0,1,90,0,15.24,15.24,0,0,1,97.4,1.68a12,12,0,0,1,4.83,4.7,14.18,14.18,0,0,1,1.71,7.09A20.52,20.52,0,0,1,102.52,21a21.05,21.05,0,0,1-4,6.52,19.4,19.4,0,0,1-6.2,4.57A18.48,18.48,0,0,1,84.36,33.75ZM84.53,30a13.57,13.57,0,0,0,6.19-1.39,14.71,14.71,0,0,0,4.74-3.76,17.12,17.12,0,0,0,3-5.32,17.69,17.69,0,0,0,1.07-6,10.55,10.55,0,0,0-1.26-5.36,8.25,8.25,0,0,0-3.44-3.29,10.92,10.92,0,0,0-5-1.11,13.51,13.51,0,0,0-6.21,1.41,14.79,14.79,0,0,0-4.74,3.78,17.44,17.44,0,0,0-3,5.33,17.67,17.67,0,0,0-1.07,6,10.43,10.43,0,0,0,1.26,5.33,8.22,8.22,0,0,0,3.46,3.28A10.74,10.74,0,0,0,84.53,30Z"/><path class="cls-1" d="M120,33.24,112.56.5h4.49l4.23,19.67c.23,1.13.5,2.59.83,4.37s.72,4.05,1.19,6.77h-1.14c1.43-2.72,2.64-5,3.62-6.79s1.8-3.25,2.43-4.35L139.47.5h4.83L125,33.24Z"/><path class="cls-1" d="M147.07,33.24,153.1.5h23.31l-.66,3.56H156.88l-1.95,10.71h17.5l-.66,3.53H154.25l-2.1,11.38h18.92l-.64,3.56Z"/><path class="cls-1" d="M192.12,33.77a17,17,0,0,1-7-1.3,8.4,8.4,0,0,1-4.15-3.69,8.5,8.5,0,0,1-.72-5.64h4.49a6.15,6.15,0,0,0,.45,3.79,5.24,5.24,0,0,0,2.63,2.39,10.94,10.94,0,0,0,4.51.83,15,15,0,0,0,4.83-.74,9.22,9.22,0,0,0,3.54-2.09,5.74,5.74,0,0,0,1.69-3.13,3.27,3.27,0,0,0-.3-2.35,4.73,4.73,0,0,0-2-1.68,17.75,17.75,0,0,0-3.82-1.29l-4-1q-5-1.21-7.17-3.28a5.68,5.68,0,0,1-1.52-5.49A9.54,9.54,0,0,1,186,4.32a12.72,12.72,0,0,1,4.87-3.19A18.67,18.67,0,0,1,197.49,0a15.18,15.18,0,0,1,6.41,1.22,8.12,8.12,0,0,1,3.85,3.43,8,8,0,0,1,.75,5.22h-4.34a5.08,5.08,0,0,0-1.59-4.58,8,8,0,0,0-5.42-1.64,12.75,12.75,0,0,0-4.39.72,8.91,8.91,0,0,0-3.26,2,5.52,5.52,0,0,0-1.6,2.92,3,3,0,0,0,.39,2.28,4.87,4.87,0,0,0,2.09,1.59,21.7,21.7,0,0,0,3.7,1.21l3.85.94A23,23,0,0,1,202,16.64a10.79,10.79,0,0,1,3,1.9,6,6,0,0,1,1.65,2.56,6.81,6.81,0,0,1,.14,3.33,9.66,9.66,0,0,1-2.48,4.88,13.16,13.16,0,0,1-5.08,3.29A20,20,0,0,1,192.12,33.77Z"/></g></g></svg>