<svg xmlns="http://www.w3.org/2000/svg" viewBox="0 0 237.81 71.69"><defs><style>.cls-1{fill:#fff;}</style></defs><g id="圖層_2" data-name="圖層 2"><g id="text"><path class="cls-1" d="M87.38,43.66h1v11.5c0,1.24,0,2.56-.1,4s-.21,2.85-.42,4.31a31.27,31.27,0,0,1-.9,4.3,18.62,18.62,0,0,1-1.56,3.88,3.15,3.15,0,0,0-.27-.19l-.35-.2a1.28,1.28,0,0,0-.32-.12,16.66,16.66,0,0,0,1.58-3.78,27.26,27.26,0,0,0,.85-4.15c.18-1.41.3-2.8.36-4.18s.09-2.65.09-3.84Zm.4,15.81h8.74v.94H87.78Zm.1-15.81h8.64v.94H87.88Zm0,7.81h8.64v.94H87.88Zm8-7.81h1V70a1.57,1.57,0,0,1-.26,1,1.37,1.37,0,0,1-.75.45,8.21,8.21,0,0,1-1.62.16c-.72,0-1.72,0-3,0l-.09-.26c0-.11-.08-.22-.13-.34a.87.87,0,0,0-.18-.31c1,0,1.94,0,2.7,0s1.28,0,1.52,0a1.11,1.11,0,0,0,.57-.16.6.6,0,0,0,.18-.52Zm5.37.16h13.35v.94H102.32V71.59h-1Zm.64,10.76h13.54v1H101.92Zm13.25,0h.22l.21-.06.62.26a26.17,26.17,0,0,1-3,7.29,25.79,25.79,0,0,1-4.45,5.5,23.79,23.79,0,0,1-5.15,3.7,1.38,1.38,0,0,0-.29-.39,3.06,3.06,0,0,0-.39-.36,20.27,20.27,0,0,0,5-3.46,25.3,25.3,0,0,0,4.34-5.33,24,24,0,0,0,2.84-6.89ZM104.8,55a33.78,33.78,0,0,0,2.94,6.67A25.68,25.68,0,0,0,112,67.18a18.42,18.42,0,0,0,5.34,3.73,2.28,2.28,0,0,0-.43.36c-.14.15-.28.28-.4.39a20.52,20.52,0,0,1-5.36-3.94,27.7,27.7,0,0,1-4.3-5.69,34.55,34.55,0,0,1-3-6.8Zm9.36-11.15h1.08v6.29a1.52,1.52,0,0,1-.18.81,1.25,1.25,0,0,1-.79.45,10.62,10.62,0,0,1-1.82.17c-.82,0-1.92,0-3.29,0a1.12,1.12,0,0,0-.18-.49c-.1-.15-.18-.29-.25-.42l2.25,0h1.6l.94,0a.91.91,0,0,0,.54-.15.58.58,0,0,0,.1-.4Z"/><path class="cls-1" d="M127.15,51.73h1.12a14.08,14.08,0,0,1-.63,3,7.08,7.08,0,0,1-1.3,2.33,7.22,7.22,0,0,1-2.21,1.72,3.4,3.4,0,0,0-.38-.36,3.22,3.22,0,0,0-.41-.29,6,6,0,0,0,2.07-1.54,6.55,6.55,0,0,0,1.18-2.14A11.37,11.37,0,0,0,127.15,51.73Zm11.77,8.39.91.46a23.28,23.28,0,0,1-3.19,2,43.26,43.26,0,0,1-4,1.82c-1.42.56-2.83,1.06-4.25,1.5s-2.76.82-4,1.12a2.84,2.84,0,0,0-.36-.45,3.08,3.08,0,0,0-.4-.36c1.3-.28,2.66-.63,4.07-1.05s2.83-.9,4.23-1.43a38.57,38.57,0,0,0,3.91-1.7A19.85,19.85,0,0,0,138.92,60.12ZM124,59.83h31.79v.94H124Zm.32-8.42h9.4v1h-9.4Zm1.88-8.4h1.08v5.06H134v1h-7.81Zm4.57,28.68a1.31,1.31,0,0,0-.16-.31,3.75,3.75,0,0,1-.24-.36,2.59,2.59,0,0,0-.21-.3,5.88,5.88,0,0,0,1-.62,1.57,1.57,0,0,0,.63-1.36V63.88L133,64v6.28l-.76.39-.65.36a4.2,4.2,0,0,0-.54.38A.52.52,0,0,0,130.79,71.69Zm0,0v-.88l.79-.58L142.74,68c0,.13,0,.26,0,.4a3,3,0,0,0,.05.37l-6.23,1.4-3.47.79c-.78.18-1.33.33-1.64.42A3.17,3.17,0,0,0,130.79,71.69Zm2.48-29.29h1V58.27h-1Zm3,5h18.75v.94H136.3Zm.75,7.68h17.32V56H137.05Zm1.33,2.07,1-.26a19.87,19.87,0,0,1,1.27,1.82,12.57,12.57,0,0,1,.92,1.68l-1,.39a14,14,0,0,0-1-1.76C139.21,58.36,138.79,57.74,138.38,57.17Zm2.06,2.95a17.94,17.94,0,0,0,3.9,4.57,25.33,25.33,0,0,0,5.53,3.56,30.14,30.14,0,0,0,6.52,2.27,2.21,2.21,0,0,0-.4.37,4.23,4.23,0,0,0-.36.47,32,32,0,0,1-6.5-2.44,27.24,27.24,0,0,1-5.61-3.73,19.58,19.58,0,0,1-4.06-4.74Zm12,2,.94.55a35.83,35.83,0,0,1-3.76,2.09c-1.4.68-2.72,1.28-3.94,1.8l-.79-.58c.79-.33,1.65-.71,2.59-1.15s1.84-.91,2.71-1.38S151.8,62.54,152.42,62.13ZM144.9,42.4H146v13H144.9Z"/><path class="cls-1" d="M0,32.74,19.41,0h5.05l7.28,32.74H27.2l-4-19.67c-.25-1.24-.53-2.72-.84-4.45s-.71-3.95-1.16-6.69h1.19Q20.22,6,18.8,8.58c-.95,1.72-1.79,3.22-2.54,4.49L4.86,32.74Zm8.54-9.19L9.2,20h18l-.66,3.53Z"/><path class="cls-1" d="M40.43,32.74,46.46,0H59.2a14.51,14.51,0,0,1,6.47,1.27,7.65,7.65,0,0,1,3.66,3.57,8.56,8.56,0,0,1,.54,5.33,10.68,10.68,0,0,1-2.47,5.24,12.67,12.67,0,0,1-5,3.46,18.13,18.13,0,0,1-6.94,1.23H45.28l.64-3.53H56.15a11.78,11.78,0,0,0,4.58-.82,7.94,7.94,0,0,0,3.17-2.28A7.47,7.47,0,0,0,65.48,10a5.61,5.61,0,0,0-.32-3.43,4.82,4.82,0,0,0-2.35-2.25,10,10,0,0,0-4.29-.8H50.24L44.87,32.74Z"/><path class="cls-1" d="M75.29,32.74,81.32,0H94.07a14.51,14.51,0,0,1,6.47,1.27,7.65,7.65,0,0,1,3.66,3.57,8.56,8.56,0,0,1,.54,5.33,10.68,10.68,0,0,1-2.47,5.24,12.74,12.74,0,0,1-5,3.46,18.13,18.13,0,0,1-6.94,1.23H80.15l.64-3.53H91a11.72,11.72,0,0,0,4.57-.82,8,8,0,0,0,3.18-2.28A7.46,7.46,0,0,0,100.34,10,5.54,5.54,0,0,0,100,6.61a4.82,4.82,0,0,0-2.35-2.25,10,10,0,0,0-4.29-.8H85.11L79.74,32.74Z"/><path class="cls-1" d="M105.12,32.74,124.53,0h5.05l7.28,32.74h-4.55l-4-19.67c-.25-1.24-.53-2.72-.85-4.45s-.7-3.95-1.16-6.69h1.2Q125.34,6,123.92,8.58c-1,1.72-1.79,3.22-2.54,4.49L110,32.74Zm8.54-9.19.66-3.53h18l-.66,3.53Z"/><path class="cls-1" d="M145.54,32.74l6-32.74h13.11a15.06,15.06,0,0,1,6.49,1.23,7.51,7.51,0,0,1,3.66,3.47,8.37,8.37,0,0,1,.52,5.28,10.75,10.75,0,0,1-2.47,5.25,12.91,12.91,0,0,1-5,3.47,18.59,18.59,0,0,1-7,1.23H150.38l.63-3.56h10.67a11.91,11.91,0,0,0,4.57-.81,8,8,0,0,0,3.15-2.29A7.65,7.65,0,0,0,171,9.84,4.68,4.68,0,0,0,169.7,5.2q-1.81-1.63-5.7-1.64h-8.64L150,32.74Zm21.49,0L161,18h4.66l6.23,14.72Z"/><path class="cls-1" d="M182,32.74,188,0h23.32l-.66,3.56H191.83l-2,10.7h17.51l-.66,3.54H189.19l-2.1,11.38H206l-.63,3.56Z"/><path class="cls-1" d="M215.35,32.74l6-32.74h4.44l-5.39,29.18h17.38l-.64,3.56Z"/></g></g></svg>