<svg xmlns="http://www.w3.org/2000/svg" viewBox="0 0 335.04 156.86"><defs><style>.cls-1{fill:#fff;}</style></defs><g id="圖層_2" data-name="圖層 2"><g id="text"><path class="cls-1" d="M37.57,33.24,43.57.5h6.11l5.25,21.12c.13.47.27,1.06.44,1.76s.32,1.44.5,2.22.32,1.51.46,2.22.26,1.29.35,1.78l-1-.2c.27-.5.61-1.1,1-1.81s.82-1.45,1.26-2.21l1.27-2.19c.4-.69.75-1.28,1-1.77L73.21.5h6.18l-6,32.74H69l3.49-19c.13-.71.28-1.47.44-2.3s.34-1.68.52-2.56.37-1.76.55-2.64l.52-2.55.58.2c-.58,1-1.16,2-1.73,3s-1.11,1.92-1.63,2.79-1,1.67-1.41,2.39l-1.11,1.87L57.34,33.24H53.63l-5-19c-.17-.68-.37-1.54-.61-2.58s-.52-2.21-.81-3.49-.6-2.6-.93-4l.71.2q-.2,1.26-.42,2.58T46.2,9.59q-.21,1.31-.42,2.55c-.14.83-.27,1.59-.4,2.3l-3.47,18.8Z"/><path class="cls-1" d="M86.06,33.24,92.09.5H115.4l-.66,3.56H95.87l-2,10.71h17.5l-.66,3.53H93.23l-2.1,11.38h18.93l-.64,3.56Z"/><path class="cls-1" d="M129.87.5l-6,32.74h-4.44l6-32.74Zm1.41,32.74h-9.4l.66-3.56H131a17.86,17.86,0,0,0,7.75-1.54A13.06,13.06,0,0,0,144,23.69a17.36,17.36,0,0,0,2.7-6.88,16,16,0,0,0,0-6.81,7.14,7.14,0,0,0-3.08-4.4A12.21,12.21,0,0,0,137,4.06h-9.89L127.72.5h9.15a17.9,17.9,0,0,1,8.8,2,10.66,10.66,0,0,1,4.92,5.61,16,16,0,0,1,.49,8.74,22,22,0,0,1-3.5,8.81,17.13,17.13,0,0,1-6.68,5.65A22,22,0,0,1,131.28,33.24Z"/><path class="cls-1" d="M169.45.5l-6,32.74H159L165,.5Z"/><path class="cls-1" d="M191,33.75a16,16,0,0,1-7.54-1.67,11.66,11.66,0,0,1-4.87-4.69,14.16,14.16,0,0,1-1.7-7,21.07,21.07,0,0,1,1.4-7.57,20.62,20.62,0,0,1,4-6.54A19.07,19.07,0,0,1,196.7,0,17.43,17.43,0,0,1,202,.76,12.2,12.2,0,0,1,206.14,3a10,10,0,0,1,2.71,3.47,10.78,10.78,0,0,1,1,4.6h-4.46a8.06,8.06,0,0,0-.78-3.12,6.92,6.92,0,0,0-1.85-2.3A7.88,7.88,0,0,0,200,4.21a11.87,11.87,0,0,0-3.49-.48,14.2,14.2,0,0,0-6.35,1.4,14.58,14.58,0,0,0-4.81,3.77,17.49,17.49,0,0,0-3,5.33,17.68,17.68,0,0,0-1.06,6.05,10.85,10.85,0,0,0,1.17,5.18,8.07,8.07,0,0,0,3.4,3.37A11.2,11.2,0,0,0,191.18,30a15,15,0,0,0,3.81-.47,13,13,0,0,0,3.41-1.4,12.1,12.1,0,0,0,2.79-2.29,11.51,11.51,0,0,0,2-3.11h4.52a15.83,15.83,0,0,1-2.62,4.58,17,17,0,0,1-3.9,3.47,18,18,0,0,1-4.81,2.2A18.79,18.79,0,0,1,191,33.75Z"/><path class="cls-1" d="M211.91,33.24,231.32.5h5.06l7.27,32.74h-4.54l-4-19.66c-.24-1.25-.52-2.73-.84-4.45s-.7-4-1.16-6.69h1.2c-1.44,2.71-2.62,4.92-3.57,6.64s-1.79,3.22-2.54,4.5l-11.4,19.66Zm8.55-9.18.66-3.54h18l-.65,3.54Z"/><path class="cls-1" d="M252.34,33.24l6-32.74h4.44l-5.39,29.18H274.8l-.64,3.56Z"/><path class="cls-1" d="M0,75.24,6,42.5H18.77a14.44,14.44,0,0,1,6.47,1.28,7.72,7.72,0,0,1,3.67,3.57,8.49,8.49,0,0,1,.53,5.33A10.8,10.8,0,0,1,27,57.92a12.78,12.78,0,0,1-5,3.46,18.3,18.3,0,0,1-6.93,1.23H4.86l.63-3.54H15.72a12,12,0,0,0,4.58-.81A7.8,7.8,0,0,0,23.47,56a7.48,7.48,0,0,0,1.58-3.42,5.54,5.54,0,0,0-.32-3.43,4.71,4.71,0,0,0-2.34-2.25,9.84,9.84,0,0,0-4.3-.81H9.81L4.44,75.24Z"/><path class="cls-1" d="M34.87,75.24l6-32.74H54a15,15,0,0,1,6.48,1.24,7.39,7.39,0,0,1,3.66,3.47,8.34,8.34,0,0,1,.53,5.27,10.77,10.77,0,0,1-2.48,5.25,12.66,12.66,0,0,1-5,3.47,18.55,18.55,0,0,1-7,1.23H39.7l.64-3.55H51a11.82,11.82,0,0,0,4.56-.82,7.87,7.87,0,0,0,3.15-2.28,7.54,7.54,0,0,0,1.56-3.43A4.67,4.67,0,0,0,59,47.7q-1.83-1.64-5.7-1.64H44.68L39.31,75.24Zm21.48,0L50.27,60.52h4.67l6.22,14.72Z"/><path class="cls-1" d="M86,75.75a15.45,15.45,0,0,1-7.37-1.67,11.74,11.74,0,0,1-4.82-4.7,14.27,14.27,0,0,1-1.7-7.08,20.69,20.69,0,0,1,1.4-7.49,21.16,21.16,0,0,1,4-6.53,19.17,19.17,0,0,1,6.21-4.59,18.5,18.5,0,0,1,8-1.69,15.27,15.27,0,0,1,7.36,1.68,11.92,11.92,0,0,1,4.82,4.7,14.18,14.18,0,0,1,1.71,7.09A20.52,20.52,0,0,1,104.19,63a21.24,21.24,0,0,1-4,6.52A19.4,19.4,0,0,1,94,74.07,18.52,18.52,0,0,1,86,75.75ZM86.19,72a13.57,13.57,0,0,0,6.19-1.39,14.75,14.75,0,0,0,4.75-3.76,17.32,17.32,0,0,0,3-5.32,17.68,17.68,0,0,0,1.06-6A10.55,10.55,0,0,0,100,50.13a8.14,8.14,0,0,0-3.44-3.29,10.85,10.85,0,0,0-5-1.11,13.45,13.45,0,0,0-6.21,1.41,14.79,14.79,0,0,0-4.74,3.78A18,18,0,0,0,76.5,62.28a10.43,10.43,0,0,0,1.26,5.33,8.26,8.26,0,0,0,3.45,3.28A10.8,10.8,0,0,0,86.19,72Z"/><path class="cls-1" d="M113.56,46.06l.66-3.56h27.93l-.66,3.56H129.77L124.4,75.24H120l5.37-29.18Z"/><path class="cls-1" d="M145.3,75.24l6-32.74h23.32L174,46.06H155.12l-2,10.71h17.51L170,60.3H152.48l-2.1,11.38H169.3l-.63,3.56Z"/><path class="cls-1" d="M193.51,75.75A16,16,0,0,1,186,74.08a11.66,11.66,0,0,1-4.87-4.69,14.16,14.16,0,0,1-1.7-7,21.07,21.07,0,0,1,1.4-7.57,20.62,20.62,0,0,1,4-6.54A19.07,19.07,0,0,1,199.2,42a17.43,17.43,0,0,1,5.29.76,12.2,12.2,0,0,1,4.15,2.2,10,10,0,0,1,2.71,3.47,10.78,10.78,0,0,1,1,4.6h-4.46a8.06,8.06,0,0,0-.78-3.12,6.92,6.92,0,0,0-1.85-2.3,7.88,7.88,0,0,0-2.72-1.4,11.87,11.87,0,0,0-3.49-.48,14.2,14.2,0,0,0-6.35,1.4,14.58,14.58,0,0,0-4.81,3.77,17.49,17.49,0,0,0-3,5.33,17.68,17.68,0,0,0-1.06,6.05,10.85,10.85,0,0,0,1.17,5.18,8.07,8.07,0,0,0,3.4,3.37A11.2,11.2,0,0,0,193.68,72a15,15,0,0,0,3.81-.47,13,13,0,0,0,3.41-1.4,12.1,12.1,0,0,0,2.79-2.29,11.51,11.51,0,0,0,2-3.11h4.52a15.83,15.83,0,0,1-2.62,4.58,17,17,0,0,1-3.9,3.47,18,18,0,0,1-4.81,2.2A18.79,18.79,0,0,1,193.51,75.75Z"/><path class="cls-1" d="M220.29,46.06,221,42.5h27.93l-.66,3.56H236.5l-5.37,29.18h-4.44l5.37-29.18Z"/><path class="cls-1" d="M262.5,42.5l-6,32.74H252l6-32.74Z"/><path class="cls-1" d="M278.59,75.24l-7.4-32.74h4.49l4.23,19.67c.23,1.13.5,2.59.83,4.37s.72,4,1.19,6.77h-1.14c1.43-2.72,2.64-5,3.62-6.79s1.8-3.25,2.43-4.35L298.1,42.5h4.83L283.64,75.24Z"/><path class="cls-1" d="M305.7,75.24l6-32.74H335l-.66,3.56H315.51l-1.95,10.71h17.5l-.66,3.53H312.87l-2.1,11.38H329.7l-.64,3.56Z"/><path class="cls-1" d="M43,117.75a16.05,16.05,0,0,1-7.55-1.67,11.72,11.72,0,0,1-4.87-4.69,14.16,14.16,0,0,1-1.69-7,20.86,20.86,0,0,1,1.4-7.57,20.62,20.62,0,0,1,4-6.54A19,19,0,0,1,48.69,84a17.32,17.32,0,0,1,5.28.76A12,12,0,0,1,58.12,87a9.77,9.77,0,0,1,2.71,3.47,10.64,10.64,0,0,1,1,4.6H57.35a7.72,7.72,0,0,0-.78-3.12,6.89,6.89,0,0,0-1.84-2.3A7.88,7.88,0,0,0,52,88.21a11.87,11.87,0,0,0-3.49-.48,14.17,14.17,0,0,0-6.35,1.4,14.58,14.58,0,0,0-4.81,3.77,17.49,17.49,0,0,0-3,5.33,17.68,17.68,0,0,0-1.06,6,10.85,10.85,0,0,0,1.17,5.18,8.1,8.1,0,0,0,3.39,3.37A11.24,11.24,0,0,0,43.17,114a15,15,0,0,0,3.81-.47,12.89,12.89,0,0,0,3.4-1.4,12.37,12.37,0,0,0,2.8-2.29,11.76,11.76,0,0,0,2-3.11H59.7a15.85,15.85,0,0,1-2.63,4.58,16.73,16.73,0,0,1-3.89,3.47,18.09,18.09,0,0,1-4.81,2.2A18.89,18.89,0,0,1,43,117.75Z"/><path class="cls-1" d="M68.5,117.24l6-32.74H79l-5.39,29.18H91l-.63,3.56Z"/><path class="cls-1" d="M112.65,117.75a15.45,15.45,0,0,1-7.37-1.67,11.74,11.74,0,0,1-4.82-4.7,14.27,14.27,0,0,1-1.7-7.08,20.49,20.49,0,0,1,1.41-7.49,21.13,21.13,0,0,1,4-6.53,19.17,19.17,0,0,1,6.21-4.59,18.53,18.53,0,0,1,8-1.69,15.27,15.27,0,0,1,7.36,1.68,12,12,0,0,1,4.83,4.7,14.28,14.28,0,0,1,1.7,7.09,20.52,20.52,0,0,1-1.41,7.51,21.24,21.24,0,0,1-4,6.52,19.4,19.4,0,0,1-6.2,4.57A18.49,18.49,0,0,1,112.65,117.75Zm.18-3.74a13.53,13.53,0,0,0,6.18-1.39,14.75,14.75,0,0,0,4.75-3.76,17.32,17.32,0,0,0,3-5.32,17.68,17.68,0,0,0,1.06-6.05,10.65,10.65,0,0,0-1.25-5.36,8.22,8.22,0,0,0-3.45-3.29,10.85,10.85,0,0,0-5-1.11A13.51,13.51,0,0,0,112,89.14a14.79,14.79,0,0,0-4.74,3.78,17.67,17.67,0,0,0-3,5.33,17.9,17.9,0,0,0-1.06,6,10.43,10.43,0,0,0,1.26,5.33,8.26,8.26,0,0,0,3.45,3.28A10.81,10.81,0,0,0,112.83,114Z"/><path class="cls-1" d="M140.2,88.06l.66-3.56h27.93l-.66,3.56H156.41L151,117.24h-4.45L152,88.06Z"/><path class="cls-1" d="M171.93,117.24l6-32.74h4.45l-2.62,14.2h19.32l2.61-14.2h4.47l-6,32.74h-4.47l2.76-15H179.13l-2.75,15Z"/><path class="cls-1" d="M223.31,84.5l-6,32.74h-4.45l6-32.74Z"/><path class="cls-1" d="M230,117.24l6-32.74h4.88L252,105.73c.24.45.55,1.06.92,1.82s.78,1.61,1.2,2.54.83,1.87,1.22,2.8l-.46.62c.08-.88.2-1.85.35-2.91s.31-2.07.46-3,.28-1.68.38-2.19L260,84.5h4.44l-6,32.74h-4.83l-9.94-18.87c-.29-.57-.67-1.3-1.12-2.2s-1-2-1.56-3.18-1.25-2.63-2-4.18l.56-.81c-.24,1.71-.47,3.24-.67,4.58s-.38,2.49-.53,3.46-.27,1.73-.39,2.29l-3.49,18.91Z"/><path class="cls-1" d="M285.84,117.75a15.54,15.54,0,0,1-7.42-1.68,11.9,11.9,0,0,1-4.86-4.7,14.1,14.1,0,0,1-1.71-7.05,21,21,0,0,1,5.42-14,20,20,0,0,1,6.22-4.58,18.51,18.51,0,0,1,8-1.7,17.19,17.19,0,0,1,5.37.8,12.48,12.48,0,0,1,4.2,2.28,10.29,10.29,0,0,1,2.74,3.49,10.42,10.42,0,0,1,1,4.46h-4.52a7.75,7.75,0,0,0-.75-3,7.22,7.22,0,0,0-1.82-2.3,8.13,8.13,0,0,0-2.77-1.5,12,12,0,0,0-3.62-.52,13.55,13.55,0,0,0-6.22,1.41,14.76,14.76,0,0,0-4.76,3.78,17.92,17.92,0,0,0-4.11,11.29A9.08,9.08,0,0,0,286,114a14,14,0,0,0,5.88-1.25,13.11,13.11,0,0,0,4.63-3.47,10.65,10.65,0,0,0,2.43-5.12l1.37.22H289.41l.66-3.54H304l-.69,3.69a14.44,14.44,0,0,1-2.11,5.31,16.34,16.34,0,0,1-3.93,4.2,18.19,18.19,0,0,1-5.27,2.73A19.18,19.18,0,0,1,285.84,117.75Z"/><path class="cls-1" d="M52.41,143.22H84.66v.94H52.41Zm1.29-14.77H69.15v1H53.7Zm1.08.55h1v10.21a1.63,1.63,0,0,0,.39,1.27,2.21,2.21,0,0,0,1.41.34H66.2l1.49,0q.89,0,1.35-.09a4.71,4.71,0,0,1,.13.51,4.16,4.16,0,0,0,.09.46,10.56,10.56,0,0,1-1.19.09c-.56,0-1.15,0-1.8,0H57.7a4.83,4.83,0,0,1-1.73-.25,1.56,1.56,0,0,1-.92-.82,3.77,3.77,0,0,1-.27-1.56Zm1.51,17h25.1v10.6H80.31V147h-23v9.63H56.29Zm3.17-16.3,1,.2a12.41,12.41,0,0,1-1.33,2.36,12.1,12.1,0,0,1-1.77,2l-.41-.26a2.26,2.26,0,0,0-.49-.22A10.41,10.41,0,0,0,59.46,129.74Zm-2.77,5.16h12.1v1H56.69Zm0,19.18H81V155H56.69Zm5.47-22.33h1.05v2.53a7.23,7.23,0,0,1-.34,2,5.44,5.44,0,0,1-1.46,2.22,9.7,9.7,0,0,1-3.53,2,2.13,2.13,0,0,0-.32-.42,3.91,3.91,0,0,0-.4-.36,9,9,0,0,0,3.33-1.67,4.46,4.46,0,0,0,1.37-2,6.38,6.38,0,0,0,.3-1.81Zm3,11.83h1v2.56a3.36,3.36,0,0,1-.25,1.25,3.18,3.18,0,0,1-1,1.23,8,8,0,0,1-2.25,1.13,21.51,21.51,0,0,1-4,.92,2.91,2.91,0,0,0-.29-.42,1.67,1.67,0,0,0-.36-.35,21.57,21.57,0,0,0,3.78-.75,8.34,8.34,0,0,0,2.13-1,2.67,2.67,0,0,0,.95-1,2.52,2.52,0,0,0,.24-1Zm-6.48-12.12H68v1H58.64Zm2.55,20.12H76.92v.94H61.19Zm.65-14.84.65-.61c1,.49,2,1.06,3.06,1.7A23.19,23.19,0,0,1,68,139.5l-.68.74a26.62,26.62,0,0,0-2.47-1.75A34.93,34.93,0,0,0,61.84,136.74Zm10.44-8.36h1v1.72a4,4,0,0,1-.28,1.43A4.09,4.09,0,0,1,72,133a7.86,7.86,0,0,1-2.31,1.33,1.43,1.43,0,0,0-.2-.27,3.33,3.33,0,0,0-.25-.28,1.21,1.21,0,0,0-.23-.19A7.81,7.81,0,0,0,71,132.48a3.23,3.23,0,0,0,1-1.18,3,3,0,0,0,.27-1.2Zm8.14,6.19h.25l.21-.06.69.35a10.86,10.86,0,0,1-2.86,3.45,18.36,18.36,0,0,1-4.13,2.53,27.06,27.06,0,0,1-4.46,1.57l-.29-.42a1.73,1.73,0,0,0-.36-.39,26.24,26.24,0,0,0,4.29-1.42,18.83,18.83,0,0,0,4-2.3,9.46,9.46,0,0,0,2.69-3.08Zm-10,0H80.78v1H70.44Zm.33,2.33.61-.68c1,.39,2,.82,3,1.3s2.07,1,3.07,1.46,2,1,2.83,1.44,1.63.89,2.25,1.28l-.65.81c-.62-.39-1.37-.82-2.23-1.3s-1.8-1-2.81-1.47-2-1-3.08-1.49S71.73,137.31,70.77,136.9Zm.65,6.78H72.5v4.92c0,.28.09.46.27.53a4,4,0,0,0,1.27.12h5.37l.68,0c.12,0,.19,0,.22,0a1.73,1.73,0,0,0,.48.2l.53.13a.68.68,0,0,1-.45.47,3.93,3.93,0,0,1-1.28.14H74.08a11.58,11.58,0,0,1-1.64-.09,1.15,1.15,0,0,1-.81-.44,1.92,1.92,0,0,1-.21-1Zm1.36-15.3h6.7v1h-6.7Zm6.09,0H80v3.76a1.51,1.51,0,0,0,.08.62c0,.08.16.13.36.13h1.94l.65,0,.61-.05a3.47,3.47,0,0,1,0,.42,2.78,2.78,0,0,0,.06.42,3.09,3.09,0,0,1-.54.05l-.76,0H80.27a2,2,0,0,1-.88-.15.75.75,0,0,1-.41-.5,3.19,3.19,0,0,1-.11-1Z"/><path class="cls-1" d="M91,146.46l2.72-1.33c1-.51,2.14-1.07,3.29-1.65l.25.78c-1,.54-1.92,1.06-2.88,1.57s-1.88,1-2.77,1.41Zm.72-12.6,1-.23c.34.67.67,1.38,1,2.14s.65,1.48.93,2.17.52,1.29.69,1.78l-1,.39c-.17-.52-.4-1.14-.68-1.86s-.6-1.47-.92-2.24S92.08,134.53,91.75,133.86Zm4.86-2.92h1.08v10.4c0,1.19-.06,2.45-.18,3.79a27.58,27.58,0,0,1-.67,4.05,17.8,17.8,0,0,1-1.47,4,14.87,14.87,0,0,1-2.61,3.6.84.84,0,0,0-.22-.25l-.29-.22a1,1,0,0,0-.29-.18,13.83,13.83,0,0,0,2.51-3.47,17.79,17.79,0,0,0,1.38-3.79,23.81,23.81,0,0,0,.61-3.86q.15-1.91.15-3.66Zm.61,0h26.71v.94H97.22Zm13.07,1.36,1.15.17a17.73,17.73,0,0,1-2.32,4.24,21.15,21.15,0,0,1-4,4.11,25.48,25.48,0,0,1-5.78,3.41,2.05,2.05,0,0,0-.79-.65,24.45,24.45,0,0,0,5.65-3.27,20.87,20.87,0,0,0,3.91-4A14.93,14.93,0,0,0,110.29,132.3Zm-5.37,18.37,1,.33c-.6.56-1.26,1.15-2,1.76s-1.42,1.21-2.16,1.79-1.43,1.07-2.1,1.5a1.5,1.5,0,0,0-.22-.22,2.13,2.13,0,0,0-.32-.26,2.08,2.08,0,0,0-.33-.2,38.43,38.43,0,0,0,3.23-2.23C103.12,152.29,104.08,151.47,104.92,150.67Zm-5.22-15h23.69v.94H99.7Zm.65,2.23.79-.48a18.9,18.9,0,0,1,2.09,1.39,11.3,11.3,0,0,1,1.66,1.46l-.79.58a15.86,15.86,0,0,0-1.66-1.47A20.62,20.62,0,0,0,100.35,137.94Zm3,3.27h15.92v8.46H103.3Zm1.08,1v2.75h13.79v-2.75Zm0,3.69v2.82h13.79v-2.82Zm6.27,3h1.08v6.48a1.48,1.48,0,0,1-.18.8,1.07,1.07,0,0,1-.72.37,8.49,8.49,0,0,1-1.6.16q-1.11,0-3,0a1.42,1.42,0,0,0-.17-.42q-.12-.23-.27-.45l2.78,0q1.11,0,1.47,0a.71.71,0,0,0,.47-.11.57.57,0,0,0,.11-.38Zm-1.87-21.06,1-.26c.29.61.59,1.26.89,2a15.28,15.28,0,0,1,.66,1.75l-1,.32a11.59,11.59,0,0,0-.63-1.8C109.36,129.09,109.06,128.44,108.78,127.83Zm5.29,8.07A15,15,0,0,0,116.7,139a23.28,23.28,0,0,0,3.54,2.64,19.86,19.86,0,0,0,3.87,1.82,2.77,2.77,0,0,0-.39.34,2.54,2.54,0,0,0-.36.4,22,22,0,0,1-3.86-2,24.39,24.39,0,0,1-3.58-2.77,18.54,18.54,0,0,1-2.72-3.16ZM116,151.13l.76-.42c.69.49,1.43,1,2.19,1.67s1.5,1.21,2.2,1.79,1.27,1.09,1.73,1.53l-.72.55c-.46-.44-1-.95-1.73-1.54s-1.43-1.21-2.2-1.85S116.73,151.65,116,151.13Zm5.26-13.87.9.49c-.58.54-1.21,1.07-1.89,1.6s-1.32,1-1.89,1.35l-.76-.43a24.65,24.65,0,0,0,2-1.5C120.3,138.17,120.86,137.67,121.27,137.26Z"/><path class="cls-1" d="M134.91,129.91h1v11.85c0,1.17,0,2.41-.16,3.73a28,28,0,0,1-.63,4,17.2,17.2,0,0,1-1.41,3.88,13.49,13.49,0,0,1-2.52,3.5,1.14,1.14,0,0,0-.21-.26l-.29-.24a1.53,1.53,0,0,0-.29-.18,13.21,13.21,0,0,0,2.41-3.35,16.43,16.43,0,0,0,1.34-3.7,26,26,0,0,0,.57-3.77q.15-1.87.15-3.6Zm.25,15.48h24.62v.94H135.16Zm.32-15.48H160v1H135.48Zm0,7.64h24.3v1h-24.3Zm11-7.35h1.08v26.31h-1.08Zm12.88-.29h1.05v24.75a1.89,1.89,0,0,1-.31,1.2,1.72,1.72,0,0,1-1,.55,14.11,14.11,0,0,1-2.25.14c-1.05,0-2.46,0-4.23,0a3.44,3.44,0,0,0-.18-.46c-.1-.19-.2-.36-.29-.51l2.81,0,2.19,0h1.26a1.54,1.54,0,0,0,.76-.21.85.85,0,0,0,.21-.67Z"/><path class="cls-1" d="M170.67,128.9H180v.94h-8.21v26.83h-1.07Zm8.92,0h.22l.21-.06.73.45c-.41.89-.86,1.82-1.36,2.8s-1,2-1.49,2.95-1,1.94-1.51,2.87a13.28,13.28,0,0,1,3.28,4.13,8.92,8.92,0,0,1,.82,3.55,7,7,0,0,1-.28,2,2.3,2.3,0,0,1-1,1.38,3.3,3.3,0,0,1-.83.36,7.56,7.56,0,0,1-1,.19c-.44,0-.9,0-1.39,0s-.95,0-1.39,0a2.24,2.24,0,0,0-.14-.5,1.39,1.39,0,0,0-.29-.47l1.59.05c.5,0,.94,0,1.33,0a3.16,3.16,0,0,0,1.4-.32,1.75,1.75,0,0,0,.7-1.11,6,6,0,0,0,.2-1.58,8.39,8.39,0,0,0-.84-3.42,13.23,13.23,0,0,0-3.4-4.1c.43-.78.85-1.57,1.27-2.36s.82-1.59,1.21-2.37.74-1.52,1.06-2.24.62-1.37.88-2Zm7.45,5h1.08c-.07,2.33-.22,4.63-.46,6.88a32,32,0,0,1-1.32,6.39,17.83,17.83,0,0,1-2.82,5.44,14.61,14.61,0,0,1-5,4.07,4.4,4.4,0,0,0-.4-.31l-.47-.31a14.22,14.22,0,0,0,5-3.94,16.61,16.61,0,0,0,2.77-5.33,30.84,30.84,0,0,0,1.24-6.23Q186.94,137.24,187,133.86Zm-6.87-.65H201.3v1H180.17Zm7,7h11.16v.94H187.19ZM189.28,128l1-.13c.36.78.71,1.62,1.06,2.53a22.67,22.67,0,0,1,.77,2.27l-1,.26a23.94,23.94,0,0,0-.79-2.34C190,129.62,189.61,128.76,189.28,128ZM198,140.21h1v.65c-.12,2.65-.24,4.89-.36,6.7s-.25,3.3-.41,4.44a19.29,19.29,0,0,1-.52,2.68A3,3,0,0,1,197,156a1.78,1.78,0,0,1-.85.53,5,5,0,0,1-1.24.18c-.53,0-1.28,0-2.25,0s-2-.08-2.93-.15l-.11-.45a1.37,1.37,0,0,0-.26-.49c1.18.09,2.27.14,3.28.16l2.05,0a1.93,1.93,0,0,0,1.41-.36,4.23,4.23,0,0,0,.79-2,44.35,44.35,0,0,0,.59-4.69c.18-2.09.34-4.88.49-8.35Z"/><path class="cls-1" d="M208.74,133.15H220.8v1H208.74Zm1.4,4.08h9.43v.94h-9.43Zm0,4.11h9.43v.94h-9.43Zm.07,4.18h1.08v10.76h-1.08Zm.47,0h8.86v9.07h-8.86v-1h7.78v-7.13h-7.78ZM213,127.9l.83-.49a22.06,22.06,0,0,1,1.68,2.06,19,19,0,0,1,1.27,2l-.93.58a20.34,20.34,0,0,0-1.25-2A21.45,21.45,0,0,0,213,127.9Zm24.63,19.89h.25l.25-.06.69.42a12.45,12.45,0,0,1-3.14,3.27,21.75,21.75,0,0,1-4.35,2.46,37.41,37.41,0,0,1-5,1.74q-2.62.69-5.19,1.11a1.74,1.74,0,0,0-.25-.45c-.12-.17-.23-.31-.32-.42a47.81,47.81,0,0,0,5-1,36.34,36.34,0,0,0,4.89-1.6,21.42,21.42,0,0,0,4.22-2.27,11.05,11.05,0,0,0,3-3Zm-12-15.39,1,.23a19.74,19.74,0,0,1-2.21,4.31,20,20,0,0,1-3,3.5,1.64,1.64,0,0,0-.23-.23l-.35-.28a2.85,2.85,0,0,0-.32-.21,15.74,15.74,0,0,0,2.93-3.27A18.16,18.16,0,0,0,225.62,132.4Zm-4.46-2.49h7.34v1h-7.34Zm.21,17.88h16.56v.94H221.37ZM225,135.64h15.23v.94H225V147h-1V136.42l.83-.78Zm-.61,9.49h16.71v.94H224.43Zm.07-6.35h14.8v.94H224.5Zm0,3.11h14.8v.94H224.5Zm1.08,6.78a15.85,15.85,0,0,0,4.11,3.24,30.58,30.58,0,0,0,5.67,2.47,40.72,40.72,0,0,0,6.32,1.54,2.32,2.32,0,0,0-.42.41,4.57,4.57,0,0,0-.3.4,43.35,43.35,0,0,1-6.29-1.67,32.75,32.75,0,0,1-5.77-2.59,16.51,16.51,0,0,1-4.29-3.38Zm2.34-21.16H229v5.41h-1.08Zm2.52,5.38.94-.26c.29.54.57,1.13.85,1.76s.48,1.18.63,1.61l-1.05.35a15,15,0,0,0-.57-1.65C231,134.05,230.71,133.45,230.44,132.89Zm.8,3.07h1.08v9.47h-1.08Zm2.44-8.45h1v5.41h-1Zm.62,2.46H241v1H234.3Z"/><path class="cls-1" d="M264.44,133.28l1.08.38a28.94,28.94,0,0,1-4.36,4.83,41.94,41.94,0,0,1-5.72,4.31,44.39,44.39,0,0,1-6.52,3.4.71.71,0,0,0-.16-.27l-.23-.29a.84.84,0,0,0-.22-.21,48.45,48.45,0,0,0,6.39-3.31,38.82,38.82,0,0,0,5.65-4.18A23.4,23.4,0,0,0,264.44,133.28Zm-15.23-.2h31.28v1H249.21Zm6.8,23.46a.83.83,0,0,0-.16-.31c-.08-.12-.17-.23-.25-.34l-.23-.29a6.27,6.27,0,0,0,.57-.36,2.09,2.09,0,0,0,.58-.63,1.94,1.94,0,0,0,.25-1.05V140.92h1v14.13l-.63.39a4.33,4.33,0,0,0-.54.37,4.87,4.87,0,0,0-.45.39A.5.5,0,0,0,256,156.54Zm0,0v-.91l.9-.61,12.5-3.63a2.18,2.18,0,0,0,.12.43c.06.17.1.3.13.41L263.74,154l-3.8,1.14c-1,.29-1.7.53-2.22.71s-.89.32-1.13.42A2.8,2.8,0,0,0,256,156.54Zm7.13-28.68.94-.32A20.81,20.81,0,0,1,265.7,130a11.91,11.91,0,0,1,1,2.28l-1,.42a11.89,11.89,0,0,0-1-2.36A20.14,20.14,0,0,0,263.14,127.86Zm2.74,5.71a45.47,45.47,0,0,0,1.85,7,25.82,25.82,0,0,0,2.9,5.72A24.46,24.46,0,0,0,275,151a35.45,35.45,0,0,0,6.12,4.14,2.42,2.42,0,0,0-.45.34,1.31,1.31,0,0,0-.34.43,36.5,36.5,0,0,1-6.19-4.31,24.76,24.76,0,0,1-4.36-4.92,26.53,26.53,0,0,1-2.9-5.87,47.42,47.42,0,0,1-1.85-7.09Zm12.09,4,.91.56c-.82.88-1.75,1.81-2.78,2.78s-2.07,1.91-3.13,2.82-2.05,1.72-3,2.43l-.72-.55q1.37-1,3-2.43c1.07-.93,2.11-1.88,3.13-2.87A37.31,37.31,0,0,0,278,137.58Z"/></g></g></svg>