<svg xmlns="http://www.w3.org/2000/svg" viewBox="0 0 303.87 72.16"><defs><style>.cls-1{fill:#fff;}</style></defs><g id="圖層_2" data-name="圖層 2"><g id="text"><path class="cls-1" d="M115,65h15.73V66H115Zm.29-18.72h16.05v.94H115.32Zm1.37,8.16h12.63v7.06H116.69Zm1.08.94v5.18h10.51V55.41Zm1-12.41h1v7.68h6.88V43h1v8.62h-9Zm3.89,8.17h1V55h-1Zm0,3.85h1V72.13h-1V55Zm7.09,14.87h17.82v.94H129.79ZM131,54.73h16.24v1H131Zm.58,7.19h15.08v.94H131.59Zm.5-14.09h14.44v.94H132.09Zm6.56-4.89h1V55.22h-1Zm0,14h1V70.83h-1Z"/><path class="cls-1" d="M159.77,52.66l.86.29a15.42,15.42,0,0,1-2.2,3.35,12.76,12.76,0,0,1-2.88,2.61,3.25,3.25,0,0,0-.37-.41c-.16-.14-.3-.25-.42-.34a8.85,8.85,0,0,0,1.93-1.41,15.16,15.16,0,0,0,1.76-2A14,14,0,0,0,159.77,52.66Zm2.44,6h1v3.14a14.9,14.9,0,0,1-.24,2.64,7.63,7.63,0,0,1-1,2.64,9.5,9.5,0,0,1-2.33,2.53,17.63,17.63,0,0,1-4.17,2.33l-.18-.27a2.17,2.17,0,0,0-.24-.29,3,3,0,0,0-.23-.25,17.23,17.23,0,0,0,4-2.18,8.46,8.46,0,0,0,2.18-2.37,7.56,7.56,0,0,0,.92-2.41,13.73,13.73,0,0,0,.21-2.37ZM155,62H170.6v.93H155Zm.11-11.57h15v.94h-15Zm1.15-5.93.94-.36A15.61,15.61,0,0,1,158.65,46a8.47,8.47,0,0,1,.94,1.85l-1,.42a10.76,10.76,0,0,0-.93-1.88A13.61,13.61,0,0,0,156.27,44.46ZM162,65.36l.68-.65q1.19.78,2.49,1.68l2.46,1.75c.78.57,1.42,1.06,1.93,1.49l-.69.75c-.5-.43-1.14-.94-1.92-1.52s-1.6-1.19-2.47-1.8S162.79,65.88,162,65.36ZM162.21,43h1V57.87h-1Zm3.24,9.76c.22.15.56.41,1,.77s.94.78,1.46,1.22L169.36,56c.44.38.75.65.92.83l-.76.81c-.21-.24-.53-.57-1-1s-.88-.84-1.37-1.29-.95-.87-1.39-1.25-.78-.66-1-.86Zm.08,6,.82-.32a16,16,0,0,1,1.34,1.44,16.54,16.54,0,0,1,1,1.38l-.76.42a14.09,14.09,0,0,0-1.08-1.44A16.58,16.58,0,0,0,165.53,58.81ZM168.26,44l1.05.46c-.41.69-.84,1.39-1.3,2.1a16,16,0,0,1-1.33,1.82l-.87-.39a22.58,22.58,0,0,0,1.32-2C167.6,45.24,168,44.57,168.26,44Zm8.32,23.46,1.19.46a14.44,14.44,0,0,1-2,1.58A26.42,26.42,0,0,1,173.36,71c-.86.44-1.7.82-2.54,1.15-.1-.11-.22-.24-.38-.39a5.26,5.26,0,0,0-.41-.36c.84-.32,1.68-.7,2.53-1.12a17.34,17.34,0,0,0,2.34-1.36A9,9,0,0,0,176.58,67.46Zm-5.8-22.74h16.56v.94H170.78Zm1.8,5h13V66.26h-13Zm1.08.94v4.21h10.87V50.62Zm0,5.18V60h10.87V55.8Zm0,5.18v4.34h10.87V61Zm4.39-16,1.16.22c-.24.87-.5,1.76-.78,2.68s-.54,1.72-.81,2.41l-1-.23c.17-.45.35-1,.53-1.58s.35-1.22.52-1.85S178,45.45,178.05,45Zm2.27,23.1.87-.55c.74.39,1.51.82,2.32,1.29s1.56,1,2.27,1.43a19.6,19.6,0,0,1,1.78,1.33l-.94.58a15.52,15.52,0,0,0-1.71-1.31c-.71-.49-1.46-1-2.27-1.46S181.07,68.47,180.32,68.08Z"/><path class="cls-1" d="M0,33.24,6,.5H28.71l-.66,3.56H9.81l-2,10.82H24.56l-.66,3.55H7.18L4.44,33.24Z"/><path class="cls-1" d="M47.09,33.75a15.49,15.49,0,0,1-7.38-1.67,11.74,11.74,0,0,1-4.82-4.7,14.27,14.27,0,0,1-1.7-7.08,20.49,20.49,0,0,1,1.41-7.49,21.13,21.13,0,0,1,4-6.53,19.28,19.28,0,0,1,6.21-4.59,18.53,18.53,0,0,1,8-1.69,15.24,15.24,0,0,1,7.36,1.68A12,12,0,0,1,65,6.38a14.18,14.18,0,0,1,1.71,7.09A20.52,20.52,0,0,1,65.25,21a21.05,21.05,0,0,1-4,6.52A19.4,19.4,0,0,1,55,32.07,18.48,18.48,0,0,1,47.09,33.75ZM47.26,30a13.57,13.57,0,0,0,6.19-1.39,14.71,14.71,0,0,0,4.74-3.76,17.12,17.12,0,0,0,3-5.32,17.69,17.69,0,0,0,1.07-6A10.55,10.55,0,0,0,61,8.13,8.25,8.25,0,0,0,57.6,4.84a10.92,10.92,0,0,0-5-1.11,13.51,13.51,0,0,0-6.21,1.41,14.79,14.79,0,0,0-4.74,3.78,17.44,17.44,0,0,0-3,5.33,17.67,17.67,0,0,0-1.07,6,10.43,10.43,0,0,0,1.26,5.33,8.22,8.22,0,0,0,3.46,3.28A10.74,10.74,0,0,0,47.26,30Z"/><path class="cls-1" d="M89.13,33.75a15.45,15.45,0,0,1-7.37-1.67,11.74,11.74,0,0,1-4.82-4.7,14.27,14.27,0,0,1-1.7-7.08,20.69,20.69,0,0,1,1.4-7.49,21.16,21.16,0,0,1,4-6.53,19.17,19.17,0,0,1,6.21-4.59,18.5,18.5,0,0,1,8-1.69,15.27,15.27,0,0,1,7.36,1.68A11.92,11.92,0,0,1,107,6.38a14.18,14.18,0,0,1,1.71,7.09A20.52,20.52,0,0,1,107.3,21a21.24,21.24,0,0,1-4,6.52,19.4,19.4,0,0,1-6.2,4.57A18.52,18.52,0,0,1,89.13,33.75ZM89.3,30a13.57,13.57,0,0,0,6.19-1.39,14.75,14.75,0,0,0,4.75-3.76,17.32,17.32,0,0,0,3-5.32,17.68,17.68,0,0,0,1.06-6,10.55,10.55,0,0,0-1.26-5.36,8.14,8.14,0,0,0-3.44-3.29,10.85,10.85,0,0,0-5-1.11,13.45,13.45,0,0,0-6.21,1.41A14.79,14.79,0,0,0,83.7,8.92a18,18,0,0,0-4.09,11.36,10.43,10.43,0,0,0,1.26,5.33,8.26,8.26,0,0,0,3.45,3.28A10.8,10.8,0,0,0,89.3,30Z"/><path class="cls-1" d="M116.67,4.06,117.33.5h27.93l-.66,3.56H132.89l-5.38,29.18h-4.44l5.37-29.18Z"/><path class="cls-1" d="M156.76,33.24,152.88.5h4.35l2.12,20.35c.11,1.07.21,2.14.29,3.2s.15,2.13.21,3.21.1,2.15.14,3.24h-.54c.45-1.09.91-2.17,1.37-3.24s.92-2.15,1.41-3.21l1.49-3.2L173.44.5h5.12l2.18,20.35c.11,1.07.22,2.14.32,3.2s.18,2.13.25,3.21.14,2.15.18,3.24h-.61c.44-1.09.9-2.17,1.36-3.24s.94-2.15,1.43-3.21,1-2.13,1.46-3.2L194.7.5h4.71l-16,32.74h-5.17l-2.49-21c-.17-1.45-.29-2.92-.38-4.41s-.17-3-.23-4.64h.95q-1,2.37-1.89,4.6t-2,4.45l-10.2,21Z"/><path class="cls-1" d="M202.14,33.24l6-32.74h23.32l-.66,3.56H212l-2,10.71h17.51l-.66,3.53H209.32l-2.1,11.38h18.92l-.63,3.56Z"/><path class="cls-1" d="M233.44,33.24,252.85.5h5.06l7.27,32.74h-4.54l-4-19.66c-.24-1.25-.52-2.73-.84-4.45s-.71-4-1.16-6.69h1.2c-1.44,2.71-2.62,4.92-3.57,6.64s-1.79,3.22-2.54,4.5L238.3,33.24ZM242,24.06l.66-3.54h18L260,24.06Z"/><path class="cls-1" d="M273.87,33.24,279.9.5H293a15,15,0,0,1,6.48,1.24,7.39,7.39,0,0,1,3.66,3.47,8.34,8.34,0,0,1,.53,5.27,10.77,10.77,0,0,1-2.48,5.25,12.69,12.69,0,0,1-5,3.47,18.63,18.63,0,0,1-7,1.23H278.7l.64-3.55H290a11.82,11.82,0,0,0,4.56-.82,7.87,7.87,0,0,0,3.15-2.28,7.54,7.54,0,0,0,1.56-3.43A4.67,4.67,0,0,0,298,5.7q-1.83-1.63-5.7-1.64h-8.65l-5.37,29.18Zm21.48,0-6.08-14.72h4.67l6.22,14.72Z"/></g></g></svg>