<?xml version="1.0" encoding="UTF-8"?>
<svg id="_圖層_2" data-name="圖層 2" xmlns="http://www.w3.org/2000/svg" viewBox="0 0 723.93 237.47">
  <defs>
    <style>
      .cls-1 {
        fill: #fff;
      }
    </style>
  </defs>
  <g id="text">
    <g>
      <path class="cls-1" d="M3.27,76.94v-36.38h23.34v3.96H7.71v11.89h17.53v3.93H7.71v12.65h18.95v3.96H3.27Z"/>
      <path class="cls-1" d="M39.87,46.94l14.18-20.26v3.3l-13.4-19.41h5.15l5.35,7.84c.59.86,1.14,1.68,1.66,2.46.52.78,1.03,1.56,1.53,2.33s1,1.57,1.5,2.4h-.73c.52-.83,1.03-1.63,1.53-2.4s1.01-1.55,1.54-2.33,1.09-1.6,1.7-2.46l5.44-7.84h5l-13.38,19.24v-3.29l14.06,20.43h-5.13l-6.45-9.35c-.55-.8-1.08-1.56-1.57-2.29s-.98-1.47-1.45-2.21c-.47-.74-.95-1.5-1.44-2.28h.98c-.49.78-.97,1.54-1.45,2.27s-.97,1.47-1.46,2.21c-.5.74-1.03,1.51-1.6,2.31l-6.49,9.35h-5.05Z"/>
      <path class="cls-1" d="M85.02,66.94V30.56h12.92c2.6,0,4.83.46,6.67,1.39,1.84.93,3.25,2.22,4.22,3.89.98,1.67,1.46,3.63,1.46,5.87s-.5,4.2-1.5,5.87-2.43,2.97-4.3,3.91-4.1,1.4-6.7,1.4h-10.25v-3.93h10.23c1.74,0,3.21-.3,4.42-.9,1.2-.6,2.12-1.45,2.76-2.54s.95-2.36.95-3.81-.32-2.73-.95-3.81-1.55-1.91-2.76-2.5c-1.2-.59-2.68-.89-4.42-.89h-8.3v32.42h-4.44Z"/>
      <path class="cls-1" d="M124.81,96.94v-36.38h4.44v32.42h17.38v3.96h-21.83Z"/>
      <path class="cls-1" d="M174.23,37.5c-3.19,0-6.02-.79-8.5-2.38-2.47-1.59-4.42-3.79-5.83-6.6s-2.12-6.06-2.12-9.74.71-6.97,2.12-9.79,3.36-5.02,5.83-6.61c2.47-1.59,5.31-2.38,8.5-2.38s6.02.79,8.5,2.38c2.47,1.59,4.41,3.79,5.82,6.61,1.41,2.82,2.11,6.08,2.11,9.79s-.7,6.93-2.11,9.74c-1.41,2.82-3.35,5.02-5.82,6.6-2.47,1.59-5.31,2.38-8.5,2.38ZM174.23,33.35c2.18,0,4.18-.56,6.01-1.69s3.28-2.77,4.37-4.94c1.09-2.17,1.64-4.82,1.64-7.95s-.55-5.82-1.64-8c-1.09-2.17-2.55-3.82-4.37-4.94s-3.82-1.68-6.01-1.68-4.21.56-6.03,1.68-3.28,2.78-4.37,4.96-1.64,4.84-1.64,7.98.55,5.77,1.64,7.95c1.09,2.17,2.55,3.82,4.37,4.94s3.83,1.69,6.03,1.69Z"/>
      <path class="cls-1" d="M206.41,86.94v-36.38h13.28c2.6,0,4.83.46,6.67,1.37,1.84.91,3.25,2.2,4.22,3.86s1.46,3.61,1.46,5.86-.51,4.18-1.54,5.84-2.48,2.95-4.37,3.86c-1.89.91-4.13,1.37-6.71,1.37h-10.55v-3.96h10.69c1.72,0,3.19-.29,4.39-.87,1.2-.58,2.12-1.4,2.75-2.47.63-1.06.94-2.32.94-3.77s-.32-2.75-.95-3.81c-.63-1.06-1.55-1.88-2.76-2.45-1.21-.58-2.68-.87-4.42-.87h-8.67v32.42h-4.44ZM227.53,86.94l-8.79-16.36h5.03l8.94,16.36h-5.18Z"/>
      <path class="cls-1" d="M247.78,56.94V20.56h23.34v3.96h-18.9v11.89h17.53v3.93h-17.53v12.65h18.95v3.96h-23.39Z"/>
      <path class="cls-1" d="M3.93,156.94v-36.38h1.56l12.57,28.96c.24.55.48,1.11.72,1.66.24.55.47,1.11.71,1.67.24.56.47,1.12.71,1.67s.48,1.12.72,1.68h-.59c.24-.57.48-1.13.72-1.68s.48-1.11.72-1.67c.24-.56.48-1.12.72-1.67.24-.55.48-1.11.72-1.66l12.55-28.96h1.56v36.38h-1.12v-29.69c0-.65,0-1.31.01-1.96,0-.66.01-1.32.01-1.98v-1.96h.34c-.28.67-.55,1.33-.83,1.98-.28.65-.55,1.3-.83,1.96-.28.66-.56,1.31-.84,1.96-.28.65-.57,1.3-.84,1.95l-12.04,27.73h-1.12l-12.04-27.73c-.28-.65-.56-1.3-.84-1.95-.28-.65-.57-1.31-.84-1.96-.28-.66-.55-1.31-.83-1.96-.28-.65-.55-1.31-.83-1.98h.34v1.96c0,.66,0,1.32.01,1.98,0,.66.01,1.31.01,1.96v29.69h-1.12Z"/>
      <path class="cls-1" d="M68.31,157.35c-2.99,0-5.63-.78-7.9-2.34s-4.04-3.74-5.3-6.53c-1.26-2.79-1.89-6.03-1.89-9.71s.63-6.96,1.9-9.75c1.27-2.79,3.04-4.97,5.3-6.53s4.89-2.34,7.89-2.34,5.6.78,7.86,2.34,4.02,3.74,5.29,6.53c1.26,2.79,1.89,6.04,1.89,9.75s-.63,6.94-1.89,9.73c-1.26,2.79-3.02,4.96-5.29,6.52s-4.88,2.33-7.86,2.33ZM68.31,156.23c2.75,0,5.17-.73,7.26-2.2,2.09-1.46,3.72-3.51,4.9-6.13,1.17-2.62,1.76-5.66,1.76-9.13s-.59-6.53-1.76-9.15-2.8-4.67-4.9-6.14c-2.09-1.47-4.51-2.21-7.26-2.21s-5.18.73-7.28,2.18c-2.1,1.46-3.74,3.5-4.92,6.12-1.18,2.62-1.77,5.69-1.77,9.2s.58,6.49,1.75,9.11c1.16,2.62,2.8,4.67,4.9,6.14,2.1,1.47,4.54,2.21,7.32,2.21Z"/>
      <path class="cls-1" d="M99.26,156.94v-36.38h11.62c2.02,0,3.81.43,5.37,1.29s2.79,2.07,3.69,3.64,1.34,3.39,1.34,5.47-.44,3.85-1.33,5.4c-.89,1.55-2.11,2.75-3.67,3.61s-3.36,1.29-5.4,1.29h-11.04v-1.12h11.04c1.81,0,3.41-.38,4.8-1.15s2.49-1.84,3.28-3.21,1.2-2.98,1.2-4.82-.4-3.5-1.2-4.88c-.8-1.38-1.89-2.46-3.28-3.23s-2.99-1.16-4.8-1.16h-10.5v35.25h-1.12ZM120.65,156.94l-8.79-16.55h1.27l8.79,16.55h-1.27Z"/>
      <path class="cls-1" d="M137.42,156.94v-36.38h21.44v1.12h-20.31v16.21h18.63v1.12h-18.63v16.8h20.43v1.12h-21.56Z"/>
      <path class="cls-1" d="M212.86,157.5c-3.24,0-6.13-.77-8.68-2.31-2.55-1.54-4.55-3.71-6.02-6.52-1.46-2.81-2.2-6.11-2.2-9.9s.73-7.14,2.2-9.96c1.46-2.81,3.47-4.99,6.02-6.52,2.55-1.53,5.44-2.29,8.68-2.29s6.13.77,8.67,2.29,4.54,3.7,6.01,6.52c1.46,2.82,2.2,6.14,2.2,9.96s-.73,7.12-2.2,9.92c-1.46,2.81-3.47,4.98-6.01,6.51s-5.43,2.29-8.67,2.29ZM212.86,151.69c1.97,0,3.74-.5,5.3-1.5,1.56-1,2.8-2.46,3.7-4.38.9-1.92,1.35-4.26,1.35-7.03s-.45-5.14-1.35-7.07c-.9-1.93-2.14-3.39-3.7-4.39-1.56-1-3.33-1.5-5.3-1.5s-3.76.5-5.32,1.5c-1.56,1-2.79,2.47-3.7,4.39-.9,1.93-1.36,4.29-1.36,7.07s.45,5.11,1.36,7.03c.9,1.92,2.14,3.38,3.7,4.38,1.56,1,3.34,1.5,5.32,1.5Z"/>
      <path class="cls-1" d="M258.99,157.52c-2.96,0-5.55-.56-7.75-1.68-2.21-1.12-3.92-2.67-5.14-4.65-1.22-1.98-1.83-4.25-1.83-6.82v-23.8h6.4v23.27c0,1.55.34,2.92,1.03,4.11.68,1.2,1.65,2.14,2.89,2.82s2.71,1.03,4.41,1.03,3.18-.34,4.42-1.03,2.2-1.62,2.88-2.82c.68-1.2,1.03-2.57,1.03-4.11v-23.27h6.4v23.8c0,2.57-.61,4.85-1.83,6.82-1.22,1.98-2.93,3.53-5.14,4.65-2.21,1.12-4.79,1.68-7.75,1.68Z"/>
      <path class="cls-1" d="M287.25,126.13v-5.57h29.05v5.57h-11.28v30.81h-6.49v-30.81h-11.28Z"/>
      <path class="cls-1" d="M336.37,120.56v36.38h-6.49v-36.38h6.49ZM342.18,156.94h-9.18v-5.54h8.84c2.6,0,4.76-.49,6.48-1.48,1.72-.98,3-2.42,3.85-4.31.85-1.89,1.27-4.19,1.27-6.91s-.42-4.97-1.26-6.85c-.84-1.88-2.1-3.31-3.8-4.28s-3.81-1.46-6.35-1.46h-9.2v-5.54h9.62c3.61,0,6.73.73,9.34,2.2s4.62,3.55,6.03,6.26c1.41,2.71,2.11,5.94,2.11,9.68s-.71,7-2.12,9.73-3.44,4.83-6.08,6.3-5.82,2.21-9.55,2.21Z"/>
      <path class="cls-1" d="M390.13,157.5c-3.24,0-6.13-.77-8.68-2.31-2.55-1.54-4.55-3.71-6.02-6.52-1.46-2.81-2.2-6.11-2.2-9.9s.73-7.14,2.2-9.96c1.46-2.81,3.47-4.99,6.02-6.52,2.55-1.53,5.44-2.29,8.68-2.29s6.13.77,8.67,2.29,4.54,3.7,6.01,6.52c1.46,2.82,2.2,6.14,2.2,9.96s-.73,7.12-2.2,9.92c-1.46,2.81-3.47,4.98-6.01,6.51s-5.43,2.29-8.67,2.29ZM390.13,151.69c1.97,0,3.74-.5,5.3-1.5,1.56-1,2.8-2.46,3.7-4.38.9-1.92,1.35-4.26,1.35-7.03s-.45-5.14-1.35-7.07c-.9-1.93-2.14-3.39-3.7-4.39-1.56-1-3.33-1.5-5.3-1.5s-3.76.5-5.32,1.5c-1.56,1-2.79,2.47-3.7,4.39-.9,1.93-1.36,4.29-1.36,7.07s.45,5.11,1.36,7.03c.9,1.92,2.14,3.38,3.7,4.38,1.56,1,3.34,1.5,5.32,1.5Z"/>
      <path class="cls-1" d="M437.18,157.5c-3.24,0-6.13-.77-8.68-2.31-2.55-1.54-4.55-3.71-6.02-6.52-1.46-2.81-2.2-6.11-2.2-9.9s.73-7.14,2.2-9.96c1.46-2.81,3.47-4.99,6.02-6.52,2.55-1.53,5.44-2.29,8.68-2.29s6.13.77,8.67,2.29,4.54,3.7,6.01,6.52c1.46,2.82,2.2,6.14,2.2,9.96s-.73,7.12-2.2,9.92c-1.46,2.81-3.47,4.98-6.01,6.51s-5.43,2.29-8.67,2.29ZM437.18,151.69c1.97,0,3.74-.5,5.3-1.5,1.56-1,2.8-2.46,3.7-4.38.9-1.92,1.35-4.26,1.35-7.03s-.45-5.14-1.35-7.07c-.9-1.93-2.14-3.39-3.7-4.39-1.56-1-3.33-1.5-5.3-1.5s-3.76.5-5.32,1.5c-1.56,1-2.8,2.47-3.7,4.39-.9,1.93-1.35,4.29-1.35,7.07s.45,5.11,1.35,7.03c.9,1.92,2.14,3.38,3.7,4.38,1.56,1,3.34,1.5,5.32,1.5Z"/>
      <path class="cls-1" d="M468.85,156.94v-36.38h14.09c2.69,0,5,.48,6.93,1.43,1.94.95,3.42,2.3,4.46,4.04,1.03,1.74,1.55,3.79,1.55,6.15s-.54,4.4-1.62,6.12c-1.08,1.72-2.62,3.04-4.6,3.98-1.99.94-4.34,1.4-7.06,1.4h-9.94v-5.35h9.79c1.5,0,2.77-.25,3.81-.74,1.04-.5,1.83-1.21,2.38-2.12.54-.92.82-2.01.82-3.28s-.28-2.36-.83-3.27c-.55-.91-1.35-1.62-2.39-2.12-1.04-.5-2.31-.76-3.81-.76h-7.08v30.91h-6.49ZM489.58,156.94l-8.54-16.43h6.96l8.72,16.43h-7.13Z"/>
      <path class="cls-1" d="M0,236.94l12.92-36.38h8.15l12.94,36.38h-7.1l-6.4-19.07c-.63-2-1.3-4.16-1.99-6.47-.69-2.31-1.49-5.02-2.38-8.13h1.71c-.88,3.11-1.67,5.82-2.37,8.13-.7,2.31-1.38,4.47-2.03,6.47l-6.47,19.07H0ZM7.64,228.17v-5.3h18.75v5.3H7.64Z"/>
      <path class="cls-1" d="M47.23,236.94v-36.38h13.84c2.7,0,5.02.48,6.96,1.45,1.94.97,3.42,2.33,4.46,4.09,1.03,1.76,1.55,3.82,1.55,6.18s-.53,4.44-1.59,6.2c-1.06,1.76-2.56,3.12-4.52,4.09s-4.28,1.45-6.98,1.45h-9.99v-5.47h9.62c1.5,0,2.77-.26,3.81-.78,1.04-.52,1.84-1.25,2.39-2.19.55-.94.83-2.04.83-3.31s-.28-2.37-.83-3.29c-.55-.93-1.35-1.65-2.39-2.16-1.04-.51-2.31-.77-3.81-.77h-6.86v30.88h-6.49Z"/>
      <path class="cls-1" d="M87.73,236.94v-36.38h13.84c2.7,0,5.02.48,6.96,1.45,1.94.97,3.42,2.33,4.46,4.09s1.55,3.82,1.55,6.18-.53,4.44-1.59,6.2c-1.06,1.76-2.56,3.12-4.52,4.09s-4.28,1.45-6.98,1.45h-9.99v-5.47h9.62c1.5,0,2.77-.26,3.81-.78,1.04-.52,1.84-1.25,2.39-2.19.55-.94.83-2.04.83-3.31s-.28-2.37-.83-3.29c-.55-.93-1.35-1.65-2.39-2.16-1.04-.51-2.31-.77-3.81-.77h-6.86v30.88h-6.49Z"/>
      <path class="cls-1" d="M122.95,236.94l12.92-36.38h8.15l12.94,36.38h-7.1l-6.4-19.07c-.63-2-1.3-4.16-1.99-6.47-.69-2.31-1.49-5.02-2.38-8.13h1.71c-.88,3.11-1.67,5.82-2.37,8.13-.7,2.31-1.38,4.47-2.03,6.47l-6.47,19.07h-6.98ZM130.6,228.17v-5.3h18.75v5.3h-18.75Z"/>
      <path class="cls-1" d="M170.18,236.94v-36.38h14.09c2.69,0,5,.48,6.93,1.43,1.94.95,3.42,2.3,4.46,4.04,1.03,1.74,1.55,3.79,1.55,6.15s-.54,4.4-1.62,6.12c-1.08,1.72-2.62,3.04-4.6,3.98-1.99.94-4.34,1.4-7.06,1.4h-9.94v-5.35h9.79c1.5,0,2.77-.25,3.81-.74,1.04-.5,1.83-1.21,2.38-2.12.54-.92.82-2.01.82-3.28s-.28-2.36-.83-3.27c-.55-.91-1.35-1.62-2.39-2.12-1.04-.5-2.31-.76-3.81-.76h-7.08v30.91h-6.49ZM190.91,236.94l-8.54-16.43h6.96l8.72,16.43h-7.13Z"/>
      <path class="cls-1" d="M212.13,236.94v-36.38h24.93v5.57h-18.43v9.64h17.07v5.47h-17.07v10.13h18.46v5.57h-24.95Z"/>
      <path class="cls-1" d="M251.99,236.94v-36.38h6.49v30.81h16.67v5.57h-23.17Z"/>
      <path class="cls-1" d="M310.08,236.94l13.6-36.38h1.54l13.62,36.38h-1.2l-10.55-28.17c-.49-1.3-.97-2.6-1.45-3.91-.48-1.3-.96-2.6-1.43-3.91h.44c-.47,1.3-.95,2.61-1.43,3.91-.48,1.3-.96,2.61-1.45,3.91l-10.5,28.17h-1.2ZM315.48,224.93v-1.12h17.99v1.12h-17.99Z"/>
      <path class="cls-1" d="M353.16,236.94v-36.38h11.62c2.02,0,3.81.44,5.37,1.31s2.79,2.09,3.69,3.66,1.34,3.4,1.34,5.48-.44,3.86-1.33,5.42-2.11,2.78-3.67,3.65-3.36,1.31-5.4,1.31h-11.04v-1.12h11.04c1.81,0,3.41-.39,4.8-1.16s2.49-1.86,3.28-3.25c.8-1.39,1.2-3.01,1.2-4.85s-.4-3.5-1.2-4.89c-.8-1.39-1.89-2.48-3.28-3.26s-2.99-1.17-4.8-1.17h-10.5v35.25h-1.12Z"/>
      <path class="cls-1" d="M389.94,236.94v-36.38h11.62c2.02,0,3.81.44,5.37,1.31s2.79,2.09,3.69,3.66c.89,1.57,1.34,3.4,1.34,5.48s-.44,3.86-1.33,5.42-2.11,2.78-3.67,3.65-3.36,1.31-5.4,1.31h-11.04v-1.12h11.04c1.81,0,3.41-.39,4.8-1.16s2.49-1.86,3.28-3.25c.8-1.39,1.2-3.01,1.2-4.85s-.4-3.5-1.2-4.89c-.8-1.39-1.89-2.48-3.28-3.26s-2.99-1.17-4.8-1.17h-10.5v35.25h-1.12Z"/>
      <path class="cls-1" d="M426.71,236.94v-36.38h1.17v35.25h18.63v1.12h-19.8Z"/>
      <path class="cls-1" d="M462.47,200.56v36.38h-1.12v-36.38h1.12Z"/>
      <path class="cls-1" d="M493.54,237.35c-2.98,0-5.6-.78-7.87-2.33s-4.04-3.72-5.31-6.51-1.9-6.03-1.9-9.74.63-6.98,1.9-9.77,3.04-4.96,5.31-6.52,4.9-2.34,7.87-2.34c2.13,0,4.02.36,5.65,1.09s3.03,1.68,4.17,2.87,2.06,2.46,2.73,3.83c.68,1.37,1.13,2.7,1.35,4h-1.15c-.24-1.25-.69-2.51-1.34-3.76-.65-1.25-1.51-2.4-2.58-3.44-1.07-1.04-2.34-1.88-3.81-2.52-1.47-.63-3.15-.95-5.04-.95-2.49,0-4.79.68-6.91,2.03-2.12,1.35-3.82,3.32-5.11,5.92-1.29,2.6-1.94,5.78-1.94,9.56s.65,7.01,1.94,9.6,3,4.54,5.11,5.87c2.12,1.33,4.42,1.99,6.91,1.99,1.89,0,3.57-.32,5.04-.95,1.47-.63,2.74-1.48,3.8-2.53,1.06-1.05,1.92-2.2,2.58-3.45s1.11-2.5,1.35-3.74h1.15c-.23,1.29-.68,2.61-1.35,3.98-.68,1.37-1.59,2.64-2.73,3.83-1.15,1.19-2.54,2.15-4.17,2.88s-3.52,1.1-5.65,1.1Z"/>
      <path class="cls-1" d="M518.82,236.94l13.6-36.38h1.54l13.62,36.38h-1.2l-10.55-28.17c-.49-1.3-.97-2.6-1.45-3.91-.48-1.3-.96-2.6-1.43-3.91h.44c-.47,1.3-.95,2.61-1.43,3.91-.48,1.3-.96,2.61-1.45,3.91l-10.5,28.17h-1.2ZM524.21,224.93v-1.12h17.99v1.12h-17.99Z"/>
      <path class="cls-1" d="M554.02,201.68v-1.12h26.07v1.12h-12.48v35.25h-1.12v-35.25h-12.48Z"/>
      <path class="cls-1" d="M596.07,200.56v36.38h-1.12v-36.38h1.12Z"/>
      <path class="cls-1" d="M627.13,237.35c-2.99,0-5.63-.78-7.9-2.34s-4.04-3.74-5.3-6.53c-1.26-2.79-1.89-6.03-1.89-9.71s.63-6.96,1.9-9.75c1.27-2.79,3.04-4.97,5.3-6.53,2.26-1.56,4.89-2.34,7.89-2.34s5.6.78,7.86,2.34c2.26,1.56,4.02,3.74,5.29,6.53,1.26,2.79,1.89,6.04,1.89,9.75s-.63,6.94-1.89,9.73c-1.26,2.79-3.02,4.96-5.29,6.52-2.26,1.55-4.88,2.33-7.86,2.33ZM627.13,236.23c2.75,0,5.17-.73,7.26-2.2,2.09-1.46,3.72-3.51,4.89-6.13,1.17-2.62,1.76-5.66,1.76-9.13s-.59-6.53-1.76-9.15-2.8-4.67-4.89-6.14c-2.09-1.47-4.51-2.21-7.26-2.21s-5.18.73-7.28,2.18c-2.1,1.46-3.74,3.5-4.92,6.12-1.18,2.62-1.77,5.69-1.77,9.2s.58,6.49,1.75,9.11c1.16,2.62,2.79,4.67,4.89,6.14,2.1,1.47,4.54,2.21,7.32,2.21Z"/>
      <path class="cls-1" d="M658.08,236.94v-36.38h1.07l20.09,27.61c.62.85,1.23,1.69,1.83,2.54.6.85,1.2,1.69,1.81,2.53.6.84,1.2,1.68,1.81,2.53h-.42c0-.85,0-1.69-.02-2.53-.02-.84-.03-1.68-.04-2.53,0-.85-.01-1.69-.01-2.54v-27.61h1.12v36.38h-1.07l-20.04-27.56c-.62-.85-1.23-1.69-1.83-2.54-.6-.85-1.2-1.69-1.81-2.54-.6-.85-1.21-1.69-1.83-2.54h.42c0,.85,0,1.69.01,2.54,0,.85.02,1.69.02,2.54,0,.85.01,1.69.01,2.54v27.56h-1.12Z"/>
      <path class="cls-1" d="M712.36,237.47c-2.2,0-4.13-.38-5.79-1.15-1.66-.77-2.97-1.83-3.93-3.2-.96-1.37-1.5-2.95-1.61-4.74h1.12c.11,1.58.6,2.97,1.46,4.16.86,1.2,2.04,2.13,3.53,2.8s3.23,1,5.21,1c2.1,0,3.93-.36,5.49-1.09s2.78-1.74,3.65-3.04,1.31-2.81,1.31-4.52c0-1.3-.29-2.45-.85-3.44-.57-.99-1.46-1.88-2.67-2.65-1.21-.77-2.8-1.46-4.77-2.06l-4.1-1.27c-2.86-.89-5-2.07-6.42-3.54s-2.12-3.25-2.12-5.35c0-1.79.47-3.39,1.4-4.81s2.22-2.53,3.85-3.35c1.63-.81,3.47-1.22,5.54-1.22s3.91.42,5.48,1.25,2.82,1.96,3.75,3.4c.93,1.44,1.45,3.1,1.56,4.97h-1.12c-.18-2.47-1.13-4.51-2.86-6.1-1.73-1.59-4-2.39-6.81-2.39-1.84,0-3.49.35-4.96,1.06-1.46.71-2.62,1.68-3.45,2.93-.84,1.24-1.26,2.67-1.26,4.26,0,1.21.28,2.3.84,3.28.56.99,1.41,1.85,2.55,2.6,1.14.75,2.56,1.39,4.27,1.93l4.15,1.27c1.56.49,2.92,1.04,4.06,1.64s2.1,1.28,2.84,2.03c.75.75,1.31,1.58,1.67,2.5.37.92.55,1.94.55,3.06,0,1.89-.48,3.57-1.45,5.04-.97,1.47-2.32,2.63-4.05,3.47-1.73.84-3.76,1.26-6.07,1.26Z"/>
    </g>
  </g>
</svg>