<?xml version="1.0" encoding="UTF-8"?>
<svg id="_圖層_2" data-name="圖層 2" xmlns="http://www.w3.org/2000/svg" viewBox="0 0 764.49 237.52">
  <defs>
    <style>
      .cls-1 {
        fill: #fff;
      }
    </style>
  </defs>
  <g id="text">
    <g>
      <path class="cls-1" d="M2.64,76.94v-36.38h24.93v5.57H9.13v9.64h17.07v5.47H9.13v10.13h18.46v5.57H2.64Z"/>
      <path class="cls-1" d="M40.26,46.94l14.72-20.97v4.81l-13.7-20.21h7.42l4.47,6.71c.59.88,1.13,1.72,1.62,2.54.5.81.98,1.62,1.46,2.42.48.8.96,1.61,1.45,2.44h-1.54c.52-.83,1.02-1.64,1.5-2.44.48-.8.98-1.6,1.49-2.42s1.06-1.66,1.65-2.54l4.54-6.71h7.23l-13.53,19.9v-4.64l14.45,21.12h-7.52l-5.54-8.23c-.5-.78-.98-1.52-1.44-2.21-.46-.69-.9-1.38-1.33-2.07-.43-.69-.88-1.4-1.33-2.14h1.1c-.44.73-.88,1.44-1.32,2.12s-.89,1.38-1.35,2.07c-.46.7-.96,1.44-1.48,2.22l-5.66,8.23h-7.37Z"/>
      <path class="cls-1" d="M86.76,66.94V30.56h13.84c2.7,0,5.02.48,6.96,1.45s3.42,2.33,4.46,4.09,1.55,3.82,1.55,6.18-.53,4.44-1.59,6.2-2.56,3.12-4.52,4.09-4.28,1.45-6.98,1.45h-9.99v-5.47h9.62c1.5,0,2.77-.26,3.81-.78s1.84-1.25,2.39-2.19.83-2.04.83-3.31-.28-2.37-.83-3.29-1.35-1.65-2.39-2.16c-1.04-.51-2.31-.77-3.81-.77h-6.86v30.88h-6.49Z"/>
      <path class="cls-1" d="M127.26,96.94v-36.38h6.49v30.81h16.67v5.57h-23.17Z"/>
      <path class="cls-1" d="M178.61,37.5c-3.24,0-6.13-.77-8.68-2.31-2.55-1.54-4.55-3.71-6.02-6.52-1.46-2.81-2.2-6.11-2.2-9.9s.73-7.14,2.2-9.96c1.46-2.81,3.47-4.99,6.02-6.52,2.55-1.53,5.44-2.29,8.68-2.29s6.13.77,8.67,2.29,4.54,3.7,6.01,6.52c1.46,2.82,2.2,6.14,2.2,9.96s-.73,7.12-2.2,9.92c-1.46,2.81-3.47,4.98-6.01,6.51s-5.43,2.29-8.67,2.29ZM178.61,31.69c1.97,0,3.74-.5,5.3-1.5,1.56-1,2.8-2.46,3.7-4.38.9-1.92,1.35-4.26,1.35-7.03s-.45-5.14-1.35-7.07c-.9-1.93-2.14-3.39-3.7-4.39-1.56-1-3.33-1.5-5.3-1.5s-3.76.5-5.32,1.5c-1.56,1-2.8,2.47-3.7,4.39-.9,1.93-1.35,4.29-1.35,7.07s.45,5.11,1.35,7.03c.9,1.92,2.14,3.38,3.7,4.38,1.56,1,3.34,1.5,5.32,1.5Z"/>
      <path class="cls-1" d="M210.29,86.94v-36.38h14.09c2.69,0,5,.48,6.93,1.43,1.94.95,3.42,2.3,4.46,4.04,1.03,1.74,1.55,3.79,1.55,6.15s-.54,4.4-1.62,6.12c-1.08,1.72-2.62,3.04-4.6,3.98-1.99.94-4.34,1.4-7.06,1.4h-9.94v-5.35h9.79c1.5,0,2.77-.25,3.81-.74,1.04-.5,1.83-1.21,2.38-2.12.55-.92.82-2.01.82-3.28s-.28-2.36-.83-3.27c-.55-.91-1.35-1.62-2.39-2.12-1.04-.5-2.31-.76-3.81-.76h-7.08v30.91h-6.49ZM231.02,86.94l-8.54-16.43h6.96l8.72,16.43h-7.13Z"/>
      <path class="cls-1" d="M252.24,56.94V20.56h24.93v5.57h-18.43v9.64h17.07v5.47h-17.07v10.13h18.46v5.57h-24.95Z"/>
      <path class="cls-1" d="M2.64,156.94v-36.38h9.42l7.06,19.04c.23.7.5,1.56.82,2.58s.64,2.09.98,3.21.65,2.2.94,3.23.54,1.91.73,2.62h-1.54c.2-.7.44-1.57.72-2.6.28-1.03.59-2.12.93-3.25s.66-2.21.98-3.22.59-1.88.82-2.58l6.93-19.04h9.45v36.38h-6.4v-18.51c0-.8.01-1.73.04-2.79s.05-2.19.09-3.38c.03-1.19.06-2.39.09-3.6s.04-2.37.06-3.48h.73c-.37,1.24-.76,2.49-1.15,3.77s-.77,2.51-1.15,3.7c-.37,1.19-.72,2.28-1.04,3.27s-.6,1.83-.84,2.51l-6.88,18.51h-5.32l-6.93-18.51c-.24-.68-.53-1.52-.85-2.5-.33-.98-.68-2.07-1.06-3.26-.38-1.19-.77-2.42-1.17-3.7-.4-1.28-.8-2.54-1.21-3.79h.9c.02,1.09.04,2.24.06,3.45.02,1.21.05,2.41.09,3.6.03,1.19.06,2.32.09,3.38.02,1.07.04,2.01.04,2.82v18.51H2.64Z"/>
      <path class="cls-1" d="M72.46,157.5c-3.24,0-6.13-.77-8.68-2.31-2.55-1.54-4.55-3.71-6.02-6.52-1.46-2.81-2.2-6.11-2.2-9.9s.73-7.14,2.2-9.96c1.46-2.81,3.47-4.99,6.02-6.52s5.44-2.29,8.68-2.29,6.13.77,8.67,2.29,4.54,3.7,6.01,6.52c1.46,2.82,2.2,6.14,2.2,9.96s-.73,7.12-2.2,9.92c-1.46,2.81-3.47,4.98-6.01,6.51s-5.43,2.29-8.67,2.29ZM72.46,151.69c1.97,0,3.74-.5,5.3-1.5,1.56-1,2.79-2.46,3.7-4.38.9-1.92,1.36-4.26,1.36-7.03s-.45-5.14-1.36-7.07c-.9-1.93-2.14-3.39-3.7-4.39-1.56-1-3.33-1.5-5.3-1.5s-3.76.5-5.32,1.5c-1.56,1-2.8,2.47-3.7,4.39-.9,1.93-1.35,4.29-1.35,7.07s.45,5.11,1.35,7.03c.9,1.92,2.14,3.38,3.7,4.38,1.56,1,3.34,1.5,5.32,1.5Z"/>
      <path class="cls-1" d="M104.13,156.94v-36.38h14.09c2.69,0,5,.48,6.93,1.43,1.94.95,3.42,2.3,4.46,4.04,1.03,1.74,1.55,3.79,1.55,6.15s-.54,4.4-1.62,6.12c-1.08,1.72-2.62,3.04-4.6,3.98s-4.34,1.4-7.06,1.4h-9.94v-5.35h9.79c1.5,0,2.77-.25,3.81-.74s1.83-1.21,2.38-2.12c.55-.92.82-2.01.82-3.28s-.28-2.36-.83-3.27c-.55-.91-1.35-1.62-2.39-2.12s-2.31-.76-3.81-.76h-7.08v30.91h-6.49ZM124.86,156.94l-8.54-16.43h6.96l8.72,16.43h-7.13Z"/>
      <path class="cls-1" d="M146.08,156.94v-36.38h24.93v5.57h-18.43v9.64h17.07v5.47h-17.07v10.13h18.46v5.57h-24.95Z"/>
      <path class="cls-1" d="M223.36,157.5c-3.24,0-6.13-.77-8.68-2.31-2.55-1.54-4.55-3.71-6.02-6.52-1.46-2.81-2.2-6.11-2.2-9.9s.73-7.14,2.2-9.96c1.46-2.81,3.47-4.99,6.02-6.52,2.55-1.53,5.44-2.29,8.68-2.29s6.13.77,8.67,2.29,4.54,3.7,6.01,6.52c1.46,2.82,2.2,6.14,2.2,9.96s-.73,7.12-2.2,9.92c-1.46,2.81-3.47,4.98-6.01,6.51s-5.43,2.29-8.67,2.29ZM223.36,151.69c1.97,0,3.74-.5,5.3-1.5,1.56-1,2.8-2.46,3.7-4.38.9-1.92,1.35-4.26,1.35-7.03s-.45-5.14-1.35-7.07c-.9-1.93-2.14-3.39-3.7-4.39-1.56-1-3.33-1.5-5.3-1.5s-3.76.5-5.32,1.5c-1.56,1-2.8,2.47-3.7,4.39-.9,1.93-1.35,4.29-1.35,7.07s.45,5.11,1.35,7.03c.9,1.92,2.14,3.38,3.7,4.38,1.56,1,3.34,1.5,5.32,1.5Z"/>
      <path class="cls-1" d="M269.48,157.52c-2.96,0-5.55-.56-7.75-1.68s-3.92-2.67-5.14-4.65c-1.22-1.98-1.83-4.25-1.83-6.82v-23.8h6.4v23.27c0,1.55.34,2.92,1.03,4.11.68,1.2,1.65,2.14,2.89,2.82s2.71,1.03,4.41,1.03,3.18-.34,4.42-1.03,2.2-1.62,2.88-2.82c.68-1.2,1.03-2.57,1.03-4.11v-23.27h6.4v23.8c0,2.57-.61,4.85-1.83,6.82-1.22,1.98-2.93,3.53-5.14,4.65s-4.79,1.68-7.75,1.68Z"/>
      <path class="cls-1" d="M297.74,126.13v-5.57h29.05v5.57h-11.28v30.81h-6.49v-30.81h-11.28Z"/>
      <path class="cls-1" d="M346.87,120.56v36.38h-6.49v-36.38h6.49ZM352.68,156.94h-9.18v-5.54h8.84c2.6,0,4.76-.49,6.48-1.48,1.72-.98,3-2.42,3.84-4.31.85-1.89,1.27-4.19,1.27-6.91s-.42-4.97-1.26-6.85c-.84-1.88-2.1-3.31-3.8-4.28s-3.81-1.46-6.35-1.46h-9.2v-5.54h9.62c3.61,0,6.73.73,9.34,2.2s4.62,3.55,6.03,6.26c1.41,2.71,2.11,5.94,2.11,9.68s-.71,7-2.12,9.73-3.44,4.83-6.08,6.3-5.82,2.21-9.55,2.21Z"/>
      <path class="cls-1" d="M400.62,157.5c-3.24,0-6.13-.77-8.68-2.31-2.55-1.54-4.55-3.71-6.02-6.52-1.46-2.81-2.2-6.11-2.2-9.9s.73-7.14,2.2-9.96c1.46-2.81,3.47-4.99,6.02-6.52,2.55-1.53,5.44-2.29,8.68-2.29s6.13.77,8.67,2.29,4.54,3.7,6.01,6.52c1.46,2.82,2.2,6.14,2.2,9.96s-.73,7.12-2.2,9.92c-1.46,2.81-3.47,4.98-6.01,6.51s-5.43,2.29-8.67,2.29ZM400.62,151.69c1.97,0,3.74-.5,5.3-1.5,1.56-1,2.8-2.46,3.7-4.38.9-1.92,1.35-4.26,1.35-7.03s-.45-5.14-1.35-7.07c-.9-1.93-2.14-3.39-3.7-4.39-1.56-1-3.33-1.5-5.3-1.5s-3.76.5-5.32,1.5c-1.56,1-2.8,2.47-3.7,4.39-.9,1.93-1.35,4.29-1.35,7.07s.45,5.11,1.35,7.03c.9,1.92,2.14,3.38,3.7,4.38,1.56,1,3.34,1.5,5.32,1.5Z"/>
      <path class="cls-1" d="M447.67,157.5c-3.24,0-6.13-.77-8.68-2.31-2.55-1.54-4.55-3.71-6.02-6.52-1.46-2.81-2.2-6.11-2.2-9.9s.73-7.14,2.2-9.96c1.46-2.81,3.47-4.99,6.02-6.52s5.44-2.29,8.68-2.29,6.13.77,8.67,2.29,4.54,3.7,6.01,6.52c1.46,2.82,2.2,6.14,2.2,9.96s-.73,7.12-2.2,9.92c-1.46,2.81-3.47,4.98-6.01,6.51s-5.43,2.29-8.67,2.29ZM447.67,151.69c1.97,0,3.74-.5,5.3-1.5,1.56-1,2.8-2.46,3.7-4.38.9-1.92,1.35-4.26,1.35-7.03s-.45-5.14-1.35-7.07c-.9-1.93-2.14-3.39-3.7-4.39-1.56-1-3.33-1.5-5.3-1.5s-3.76.5-5.32,1.5c-1.56,1-2.8,2.47-3.7,4.39-.9,1.93-1.35,4.29-1.35,7.07s.45,5.11,1.35,7.03c.9,1.92,2.14,3.38,3.7,4.38,1.56,1,3.34,1.5,5.32,1.5Z"/>
      <path class="cls-1" d="M479.35,156.94v-36.38h14.09c2.69,0,5,.48,6.93,1.43,1.94.95,3.42,2.3,4.46,4.04,1.03,1.74,1.55,3.79,1.55,6.15s-.54,4.4-1.62,6.12c-1.08,1.72-2.62,3.04-4.6,3.98s-4.34,1.4-7.06,1.4h-9.94v-5.35h9.79c1.5,0,2.77-.25,3.81-.74s1.83-1.21,2.38-2.12c.54-.92.82-2.01.82-3.28s-.28-2.36-.83-3.27c-.55-.91-1.35-1.62-2.39-2.12s-2.31-.76-3.81-.76h-7.08v30.91h-6.49ZM500.07,156.94l-8.54-16.43h6.96l8.72,16.43h-7.13Z"/>
      <path class="cls-1" d="M0,236.94l12.92-36.38h8.15l12.94,36.38h-7.1l-6.4-19.07c-.63-2-1.3-4.16-1.99-6.47-.69-2.31-1.49-5.02-2.38-8.13h1.71c-.88,3.11-1.67,5.82-2.37,8.13-.7,2.31-1.38,4.47-2.03,6.47l-6.47,19.07H0ZM7.64,228.17v-5.3h18.75v5.3H7.64Z"/>
      <path class="cls-1" d="M47.23,236.94v-36.38h13.84c2.7,0,5.02.48,6.96,1.45,1.94.97,3.42,2.33,4.46,4.09,1.03,1.76,1.55,3.82,1.55,6.18s-.53,4.44-1.59,6.2c-1.06,1.76-2.56,3.12-4.52,4.09s-4.28,1.45-6.98,1.45h-9.99v-5.47h9.62c1.5,0,2.77-.26,3.81-.78,1.04-.52,1.84-1.25,2.39-2.19.55-.94.83-2.04.83-3.31s-.28-2.37-.83-3.29c-.55-.93-1.35-1.65-2.39-2.16-1.04-.51-2.31-.77-3.81-.77h-6.86v30.88h-6.49Z"/>
      <path class="cls-1" d="M87.73,236.94v-36.38h13.84c2.7,0,5.02.48,6.96,1.45,1.94.97,3.42,2.33,4.46,4.09s1.55,3.82,1.55,6.18-.53,4.44-1.59,6.2c-1.06,1.76-2.56,3.12-4.52,4.09s-4.28,1.45-6.98,1.45h-9.99v-5.47h9.62c1.5,0,2.77-.26,3.81-.78,1.04-.52,1.84-1.25,2.39-2.19.55-.94.83-2.04.83-3.31s-.28-2.37-.83-3.29c-.55-.93-1.35-1.65-2.39-2.16-1.04-.51-2.31-.77-3.81-.77h-6.86v30.88h-6.49Z"/>
      <path class="cls-1" d="M122.95,236.94l12.92-36.38h8.15l12.94,36.38h-7.1l-6.4-19.07c-.63-2-1.3-4.16-1.99-6.47-.69-2.31-1.49-5.02-2.38-8.13h1.71c-.88,3.11-1.67,5.82-2.37,8.13-.7,2.31-1.38,4.47-2.03,6.47l-6.47,19.07h-6.98ZM130.6,228.17v-5.3h18.75v5.3h-18.75Z"/>
      <path class="cls-1" d="M170.18,236.94v-36.38h14.09c2.69,0,5,.48,6.93,1.43,1.94.95,3.42,2.3,4.46,4.04,1.03,1.74,1.55,3.79,1.55,6.15s-.54,4.4-1.62,6.12c-1.08,1.72-2.62,3.04-4.6,3.98-1.99.94-4.34,1.4-7.06,1.4h-9.94v-5.35h9.79c1.5,0,2.77-.25,3.81-.74,1.04-.5,1.83-1.21,2.38-2.12.54-.92.82-2.01.82-3.28s-.28-2.36-.83-3.27c-.55-.91-1.35-1.62-2.39-2.12-1.04-.5-2.31-.76-3.81-.76h-7.08v30.91h-6.49ZM190.91,236.94l-8.54-16.43h6.96l8.72,16.43h-7.13Z"/>
      <path class="cls-1" d="M212.13,236.94v-36.38h24.93v5.57h-18.43v9.64h17.07v5.47h-17.07v10.13h18.46v5.57h-24.95Z"/>
      <path class="cls-1" d="M251.99,236.94v-36.38h6.49v30.81h16.67v5.57h-23.17Z"/>
      <path class="cls-1" d="M308.62,236.94l12.92-36.38h8.15l12.94,36.38h-7.1l-6.4-19.07c-.63-2-1.3-4.16-1.99-6.47-.69-2.31-1.49-5.02-2.38-8.13h1.71c-.88,3.11-1.67,5.82-2.37,8.13-.7,2.31-1.38,4.47-2.03,6.47l-6.47,19.07h-6.98ZM316.26,228.17v-5.3h18.75v5.3h-18.75Z"/>
      <path class="cls-1" d="M355.84,236.94v-36.38h13.84c2.7,0,5.02.48,6.96,1.45,1.94.97,3.42,2.33,4.46,4.09,1.03,1.76,1.55,3.82,1.55,6.18s-.53,4.44-1.59,6.2c-1.06,1.76-2.56,3.12-4.52,4.09s-4.28,1.45-6.98,1.45h-9.99v-5.47h9.62c1.5,0,2.77-.26,3.81-.78,1.04-.52,1.84-1.25,2.39-2.19.55-.94.83-2.04.83-3.31s-.28-2.37-.83-3.29c-.55-.93-1.35-1.65-2.39-2.16-1.04-.51-2.31-.77-3.81-.77h-6.86v30.88h-6.49Z"/>
      <path class="cls-1" d="M396.34,236.94v-36.38h13.84c2.7,0,5.02.48,6.96,1.45s3.42,2.33,4.46,4.09,1.55,3.82,1.55,6.18-.53,4.44-1.59,6.2-2.56,3.12-4.52,4.09-4.28,1.45-6.98,1.45h-9.99v-5.47h9.62c1.5,0,2.77-.26,3.81-.78s1.84-1.25,2.39-2.19.83-2.04.83-3.31-.28-2.37-.83-3.29-1.35-1.65-2.39-2.16c-1.04-.51-2.31-.77-3.81-.77h-6.86v30.88h-6.49Z"/>
      <path class="cls-1" d="M436.84,236.94v-36.38h6.49v30.81h16.67v5.57h-23.17Z"/>
      <path class="cls-1" d="M480.11,200.56v36.38h-6.49v-36.38h6.49Z"/>
      <path class="cls-1" d="M511.89,237.5c-3.3,0-6.24-.77-8.8-2.29s-4.57-3.7-6.03-6.51c-1.46-2.81-2.19-6.12-2.19-9.92s.73-7.17,2.19-9.97c1.46-2.81,3.47-4.98,6.04-6.51,2.57-1.53,5.5-2.29,8.79-2.29,2.05,0,3.96.3,5.71.9,1.76.6,3.32,1.47,4.7,2.6,1.38,1.13,2.51,2.49,3.39,4.08.89,1.59,1.48,3.38,1.79,5.38h-6.57c-.23-1.14-.61-2.15-1.14-3.04-.53-.89-1.18-1.64-1.97-2.26s-1.66-1.08-2.65-1.39c-.98-.31-2.06-.46-3.21-.46-2.17,0-4.04.53-5.63,1.59-1.59,1.06-2.81,2.56-3.66,4.49-.85,1.94-1.28,4.23-1.28,6.88s.43,4.92,1.28,6.86,2.08,3.43,3.66,4.48c1.59,1.05,3.46,1.58,5.63,1.58,1.14,0,2.2-.15,3.19-.46.98-.31,1.87-.77,2.65-1.38.78-.61,1.44-1.36,1.98-2.23s.93-1.89,1.17-3.03h6.54c-.28,1.94-.86,3.7-1.75,5.27-.89,1.58-2.01,2.94-3.38,4.08s-2.93,2.02-4.7,2.64c-1.77.62-3.69.93-5.77.93Z"/>
      <path class="cls-1" d="M538.11,236.94l12.92-36.38h8.15l12.94,36.38h-7.1l-6.4-19.07c-.63-2-1.3-4.16-1.99-6.47-.69-2.31-1.49-5.02-2.38-8.13h1.71c-.88,3.11-1.67,5.82-2.37,8.13-.7,2.31-1.38,4.47-2.03,6.47l-6.47,19.07h-6.98ZM545.75,228.17v-5.3h18.75v5.3h-18.75Z"/>
      <path class="cls-1" d="M578.82,206.13v-5.57h29.05v5.57h-11.28v30.81h-6.49v-30.81h-11.28Z"/>
      <path class="cls-1" d="M627.95,200.56v36.38h-6.49v-36.38h6.49Z"/>
      <path class="cls-1" d="M659.61,237.5c-3.24,0-6.13-.77-8.68-2.31-2.55-1.54-4.55-3.71-6.02-6.52-1.46-2.81-2.2-6.11-2.2-9.9s.73-7.14,2.2-9.96c1.46-2.81,3.47-4.99,6.02-6.52s5.44-2.29,8.68-2.29,6.13.77,8.67,2.29,4.54,3.7,6.01,6.52c1.46,2.82,2.2,6.14,2.2,9.96s-.73,7.12-2.2,9.92c-1.46,2.81-3.47,4.98-6.01,6.51s-5.43,2.29-8.67,2.29ZM659.61,231.69c1.97,0,3.74-.5,5.3-1.5,1.56-1,2.8-2.46,3.7-4.38.9-1.92,1.35-4.26,1.35-7.03s-.45-5.14-1.35-7.07c-.9-1.93-2.14-3.39-3.7-4.39-1.56-1-3.33-1.5-5.3-1.5s-3.76.5-5.32,1.5c-1.56,1-2.8,2.47-3.7,4.39-.9,1.93-1.35,4.29-1.35,7.07s.45,5.11,1.35,7.03c.9,1.92,2.14,3.38,3.7,4.38,1.56,1,3.34,1.5,5.32,1.5Z"/>
      <path class="cls-1" d="M691.28,236.94v-36.38h7.06l12.74,20.24c.39.6.86,1.38,1.4,2.33.54.95,1.12,1.98,1.72,3.09s1.19,2.22,1.76,3.34l-.71,1.22c-.06-1.09-.13-2.32-.18-3.69-.06-1.37-.1-2.67-.12-3.92-.02-1.24-.04-2.23-.04-2.96v-19.65h6.49v36.38h-7.08l-11.47-18.21c-.47-.76-1.03-1.69-1.68-2.78-.65-1.09-1.38-2.34-2.17-3.76s-1.66-2.97-2.59-4.66l1-.73c.1,1.81.17,3.49.23,5.04.06,1.55.1,2.92.12,4.09s.04,2.1.04,2.78v18.24h-6.52Z"/>
      <path class="cls-1" d="M750.52,237.52c-2.95,0-5.49-.48-7.63-1.45-2.14-.97-3.79-2.36-4.94-4.19s-1.74-4-1.76-6.54h6.35c.03,1.42.38,2.62,1.04,3.62.66,1,1.58,1.77,2.77,2.29s2.59.79,4.2.79c1.51,0,2.83-.21,3.94-.65,1.11-.43,1.99-1.04,2.61-1.83.63-.79.94-1.71.94-2.77,0-.88-.24-1.64-.71-2.27s-1.2-1.18-2.2-1.65c-.99-.46-2.26-.87-3.81-1.23l-3.96-.93c-3.5-.81-6.11-2.03-7.82-3.65-1.72-1.62-2.58-3.71-2.58-6.26,0-2.18.56-4.08,1.68-5.69s2.69-2.87,4.7-3.77c2.01-.9,4.33-1.35,6.97-1.35s5.01.46,6.98,1.39,3.5,2.24,4.6,3.93,1.68,3.7,1.75,6.03h-6.18c-.13-1.84-.84-3.28-2.12-4.32s-2.98-1.56-5.08-1.56c-1.33,0-2.52.21-3.55.65-1.03.43-1.84,1.02-2.42,1.77-.58.75-.87,1.61-.87,2.59,0,.86.24,1.6.73,2.21.49.61,1.22,1.13,2.19,1.56.97.43,2.18.82,3.63,1.16l3.61.86c1.77.41,3.34.91,4.69,1.5,1.35.6,2.49,1.31,3.41,2.14.92.83,1.62,1.79,2.09,2.88.47,1.09.71,2.33.71,3.71,0,2.23-.56,4.18-1.68,5.84s-2.73,2.94-4.82,3.84c-2.09.9-4.58,1.36-7.46,1.36Z"/>
    </g>
  </g>
</svg>