<?xml version="1.0" encoding="UTF-8"?>
<svg id="_圖層_2" data-name="圖層 2" xmlns="http://www.w3.org/2000/svg" viewBox="0 0 205.56 15.03">
  <defs>
    <style>
      .cls-1 {
        fill: #ffc500;
      }
    </style>
  </defs>
  <g id="text">
    <g>
      <path class="cls-1" d="M0,9.27c.59-.21,1.29-.46,2.11-.77.82-.31,1.66-.62,2.54-.95l.11.47c-.8.3-1.6.61-2.38.91-.78.3-1.49.57-2.12.81l-.25-.47ZM.13,3.82h4.54v.49H.13v-.49ZM2.34.37h.54v13.71c0,.21-.04.35-.11.45-.07.09-.19.16-.34.22-.16.04-.38.07-.67.08-.29,0-.68.02-1.17.02-.01-.06-.04-.14-.07-.23-.04-.09-.08-.18-.13-.25.41.01.76.02,1.06.02s.5,0,.59-.02c.11,0,.18-.02.23-.05.04-.03.06-.1.06-.21V.37ZM9.74,8.5l.47.15c-.35.75-.81,1.45-1.38,2.11-.57.66-1.2,1.24-1.89,1.76-.69.51-1.4.93-2.13,1.25-.05-.06-.11-.14-.18-.22-.07-.08-.14-.14-.22-.19.73-.29,1.44-.68,2.12-1.17s1.31-1.05,1.86-1.68,1-1.3,1.34-2ZM8.82,2.35h.54c-.06.59-.17,1.12-.31,1.57-.15.45-.36.85-.64,1.2s-.64.64-1.09.88c-.45.24-1,.45-1.65.62-.02-.04-.06-.09-.1-.13s-.08-.09-.13-.14c-.04-.05-.09-.08-.14-.11.64-.15,1.17-.34,1.59-.57.43-.23.77-.49,1.04-.8.26-.31.46-.67.6-1.09.14-.42.23-.9.28-1.44ZM5.35,8.38h10.66v.47H5.35v-.47ZM5.58,1.39h9.85v2.5h-.54V1.88H6.1v2.04h-.52V1.39ZM10.17,6.45h.52v8.5h-.52V6.45ZM11.14,8.52c.35.67.79,1.32,1.34,1.94.55.63,1.15,1.19,1.8,1.68.65.5,1.31.89,1.97,1.18-.05.03-.1.07-.14.11-.05.04-.1.09-.14.14-.05.05-.09.1-.13.15-.66-.33-1.32-.76-1.98-1.29-.66-.52-1.27-1.11-1.82-1.75-.55-.64-1.01-1.31-1.37-2l.47-.18ZM11.57,2.35h.52v2.8c0,.22.03.36.08.43.05.07.17.1.35.1h2.38c.13,0,.29,0,.48,0,.19,0,.34-.02.46-.04.01.06.02.14.04.23.01.09.02.17.04.22-.1.02-.23.04-.41.04-.18,0-.37,0-.58,0h-2.41c-.25,0-.44-.03-.58-.09s-.22-.16-.28-.31c-.05-.15-.08-.35-.08-.61v-2.79Z"/>
      <path class="cls-1" d="M21.84,1.96h15.08v.47h-15.08v-.47ZM26.05,11.62l.5.16c-.37.35-.8.69-1.28,1.03-.48.34-.98.66-1.49.96-.51.3-1,.56-1.48.79-.02-.03-.07-.07-.13-.1-.06-.04-.12-.08-.18-.12s-.11-.08-.16-.1c.76-.33,1.51-.73,2.27-1.19.76-.46,1.4-.93,1.94-1.42ZM21.86,4.47h15.12v2.72h-.52v-2.25h-14.08v2.25h-.52v-2.72ZM22.54,10.93s-.01-.1-.04-.17l-.07-.21c-.02-.07-.05-.13-.07-.19.24-.02.57-.09.98-.2.41-.11.88-.27,1.4-.46.29-.1.71-.26,1.28-.49.56-.23,1.21-.5,1.95-.83.74-.32,1.51-.68,2.3-1.08.8-.39,1.58-.8,2.33-1.22l.43.37c-1.66.92-3.31,1.72-4.97,2.41-1.66.69-3.29,1.29-4.91,1.8v.02c-.12.02-.22.05-.31.07-.08.03-.16.05-.22.08s-.09.06-.09.09ZM22.54,10.93v-.36l.56-.24,11.77-.58c.02.08.06.15.1.24.04.08.09.14.13.19-1.88.1-3.5.18-4.83.26-1.34.08-2.45.14-3.35.19-.89.05-1.62.09-2.17.12s-.98.06-1.27.08c-.29.02-.51.04-.64.06-.13.02-.23.04-.31.06ZM23.82,8.29s-.01-.1-.04-.17c-.02-.07-.04-.14-.06-.22-.02-.08-.04-.13-.06-.18.14-.01.32-.05.54-.12.22-.07.44-.16.68-.27.14-.06.35-.17.63-.31.28-.14.59-.31.95-.52.36-.21.73-.43,1.12-.67.38-.24.75-.49,1.1-.75l.5.29c-.8.56-1.61,1.06-2.41,1.49-.8.43-1.6.8-2.39,1.1v.02c-.18.05-.32.11-.41.15-.1.05-.14.1-.14.15ZM23.82,8.29v-.41l.49-.18,6.17-.37c-.04.08-.08.16-.12.24-.04.09-.08.16-.1.21-1.13.06-2.07.12-2.82.17-.75.05-1.35.09-1.8.12-.45.03-.8.06-1.04.09-.25.03-.42.05-.53.06-.11.02-.19.04-.25.06ZM29.31,10.27h.54v3.82c0,.19-.03.34-.1.44-.07.1-.2.17-.4.23-.19.04-.49.07-.9.08-.41.01-.95.02-1.62.02-.01-.09-.04-.17-.08-.25s-.09-.16-.15-.24c.43.01.81.02,1.12.02.32,0,.58,0,.8,0,.22,0,.37-.01.45-.02.14-.01.24-.04.28-.07s.06-.1.06-.2v-3.82ZM29.11.34h.54v4.42h-.54V.34ZM32.05,11.84l.4-.26c.53.24,1.08.51,1.65.82.57.31,1.11.62,1.62.92.51.31.93.59,1.25.85l-.4.32c-.32-.26-.74-.55-1.24-.86-.5-.31-1.04-.63-1.61-.95s-1.12-.6-1.67-.85ZM32.57,8.26l.41-.24c.44.31.9.66,1.37,1.04.47.38.91.75,1.32,1.13.41.37.75.7,1,1l-.45.31c-.24-.3-.56-.64-.96-1.02-.4-.38-.84-.76-1.3-1.15s-.93-.74-1.39-1.05Z"/>
      <path class="cls-1" d="M50.58,1.55h.54v6.03c0,.59-.04,1.18-.12,1.76-.08.58-.25,1.14-.52,1.68s-.69,1.05-1.27,1.54c-.58.49-1.36.93-2.36,1.34-1,.4-2.26.76-3.78,1.08-.02-.03-.05-.07-.09-.12-.04-.05-.07-.1-.11-.15-.04-.05-.07-.1-.11-.15,1.51-.29,2.75-.63,3.73-1.01.97-.38,1.73-.8,2.29-1.26s.96-.95,1.22-1.46c.26-.51.42-1.04.49-1.58.07-.54.1-1.09.1-1.65V1.55ZM43.02,1.36h15.48v.47h-15.48v-.47ZM44.75,3.61h12.65v5.86h-12.65V3.61ZM45.29,4.08v2.2h11.56v-2.2h-11.56ZM45.29,6.77v2.24h11.56v-2.24h-11.56ZM46.07,9.82c.52.87,1.16,1.6,1.93,2.17.77.57,1.68,1.03,2.73,1.38s2.26.61,3.64.79c1.37.18,2.92.31,4.63.4-.05.05-.1.13-.14.22s-.08.18-.11.25c-1.73-.1-3.29-.24-4.67-.44s-2.61-.48-3.68-.84-2-.86-2.78-1.47c-.79-.61-1.44-1.37-1.95-2.29l.41-.16Z"/>
      <path class="cls-1" d="M76,1.88h.13l.13-.03.34.23c-.59.91-1.35,1.74-2.28,2.5s-1.96,1.44-3.08,2.03c-1.12.59-2.27,1.09-3.45,1.51-1.18.42-2.3.75-3.37.97-.02-.08-.06-.16-.12-.26-.05-.1-.11-.17-.17-.23,1.06-.21,2.16-.5,3.32-.9s2.29-.88,3.38-1.45c1.1-.57,2.1-1.21,3-1.93.9-.71,1.62-1.49,2.16-2.33v-.11ZM71.32.36l.68.13c-.74.78-1.73,1.56-2.97,2.36-1.24.79-2.69,1.49-4.36,2.1-.02-.04-.06-.09-.11-.14-.05-.05-.1-.09-.15-.14-.05-.04-.1-.08-.15-.11,1.1-.37,2.11-.79,3.02-1.26.91-.47,1.7-.97,2.38-1.47s1.24-.99,1.66-1.46ZM78.97,7.31h.13l.13-.03.32.21c-.59,1.16-1.38,2.16-2.38,3.02-1,.86-2.13,1.59-3.39,2.19-1.27.6-2.6,1.09-4,1.47-1.4.38-2.79.67-4.19.86-.01-.08-.05-.16-.1-.24-.05-.09-.11-.16-.15-.21,1.36-.17,2.72-.44,4.1-.8,1.38-.36,2.69-.83,3.92-1.41,1.24-.58,2.34-1.28,3.31-2.1.97-.82,1.73-1.77,2.29-2.85v-.1ZM74.22,5.85l.65.13c-.82.85-1.94,1.7-3.37,2.54-1.43.84-3.13,1.57-5.09,2.17-.02-.04-.06-.09-.1-.13-.04-.04-.08-.09-.13-.13-.04-.04-.09-.08-.14-.11,1.28-.38,2.46-.82,3.52-1.31,1.06-.5,1.99-1.02,2.77-1.57s1.41-1.08,1.88-1.59ZM67.47,3.5l.36-.34c.54.22,1.09.47,1.65.76.56.29,1.08.59,1.57.89.49.3.89.59,1.19.86l-.38.39c-.3-.27-.69-.56-1.18-.87-.49-.31-1.01-.61-1.57-.91-.56-.3-1.11-.56-1.65-.79ZM69.63,9.23l.43-.31c.58.26,1.17.56,1.77.91s1.17.69,1.69,1.04c.52.35.95.68,1.29,1l-.45.36c-.32-.31-.75-.65-1.27-1-.52-.36-1.08-.71-1.68-1.06-.6-.35-1.19-.66-1.78-.93ZM69.65,1.88h6.53v.47h-6.53v-.47ZM72.58,7.31h6.53v.47h-6.53v-.47Z"/>
      <path class="cls-1" d="M86.49,2.28h.54v5.15c0,.58-.03,1.2-.09,1.86-.06.66-.18,1.32-.37,1.98s-.46,1.31-.81,1.94c-.35.63-.83,1.21-1.41,1.75-.02-.03-.06-.07-.1-.11-.04-.04-.09-.09-.14-.14-.05-.05-.1-.08-.14-.11.56-.52,1.01-1.07,1.35-1.67.34-.59.59-1.21.76-1.84s.28-1.26.33-1.89c.05-.63.08-1.22.08-1.78V2.28ZM96.75.42l.5.37c-.65.19-1.39.38-2.21.56-.83.18-1.71.35-2.65.51-.94.16-1.9.31-2.87.45-.97.14-1.92.27-2.84.39-.01-.06-.04-.14-.07-.22-.04-.08-.07-.15-.11-.2.91-.12,1.85-.25,2.82-.39.97-.14,1.91-.29,2.83-.45.92-.16,1.78-.32,2.57-.5.8-.18,1.48-.35,2.04-.53ZM86.73,9.09h10.89v.47h-10.89v-.47ZM86.76,4.5h11.18v5.99h-.52v-5.52h-10.66v-.47Z"/>
      <path class="cls-1" d="M112.18,2.96h.09l.13-.03.34.11c-.35,2.08-.89,3.89-1.64,5.42-.74,1.53-1.63,2.82-2.66,3.86-1.03,1.05-2.15,1.9-3.38,2.54-.02-.04-.06-.09-.12-.14-.05-.05-.11-.09-.16-.14-.05-.04-.11-.08-.15-.1,1.22-.62,2.35-1.44,3.37-2.46,1.02-1.03,1.89-2.28,2.62-3.75.73-1.47,1.24-3.21,1.56-5.19v-.13ZM108.42.36l.52.1c-.26,1-.58,1.96-.95,2.88-.37.91-.78,1.76-1.25,2.54-.47.78-.98,1.48-1.55,2.08-.04-.03-.08-.07-.14-.11s-.12-.08-.18-.11c-.06-.04-.11-.07-.16-.09.59-.58,1.12-1.26,1.58-2.02.47-.76.88-1.59,1.23-2.49s.65-1.83.89-2.79ZM106.19,6.06l.38-.26c.5.32,1.01.68,1.52,1.08.51.39.98.79,1.41,1.19s.78.76,1.04,1.08l-.38.29c-.26-.32-.61-.69-1.04-1.08-.43-.4-.9-.8-1.41-1.21-.51-.41-1.02-.77-1.52-1.09ZM107.77,2.96h4.52v.47h-4.52v-.47ZM115.1.36h.54v14.56h-.54V.36ZM115.47,5.62l.34-.31c.61.35,1.24.73,1.88,1.17.64.43,1.24.86,1.79,1.29s1,.81,1.35,1.16l-.38.37c-.35-.35-.8-.74-1.35-1.17s-1.14-.88-1.77-1.31-1.25-.83-1.86-1.19Z"/>
      <path class="cls-1" d="M127.09.99h.52v5.75c0,.62-.02,1.28-.05,1.98-.04.71-.1,1.43-.21,2.15-.1.73-.25,1.44-.45,2.15s-.46,1.35-.78,1.94c-.04-.03-.08-.07-.14-.1s-.11-.06-.17-.1-.11-.05-.16-.07c.34-.58.6-1.21.79-1.89s.33-1.37.42-2.07c.09-.71.15-1.4.18-2.09.03-.69.04-1.33.04-1.92V.99ZM127.29,8.89h4.37v.47h-4.37v-.47ZM127.34.99h4.32v.47h-4.32v-.47ZM127.34,4.89h4.32v.47h-4.32v-.47ZM131.35.99h.52v13.17c0,.22-.04.38-.13.49-.08.11-.21.18-.38.23-.18.04-.45.07-.81.08s-.86.01-1.49,0c-.01-.03-.03-.08-.04-.13-.02-.05-.04-.11-.06-.17-.02-.06-.05-.11-.09-.15.52.01.97.02,1.35.02s.64,0,.76-.02c.13-.01.23-.04.29-.08.06-.04.09-.13.09-.26V.99ZM134.04,1.07h6.68v.47h-6.16v13.41h-.52V1.07ZM134.36,6.45h6.77v.49h-6.77v-.49ZM140.98,6.45h.11l.11-.03.31.13c-.34,1.36-.83,2.58-1.48,3.64-.65,1.07-1.4,1.99-2.22,2.75-.83.77-1.69,1.38-2.57,1.85-.02-.05-.07-.12-.14-.19-.07-.08-.14-.13-.2-.18.86-.41,1.7-.99,2.51-1.73s1.53-1.63,2.17-2.67c.64-1.03,1.11-2.18,1.42-3.44v-.13ZM135.8,6.64c.37,1.18.86,2.29,1.47,3.34.61,1.05,1.31,1.97,2.12,2.77.81.8,1.7,1.42,2.67,1.86-.07.04-.14.1-.22.18-.07.08-.14.14-.2.19-.97-.49-1.87-1.14-2.68-1.97s-1.53-1.77-2.15-2.84c-.62-1.07-1.12-2.2-1.5-3.4l.49-.13ZM140.48,1.07h.54v3.14c0,.17-.03.31-.09.41-.06.1-.19.17-.4.23-.19.04-.5.07-.91.08s-.96.02-1.65.02c-.01-.09-.04-.17-.09-.24-.05-.08-.09-.15-.13-.21.43,0,.81,0,1.12,0,.32,0,.58,0,.8,0,.22,0,.37,0,.47,0,.14-.01.23-.04.27-.07.04-.04.05-.11.05-.2V1.07Z"/>
      <path class="cls-1" d="M148.9,5.02h.56c-.06.54-.17,1.03-.31,1.47s-.37.83-.65,1.17c-.28.33-.65.62-1.11.86-.05-.05-.11-.11-.19-.18s-.15-.11-.21-.15c.43-.21.78-.46,1.04-.77.26-.31.46-.66.59-1.07s.23-.85.28-1.34ZM154.79,9.22l.45.23c-.44.33-.98.66-1.59.99s-1.28.63-1.99.91-1.42.53-2.12.75c-.71.22-1.38.41-2.02.56-.05-.08-.11-.15-.18-.23-.07-.08-.14-.13-.2-.18.65-.14,1.33-.32,2.03-.53.71-.21,1.41-.45,2.12-.71s1.35-.55,1.95-.85c.6-.3,1.12-.62,1.55-.94ZM147.33,9.07h15.89v.47h-15.89v-.47ZM147.5,4.86h4.7v.49h-4.7v-.49ZM148.43.66h.54v2.53h3.37v.49h-3.91V.66ZM150.72,15s-.04-.09-.08-.15c-.04-.06-.08-.12-.12-.18-.04-.06-.07-.11-.11-.15.13-.05.3-.16.51-.31.21-.15.31-.38.31-.68v-2.43l.56.03v3.14c-.14.08-.27.14-.38.2-.11.05-.22.11-.32.18s-.2.13-.27.19c-.07.06-.11.12-.11.16ZM150.72,15v-.44l.4-.29,5.58-1.1c0,.07,0,.13,0,.2s.02.13.03.19c-1.31.29-2.35.52-3.11.7-.77.17-1.35.3-1.74.4-.39.09-.66.16-.82.21s-.27.09-.34.14ZM151.96.36h.52v7.94h-.52V.36ZM153.47,2.87h9.38v.47h-9.38v-.47ZM153.85,6.71h8.66v.47h-8.66v-.47ZM154.52,7.74l.49-.13c.22.27.43.57.64.91.21.33.36.62.46.84l-.49.19c-.11-.25-.27-.54-.48-.88s-.42-.65-.62-.93ZM155.54,9.22c.49.83,1.14,1.59,1.95,2.28s1.73,1.29,2.76,1.78c1.03.5,2.12.87,3.26,1.13-.06.04-.13.11-.2.19-.07.08-.13.16-.18.23-1.13-.29-2.21-.7-3.25-1.22-1.04-.52-1.97-1.14-2.81-1.86-.83-.72-1.51-1.51-2.02-2.37l.49-.16ZM161.54,10.22l.47.28c-.55.36-1.18.71-1.88,1.04-.7.34-1.36.64-1.97.9l-.4-.29c.4-.16.83-.35,1.3-.58.47-.22.92-.45,1.36-.69.44-.24.81-.46,1.12-.66ZM157.78.36h.54v6.51h-.54V.36Z"/>
      <path class="cls-1" d="M170.36,1.75h.52v4.99c0,.6-.02,1.25-.05,1.95-.04.7-.11,1.41-.21,2.15-.1.73-.25,1.45-.45,2.15s-.47,1.36-.8,1.96c-.02-.03-.06-.06-.12-.1-.05-.03-.11-.07-.17-.11-.06-.04-.11-.06-.16-.07.32-.59.58-1.23.78-1.9.2-.67.34-1.37.43-2.07.09-.71.15-1.4.18-2.07.03-.67.04-1.3.04-1.89V1.75ZM170.63,1.75h14.63v.47h-14.63v-.47ZM174.7,2.59l.52.13c-.48.86-1.05,1.7-1.7,2.5-.65.8-1.32,1.49-1.99,2.07-.02-.02-.07-.05-.13-.09-.06-.04-.12-.08-.18-.12s-.11-.08-.16-.1c.71-.55,1.38-1.22,2.02-1.99.64-.78,1.18-1.58,1.61-2.4ZM173.62,11.23l.47.16c-.25.54-.57,1.09-.95,1.66-.38.57-.85,1.04-1.41,1.42l-.43-.26c.55-.35,1.02-.8,1.41-1.36.39-.56.69-1.1.91-1.62ZM173.42,5.02l.54-.47v5.57h-.54v-5.1ZM177.51,2.59l.52.13c-.4.79-.87,1.55-1.43,2.28-.56.73-1.12,1.37-1.68,1.9-.04-.03-.08-.07-.14-.11s-.12-.08-.18-.11-.11-.07-.16-.09c.6-.51,1.17-1.11,1.72-1.82.55-.71,1-1.43,1.36-2.18ZM175.6,11.15h.52v2.77c0,.16.07.27.2.32.13.05.43.08.88.08h3.51c.24,0,.42-.04.54-.11.12-.07.21-.22.26-.45.05-.23.09-.59.1-1.06.08.05.17.1.27.13.1.03.18.06.25.08-.01.51-.06.9-.13,1.17-.08.28-.21.46-.41.57s-.47.15-.83.15h-3.53c-.43,0-.77-.02-1-.06-.23-.04-.4-.13-.49-.26-.1-.13-.14-.32-.14-.57v-2.77ZM176.54,4.63l.52-.47v5.95h-.52v-5.48ZM177.15,4.1h7.4v.47h-7.81l.41-.47ZM176.75,9.14h8.17v.47h-8.17v-.47ZM176.8.23l.4-.23c.28.29.55.61.82.96s.46.66.58.92l-.41.26c-.13-.28-.33-.6-.58-.96-.26-.36-.52-.67-.8-.96ZM176.8,5.75h7.24v.47h-7.24v-.47ZM176.8,7.42h7.33v.47h-7.33v-.47ZM177.15,10.58l.36-.34c.37.15.76.32,1.15.51.4.19.77.38,1.12.58s.65.38.87.55l-.34.41c-.23-.18-.52-.38-.87-.58s-.73-.41-1.12-.6-.79-.37-1.17-.52ZM179.47,2.69l.38-.26c.26.23.52.48.77.75.25.27.44.51.58.71l-.43.29c-.12-.22-.3-.47-.54-.75-.24-.29-.49-.53-.76-.74ZM180.5,4.31h.54v5.07h-.54v-5.07ZM181.79,11.28l.43-.23c.38.3.76.64,1.13,1.01.37.37.71.74,1.03,1.1.31.36.55.69.72.98l-.47.28c-.17-.3-.4-.64-.71-1-.31-.37-.64-.74-1.01-1.11-.37-.37-.74-.72-1.12-1.03Z"/>
      <path class="cls-1" d="M192.83,1.55h.52v5.93c0,.58-.03,1.2-.08,1.86-.05.66-.16,1.32-.31,1.99-.16.67-.39,1.32-.7,1.94-.31.63-.73,1.21-1.26,1.75-.02-.04-.06-.09-.11-.13-.05-.04-.1-.08-.14-.12s-.1-.07-.14-.09c.5-.52.91-1.08,1.21-1.68s.52-1.21.67-1.85c.14-.63.24-1.26.29-1.89.05-.63.07-1.23.07-1.8V1.55ZM192.96,9.3h12.31v.47h-12.31v-.47ZM193.12,1.55h12.24v.49h-12.24v-.49ZM193.12,5.38h12.15v.49h-12.15v-.49ZM198.59,1.7h.54v13.15h-.54V1.7ZM205.04,1.55h.52v12.38c0,.27-.05.47-.15.6s-.27.22-.51.28c-.23.04-.6.07-1.12.07-.52,0-1.23,0-2.11,0-.01-.05-.04-.13-.09-.23s-.1-.18-.14-.26c.5,0,.97.02,1.4.02s.8,0,1.1,0c.3,0,.51,0,.63,0,.18-.01.31-.05.38-.11.07-.06.11-.17.11-.33V1.55Z"/>
    </g>
  </g>
</svg>