<svg xmlns="http://www.w3.org/2000/svg" viewBox="0 0 90 90"><defs><style>.cls-1{fill:none;stroke:#fff;stroke-miterlimit:10;stroke-width:4.39px;}.cls-2{fill:#fff;}</style></defs><g id="圖層_2" data-name="圖層 2"><g id="text"><circle class="cls-1" cx="45" cy="45" r="42.8"/><path class="cls-1" d="M53.57,74.14A30.33,30.33,0,1,1,66,66.93"/><polygon class="cls-2" points="64.13 62.62 60.99 70.8 69.64 69.42 64.13 62.62"/><path class="cls-2" d="M41.12,35.75a12.45,12.45,0,0,0-5-.92H27.35V56.92h3.2V50.23h5.54a12.28,12.28,0,0,0,5-.93,7.2,7.2,0,0,0,3.2-2.65,8.16,8.16,0,0,0,0-8.25A7.07,7.07,0,0,0,41.12,35.75Zm-.47,10.44A7.14,7.14,0,0,1,36,47.49H30.55V37.58H36a7.2,7.2,0,0,1,4.65,1.29,4.44,4.44,0,0,1,1.59,3.66A4.44,4.44,0,0,1,40.65,46.19Z"/><path class="cls-2" d="M65.12,38.4a7.12,7.12,0,0,0-3.2-2.65,12.48,12.48,0,0,0-5-.92H48.15V56.92h3.2V50.23h5.54a12.31,12.31,0,0,0,5-.93,7.25,7.25,0,0,0,3.2-2.65,8.16,8.16,0,0,0,0-8.25Zm-3.67,7.79a7.17,7.17,0,0,1-4.66,1.3H51.35V37.58h5.44a7.23,7.23,0,0,1,4.66,1.29A4.44,4.44,0,0,1,63,42.53,4.44,4.44,0,0,1,61.45,46.19Z"/></g></g></svg>