<?xml version="1.0" encoding="UTF-8"?>
<svg id="_圖層_2" data-name="圖層 2" xmlns="http://www.w3.org/2000/svg" viewBox="0 0 90 90">
  <defs>
    <style>
      .cls-1 {
        fill: #fff;
      }
    </style>
  </defs>
  <g id="text">
    <g>
      <path class="cls-1" d="M45,0C20.19,0,0,20.19,0,45s20.19,45,45,45,45-20.19,45-45S69.81,0,45,0ZM45,85.71c-22.45,0-40.71-18.26-40.71-40.71S22.55,4.29,45,4.29s40.71,18.26,40.71,40.71-18.26,40.71-40.71,40.71Z"/>
      <path class="cls-1" d="M60.72,30.72c7.08-4.44,9.68-13.94,9.68-13.94,0,0-8.88-2.31-15.96,2.13-5.89,3.69-8.67,10.88-9.44,13.19-.77-2.31-3.55-9.5-9.44-13.19-7.08-4.44-15.96-2.13-15.96-2.13,0,0,2.6,9.51,9.68,13.94,5.29,3.32,11.58,2.86,14.43,2.42v4.67c-11.68.67-20.97,10.38-20.97,22.23s9.99,22.27,22.27,22.27,22.27-9.99,22.27-22.27-9.29-21.55-20.97-22.23v-4.67c2.84.44,9.14.89,14.43-2.42ZM55.46,59.33h-9.75v-18.67c.86.03,1.71.12,2.55.26,4.07,2.57,7.04,9.81,7.2,18.41ZM48.26,79.15c-.83.14-1.68.23-2.55.26v-18.66h9.75c-.16,8.59-3.13,15.83-7.2,18.4ZM34.54,60.75h9.75v18.66c-.86-.03-1.71-.12-2.55-.26-4.07-2.57-7.04-9.8-7.2-18.4ZM41.74,40.92c.83-.14,1.68-.23,2.55-.26v18.67h-9.75c.16-8.6,3.13-15.84,7.2-18.41ZM38.82,41.65c-3.32,3.67-5.57,10.19-5.7,17.68h-7.49c.3-8.23,5.73-15.16,13.19-17.68ZM25.62,60.75h7.49c.14,7.48,2.38,13.99,5.7,17.66-7.46-2.52-12.89-9.44-13.19-17.66ZM51.18,78.42c3.32-3.67,5.57-10.18,5.7-17.66h7.49c-.3,8.22-5.73,15.15-13.19,17.66ZM64.38,59.33h-7.49c-.14-7.49-2.38-14-5.7-17.68,7.46,2.52,12.89,9.45,13.19,17.68ZM44.92,32.92s.05-.01.08-.02c.02,0,.05.01.08.02h-.15Z"/>
    </g>
  </g>
</svg>