<?xml version="1.0" encoding="UTF-8"?>
<svg id="_圖層_2" data-name="圖層 2" xmlns="http://www.w3.org/2000/svg" viewBox="0 0 90 90">
  <defs>
    <style>
      .cls-1 {
        fill: #005241;
      }

      .cls-2 {
        fill: #fff;
      }
    </style>
  </defs>
  <g id="text">
    <g>
      <circle class="cls-1" cx="45" cy="45" r="45"/>
      <path class="cls-2" d="M57.15,85.74c-18.03,0-32.81-13.55-34.56-31.21h34.56c11.73,0,21.28-9.55,21.28-21.29s-9.55-21.3-21.28-21.3c-3.86,0-7.67.56-11.33,1.67h0s-.56.18-.56.18h0c-.05.01-.1.03-.15.05,0,0,0,0,0,0L3.75,27.01c-2.41,5.51-3.75,11.59-3.75,17.99,0,24.85,20.15,45,45,45,6.84,0,13.32-1.53,19.12-4.26h-6.97ZM46.57,17.9h0s.12-.04.12-.04l.4-.12c3.25-.98,6.64-1.48,10.07-1.48,9.35,0,16.95,7.61,16.95,16.97s-7.61,16.97-16.95,16.97H22.44c.34-14.85,9.93-27.77,24.13-32.29Z"/>
    </g>
  </g>
</svg>