<svg xmlns="http://www.w3.org/2000/svg" viewBox="0 0 90 90"><defs><style>.cls-1{fill:none;stroke:#fff;stroke-width:4.29px;}.cls-1,.cls-3{stroke-miterlimit:10;}.cls-2,.cls-3{fill:#fff;}.cls-3{stroke:#005241;stroke-width:0.68px;}</style></defs><g id="圖層_2" data-name="圖層 2"><g id="text"><circle class="cls-1" cx="45" cy="45" r="42.86"/><circle class="cls-2" cx="55.47" cy="32.42" r="3.2"/><path class="cls-2" d="M53.82,36.13a4.37,4.37,0,0,0-4.36,4.17l-.32,7.2a1.22,1.22,0,0,0,1.16,1.33h0a1.33,1.33,0,0,0,1.26-1.33l.21-7.79a.32.32,0,0,1,.31-.31h0a.29.29,0,0,1,.28.31l-.53,23.16a1.46,1.46,0,0,0,1.31,1.63h0a1.51,1.51,0,0,0,1.36-1.63l.08-12.26a.73.73,0,0,1,.69-.76h.41a.73.73,0,0,1,.69.76l.07,12.26a1.53,1.53,0,0,0,1.37,1.63h0a1.47,1.47,0,0,0,1.31-1.63l-.54-23.16a.3.3,0,0,1,.29-.31h0a.31.31,0,0,1,.3.31l.22,7.79a1.32,1.32,0,0,0,1.26,1.33h0a1.22,1.22,0,0,0,1.16-1.33l-.33-7.2a4.36,4.36,0,0,0-4.36-4.17Z"/><polygon class="cls-2" points="55.47 38.72 48.38 56.49 62.57 56.49 55.47 38.72"/><path class="cls-2" d="M76.7,64.68a.85.85,0,0,1-.85-.86V52.58A2.63,2.63,0,0,1,78.48,50a2.6,2.6,0,0,1,2.63,2.63v1.55a.86.86,0,0,1-1.72,0V52.58a.9.9,0,0,0-.91-.92.92.92,0,0,0-.92.92V63.82A.85.85,0,0,1,76.7,64.68Z"/><circle class="cls-2" cx="40.55" cy="32.42" r="3.2"/><path class="cls-2" d="M33.45,39.41v9.46a1.35,1.35,0,0,0,1.36,1.35h0a1.35,1.35,0,0,0,1.35-1.35v-8.5a.35.35,0,0,1,.35-.35h0a.35.35,0,0,1,.35.35V63.15a1.36,1.36,0,0,0,1.35,1.35h0a1.36,1.36,0,0,0,1.36-1.35V52a.75.75,0,0,1,.75-.75h.45a.76.76,0,0,1,.76.75V63.15a1.35,1.35,0,0,0,1.35,1.35h0a1.35,1.35,0,0,0,1.35-1.35V40.37a.35.35,0,0,1,.35-.35h0a.34.34,0,0,1,.35.35v8.5a1.35,1.35,0,0,0,1.36,1.35h0a1.35,1.35,0,0,0,1.35-1.35V39.41a3.28,3.28,0,0,0-3.29-3.28H36.74A3.28,3.28,0,0,0,33.45,39.41Z"/><path class="cls-2" d="M33.45,39.41v9.46a1.35,1.35,0,0,0,1.36,1.35h0a1.35,1.35,0,0,0,1.35-1.35v-8.5a.35.35,0,0,1,.35-.35h0a.35.35,0,0,1,.35.35V63.15a1.36,1.36,0,0,0,1.35,1.35h0a1.36,1.36,0,0,0,1.36-1.35V52a.75.75,0,0,1,.75-.75h.45a.76.76,0,0,1,.76.75V63.15a1.35,1.35,0,0,0,1.35,1.35h0a1.35,1.35,0,0,0,1.35-1.35V40.37a.35.35,0,0,1,.35-.35h0a.34.34,0,0,1,.35.35v8.5a1.35,1.35,0,0,0,1.36,1.35h0a1.35,1.35,0,0,0,1.35-1.35V39.41a3.28,3.28,0,0,0-3.29-3.28H36.74A3.28,3.28,0,0,0,33.45,39.41Z"/><circle class="cls-2" cx="13.33" cy="43.6" r="2.77"/><path class="cls-2" d="M8.89,48.8v5.91a.85.85,0,0,0,.85.85h0a.85.85,0,0,0,.85-.85V49.39a.21.21,0,0,1,.21-.22h0a.22.22,0,0,1,.22.22V63.65a.85.85,0,0,0,.85.85h0a.85.85,0,0,0,.85-.85v-7a.47.47,0,0,1,.47-.47h.28a.47.47,0,0,1,.47.47v7a.85.85,0,0,0,.85.85h0a.85.85,0,0,0,.85-.85V49.39a.22.22,0,0,1,.22-.22h0a.22.22,0,0,1,.22.22v5.32a.85.85,0,0,0,.84.85h0a.85.85,0,0,0,.85-.85V48.8a2.06,2.06,0,0,0-2.06-2.06H11A2.06,2.06,0,0,0,8.89,48.8Z"/><path class="cls-2" d="M63.7,44v4a1.36,1.36,0,0,0,1.36,1.36h0A1.36,1.36,0,0,0,66.41,48V44a.35.35,0,0,1,.35-.35h0a.35.35,0,0,1,.35.35v19.2a1.35,1.35,0,0,0,1.35,1.35h0a1.36,1.36,0,0,0,1.36-1.35V54.54a1,1,0,0,1,1-1h0a1,1,0,0,1,1,1v8.61a1.35,1.35,0,0,0,1.35,1.35h0a1.35,1.35,0,0,0,1.35-1.35V44a.35.35,0,0,1,.35-.35h0a.35.35,0,0,1,.35.35V48a1.36,1.36,0,0,0,1.35,1.36h0A1.36,1.36,0,0,0,77.89,48V44a4.45,4.45,0,0,0-4.45-4.45H68.15A4.45,4.45,0,0,0,63.7,44Z"/><circle class="cls-3" cx="70.66" cy="37.92" r="3.2"/><circle class="cls-2" cx="25.54" cy="26.21" r="3.3"/><path class="cls-2" d="M18.23,33.63v9.55a1.39,1.39,0,0,0,1.39,1.39h0A1.4,1.4,0,0,0,21,43.18V34.41a.36.36,0,0,1,.36-.36h0a.36.36,0,0,1,.36.36V63.1a1.4,1.4,0,0,0,1.4,1.4h0a1.4,1.4,0,0,0,1.39-1.4V47.43a.36.36,0,0,1,.36-.36h1.3a.36.36,0,0,1,.36.36V63.1A1.4,1.4,0,0,0,28,64.5h0a1.4,1.4,0,0,0,1.4-1.4V34.41a.36.36,0,0,1,.36-.36h0a.36.36,0,0,1,.36.36v8.77a1.39,1.39,0,0,0,1.39,1.39h0a1.4,1.4,0,0,0,1.4-1.39V33.63a3.6,3.6,0,0,0-3.6-3.6H21.82A3.6,3.6,0,0,0,18.23,33.63Z"/></g></g></svg>