<?xml version="1.0" encoding="UTF-8"?>
<svg id="_圖層_2" data-name="圖層 2" xmlns="http://www.w3.org/2000/svg" viewBox="0 0 120 120">
  <defs>
    <style>
      .cls-1 {
        fill: #fff;
      }
    </style>
  </defs>
  <g id="text">
    <g>
      <path class="cls-1" d="M60,120C26.92,120,0,93.08,0,60S26.92,0,60,0s60,26.92,60,60-26.92,60-60,60ZM60,5.71C30.07,5.71,5.71,30.07,5.71,60s24.35,54.29,54.29,54.29,54.29-24.35,54.29-54.29S89.93,5.71,60,5.71Z"/>
      <g>
        <path class="cls-1" d="M104.84,54.02l-10.59-12.82c-1.16-1.41-3.24-1.61-4.65-.44l-6.58,5.44,1.27,1.47,3.13,3.61,2.39,2.75.81.93.38.43,4.92,5.66,2.34,2.69,6.14-5.07c1.41-1.16,1.61-3.24.44-4.65Z"/>
        <path class="cls-1" d="M91.32,61.26l-1.63-1.87-2.01-2.32-4.55-5.24-2.9-3.34-.31-.36-11.04,1.21c-.43.05-.81.2-1.15.41.28.18.55.37.83.57,1.22.86,2.45,1.81,3.66,2.81.4.33.79.66,1.18,1,.31.26.61.53.92.8,1.32,1.16,2.59,2.35,3.79,3.5.02.02.03.03.05.05.48.46.82.79.98.92.33.25.59.53.87.8,1.31,1.27,2.12,2.75,2.49,4.28.24.99.31,1.98.22,2.95-.1,1.04-.36,2.02-.78,2.9-.07.14-.12.3-.2.43-.01.02-.02.04-.03.06-.23.41-.52.8-.84,1.18-1.21,1.41-3.06,2.52-5.45,2.59-1.22.04-2.57-.19-4.05-.8-.24-.1-.45-.19-.68-.28-.86-.35-1.65-.68-2.37-.98-2-.83-3.51-1.45-4.64-1.93-.81-.34-1.45-.61-1.92-.8l-8.58,11.19c-.19.36-.44.69-.75.98l-.21.28c-.24.31-.49.6-.76.88-1.74,1.82-4.02,2.94-6.45,3.24.28.68.75,1.3,1.4,1.75l.07.05c1.77,1.24,4.18.84,5.48-.86.32.48.72.92,1.23,1.27l.78.54c2.15,1.5,5.1.98,6.6-1.16l.19-.27c.33.61.78,1.17,1.39,1.59l.72.5c2.06,1.44,4.89.94,6.33-1.12l.76-1.08c.27.37.6.72,1,1l.25.17c1.98,1.38,4.7.9,6.08-1.07l10.96-15.65,7.23-5.97-1.69-1.94-2.47-2.84Z"/>
        <path class="cls-1" d="M46.21,82.34c.13-.05.25-.1.38-.15,1.06-.47,2.02-1.19,2.77-2.16l2.92-3.81.12-.15,4.4-5.74,1.37-1.79,1.59-2.07c.09-.12.2-.2.31-.29.52-.42,1.23-.54,1.86-.26.02.01.27.12,1.02.44.37.16.87.37,1.53.64.38.16.83.35,1.33.55.66.27,1.42.59,2.3.95.7.29,1.48.61,2.34.97.71.29,1.46.6,2.3.95.02,0,.05.02.07.02,2.51,1.01,4.66.47,5.75-1.44.21-.37.35-.77.46-1.2.07-.28.12-.57.14-.86.09-1.26-.27-2.62-1.26-3.77-.28-.32-.58-.64-.96-.92-.14-.11-.45-.39-.89-.8-.14-.13-.29-.27-.45-.42-.72-.68-1.84-1.75-3.18-2.95-.15-.14-.3-.27-.46-.41-.58-.51-1.2-1.04-1.84-1.58-.86-.72-1.76-1.44-2.68-2.12-.29-.22-.59-.43-.88-.63-.16-.12-.33-.23-.49-.34-2.21-1.51-4.42-2.69-6.23-2.94-1.62-.23-2.72.21-4.17.82-.07.03-.12.05-.19.08-.18.08-.4.16-.59.24-.87.37-1.87.72-3.05.99-.93.21-1.95.37-3.16.37-.31,0-.61-.03-.9-.05-.31-.02-.62-.06-.92-.11-.82-.13-1.56-.33-2.24-.6-1.32-.51-2.4-1.22-3.24-1.94-.23-.2-.44-.39-.64-.59l-1.83,2.53-1.9,2.63-.23.32-4.37,6.03-.45.62-2.72,3.75-1.47,2.04c.06.12.14.27.21.4,1.13,2.13,3.42,6.23,5.33,8.15,2.43,2.43,7.21,5.97,8.3,6.76,1.24.38,2.53.39,3.74.1.28-.07.56-.15.84-.26Z"/>
        <path class="cls-1" d="M29.78,58.26l.45-.62,4.23-5.84.12-.17,3.46-4.78-7.87-6.5c-1.14-.94-2.82-.78-3.76.36l-11.39,13.79c-.94,1.14-.78,2.82.36,3.76l9.02,7.45.8-1.1,4.07-5.63.52-.72Z"/>
      </g>
    </g>
  </g>
</svg>