<svg xmlns="http://www.w3.org/2000/svg" viewBox="0 0 90 90"><defs><style>.cls-1,.cls-3,.cls-4{fill:none;stroke:#fff;stroke-miterlimit:10;}.cls-1{stroke-width:4.29px;}.cls-2{fill:#fff;}.cls-3{stroke-width:2.86px;}.cls-4{stroke-width:1.43px;}</style></defs><g id="圖層_2" data-name="圖層 2"><g id="text"><circle class="cls-1" cx="45" cy="45" r="42.86"/><path class="cls-2" d="M35.56,18.9c7.08,4.44,9.68,13.94,9.68,13.94s-8.89,2.32-16-2.12S19.6,16.77,19.6,16.77,28.48,14.46,35.56,18.9Z"/><path class="cls-2" d="M54.44,18.9c-7.08,4.44-9.68,13.94-9.68,13.94s8.89,2.32,16-2.12S70.4,16.77,70.4,16.77,61.52,14.46,54.44,18.9Z"/><rect class="cls-2" x="43.7" y="32.92" width="2.59" height="5.84"/><circle class="cls-3" cx="45" cy="60.03" r="20.84"/><line class="cls-4" x1="45" y1="38.66" x2="45" y2="81.42"/><line class="cls-4" x1="66.38" y1="60.04" x2="23.62" y2="60.04"/><ellipse class="cls-4" cx="45" cy="60.03" rx="11.19" ry="20.84"/></g></g></svg>