<svg xmlns="http://www.w3.org/2000/svg" viewBox="0 0 120 120"><defs><style>.cls-1{fill:none;stroke:#fff;stroke-miterlimit:10;stroke-width:5.71px;}.cls-2{fill:#fff;}.cls-3{fill:#005241;}</style></defs><g id="圖層_2" data-name="圖層 2"><g id="text"><circle class="cls-1" cx="60" cy="60" r="57.14"/><path class="cls-2" d="M104.84,54,94.25,41.2a3.3,3.3,0,0,0-4.65-.45L83,46.19l1.27,1.46,3.14,3.61L89.82,54l.81.94.37.43L95.92,61l2.34,2.7,6.14-5.07A3.31,3.31,0,0,0,104.84,54Z"/><path class="cls-2" d="M91.32,61.26l-1.63-1.88-2-2.31-4.55-5.24-2.9-3.34-.31-.36-11,1.21a2.83,2.83,0,0,0-1.15.41c.28.19.56.37.83.57,1.23.86,2.45,1.81,3.66,2.81.4.32.79.66,1.18,1l.92.79c1.32,1.17,2.59,2.35,3.79,3.5l0,0c.48.45.82.78,1,.91a9.59,9.59,0,0,1,.87.8,8.79,8.79,0,0,1,2.49,4.28,9,9,0,0,1,.22,3,8.52,8.52,0,0,1-.78,2.89c-.07.15-.12.3-.2.44l0,.06A7.72,7.72,0,0,1,80.87,72a7.39,7.39,0,0,1-5.45,2.59,9.8,9.8,0,0,1-4-.8l-.68-.28-2.36-1-4.65-1.92-1.91-.81L53.19,81a3.71,3.71,0,0,1-.75,1l-.22.28A10.81,10.81,0,0,1,45,86.34a3.94,3.94,0,0,0,1.39,1.75l.08.06A4,4,0,0,0,52,87.29a4.78,4.78,0,0,0,1.23,1.27l.77.54a4.75,4.75,0,0,0,6.61-1.16l.18-.27a4.49,4.49,0,0,0,1.39,1.59l.72.5a4.55,4.55,0,0,0,6.33-1.11L70,87.56a4.09,4.09,0,0,0,1,1l.25.18a4.37,4.37,0,0,0,6.08-1.08L88.24,72l7.23-6-1.69-2Z"/><path class="cls-2" d="M46.21,82.34l.38-.15A7,7,0,0,0,49.35,80l2.92-3.81.12-.15,4.4-5.74,1.38-1.79,1.58-2.07a1.75,1.75,0,0,1,.32-.29,1.79,1.79,0,0,1,1.86-.26l1,.44,1.53.64,1.33.56,2.3,1,2.34,1,2.3,1,.07,0c2.51,1,4.66.47,5.75-1.44a4.81,4.81,0,0,0,.46-1.2,5.93,5.93,0,0,0,.14-.86,5.16,5.16,0,0,0-1.26-3.77,5.27,5.27,0,0,0-1-.92c-.14-.11-.45-.39-.89-.8L75.62,61c-.72-.69-1.84-1.76-3.18-3L72,57.67c-.58-.51-1.2-1-1.84-1.57-.86-.72-1.76-1.44-2.68-2.12l-.89-.64L66.08,53a16.51,16.51,0,0,0-6.23-2.94,7.19,7.19,0,0,0-4.17.82L55.5,51l-.59.25a18.1,18.1,0,0,1-3.06,1,14,14,0,0,1-3.16.37c-.31,0-.61,0-.9-.05s-.62-.06-.92-.11a10.57,10.57,0,0,1-2.25-.6,11,11,0,0,1-3.23-1.94c-.23-.2-.45-.39-.64-.59L38.92,51.8,37,54.43l-.23.32-4.37,6L32,61.4l-2.72,3.75-1.47,2,.21.4c1.13,2.13,3.42,6.23,5.33,8.15a89.62,89.62,0,0,0,8.3,6.76,7.1,7.1,0,0,0,3.74.1A7.46,7.46,0,0,0,46.21,82.34Z"/><path class="cls-2" d="M29.78,58.26l.45-.61,4.23-5.85.12-.17L38,46.85l-7.87-6.5a2.67,2.67,0,0,0-3.76.36L15,54.5a2.69,2.69,0,0,0,.35,3.77l9,7.44.8-1.1L29.26,59Z"/><path class="cls-3" d="M80,60.18a9.59,9.59,0,0,0-.87-.8c-.16-.13-.5-.46-1-.91l0,0c-1.2-1.15-2.47-2.33-3.79-3.5l-.92-.79c-.39-.34-.78-.68-1.18-1-1.21-1-2.43-2-3.66-2.81-.27-.2-.55-.38-.83-.57a19.09,19.09,0,0,0-7.38-3.27,10.73,10.73,0,0,0-6.29,1.16,12.16,12.16,0,0,1-5.37,1.3,7.66,7.66,0,0,1-6.44-3.52,1.79,1.79,0,0,0-1.47-.92,1.81,1.81,0,0,0-1.57.74L38,46.85l-3.46,4.78-.12.17-4.23,5.85-.45.61-.52.72-4.07,5.63-.8,1.1-.18.25a1.83,1.83,0,0,0-.16,1.86c.15.3,3.67,7.42,6.73,10.47a92.9,92.9,0,0,0,9,7.3,1.5,1.5,0,0,0,.47.24,10.45,10.45,0,0,0,3.51.6,9.36,9.36,0,0,0,1.3-.09,10.81,10.81,0,0,0,7.2-4.11l.22-.28a3.71,3.71,0,0,0,.75-1l8.58-11.19,1.91.81,4.65,1.92,2.36,1,.68.28a9.8,9.8,0,0,0,4,.8A7.39,7.39,0,0,0,80.87,72a7.72,7.72,0,0,0,.84-1.18l0-.06c.08-.14.13-.29.2-.44a8.52,8.52,0,0,0,.78-2.89,9,9,0,0,0-.22-3A8.79,8.79,0,0,0,80,60.18ZM72.82,70.45l-.07,0-2.3-1-2.34-1-2.3-1L64.48,67,63,66.36l-1-.44a1.79,1.79,0,0,0-1.86.26,1.75,1.75,0,0,0-.32.29l-1.58,2.07-1.38,1.79-4.4,5.74-.12.15L49.35,80a7,7,0,0,1-2.76,2.16l-.38.15a7.46,7.46,0,0,1-.84.26,7.1,7.1,0,0,1-3.74-.1,89.62,89.62,0,0,1-8.3-6.76c-1.91-1.92-4.2-6-5.33-8.15l-.21-.4,1.47-2L32,61.4l.44-.62,4.37-6,.23-.32,1.9-2.63,1.83-2.53c.19.2.41.39.64.59a11,11,0,0,0,3.23,1.94,10.57,10.57,0,0,0,2.25.6c.3.05.6.08.92.11s.59.05.9.05a14,14,0,0,0,3.16-.37,18.1,18.1,0,0,0,3.06-1L55.5,51l.18-.08a7.19,7.19,0,0,1,4.17-.82A16.51,16.51,0,0,1,66.08,53l.49.34.89.64c.92.68,1.82,1.4,2.68,2.12.64.53,1.26,1.06,1.84,1.57l.46.41c1.34,1.2,2.46,2.27,3.18,3l.44.42c.44.41.75.69.89.8a5.27,5.27,0,0,1,1,.92A5.16,5.16,0,0,1,79.17,67a5.93,5.93,0,0,1-.14.86,4.81,4.81,0,0,1-.46,1.2C77.48,70.92,75.33,71.46,72.82,70.45Z"/><polygon class="cls-3" points="98.26 63.74 95.92 61.04 91 55.38 90.63 54.95 89.81 54.01 87.43 51.26 84.29 47.65 83.02 46.19 79.05 41.62 76.32 43.99 79.92 48.13 80.23 48.49 83.13 51.83 87.68 57.07 89.69 59.38 91.32 61.26 93.78 64.09 95.47 66.04 98.88 69.96 101.61 67.59 98.26 63.74"/></g></g></svg>