<?xml version="1.0" encoding="UTF-8"?>
<svg id="_圖層_2" data-name="圖層 2" xmlns="http://www.w3.org/2000/svg" viewBox="0 0 90 90">
  <defs>
    <style>
      .cls-1 {
        fill: #fff;
      }
    </style>
  </defs>
  <g id="text">
    <g>
      <path class="cls-1" d="M45,0C20.19,0,0,20.19,0,45s20.19,45,45,45,45-20.19,45-45S69.81,0,45,0ZM45,85.71c-22.45,0-40.71-18.26-40.71-40.71S22.55,4.29,45,4.29s40.71,18.26,40.71,40.71-18.26,40.71-40.71,40.71Z"/>
      <path class="cls-1" d="M55.47,35.62c1.77,0,3.2-1.43,3.2-3.2s-1.43-3.2-3.2-3.2-3.2,1.43-3.2,3.2,1.43,3.2,3.2,3.2Z"/>
      <path class="cls-1" d="M58.75,46.93l-.17-7.23c0-.17.12-.3.29-.3s.3.14.3.3l.22,7.8c.02.73.58,1.33,1.26,1.33s1.19-.6,1.16-1.33l-.32-7.2c-.1-2.33-2.03-4.17-4.36-4.17h-3.3c-2.34,0-4.26,1.84-4.36,4.17l-.32,7.2c-.03.73.49,1.33,1.16,1.33h0c.67,0,1.24-.6,1.26-1.33l.22-7.8c0-.17.14-.3.3-.3s.29.14.29.3l-.17,7.23-3.81,9.56h3.59l-.15,6.38c-.02.9.57,1.63,1.32,1.63h0c.75,0,1.36-.73,1.36-1.63l.04-6.38h1.86l.04,6.38c0,.9.62,1.63,1.36,1.63s1.34-.73,1.32-1.63l-.15-6.38h3.59l-3.81-9.56Z"/>
      <path class="cls-1" d="M78.48,49.95c-1.45,0-2.63,1.18-2.63,2.63v11.24c0,.47.38.86.86.86s.86-.38.86-.86v-11.24c0-.51.41-.92.92-.92s.92.39.92.92v1.55c0,.47.38.86.86.86s.86-.38.86-.86v-1.55c0-1.48-1.16-2.63-2.63-2.63Z"/>
      <path class="cls-1" d="M40.55,35.62c1.77,0,3.2-1.43,3.2-3.2s-1.43-3.2-3.2-3.2-3.2,1.43-3.2,3.2,1.43,3.2,3.2,3.2Z"/>
      <path class="cls-1" d="M44.35,36.13h-7.61c-1.81,0-3.29,1.47-3.29,3.29v9.45c0,.75.61,1.35,1.35,1.35s1.35-.61,1.35-1.35v-8.5c0-.19.16-.35.35-.35s.35.16.35.35v22.78c0,.75.61,1.35,1.35,1.35s1.35-.61,1.35-1.35v-11.15c0-.42.34-.75.75-.75h.46c.41,0,.75.34.75.75v11.15c0,.75.61,1.35,1.35,1.35h0c.75,0,1.35-.61,1.35-1.35v-22.78c0-.19.16-.35.35-.35h0c.19,0,.35.16.35.35v8.5c0,.75.61,1.35,1.35,1.35s1.35-.61,1.35-1.35v-9.45c0-1.81-1.47-3.29-3.29-3.29Z"/>
      <path class="cls-1" d="M13.33,46.37c1.53,0,2.77-1.24,2.77-2.77s-1.24-2.77-2.77-2.77-2.77,1.24-2.77,2.77,1.24,2.77,2.77,2.77Z"/>
      <path class="cls-1" d="M15.71,46.74h-4.77c-1.14,0-2.06.92-2.06,2.06v5.92c0,.47.38.85.85.85s.85-.38.85-.85v-5.32c0-.12.1-.22.22-.22s.22.1.22.22v14.26c0,.47.38.85.85.85s.85-.38.85-.85v-6.98c0-.26.21-.47.47-.47h.29c.26,0,.47.21.47.47v6.98c0,.47.38.85.85.85s.85-.38.85-.85v-14.26c0-.12.1-.22.22-.22s.22.1.22.22v5.32c0,.47.38.85.85.85s.85-.38.85-.85v-5.92c0-1.14-.92-2.06-2.06-2.06Z"/>
      <path class="cls-1" d="M77.89,48.01v-4.05c0-2.34-1.81-4.24-4.11-4.41-.59,1.13-1.76,1.91-3.12,1.91s-2.51-.77-3.11-1.88c-2.17.29-3.85,2.14-3.85,4.39v4.05c0,.75.61,1.35,1.35,1.35s1.35-.61,1.35-1.35v-4.07c0-.19.16-.35.35-.35s.35.16.35.35v19.2c0,.75.61,1.35,1.35,1.35s1.35-.61,1.35-1.35v-8.6c0-.54.44-.98.98-.98s.98.44.98.98v8.6c0,.75.61,1.35,1.35,1.35s1.35-.61,1.35-1.35v-19.2c0-.19.16-.35.35-.35s.35.16.35.35v4.07c0,.75.61,1.35,1.35,1.35s1.35-.61,1.35-1.35Z"/>
      <path class="cls-1" d="M70.66,40.77c.98,0,1.85-.5,2.37-1.26.31-.46.49-1,.49-1.6,0-1.57-1.28-2.85-2.86-2.85s-2.86,1.28-2.86,2.85c0,.59.18,1.14.49,1.6.51.76,1.38,1.26,2.37,1.26Z"/>
      <path class="cls-1" d="M25.54,29.5c1.82,0,3.3-1.48,3.3-3.3s-1.48-3.3-3.3-3.3-3.3,1.48-3.3,3.3,1.48,3.3,3.3,3.3Z"/>
      <path class="cls-1" d="M29.26,30.03h-7.44c-1.99,0-3.6,1.61-3.6,3.6v9.54c0,.77.62,1.4,1.4,1.4s1.4-.62,1.4-1.4v-8.77c0-.2.16-.36.36-.36s.36.16.36.36v28.7c0,.77.62,1.4,1.4,1.4h0c.77,0,1.4-.62,1.4-1.4v-15.67c0-.2.16-.36.36-.36h1.3c.2,0,.36.16.36.36v15.67c0,.77.62,1.4,1.4,1.4s1.4-.62,1.4-1.4v-28.7c0-.2.16-.36.36-.36h0c.2,0,.36.16.36.36v8.77c0,.77.62,1.4,1.4,1.4s1.4-.62,1.4-1.4v-9.54c0-1.99-1.61-3.6-3.6-3.6Z"/>
    </g>
  </g>
</svg>