<?xml version="1.0" encoding="UTF-8"?>
<svg id="_圖層_2" data-name="圖層 2" xmlns="http://www.w3.org/2000/svg" viewBox="0 0 94.39 94.39">
  <defs>
    <style>
      .cls-1 {
        fill: #fff;
      }
    </style>
  </defs>
  <g id="text">
    <g>
      <path class="cls-1" d="M47.2,0C21.17,0,0,21.17,0,47.2s21.17,47.2,47.2,47.2,47.2-21.17,47.2-47.2S73.22,0,47.2,0ZM47.2,90c-23.6,0-42.8-19.2-42.8-42.8S23.59,4.39,47.2,4.39s42.8,19.2,42.8,42.8-19.2,42.8-42.8,42.8Z"/>
      <path class="cls-1" d="M76.07,29.22c-4.82-7.73-12.35-13.12-21.22-15.17-8.87-2.06-18.01-.54-25.74,4.28-7.73,4.82-13.12,12.35-15.17,21.22-2.06,8.87-.54,18.01,4.28,25.74,6.33,10.16,17.43,16.06,28.98,16.06,3.21,0,6.45-.46,9.64-1.4l-1.25-4.21c-12.76,3.79-26.6-1.46-33.65-12.77-4.2-6.73-5.52-14.69-3.73-22.42,1.79-7.73,6.49-14.29,13.22-18.49,6.73-4.2,14.69-5.52,22.42-3.73s14.29,6.49,18.49,13.22c7.21,11.56,5.54,26.57-3.81,36.28l-1.33-1.66-3.19,8.16,8.66-1.32-1.36-1.71c11.09-11.13,13.14-28.64,4.76-42.08Z"/>
      <path class="cls-1" d="M43.12,37.47c-1.46-.64-3.22-.96-5.29-.96h-9.19v23.23h3.37v-7.03h5.82c2.07,0,3.83-.33,5.29-.98,1.46-.65,2.58-1.58,3.37-2.79.79-1.21,1.18-2.65,1.18-4.33s-.39-3.13-1.18-4.35c-.79-1.22-1.91-2.15-3.37-2.79ZM42.63,48.45c-1.11.91-2.74,1.36-4.9,1.36h-5.72v-10.42h5.72c2.15,0,3.79.45,4.9,1.36,1.11.91,1.67,2.19,1.67,3.85s-.55,2.94-1.67,3.85Z"/>
      <path class="cls-1" d="M68.34,48.93c.79-1.21,1.18-2.65,1.18-4.33s-.39-3.13-1.18-4.35c-.79-1.22-1.91-2.15-3.37-2.79-1.46-.64-3.22-.96-5.29-.96h-9.19v23.23h3.37v-7.03h5.82c2.07,0,3.83-.33,5.29-.98,1.46-.65,2.58-1.58,3.37-2.79ZM59.59,49.81h-5.72v-10.42h5.72c2.15,0,3.79.45,4.9,1.36,1.11.91,1.67,2.19,1.67,3.85s-.55,2.94-1.67,3.85c-1.11.91-2.74,1.36-4.9,1.36Z"/>
    </g>
  </g>
</svg>