<?xml version="1.0" encoding="utf-8"?>
<!-- Generator: Adobe Illustrator 25.0.0, SVG Export Plug-In . SVG Version: 6.00 Build 0)  -->
<svg version="1.1" id="圖層_1" xmlns="http://www.w3.org/2000/svg" xmlns:xlink="http://www.w3.org/1999/xlink" x="0px" y="0px"
	 viewBox="0 0 90 90" style="enable-background:new 0 0 90 90;" xml:space="preserve">
<style type="text/css">
	.st0{clip-path:url(#SVGID_2_);}
	.st1{fill:#FFFFFF;}
</style>
<g>
	<defs>
		<circle id="SVGID_1_" cx="45.2" cy="45.7" r="45"/>
	</defs>
	<clipPath id="SVGID_2_">
		<use xlink:href="#SVGID_1_"  style="overflow:visible;"/>
	</clipPath>
	<g class="st0">
		<path class="st1" d="M57.4,86.5C39.5,86.5,24.5,73,22.8,55.2h34.6c11.8-0.3,21.1-10,20.8-21.8c-0.2-11.4-9.4-20.6-20.8-20.8
			c-3.8,0-7.7,0.6-11.3,1.7l0,0l-0.6,0.2l0,0l-0.2,0.1l0,0L-39,41.4c-9.9,3.8-16.5,13.3-16.5,23.9c0,14.1,11.4,25.5,25.5,25.5h159.5
			v-4.3H57.4z M74.3,33.9c0,9.4-7.6,17-16.9,17H22.6c0.3-14.8,10-27.8,24.1-32.3l0,0h0.1l0.4-0.1c3.3-1,6.7-1.5,10.1-1.5
			C66.7,17,74.3,24.6,74.3,33.9z"/>
	</g>
</g>
</svg>
