<?xml version="1.0" encoding="UTF-8"?>
<svg id="_圖層_2" data-name="圖層 2" xmlns="http://www.w3.org/2000/svg" viewBox="0 0 473.48 492.92">
  <defs>
    <style>
      .cls-1 {
        fill: #fff;
      }
    </style>
  </defs>
  <g id="color">
    <path class="cls-1" d="M473.48,372.06c-6.74,11.4-14.44,22.27-23.1,32.51-20.57,24.34-45.58,44.26-74.32,59.2-28.75,14.94-59.79,24.15-92.27,27.38-33.62,3.34-67.31.08-100.14-9.68s-62.82-25.45-89.15-46.62c-25.43-20.45-46.39-45.13-62.3-73.35s-25.96-58.57-29.88-90.2c-4.06-32.74-1.33-65.43,8.1-97.16,9.44-31.73,25.02-60.59,46.32-85.79,20.57-24.34,45.58-44.26,74.32-59.2,28.75-14.94,59.79-24.15,92.27-27.38,8.52-.85,17.05-1.27,25.57-1.27,25.08,0,50.07,3.66,74.57,10.95,32.82,9.76,62.82,25.45,89.15,46.62,24.68,19.85,45.14,43.69,60.87,70.88v-1c-15.7-26.93-36.05-50.56-60.55-70.27-26.38-21.21-56.43-36.93-89.32-46.71S256.97-2.07,223.28,1.27c-32.54,3.23-63.64,12.46-92.45,27.43-28.81,14.97-53.86,34.93-74.48,59.32-21.34,25.25-36.96,54.18-46.41,85.97C.49,205.79-2.24,238.54,1.83,271.36c3.93,31.69,14,62.1,29.95,90.38,15.94,28.28,36.94,53.01,62.42,73.5,26.38,21.21,56.43,36.93,89.32,46.71,24.55,7.3,49.58,10.97,74.71,10.97,8.53,0,17.08-.42,25.62-1.27,32.54-3.23,63.64-12.46,92.45-27.43,28.81-14.97,53.86-34.93,74.48-59.32,8.49-10.05,16.06-20.69,22.71-31.85v-.98Z"/>
  </g>
</svg>