<?xml version="1.0" encoding="UTF-8"?>
<svg id="_圖層_2" data-name="圖層 2" xmlns="http://www.w3.org/2000/svg" viewBox="0 0 594.49 895.29">
  <defs>
    <style>
      .cls-1 {
        fill: #fff;
      }
    </style>
  </defs>
  <g id="color">
    <path class="cls-1" d="M536.78,238.27c-28.95-51.37-67.1-96.28-113.38-133.5-47.92-38.53-102.5-67.07-162.24-84.84C201.43,2.16,140.11-3.77,78.93,2.31,52.03,4.98,25.67,9.92,0,17.06v.52C25.69,10.42,52.06,5.48,78.98,2.81c15.5-1.54,31-2.31,46.48-2.31,45.59,0,91.01,6.66,135.56,19.91,59.67,17.75,114.2,46.26,162.06,84.75,46.23,37.17,84.34,82.04,113.26,133.35,28.92,51.31,47.2,106.48,54.33,163.98,7.38,59.53,2.42,118.95-14.73,176.63-17.16,57.68-45.48,110.15-84.2,155.96-37.39,44.25-82.85,80.46-135.12,107.63-52.26,27.16-108.7,43.91-167.73,49.77-61.12,6.07-122.37.15-182.04-17.6-2.29-.68-4.58-1.39-6.86-2.1v.52c2.23.7,4.47,1.39,6.71,2.05,44.59,13.26,90.06,19.93,135.7,19.93,15.5,0,31.02-.77,46.53-2.31,59.1-5.87,115.59-22.63,167.91-49.83s97.83-63.44,135.27-107.75c38.76-45.87,67.12-98.4,84.3-156.15,17.18-57.74,22.14-117.24,14.75-176.83-7.14-57.56-25.44-112.79-54.39-164.16Z"/>
  </g>
</svg>