<svg xmlns="http://www.w3.org/2000/svg" viewBox="0 0 374.9 24.02"><defs><style>.cls-1{fill:#fff;}</style></defs><g id="圖層_2" data-name="圖層 2"><g id="text"><path class="cls-1" d="M0,23.64V.36H4.22V10h10.9V.36h4.2V23.64h-4.2V13.53H4.22V23.64Z"/><path class="cls-1" d="M37.87,24a11.11,11.11,0,0,1-5-1.08,8.11,8.11,0,0,1-3.33-3,8,8,0,0,1-1.19-4.37V.36h4.15V15.25a5.07,5.07,0,0,0,.67,2.63A4.68,4.68,0,0,0,35,19.69a6.64,6.64,0,0,0,5.73,0,4.79,4.79,0,0,0,1.87-1.81,5.16,5.16,0,0,0,.66-2.63V.36h4.15V15.59A8.06,8.06,0,0,1,46.24,20a8.2,8.2,0,0,1-3.34,3A11.06,11.06,0,0,1,37.87,24Z"/><path class="cls-1" d="M53.45,23.64,61.84.36h5.29l8.4,23.28H70.92l-4.15-12.2c-.41-1.28-.85-2.66-1.29-4.14s-1-3.22-1.55-5.21H65q-.86,3-1.54,5.21c-.45,1.48-.89,2.86-1.31,4.14L58,23.64Zm5-5.61V14.64H70.59V18Z"/><path class="cls-1" d="M82.65,23.64V.36h4.58l8.28,13c.25.39.56.89.91,1.49s.73,1.27,1.12,2,.77,1.42,1.14,2.14l-.46.78c0-.69-.08-1.48-.12-2.36S98,15.63,98,14.84s0-1.43,0-1.9V.36h4.21V23.64H97.62L90.17,12c-.31-.48-.67-1.08-1.1-1.78s-.89-1.5-1.41-2.4-1.08-1.9-1.68-3l.65-.47c.07,1.16.12,2.24.15,3.23s.07,1.87.08,2.62,0,1.34,0,1.78V23.64Z"/><path class="cls-1" d="M115.52.36V23.64H111.3V.36Zm3.77,23.28h-6V20.09h5.74a8.49,8.49,0,0,0,4.21-.94,5.88,5.88,0,0,0,2.49-2.76A10.63,10.63,0,0,0,126.6,12a10.47,10.47,0,0,0-.82-4.38,5.79,5.79,0,0,0-2.46-2.75,8.31,8.31,0,0,0-4.12-.93h-6V.36h6.24a12.35,12.35,0,0,1,6.07,1.41,9.55,9.55,0,0,1,3.91,4,13.07,13.07,0,0,1,1.37,6.2,13.2,13.2,0,0,1-1.37,6.23,9.65,9.65,0,0,1-4,4A12.71,12.71,0,0,1,119.29,23.64Z"/><path class="cls-1" d="M149,24a10.73,10.73,0,0,1-5.63-1.48,10.3,10.3,0,0,1-3.91-4.17A13.38,13.38,0,0,1,138,12a13.5,13.5,0,0,1,1.43-6.38,10.3,10.3,0,0,1,3.91-4.17,11.52,11.52,0,0,1,11.26,0,10.34,10.34,0,0,1,3.9,4.17A13.5,13.5,0,0,1,159.92,12a13.43,13.43,0,0,1-1.43,6.35,10.38,10.38,0,0,1-3.9,4.16A10.8,10.8,0,0,1,149,24Zm0-3.72a6.3,6.3,0,0,0,3.44-1,6.44,6.44,0,0,0,2.4-2.8,10.35,10.35,0,0,0,.88-4.5,10.46,10.46,0,0,0-.88-4.53,6.47,6.47,0,0,0-2.4-2.81,6.66,6.66,0,0,0-6.89,0,6.47,6.47,0,0,0-2.4,2.81,10.46,10.46,0,0,0-.88,4.53,10.35,10.35,0,0,0,.88,4.5,6.44,6.44,0,0,0,2.4,2.8A6.31,6.31,0,0,0,149,20.28Z"/><path class="cls-1" d="M168.06,23.64V.36h4.58l8.28,13c.25.39.56.89.91,1.49s.73,1.27,1.12,2,.77,1.42,1.14,2.14l-.46.78c0-.69-.08-1.48-.12-2.36s-.06-1.71-.08-2.5,0-1.43,0-1.9V.36h4.21V23.64H183L175.58,12c-.31-.48-.67-1.08-1.1-1.78s-.89-1.5-1.41-2.4-1.08-1.9-1.68-3l.65-.47c.07,1.16.12,2.24.15,3.23s.07,1.87.08,2.62,0,1.34,0,1.78V23.64Z"/><path class="cls-1" d="M206.76,24A10.93,10.93,0,0,1,201,22.5a10.32,10.32,0,0,1-3.89-4.2A13.34,13.34,0,0,1,195.71,12a13.5,13.5,0,0,1,1.43-6.38,10.32,10.32,0,0,1,3.92-4.17A10.88,10.88,0,0,1,206.7,0a11.49,11.49,0,0,1,3.71.58,9.66,9.66,0,0,1,3.07,1.65,9.45,9.45,0,0,1,2.23,2.53A8.33,8.33,0,0,1,216.84,8h-4.28a5.43,5.43,0,0,0-2-3.14,5.24,5.24,0,0,0-1.7-.86,6.88,6.88,0,0,0-2.08-.3,6.39,6.39,0,0,0-3.61,1,6.7,6.7,0,0,0-2.39,2.86A10.71,10.71,0,0,0,200,12a10.61,10.61,0,0,0,.84,4.39,6.55,6.55,0,0,0,2.41,2.86,6.46,6.46,0,0,0,3.64,1,6.85,6.85,0,0,0,3.14-.69,5.2,5.2,0,0,0,2.13-2,5.54,5.54,0,0,0,.77-2.93l1.06.09H207.4V11.5H217v2.81a9.59,9.59,0,0,1-1.32,5.06,9.15,9.15,0,0,1-3.63,3.4A11.07,11.07,0,0,1,206.76,24Z"/><path class="cls-1" d="M246.27.36V23.64H242.2V4.23h0l-5.63,3.68V4.08L242.23.36Z"/><path class="cls-1" d="M263.71,24a12,12,0,0,1-4.95-.93,7.3,7.3,0,0,1-3.22-2.68,7.7,7.7,0,0,1-1.14-4.19h4.13a4.25,4.25,0,0,0,.67,2.32A4.11,4.11,0,0,0,261,20a6.7,6.7,0,0,0,2.72.51,7.14,7.14,0,0,0,2.57-.42A3.83,3.83,0,0,0,268,18.93a2.72,2.72,0,0,0,.61-1.77,2.33,2.33,0,0,0-.46-1.46,3.78,3.78,0,0,0-1.42-1,12.76,12.76,0,0,0-2.48-.79l-2.57-.59a11,11,0,0,1-5.08-2.34,5.24,5.24,0,0,1-1.67-4A6.15,6.15,0,0,1,256,3.28,7.13,7.13,0,0,1,259.06.87,11,11,0,0,1,263.58,0a10.75,10.75,0,0,1,4.54.89,7,7,0,0,1,3,2.52,7.25,7.25,0,0,1,1.14,3.86h-4a3.75,3.75,0,0,0-1.38-2.77,5.13,5.13,0,0,0-3.3-1,6.18,6.18,0,0,0-2.31.41,3.83,3.83,0,0,0-1.57,1.14,2.63,2.63,0,0,0-.56,1.65,2.16,2.16,0,0,0,.48,1.42,3.69,3.69,0,0,0,1.42,1,14,14,0,0,0,2.35.74l2.35.55a17.3,17.3,0,0,1,3,1A8.21,8.21,0,0,1,271,12.73a5.41,5.41,0,0,1,1.36,1.85,6,6,0,0,1,.46,2.37,6.46,6.46,0,0,1-1.1,3.74,7,7,0,0,1-3.13,2.46A12.27,12.27,0,0,1,263.71,24Z"/><path class="cls-1" d="M279.18,3.92V.36H298V3.92h-7.32V23.64h-4.21V3.92Z"/><path class="cls-1" d="M318.21,23.64V.36h9.15a10.24,10.24,0,0,1,4.5.91,6.69,6.69,0,0,1,2.89,2.59,7.41,7.41,0,0,1,1,3.94,7.12,7.12,0,0,1-1.05,3.91,6.94,6.94,0,0,1-3,2.55,10.78,10.78,0,0,1-4.58.9h-6.45V11.73H327a5.78,5.78,0,0,0,2.48-.47,3.47,3.47,0,0,0,1.54-1.36,4,4,0,0,0,.53-2.1,3.93,3.93,0,0,0-.54-2.1,3.62,3.62,0,0,0-1.55-1.36A5.76,5.76,0,0,0,327,3.86h-4.6V23.64Zm13.46,0-5.55-10.52h4.52l5.66,10.52Z"/><path class="cls-1" d="M348.21.36V23.64H344V.36ZM352,23.64h-6V20.09h5.74a8.49,8.49,0,0,0,4.21-.94,5.83,5.83,0,0,0,2.49-2.76,10.63,10.63,0,0,0,.83-4.42,10.47,10.47,0,0,0-.82-4.38A5.79,5.79,0,0,0,356,4.84a8.29,8.29,0,0,0-4.12-.93h-6V.36h6.25a12.34,12.34,0,0,1,6.06,1.41,9.49,9.49,0,0,1,3.91,4,13.07,13.07,0,0,1,1.38,6.2,13.32,13.32,0,0,1-1.38,6.23,9.65,9.65,0,0,1-3.95,4A12.71,12.71,0,0,1,352,23.64Z"/><path class="cls-1" d="M372.43,23.92a2.37,2.37,0,0,1-1.75-.71,2.44,2.44,0,0,1,0-3.46,2.54,2.54,0,0,1,3.5,0,2.44,2.44,0,0,1,0,3.46A2.37,2.37,0,0,1,372.43,23.92Z"/></g></g></svg>