<svg xmlns="http://www.w3.org/2000/svg" viewBox="0 0 270 60.68"><defs><style>.cls-1{fill:#005042;}.cls-2{fill:#ffc500;}</style></defs><g id="圖層_2" data-name="圖層 2"><g id="obj1"><path class="cls-1" d="M148.86,55l1.2,4.15h0L151.35,55H152l1.29,4.15h0l1.2-4.15h.5l-1.45,4.74H153l-1.34-4.24h0l-1.33,4.24h-.55L148.32,55Z"/><path class="cls-1" d="M157.5,58.65a1.17,1.17,0,0,0,.22.43,1.12,1.12,0,0,0,.39.32,1.14,1.14,0,0,0,.57.13,1.23,1.23,0,0,0,.8-.24,1.2,1.2,0,0,0,.39-.64h.47a1.64,1.64,0,0,1-.54.9,1.72,1.72,0,0,1-1.12.32,2.05,2.05,0,0,1-.78-.14,1.44,1.44,0,0,1-.53-.39,1.71,1.71,0,0,1-.31-.58,2.26,2.26,0,0,1-.1-.69,2.18,2.18,0,0,1,.1-.67,1.8,1.8,0,0,1,.31-.58,1.37,1.37,0,0,1,.53-.41,1.87,1.87,0,0,1,.78-.16,1.73,1.73,0,0,1,.78.17,1.62,1.62,0,0,1,.53.43,1.86,1.86,0,0,1,.29.62,2.41,2.41,0,0,1,.07.71h-2.92A1.58,1.58,0,0,0,157.5,58.65Zm2.3-1.28a1.28,1.28,0,0,0-.24-.39,1.31,1.31,0,0,0-.38-.27,1.15,1.15,0,0,0-.5-.1,1.19,1.19,0,0,0-.51.1,1.31,1.31,0,0,0-.38.27,1.28,1.28,0,0,0-.24.39,1.83,1.83,0,0,0-.12.46h2.46A1.79,1.79,0,0,0,159.8,57.37Z"/><path class="cls-1" d="M162.91,56.88a.89.89,0,0,1,.32-.35,1.35,1.35,0,0,1,.47-.21,2.84,2.84,0,0,1,.61-.07,2.92,2.92,0,0,1,.5,0,1.27,1.27,0,0,1,.45.16.88.88,0,0,1,.32.34,1,1,0,0,1,.13.56v1.82c0,.16.09.25.27.25a.37.37,0,0,0,.15,0v.35l-.15,0h-.15a.78.78,0,0,1-.29,0,.34.34,0,0,1-.16-.13.37.37,0,0,1-.08-.19,1.66,1.66,0,0,1,0-.24h0c-.09.11-.17.21-.26.3a1.19,1.19,0,0,1-.29.21,1.18,1.18,0,0,1-.36.14,2.21,2.21,0,0,1-.48,0,2.65,2.65,0,0,1-.5,0,1.22,1.22,0,0,1-.4-.18.87.87,0,0,1-.28-.32,1,1,0,0,1-.1-.44.8.8,0,0,1,.18-.56,1,1,0,0,1,.47-.31,3,3,0,0,1,.65-.15l.75-.09a1.71,1.71,0,0,0,.25,0,.47.47,0,0,0,.19-.07.28.28,0,0,0,.11-.13.53.53,0,0,0,0-.23.73.73,0,0,0-.07-.35.63.63,0,0,0-.22-.21.76.76,0,0,0-.32-.11,2.25,2.25,0,0,0-.38,0,1.26,1.26,0,0,0-.73.19.7.7,0,0,0-.29.6h-.47A1.38,1.38,0,0,1,162.91,56.88Zm2.32,1a.26.26,0,0,1-.17.1,1.12,1.12,0,0,1-.22.05l-.61.08a4.12,4.12,0,0,0-.57.11,1.23,1.23,0,0,0-.43.21.47.47,0,0,0-.16.39.51.51,0,0,0,.07.28.83.83,0,0,0,.46.35,1.13,1.13,0,0,0,.32.05,1.69,1.69,0,0,0,.5-.08,1,1,0,0,0,.43-.21,1,1,0,0,0,.29-.34.93.93,0,0,0,.1-.45v-.54Z"/><path class="cls-1" d="M168.89,56.35v.81h0a1.35,1.35,0,0,1,.55-.65,1.51,1.51,0,0,1,.89-.2v.42a1.54,1.54,0,0,0-.58.07,1.28,1.28,0,0,0-.44.26,1.14,1.14,0,0,0-.3.39,1.39,1.39,0,0,0-.1.5v1.83h-.46V56.35Z"/><path class="cls-1" d="M172.83,59.78a1,1,0,0,1,0,.29,1.23,1.23,0,0,1-.12.26.75.75,0,0,1-.49.35V60.4a.39.39,0,0,0,.16-.1,1,1,0,0,0,.11-.17.64.64,0,0,0,.06-.18.51.51,0,0,0,0-.17h-.31v-.7h.62Z"/><path class="cls-1" d="M180.51,55l1.75,4.16L184.07,55h.74v4.74h-.5v-4.1h0l-1.8,4.1H182l-1.73-4.1h0v4.1h-.5V55Z"/><path class="cls-1" d="M190,56.4a1.8,1.8,0,0,1,.57.39,1.77,1.77,0,0,1,.34.58,2.1,2.1,0,0,1,0,1.4,1.63,1.63,0,0,1-.34.57,1.8,1.8,0,0,1-.57.39,2.19,2.19,0,0,1-1.54,0,1.76,1.76,0,0,1-.56-.39,1.52,1.52,0,0,1-.35-.57,2.1,2.1,0,0,1,0-1.4,1.64,1.64,0,0,1,.35-.58,1.76,1.76,0,0,1,.56-.39,2.05,2.05,0,0,1,1.54,0Zm-1.35.33a1.4,1.4,0,0,0-.42.33,1.63,1.63,0,0,0-.25.47,1.68,1.68,0,0,0-.08.54,1.59,1.59,0,0,0,.08.53,1.51,1.51,0,0,0,.25.47,1.14,1.14,0,0,0,.42.33,1.21,1.21,0,0,0,.58.13,1.18,1.18,0,0,0,.58-.13,1.14,1.14,0,0,0,.42-.33,1.51,1.51,0,0,0,.25-.47,1.6,1.6,0,0,0,.09-.53,1.7,1.7,0,0,0-.09-.54,1.63,1.63,0,0,0-.25-.47,1.4,1.4,0,0,0-.42-.33,1.31,1.31,0,0,0-.58-.12A1.34,1.34,0,0,0,188.61,56.73Z"/><path class="cls-1" d="M193.6,56.35l1.2,3h0l1.18-3h.48l-1.42,3.43h-.5l-1.46-3.43Z"/><path class="cls-1" d="M199.1,58.65a1.35,1.35,0,0,0,.22.43,1.26,1.26,0,0,0,.4.32,1.08,1.08,0,0,0,.56.13,1.13,1.13,0,0,0,1.2-.88h.46a1.58,1.58,0,0,1-.54.9,1.68,1.68,0,0,1-1.12.32,2,2,0,0,1-.77-.14,1.57,1.57,0,0,1-.54-.39,1.71,1.71,0,0,1-.31-.58,2.61,2.61,0,0,1-.1-.69,2.53,2.53,0,0,1,.1-.67,1.8,1.8,0,0,1,.31-.58,1.49,1.49,0,0,1,.54-.41,1.79,1.79,0,0,1,.77-.16,1.74,1.74,0,0,1,.79.17,1.58,1.58,0,0,1,.52.43,1.54,1.54,0,0,1,.29.62,2.42,2.42,0,0,1,.08.71H199A1.58,1.58,0,0,0,199.1,58.65Zm2.3-1.28a1.11,1.11,0,0,0-.24-.39,1.26,1.26,0,0,0-.37-.27,1.19,1.19,0,0,0-.51-.1,1.12,1.12,0,0,0-.5.1,1.19,1.19,0,0,0-.38.27,1.3,1.3,0,0,0-.25.39,1.83,1.83,0,0,0-.12.46h2.46A1.22,1.22,0,0,0,201.4,57.37Z"/><path class="cls-1" d="M205.31,59.78a1.45,1.45,0,0,1,0,.29.91.91,0,0,1-.13.26.7.7,0,0,1-.2.22.72.72,0,0,1-.28.13V60.4a.31.31,0,0,0,.15-.1.62.62,0,0,0,.11-.17A.64.64,0,0,0,205,60a.56.56,0,0,0,0-.17h-.31v-.7h.62Z"/><path class="cls-1" d="M212.27,56.88a1,1,0,0,1,.32-.35,1.35,1.35,0,0,1,.47-.21,2.92,2.92,0,0,1,.61-.07,2.83,2.83,0,0,1,.5,0,1.27,1.27,0,0,1,.45.16,1,1,0,0,1,.33.34,1.13,1.13,0,0,1,.12.56v1.82c0,.16.09.25.27.25a.33.33,0,0,0,.15,0v.35l-.14,0h-.16a.81.81,0,0,1-.29,0,.34.34,0,0,1-.16-.13.37.37,0,0,1-.08-.19,1.66,1.66,0,0,1,0-.24h0c-.09.11-.17.21-.26.3a1.14,1.14,0,0,1-.28.21,1.35,1.35,0,0,1-.37.14,2.21,2.21,0,0,1-.48,0,2.65,2.65,0,0,1-.5,0,1.22,1.22,0,0,1-.4-.18.87.87,0,0,1-.28-.32,1,1,0,0,1-.09-.44.8.8,0,0,1,.17-.56,1.11,1.11,0,0,1,.47-.31,3.05,3.05,0,0,1,.66-.15l.74-.09a1.86,1.86,0,0,0,.26,0,.48.48,0,0,0,.18-.07.37.37,0,0,0,.12-.13.75.75,0,0,0,0-.58.5.5,0,0,0-.22-.21.76.76,0,0,0-.31-.11,2.38,2.38,0,0,0-.39,0,1.2,1.2,0,0,0-.72.19.69.69,0,0,0-.3.6h-.46A1.21,1.21,0,0,1,212.27,56.88Zm2.32,1a.24.24,0,0,1-.17.1,1.12,1.12,0,0,1-.22.05l-.61.08a4.12,4.12,0,0,0-.57.11,1.18,1.18,0,0,0-.42.21.48.48,0,0,0-.17.39.51.51,0,0,0,.07.28.76.76,0,0,0,.19.21.7.7,0,0,0,.27.14,1.13,1.13,0,0,0,.32.05,1.75,1.75,0,0,0,.51-.08,1,1,0,0,0,.42-.21,1,1,0,0,0,.29-.34.94.94,0,0,0,.11-.45v-.54Z"/><path class="cls-1" d="M218.29,56.35v.59h0a1.13,1.13,0,0,1,.47-.5,1.61,1.61,0,0,1,.75-.19,2.15,2.15,0,0,1,.67.1,1.15,1.15,0,0,1,.43.26,1.09,1.09,0,0,1,.23.41,2.4,2.4,0,0,1,.06.56v2.2h-.46V57.64a1.84,1.84,0,0,0,0-.41.86.86,0,0,0-.15-.32.73.73,0,0,0-.3-.22,1.1,1.1,0,0,0-.47-.08,1.2,1.2,0,0,0-.87.33,1.1,1.1,0,0,0-.23.37,1.23,1.23,0,0,0-.09.47v2h-.47V56.35Z"/><path class="cls-1" d="M226.54,59.78v-.65h0a1,1,0,0,1-.21.3,1.27,1.27,0,0,1-.33.24,2.37,2.37,0,0,1-.4.15,2,2,0,0,1-1.17-.09,1.62,1.62,0,0,1-.53-.39,1.57,1.57,0,0,1-.32-.58,2.47,2.47,0,0,1,0-1.39,1.46,1.46,0,0,1,.32-.57,1.52,1.52,0,0,1,.53-.4,1.81,1.81,0,0,1,.76-.15,1.84,1.84,0,0,1,.41,0,1.42,1.42,0,0,1,.38.14,1.57,1.57,0,0,1,.32.24,1,1,0,0,1,.21.32h0V55H227v4.74ZM224,58.59a1.36,1.36,0,0,0,.22.47,1.17,1.17,0,0,0,.39.34,1.26,1.26,0,0,0,.57.13,1.46,1.46,0,0,0,.62-.13,1.15,1.15,0,0,0,.41-.34,1.09,1.09,0,0,0,.23-.47,1.86,1.86,0,0,0,.07-.52,1.88,1.88,0,0,0-.07-.53,1.15,1.15,0,0,0-.23-.47,1,1,0,0,0-.41-.33,1.32,1.32,0,0,0-.62-.13,1.14,1.14,0,0,0-.57.13,1,1,0,0,0-.39.33,1.45,1.45,0,0,0-.22.47,1.88,1.88,0,0,0-.07.53A1.86,1.86,0,0,0,224,58.59Z"/><path class="cls-1" d="M235.88,55a3.21,3.21,0,0,1,.63.06,1.44,1.44,0,0,1,.54.19,1.09,1.09,0,0,1,.38.36,1,1,0,0,1,.14.55,1.1,1.1,0,0,1-.07.36,1.13,1.13,0,0,1-.19.32,1,1,0,0,1-.29.24.92.92,0,0,1-.37.14v0a1.28,1.28,0,0,1,.81.37,1.09,1.09,0,0,1,.3.78,1.23,1.23,0,0,1,0,.26.88.88,0,0,1-.09.29,1,1,0,0,1-.19.3,1.1,1.1,0,0,1-.33.25,2.61,2.61,0,0,1-.52.18,3.12,3.12,0,0,1-.73.07h-2.23V55Zm0,2.08a1.64,1.64,0,0,0,.52-.07,1.15,1.15,0,0,0,.37-.17.74.74,0,0,0,.22-.25.71.71,0,0,0,.07-.32c0-.59-.39-.89-1.18-.89h-1.73v1.7Zm0,2.27a3.08,3.08,0,0,0,.53,0,1.52,1.52,0,0,0,.44-.15.81.81,0,0,0,.3-.31.84.84,0,0,0,.11-.47.77.77,0,0,0-.35-.69,2,2,0,0,0-1-.23h-1.73v1.89Z"/><path class="cls-1" d="M240.74,56.35v.81h0a1.35,1.35,0,0,1,.55-.65,1.53,1.53,0,0,1,.89-.2v.42a1.57,1.57,0,0,0-.58.07,1.28,1.28,0,0,0-.44.26,1.11,1.11,0,0,0-.29.39,1.22,1.22,0,0,0-.11.5v1.83h-.46V56.35Z"/><path class="cls-1" d="M244.67,58.65a1.19,1.19,0,0,0,.23.43,1.12,1.12,0,0,0,.39.32,1.09,1.09,0,0,0,.57.13,1.18,1.18,0,0,0,.79-.24,1.22,1.22,0,0,0,.4-.64h.47a1.59,1.59,0,0,1-.55.9,1.67,1.67,0,0,1-1.11.32,2,2,0,0,1-.78-.14,1.57,1.57,0,0,1-.54-.39,1.53,1.53,0,0,1-.3-.58,2.26,2.26,0,0,1-.1-.69,2.18,2.18,0,0,1,.1-.67,1.61,1.61,0,0,1,.3-.58,1.49,1.49,0,0,1,.54-.41,1.84,1.84,0,0,1,.78-.16,1.73,1.73,0,0,1,.78.17,1.58,1.58,0,0,1,.52.43,1.7,1.7,0,0,1,.3.62,2.41,2.41,0,0,1,.07.71H244.6A1.58,1.58,0,0,0,244.67,58.65Zm2.3-1.28a1,1,0,0,0-.24-.39,1.26,1.26,0,0,0-.37-.27,1.18,1.18,0,0,0-.5-.1,1.13,1.13,0,0,0-.51.1A1.19,1.19,0,0,0,245,57a1.3,1.3,0,0,0-.25.39,1.83,1.83,0,0,0-.12.46h2.46A1.22,1.22,0,0,0,247,57.37Z"/><path class="cls-1" d="M250.08,56.88a1.07,1.07,0,0,1,.32-.35,1.49,1.49,0,0,1,.48-.21,2.57,2.57,0,0,1,1.1,0,1.27,1.27,0,0,1,.45.16.83.83,0,0,1,.33.34,1.13,1.13,0,0,1,.12.56v1.82c0,.16.09.25.28.25a.4.4,0,0,0,.15,0v.35l-.15,0H253a.72.72,0,0,1-.28,0,.37.37,0,0,1-.17-.13.47.47,0,0,1-.08-.19,1.77,1.77,0,0,1,0-.24h0c-.08.11-.17.21-.25.3a1.19,1.19,0,0,1-.29.21,1.42,1.42,0,0,1-.36.14,2.37,2.37,0,0,1-.49,0,2.54,2.54,0,0,1-.49,0,1.28,1.28,0,0,1-.41-.18.94.94,0,0,1-.27-.32.87.87,0,0,1-.1-.44.8.8,0,0,1,.18-.56,1,1,0,0,1,.46-.31,3.2,3.2,0,0,1,.66-.15l.74-.09a1.7,1.7,0,0,0,.26,0,.42.42,0,0,0,.18-.07.37.37,0,0,0,.12-.13.53.53,0,0,0,0-.23.72.72,0,0,0-.08-.35.53.53,0,0,0-.21-.21.81.81,0,0,0-.32-.11,2.38,2.38,0,0,0-.39,0,1.25,1.25,0,0,0-.72.19.68.68,0,0,0-.29.6h-.47A1.37,1.37,0,0,1,250.08,56.88Zm2.32,1c0,.05-.08.08-.17.1a1,1,0,0,1-.22.05l-.6.08a4.6,4.6,0,0,0-.58.11,1.18,1.18,0,0,0-.42.21.48.48,0,0,0-.17.39.61.61,0,0,0,.07.28.76.76,0,0,0,.19.21.7.7,0,0,0,.27.14,1.19,1.19,0,0,0,.32.05,1.7,1.7,0,0,0,.51-.08,1,1,0,0,0,.42-.21.87.87,0,0,0,.29-.34.94.94,0,0,0,.11-.45v-.54Z"/><path class="cls-1" d="M257.15,56.35v.36h-.77V59a.73.73,0,0,0,.06.32c0,.08.15.12.32.13l.39,0v.35h-.41a1,1,0,0,1-.65-.16.8.8,0,0,1-.18-.6V56.71h-.66v-.36h.66v-1h.47v1Z"/><path class="cls-1" d="M260.11,55v1.9h0a1,1,0,0,1,.47-.5,1.54,1.54,0,0,1,.74-.19,2.1,2.1,0,0,1,.67.1,1.08,1.08,0,0,1,.43.26.88.88,0,0,1,.23.41,2,2,0,0,1,.07.56v2.2h-.47V57.64a1.84,1.84,0,0,0,0-.41.74.74,0,0,0-.16-.32.62.62,0,0,0-.3-.22,1.05,1.05,0,0,0-.46-.08,1.28,1.28,0,0,0-.5.09,1.08,1.08,0,0,0-.37.24,1.31,1.31,0,0,0-.24.37,1.78,1.78,0,0,0-.09.47v2h-.46V55Z"/><path class="cls-1" d="M265.79,58.65a1.17,1.17,0,0,0,.22.43,1.12,1.12,0,0,0,.39.32,1.14,1.14,0,0,0,.57.13,1.21,1.21,0,0,0,.8-.24,1.28,1.28,0,0,0,.4-.64h.46a1.64,1.64,0,0,1-.54.9,1.72,1.72,0,0,1-1.12.32,2.05,2.05,0,0,1-.78-.14,1.52,1.52,0,0,1-.53-.39,1.71,1.71,0,0,1-.31-.58,2.26,2.26,0,0,1-.1-.69,2.18,2.18,0,0,1,.1-.67,1.8,1.8,0,0,1,.31-.58,1.45,1.45,0,0,1,.53-.41,1.87,1.87,0,0,1,.78-.16,1.7,1.7,0,0,1,.78.17,1.62,1.62,0,0,1,.53.43,1.68,1.68,0,0,1,.29.62,2.41,2.41,0,0,1,.07.71h-2.92A1.58,1.58,0,0,0,265.79,58.65Zm2.3-1.28a1.28,1.28,0,0,0-.24-.39,1.31,1.31,0,0,0-.38-.27,1.15,1.15,0,0,0-.5-.1,1.19,1.19,0,0,0-.51.1,1.25,1.25,0,0,0-.62.66,1.83,1.83,0,0,0-.12.46h2.46A1.45,1.45,0,0,0,268.09,57.37Z"/><path class="cls-1" d="M86.12,56.3A26.38,26.38,0,0,1,59.76,32.49H86.12A16.25,16.25,0,0,0,86.12,0a30,30,0,0,0-8.64,1.27h0l-.42.14h0l-.11,0h0L12.59,22a19.46,19.46,0,0,0,6.86,37.66h121.7V56.3Zm12.94-40A13,13,0,0,1,86.12,29.19H59.64A26.4,26.4,0,0,1,78.05,4.55h0l.09,0,.3-.09A26.54,26.54,0,0,1,86.12,3.3,13,13,0,0,1,99.06,16.25Z"/><path class="cls-2" d="M245.84,1.88A24.16,24.16,0,1,0,270,26,24,24,0,0,0,245.84,1.88Zm0,42.64A18.48,18.48,0,1,1,264.32,26,18.51,18.51,0,0,1,245.84,44.52Z"/><rect class="cls-2" x="148.24" y="21.52" width="5.27" height="28.97"/><polygon class="cls-2" points="106.65 6.54 123.09 6.54 123.09 50.48 128.36 50.48 128.36 6.54 143.53 6.54 143.53 1.27 106.65 1.27 106.65 6.54"/><path class="cls-2" d="M202.35,1.27H181.06V6.54h21.29a10.91,10.91,0,0,1,0,21.82h-8.93v5.27h8.93a16.18,16.18,0,1,0,0-32.36Z"/><polygon class="cls-2" points="181.08 44.19 155.89 1.27 148.24 1.27 148.24 14.45 153.51 14.45 153.51 7.63 178.66 50.48 186.35 50.48 186.35 13.71 181.08 13.71 181.08 44.19"/></g></g></svg>