<?xml version="1.0" encoding="UTF-8"?>
<svg id="_圖層_2" data-name="圖層 2" xmlns="http://www.w3.org/2000/svg" viewBox="0 0 24.11 34.99">
  <defs>
    <style>
      .cls-1 {
        fill: #005042;
      }
    </style>
  </defs>
  <g id="text">
    <g>
      <path class="cls-1" d="M12.06,34.99l-.81-1.11c-.46-.63-11.25-15.47-11.25-21.83S5.41,0,12.06,0s12.06,5.41,12.06,12.06-10.79,21.2-11.25,21.83l-.81,1.11ZM12.06,2C6.51,2,2,6.51,2,12.06c0,4.36,6.64,14.68,10.06,19.52,3.41-4.84,10.06-15.16,10.06-19.52,0-5.54-4.51-10.06-10.06-10.06Z"/>
      <path class="cls-1" d="M12.06,19.07c-3.87,0-7.02-3.15-7.02-7.02s3.15-7.02,7.02-7.02,7.02,3.15,7.02,7.02-3.15,7.02-7.02,7.02ZM12.06,7.04c-2.77,0-5.02,2.25-5.02,5.02s2.25,5.02,5.02,5.02,5.02-2.25,5.02-5.02-2.25-5.02-5.02-5.02Z"/>
    </g>
  </g>
</svg>