<svg xmlns="http://www.w3.org/2000/svg" viewBox="0 0 295.4 24"><defs><style>.cls-1{fill:#fff;}</style></defs><g id="圖層_2" data-name="圖層 2"><g id="text"><path class="cls-1" d="M0,23.64V.36H4.58l8.27,13c.26.39.56.89.92,1.49s.72,1.27,1.11,2,.77,1.42,1.15,2.14l-.47.78c0-.7-.08-1.48-.11-2.36s-.07-1.71-.08-2.5,0-1.43,0-1.9V.36h4.22V23.64H15L7.51,12c-.3-.48-.67-1.08-1.09-1.78S5.53,8.7,5,7.8s-1.08-1.9-1.68-3L4,4.34c.06,1.16.11,2.24.15,3.23s.06,1.87.08,2.62,0,1.34,0,1.78V23.64Z"/><path class="cls-1" d="M26.67,23.64,35.06.36h5.29l8.4,23.28H44.14L40,11.44Q39.38,9.52,38.7,7.3T37.15,2.09h1.11q-.85,3-1.54,5.21c-.45,1.48-.89,2.86-1.31,4.14l-4.2,12.2Zm5-5.61V14.64H43.81V18Z"/><path class="cls-1" d="M55.88,23.64V.36h4.58l8.27,13c.25.39.56.89.91,1.49s.73,1.27,1.12,2,.77,1.42,1.14,2.14l-.46.78c0-.7-.08-1.48-.12-2.36s-.06-1.71-.08-2.5,0-1.43,0-1.9V.36h4.21V23.64H70.84L63.39,12c-.31-.48-.67-1.08-1.1-1.78s-.89-1.5-1.41-2.4l-1.68-3,.65-.47c.07,1.16.12,2.24.15,3.23s.07,1.87.08,2.62,0,1.34,0,1.78V23.64Z"/><path class="cls-1" d="M84.52,23.64V.36h4.22v7l0,5.58,0,2v8.73Zm3-5.52V13.2c.53-.67,1.07-1.33,1.6-2S90.2,10,90.75,9.31l1.7-1.95,6.24-7h5.19l-10,11.11-.32,0Zm11.6,5.52-7.58-11,2.57-3.17,9.92,14.17Z"/><path class="cls-1" d="M111.19,23.64V.36h16.19V3.92h-12v6.17h11.08v3.5H115.41v6.49h12v3.56Z"/><path class="cls-1" d="M156,24a10,10,0,0,1-4.66-1,7.37,7.37,0,0,1-3-2.73,7.27,7.27,0,0,1-1.06-3.9h4.11a4.66,4.66,0,0,0,.57,2.3,3.68,3.68,0,0,0,1.58,1.47,5.44,5.44,0,0,0,2.43.51,5.74,5.74,0,0,0,2.38-.46,3.86,3.86,0,0,0,1.61-1.3,3.38,3.38,0,0,0,.59-2,3,3,0,0,0-.62-1.88,4,4,0,0,0-1.74-1.25,7,7,0,0,0-2.62-.45h-2.06V10.16h2.06a6.16,6.16,0,0,0,2.32-.41,3.47,3.47,0,0,0,1.54-1.16A2.85,2.85,0,0,0,160,6.84,3.38,3.38,0,0,0,159.45,5,3.48,3.48,0,0,0,158,3.73a4.83,4.83,0,0,0-2.12-.43,4.73,4.73,0,0,0-2.18.47,3.52,3.52,0,0,0-1.46,1.32,3.68,3.68,0,0,0-.53,2h-4a6.82,6.82,0,0,1,1-3.68A7,7,0,0,1,151.66.91,9.48,9.48,0,0,1,155.93,0a9.7,9.7,0,0,1,4.15.84,7,7,0,0,1,2.84,2.31,5.6,5.6,0,0,1,1,3.33,4.69,4.69,0,0,1-1.2,3.26,6.13,6.13,0,0,1-3.19,1.81v.06a6.59,6.59,0,0,1,2.77,1,5.44,5.44,0,0,1,1.77,1.93,5.32,5.32,0,0,1,.61,2.54,5.9,5.9,0,0,1-1.12,3.57,7.52,7.52,0,0,1-3.09,2.45A10.92,10.92,0,0,1,156,24Z"/><path class="cls-1" d="M172.86,23.64V.36H182a10.18,10.18,0,0,1,4.5.91,6.72,6.72,0,0,1,2.9,2.59,7.49,7.49,0,0,1,1,3.94,7.12,7.12,0,0,1-1.05,3.91,6.88,6.88,0,0,1-3,2.55,10.75,10.75,0,0,1-4.58.9h-6.45V11.73h6.36a5.76,5.76,0,0,0,2.47-.47,3.5,3.5,0,0,0,1.55-1.36,4,4,0,0,0,.53-2.1,3.93,3.93,0,0,0-.54-2.1,3.65,3.65,0,0,0-1.56-1.36,5.73,5.73,0,0,0-2.47-.48h-4.6V23.64Zm13.45,0-5.54-10.52h4.52l5.65,10.52Z"/><path class="cls-1" d="M202.85.36V23.64h-4.21V.36Zm3.77,23.28h-6V20.09h5.73a8.46,8.46,0,0,0,4.21-.94,5.85,5.85,0,0,0,2.5-2.76,10.64,10.64,0,0,0,.82-4.42,10.64,10.64,0,0,0-.81-4.38,5.86,5.86,0,0,0-2.47-2.75,8.29,8.29,0,0,0-4.12-.93h-6V.36h6.25a12.28,12.28,0,0,1,6.06,1.41,9.57,9.57,0,0,1,3.92,4,13.19,13.19,0,0,1,1.37,6.2,13.2,13.2,0,0,1-1.38,6.23,9.65,9.65,0,0,1-4,4A12.71,12.71,0,0,1,206.62,23.64Z"/><path class="cls-1" d="M238.71,23.64V.36h9.15a10.24,10.24,0,0,1,4.5.91,6.69,6.69,0,0,1,2.89,2.59,7.41,7.41,0,0,1,1,3.94,7.12,7.12,0,0,1-1,3.91,6.94,6.94,0,0,1-3,2.55,10.78,10.78,0,0,1-4.58.9h-6.45V11.73h6.35a5.78,5.78,0,0,0,2.48-.47,3.47,3.47,0,0,0,1.54-1.36,4,4,0,0,0,.53-2.1,3.93,3.93,0,0,0-.54-2.1A3.62,3.62,0,0,0,250,4.34a5.76,5.76,0,0,0-2.47-.48h-4.6V23.64Zm13.46,0-5.55-10.52h4.52l5.66,10.52Z"/><path class="cls-1" d="M268.71.36V23.64h-4.22V.36Zm3.77,23.28h-6V20.09h5.74a8.49,8.49,0,0,0,4.21-.94A5.83,5.83,0,0,0,279,16.39a10.63,10.63,0,0,0,.83-4.42A10.47,10.47,0,0,0,279,7.59a5.79,5.79,0,0,0-2.46-2.75,8.29,8.29,0,0,0-4.12-.93h-6V.36h6.25a12.34,12.34,0,0,1,6.06,1.41,9.49,9.49,0,0,1,3.91,4A13.07,13.07,0,0,1,284,12a13.2,13.2,0,0,1-1.38,6.23,9.71,9.71,0,0,1-3.95,4A12.71,12.71,0,0,1,272.48,23.64Z"/><path class="cls-1" d="M292.93,23.92a2.41,2.41,0,0,1-1.75-.71,2.44,2.44,0,0,1,0-3.46,2.54,2.54,0,0,1,3.5,0,2.44,2.44,0,0,1,0,3.46A2.41,2.41,0,0,1,292.93,23.92Z"/></g></g></svg>