<?xml version="1.0" encoding="UTF-8"?>
<svg id="_圖層_2" data-name="圖層 2" xmlns="http://www.w3.org/2000/svg" viewBox="0 0 21.62 25.01">
  <defs>
    <style>
      .cls-1 {
        fill: #005042;
      }
    </style>
  </defs>
  <g id="text">
    <path class="cls-1" d="M17.11,25.01c-3.58,0-8.07-3.97-11.53-8.36C1.22,11.11-2.11,4.14,1.6,1.18,1.98.88,3,.17,4.47.01c.96-.11,1.86.42,2.25,1.3l1.96,4.33c.36.78.22,1.71-.34,2.37l-.84.98c-.06.06-.07.16-.04.24.33.8,1.07,2.4,2.38,4.06,1.31,1.66,2.69,2.76,3.4,3.27.07.05.16.06.24.02l1.15-.59c.77-.39,1.71-.31,2.38.22l3.75,2.92c.76.59,1.05,1.59.74,2.49-.49,1.38-1.42,2.22-1.8,2.51-.78.6-1.65.88-2.58.88ZM4.7,2s-.01,0-.02,0c-.96.1-1.64.59-1.83.74-2.05,1.64-.28,6.85,4.31,12.67,4.59,5.82,9.24,8.76,11.31,7.15.19-.14.82-.69,1.14-1.6.03-.08,0-.18-.08-.24l-3.75-2.92c-.07-.05-.16-.06-.24-.02l-1.15.59c-.75.38-1.63.32-2.32-.17-.79-.57-2.34-1.8-3.8-3.65-1.46-1.85-2.3-3.65-2.67-4.55-.32-.78-.17-1.66.37-2.29l.84-.98c.06-.07.07-.16.04-.24l-1.96-4.33c-.04-.08-.12-.14-.2-.14Z"/>
  </g>
</svg>