<?xml version="1.0" encoding="UTF-8"?>
<svg id="_圖層_2" data-name="圖層 2" xmlns="http://www.w3.org/2000/svg" viewBox="0 0 25.71 25.71">
  <defs>
    <style>
      .cls-1 {
        fill: #005042;
      }
    </style>
  </defs>
  <g id="text">
    <g>
      <path class="cls-1" d="M12.85,25.71C5.77,25.71,0,19.94,0,12.85S5.77,0,12.85,0s12.85,5.77,12.85,12.85-5.77,12.85-12.85,12.85ZM12.85,2C6.87,2,2,6.87,2,12.85s4.87,10.85,10.85,10.85,10.85-4.87,10.85-10.85S18.84,2,12.85,2Z"/>
      <path class="cls-1" d="M20.88,13.85h-9.03v-7.88c0-.55.45-1,1-1s1,.45,1,1v5.88h7.03c.55,0,1,.45,1,1s-.45,1-1,1Z"/>
    </g>
  </g>
</svg>