<svg xmlns="http://www.w3.org/2000/svg" viewBox="0 0 842.7 51.74"><defs><style>.cls-1{fill:#004632;}</style></defs><g id="圖層_2" data-name="圖層 2"><g id="text"><path class="cls-1" d="M5.78,18.4a6,6,0,0,1-2.9-.71,5.41,5.41,0,0,1-2.1-2A6.21,6.21,0,0,1,0,12.46,6.75,6.75,0,0,1,.44,10,5.62,5.62,0,0,1,1.67,8.07a5.27,5.27,0,0,1,1.75-1.2,5,5,0,0,1,2-.41A5.09,5.09,0,0,1,8,7.06,4.21,4.21,0,0,1,9.64,8.84a6.41,6.41,0,0,1,.58,2.87v.35a2.12,2.12,0,0,1,0,.42H.91a5.77,5.77,0,0,0,.61,2.67A4.61,4.61,0,0,0,3.24,17a4.88,4.88,0,0,0,2.59.68,6,6,0,0,0,1.92-.28,6.64,6.64,0,0,0,1.56-.76l.39.67a14.29,14.29,0,0,1-1.61.74A6.47,6.47,0,0,1,5.78,18.4ZM.91,11.77H9.38A4.85,4.85,0,0,0,8.3,8.32,3.72,3.72,0,0,0,5.45,7.17a4.21,4.21,0,0,0-2.11.55A4.58,4.58,0,0,0,1.7,9.3,5.67,5.67,0,0,0,.91,11.77Z"/><path class="cls-1" d="M21.43,18.12v-15H15.81V2.44H28v.71H22.37v15Z"/><path class="cls-1" d="M37.07,18.12V2.44H38V18.12Z"/><path class="cls-1" d="M48.65,18.12V2.44h.94l7.68,11.43,2,3.09h.12c-.05-.77-.08-1.51-.11-2.24s0-1.46,0-2.19V2.44h.86V18.12h-1L51.48,6.7l-2-3.09H49.4c0,.73.05,1.44.07,2.14s0,1.41,0,2.16V18.12Z"/><path class="cls-1" d="M70.79,18.12V2.44H75a11.81,11.81,0,0,1,3.38.42A4.14,4.14,0,0,1,80.5,4.21a4,4,0,0,1,.73,2.51,4.13,4.13,0,0,1-.72,2.5,4.26,4.26,0,0,1-2.09,1.49,9.83,9.83,0,0,1-3.34.5h-3.4v6.91Zm.89-7.62h3.09a7.68,7.68,0,0,0,4.14-.88,3.17,3.17,0,0,0,1.36-2.9,2.91,2.91,0,0,0-1.38-2.81,9.13,9.13,0,0,0-4.21-.76h-3Z"/><path class="cls-1" d="M96.93,18.4a6.71,6.71,0,0,1-3.66-1,7,7,0,0,1-2.51-2.85,9.55,9.55,0,0,1-.91-4.3A9.36,9.36,0,0,1,90.76,6a7,7,0,0,1,2.51-2.8,7.26,7.26,0,0,1,7.32,0A7,7,0,0,1,103.1,6a9.36,9.36,0,0,1,.91,4.29,9.55,9.55,0,0,1-.91,4.3,7,7,0,0,1-2.51,2.85A6.71,6.71,0,0,1,96.93,18.4Zm0-.75a5.72,5.72,0,0,0,3.23-.92,6.11,6.11,0,0,0,2.15-2.58,9.28,9.28,0,0,0,.76-3.91,9.12,9.12,0,0,0-.76-3.89,6,6,0,0,0-2.15-2.54,6.29,6.29,0,0,0-6.45,0,6.07,6.07,0,0,0-2.16,2.54,9.12,9.12,0,0,0-.76,3.89,9.28,9.28,0,0,0,.76,3.91,6.13,6.13,0,0,0,2.16,2.58A5.73,5.73,0,0,0,96.93,17.65Z"/><path class="cls-1" d="M125.18,3.63h.72V19.16h-.72Zm.33,6.24h7.11v.63h-7.11Zm.12-6.24h7.23V17.32h-7.23v-.65h6.51V4.25h-6.51ZM129.11.11l.75.21q-.31.92-.72,1.92c-.27.67-.53,1.23-.77,1.69l-.6-.19c.16-.33.32-.71.49-1.14s.33-.86.48-1.3S129,.45,129.11.11ZM137.44,0l.7.13a31,31,0,0,1-1,3.14,25,25,0,0,1-1.26,2.85,14.46,14.46,0,0,1-1.54,2.37.71.71,0,0,0-.17-.11L134,8.25l-.21-.11a13.23,13.23,0,0,0,1.53-2.31A19.76,19.76,0,0,0,136.52,3,28.1,28.1,0,0,0,137.44,0Zm-1,8.64.55-.3c.51.52,1,1.08,1.56,1.69s1,1.21,1.45,1.77A17.86,17.86,0,0,1,141,13.31l-.62.38a16.46,16.46,0,0,0-1-1.54q-.66-.87-1.44-1.8C137.41,9.73,136.91,9.16,136.41,8.64Zm.12-5h7.73V4.3h-7.73Zm7.44,0h.72v.5q-.16,3.78-.32,6.37c-.11,1.73-.23,3.13-.36,4.22a17.79,17.79,0,0,1-.46,2.51,3,3,0,0,1-.61,1.24,1.71,1.71,0,0,1-.65.44,2.91,2.91,0,0,1-.89.14c-.35,0-.84,0-1.46,0s-1.27,0-1.92-.1c0-.11,0-.23-.07-.34a.6.6,0,0,0-.17-.28c.8.06,1.52.09,2.17.11l1.36,0a2.52,2.52,0,0,0,.6-.06.63.63,0,0,0,.4-.27,2.63,2.63,0,0,0,.56-1.17,18.79,18.79,0,0,0,.43-2.52c.13-1.09.25-2.51.36-4.24s.21-3.86.31-6.37Z"/><path class="cls-1" d="M154.6,1.1h6.19v.63h-5.47V19.61h-.72Zm6,0h.14l.15,0,.48.3-.9,1.87c-.33.65-.66,1.31-1,2s-.67,1.3-1,1.92a8.73,8.73,0,0,1,2.19,2.75,6.06,6.06,0,0,1,.55,2.37,5,5,0,0,1-.19,1.35,1.53,1.53,0,0,1-.67.91,2.36,2.36,0,0,1-.56.24,4.53,4.53,0,0,1-.64.13c-.29,0-.6,0-.93,0s-.63,0-.92,0a1.73,1.73,0,0,0-.1-.33,1,1,0,0,0-.19-.32l1.06,0c.33,0,.63,0,.88,0a2.12,2.12,0,0,0,.94-.21,1.21,1.21,0,0,0,.47-.74,4.64,4.64,0,0,0,.13-1,5.46,5.46,0,0,0-.57-2.28,8.74,8.74,0,0,0-2.26-2.74c.29-.51.57-1,.85-1.57s.55-1.06.8-1.58.49-1,.71-1.49.41-.91.59-1.32Zm5,3.31h.72c-.05,1.55-.16,3.08-.31,4.59a22.53,22.53,0,0,1-.88,4.25,12.05,12.05,0,0,1-1.88,3.63,9.82,9.82,0,0,1-3.36,2.71,2.37,2.37,0,0,0-.27-.2l-.31-.21a9.48,9.48,0,0,0,3.32-2.62A11.09,11.09,0,0,0,164.4,13a20.31,20.31,0,0,0,.83-4.16C165.37,7.38,165.47,5.9,165.52,4.41ZM160.93,4H175v.65H160.93Zm4.68,4.67h7.44v.63h-7.44ZM167,.47l.64-.08c.24.52.48,1.08.71,1.68s.4,1.11.52,1.51l-.65.18a15.24,15.24,0,0,0-.53-1.56C167.46,1.58,167.23,1,167,.47Zm5.8,8.17h.7v.43q-.12,2.65-.24,4.47c-.08,1.21-.17,2.2-.28,3a12.59,12.59,0,0,1-.34,1.78,2,2,0,0,1-.48.9,1.38,1.38,0,0,1-.57.36,4,4,0,0,1-.83.12c-.35,0-.85,0-1.5,0s-1.3-.05-2-.09a2.26,2.26,0,0,0-.08-.3.84.84,0,0,0-.16-.33c.78.06,1.51.09,2.18.11l1.37,0a1.22,1.22,0,0,0,.94-.24,2.8,2.8,0,0,0,.52-1.32,27,27,0,0,0,.4-3.13c.12-1.39.23-3.25.32-5.57Z"/><path class="cls-1" d="M190.4,6h.17l.14,0,.46.19a19.07,19.07,0,0,1-1.8,4.87,17.4,17.4,0,0,1-2.69,3.73,15.73,15.73,0,0,1-3.24,2.61.83.83,0,0,0-.16-.18l-.21-.19a.83.83,0,0,0-.21-.15,14.19,14.19,0,0,0,3.23-2.49,16.3,16.3,0,0,0,2.62-3.57,18.3,18.3,0,0,0,1.69-4.58Zm-6.87,0h7v.65h-7Zm9.6-5.7h.75V18.51a1.15,1.15,0,0,1-.18.72.94.94,0,0,1-.57.32,6.16,6.16,0,0,1-1.11.11l-2.05,0a1.65,1.65,0,0,0-.09-.21c0-.08-.07-.16-.11-.25a.72.72,0,0,0-.12-.21l1.91,0c.55,0,.91,0,1.07,0a.78.78,0,0,0,.38-.11.44.44,0,0,0,.12-.37Zm.68,5a25.67,25.67,0,0,0,2,3.42A28.39,28.39,0,0,0,198.49,12a25.76,25.76,0,0,0,3,2.73,16.71,16.71,0,0,0,3.21,1.92l-.17.16-.19.2a1.41,1.41,0,0,0-.17.18,18.3,18.3,0,0,1-3.21-2,24.86,24.86,0,0,1-3-2.81A29.93,29.93,0,0,1,195.32,9a28.57,28.57,0,0,1-2.07-3.52Zm7.7-.75.62.38c-.49.58-1,1.19-1.68,1.84S199.2,8,198.56,8.64s-1.24,1.13-1.8,1.58l-.46-.33c.55-.46,1.14-1,1.78-1.63S199.34,7,200,6.34,201.08,5.08,201.51,4.54Z"/><path class="cls-1" d="M216.81,10.65H217l.16,0,.44.15a15.8,15.8,0,0,1-2,5.45,10.66,10.66,0,0,1-3.18,3.4.61.61,0,0,0-.16-.17l-.2-.18a.58.58,0,0,0-.19-.14A10.29,10.29,0,0,0,215,15.91a14.11,14.11,0,0,0,1.84-5.09Zm-4.39.91a1.33,1.33,0,0,0-.11-.26,3.18,3.18,0,0,1-.16-.32,1,1,0,0,0-.14-.24,3.34,3.34,0,0,0,.51-.2,1.68,1.68,0,0,0,.54-.41,8.24,8.24,0,0,0,.83-.9c.36-.42.75-.89,1.15-1.41l1.16-1.49c.36-.48.63-.85.82-1.12v0l.34-.15.62.28-1,1.3c-.4.5-.82,1-1.27,1.56s-.89,1.06-1.32,1.55-.82.91-1.15,1.25a2.92,2.92,0,0,0-.4.21,3.15,3.15,0,0,0-.27.19A.27.27,0,0,0,212.42,11.56Zm-.27-6.44h5.33v.65h-5.33Zm.27,6.44v-.63l.69-.28h4.06v.62h-3.39a3.79,3.79,0,0,0-.86.09A1.09,1.09,0,0,0,212.42,11.56ZM213.35.45l.58-.26c.51.55,1,1.15,1.56,1.79a13.15,13.15,0,0,1,1.2,1.65l-.6.3c-.19-.3-.44-.65-.75-1.06s-.63-.81-1-1.24S213.67.81,213.35.45Zm2.5,15.08a5.19,5.19,0,0,0,2.27,2.06,10.6,10.6,0,0,0,3.45.9,45.35,45.35,0,0,0,4.65.22l2.62,0c.92,0,1.83,0,2.72-.06s1.7-.07,2.43-.13a.82.82,0,0,0-.12.2,2.41,2.41,0,0,0-.08.25,1.5,1.5,0,0,0-.06.22l-2.28.09-2.62.05h-2.59c-1.42,0-2.7,0-3.84-.13a15.93,15.93,0,0,1-3-.5,7.53,7.53,0,0,1-2.31-1,6,6,0,0,1-1.68-1.81Zm9.31-11.08.6.26a12.07,12.07,0,0,1-2,2,19.23,19.23,0,0,1-2.56,1.74,20,20,0,0,1-2.59,1.28l-.24-.28a1.53,1.53,0,0,0-.29-.24A16.11,16.11,0,0,0,220.7,8a18.65,18.65,0,0,0,2.52-1.67A12.47,12.47,0,0,0,225.16,4.45Zm-6.62-.15h14.83v.62H218.54Zm5.25,5.51h.75a13.11,13.11,0,0,1-.8,3,7.06,7.06,0,0,1-1.6,2.41,8,8,0,0,1-2.84,1.7,1.44,1.44,0,0,0-.22-.26,2.21,2.21,0,0,0-.28-.23,7.64,7.64,0,0,0,2.75-1.59,6.42,6.42,0,0,0,1.53-2.27A11.11,11.11,0,0,0,223.79,9.81Zm7.8-9.18.6.51c-.78.16-1.69.31-2.71.45s-2.12.26-3.28.36-2.33.21-3.51.29-2.33.14-3.43.18a2.33,2.33,0,0,0-.09-.29,1.13,1.13,0,0,0-.13-.27l3.41-.21q1.77-.12,3.48-.27c1.13-.1,2.19-.21,3.17-.34S230.9.77,231.59.63Zm-10.8,9h8.07v.63h-8.07Zm4.73-7.88h.7V9h-.7Zm1.25,3.84.45-.38c.8.41,1.6.85,2.38,1.31s1.52.92,2.22,1.39,1.3.9,1.81,1.31l-.57.44a27.18,27.18,0,0,0-2.81-2C229.11,6.93,228,6.24,226.77,5.59Zm4.94,6.33h.72a2,2,0,0,1-.05.39,21,21,0,0,1-.49,2.89,2.23,2.23,0,0,1-.66,1.19,1.27,1.27,0,0,1-.5.26,2.7,2.7,0,0,1-.7.07c-.27,0-.67,0-1.21,0l-1.72-.09a1.88,1.88,0,0,0-.06-.29.69.69,0,0,0-.15-.31c.65,0,1.27.09,1.83.1l1.14,0a2.47,2.47,0,0,0,.53,0,.52.52,0,0,0,.29-.12,2.13,2.13,0,0,0,.56-1.13,22.24,22.24,0,0,0,.47-2.82Zm-3.17-2.29h.72q-.21.76-.45,1.56c-.16.53-.31,1-.46,1.36h-.72a13.53,13.53,0,0,0,.51-1.42C228.3,10.61,228.43,10.11,228.54,9.63Zm-.31,2.29h3.7v.63h-3.7Z"/><path class="cls-1" d="M242.09,6.8l.36-.49a14.11,14.11,0,0,1,1.42.61c.49.24.95.49,1.37.75a8.89,8.89,0,0,1,1,.73l-.36.56a10.43,10.43,0,0,0-1.06-.74c-.43-.27-.89-.52-1.37-.77S242.55,7,242.09,6.8Zm.69,11.88c.39-.56.81-1.23,1.26-2s.92-1.61,1.39-2.47.9-1.69,1.29-2.48l.48.43c-.37.75-.78,1.54-1.23,2.39s-.9,1.66-1.35,2.47-.89,1.53-1.29,2.16ZM243.36.93l.38-.48q.7.29,1.44.66c.5.25,1,.52,1.41.79a6.79,6.79,0,0,1,1.06.78l-.36.58a6.76,6.76,0,0,0-1.06-.81c-.44-.28-.91-.55-1.41-.82A14.87,14.87,0,0,0,243.36.93Zm6.53,14.56.57.26a22.08,22.08,0,0,1-1.14,2,8.31,8.31,0,0,1-1.52,1.85l-.58-.32a6.54,6.54,0,0,0,1.08-1.14,10.66,10.66,0,0,0,.9-1.36C249.47,16.3,249.69,15.88,249.89,15.49Zm-1.4-4.13a2.3,2.3,0,0,0-.1-.36,3.08,3.08,0,0,0-.16-.35,1.25,1.25,0,0,0,.43-.17,3.07,3.07,0,0,0,.41-.35,5.68,5.68,0,0,0,.58-.57c.25-.28.53-.62.84-1a7.35,7.35,0,0,0,.76-1.18l.75.3a17,17,0,0,1-1.39,1.81,14.82,14.82,0,0,1-1.44,1.43v0l-.34.13a.89.89,0,0,0-.24.14A.22.22,0,0,0,248.49,11.36Zm.12,3.37a2.06,2.06,0,0,0-.09-.36,1.84,1.84,0,0,0-.17-.37,1.53,1.53,0,0,0,.64-.25,7.47,7.47,0,0,0,.75-.57c.19-.16.52-.45,1-.88s1-.93,1.5-1.51A20.08,20.08,0,0,0,253.7,9l.75.34c-.84,1-1.68,1.88-2.55,2.73a20.21,20.21,0,0,1-2.59,2.2v0a2.65,2.65,0,0,0-.35.13,1.38,1.38,0,0,0-.24.14A.21.21,0,0,0,248.61,14.73Zm-.12-3.37V10.8l.56-.24,3.81-.19a2.32,2.32,0,0,0,0,.31.88.88,0,0,0,0,.29l-2.64.18c-.59,0-1,.07-1.23.1A2.15,2.15,0,0,0,248.49,11.36Zm.12,3.37v-.56l.56-.28,5.2-.46a2.88,2.88,0,0,0,0,.32V14l-2.89.28-1.67.18c-.38.05-.66.1-.82.13ZM249.12,1h12.55V7.08H249.12Zm.72.63V3.67H261V1.58Zm0,2.74V6.46H261V4.32Zm3,11.47.62-.11a14.7,14.7,0,0,1,.58,1.9,14.47,14.47,0,0,1,.31,1.77l-.67.13a16.23,16.23,0,0,0-.3-1.79A19,19,0,0,0,252.89,15.79Zm0-3.67.6-.24a10.65,10.65,0,0,1,1,1.51,10.79,10.79,0,0,1,.67,1.45l-.62.28a10.05,10.05,0,0,0-.68-1.47A12.5,12.5,0,0,0,252.93,12.12Zm3-.67a3.56,3.56,0,0,0-.1-.36,1.33,1.33,0,0,0-.14-.35,1.32,1.32,0,0,0,.41-.17,3.32,3.32,0,0,0,.43-.33c.11-.1.29-.29.54-.56a11.75,11.75,0,0,0,.8-1,8.68,8.68,0,0,0,.75-1.15l.77.3c-.45.62-.91,1.21-1.37,1.76A10.11,10.11,0,0,1,256.61,11v0a1.52,1.52,0,0,0-.35.13,1.38,1.38,0,0,0-.24.14A.21.21,0,0,0,255.91,11.45Zm.12,3.37c0-.09,0-.21-.1-.37a1.51,1.51,0,0,0-.14-.37,1.28,1.28,0,0,0,.62-.25,6.57,6.57,0,0,0,.77-.57c.21-.16.55-.45,1-.87s1-.93,1.52-1.51a22.72,22.72,0,0,0,1.53-1.79l.72.35c-.83,1-1.69,1.87-2.57,2.73a19.61,19.61,0,0,1-2.64,2.19v0l-.36.12-.25.15A.21.21,0,0,0,256,14.82Zm-.12-3.37v-.56l.58-.24,3.81-.2a2.69,2.69,0,0,0,0,.32.88.88,0,0,0,0,.29l-2.64.17c-.59,0-1,.08-1.24.11A1.7,1.7,0,0,0,255.91,11.45Zm.12,3.37v-.59l.6-.26,5.66-.51a3.25,3.25,0,0,0,0,.33,2.07,2.07,0,0,0,0,.29l-3.15.32-1.81.18a7.71,7.71,0,0,0-.89.12A1.45,1.45,0,0,0,256,14.82Zm.5,1,.58-.17a18.77,18.77,0,0,1,1.06,1.85,15.85,15.85,0,0,1,.74,1.73l-.65.22a10.12,10.12,0,0,0-.69-1.76A18.91,18.91,0,0,0,256.53,15.79Zm3.77-.26.55-.24A17.61,17.61,0,0,1,262,16.66c.38.5.72,1,1,1.45a10.5,10.5,0,0,1,.73,1.27l-.6.25a12.84,12.84,0,0,0-.72-1.27c-.31-.48-.65-1-1-1.46S260.67,16,260.3,15.53Zm.48-3.41.58-.26a13.5,13.5,0,0,1,1.17,1.56,10.67,10.67,0,0,1,.82,1.48l-.62.31a10.56,10.56,0,0,0-.81-1.52A13.78,13.78,0,0,0,260.78,12.12Z"/><path class="cls-1" d="M274.13,1h.7V8.62c0,.8,0,1.68-.08,2.61s-.14,1.89-.27,2.87a21.83,21.83,0,0,1-.61,2.89,14,14,0,0,1-1.08,2.64l-.16-.18a1.92,1.92,0,0,0-.22-.18,1,1,0,0,0-.2-.13,12,12,0,0,0,1.28-3.42A24.33,24.33,0,0,0,274,12q.12-1.84.12-3.42Zm.34,0h4.58v.63h-4.58Zm.43,11.39c.54-.23,1.18-.53,1.92-.89l2.28-1.1.17.56-2,1-1.9,1Zm.55-7,.58-.3c.46.44.92.93,1.39,1.45a12.77,12.77,0,0,1,1.05,1.35l-.6.37a14.77,14.77,0,0,0-1.06-1.4A18,18,0,0,0,275.45,5.38ZM278.74,1h.69V18.42a1.08,1.08,0,0,1-.15.63.84.84,0,0,1-.49.3,5.52,5.52,0,0,1-1.08.11c-.47,0-1.12,0-1.95,0a1.47,1.47,0,0,0-.11-.31,2.21,2.21,0,0,0-.18-.34l1.78,0h1c.32,0,.48-.16.48-.44Zm7.92,10.57h.74a14.63,14.63,0,0,1-.59,3,6.73,6.73,0,0,1-1.23,2.29,6.8,6.8,0,0,1-2.16,1.65,14.77,14.77,0,0,1-3.36,1.14l-.12-.17-.16-.18-.15-.15a13.92,13.92,0,0,0,3.28-1.05A6,6,0,0,0,285,16.54a6.26,6.26,0,0,0,1.15-2.15A13.77,13.77,0,0,0,286.66,11.58Zm-6.19,2.33h13.36v.63H280.47Zm0-11.69h6.39v.63h-6.39Zm1.2,3.37h10.42v6.22H281.71Zm.72.63V8.36h9V6.22Zm0,2.77v2.18h9V9ZM284.07.28h.72V4.75h-.72Zm3.4,15.21.44-.44c.72.42,1.46.88,2.24,1.37s1.51,1,2.21,1.43,1.26.88,1.71,1.22l-.4.54q-.71-.54-1.74-1.26c-.7-.48-1.44-1-2.21-1.48S288.19,15.9,287.47,15.49Zm.31-13.27h6.39v.63h-6.39Zm2.19-2h.72v4.5H290Z"/><path class="cls-1" d="M306,14.64l.6.2a13,13,0,0,1-1.27,2.37,6.31,6.31,0,0,1-2.06,1.95l-.58-.35A6.15,6.15,0,0,0,304.8,17,9.75,9.75,0,0,0,306,14.64Zm-2.85-2.09c.43-.45.91-1,1.44-1.6s1.07-1.27,1.62-1.95,1.06-1.35,1.52-2l.46.45c-.43.61-.91,1.24-1.42,1.91s-1,1.32-1.56,2-1,1.22-1.51,1.75Zm.09-11.28.46-.45a16,16,0,0,1,1.58.68q.82.41,1.53.81a8.28,8.28,0,0,1,1.16.78l-.45.52a9,9,0,0,0-1.17-.82c-.47-.29-1-.57-1.52-.84S303.78,1.46,303.26,1.27ZM310,9.66l.6.17a10.84,10.84,0,0,1-.7,2,4.32,4.32,0,0,1-1.22,1.63l-.55-.34a4.05,4.05,0,0,0,1.18-1.55A11.05,11.05,0,0,0,310,9.66Zm-1.1,5.07h.69V18.1a.48.48,0,0,0,.33.49,5.23,5.23,0,0,0,1.45.12h5.73a2.24,2.24,0,0,0,.94-.16.9.9,0,0,0,.43-.68,8.41,8.41,0,0,0,.14-1.63,1.52,1.52,0,0,0,.34.15,3.55,3.55,0,0,0,.36.11,7.71,7.71,0,0,1-.23,1.78,1.31,1.31,0,0,1-.61.85,2.91,2.91,0,0,1-1.29.22h-5.74a12.21,12.21,0,0,1-1.56-.08,1.19,1.19,0,0,1-.77-.36,1.31,1.31,0,0,1-.21-.81Zm1.7-13.46H322.9V1.9H311.33V8.62h-.72Zm0,7H322.8V8.9H310.61Zm.24,5.79.45-.43a16.74,16.74,0,0,1,1.65.71,17.4,17.4,0,0,1,1.55.86,7,7,0,0,1,1.15.89l-.46.45a10.64,10.64,0,0,0-1.89-1.32A16,16,0,0,0,310.85,14ZM311,3.58h11v.63H311Zm0,2.32h11v.64H311Zm1.32,4.23.6-.13a12.88,12.88,0,0,1,.56,1.45,11.7,11.7,0,0,1,.33,1.34l-.67.15a9.07,9.07,0,0,0-.29-1.36A8.86,8.86,0,0,0,312.31,10.13Zm2.95-.06.6-.16a9.36,9.36,0,0,1,.87,1.21,6.14,6.14,0,0,1,.57,1.17l-.62.22a6.76,6.76,0,0,0-.56-1.19A9.15,9.15,0,0,0,315.26,10.07ZM316,1.51h.7v7H316Zm2.12,8.34.55-.28a10,10,0,0,1,1.05.95,5.43,5.43,0,0,1,.79,1l-.55.32a5.72,5.72,0,0,0-.76-1A9.44,9.44,0,0,0,318.15,9.85Zm4.41-1.6h.74c0,.2,0,.34,0,.41-.12,1.07-.23,1.92-.34,2.57a8.33,8.33,0,0,1-.36,1.49,1.71,1.71,0,0,1-.46.74,1.66,1.66,0,0,1-.45.25,2.6,2.6,0,0,1-.65.09l-.94,0-1.32-.06c0-.09,0-.19-.05-.31a.83.83,0,0,0-.14-.3l1.42.07.89,0a1.09,1.09,0,0,0,.69-.15,2.4,2.4,0,0,0,.55-1.31,33.74,33.74,0,0,0,.46-3.36ZM319.3,15l.55-.35a21.17,21.17,0,0,1,1.73,1.27c.57.46,1.1.94,1.58,1.41a9.31,9.31,0,0,1,1.13,1.32l-.6.39a8.29,8.29,0,0,0-1.09-1.32c-.48-.48-1-1-1.56-1.44A15.5,15.5,0,0,0,319.3,15Z"/><path class="cls-1" d="M337.08,11.77l.58.24a18,18,0,0,1-1.32,2.28,23,23,0,0,1-1.67,2.14A12.54,12.54,0,0,1,333,18a2,2,0,0,0-.25-.25c-.1-.1-.2-.17-.27-.23A11.47,11.47,0,0,0,334.14,16a18.78,18.78,0,0,0,1.66-2A13.73,13.73,0,0,0,337.08,11.77Zm-4.34-.26h9.43v.63h-9.43ZM333,2h9.64v.63H333Zm8.16,3.43.72.48c-.72.17-1.56.33-2.52.49s-2,.27-3,.37-2,.19-3,.26a1.6,1.6,0,0,0-.11-.25c-.06-.09-.11-.18-.16-.27.95-.07,1.93-.16,3-.27s2-.23,2.89-.37S340.56,5.61,341.14,5.46Zm-7.75,3.18h8.16v.63h-8.16Zm3.84-4.34H338V19.63h-.72Zm.64,8.81.83.58,1.2.9,1.18.91c.36.28.61.48.75.61l-.45.54c-.18-.17-.44-.4-.79-.7L339.45,15l-1.16-.92c-.36-.28-.64-.49-.85-.63ZM338.55.19h.72V4h-.72Zm3.24,9.88h12.6v.64h-12.6Zm.57-3.55h11.45v.63H342.36Zm1.3,5.68h9.14v7.35h-.69v-6.7h-7.76v6.78h-.69Zm.41,2.94h8.35v.63h-8.35Zm0,3.07h8.28v.62h-8.28ZM344.31,2h9.55v.63h-9.55Zm1,2.22H346v6.2h-.69Zm2.9-4.06h.7V4h-.7Zm2.06,4.06H351v6.2h-.72Z"/><path class="cls-1" d="M369.92,15.83l.79.35a18.91,18.91,0,0,1-2.4,1.26c-.91.41-1.85.8-2.83,1.17s-1.9.69-2.78,1a3.4,3.4,0,0,0-.23-.27,2,2,0,0,0-.28-.25c.9-.26,1.84-.56,2.81-.92s1.9-.73,2.77-1.13A14.66,14.66,0,0,0,369.92,15.83Zm-7.56-1.42h21.19v.64H362.36ZM363,3.09h20v.62H363Zm4.12-2.9h.7V14.47h-.7Zm.46,6.53h10.9v.62h-10.9Zm0,3.86h10.9v.63h-10.9Zm7.68,5.75.41-.45c1,.31,2,.65,2.93,1s1.86.73,2.72,1.09,1.6.71,2.24,1l-.5.5c-.61-.34-1.33-.68-2.16-1.05s-1.73-.73-2.69-1.09S376.26,16.67,375.25,16.33ZM378.13.19h.7V14.47h-.7Z"/><path class="cls-1" d="M392.41,15.16h21v.63h-21Zm2.68-10.08h15.82v7.66H395.09Zm.7.64V8.58h14.42V5.72Zm0,3.48v2.92h14.42V9.2Zm6.46-9h.69V5.51h-.69Zm.19,12.29h.72v7.15h-.72Zm.19-10.3h10v.63h-10Z"/><path class="cls-1" d="M423.32,9.83l.64,0c0,1,0,2.06-.13,3.21a20.07,20.07,0,0,1-.57,3.41,10,10,0,0,1-1.41,3.1,1.26,1.26,0,0,0-.17-.13l-.19-.13a.82.82,0,0,0-.19-.09,9.52,9.52,0,0,0,1.34-3,19.06,19.06,0,0,0,.57-3.32C423.3,11.79,423.33,10.76,423.32,9.83ZM421.54,7.5h10.27v.62H421.54Zm1-4.28h8.71v.62h-8.71Zm1.27,9.55a9.11,9.11,0,0,0,1.31,2.8,5.65,5.65,0,0,0,2,1.73,9.38,9.38,0,0,0,2.88.89,26.7,26.7,0,0,0,4,.26h9.39a.71.71,0,0,0-.15.18c0,.08-.09.16-.13.24a.75.75,0,0,0-.08.2h-9a29.2,29.2,0,0,1-4.27-.27,9.28,9.28,0,0,1-3.05-.94A6,6,0,0,1,424.61,16a10.46,10.46,0,0,1-1.39-3ZM426.58.17h.7V7.8h-.7ZM426.82,8h.7v9.72h-.7Zm.36,3.72h4.37v.62h-4.37Zm4.7,3.26a.46.46,0,0,0-.09-.19l-.16-.23-.15-.21a3.05,3.05,0,0,0,.62-.42,1.1,1.1,0,0,0,.38-.92V4.49h.7V14l-.65.37a2.72,2.72,0,0,0-.45.31C432,14.81,431.88,14.9,431.88,15Zm0,0v-.67l.44-.47,4.6-2.16A3,3,0,0,1,437,12a1.1,1.1,0,0,0,.11.22l-2.65,1.32c-.67.33-1.17.59-1.51.78l-.75.42A1.52,1.52,0,0,0,431.88,15Zm.6-10.74h10.83v.63H432.48Zm9.41,2.51.6.15a20.06,20.06,0,0,1-1.91,4.33,18.26,18.26,0,0,1-2.73,3.59,14.22,14.22,0,0,1-3.37,2.54l-.24-.29a2.38,2.38,0,0,0-.27-.23,12,12,0,0,0,3.35-2.39A17,17,0,0,0,440,11,19.93,19.93,0,0,0,441.89,6.76ZM437.33.19h.72c0,2,.09,3.84.21,5.51s.29,3.16.51,4.47a23.68,23.68,0,0,0,.79,3.32,7.16,7.16,0,0,0,1,2.06,1.51,1.51,0,0,0,1.18.71c.27,0,.47-.29.59-.88a19.68,19.68,0,0,0,.25-2.83,2,2,0,0,0,.33.17,2.54,2.54,0,0,0,.34.13,19.12,19.12,0,0,1-.23,2.4,2.79,2.79,0,0,1-.47,1.27,1,1,0,0,1-.86.39,2,2,0,0,1-1.54-.79A7.16,7.16,0,0,1,439,13.86a21.09,21.09,0,0,1-.87-3.56q-.35-2.07-.54-4.62T437.33.19Zm2,.57.55-.31c.47.42.95.88,1.47,1.39s.91.92,1.2,1.25L442,3.5c-.3-.36-.71-.8-1.23-1.33S439.76,1.17,439.3.76Z"/><path class="cls-1" d="M452.63,3.63h.72V19.16h-.72ZM453,9.87h7.11v.63H453Zm.12-6.24h7.23V17.32h-7.23v-.65h6.51V4.25h-6.51ZM456.56.11l.75.21q-.31.92-.72,1.92c-.28.67-.53,1.23-.77,1.69l-.6-.19c.16-.33.32-.71.49-1.14s.33-.86.48-1.3S456.47.45,456.56.11ZM464.89,0l.7.13a31,31,0,0,1-1,3.14,21.88,21.88,0,0,1-1.26,2.85,13.8,13.8,0,0,1-1.53,2.37.71.71,0,0,0-.17-.11l-.24-.13-.22-.11a13.26,13.26,0,0,0,1.54-2.31A21,21,0,0,0,464,3,30.54,30.54,0,0,0,464.89,0Zm-1,8.64.55-.3c.51.52,1,1.08,1.56,1.69s1,1.21,1.45,1.77a17.86,17.86,0,0,1,1.07,1.51l-.62.38a16.46,16.46,0,0,0-1.05-1.54q-.66-.87-1.44-1.8C464.86,9.73,464.35,9.16,463.86,8.64Zm.12-5h7.73V4.3H464Zm7.44,0h.72v.5q-.17,3.78-.33,6.37c-.1,1.73-.22,3.13-.36,4.22a16.67,16.67,0,0,1-.45,2.51,3,3,0,0,1-.61,1.24,1.71,1.71,0,0,1-.65.44,3,3,0,0,1-.89.14c-.35,0-.84,0-1.46,0s-1.27,0-1.92-.1a2.09,2.09,0,0,0-.08-.34.52.52,0,0,0-.16-.28c.8.06,1.52.09,2.17.11l1.36,0a2.49,2.49,0,0,0,.59-.06.65.65,0,0,0,.41-.27,2.64,2.64,0,0,0,.55-1.17,18.51,18.51,0,0,0,.44-2.52c.12-1.09.24-2.51.36-4.24s.21-3.86.31-6.37Z"/><path class="cls-1" d="M482.05,1.1h6.19v.63h-5.47V19.61h-.72Zm5.95,0h.14l.15,0,.48.3-.9,1.87c-.33.65-.66,1.31-1,2s-.67,1.3-1,1.92a8.73,8.73,0,0,1,2.19,2.75,6.06,6.06,0,0,1,.55,2.37,5,5,0,0,1-.19,1.35,1.51,1.51,0,0,1-.68.91,2.13,2.13,0,0,1-.55.24,4.4,4.4,0,0,1-.65.13c-.28,0-.59,0-.92,0s-.64,0-.92,0a1.73,1.73,0,0,0-.1-.33,1,1,0,0,0-.19-.32l1.05,0c.34,0,.64,0,.89,0a2.12,2.12,0,0,0,.94-.21,1.21,1.21,0,0,0,.47-.74,4.64,4.64,0,0,0,.13-1,5.46,5.46,0,0,0-.57-2.28,8.74,8.74,0,0,0-2.26-2.74c.28-.51.57-1,.85-1.57s.55-1.06.8-1.58.49-1,.71-1.49.41-.91.59-1.32Zm5,3.31h.72c-.05,1.55-.16,3.08-.32,4.59a21.77,21.77,0,0,1-.87,4.25,11.85,11.85,0,0,1-1.89,3.63,9.63,9.63,0,0,1-3.36,2.71,1.58,1.58,0,0,0-.26-.2l-.31-.21A9.48,9.48,0,0,0,490,16.56,11.09,11.09,0,0,0,491.85,13a21,21,0,0,0,.83-4.16C492.82,7.38,492.92,5.9,493,4.41ZM488.38,4h14.09v.65H488.38Zm4.68,4.67h7.44v.63h-7.44ZM494.45.47l.65-.08c.24.52.48,1.08.71,1.68s.4,1.11.52,1.51l-.65.18a15.24,15.24,0,0,0-.53-1.56C494.91,1.58,494.68,1,494.45.47Zm5.81,8.17h.7v.43q-.12,2.65-.24,4.47c-.08,1.21-.17,2.2-.28,3a11.11,11.11,0,0,1-.35,1.78,1.8,1.8,0,0,1-.48.9,1.29,1.29,0,0,1-.56.36,4.1,4.1,0,0,1-.83.12c-.35,0-.85,0-1.5,0s-1.3-.05-2-.09a2.26,2.26,0,0,0-.08-.3.84.84,0,0,0-.16-.33c.78.06,1.51.09,2.18.11l1.37,0a1.18,1.18,0,0,0,.93-.24,2.68,2.68,0,0,0,.53-1.32,27,27,0,0,0,.4-3.13c.12-1.39.23-3.25.32-5.57Z"/><path class="cls-1" d="M517.85,6H518l.14,0,.45.19a18.35,18.35,0,0,1-1.8,4.87,17.37,17.37,0,0,1-2.68,3.73,15.73,15.73,0,0,1-3.24,2.61,1.22,1.22,0,0,0-.16-.18l-.21-.19a1.05,1.05,0,0,0-.21-.15,14.19,14.19,0,0,0,3.23-2.49,16,16,0,0,0,2.61-3.57,17.93,17.93,0,0,0,1.7-4.58ZM511,6h7v.65h-7Zm9.6-5.7h.75V18.51a1.15,1.15,0,0,1-.18.72.94.94,0,0,1-.57.32,6.16,6.16,0,0,1-1.11.11l-2.06,0a.8.8,0,0,0-.08-.21,1.89,1.89,0,0,1-.11-.25.72.72,0,0,0-.12-.21L519,19c.55,0,.91,0,1.07,0a.82.82,0,0,0,.38-.11.44.44,0,0,0,.12-.37Zm.68,5a24.55,24.55,0,0,0,2,3.42A28.39,28.39,0,0,0,525.93,12a25.85,25.85,0,0,0,3,2.73,16.64,16.64,0,0,0,3.2,1.92l-.16.16-.2.2a1.29,1.29,0,0,0-.16.18,17.94,17.94,0,0,1-3.21-2,24.86,24.86,0,0,1-3-2.81A29.93,29.93,0,0,1,522.77,9a28.57,28.57,0,0,1-2.07-3.52Zm7.7-.75.62.38c-.49.58-1.05,1.19-1.68,1.84S526.65,8,526,8.64s-1.24,1.13-1.8,1.58l-.46-.33c.54-.46,1.14-1,1.78-1.63S526.79,7,527.4,6.34,528.53,5.08,529,4.54Z"/><path class="cls-1" d="M539.87,4.23l.68.11q-.07.82-.24,1.83c-.12.67-.26,1.33-.44,2a9.5,9.5,0,0,1-.62,1.74l-.7-.19A9.61,9.61,0,0,0,539.18,8c.17-.64.32-1.29.44-2A18,18,0,0,0,539.87,4.23Zm2.4-4.06H543V19.59h-.72Zm1.64,3.63.57-.24a18.64,18.64,0,0,1,1.13,2,12.4,12.4,0,0,1,.74,1.76l-.62.35a11,11,0,0,0-.43-1.16c-.19-.44-.41-.9-.65-1.37S544.16,4.2,543.91,3.8Zm1.58,14.37H560v.62H545.49Zm3.67-17,.72.13a30.55,30.55,0,0,1-.91,3,28.07,28.07,0,0,1-1.15,2.75,16,16,0,0,1-1.35,2.3l-.19-.1a1.15,1.15,0,0,0-.25-.12l-.23-.1a14.06,14.06,0,0,0,1.41-2.26,20.61,20.61,0,0,0,1.12-2.7A26.62,26.62,0,0,0,549.16,1.19Zm-1.87,9.87h11.76v.63H547.29ZM548.35,5H559.6v.65H548.06ZM552.83.22h.75V18.49h-.75Z"/><path class="cls-1" d="M582,12.59c-.55-.6-1.13-1.2-1.76-1.79s-1.25-1.15-1.88-1.67-1.24-1-1.81-1.4l.6-.52c.59.42,1.2.89,1.82,1.42s1.25,1.08,1.89,1.66,1.24,1.18,1.83,1.78Z"/><path class="cls-1" d="M597.43,10.65h.17l.17,0,.43.15a15.8,15.8,0,0,1-2,5.45,10.66,10.66,0,0,1-3.18,3.4.73.73,0,0,0-.15-.17l-.21-.18a.58.58,0,0,0-.19-.14,10.29,10.29,0,0,0,3.08-3.23,14.11,14.11,0,0,0,1.84-5.09Zm-4.39.91a1.33,1.33,0,0,0-.11-.26,3.18,3.18,0,0,1-.16-.32.76.76,0,0,0-.14-.24,3.89,3.89,0,0,0,.52-.2,1.93,1.93,0,0,0,.54-.41,9.65,9.65,0,0,0,.82-.9c.36-.42.75-.89,1.16-1.41l1.15-1.49.83-1.12v0L598,5l.63.28c-.29.36-.64.79-1,1.3s-.82,1-1.27,1.56S595.41,9.21,595,9.7s-.81.91-1.15,1.25a2.92,2.92,0,0,0-.4.21,3.15,3.15,0,0,0-.27.19A.27.27,0,0,0,593,11.56Zm-.27-6.44h5.33v.65h-5.33Zm.27,6.44v-.63l.69-.28h4.06v.62h-3.38a3.81,3.81,0,0,0-.87.09A1.15,1.15,0,0,0,593,11.56ZM594,.45l.58-.26c.51.55,1,1.15,1.56,1.79a13.15,13.15,0,0,1,1.2,1.65l-.6.3c-.19-.3-.44-.65-.74-1.06s-.64-.81-1-1.24S594.29.81,594,.45Zm2.5,15.08a5.25,5.25,0,0,0,2.27,2.06,10.6,10.6,0,0,0,3.45.9,45.5,45.5,0,0,0,4.65.22l2.63,0c.91,0,1.82,0,2.71-.06s1.7-.07,2.43-.13l-.12.2a2.41,2.41,0,0,0-.08.25c0,.09,0,.16-.06.22l-2.28.09-2.62.05h-2.59c-1.42,0-2.7,0-3.84-.13a15.69,15.69,0,0,1-3-.5,7.59,7.59,0,0,1-2.32-1A6,6,0,0,1,596,15.83Zm9.31-11.08.6.26a12.07,12.07,0,0,1-2,2,19.23,19.23,0,0,1-2.56,1.74,20,20,0,0,1-2.59,1.28,2.78,2.78,0,0,0-.24-.28,1.53,1.53,0,0,0-.29-.24A16.11,16.11,0,0,0,601.32,8a18.65,18.65,0,0,0,2.52-1.67A12.47,12.47,0,0,0,605.78,4.45Zm-6.62-.15H614v.62H599.16Zm5.25,5.51h.75a13.65,13.65,0,0,1-.79,3,7.23,7.23,0,0,1-1.61,2.41,8,8,0,0,1-2.83,1.7,2.26,2.26,0,0,0-.23-.26,2.21,2.21,0,0,0-.28-.23,7.64,7.64,0,0,0,2.75-1.59,6.58,6.58,0,0,0,1.54-2.27A11.55,11.55,0,0,0,604.41,9.81Zm7.8-9.18.6.51c-.78.16-1.69.31-2.71.45s-2.12.26-3.27.36-2.34.21-3.52.29-2.33.14-3.43.18a2.33,2.33,0,0,0-.09-.29,1.13,1.13,0,0,0-.13-.27l3.41-.21q1.77-.12,3.48-.27c1.13-.1,2.19-.21,3.17-.34S611.53.77,612.21.63Zm-10.8,9h8.07v.63h-8.07Zm4.73-7.88h.7V9h-.7Zm1.25,3.84.46-.38c.79.41,1.59.85,2.37,1.31s1.53.92,2.22,1.39,1.3.9,1.81,1.31l-.57.44a26.13,26.13,0,0,0-2.81-2C609.73,6.93,608.57,6.24,607.39,5.59Zm4.94,6.33h.72c0,.19,0,.32,0,.39a20.66,20.66,0,0,1-.5,2.89,2.16,2.16,0,0,1-.66,1.19,1.2,1.2,0,0,1-.5.26,2.7,2.7,0,0,1-.7.07c-.27,0-.67,0-1.21,0l-1.71-.09c0-.09,0-.18-.06-.29a.84.84,0,0,0-.16-.31c.65,0,1.27.09,1.84.1l1.14,0a2.43,2.43,0,0,0,.52,0,.52.52,0,0,0,.29-.12,2.13,2.13,0,0,0,.57-1.13,24.79,24.79,0,0,0,.46-2.82Zm-3.16-2.29h.72c-.15.51-.3,1-.46,1.56s-.31,1-.46,1.36h-.72a13.53,13.53,0,0,0,.51-1.42C608.92,10.61,609.05,10.11,609.17,9.63Zm-.32,2.29h3.7v.63h-3.7Z"/><path class="cls-1" d="M622.71,6.8l.36-.49a15.31,15.31,0,0,1,1.43.61c.48.24.94.49,1.36.75a8.12,8.12,0,0,1,1,.73l-.36.56a9.41,9.41,0,0,0-1.06-.74c-.43-.27-.89-.52-1.37-.77S623.17,7,622.71,6.8Zm.69,11.88c.39-.56.81-1.23,1.26-2s.92-1.61,1.4-2.47.9-1.69,1.28-2.48l.48.43c-.37.75-.78,1.54-1.22,2.39s-.9,1.66-1.36,2.47-.88,1.53-1.28,2.16ZM624,.93l.38-.48q.71.29,1.44.66c.5.25,1,.52,1.41.79a7.45,7.45,0,0,1,1.07.78l-.36.58a7.42,7.42,0,0,0-1.07-.81c-.44-.28-.91-.55-1.41-.82A14.87,14.87,0,0,0,624,.93Zm6.53,14.56.57.26a22.08,22.08,0,0,1-1.14,2,8.31,8.31,0,0,1-1.52,1.85l-.58-.32a6.54,6.54,0,0,0,1.08-1.14,10.66,10.66,0,0,0,.9-1.36C630.09,16.3,630.32,15.88,630.51,15.49Zm-1.39-4.13c0-.09-.06-.2-.11-.36a3.08,3.08,0,0,0-.16-.35,1.17,1.17,0,0,0,.43-.17,3.07,3.07,0,0,0,.41-.35,5.68,5.68,0,0,0,.58-.57c.25-.28.53-.62.84-1a8.2,8.2,0,0,0,.77-1.18l.74.3a17,17,0,0,1-1.39,1.81,14.82,14.82,0,0,1-1.44,1.43v0l-.34.13a1.38,1.38,0,0,0-.24.14A.21.21,0,0,0,629.12,11.36Zm.12,3.37c0-.09,0-.2-.1-.36A1.42,1.42,0,0,0,629,14a1.48,1.48,0,0,0,.64-.25,7.47,7.47,0,0,0,.75-.57c.2-.16.52-.45,1-.88s.95-.93,1.5-1.51A19.93,19.93,0,0,0,634.32,9l.75.34q-1.25,1.46-2.55,2.73a19.55,19.55,0,0,1-2.59,2.2v0a2.65,2.65,0,0,0-.35.13l-.24.14A.19.19,0,0,0,629.24,14.73Zm-.12-3.37V10.8l.55-.24,3.81-.19c0,.08,0,.19,0,.31a.88.88,0,0,0,0,.29l-2.64.18c-.59,0-1,.07-1.22.1A1.9,1.9,0,0,0,629.12,11.36Zm.12,3.37v-.56l.55-.28,5.21-.46a1.51,1.51,0,0,0,0,.32V14l-2.89.28-1.67.18c-.38.05-.65.1-.81.13ZM629.74,1h12.55V7.08H629.74Zm.72.63V3.67h11.11V1.58Zm0,2.74V6.46h11.11V4.32Zm3,11.47.62-.11a13.28,13.28,0,0,1,.58,1.9,14.47,14.47,0,0,1,.31,1.77l-.67.13a16.23,16.23,0,0,0-.3-1.79A14.81,14.81,0,0,0,633.51,15.79Zm0-3.67.6-.24a10.62,10.62,0,0,1,1,1.51,10.79,10.79,0,0,1,.67,1.45l-.62.28a11,11,0,0,0-.67-1.47A15.51,15.51,0,0,0,633.56,12.12Zm3-.67a3.1,3.1,0,0,0-.09-.36,1.73,1.73,0,0,0-.15-.35,1.23,1.23,0,0,0,.41-.17,3.32,3.32,0,0,0,.43-.33c.11-.1.29-.29.54-.56s.52-.6.81-1a9.71,9.71,0,0,0,.74-1.15l.77.3c-.45.62-.91,1.21-1.37,1.76A9.59,9.59,0,0,1,637.23,11v0a1.52,1.52,0,0,0-.35.13,1.38,1.38,0,0,0-.24.14A.21.21,0,0,0,636.53,11.45Zm.12,3.37a3.75,3.75,0,0,0-.09-.37,2,2,0,0,0-.15-.37,1.31,1.31,0,0,0,.63-.25,6.53,6.53,0,0,0,.76-.57c.21-.16.55-.45,1-.87s1-.93,1.53-1.51a22.55,22.55,0,0,0,1.52-1.79l.72.35c-.83,1-1.69,1.87-2.57,2.73a19.61,19.61,0,0,1-2.64,2.19v0l-.36.12-.25.15A.21.21,0,0,0,636.65,14.82Zm-.12-3.37v-.56l.58-.24,3.81-.2c0,.09,0,.2,0,.32a.88.88,0,0,0,0,.29l-2.64.17c-.59,0-1,.08-1.24.11A1.7,1.7,0,0,0,636.53,11.45Zm.12,3.37v-.59l.6-.26,5.67-.51a1.69,1.69,0,0,0,0,.33,1.12,1.12,0,0,0,0,.29l-3.16.32-1.81.18a8.06,8.06,0,0,0-.89.12A1.45,1.45,0,0,0,636.65,14.82Zm.51,1,.57-.17a18.77,18.77,0,0,1,1.06,1.85,15.85,15.85,0,0,1,.74,1.73l-.65.22a9.37,9.37,0,0,0-.69-1.76A21.24,21.24,0,0,0,637.16,15.79Zm3.76-.26.56-.24c.38.42.76.88,1.14,1.37s.72,1,1,1.45a10.5,10.5,0,0,1,.73,1.27l-.6.25a12.84,12.84,0,0,0-.72-1.27c-.3-.48-.64-1-1-1.46S641.29,16,640.92,15.53Zm.48-3.41.58-.26a13.56,13.56,0,0,1,1.18,1.56A10.46,10.46,0,0,1,644,14.9l-.62.31a10.56,10.56,0,0,0-.81-1.52A13.78,13.78,0,0,0,641.4,12.12Z"/><path class="cls-1" d="M653.25,4.23l.67.11q-.07.82-.24,1.83c-.11.67-.26,1.33-.43,2a10.29,10.29,0,0,1-.63,1.74l-.69-.19A9.63,9.63,0,0,0,652.55,8c.18-.64.32-1.29.44-2S653.2,4.79,653.25,4.23Zm2.4-4.06h.72V19.59h-.72Zm1.63,3.63.57-.24a18.64,18.64,0,0,1,1.13,2,14,14,0,0,1,.75,1.76l-.63.35a9.13,9.13,0,0,0-.43-1.16c-.19-.44-.41-.9-.65-1.37S657.53,4.2,657.28,3.8Zm1.58,14.37h14.52v.62H658.86Zm3.67-17,.72.13a30.55,30.55,0,0,1-.91,3,25.82,25.82,0,0,1-1.15,2.75,16,16,0,0,1-1.34,2.3l-.2-.1a1.15,1.15,0,0,0-.25-.12l-.23-.1a13.39,13.39,0,0,0,1.41-2.26,22.09,22.09,0,0,0,1.13-2.7A29,29,0,0,0,662.53,1.19Zm-1.87,9.87h11.76v.63H660.66ZM661.72,5H673v.65H661.43ZM666.21.22H667V18.49h-.74Z"/><path class="cls-1" d="M681.92,13.82h21.4v.63h-21.4Zm7.22,1.47.79.3a21.2,21.2,0,0,1-2.1,1.47c-.79.49-1.61,1-2.45,1.39s-1.65.81-2.43,1.14l-.22-.25a1.48,1.48,0,0,0-.26-.25q1.17-.46,2.43-1.11c.84-.42,1.64-.87,2.39-1.34A13.72,13.72,0,0,0,689.14,15.29Zm-.74-15,.52.54c-.64.31-1.37.6-2.19.9s-1.61.57-2.37.81a.65.65,0,0,0-.12-.26,2.79,2.79,0,0,1-.16-.28c.73-.24,1.5-.52,2.31-.83A18.78,18.78,0,0,0,688.4.32ZM684.08,2l.74.22.48,11.9h-.7Zm.5,3.5h4.13v.63h-4.13Zm.14,4.1h4v.63h-4Zm6.77-1.16.7.11a15.31,15.31,0,0,1-.73,2.36,9.66,9.66,0,0,1-1.07,2l-.3-.18-.35-.17a7,7,0,0,0,1.09-1.89A13.74,13.74,0,0,0,691.49,8.47ZM690.29.3h.7V6.48h3.67v.63h-4.37Zm.31,2.51h4.56v.65H690.6Zm3.75,3.69H695v6A1.07,1.07,0,0,1,695,13a.69.69,0,0,1-.41.28,3.67,3.67,0,0,1-.89.11c-.38,0-.87,0-1.46,0a1.39,1.39,0,0,0-.1-.31,1.44,1.44,0,0,0-.19-.31l1.38,0,.76,0a.33.33,0,0,0,.25-.07.29.29,0,0,0,.06-.21Zm1,9.2.39-.41c.88.38,1.75.78,2.62,1.22s1.7.88,2.46,1.31,1.44.85,2,1.25l-.48.46c-.56-.39-1.22-.8-2-1.24s-1.57-.87-2.42-1.31S696.21,16.11,695.33,15.7Zm1-14.3h4.47V2h-4.47Zm.1,8.38h4.13v.63h-4.13Zm.07-4.14h4.25v.62h-4.25Zm4-4.24h.69q0,1.47-.06,3.21c0,1.16,0,2.32-.09,3.49s-.09,2.27-.14,3.32-.09,1.94-.14,2.71h-.7c0-.77.1-1.67.16-2.73s.1-2.16.14-3.34.08-2.35.1-3.49S700.52,2.37,700.52,1.4Z"/><path class="cls-1" d="M710.94,16.57c.85-.23,1.85-.53,3-.89l3.54-1.12.1.62-3.38,1.08-3,1Zm.27-14.69h6.38v.65h-6.38Zm.28,6.28h5.74v.65h-5.74Zm2.64-6h.7V15.77l-.7.26ZM725,12.55l.58.28a11.81,11.81,0,0,1-2.14,1.62,25,25,0,0,1-2.71,1.44,23,23,0,0,1-2.71,1,2,2,0,0,0-.21-.28,1.39,1.39,0,0,0-.25-.24,20.26,20.26,0,0,0,2.74-.94,18.94,18.94,0,0,0,2.66-1.35A10.65,10.65,0,0,0,725,12.55Zm-6.69-5.81h14.3v.63h-14.3ZM719.44,1h12.31V5.27H719.44Zm.72.63v3h3.05v-3Zm0,7.34h10.73v4.17H720.16ZM721,19.53a1.39,1.39,0,0,0-.17-.35,1.77,1.77,0,0,0-.24-.32,1.53,1.53,0,0,0,.43-.35,1.25,1.25,0,0,0,.24-.86v-2.4l.7-.17v3.56l-.48.31a2.51,2.51,0,0,0-.34.3A.44.44,0,0,0,721,19.53Zm-.1-9.92v2.87h9.34V9.61Zm.1,9.92V19l.5-.36,5.12-1.23c0,.07,0,.16,0,.27l0,.27-2.86.75-1.64.44c-.37.11-.64.2-.8.26A3.21,3.21,0,0,0,721,19.53ZM723.9,1.62v3h3.19v-3ZM726,12.68a9.76,9.76,0,0,0,1.57,2.71A10.37,10.37,0,0,0,730,17.57a10.62,10.62,0,0,0,3.12,1.35,1.94,1.94,0,0,0-.27.25,1.18,1.18,0,0,0-.23.31,10.87,10.87,0,0,1-7.22-6.63Zm5.59,1,.57.44c-.6.4-1.3.81-2.08,1.23s-1.51.77-2.16,1.06l-.48-.33c.43-.21.9-.46,1.41-.74s1-.57,1.5-.87S731.22,13.92,731.56,13.69ZM727.79,1.62v3H731v-3Z"/><path class="cls-1" d="M746.79.26l.69.17A28.32,28.32,0,0,1,745.6,4a30.49,30.49,0,0,1-2.29,3.19,29.45,29.45,0,0,1-2.52,2.67,1.55,1.55,0,0,0-.15-.18,1.8,1.8,0,0,0-.19-.2.9.9,0,0,0-.19-.16,21.51,21.51,0,0,0,2.5-2.54A29.79,29.79,0,0,0,745,3.64,24.4,24.4,0,0,0,746.79.26ZM744.1,5.42l.67-.6.05,0V19.59h-.72Zm2.54,5.42h15.8v.63h-15.8Zm4.68,2.05.68.22c-.44.61-.91,1.23-1.43,1.88s-1.05,1.27-1.57,1.87-1,1.13-1.54,1.61l-.16-.13-.22-.16a1.24,1.24,0,0,0-.22-.12,31,31,0,0,0,2.35-2.45A31,31,0,0,0,751.32,12.89ZM748.61,1.27h12.22V7.58H748.61Zm.7.63v5h10.82v-5Zm5,5.47H755V19.66h-.72Zm2.62,5.83.58-.31c.59.54,1.19,1.12,1.81,1.74s1.19,1.24,1.71,1.84a18.2,18.2,0,0,1,1.28,1.59l-.63.39a16.5,16.5,0,0,0-1.27-1.63c-.53-.62-1.09-1.24-1.69-1.87S757.53,13.73,756.94,13.2Z"/><path class="cls-1" d="M772.28,1.66l.7.11c-.15,1-.32,1.91-.51,2.84a24.79,24.79,0,0,1-.67,2.61,13,13,0,0,1-.89,2.18,1.09,1.09,0,0,0-.19-.1l-.25-.11a1,1,0,0,0-.23-.07A12.08,12.08,0,0,0,771.15,7a22.75,22.75,0,0,0,.66-2.56C772,3.5,772.15,2.58,772.28,1.66Zm-1.66,11,2.27-.54,2.74-.65,2.92-.69.07.6-4.09,1-3.64.88Zm1.32-7.82h6.58v.65H771.8Zm3-4.64h.77V19.63H775Zm4.25,10.93H792v.64H779.22Zm.43-8.21h11.88v.64H779.65Zm1.15,4.27H791v.65H780.8Zm.29,6.07.62-.26q.6.57,1.23,1.23c.41.43.8.86,1.16,1.28s.65.79.88,1.12l-.65.33a12.42,12.42,0,0,0-.84-1.15c-.35-.43-.74-.87-1.15-1.32S781.5,13.66,781.09,13.28Zm7-4.68h.72v9.91a1.1,1.1,0,0,1-.15.64.9.9,0,0,1-.55.31,6.27,6.27,0,0,1-1.18.1h-2a2.33,2.33,0,0,0-.13-.31,1.58,1.58,0,0,0-.2-.36l2,0c.54,0,.91,0,1.1,0a.51.51,0,0,0,.35-.11.4.4,0,0,0,.09-.3ZM785.24.17h.7V7.52h-.7Z"/><path class="cls-1" d="M801.33,4.23l.67.11q-.07.82-.24,1.83c-.11.67-.26,1.33-.43,2a10.29,10.29,0,0,1-.63,1.74L800,9.7A9.63,9.63,0,0,0,800.63,8c.18-.64.32-1.29.44-2S801.28,4.79,801.33,4.23Zm2.4-4.06h.72V19.59h-.72Zm1.63,3.63.57-.24a18.64,18.64,0,0,1,1.13,2,14,14,0,0,1,.75,1.76l-.63.35a9.13,9.13,0,0,0-.43-1.16c-.19-.44-.41-.9-.65-1.37S805.61,4.2,805.36,3.8Zm1.58,14.37h14.52v.62H806.94Zm3.67-17,.72.13a30.55,30.55,0,0,1-.91,3,25.82,25.82,0,0,1-1.15,2.75,16,16,0,0,1-1.34,2.3l-.2-.1a1.15,1.15,0,0,0-.25-.12l-.23-.1a13.39,13.39,0,0,0,1.41-2.26,22.09,22.09,0,0,0,1.13-2.7A29,29,0,0,0,810.61,1.19Zm-1.87,9.87H820.5v.63H808.74ZM809.8,5h11.25v.65H809.51ZM814.29.22H815V18.49h-.74Z"/><path class="cls-1" d="M839.15,13.46l-.31-.54a6,6,0,0,0,2.19-1.6,3.71,3.71,0,0,0,.76-2.44l-.72-1.51,1.27,1.33a1.06,1.06,0,0,1-.54.42,2.39,2.39,0,0,1-.59.08,1.51,1.51,0,0,1-.93-.27,1,1,0,0,1-.36-.87,1,1,0,0,1,.39-.9,1.55,1.55,0,0,1,.88-.27,1.28,1.28,0,0,1,1.13.55,2.55,2.55,0,0,1,.38,1.46,4.18,4.18,0,0,1-1,2.82A6.21,6.21,0,0,1,839.15,13.46Z"/><path class="cls-1" d="M.1,33.79H21.17v.65H.1Zm2.71,4.58H3.5V47.9H2.81Zm.29,0h9.14V46.1H3.1v-.64h8.42V39H3.1Zm14.23-4.32h.72v16.2a1.47,1.47,0,0,1-.21.87,1.16,1.16,0,0,1-.75.38,11.51,11.51,0,0,1-1.72.09H12.48a1.45,1.45,0,0,0-.08-.21,2.33,2.33,0,0,1-.11-.28.9.9,0,0,0-.12-.24l2,0H16.7a1.07,1.07,0,0,0,.5-.16.68.68,0,0,0,.13-.47Z"/><path class="cls-1" d="M31,34.31h.72v5.81c0,.82,0,1.71-.09,2.68a25.66,25.66,0,0,1-.34,3,19.15,19.15,0,0,1-.78,3,12.66,12.66,0,0,1-1.36,2.7.46.46,0,0,0-.16-.14l-.22-.16A.64.64,0,0,0,28.5,51a11.2,11.2,0,0,0,1.33-2.6,16.56,16.56,0,0,0,.73-2.85,25.71,25.71,0,0,0,.32-2.84c0-.93.07-1.79.07-2.6Zm.29,0H50.1v.63H31.24Zm6.69,14.47.79.41c-.67.29-1.39.58-2.17.88l-2.29.84c-.75.27-1.45.51-2.09.72L32,51.36a1.33,1.33,0,0,0-.2-.24c.62-.21,1.31-.44,2.07-.72s1.51-.55,2.24-.84S37.44,49,37.93,48.78Zm-5.4-8.31H50.44v.62H32.53ZM33.32,37h15.8v.65H33.32Zm.92,5.1H48.37v6.15H34.24Zm.69.65v2.09H47.65V42.76Zm0,2.72v2.14H47.65V45.48Zm1.71-10.15h.72V39h7.82V35.33h.72V39.6H36.64Zm3.12-3,.64-.18c.2.36.38.75.57,1.18a8.25,8.25,0,0,1,.39,1.09l-.67.19a11.69,11.69,0,0,0-.41-1.1C40.11,33.1,39.93,32.71,39.76,32.35Zm1.12,9.95h.7V48h-.7Zm2.6,6.94.33-.48c.79.25,1.56.51,2.32.79s1.48.56,2.17.83,1.3.53,1.82.76l-.4.52c-.5-.24-1.09-.49-1.77-.76s-1.4-.56-2.17-.84S44.24,49.5,43.48,49.24Z"/><path class="cls-1" d="M58.42,38.8l.43-.45c.5.22,1,.46,1.56.75s1.07.55,1.56.82a11.91,11.91,0,0,1,1.23.72l-.41.52c-.32-.2-.73-.44-1.23-.71s-1-.56-1.57-.86S58.92,39,58.42,38.8Zm.77,12.08c.43-.56.92-1.24,1.46-2s1.09-1.64,1.63-2.53,1-1.73,1.49-2.54l.51.41c-.42.77-.89,1.58-1.41,2.44s-1,1.71-1.58,2.52-1,1.54-1.5,2.19Zm.41-18,.4-.44c.53.22,1.09.47,1.67.75s1.14.56,1.66.83,1,.52,1.28.73l-.41.57c-.35-.23-.78-.49-1.3-.78s-1.07-.58-1.65-.88S60.12,33.12,59.6,32.89ZM67.88,47.4a1.37,1.37,0,0,1,1.06.54,15.05,15.05,0,0,0,1.26,1.23,5,5,0,0,0,1.88,1,10,10,0,0,0,2.56.28l1.9,0,2-.07c.66,0,1.24-.06,1.75-.11a2.2,2.2,0,0,0-.09.21,1,1,0,0,0-.07.25c0,.08,0,.16-.05.23l-1.18,0-1.57,0-1.54,0H74.67a10.32,10.32,0,0,1-2.85-.33,5.4,5.4,0,0,1-2-1.18c-.4-.37-.75-.73-1.07-1.08a1.27,1.27,0,0,0-.82-.52c-.2,0-.42.15-.69.44a7.27,7.27,0,0,0-.85,1.18c-.3.51-.63,1.08-1,1.71l-.6-.41a26.32,26.32,0,0,1,1.66-2.52A2,2,0,0,1,67.88,47.4Zm-2.45-7.86H78.24v.62H65.43Zm12.89-6.83.72.48a24.06,24.06,0,0,1-2.64.75c-1,.23-2.1.44-3.26.63s-2.33.36-3.52.51-2.36.28-3.5.4a.88.88,0,0,0-.09-.29,1.63,1.63,0,0,0-.15-.27l3.44-.39c1.18-.15,2.34-.31,3.46-.5s2.18-.39,3.14-.61A15,15,0,0,0,78.32,32.71ZM78,39.54h.14l.17,0,.53.28a22.56,22.56,0,0,1-2.7,3.14,31.62,31.62,0,0,1-3.51,3,28.56,28.56,0,0,1-3.75,2.35L68.69,48l-.24-.2a25.29,25.29,0,0,0,2.76-1.64,31.14,31.14,0,0,0,2.68-2,29.79,29.79,0,0,0,2.35-2.25A19.86,19.86,0,0,0,78,39.71Zm-7.35-3.61.58-.17c.32.49.65,1,1,1.6s.6,1.06.78,1.44l-.63.24a15.49,15.49,0,0,0-.74-1.48C71.33,37,71,36.42,70.68,35.93Z"/><path class="cls-1" d="M90.44,34h.7v6.65c0,.81,0,1.68-.08,2.61s-.14,1.88-.27,2.86a22.83,22.83,0,0,1-.6,2.87,12.11,12.11,0,0,1-1.07,2.61A.58.58,0,0,0,89,51.5l-.22-.14a.73.73,0,0,0-.22-.09,12.9,12.9,0,0,0,1-2.54A17,17,0,0,0,90.14,46q.18-1.41.24-2.76t.06-2.52Zm.36,0h19.51v.63H90.8Zm5.42,1.12.7.18a23.07,23.07,0,0,1-2.27,3.33A20.66,20.66,0,0,1,92,41.42l-.17-.12-.24-.16a1.35,1.35,0,0,0-.21-.13,17.78,17.78,0,0,0,2.7-2.66A18.61,18.61,0,0,0,96.22,35.15ZM94.78,46.67l.63.21a18.19,18.19,0,0,1-1.26,2.22A6.94,6.94,0,0,1,92.26,51l-.57-.35a6.47,6.47,0,0,0,1.88-1.81A11.35,11.35,0,0,0,94.78,46.67Zm-.26-8.28.72-.62V45.2h-.72ZM100,35.15l.69.18a19.19,19.19,0,0,1-1.9,3,21.29,21.29,0,0,1-2.25,2.53l-.19-.14-.24-.15-.22-.12a16.28,16.28,0,0,0,2.3-2.43A16.66,16.66,0,0,0,100,35.15ZM97.42,46.56h.7v3.69a.42.42,0,0,0,.26.43,3.66,3.66,0,0,0,1.18.11h4.68a1.39,1.39,0,0,0,.72-.14.87.87,0,0,0,.35-.6,8.25,8.25,0,0,0,.13-1.42,1.49,1.49,0,0,0,.36.17l.34.11a7.13,7.13,0,0,1-.18,1.57,1.16,1.16,0,0,1-.54.75,2.38,2.38,0,0,1-1.11.21h-4.7a7.43,7.43,0,0,1-1.33-.09,1,1,0,0,1-.66-.34,1.27,1.27,0,0,1-.2-.76Zm1.25-8.68.7-.63v7.93h-.7Zm.82-.72h9.86v.63H98.94ZM99,43.88h10.9v.63H99ZM99,32l.53-.3A15.84,15.84,0,0,1,100.65,33a7,7,0,0,1,.78,1.22l-.55.35a8.81,8.81,0,0,0-.78-1.28A11.54,11.54,0,0,0,99,32Zm0,7.37h9.65V40H99Zm0,2.22h9.77v.63H99Zm.46,4.21.48-.45c.49.2,1,.43,1.53.68s1,.51,1.5.77a9.31,9.31,0,0,1,1.17.73l-.46.54a10.49,10.49,0,0,0-1.16-.78c-.48-.27-1-.54-1.5-.8S100,46,99.49,45.8Zm3.09-10.52.51-.34a13.56,13.56,0,0,1,1,1,7.3,7.3,0,0,1,.77,1l-.58.39a6.5,6.5,0,0,0-.72-1A6.71,6.71,0,0,0,102.58,35.28ZM104,37.44h.72V44.2H104Zm1.73,9.29.58-.3a16.85,16.85,0,0,1,1.51,1.35c.49.5,1,1,1.37,1.47a10.13,10.13,0,0,1,1,1.3l-.63.37a8.69,8.69,0,0,0-1-1.34c-.4-.49-.85-1-1.34-1.48S106.19,47.15,105.68,46.73Z"/><path class="cls-1" d="M121.55,33.77h.7v7.91c0,.77,0,1.6-.11,2.48a17.91,17.91,0,0,1-.42,2.66,11.84,11.84,0,0,1-.94,2.59,9,9,0,0,1-1.68,2.33.7.7,0,0,0-.14-.17l-.19-.16-.19-.12a9,9,0,0,0,1.6-2.24,10.85,10.85,0,0,0,.89-2.46,18.3,18.3,0,0,0,.39-2.52c.06-.83.09-1.63.09-2.39Zm.17,10.33h16.42v.62H121.72Zm.22-10.33h16.32v.65H121.94Zm0,5.1h16.2v.65h-16.2ZM129.23,34H130V51.5h-.72Zm8.59-.19h.7v16.5a1.32,1.32,0,0,1-.2.8,1.15,1.15,0,0,1-.69.37,9.48,9.48,0,0,1-1.5.1h-2.82a1,1,0,0,0-.12-.31,3.45,3.45,0,0,0-.19-.34l1.87,0h2.31a.93.93,0,0,0,.5-.14.55.55,0,0,0,.14-.45Z"/><path class="cls-1" d="M151,36.21h.72q0,3.33-.25,6.23a25,25,0,0,1-.86,5.21,9.16,9.16,0,0,1-2.13,3.85,1,1,0,0,0-.3-.21l-.34-.17a7.8,7.8,0,0,0,1.7-2.64A15.64,15.64,0,0,0,150.5,45a38.68,38.68,0,0,0,.41-4.14C151,39.37,151,37.82,151,36.21Zm-2.92-.28h9.43v.65h-9.43Zm3-3.56.6-.24a13.42,13.42,0,0,1,1.35,1.59,10.57,10.57,0,0,1,1,1.5l-.63.3a8.09,8.09,0,0,0-1-1.54A18.32,18.32,0,0,0,151.16,32.37Zm.27,7.84H156v.65h-4.56Zm4.29,0h.7v.28a.72.72,0,0,1,0,.17c-.1,1.79-.2,3.28-.3,4.49s-.22,2.2-.33,3a10.22,10.22,0,0,1-.38,1.77,2.32,2.32,0,0,1-.51.91,1.14,1.14,0,0,1-.49.36,2.17,2.17,0,0,1-.68.1h-.87l-1.1,0q0-.15-.06-.33a.83.83,0,0,0-.13-.32l1.26.06h.8a.9.9,0,0,0,.7-.22,3.38,3.38,0,0,0,.53-1.36,28.83,28.83,0,0,0,.46-3.12c.16-1.39.3-3.24.42-5.54Zm7.44-8.15.7.22a17.09,17.09,0,0,1-2.41,4.64,12.48,12.48,0,0,1-3.76,3.46,1.54,1.54,0,0,0-.25-.27,2,2,0,0,0-.3-.23,11.91,11.91,0,0,0,3.7-3.29A15,15,0,0,0,163.16,32.06Zm-3.48,15.23.46-.49c.56.23,1.14.49,1.74.77s1.19.59,1.76.9,1.11.61,1.6.92a14.59,14.59,0,0,1,1.24.84l-.46.6a15.28,15.28,0,0,0-1.74-1.17c-.71-.43-1.47-.85-2.27-1.27S160.44,47.61,159.68,47.29ZM161,41l.51-.46c.49.28,1,.58,1.53.91s1,.65,1.5,1,.86.61,1.17.86l-.48.59A14.48,14.48,0,0,0,164,43c-.47-.33-1-.67-1.5-1S161.5,41.27,161,41Zm2.45-8a15.71,15.71,0,0,0,1.73,2.61,18,18,0,0,0,2.3,2.4A11.37,11.37,0,0,0,170,39.65a1.46,1.46,0,0,0-.22.17l-.23.2-.2.21a12.29,12.29,0,0,1-2.43-1.78,19.51,19.51,0,0,1-2.26-2.52,17.36,17.36,0,0,1-1.72-2.74Z"/><path class="cls-1" d="M193.68,34.2h.17l.17,0,.46.3a14.83,14.83,0,0,1-3,3.34,25.06,25.06,0,0,1-4.1,2.7,36.69,36.69,0,0,1-4.6,2,34.44,34.44,0,0,1-4.49,1.29,1.87,1.87,0,0,0-.15-.34,1.3,1.3,0,0,0-.23-.3A36,36,0,0,0,182.3,42,33.61,33.61,0,0,0,186.81,40a25.07,25.07,0,0,0,4-2.58,12.7,12.7,0,0,0,2.88-3.11Zm-6.24-2,.92.18a22.69,22.69,0,0,1-4,3.14,29.36,29.36,0,0,1-5.81,2.8.77.77,0,0,0-.15-.19l-.2-.18-.2-.15a26.54,26.54,0,0,0,4-1.69,25.69,25.69,0,0,0,3.18-2A15.33,15.33,0,0,0,187.44,32.17Zm10.2,9.27h.17l.17,0,.43.28a13.14,13.14,0,0,1-3.17,4,19.9,19.9,0,0,1-4.52,2.91,32.22,32.22,0,0,1-5.33,2,46,46,0,0,1-5.58,1.14.77.77,0,0,0-.13-.32,1.87,1.87,0,0,0-.2-.28A45.48,45.48,0,0,0,185,50.05a31.47,31.47,0,0,0,5.23-1.88,20,20,0,0,0,4.42-2.8,12.16,12.16,0,0,0,3-3.8Zm-6.33-1.94.86.17a20.63,20.63,0,0,1-4.49,3.39A31.29,31.29,0,0,1,180.89,46a.86.86,0,0,0-.13-.17l-.17-.17a.65.65,0,0,0-.18-.15,34,34,0,0,0,4.69-1.75,24.76,24.76,0,0,0,3.7-2.1A15.91,15.91,0,0,0,191.31,39.5Zm-9-3.14.48-.45c.72.29,1.45.63,2.19,1s1.45.79,2.1,1.19a11.4,11.4,0,0,1,1.59,1.15l-.51.52a11.65,11.65,0,0,0-1.57-1.16c-.65-.41-1.34-.81-2.09-1.21S183,36.67,182.31,36.36ZM185.19,44l.57-.41c.77.34,1.56.75,2.37,1.21s1.56.92,2.25,1.39a13.83,13.83,0,0,1,1.72,1.33l-.6.47a13.49,13.49,0,0,0-1.69-1.33c-.7-.48-1.45-1-2.25-1.42S186,44.37,185.19,44Zm0-9.81h8.71v.63h-8.71Zm3.91,7.24h8.72v.63h-8.72Z"/><path class="cls-1" d="M212.55,32.32l.67.15A28,28,0,0,1,211.63,36a33.15,33.15,0,0,1-2,3.23A27.2,27.2,0,0,1,207.42,42l-.15-.17c-.06-.06-.13-.12-.19-.19a1.35,1.35,0,0,0-.19-.16,19.84,19.84,0,0,0,2.21-2.59A28,28,0,0,0,211,35.71,28.53,28.53,0,0,0,212.55,32.32Zm-2,4.65.67-.61,0,0v15.3h-.7Zm4.06-3.29h13.65v17.8h-.72V34.33H215.29v17.3h-.72Zm.48,16h13v.65h-13ZM216.66,38h9.76v.65h-9.76ZM218,41.48h7.08v5.75H218Zm.72.63v4.47h5.67V42.11Zm2.43-6.85h.69V42h-.69Z"/><path class="cls-1" d="M242.34,32l.55.32a21.85,21.85,0,0,1-1.46,2.84,26.37,26.37,0,0,1-1.84,2.65,18.57,18.57,0,0,1-1.93,2.12c-.06-.1-.14-.21-.23-.33l-.25-.3a14,14,0,0,0,1.94-2,25.53,25.53,0,0,0,1.8-2.57A20.79,20.79,0,0,0,242.34,32Zm-4.22,10.17h7.58v.69h-7.58Zm.81,4.56.46-.47c.59.41,1.19.89,1.81,1.42s1.2,1.07,1.75,1.61a13.5,13.5,0,0,1,1.36,1.52l-.48.54a14.62,14.62,0,0,0-1.32-1.52c-.55-.55-1.13-1.1-1.75-1.65S239.52,47.15,238.93,46.73Zm.41-7.82h5.86v.65h-5.86Zm6.07,3.26h.15l.14,0,.55.3A18.82,18.82,0,0,1,245,44.85c-.49.84-1,1.62-1.5,2.35s-1,1.32-1.39,1.8l-.18-.22-.21-.2a.7.7,0,0,0-.19-.16,10,10,0,0,0,1-1.18c.36-.48.72-1,1.08-1.57s.69-1.12,1-1.69a15.51,15.51,0,0,0,.74-1.59Zm-3.69-8.57.55-.37c.57.53,1.15,1.12,1.74,1.75s1.12,1.25,1.61,1.85a13.7,13.7,0,0,1,1.14,1.59l-.56.47A14.74,14.74,0,0,0,245,37.26c-.49-.61-1-1.24-1.6-1.88S242.29,34.15,241.72,33.6Zm8.9,14.9.79.3a8.84,8.84,0,0,1-1.27,1.08,18.08,18.08,0,0,1-1.56,1,14,14,0,0,1-1.61.79l-.26-.26-.29-.24a15,15,0,0,0,1.63-.77,11,11,0,0,0,1.5-.94A5.47,5.47,0,0,0,250.62,48.5Zm-3.38-15.14H258.9V34H247.24Zm.93,3.31h10V47.75h-10Zm.7.62V40.1h8.59V37.29Zm0,3.46V43.6h8.59V40.75Zm0,3.48v2.89h8.59V44.23Zm3.91-10.7.77.13c-.16.58-.33,1.17-.52,1.79s-.36,1.14-.54,1.6l-.67-.15c.11-.3.23-.65.35-1.06s.23-.81.35-1.22S252.72,33.85,252.78,33.53Zm1.8,15.4.6-.34c.46.26.94.55,1.43.86l1.4.94a8.78,8.78,0,0,1,1.11.88l-.65.39a11.21,11.21,0,0,0-1.06-.88c-.43-.32-.89-.65-1.39-1S255,49.19,254.58,48.93Z"/><path class="cls-1" d="M267.07,47.79c.85-.29,1.85-.66,3-1.12l3.56-1.43.15.61q-1.71.66-3.39,1.35l-3,1.22Zm.12-10.22h6.17v.63h-6.17Zm2.93-5.18h.69V46.86h-.69ZM273,48.5l2.49-.62,3-.8,3.2-.87.1.59c-1.53.41-3,.83-4.54,1.25l-4,1.12Zm.84-12.89H288.5v.62H273.79Zm.74,3.26h5.81v5.94h-5.81Zm.7.65v4.64h4.41V39.52Zm12-.63L288,39a25.65,25.65,0,0,1-3.66,7.22,20.11,20.11,0,0,1-5.61,5.14,1.53,1.53,0,0,0-.14-.17,2.13,2.13,0,0,0-.22-.18l-.21-.15a18.2,18.2,0,0,0,5.6-5A23.54,23.54,0,0,0,287.23,38.89Zm-5-6.7H283c0,2,0,3.78.12,5.47s.19,3.22.34,4.62.34,2.63.57,3.71a15.83,15.83,0,0,0,.78,2.72,5,5,0,0,0,1,1.68,1.63,1.63,0,0,0,1.18.57c.32,0,.55-.26.68-.79a15,15,0,0,0,.3-2.73,1.82,1.82,0,0,0,.32.18l.33.13a16.82,16.82,0,0,1-.24,2.26,2.59,2.59,0,0,1-.5,1.22,1.18,1.18,0,0,1-.94.38,2.15,2.15,0,0,1-1.51-.63,5.42,5.42,0,0,1-1.18-1.85,17.88,17.88,0,0,1-.87-2.93,35.27,35.27,0,0,1-.6-3.89c-.16-1.44-.28-3-.36-4.72S282.23,34.09,282.21,32.19Zm2.19.46.48-.37a19.31,19.31,0,0,1,1.78,1.17,11.47,11.47,0,0,1,1.43,1.16l-.48.48a14.94,14.94,0,0,0-1.43-1.21A20.38,20.38,0,0,0,284.4,32.65Z"/><path class="cls-1" d="M308.06,38.85a3.57,3.57,0,0,1,1.73.42A3.47,3.47,0,0,1,311,40.38a2.79,2.79,0,0,1,0,3.1,3.4,3.4,0,0,1-1.23,1.12,3.75,3.75,0,0,1-3.45,0,3.47,3.47,0,0,1-1.25-1.12,2.84,2.84,0,0,1,0-3.1,3.53,3.53,0,0,1,1.25-1.11A3.59,3.59,0,0,1,308.06,38.85Zm0,5.53a2.76,2.76,0,0,0,1.92-.72,2.27,2.27,0,0,0,.43-2.95,2.66,2.66,0,0,0-1-.88,2.87,2.87,0,0,0-1.38-.33,2.82,2.82,0,0,0-1.36.33,2.87,2.87,0,0,0-1,.88,2.14,2.14,0,0,0-.37,1.23,2.19,2.19,0,0,0,.37,1.23,2.68,2.68,0,0,0,1,.88A2.82,2.82,0,0,0,308.06,44.38Z"/></g></g></svg>