<svg xmlns="http://www.w3.org/2000/svg" viewBox="0 0 895.17 178.21"><defs><style>.cls-1{fill:#fff;}</style></defs><g id="圖層_2" data-name="圖層 2"><g id="text"><path class="cls-1" d="M2.69,166.16l1.49.26c-.36,1.81-.78,3.66-1.28,5.55a47.91,47.91,0,0,1-1.51,4.86,1.48,1.48,0,0,0-.41-.17l-.52-.2a3.44,3.44,0,0,0-.46-.15,27.78,27.78,0,0,0,1.56-4.79C2,169.7,2.37,167.92,2.69,166.16ZM.77,154.28a4.67,4.67,0,0,0-.15-.45c-.06-.19-.12-.38-.19-.57a3.39,3.39,0,0,0-.19-.45,2.43,2.43,0,0,0,1.2-.76,16.23,16.23,0,0,0,1.44-1.66c.29-.34.71-.89,1.27-1.64s1.2-1.65,1.92-2.7,1.43-2.17,2.14-3.37,1.34-2.4,1.92-3.61l1.49.61q-1.39,2.5-3,5c-1,1.65-2.11,3.22-3.21,4.69a47.74,47.74,0,0,1-3.34,4v0l-.67.3A2.65,2.65,0,0,0,1,154,.41.41,0,0,0,.77,154.28Zm.29,9.46c0-.11-.08-.26-.15-.43s-.13-.35-.19-.54a2.53,2.53,0,0,0-.19-.45A2.92,2.92,0,0,0,2,161.41c.56-.55,1.19-1.21,1.9-2,.38-.4.95-1,1.7-1.94s1.6-1.95,2.55-3.18,1.9-2.55,2.88-4,1.88-2.86,2.71-4.3l1.44.6c-1.28,2-2.63,4-4,5.92s-2.85,3.81-4.32,5.55a62.12,62.12,0,0,1-4.42,4.73v0a5,5,0,0,0-.67.26,2.17,2.17,0,0,0-.48.28A.41.41,0,0,0,1.06,163.74Zm-.29-9.46v-1.21l1.1-.52,8.64-.78a3.67,3.67,0,0,0,0,.61,2.75,2.75,0,0,0,0,.56l-4.85.56-2.8.35a10.82,10.82,0,0,0-1.42.24A6.14,6.14,0,0,0,.77,154.28Zm.29,9.46v-1.17l1.1-.64,13.06-1.65a2.66,2.66,0,0,0,0,.63,4.84,4.84,0,0,0,.07.54l-7.27,1-4.1.6c-.93.15-1.59.27-2,.37A5.41,5.41,0,0,0,1.06,163.74Zm6.57,2.51L9,166.07q.44,2.25.84,4.86a44.26,44.26,0,0,1,.51,4.52L9,175.66c0-.86-.12-1.83-.27-2.91s-.3-2.19-.48-3.33S7.86,167.23,7.63,166.25Zm4.56-10.85,1.44-.26c.48,1,.95,2,1.39,3.09s.85,2.18,1.2,3.2.63,1.91.82,2.66l-1.49.38a22.27,22.27,0,0,0-.77-2.72c-.35-1-.75-2.11-1.2-3.21S12.67,156.38,12.19,155.4Zm.34,10.07,1.25-.3c.54,1.21,1.07,2.52,1.58,4a30.16,30.16,0,0,1,1.1,3.65l-1.34.39A31.56,31.56,0,0,0,14,169.44C13.54,168,13,166.68,12.53,165.47Zm12.67-18h1.39q-.14,4.67-.5,9.16a52.34,52.34,0,0,1-1.37,8.51,26.06,26.06,0,0,1-3,7.3A18,18,0,0,1,16.22,178a1.48,1.48,0,0,0-.5-.43,6.21,6.21,0,0,0-.65-.35,16.86,16.86,0,0,0,5.35-5.38,24.94,24.94,0,0,0,3-7.19,52.31,52.31,0,0,0,1.34-8.36C25,153.41,25.14,150.46,25.2,147.5Zm-7.73-.69H42.91v1.29H17.47Zm7.68,9.5h14v1.25h-14Zm2.5-16.63,1.25-.22a34.08,34.08,0,0,1,1.51,3.37,23.71,23.71,0,0,1,1,3.07l-1.34.35a19.31,19.31,0,0,0-.94-3.12C28.65,141.9,28.16,140.74,27.65,139.68Zm10.8,16.63h1.39v.86q-.24,5.15-.5,8.67c-.18,2.34-.36,4.26-.56,5.74a19.48,19.48,0,0,1-.69,3.46,4.46,4.46,0,0,1-.94,1.75,2.58,2.58,0,0,1-1.1.71,6.51,6.51,0,0,1-1.59.24c-.6,0-1.46,0-2.56,0s-2.24-.09-3.39-.18c0-.2-.08-.42-.14-.66a1.83,1.83,0,0,0-.29-.63c1.34.11,2.6.18,3.77.19s2,0,2.37,0a3.18,3.18,0,0,0,1-.06A1.78,1.78,0,0,0,36,176,5.08,5.08,0,0,0,37,173.46a52.56,52.56,0,0,0,.79-6.05q.36-4,.65-10.8Z"/><path class="cls-1" d="M61.08,166.16l1.44.26Q62,169.14,61.3,172a47.71,47.71,0,0,1-1.52,4.86c-.12-.06-.34-.14-.64-.26l-.75-.26A27.78,27.78,0,0,0,60,171.52C60.38,169.7,60.76,167.92,61.08,166.16ZM59,154.28a4.67,4.67,0,0,0-.15-.45c-.06-.19-.12-.38-.19-.57a3.39,3.39,0,0,0-.19-.45,1.92,1.92,0,0,0,1.08-.76,14,14,0,0,0,1.18-1.7,22.76,22.76,0,0,0,1.58-2.42c.7-1.18,1.46-2.56,2.26-4.13a49.25,49.25,0,0,0,2.11-4.73l1.44.61c-.71,1.64-1.48,3.28-2.33,4.92s-1.73,3.21-2.64,4.69a37.33,37.33,0,0,1-2.81,4v0l-.67.32a3.33,3.33,0,0,0-.48.31A.41.41,0,0,0,59,154.28Zm.29,9.46c0-.11-.08-.26-.15-.43s-.13-.35-.19-.54a2.53,2.53,0,0,0-.19-.45,2.62,2.62,0,0,0,1.34-.93c.51-.57,1.11-1.25,1.78-2.06.35-.4.86-1.05,1.53-1.94s1.44-2,2.31-3.22,1.73-2.59,2.61-4a48,48,0,0,0,2.38-4.29l1.49.56c-1.12,2-2.32,4-3.6,6S66,156.25,64.66,158a52.61,52.61,0,0,1-4.06,4.81l-.67.31a2.17,2.17,0,0,0-.48.28A.41.41,0,0,0,59.26,163.74ZM59,154.28v-1.21l1.1-.56,7.78-.78v.61a2.23,2.23,0,0,0,.05.56c-2.44.29-4.25.52-5.45.69s-2,.31-2.5.41A5.18,5.18,0,0,0,59,154.28Zm.29,9.46v-1.17l1.05-.64,11-1.6c0,.2,0,.41,0,.62a3.25,3.25,0,0,0,.07.54q-3.84.62-6.14,1c-1.54.26-2.71.47-3.51.62s-1.37.29-1.7.37A4.84,4.84,0,0,0,59.26,163.74Zm5.52,2.72,1.34-.17c.32,1.5.61,3.12.86,4.86s.42,3.25.48,4.51l-1.39.18c0-.84-.12-1.8-.26-2.88s-.31-2.18-.48-3.32S65,167.44,64.78,166.46Zm3.69-10.8,1.44-.21a31.14,31.14,0,0,1,1.08,3c.34,1.06.63,2.08.89,3a21.84,21.84,0,0,1,.53,2.49l-1.54.34a20.74,20.74,0,0,0-.53-2.57c-.25-1-.54-2-.86-3.09S68.82,156.58,68.47,155.66Zm.24,10.15,1.25-.3c.61,1.36,1.2,2.83,1.78,4.43A34.2,34.2,0,0,1,73,174.07l-1.34.34a33.77,33.77,0,0,0-1.25-4.17C69.82,168.64,69.26,167.17,68.71,165.81Zm3.55-13.26H102v1.3H72.26Zm1.06-8.08H89.21v1.3H73.32ZM75.19,157h1.39v17.54H75.19Zm.77,0H87.72v15.9H86.23v-14.6H76Zm0,6.57h10.8v1.3H76Zm0,6.74h10.8v1.25H76ZM76,146.59l1.2-.26a22.09,22.09,0,0,1,1.22,3.5,14.8,14.8,0,0,1,.55,3.28l-1.34.31a16.13,16.13,0,0,0-.53-3.31A30.51,30.51,0,0,0,76,146.59Zm2.83-6.52,1.2-.44a25.48,25.48,0,0,1,2.06,2.64,13.31,13.31,0,0,1,1.44,2.51l-1.24.6a17.91,17.91,0,0,0-1.44-2.61A22.59,22.59,0,0,0,78.84,140.07Zm6.29,6.18,1.49.43q-.54,1.68-1.2,3.6a27.9,27.9,0,0,1-1.35,3.27l-1.2-.39c.26-.61.53-1.32.82-2.14s.56-1.66.81-2.51S85,146.91,85.13,146.25Zm13.58,10.54,1.39.25a38.94,38.94,0,0,1-5.66,11,36.79,36.79,0,0,1-9.26,8.83,1.32,1.32,0,0,0-.32-.26l-.4-.25a2.56,2.56,0,0,0-.39-.22,36.1,36.1,0,0,0,9.22-8.6A33.73,33.73,0,0,0,98.71,156.79ZM90.5,139.16h1.4q0,6,.36,11.36t.84,9.81A62.32,62.32,0,0,0,94.44,168a17.65,17.65,0,0,0,1.94,5A3.41,3.41,0,0,0,99,174.93c.45,0,.83-.49,1.15-1.56a24.48,24.48,0,0,0,.77-4.4l.41.24a3.12,3.12,0,0,0,.46.17l.38.11a29.27,29.27,0,0,1-.77,4.12,5.43,5.43,0,0,1-1,2.16,1.71,1.71,0,0,1-1.29.63,4.41,4.41,0,0,1-3.43-2,16.65,16.65,0,0,1-2.36-5.4,56.7,56.7,0,0,1-1.48-8.12c-.37-3.11-.65-6.51-.84-10.18S90.6,143.16,90.5,139.16Zm4.42,3.46,1.15-.52a41.22,41.22,0,0,1,3,3.8,31.31,31.31,0,0,1,2.23,3.54l-1.2.61c-.35-.67-.8-1.43-1.36-2.29s-1.18-1.75-1.85-2.66S95.56,143.37,94.92,142.62Z"/><path class="cls-1" d="M121.24,142.79h1.4v13.3c0,1.62,0,3.35-.15,5.21s-.28,3.77-.55,5.72a42.19,42.19,0,0,1-1.2,5.75A24.43,24.43,0,0,1,118.6,178a.83.83,0,0,0-.31-.26l-.45-.28a1.64,1.64,0,0,0-.44-.2,25.25,25.25,0,0,0,2.09-5.07,35.48,35.48,0,0,0,1.15-5.53q.36-2.83.48-5.53t.12-5Zm.72,0h39V144H122ZM132.81,145l1.39.34a45.6,45.6,0,0,1-4.53,6.67,41.27,41.27,0,0,1-5.31,5.51,3.2,3.2,0,0,0-.33-.23l-.48-.33a3.78,3.78,0,0,0-.43-.26,35.47,35.47,0,0,0,5.4-5.31A37.6,37.6,0,0,0,132.81,145Zm-2.88,23,1.25.43a33.2,33.2,0,0,1-2.52,4.43,13.57,13.57,0,0,1-3.77,3.78l-1.15-.69a12.88,12.88,0,0,0,3.77-3.63A23.26,23.26,0,0,0,129.93,168.06Zm-.53-16.55,1.44-1.25v14.86H129.4ZM140.3,145l1.39.34a39.28,39.28,0,0,1-3.81,6.09,40.94,40.94,0,0,1-4.49,5.06,2.84,2.84,0,0,0-.39-.28l-.48-.31a2.64,2.64,0,0,0-.43-.23,32.52,32.52,0,0,0,4.59-4.86A33.78,33.78,0,0,0,140.3,145Zm-5.09,22.8h1.39v7.39a.86.86,0,0,0,.53.87,8,8,0,0,0,2.35.21h9.36a2.89,2.89,0,0,0,1.44-.28,1.79,1.79,0,0,0,.7-1.21,15.51,15.51,0,0,0,.26-2.83,3.42,3.42,0,0,0,.72.35c.26.08.48.16.68.21a14.26,14.26,0,0,1-.36,3.14,2.35,2.35,0,0,1-1.08,1.51,4.86,4.86,0,0,1-2.21.41h-9.41a14.94,14.94,0,0,1-2.66-.18,2,2,0,0,1-1.32-.69,2.47,2.47,0,0,1-.39-1.51Zm2.5-17.36,1.39-1.25v15.85h-1.39Zm1.63-1.43h19.73v1.26H138.24Zm-1.06,13.44h21.8v1.25h-21.8Zm.15-23.76,1-.61c.74.78,1.47,1.64,2.19,2.57a13.69,13.69,0,0,1,1.56,2.44l-1.11.7a16,16,0,0,0-1.56-2.55A23.17,23.17,0,0,0,138.43,138.73Zm0,14.73h19.29v1.25H138.43Zm0,4.45H158v1.25H138.43Zm.91,8.42,1-.9c1,.4,2,.85,3.07,1.36s2.06,1,3,1.53a20.06,20.06,0,0,1,2.33,1.47l-.91,1.08a19.49,19.49,0,0,0-2.33-1.56c-.94-.54-1.94-1.08-3-1.6S140.36,166.74,139.34,166.33Zm6.19-21,1-.69a27.37,27.37,0,0,1,2.06,2,13.24,13.24,0,0,1,1.54,1.9l-1.15.78a13,13,0,0,0-1.44-2A13.83,13.83,0,0,0,145.53,145.29Zm2.74,4.32h1.44v13.53h-1.44Zm3.45,18.58,1.16-.6a32.37,32.37,0,0,1,3,2.7c1,1,1.9,2,2.74,2.93a18,18,0,0,1,1.92,2.62l-1.25.73a17.6,17.6,0,0,0-1.9-2.68c-.81-1-1.71-2-2.69-3A36.41,36.41,0,0,0,151.72,168.19Z"/><path class="cls-1" d="M183,142.27h1.4v15.81c0,1.56-.08,3.21-.22,5a36.6,36.6,0,0,1-.84,5.31,23.87,23.87,0,0,1-1.87,5.19,18.54,18.54,0,0,1-3.36,4.66,1.46,1.46,0,0,0-.29-.34l-.38-.33a1.59,1.59,0,0,0-.39-.23,17.93,17.93,0,0,0,3.22-4.48,21.49,21.49,0,0,0,1.77-4.92,34,34,0,0,0,.77-5c.13-1.67.19-3.27.19-4.8Zm.34,20.65h32.83v1.25H183.38Zm.43-20.65h32.64v1.3H183.81Zm0,10.2h32.4v1.29h-32.4Zm14.59-9.81h1.44v35.08H198.4Zm17.19-.39H217v33a2.56,2.56,0,0,1-.41,1.59,2.34,2.34,0,0,1-1.37.74,19.28,19.28,0,0,1-3,.19c-1.39,0-3.27,0-5.64,0a2.62,2.62,0,0,0-.24-.6,6.48,6.48,0,0,0-.38-.7c1.34,0,2.59.05,3.74.05l2.93,0,1.68,0a1.71,1.71,0,0,0,1-.28,1.1,1.1,0,0,0,.29-.88Z"/><path class="cls-1" d="M241.86,21.3h43v1.25h-43Zm1.73-19.7h20.59V2.89H243.59Zm1.44.73h1.39V15.94a2.17,2.17,0,0,0,.53,1.71,2.92,2.92,0,0,0,1.87.45h11.42c.55,0,1.21,0,2,0s1.38-.07,1.8-.13a5.05,5.05,0,0,1,.16.69l.12.6a10.85,10.85,0,0,1-1.58.13c-.74,0-1.54,0-2.4,0H248.92a6.65,6.65,0,0,1-2.31-.33,2.08,2.08,0,0,1-1.22-1.1A5,5,0,0,1,245,15.9Zm2,22.73H280.5V39.18h-1.44V26.35H248.44V39.18H247Zm4.23-21.73,1.39.26a16.67,16.67,0,0,1-1.78,3.15,15.93,15.93,0,0,1-2.35,2.68L248,9.07a3.29,3.29,0,0,0-.65-.3A14,14,0,0,0,251.27,3.33Zm-3.7,6.87H263.7v1.29H247.57Zm0,25.57H280V37h-32.4ZM254.87,6h1.39V9.38a9.2,9.2,0,0,1-.46,2.7A7.21,7.21,0,0,1,253.86,15a13.07,13.07,0,0,1-4.7,2.64,2.8,2.8,0,0,0-.44-.56,4.32,4.32,0,0,0-.52-.48,12.17,12.17,0,0,0,4.44-2.22,5.93,5.93,0,0,0,1.82-2.62,8.45,8.45,0,0,0,.41-2.41Zm3.93,15.77h1.4v3.42a4.56,4.56,0,0,1-.34,1.66,4.1,4.1,0,0,1-1.34,1.64,10.92,10.92,0,0,1-3,1.51,29.25,29.25,0,0,1-5.31,1.23,3.71,3.71,0,0,0-.38-.56,2.34,2.34,0,0,0-.48-.47,27.65,27.65,0,0,0,5-1,10.73,10.73,0,0,0,2.83-1.27,3.57,3.57,0,0,0,1.27-1.38,3.38,3.38,0,0,0,.31-1.36ZM250.16,5.62h12.48V7H250.16Zm3.41,26.82h21V33.7h-21Zm.87-19.78.86-.82q2,1,4.08,2.27a33.27,33.27,0,0,1,3.31,2.22l-.91,1A34.91,34.91,0,0,0,258.49,15,45.62,45.62,0,0,0,254.44,12.66ZM268.36,1.51h1.39V3.8a5.16,5.16,0,0,1-.39,1.9,5.09,5.09,0,0,1-1.44,2,10.57,10.57,0,0,1-3.07,1.77,1.94,1.94,0,0,0-.26-.37l-.34-.37a1.71,1.71,0,0,0-.31-.26A10.22,10.22,0,0,0,266.7,7,4.41,4.41,0,0,0,268,5.4a4,4,0,0,0,.36-1.6ZM279.2,9.76h.34l.29-.08.91.47a14.57,14.57,0,0,1-3.82,4.6,24.43,24.43,0,0,1-5.49,3.37,35.65,35.65,0,0,1-5.95,2.1l-.39-.56a2,2,0,0,0-.48-.52,34.42,34.42,0,0,0,5.71-1.9,24.9,24.9,0,0,0,5.31-3.07,12.57,12.57,0,0,0,3.57-4.1Zm-13.29,0h13.77v1.3H265.91Zm.43,3.11.82-.9c1.28.52,2.61,1.09,4,1.72s2.76,1.29,4.11,2,2.6,1.3,3.77,1.92,2.16,1.19,3,1.71l-.87,1.08c-.83-.52-1.82-1.1-3-1.73s-2.4-1.29-3.75-2-2.71-1.34-4.1-2S267.62,13.42,266.34,12.87Zm.86,9h1.44v6.57c0,.37.12.61.36.71a5.78,5.78,0,0,0,1.71.15h7.15c.45,0,.75,0,.91,0a.58.58,0,0,0,.29-.06,2.52,2.52,0,0,0,.65.26l.69.17a.83.83,0,0,1-.6.62,5.14,5.14,0,0,1-1.7.2h-7.34a13.9,13.9,0,0,1-2.19-.13,1.49,1.49,0,0,1-1.08-.58,2.51,2.51,0,0,1-.29-1.32ZM269,1.51H278v1.3H269Zm8.11,0h1.49v5a2.19,2.19,0,0,0,.09.82q.11.18.48.18h2.6l.86,0c.32,0,.59,0,.82-.07a5.3,5.3,0,0,1,.07.56,3.38,3.38,0,0,0,.07.56,6.68,6.68,0,0,1-.72.07l-1,0H279a2.79,2.79,0,0,1-1.17-.19,1,1,0,0,1-.56-.67,4.94,4.94,0,0,1-.14-1.3Z"/><path class="cls-1" d="M300.34,25.62c1-.49,2.23-1.08,3.62-1.77l4.39-2.21.34,1q-1.92,1.08-3.84,2.1c-1.28.67-2.51,1.3-3.7,1.87Zm1-16.81,1.29-.3q.68,1.34,1.35,2.85c.45,1,.86,2,1.25,2.9s.68,1.71.91,2.37l-1.35.52c-.22-.69-.52-1.52-.91-2.48s-.79-2-1.22-3S301.75,9.71,301.3,8.81Zm6.48-3.89h1.44V18.79c0,1.59-.08,3.27-.24,5.06a38.46,38.46,0,0,1-.89,5.4,23.86,23.86,0,0,1-2,5.31,19.44,19.44,0,0,1-3.48,4.8,1,1,0,0,0-.29-.33l-.38-.3a2.36,2.36,0,0,0-.38-.24,18.25,18.25,0,0,0,3.33-4.62,23.87,23.87,0,0,0,1.85-5.06,31.94,31.94,0,0,0,.82-5.14c.12-1.7.19-3.32.19-4.88Zm.81,0h35.62V6.18H308.59ZM326,6.74l1.53.22a23.36,23.36,0,0,1-3.09,5.65,28.3,28.3,0,0,1-5.33,5.49,34.16,34.16,0,0,1-7.7,4.54,2.81,2.81,0,0,0-.48-.5,2.94,2.94,0,0,0-.58-.37,32.67,32.67,0,0,0,7.54-4.36,27.54,27.54,0,0,0,5.2-5.29A20,20,0,0,0,326,6.74Zm-7.15,24.49,1.29.44c-.8.75-1.67,1.53-2.61,2.35s-1.91,1.61-2.88,2.38-1.92,1.43-2.81,2a2.55,2.55,0,0,0-.29-.31,5.38,5.38,0,0,0-.43-.34,2.73,2.73,0,0,0-.43-.26,51.44,51.44,0,0,0,4.29-3A49.22,49.22,0,0,0,318.87,31.23Zm-7-20h31.58v1.25H311.91Zm.86,3,1.06-.65a29.28,29.28,0,0,1,2.78,1.86,14.9,14.9,0,0,1,2.21,1.94l-1.06.78a20.67,20.67,0,0,0-2.21-2A28.26,28.26,0,0,0,312.77,14.26Zm3.94,4.36h21.21V29.89H316.71Zm1.44,1.3v3.67h18.38V19.92Zm0,4.92V28.6h18.38V24.84Zm8.35,4h1.44V37.5a2,2,0,0,1-.24,1.06,1.37,1.37,0,0,1-1,.49,10.41,10.41,0,0,1-2.14.22c-1,0-2.29,0-4,0a1.86,1.86,0,0,0-.21-.56l-.36-.6c1.47,0,2.7,0,3.69,0s1.65,0,2,0a.88.88,0,0,0,.62-.15.71.71,0,0,0,.15-.5ZM324,.78l1.35-.35c.38.81.77,1.67,1.17,2.59a22.2,22.2,0,0,1,.89,2.34L326,5.79a15.94,15.94,0,0,0-.84-2.4C324.78,2.46,324.39,1.58,324,.78Zm7.06,10.76a20,20,0,0,0,3.5,4.08,30.74,30.74,0,0,0,4.73,3.52,26.1,26.1,0,0,0,5.16,2.42,3.86,3.86,0,0,0-.53.45,5.5,5.5,0,0,0-.48.54,30.07,30.07,0,0,1-5.13-2.63,32.22,32.22,0,0,1-4.78-3.7A24.24,24.24,0,0,1,329.91,12Zm2.59,20.3,1-.56c.93.66,1.9,1.4,2.93,2.22s2,1.62,2.92,2.4,1.7,1.45,2.31,2l-1,.73c-.61-.57-1.38-1.26-2.31-2s-1.9-1.61-2.92-2.46S334.61,32.53,333.65,31.84Zm7-18.49,1.2.65c-.77.72-1.61,1.43-2.52,2.14s-1.75,1.3-2.52,1.79l-1-.56c.8-.55,1.67-1.22,2.62-2S340.11,13.9,340.66,13.35Z"/><path class="cls-1" d="M370.19,0l1.1.65a42,42,0,0,1-2.93,5.68,52,52,0,0,1-3.67,5.29,36.1,36.1,0,0,1-3.86,4.23c-.13-.2-.28-.41-.46-.64a6.83,6.83,0,0,0-.5-.61,27.94,27.94,0,0,0,3.89-4,53.26,53.26,0,0,0,3.6-5.14A42.75,42.75,0,0,0,370.19,0Zm-8.45,20.35h15.17v1.38H361.74Zm1.63,9.11.91-.95q1.79,1.26,3.63,2.85t3.5,3.22a25.13,25.13,0,0,1,2.71,3.05l-1,1.08a27.94,27.94,0,0,0-2.64-3.05Q368.9,34,367,32.36A45.24,45.24,0,0,0,363.37,29.46Zm.82-15.64H375.9v1.3H364.19Zm12.14,6.53h.29l.29-.09,1.1.61a40.31,40.31,0,0,1-2.42,4.83q-1.47,2.52-3,4.69A42.67,42.67,0,0,1,369.8,34a2,2,0,0,0-.36-.43l-.4-.41a2.85,2.85,0,0,0-.39-.33,18.31,18.31,0,0,0,2-2.35c.72-1,1.44-2,2.16-3.13s1.39-2.26,2-3.39a29.23,29.23,0,0,0,1.49-3.18ZM368.94,3.2l1.1-.74c1.16,1.07,2.31,2.24,3.48,3.5s2.24,2.5,3.22,3.7A26.37,26.37,0,0,1,379,12.83l-1.1.95a33.19,33.19,0,0,0-2.33-3.26c-1-1.22-2-2.48-3.19-3.76S370.09,4.29,368.94,3.2ZM386.75,33l1.58.61a19.71,19.71,0,0,1-2.54,2.16,34.6,34.6,0,0,1-3.12,2,28.91,28.91,0,0,1-3.22,1.58,5.3,5.3,0,0,0-.53-.52q-.33-.3-.57-.48a30.77,30.77,0,0,0,3.26-1.53,27,27,0,0,0,3-1.88A11,11,0,0,0,386.75,33ZM380,2.72h23.33V4H380Zm1.87,6.61h20V31.49h-20Zm1.39,1.25V16.2h17.19V10.58Zm0,6.92v5.7h17.19V17.5Zm0,7v5.79h17.19V24.45Zm7.83-21.38,1.53.26c-.32,1.15-.66,2.34-1,3.56s-.73,2.3-1.08,3.22l-1.34-.3c.22-.61.45-1.31.69-2.12s.48-1.62.7-2.44S390.94,3.7,391.07,3.07Zm3.6,30.8,1.2-.69c.93.52,1.88,1.09,2.85,1.73s1.92,1.26,2.81,1.88a17.4,17.4,0,0,1,2.21,1.75l-1.3.77a22.48,22.48,0,0,0-2.11-1.75c-.86-.64-1.79-1.29-2.78-1.94S395.6,34.39,394.67,33.87Z"/><path class="cls-1" d="M419.21,31.58q2.54-.87,6-2.25l7.13-2.85.29,1.21c-2.28.89-4.53,1.79-6.77,2.7s-4.28,1.72-6.1,2.44Zm.24-20.43h12.33V12.4H419.45ZM425.3.78h1.39V29.72H425.3ZM431,33q2.16-.51,5-1.25t6-1.6l6.41-1.72.19,1.16-9.07,2.51q-4.51,1.24-8,2.24Zm1.68-25.79h29.42V8.47H432.65Zm1.48,6.53h11.62V25.62H434.13ZM435.52,15v9.29h8.84V15Zm24-1.25,1.45.3a51.24,51.24,0,0,1-7.32,14.43,40.18,40.18,0,0,1-11.21,10.28c-.07-.08-.16-.19-.29-.32a4,4,0,0,0-.43-.37l-.44-.3a36.32,36.32,0,0,0,11.21-10A46.7,46.7,0,0,0,459.52,13.78ZM449.49.39H451q0,5.88.24,10.93t.7,9.24c.3,2.8.68,5.27,1.12,7.41a33.72,33.72,0,0,0,1.56,5.45,10.58,10.58,0,0,0,2,3.37A3.25,3.25,0,0,0,459,37.93c.64,0,1.09-.53,1.37-1.6a31.6,31.6,0,0,0,.6-5.44,3.45,3.45,0,0,0,.62.34,4.28,4.28,0,0,0,.67.26,31,31,0,0,1-.48,4.54,5.27,5.27,0,0,1-1,2.44,2.41,2.41,0,0,1-1.88.76,4.27,4.27,0,0,1-3-1.28,10.62,10.62,0,0,1-2.35-3.69,33,33,0,0,1-1.75-5.86,73.44,73.44,0,0,1-1.21-7.77c-.3-2.9-.54-6-.72-9.44S449.52,4.19,449.49.39Zm4.37.91,1-.74a42.3,42.3,0,0,1,3.58,2.33,26.34,26.34,0,0,1,2.85,2.34l-1,.95a31.09,31.09,0,0,0-2.85-2.42A41,41,0,0,0,453.86,1.3Z"/><path class="cls-1" d="M506,117.69h.34l.29-.09.91.39a38.28,38.28,0,0,1-3.6,9.74,34.64,34.64,0,0,1-5.38,7.45,30.68,30.68,0,0,1-6.48,5.23,1.59,1.59,0,0,0-.31-.37l-.43-.39a1.76,1.76,0,0,0-.41-.28,29,29,0,0,0,6.46-5,31.93,31.93,0,0,0,5.23-7.15,35.49,35.49,0,0,0,3.38-9.15Zm-13.73,0h14.07V119H492.25Zm19.2-11.41h1.49v36.51a2.31,2.31,0,0,1-.36,1.44,1.92,1.92,0,0,1-1.13.63,12.36,12.36,0,0,1-2.23.22c-1,0-2.37,0-4.1,0a2.11,2.11,0,0,0-.17-.41c-.08-.16-.15-.33-.22-.5a1.27,1.27,0,0,0-.24-.43c1.44,0,2.72,0,3.82,0s1.82,0,2.14,0a1.49,1.49,0,0,0,.76-.22c.16-.11.24-.36.24-.73Zm1.35,10.07a52.73,52.73,0,0,0,4.08,6.85,57.34,57.34,0,0,0,5.28,6.47,48.46,48.46,0,0,0,6.07,5.47,32.36,32.36,0,0,0,6.41,3.84l-.34.33-.38.39-.34.36a36.11,36.11,0,0,1-6.41-4,49.86,49.86,0,0,1-6.07-5.62,60,60,0,0,1-5.28-6.63,56.32,56.32,0,0,1-4.13-7Zm15.41-1.51,1.24.77c-1,1.16-2.11,2.38-3.36,3.68s-2.51,2.54-3.79,3.75-2.48,2.27-3.6,3.16l-.91-.65q1.63-1.38,3.55-3.26c1.28-1.25,2.53-2.54,3.75-3.85S527.34,115.93,528.21,114.84Z"/><path class="cls-1" d="M558.33,127.06h.34l.33,0,.87.3A31.38,31.38,0,0,1,556,138.23a21.43,21.43,0,0,1-6.36,6.8,1.06,1.06,0,0,0-.31-.34c-.14-.12-.28-.24-.41-.37a1.2,1.2,0,0,0-.38-.28,20.49,20.49,0,0,0,6.17-6.46,28.16,28.16,0,0,0,3.67-10.17Zm-8.78,1.82a2.35,2.35,0,0,0-.22-.52,6.14,6.14,0,0,1-.31-.63,2.45,2.45,0,0,0-.29-.5,6,6,0,0,0,1-.38,3.64,3.64,0,0,0,1.08-.83,18.33,18.33,0,0,0,1.66-1.79c.72-.85,1.49-1.79,2.3-2.83s1.59-2,2.31-3,1.27-1.7,1.65-2.25v-.08l.67-.3,1.25.56-2.06,2.59c-.8,1-1.65,2-2.55,3.13s-1.77,2.11-2.64,3.09-1.63,1.82-2.3,2.51a6.28,6.28,0,0,0-.79.41,5.23,5.23,0,0,0-.55.39A.52.52,0,0,0,549.55,128.88ZM549,116h10.65v1.3H549Zm.53,12.88v-1.26l1.39-.56h8.11v1.25h-6.77a7.66,7.66,0,0,0-1.73.18A2.26,2.26,0,0,0,549.55,128.88Zm1.87-22.21,1.15-.52q1.53,1.65,3.12,3.57a26.3,26.3,0,0,1,2.4,3.3l-1.2.61c-.38-.61-.88-1.31-1.49-2.12s-1.26-1.63-2-2.48S552.06,107.39,551.42,106.67Zm5,30.16A10.5,10.5,0,0,0,561,141a21,21,0,0,0,6.91,1.79,88.09,88.09,0,0,0,9.29.43c1.66,0,3.41,0,5.25,0s3.65-.07,5.43-.13,3.4-.14,4.87-.26a1.52,1.52,0,0,0-.24.41,4.2,4.2,0,0,0-.17.5l-.12.43c-1.34.06-2.86.12-4.56.17s-3.44.1-5.23.11-3.52,0-5.19,0q-4.26,0-7.68-.25a32.7,32.7,0,0,1-6.07-1,15.36,15.36,0,0,1-4.63-2.09,12,12,0,0,1-3.36-3.61Zm6.91-15.51h26.07v1.25H564.76V140h-1.44Zm3.89-13.48H586v14.47h-1.4V109.09h-16v13.22h-1.44Zm3.26,18.49h1.4v10.88h-1.4Zm.72,0h11.62v8.77H571.19v-1.26h10.18v-6.22H571.19Zm4.08-12.79h10.28v1.3h-8.88V122h-1.4Zm13.25,7.78H590V138a2.06,2.06,0,0,1-.24,1.08,1.49,1.49,0,0,1-1,.56,9.2,9.2,0,0,1-2,.22c-.94,0-2.18,0-3.72,0a2.46,2.46,0,0,0-.21-.61c-.12-.23-.24-.44-.36-.64l3.4.06c1,0,1.6,0,1.92,0,.52,0,.77-.25.77-.65Z"/><path class="cls-1" d="M608.54,119.29l.81-.91c1,.4,2,.86,3,1.38s2,1,2.95,1.53,1.72.95,2.33,1.32l-.77,1.08c-.61-.4-1.38-.86-2.33-1.38s-1.93-1-3-1.58S609.5,119.72,608.54,119.29Zm1.15,24.32c.7-1.1,1.47-2.42,2.3-4s1.67-3.18,2.5-4.88,1.58-3.31,2.26-4.84l1.1.74q-1,2.21-2.14,4.68t-2.42,4.84c-.83,1.57-1.62,3-2.35,4.26Zm1.15-36.07.91-.83c.87.49,1.78,1,2.74,1.6s1.87,1.14,2.74,1.69,1.58,1,2.16,1.42l-.87,1c-.57-.46-1.29-1-2.16-1.55s-1.77-1.16-2.73-1.75S611.74,108,610.84,107.54Zm11.19,6h1.39v9c0,1.61-.07,3.36-.19,5.24a55.15,55.15,0,0,1-.72,5.81,39.14,39.14,0,0,1-1.54,5.88,23.49,23.49,0,0,1-2.69,5.4,1.25,1.25,0,0,0-.31-.28l-.43-.3a1.28,1.28,0,0,0-.41-.2,24.08,24.08,0,0,0,2.62-5.22,33.88,33.88,0,0,0,1.46-5.64,53.84,53.84,0,0,0,.65-5.62c.11-1.83.17-3.52.17-5.07Zm4.75,23.63,1.2.43a19.11,19.11,0,0,1-1.66,3.56,8.47,8.47,0,0,1-2.9,3l-1-.91a7.8,7.8,0,0,0,2.76-2.63A13.7,13.7,0,0,0,626.78,137.13ZM622.7,113.5h27.55v1.29H622.7Zm3,4.06,8.12-.61.14,1.21-8.11.65ZM627,125h20.11v10.24H627Zm1.44,1.25v3.2h17.23v-3.2Zm0,4.45V134h17.23v-3.28Zm2.59,6.78h1.39v4.71a.72.72,0,0,0,.41.74,5.93,5.93,0,0,0,1.8.17h7a2.08,2.08,0,0,0,1.08-.22,1.33,1.33,0,0,0,.51-.93,14.9,14.9,0,0,0,.19-2.18,2.1,2.1,0,0,0,.6.3c.24.09.47.16.69.22a6.75,6.75,0,0,1-.64,3.18,2.52,2.52,0,0,1-2.19.79h-7.2a12.38,12.38,0,0,1-2.21-.15,1.63,1.63,0,0,1-1.08-.6,2.49,2.49,0,0,1-.31-1.36Zm1.92-23.37h1.39v5.7a2.08,2.08,0,0,0,.24,1.21c.16.21.53.31,1.11.31h8.9c.34,0,.68,0,1,0l.87-.08a3,3,0,0,1,.14.62c0,.25.07.44.1.59a11.27,11.27,0,0,1-1.25.13c-.54,0-1.14,0-1.78,0h-8a4.33,4.33,0,0,1-1.66-.26,1.51,1.51,0,0,1-.84-.89,4.7,4.7,0,0,1-.24-1.66Zm.05-8h1.39v8.21H633Zm.53,3h14.4v1.3H633.5Zm0,7.86,10.65-.86.15,1.21-10.66.86Zm.24,19.4.77-.91a26.28,26.28,0,0,1,3.4,1.43,13.3,13.3,0,0,1,2.69,1.68l-.81,1.13a13.93,13.93,0,0,0-2.67-1.8A23.4,23.4,0,0,0,633.74,136.35Zm2.4-11.1h1.44v9.33h-1.44Zm8.49,12.31,1-.73a27.57,27.57,0,0,1,3.55,2.8,14.63,14.63,0,0,1,2.55,2.94l-1.06.78a15.87,15.87,0,0,0-2.52-2.94A25,25,0,0,0,644.63,137.56Zm5.14-24.06h.29l.29-.09.86.35c-.29.86-.58,1.77-.86,2.74a16.85,16.85,0,0,1-.92,2.44l-1.24-.3q.38-1,.81-2.34c.29-.89.55-1.74.77-2.54Z"/><path class="cls-1" d="M703.45,60.11l1.1.69A35.42,35.42,0,0,1,700,64.06a64.49,64.49,0,0,1-5.69,3.09q-3,1.47-6.24,2.66c-2.13.79-4.18,1.44-6.17,2a2.88,2.88,0,0,0-.31-.6,2.4,2.4,0,0,0-.45-.56,55.08,55.08,0,0,0,6.09-1.77c2.11-.75,4.19-1.6,6.22-2.55a57.18,57.18,0,0,0,5.64-3A29.83,29.83,0,0,0,703.45,60.11Zm-1.64-13.26,1.25.52a33.1,33.1,0,0,1-5.78,3.82,64.31,64.31,0,0,1-7.13,3.22c-2.5,1-4.91,1.77-7.25,2.46l-.26-.35-.36-.43a2,2,0,0,0-.39-.34q3.55-1,7.3-2.29a60.45,60.45,0,0,0,7.06-3A29.34,29.34,0,0,0,701.81,46.85Zm-.91,7.86,1.11.65a40.8,40.8,0,0,1-4,2.46c-1.52.84-3.16,1.64-4.9,2.42s-3.5,1.49-5.26,2.14-3.42,1.2-5,1.66a4.36,4.36,0,0,0-.38-.58,3.27,3.27,0,0,0-.48-.54q2.36-.62,5-1.51t5.23-2q2.6-1.12,4.83-2.32A30.67,30.67,0,0,0,700.9,54.71ZM682.13,39.5h39v8h-1.44V40.76h-36.1V47.5h-1.44Zm5,7.17h28.6V48h-28.6Zm10,4.19,1-.6a19.71,19.71,0,0,1,4.32,5,20.3,20.3,0,0,1,2.33,5.51,19,19,0,0,1,.6,5.27,12.18,12.18,0,0,1-.89,4.32,5.32,5.32,0,0,1-2.14,2.61,5.86,5.86,0,0,1-1.92.84,11.15,11.15,0,0,1-2.3.2l-1.9,0-2.37-.07a2.14,2.14,0,0,0-.12-.63,3.29,3.29,0,0,0-.27-.62l2.55.15c.8,0,1.42.06,1.87.06a12.15,12.15,0,0,0,1.9-.13,4.06,4.06,0,0,0,1.6-.6,4.56,4.56,0,0,0,1.8-2.31,11.56,11.56,0,0,0,.8-4,17.3,17.3,0,0,0-.56-4.92,20,20,0,0,0-2.16-5.23A18.38,18.38,0,0,0,697.11,50.86Zm1.34-15.37,1.35-.39c.54.72,1.1,1.52,1.68,2.42a11.93,11.93,0,0,1,1.2,2.29l-1.3.47a20.06,20.06,0,0,0-1.25-2.35A20.79,20.79,0,0,0,698.45,35.49Zm17.67,15.12,1.15.82q-1.87,1.43-4.22,3t-4.76,3q-2.4,1.4-4.51,2.48l-.91-.69q2.11-1.08,4.56-2.57c1.63-1,3.22-2,4.75-3.07S715,51.5,716.12,50.61Zm-7.59,6.3A25.42,25.42,0,0,0,717,68a22,22,0,0,0,6.19,3.29l-.33.3a3.15,3.15,0,0,0-.36.37l-.31.36a23.41,23.41,0,0,1-6.24-3.49,27.31,27.31,0,0,1-5.09-5.21,26.43,26.43,0,0,1-3.51-6.37Z"/><path class="cls-1" d="M748.9,35.14l1.35.39a25,25,0,0,1-2.93,4,38.31,38.31,0,0,1-3.7,3.62,36.59,36.59,0,0,1-4,3c-.07-.09-.16-.21-.29-.35L739,45.4a2.2,2.2,0,0,0-.39-.32,34.4,34.4,0,0,0,5.79-4.39A24.66,24.66,0,0,0,748.9,35.14Zm-7.87,39a2.11,2.11,0,0,0-.17-.41c-.08-.16-.17-.32-.26-.48a4.85,4.85,0,0,0-.29-.41,5.61,5.61,0,0,0,1-.64,2,2,0,0,0,.62-1.65V48.27h1.39V72.55c-.44.23-.82.43-1.12.61a8.4,8.4,0,0,0-.82.51C741.15,73.85,741,74,741,74.15Zm0,0V73l1-1,11.38-4.4.12.54a3.5,3.5,0,0,0,.12.49L747.2,71.3c-1.59.66-2.79,1.17-3.63,1.53s-1.41.63-1.75.82A7,7,0,0,0,741,74.15Zm1.54-20H754v1.25H742.57Zm.14-5.92h12V61.88h-12V60.63h10.61V49.53H742.71Zm1.92-5h7.82v1.26h-7.82Zm3.12-5.78,1-.78c.89.6,1.83,1.26,2.81,2s1.91,1.39,2.8,2.06S756,42,756.58,42.48l-1,1c-.57-.51-1.3-1.12-2.18-1.81s-1.82-1.4-2.81-2.12S748.65,38.12,747.75,37.52ZM750,63.65l1.15-.39c.67.95,1.35,2,2,3.07s1.33,2.15,1.94,3.15,1.09,1.88,1.44,2.6l-1.2.64c-.35-.75-.83-1.64-1.44-2.7s-1.25-2.14-1.94-3.26S750.65,64.6,750,63.65Zm13.1-28.34,1.39.26a48.66,48.66,0,0,1-3.19,8.3A32.87,32.87,0,0,1,757,50.61a2.92,2.92,0,0,0-.34-.24l-.48-.3a2.77,2.77,0,0,0-.43-.24,25.85,25.85,0,0,0,4.41-6.5A43.28,43.28,0,0,0,763.11,35.31Zm-3,15h19v1.26H761.53v17.1h-1.44Zm1.2-8.72h20.54v1.25H761.29Zm7.92.73h1.44V74.15h-1.44Zm8.92,8h1.4V66.55a1.77,1.77,0,0,1-.2.92,1.2,1.2,0,0,1-.76.5,5.4,5.4,0,0,1-1.52.22c-.68,0-1.59,0-2.71,0a2.1,2.1,0,0,0-.21-.54,3.15,3.15,0,0,0-.36-.54h3.74c.42,0,.62-.2.62-.52Z"/><path class="cls-1" d="M801.64,38.38H803V54.19c0,1.56-.08,3.21-.22,5a35.28,35.28,0,0,1-.84,5.31,23.87,23.87,0,0,1-1.87,5.19,18.29,18.29,0,0,1-3.36,4.66,1.46,1.46,0,0,0-.29-.34l-.38-.33a1.59,1.59,0,0,0-.39-.23,17.93,17.93,0,0,0,3.22-4.48A21.49,21.49,0,0,0,800.68,64a34,34,0,0,0,.77-5c.13-1.67.19-3.27.19-4.8ZM802,59h32.83v1.25H802Zm.43-20.65h32.64v1.3H802.41Zm0,10.2h32.4v1.29h-32.4ZM817,38.77h1.44V73.85H817Zm17.19-.39h1.39v33a2.58,2.58,0,0,1-.41,1.6,2.34,2.34,0,0,1-1.37.74,19.28,19.28,0,0,1-3,.19c-1.39,0-3.27,0-5.64,0a2.62,2.62,0,0,0-.24-.6,5.65,5.65,0,0,0-.38-.7c1.34,0,2.59,0,3.74,0l2.93,0,1.68,0a1.71,1.71,0,0,0,1-.28,1.1,1.1,0,0,0,.29-.88Z"/><path class="cls-1" d="M855.81,55.88h15.84V73.63h-1.44V57.13h-13v17h-1.44Zm.72,14.42h14.21v1.3H856.53Zm6.67-33.13h24.34V50.3H863.2Zm1.44,1.25V49H886.1V38.42Zm13.44,17.46h17.09V73.8h-1.44V57.13H879.47v17h-1.39Zm.86,14.42H894v1.3H878.94Z"/></g></g></svg>