<svg xmlns="http://www.w3.org/2000/svg" viewBox="0 0 81.55 14.57"><defs><style>.cls-1{fill:#595757;}.cls-2{fill:none;stroke:#595757;stroke-miterlimit:10;stroke-width:0.5px;}</style></defs><g id="圖層_2" data-name="圖層 2"><g id="text"><path class="cls-1" d="M3.23,9a3.32,3.32,0,0,1-1.68-.41A3,3,0,0,1,.41,7.42,3.31,3.31,0,0,1,0,5.77,3.41,3.41,0,0,1,.39,4.12,2.9,2.9,0,0,1,3,2.59,2.91,2.91,0,0,1,4.53,3,2.79,2.79,0,0,1,5.6,4.1,3.35,3.35,0,0,1,6,5.75a.25.25,0,0,1,0,.08v.09H.44V5.45H5.65l-.24.23a2.62,2.62,0,0,0-.3-1.32,2.43,2.43,0,0,0-.86-.91A2.36,2.36,0,0,0,3,3.12a2.35,2.35,0,0,0-1.24.33,2.29,2.29,0,0,0-.86.91A2.75,2.75,0,0,0,.59,5.69V5.8A2.67,2.67,0,0,0,.93,7.16a2.44,2.44,0,0,0,.94.92,2.8,2.8,0,0,0,1.37.33A3,3,0,0,0,4.36,8.2a2.3,2.3,0,0,0,.88-.66l.35.39a2.49,2.49,0,0,1-1,.76A3.34,3.34,0,0,1,3.23,9Z"/><path class="cls-1" d="M7.73,8.9l2.6-3.38v.29L7.86,2.64h.68l2.15,2.77h-.25l2.14-2.77h.67l-2.49,3.2,0-.32L13.42,8.9h-.71L10.44,6l.23,0L8.41,8.9Z"/><path class="cls-1" d="M16,11.23V2.64h.57V4.69l-.09,1.09.12,1.1v4.35ZM19.11,9a3,3,0,0,1-1.49-.38,2.74,2.74,0,0,1-1.06-1.1,3.5,3.5,0,0,1-.39-1.7,3.53,3.53,0,0,1,.39-1.7A2.71,2.71,0,0,1,17.62,3a2.88,2.88,0,0,1,1.49-.39A3.23,3.23,0,0,1,20.7,3a2.94,2.94,0,0,1,1.11,1.13,3.41,3.41,0,0,1,.4,1.65,3.43,3.43,0,0,1-.4,1.66A2.91,2.91,0,0,1,20.7,8.55,3.13,3.13,0,0,1,19.11,9Zm0-.54a2.53,2.53,0,0,0,1.29-.33,2.33,2.33,0,0,0,.91-.93,2.82,2.82,0,0,0,.33-1.38,2.76,2.76,0,0,0-.33-1.38,2.33,2.33,0,0,0-.91-.93,2.69,2.69,0,0,0-2.58,0,2.37,2.37,0,0,0-.9.93,2.76,2.76,0,0,0-.33,1.38,2.82,2.82,0,0,0,.33,1.38,2.37,2.37,0,0,0,.9.93A2.53,2.53,0,0,0,19.08,8.41Z"/><path class="cls-1" d="M25.12,8.9V0h.6V8.9Z"/><path class="cls-1" d="M31.78,9a3.06,3.06,0,0,1-2.72-1.53,3.21,3.21,0,0,1-.41-1.65,3.21,3.21,0,0,1,.41-1.65A3.08,3.08,0,0,1,30.18,3a3.12,3.12,0,0,1,1.6-.41A3.21,3.21,0,0,1,33.39,3,3,3,0,0,1,34.5,4.12a3.31,3.31,0,0,1,.41,1.65,3.31,3.31,0,0,1-.41,1.65,2.91,2.91,0,0,1-1.11,1.12A3.11,3.11,0,0,1,31.78,9Zm0-.54a2.53,2.53,0,0,0,1.29-.33,2.24,2.24,0,0,0,.9-.93,2.82,2.82,0,0,0,.33-1.38A2.76,2.76,0,0,0,34,4.39a2.24,2.24,0,0,0-.9-.93,2.69,2.69,0,0,0-2.58,0,2.37,2.37,0,0,0-.9.93,2.76,2.76,0,0,0-.33,1.38,2.82,2.82,0,0,0,.33,1.38,2.37,2.37,0,0,0,.9.93A2.53,2.53,0,0,0,31.78,8.41Z"/><path class="cls-1" d="M37.83,8.9V2.64h.58V4.36l-.06-.2A2.2,2.2,0,0,1,39.23,3a2.83,2.83,0,0,1,1.56-.41v.59h-.14A2.1,2.1,0,0,0,39,3.82a2.64,2.64,0,0,0-.59,1.82V8.9Z"/><path class="cls-1" d="M45.88,9a3.32,3.32,0,0,1-1.68-.41,3,3,0,0,1-1.14-1.12,3.31,3.31,0,0,1-.41-1.65A3.41,3.41,0,0,1,43,4.12a2.9,2.9,0,0,1,2.61-1.53,2.91,2.91,0,0,1,1.53.4A2.79,2.79,0,0,1,48.25,4.1a3.35,3.35,0,0,1,.39,1.65.25.25,0,0,1,0,.08v.09H43.09V5.45H48.3l-.24.23a2.62,2.62,0,0,0-.3-1.32,2.43,2.43,0,0,0-.86-.91,2.51,2.51,0,0,0-2.49,0,2.29,2.29,0,0,0-.86.91,2.75,2.75,0,0,0-.31,1.33V5.8a2.67,2.67,0,0,0,.34,1.36,2.44,2.44,0,0,0,.94.92,2.8,2.8,0,0,0,1.37.33A3,3,0,0,0,47,8.2a2.3,2.3,0,0,0,.88-.66l.35.39a2.49,2.49,0,0,1-1,.76A3.34,3.34,0,0,1,45.88,9Z"/><line class="cls-2" x1="0.28" y1="12.52" x2="81.01" y2="12.52"/><polygon class="cls-1" points="79.35 14.57 79.01 14.2 80.82 12.53 79.01 10.85 79.35 10.48 81.55 12.53 79.35 14.57"/></g></g></svg>