<?xml version="1.0" encoding="UTF-8"?>
<svg id="_圖層_2" data-name="圖層 2" xmlns="http://www.w3.org/2000/svg" viewBox="0 0 64.119141 39.422852">
  <g id="_圖層_4" data-name="圖層 4">
    <g>
      <g>
        <polygon points="0 .449219 2.96582 0 8.489258 36.422852 55.629883 36.422852 61.15332 0 64.119141 .449219 58.208984 39.422852 5.910156 39.422852 0 .449219" fill="#9c9c9d"/>
        <path d="M2.719238,9.853516v-3c2.437012,0,3.694824,1.208008,4.706055,2.177734,.841797,.808594,1.397949,1.342773,2.62793,1.342773,1.229492,0,1.785645-.53418,2.626953-1.341797,1.010742-.970703,2.268066-2.178711,4.70459-2.178711s3.694336,1.208008,4.705078,2.178711c.841309,.807617,1.397461,1.341797,2.626953,1.341797,1.22998,0,1.786133-.53418,2.62793-1.342773,1.01123-.969727,2.269043-2.177734,4.706055-2.177734,2.4375,0,3.695801,1.208008,4.707031,2.177734,.842285,.808594,1.398926,1.342773,2.629395,1.342773s1.786621-.53418,2.628906-1.342773c1.010742-.969727,2.268555-2.177734,4.705566-2.177734,2.437988,0,3.696777,1.208008,4.708008,2.177734,.842773,.808594,1.399414,1.342773,2.630859,1.342773,1.231934,0,1.788574-.53418,2.631348-1.342773,1.011719-.970703,2.27002-2.177734,4.708008-2.177734v3c-1.231445,0-1.788086,.53418-2.630859,1.342773-1.011719,.969727-2.270508,2.177734-4.708496,2.177734s-3.696777-1.208008-4.708008-2.177734c-.842773-.808594-1.399414-1.342773-2.630859-1.342773-1.22998,0-1.786133,.53418-2.62793,1.341797-1.01123,.970703-2.269043,2.178711-4.706543,2.178711s-3.695312-1.208008-4.706543-2.177734c-.842285-.808594-1.398926-1.342773-2.629883-1.342773-1.22998,0-1.786133,.53418-2.62793,1.342773-1.01123,.969727-2.269043,2.177734-4.706055,2.177734-2.436523,0-3.694336-1.208008-4.705078-2.178711-.841309-.807617-1.397461-1.341797-2.626953-1.341797-1.229004,0-1.785156,.53418-2.626465,1.341797-1.010742,.970703-2.268555,2.178711-4.705078,2.178711-2.437012,0-3.694824-1.208008-4.706055-2.177734-.841797-.808594-1.397949-1.342773-2.62793-1.342773Z" fill="#9c9c9d"/>
      </g>
      <circle cx="32.05957" cy="24.575468" r="3.594356" fill="#9c9c9d"/>
    </g>
  </g>
</svg>