<?xml version="1.0" encoding="UTF-8"?>
<svg id="_圖層_2" data-name="圖層 2" xmlns="http://www.w3.org/2000/svg" viewBox="0 0 61.686035 56.813477">
  <g id="_圖層_4" data-name="圖層 4">
    <g>
      <path d="M2.436035,28.407227C2.436035,12.743164,15.179199,0,30.842773,0s28.407227,12.743164,28.407227,28.407227c0,15.663086-12.743652,28.40625-28.407227,28.40625S2.436035,44.070312,2.436035,28.407227Zm53.813965,0c0-14.009766-11.397461-25.407227-25.407227-25.407227C16.833496,3,5.436035,14.397461,5.436035,28.407227c0,14.008789,11.397461,25.40625,25.406738,25.40625,14.009766,0,25.407227-11.397461,25.407227-25.40625Z" fill="#9c9c9d"/>
      <g>
        <rect x="-4.322701" y="26.907264" width="70.331438" height="2.999925" transform="translate(-10.261451 20.119591) rotate(-31.246524)" fill="#9c9c9d"/>
        <rect x="29.343055" y="-6.758493" width="2.999925" height="70.331438" transform="translate(-9.444822 40.032727) rotate(-58.741962)" fill="#9c9c9d"/>
      </g>
    </g>
  </g>
</svg>