<?xml version="1.0" encoding="UTF-8"?>
<svg id="_圖層_2" data-name="圖層 2" xmlns="http://www.w3.org/2000/svg" viewBox="0 0 55.836426 59.001242">
  <g id="_圖層_4" data-name="圖層 4">
    <g>
      <g>
        <rect x="-8.509665" y="31.836313" width="72.855757" height="3.000756" transform="translate(-15.175588 27.532733) rotate(-42.384554)" fill="#9c9c9d"/>
        <rect x="26.417835" y="-3.091188" width="3.000756" height="72.855757" transform="translate(-15.525561 31.492773) rotate(-47.624714)" fill="#9c9c9d"/>
      </g>
      <path d="M27.918614,52.585613h-.002211c-6.511295,0-12.144836-3.718845-14.700712-9.710562-1.704655-3.988582-1.704655-8.56086,0-12.553864,.267527-.451037,13.086707-19.934069,13.086707-30.321186h3.232432c0,10.767404,12.810336,29.861306,12.940783,30.051449,1.850578,4.262742,1.850578,8.83502,.145924,12.828024-2.558088,5.987296-8.191629,9.70614-14.702923,9.70614Zm-.026532-44.068972c-3.499959,10.656856-11.415217,22.688932-11.844144,23.334534-1.218242,2.922897-1.218242,6.575413,.139291,9.754782,2.040722,4.780108,6.535615,7.747225,11.729174,7.751646h.002211c5.19577,0,9.690664-2.971538,11.731385-7.751646,1.357533-3.179369,1.357533-6.831885,0-10.011254-.316168-.428927-8.2867-12.306236-11.757917-23.078062Z" fill="#9c9c9d"/>
    </g>
  </g>
</svg>