<svg xmlns="http://www.w3.org/2000/svg" viewBox="0 0 291.51 65.34"><defs><style>.cls-1{fill:#004e42;}</style></defs><g id="圖層_2" data-name="圖層 2"><g id="圖層_6" data-name="圖層 6"><path class="cls-1" d="M3.78,18.33A23.93,23.93,0,0,1,2.3,24.85L0,24A23.83,23.83,0,0,0,1.52,17.7Zm6.44-1.94L8,17.13a4.56,4.56,0,0,0-.3-1.25C4.72,16.55,2.46,17,1,17.24L.23,15.17A19.35,19.35,0,0,0,5,9.38L1.2,9.89.57,7.64C2,6.61,3.39,4.08,4.85.06l2.4,1a30.22,30.22,0,0,1-3.6,6.29A8.5,8.5,0,0,0,5.16,7.1c.62-.15,1-.23,1.17-.25A34.46,34.46,0,0,0,7.91,3.51l2.31.94A44.6,44.6,0,0,1,4,14.45,22.53,22.53,0,0,0,7,13.73a8.52,8.52,0,0,0-.55-1.5l2.16-.65A29.78,29.78,0,0,1,10.22,16.39ZM7,23.82l-2.17.24a27.2,27.2,0,0,0-.47-5.54l2.1-.3A25.26,25.26,0,0,1,7,23.82Zm3.15-2-2,.41a24.52,24.52,0,0,0-.85-4l2-.45A19.27,19.27,0,0,1,10.14,21.83Zm15,.09H16l.91,1.17a45.23,45.23,0,0,1-6.7,2.2L8.79,23.41A24.8,24.8,0,0,0,14,21.92H11.12v-9h14Zm1.4-18.63h-7V4.4h6.15V6.1H10.74V4.4h6.18V3.29H9.77V1.34h7.15v-1H19.5v1h7Zm-.45,8.54H10.2V7H26.06ZM14.66,10.2V8.7h-2v1.5Zm7.9,5.25V14.39H13.67v1.06Zm0,2.47V16.84H13.67v1.08Zm0,2.4v-1H13.67v1ZM19.16,10.2V8.7H17v1.5Zm7.59,13.26-1.16,1.91a37.81,37.81,0,0,0-6.12-1.23l1.2-1.93A47.72,47.72,0,0,1,26.75,23.46ZM23.7,10.2V8.7H21.59v1.5Z"/><path class="cls-1" d="M57.81,15.85a38,38,0,0,1-.28,4.5A12.14,12.14,0,0,1,57,23.29a3.14,3.14,0,0,1-.85,1,2.6,2.6,0,0,1-1.17.59,10.37,10.37,0,0,1-1.88.13L50.5,25l-.94-2.36c1.56,0,2.92.05,4.09.05a1,1,0,0,0,1-.74,29.68,29.68,0,0,0,.38-4.1H38.74a34,34,0,0,1-5.1,2.66l-1.45-2.15a24.24,24.24,0,0,0,7.38-3.91H36v-8A37,37,0,0,0,43.44,5l1.32,1.86a38,38,0,0,1-6.14,1.33V9.27h5.7v1.82h-5.7v1.39H51.85V11.09h-5.8V9.27h5.8V7.81h-6.3v-2h8.88v8.62H43c-.22.26-.69.72-1.39,1.38Zm.09-8.38H55.29v-3h-20V7.5H32.59V2.31H44A16.25,16.25,0,0,0,43.09.54L45.81,0a25.06,25.06,0,0,1,1.12,2.31h11Zm-18,12.22a25.07,25.07,0,0,1-3.81,5.44L34,23.85A30.4,30.4,0,0,0,37.57,19Zm4,4.27-2.46.46a24.62,24.62,0,0,0-1.14-5.06l2.43-.3A32.65,32.65,0,0,1,43.92,24ZM48.61,23l-2.22.71a25.63,25.63,0,0,0-1.86-4.49l2.19-.67A21.94,21.94,0,0,1,48.61,23Zm4.7-1.74-2.15.92A16.85,16.85,0,0,0,49.05,19l2.17-.82A20.85,20.85,0,0,1,53.31,21.29Z"/><path class="cls-1" d="M73,19.78a74.8,74.8,0,0,1-8.38,3.5L64,20.89a34.39,34.39,0,0,0,3.27-1.2V9.21H64.36V6.82h2.87V.29h2.68V6.82h2.7V9.21h-2.7v9.31a31.78,31.78,0,0,0,2.9-1.33Zm17.33-.12a8.38,8.38,0,0,1-.77,3.84,3,3,0,0,1-2.31,1.2,58.26,58.26,0,0,1-5.87.2c-2.21,0-3.71,0-4.51-.12A2.87,2.87,0,0,1,75,23.94a3.14,3.14,0,0,1-.67-2.19V12.68l-2.08.78L72,10.88l2.4-.93V3.56H77V8.89l3.51-1.31V.26h2.61V6.55l6.24-2.42A65.07,65.07,0,0,1,88,16.59l-2.55-.74a48.17,48.17,0,0,0,1.1-8l-3.5,1.35V19.9H80.47V10.26L77,11.61v9.9c0,.55.21.85.64.91s1.8.08,4.12.08,3.91,0,4.64-.05a1.16,1.16,0,0,0,1.25-1,19.93,19.93,0,0,0,.2-2.72Z"/><path class="cls-1" d="M105.92,18.27a67.19,67.19,0,0,1-8.76,4.85l-1-2.4a32.45,32.45,0,0,0,3.56-1.66V12H96.93V9.71h2.81V4.11H96.56V1.71h9v2.4h-3.24v5.6h2.79V12h-2.79v5.65a26.56,26.56,0,0,0,3.21-1.82Zm6-1.17a47.61,47.61,0,0,1-6.36,6l-1.71-2a48.3,48.3,0,0,0,6.41-5.9Zm11,3.73-1.62,2a20.42,20.42,0,0,1-6.21-9.18v8.81a2.38,2.38,0,0,1-.5,1.48,2.82,2.82,0,0,1-1.09.9,4.81,4.81,0,0,1-1.81.25c-.75,0-1.55,0-2.39-.07l-.85-2.45q.77.06,3.12.06a1,1,0,0,0,.59-.26.7.7,0,0,0,.32-.51V7.15h-7.08V4.79h7.08V.2h2.61V4.79h7.44V7.15h-7.44V8a25.6,25.6,0,0,0,1.56,4,17.42,17.42,0,0,0,3.62-4l2,1.77a22.14,22.14,0,0,1-4.51,4.47A19.2,19.2,0,0,0,123,20.83ZM111.5,13.11l-2.3,1.22a21.73,21.73,0,0,0-3.6-5.09l2.31-1.32A21.36,21.36,0,0,1,111.5,13.11ZM121.64,3l-2.15,1.55a12.93,12.93,0,0,0-2.7-2.77l2-1.57A12.61,12.61,0,0,1,121.64,3Z"/><path class="cls-1" d="M154.52,24.69H128.44v-2.2h3.12V18.08h19.86v4.41h3.1ZM140.86,4h-3.54v1.2h-2.58V4h-6.21V1.79h6.21V.2h2.58V1.79h3.54Zm2,12.79H129.92V5.9h12.92v2h-4.76V9h3.62v4.68h-3.65v1.17h4.79ZM135.56,9V7.92h-3.09V9Zm3.65,2.88V10.8h-6.74v1.08Zm-3.65,3V13.68h-3.09v1.17Zm1.73,7.64V20.21h-3.12v2.28Zm5.77,0V20.21h-3.21v2.28ZM154.49,10.8h-8.25a19.63,19.63,0,0,1-2.37,2.66l-1.81-1.85a15.3,15.3,0,0,0,4-5.85l2.4.74a15.08,15.08,0,0,1-1,2.11h7ZM154.57,4h-6.24V5.25h-2.6V4h-3.52V1.79h3.52V.2h2.6V1.79h6.24Zm-1,11.6H145V13.43h8.6Zm-4.76,6.9V20.21h-3.12v2.28Z"/><path class="cls-1" d="M185.47,25.2h-2.64V23.71H164.05v1.42h-2.58V.71h24Zm-2.64-3.71V2.91H164.05V21.49Zm-1-10.78H165V9h7.19V8h-6V3.83h14.46V8h-6V9h7.15ZM181,20.55H165.88V11.66H181Zm-2.52-1.68v-5.5H168.43v5.5ZM178.07,6.5V5.36H168.8V6.5ZM176.93,18H170V14.25h6.93Zm-2.26-1.36v-1h-2.43v1Z"/><path class="cls-1" d="M121,53.11c-.2,2.61-.43,4.78-.67,6.51a12.08,12.08,0,0,1-.77,3.31,3.62,3.62,0,0,1-1.26,1.3,4.82,4.82,0,0,1-1.69.72,32,32,0,0,1-4.37.17c-1.44,0-2.66,0-3.66-.07l-1-2.56,7.22.19a2.27,2.27,0,0,0,2.34-1.26,26.82,26.82,0,0,0,.94-6.14h-11.7l1.4-8.43h10.51V43H106.1V40.71H121v8.45H110.1l-.66,4Zm9,12.09h-2.65V40.32H130Z"/><path class="cls-1" d="M149.87,46.1l-1.53,2a31.19,31.19,0,0,0-4.48-4.45,25.07,25.07,0,0,1-3.12,4h6.66V50h-7.13v-1.8l-1.89,1.63-1.65-1.92A21,21,0,0,0,143,40l2.52.68a5.63,5.63,0,0,1-.46,1A33.82,33.82,0,0,1,149.87,46.1Zm-1,8.12a16,16,0,0,1-1.14,2.4A41.71,41.71,0,0,1,145.12,61c.95,1,1.76,1.86,2.43,2.69l-2,1.57a44.46,44.46,0,0,0-7-6.68l1.86-1.48a32,32,0,0,1,2.78,2.26,35.58,35.58,0,0,0,2.86-5h-8.7V51.94h11.51ZM163,43.08h-5.24a19.4,19.4,0,0,1-.79,2.28h5V59.8h-8l1.58,1.32A22.37,22.37,0,0,1,150,65.34l-1.68-1.93a19.31,19.31,0,0,0,5.23-3.61h-3.06V45.36h3.72a13,13,0,0,0,.83-2.28h-5.55V40.77H163Zm-3.6,6.3v-1.8H153.1v1.8Zm0,4V51.52H153.1v1.85Zm0,4.17v-2H153.1v2Zm3.75,5.87-1.55,1.85a34.84,34.84,0,0,0-5-3.23l1.55-1.77A33.13,33.13,0,0,1,163.18,63.41Z"/><path class="cls-1" d="M177.44,58a68.93,68.93,0,0,1-8.13,4.5l-.77-2.28c.91-.42,2-1,3.29-1.68V51.77h-2.55V49.38h2.55v-5.5h-3V41.54h8.26v2.34h-2.74v5.5h2.44v2.39h-2.44v5.44c.84-.49,1.78-1.09,2.8-1.79Zm16.18-1.2h-8.13A17.39,17.39,0,0,1,183,59.36v2.81c1.24-.36,2.53-.79,3.89-1.28l.34,2.25a36.47,36.47,0,0,1-6.52,2L180,63.2a1.16,1.16,0,0,0,.57-1V61.1a31.94,31.94,0,0,1-3.63,1.82l-1.32-2.17a20.29,20.29,0,0,0,6.64-3.91h-3.78V51.48h15.18Zm1.28-6.67H177.47V48.1H194.9Zm-.8-3.29H178.19V40.71H194.1Zm-11.4-2.09v-2h-2v2Zm8.31,10V53.57h-10v1.25Zm-3.87-10v-2h-2v2Zm8.07,18.46-1.36,2.06a11.46,11.46,0,0,1-4.92-2.86A9.31,9.31,0,0,1,186.2,58l2.29-.54a6.41,6.41,0,0,0,1.14,2.14,16.06,16.06,0,0,0,3.09-2.31l1.83,1.57a18.71,18.71,0,0,1-3.34,2.42A12.32,12.32,0,0,0,195.21,63.25Zm-3.66-18.46v-2h-2v2Z"/><path class="cls-1" d="M208.6,40.65c-.41,1.23-.82,2.37-1.24,3.43l-.62,1.47V65.11H204V50.71c-.63.91-1.27,1.76-1.92,2.54l-1.39-2.62a35.78,35.78,0,0,0,5.37-10.52Zm6.3,17a27.21,27.21,0,0,1-5,6.74l-2.24-1.55a28.3,28.3,0,0,0,4.88-6.34Zm12.28-2.34H219v9.8h-2.71v-9.8h-8.22V52.86h8.22V50.17h-6.59V41h15.74v9.17H219v2.69h8.16Zm-4.44-7.59v-4.3H212.47v4.3Zm4.67,15.53L225,64.53a40.14,40.14,0,0,0-4.5-6.8l2.32-1.23A42.16,42.16,0,0,1,227.41,63.25Z"/><path class="cls-1" d="M238.22,57.44a25,25,0,0,1-2.91,5.7l-2.16-1.54a22.06,22.06,0,0,0,2.76-5.21Zm8.94-1.8h-5.61v9.52h-2.64V55.64h-5.52V53.28h5.52V51H233.7V48.75h2.94a26.39,26.39,0,0,0-1.26-3.25l1.79-.88h-3.42V42.34h4.81a7.7,7.7,0,0,0-.91-1.74l2.86-.6a18.73,18.73,0,0,1,1.11,2.34h5v2.28h-3.25l1.86,1a26.55,26.55,0,0,1-1.53,3.16h2.95V51h-5.14v2.24h5.61Zm-4.41-11h-4.88a28.71,28.71,0,0,1,1.58,4.13h1.6A24.64,24.64,0,0,0,242.75,44.62Zm3.88,15.56-2.17,1.17a19.09,19.09,0,0,0-1.92-4.28l2.23-1A15.94,15.94,0,0,1,246.63,60.18Zm12.83-9h-2.72V65.11h-2.61V51.17h-3q-.09,9.75-3.43,14l-2.18-1.69q2.92-3.75,2.93-11.47V42.2a32.4,32.4,0,0,0,8.46-2.12l1.84,2.12a38.51,38.51,0,0,1-7.62,2.16v4.36h8.36Z"/><path class="cls-1" d="M291.51,61.78H279.75v3.33H277.2V61.78H265.38V59.69H277.2v-1.5h-9V49.46h20.61v8.73h-9.07v1.5h11.76Zm0-13.65h-26.1V46.07H272L270.87,44h-4.38V42h10.36a8,8,0,0,0-1-1.17l2.7-.73A12.22,12.22,0,0,1,280,42h10.53v2h-4.35c-.09.17-.54.86-1.35,2.08h6.72Zm-5.31,4.73V51.43H270.81v1.43Zm0,3.3V54.74H270.81v1.42Zm-3-12.17h-9.33l1,2.08h6.93A10.68,10.68,0,0,0,283.18,44Z"/></g></g></svg>