<svg xmlns="http://www.w3.org/2000/svg" xmlns:xlink="http://www.w3.org/1999/xlink" viewBox="0 0 123.34 60.05"><defs><style>.cls-1{fill:#004e42;}.cls-2{clip-path:url(#clip-path);}.cls-3{fill:#fff;}</style><clipPath id="clip-path" transform="translate(37.16)"><circle class="cls-1" cx="30" cy="30" r="30"/></clipPath></defs><g id="圖層_2" data-name="圖層 2"><g id="圖層_6" data-name="圖層 6"><circle class="cls-1" cx="67.16" cy="30" r="30"/><g class="cls-2"><path class="cls-3" d="M38.1,57.16a23.07,23.07,0,0,1-23-20.81h23A14.2,14.2,0,0,0,38.1,8a26,26,0,0,0-7.55,1.11h0l-.37.12h0l-.1,0h0L-26.16,27.14a17.09,17.09,0,0,0-11,15.91,17,17,0,0,0,17,17H86.19V57.16Zm11.3-35A11.32,11.32,0,0,1,38.1,33.47H15A23.05,23.05,0,0,1,31,11.94h0l.08,0,.27-.08a23.29,23.29,0,0,1,6.71-1A11.32,11.32,0,0,1,49.4,22.16Z" transform="translate(37.16)"/></g></g></g></svg>