<svg xmlns="http://www.w3.org/2000/svg" viewBox="0 0 22.61 22.6"><defs><style>.cls-1{fill:#fff;fill-rule:evenodd;}</style></defs><g id="圖層_2" data-name="圖層 2"><g id="obj2"><g id="J9qhXG"><path class="cls-1" d="M11.28,22.58c-1.66,0-3.33.06-5,0A6.14,6.14,0,0,1,1,19.63,6.45,6.45,0,0,1,0,16.35C0,13,0,9.61.05,6.25A6,6,0,0,1,3.25.81a6.5,6.5,0,0,1,3-.77C9.63,0,13,0,16.36.05a6,6,0,0,1,5.44,3.2,6.5,6.5,0,0,1,.77,3c0,3.38.08,6.76,0,10.13a6,6,0,0,1-3.17,5.42,6.66,6.66,0,0,1-3.11.8C14.61,22.61,13,22.58,11.28,22.58Zm8.2-11.25c0-1.48-.06-2.95-.11-4.41a3.55,3.55,0,0,0-3.61-3.66c-3-.06-5.95,0-8.93,0a3.74,3.74,0,0,0-1.95.59A3.52,3.52,0,0,0,3.26,6.9c-.07,1.82-.09,3.65-.09,5.47a34.93,34.93,0,0,0,.15,3.83,3.2,3.2,0,0,0,2.54,3,8.74,8.74,0,0,0,2.1.25q3.85,0,7.71-.06a3.59,3.59,0,0,0,3.7-3.67C19.42,14.24,19.45,12.78,19.48,11.33Z"/><path class="cls-1" d="M16.26,11.3a5,5,0,1,1-5-5A5,5,0,0,1,16.26,11.3Zm-2.48,0a2.48,2.48,0,1,0-2.47,2.48A2.5,2.5,0,0,0,13.78,11.3Z"/><path class="cls-1" d="M16.55,7.38A1.31,1.31,0,0,1,15.23,6a1.33,1.33,0,0,1,1.39-1.35,1.36,1.36,0,1,1-.07,2.72Z"/></g></g></g></svg>