<svg xmlns="http://www.w3.org/2000/svg" viewBox="0 0 234.11 116.01"><defs><style>.cls-1{fill:#fff;}.cls-2{fill:#ffc500;}</style></defs><g id="圖層_2" data-name="圖層 2"><g id="obj2"><path class="cls-1" d="M1.4,83.31H16.65V87H15V84.75H3V87H1.4Zm1.08,8.77H15.64v6.55H14V93.34H4.09v5.34H2.48Zm1.14,2.45H14.54v1.11H3.62Zm0,2.32H14.51v1.28H3.64Zm.09-9.13H14.2V91.2H3.73Zm.18-2H14.08v1.19H3.91Zm1.4,3.18V90h7.24V88.87Zm2.23-6.75,1.82-.39a10.61,10.61,0,0,1,.53,1c.17.36.31.66.41.91l-1.89.47A9.33,9.33,0,0,0,8,83.12C7.86,82.76,7.7,82.42,7.54,82.12ZM8.08,92.6H9.76v4.7H8.08Z"/><path class="cls-1" d="M20.4,91.74h8.8v1.58H20.4Zm8-8.34.91,1.44a14.43,14.43,0,0,1-1.84.55c-.68.16-1.38.31-2.12.45s-1.47.26-2.21.35-1.46.18-2.16.25a5.93,5.93,0,0,0-.19-.71,4.68,4.68,0,0,0-.28-.69c.69-.08,1.39-.18,2.12-.3s1.44-.24,2.14-.37,1.36-.29,2-.45S28,83.58,28.43,83.4ZM24.27,82H26v6.71c0,.94-.05,1.87-.14,2.79a15,15,0,0,1-.51,2.67,8.88,8.88,0,0,1-1.15,2.46,9.22,9.22,0,0,1-2.09,2.16,2.42,2.42,0,0,0-.39-.42l-.5-.44a3.12,3.12,0,0,0-.49-.34,8.48,8.48,0,0,0,1.92-1.91,7.56,7.56,0,0,0,1.07-2.17,11.52,11.52,0,0,0,.47-2.35q.12-1.2.12-2.46Zm-3.22,6H28.7v1.51H21.05Zm8.8-5h5.61v1.58H31.52V98.67H29.85Zm5.22,0h.34l.25-.08,1.24.8c-.38.86-.81,1.77-1.27,2.73s-.92,1.84-1.35,2.63a7.6,7.6,0,0,1,1.45,1.57,5.33,5.33,0,0,1,.71,1.44,4.72,4.72,0,0,1,.19,1.31,4.31,4.31,0,0,1-.24,1.53,2,2,0,0,1-.76,1,2.46,2.46,0,0,1-.59.27,3.88,3.88,0,0,1-.71.16c-.24,0-.51,0-.81,0a6,6,0,0,1-.86,0,4.37,4.37,0,0,0-.15-.82,3.28,3.28,0,0,0-.34-.83l.8.05h.64a3.06,3.06,0,0,0,.45-.06,1.72,1.72,0,0,0,.4-.14.87.87,0,0,0,.42-.5,2.55,2.55,0,0,0,.12-.83,3.85,3.85,0,0,0-.53-1.79,7.25,7.25,0,0,0-2-2.12c.24-.44.48-.92.73-1.44s.48-1,.7-1.58l.63-1.5c.2-.48.37-.89.5-1.24Z"/><path class="cls-1" d="M44.81,90.82h1.76a17.45,17.45,0,0,1-.41,2.52,8.17,8.17,0,0,1-.88,2.2,6.23,6.23,0,0,1-1.6,1.82,9.24,9.24,0,0,1-2.63,1.38,2.49,2.49,0,0,0-.27-.5c-.12-.17-.25-.35-.39-.53a2.44,2.44,0,0,0-.41-.43,8.38,8.38,0,0,0,2.36-1.12,5.16,5.16,0,0,0,1.4-1.49,6.54,6.54,0,0,0,.73-1.79A15.53,15.53,0,0,0,44.81,90.82Zm-4.57-1.26H56.18V91.2H40.24Zm3.16-7.27,1.73.34c-.19.69-.42,1.42-.69,2.18A23.52,23.52,0,0,1,43.52,87a9.79,9.79,0,0,1-1.14,1.86c-.13-.09-.29-.18-.47-.28l-.54-.29a3.79,3.79,0,0,0-.49-.21A9.24,9.24,0,0,0,42,86.32a16.55,16.55,0,0,0,.85-2A20,20,0,0,0,43.4,82.29Zm-.19,2.3H54.83v1.64H43.21Zm4.14-2.65h1.72v8.12H47.35Zm2.26,8.84h1.71v5.31a.76.76,0,0,0,.14.55,1,1,0,0,0,.62.12h2a.57.57,0,0,0,.47-.19,1.43,1.43,0,0,0,.22-.74c.05-.36.08-.93.1-1.68a3.09,3.09,0,0,0,.46.28,5.89,5.89,0,0,0,.58.24,4.67,4.67,0,0,0,.51.16,10,10,0,0,1-.3,2.17,1.9,1.9,0,0,1-.66,1.07,2.11,2.11,0,0,1-1.23.31H51.85a3.56,3.56,0,0,1-1.38-.21,1.2,1.2,0,0,1-.67-.71,4.17,4.17,0,0,1-.19-1.37Z"/><path class="cls-1" d="M63.36,90.55h.42l.27,0,.83.31a14.82,14.82,0,0,1-1.53,4.89,8.31,8.31,0,0,1-2.61,3,4,4,0,0,0-.31-.4c-.13-.15-.27-.29-.41-.43a2.42,2.42,0,0,0-.4-.32,7.16,7.16,0,0,0,2.43-2.59,11.18,11.18,0,0,0,1.31-4.1ZM60.3,92.17a1.92,1.92,0,0,0-.15-.47c-.08-.18-.15-.36-.22-.55s-.14-.33-.2-.44a1.92,1.92,0,0,0,.43-.17,2.14,2.14,0,0,0,.47-.39,6.32,6.32,0,0,0,.59-.68c.25-.33.53-.69.82-1.09s.57-.79.83-1.17.46-.69.62-.93v0L64,86l1.06.49-.77,1.09c-.29.41-.6.84-.92,1.27s-.65.86-1,1.26-.61.75-.87,1c-.24.13-.44.25-.6.35a2.53,2.53,0,0,0-.43.32A.48.48,0,0,0,60.3,92.17Zm-.28-6H63.9v1.39H60Zm.28,6V90.91l.71-.36h2.88V91.9H61.4a2.84,2.84,0,0,0-.66.08A1,1,0,0,0,60.3,92.17Zm.29-9.45,1.26-.78c.29.29.58.6.87.94l.84,1a10.35,10.35,0,0,1,.65.83l-1.3.94c-.16-.26-.38-.55-.64-.89s-.53-.68-.82-1S60.87,83,60.59,82.72Zm2.85,11.46A3.73,3.73,0,0,0,64.88,96a5.59,5.59,0,0,0,2.24.75,22.65,22.65,0,0,0,3,.18l2.12,0,2.36-.09c.79,0,1.51-.09,2.14-.15a2.29,2.29,0,0,0-.23.47,5.26,5.26,0,0,0-.19.6c0,.2-.1.38-.13.54l-1.91.09-2.09,0-2.09,0a23.78,23.78,0,0,1-2.82-.15,8.32,8.32,0,0,1-2.17-.52,4.73,4.73,0,0,1-1.65-1.1,6.38,6.38,0,0,1-1.21-1.94Zm4.23-12.13,1.42.42a23.84,23.84,0,0,1-2.5,5,16.63,16.63,0,0,1-1.53,2c-.06-.11-.15-.25-.26-.43s-.22-.34-.33-.52a4.62,4.62,0,0,0-.31-.42,13.87,13.87,0,0,0,2-2.73A18.51,18.51,0,0,0,67.67,82.05Zm.16,2.83h8.1v1.38h-8.1v8.82H66.3v-8.8l1.31-1.4ZM67,87.81h8.31v1.32H67Zm0,5.87h9.25v1.4H67Zm.07-3h8.26V92H67.11Zm3.11-8.12,1.41-.39a15.21,15.21,0,0,1,.78,1.46A11.83,11.83,0,0,1,72.94,85l-1.48.47a11.66,11.66,0,0,0-.5-1.38A14.31,14.31,0,0,0,70.22,82.59Zm.43,2.85h1.5v8.94h-1.5Z"/><path class="cls-1" d="M83.13,86.79l1.15.41a22.56,22.56,0,0,1-.65,2.27c-.26.78-.55,1.54-.86,2.28a20.29,20.29,0,0,1-1,2.09,10.2,10.2,0,0,1-1.13,1.66,5,5,0,0,0-.41-.86l-.49-.82a10.47,10.47,0,0,0,1-1.42,17,17,0,0,0,1-1.75c.3-.63.57-1.28.81-1.94A18,18,0,0,0,83.13,86.79ZM80.3,85.74h7v1.62h-7Zm2.9-3.8h1.71V98.63H83.2Zm1.58,5.78a4.81,4.81,0,0,1,.49.47l.68.73c.26.27.5.54.75.81l.67.74c.19.22.34.38.42.49l-1,1.46c-.14-.24-.34-.54-.59-.89l-.8-1.1c-.28-.38-.56-.73-.82-1.06s-.48-.6-.65-.8Zm8.12-1.2,1.37.82a21.59,21.59,0,0,1-1.21,2.4,23,23,0,0,1-3.34,4.44,15.24,15.24,0,0,1-1.86,1.7,6,6,0,0,0-.56-.75,4.56,4.56,0,0,0-.66-.66A13,13,0,0,0,88.49,93a18.48,18.48,0,0,0,1.75-2,23.45,23.45,0,0,0,1.51-2.22A16.71,16.71,0,0,0,92.9,86.52Zm-5-.78h8.75v1.64H87.9ZM93.05,82h1.8V96.45a2.76,2.76,0,0,1-.21,1.22,1.29,1.29,0,0,1-.69.6,4.35,4.35,0,0,1-1.34.28q-.83.06-2,.06a6.59,6.59,0,0,0-.24-.87,6.27,6.27,0,0,0-.35-.87l1.57,0a9.13,9.13,0,0,0,1,0,.54.54,0,0,0,.35-.09.47.47,0,0,0,.1-.34Z"/><path class="cls-1" d="M101.42,90.44l1.22.43c-.12.67-.28,1.39-.49,2.14a17.14,17.14,0,0,1-.73,2.13,6.68,6.68,0,0,1-1,1.64,5,5,0,0,0-.21-.66c-.09-.23-.19-.47-.3-.7s-.21-.44-.3-.61a7.67,7.67,0,0,0,.73-1.24A14.3,14.3,0,0,0,101,92,13.69,13.69,0,0,0,101.42,90.44ZM99.91,88h7.23v1.59H99.91Zm.07-4.59,1.21-.3a9.55,9.55,0,0,1,.47,1.37c.14.49.26,1,.35,1.44a8.11,8.11,0,0,1,.18,1.26l-1.31.32a7.94,7.94,0,0,0-.15-1.25c-.09-.47-.2-1-.33-1.45A13.33,13.33,0,0,0,100,83.38Zm2.75-1.44h1.59V98.65h-1.59Zm2.34,8.54a7.56,7.56,0,0,1,.43.67l.59,1c.21.37.4.72.58,1s.29.56.37.7l-1.21,1.28c-.08-.27-.2-.58-.34-1s-.3-.75-.47-1.15-.33-.78-.49-1.13-.28-.63-.39-.84Zm.76-7.47,1.48.34c-.16.45-.32.94-.49,1.45s-.34,1-.5,1.46-.33.86-.49,1.19l-1.12-.3c.15-.37.29-.8.44-1.29s.28-1,.4-1.49A13.24,13.24,0,0,0,105.83,83Zm1.28,10.31,9.25-1.67.25,1.58-9.23,1.67Zm.32-4.54.81-1.2q.53.27,1.11.63c.39.24.76.48,1.1.73a5.71,5.71,0,0,1,.83.69L110.44,91a6.8,6.8,0,0,0-.81-.73q-.51-.39-1.08-.78C108.16,89.22,107.79,89,107.43,88.78Zm.88-4.53.85-1.15a9.84,9.84,0,0,1,1.07.67c.37.26.71.52,1,.78a6.17,6.17,0,0,1,.77.74l-.88,1.28a7.73,7.73,0,0,0-.76-.76c-.31-.27-.65-.55-1-.82A12.3,12.3,0,0,0,108.31,84.25Zm4.43-2.31h1.62V98.63h-1.62Z"/><path class="cls-1" d="M120.59,82.59h1.53v6.5c0,.71,0,1.48,0,2.3s-.09,1.68-.18,2.54a24.34,24.34,0,0,1-.41,2.51,11.24,11.24,0,0,1-.69,2.21,2.47,2.47,0,0,0-.4-.28l-.53-.29a2.37,2.37,0,0,0-.46-.19,10.46,10.46,0,0,0,.66-2.07,18.68,18.68,0,0,0,.35-2.28c.07-.78.12-1.55.14-2.31s0-1.47,0-2.14Zm1,0h3.66v1.55H121.6Zm.09,4.43,1-.76c.37.34.75.71,1.14,1.12a9.92,9.92,0,0,1,.91,1.06l-1.06.87a11.9,11.9,0,0,0-.89-1.12Q122.23,87.55,121.69,87Zm.18,4.79c.45-.16,1-.36,1.55-.61l1.84-.8.25,1.17L124,92.5c-.51.31-1,.6-1.44.89Zm2.52-9.22h1.53V96.65a3.19,3.19,0,0,1-.12.95,1.11,1.11,0,0,1-.49.6,2.46,2.46,0,0,1-.91.25,13.32,13.32,0,0,1-1.38,0,2.81,2.81,0,0,0-.09-.5c-.06-.19-.11-.39-.17-.58a2.26,2.26,0,0,0-.19-.52l1,0h.57c.2,0,.29-.1.29-.31Zm9.51,7.24h.34l.3-.06,1.08.4a11.34,11.34,0,0,1-1.33,3.12,11,11,0,0,1-2,2.39,12.08,12.08,0,0,1-2.49,1.74A16.41,16.41,0,0,1,127,98.58a4.35,4.35,0,0,0-.24-.49c-.11-.18-.21-.36-.33-.53a2.71,2.71,0,0,0-.35-.44,13.42,13.42,0,0,0,2.64-1A10.54,10.54,0,0,0,131,94.67a9.57,9.57,0,0,0,1.79-2,9.24,9.24,0,0,0,1.16-2.55Zm-5.51-7.22H130v2a7.4,7.4,0,0,1-.21,1.71,4.89,4.89,0,0,1-.82,1.69,5.31,5.31,0,0,1-1.76,1.44,2.26,2.26,0,0,0-.29-.4l-.43-.45a2.94,2.94,0,0,0-.37-.32,4.78,4.78,0,0,0,1.51-1.16,3.53,3.53,0,0,0,.65-1.28,5.84,5.84,0,0,0,.16-1.29Zm-1.68,7.22h7.55v1.6h-7.55Zm2,1.31a9.72,9.72,0,0,0,1.69,2.68A10.43,10.43,0,0,0,133,95.87a11.69,11.69,0,0,0,3.29,1.28,3.06,3.06,0,0,0-.41.45,6.55,6.55,0,0,0-.39.53,3.74,3.74,0,0,0-.32.5,12,12,0,0,1-3.38-1.53,11.42,11.42,0,0,1-2.62-2.38,13,13,0,0,1-1.87-3.13Zm-.09-8.53h4.91v1.58h-4.91Zm3.92,0h1.61v4.1a2.29,2.29,0,0,0,0,.54.2.2,0,0,0,.21.15h.88l.41,0a1.88,1.88,0,0,0,.4-.08c0,.2,0,.44.06.7s0,.5.07.69a2.87,2.87,0,0,1-.42.08,4.18,4.18,0,0,1-.5,0h-1a2.23,2.23,0,0,1-1.07-.21,1.13,1.13,0,0,1-.5-.69,4.39,4.39,0,0,1-.14-1.2Z"/><path class="cls-1" d="M143.76,82l1.62.48a25.59,25.59,0,0,1-1.37,3,26.53,26.53,0,0,1-1.71,2.85,21.7,21.7,0,0,1-1.9,2.36,3.05,3.05,0,0,0-.25-.54l-.35-.67a2.46,2.46,0,0,0-.34-.52,16.74,16.74,0,0,0,1.67-2,22.76,22.76,0,0,0,1.48-2.41A19.77,19.77,0,0,0,143.76,82Zm-1.85,4.77,1.65-1.66,0,0V98.63h-1.67Zm6.57,3.34,1.69.09a14.56,14.56,0,0,1-1.3,5.13,7.66,7.66,0,0,1-3.13,3.23,2.93,2.93,0,0,0-.29-.41q-.21-.24-.45-.48a4.13,4.13,0,0,0-.41-.37,6.07,6.07,0,0,0,2.84-2.75A11.88,11.88,0,0,0,148.48,90.13Zm-.56-7.34,1.67.41a16.23,16.23,0,0,1-2.28,4.9A10.09,10.09,0,0,1,145.69,90a3.58,3.58,0,0,0-.29-.48l-.41-.58c-.15-.19-.27-.35-.38-.47a9.44,9.44,0,0,0,2-2.46A13.84,13.84,0,0,0,147.92,82.79Zm-1.39,6.5h6.93v1.58h-6.93Zm6.39,0h1.66v.44a2,2,0,0,1,0,.28c-.05,1.31-.1,2.42-.17,3.34s-.13,1.67-.21,2.27a9.44,9.44,0,0,1-.25,1.41,1.88,1.88,0,0,1-.34.75,1.55,1.55,0,0,1-.54.47,1.69,1.69,0,0,1-.67.18,6.29,6.29,0,0,1-.89.07l-1.14,0a5.4,5.4,0,0,0-.14-.8,3,3,0,0,0-.31-.77c.36,0,.68.06,1,.07s.51,0,.67,0a1.05,1.05,0,0,0,.34,0,.58.58,0,0,0,.25-.21,2.4,2.4,0,0,0,.33-.95,21.88,21.88,0,0,0,.25-2.24c.07-1,.14-2.31.21-3.94Zm-2.79-6.77H153v1.64h-2.88Zm1.3,0h1.87a12.85,12.85,0,0,0,.75,2.27,10.92,10.92,0,0,0,1.12,2,6.85,6.85,0,0,0,1.43,1.46c-.11.14-.23.31-.37.52s-.27.42-.4.65-.23.42-.31.6a9.89,9.89,0,0,1-1.59-1.84,14.77,14.77,0,0,1-1.26-2.28,15.76,15.76,0,0,1-.86-2.47h-.38Z"/><path class="cls-1" d="M165.13,81.93l1.75.41a28.2,28.2,0,0,1-1.54,3.88,19.77,19.77,0,0,1-2.22,3.57,14.07,14.07,0,0,1-3,2.86c-.08-.13-.19-.27-.32-.44s-.27-.32-.41-.47a5.07,5.07,0,0,0-.38-.4,11.61,11.61,0,0,0,2.16-1.87,17.05,17.05,0,0,0,1.73-2.32,18.51,18.51,0,0,0,1.33-2.58A18,18,0,0,0,165.13,81.93Zm-5.74,2.28h15.9v1.6h-15.9Zm3.35,3.39h1.71v4.8c0,.52,0,1.06-.08,1.63a10.28,10.28,0,0,1-.32,1.71,7.4,7.4,0,0,1-.65,1.63,5.16,5.16,0,0,1-1.13,1.39,2.13,2.13,0,0,0-.31-.44c-.15-.18-.31-.35-.47-.51a4,4,0,0,0-.42-.37,4.32,4.32,0,0,0,1.12-1.55,6.77,6.77,0,0,0,.45-1.77,15.16,15.16,0,0,0,.1-1.75Zm.94,0H172v1.53h-8.29Zm0,6.08h8.43v1.44h-8.43Zm.08-3h8.37V92.1h-8.37Zm7.77-3.06h1.66v9.09a2.81,2.81,0,0,1-.17,1.07,1.23,1.23,0,0,1-.66.6,4.45,4.45,0,0,1-1.27.23c-.52,0-1.16,0-1.92,0a4.08,4.08,0,0,0-.19-.84,8.69,8.69,0,0,0-.33-.82l1.05,0c.33,0,.63,0,.88,0h.54a.51.51,0,0,0,.32-.08.36.36,0,0,0,.09-.28Z"/><path class="cls-1" d="M179.33,82.66h4.34v1.53h-2.85V98.61h-1.49Zm4,0h.27l.25,0,1.12.63c-.25.75-.53,1.54-.82,2.38s-.59,1.61-.87,2.32a6.13,6.13,0,0,1,1.2,2.08,6.35,6.35,0,0,1,.29,1.79,4.53,4.53,0,0,1-.18,1.36A1.67,1.67,0,0,1,184,94a1.41,1.41,0,0,1-.44.23,5.38,5.38,0,0,1-.54.13l-.56,0h-.62a3.24,3.24,0,0,0-.11-.72,3.09,3.09,0,0,0-.29-.76l.51,0a2.9,2.9,0,0,0,.43,0,1.1,1.1,0,0,0,.52-.14.78.78,0,0,0,.27-.46,3.17,3.17,0,0,0,.07-.73A5.23,5.23,0,0,0,183,90a5.43,5.43,0,0,0-1.16-1.92c.14-.4.29-.82.44-1.28s.29-.91.42-1.37.26-.89.37-1.29l.3-1.05Zm2.38,16a4.13,4.13,0,0,0-.18-.44l-.27-.52a3.16,3.16,0,0,0-.29-.41,1.49,1.49,0,0,0,.49-.46,1.54,1.54,0,0,0,.25-1V82.7h1.67V97.08l-.58.39a5.51,5.51,0,0,0-.5.38,2.77,2.77,0,0,0-.42.42A.63.63,0,0,0,185.74,98.67Zm0,0-.13-1.48.74-.59,4-.9q0,.36,0,.81a4.15,4.15,0,0,0,.07.72l-2.21.61c-.57.15-1,.28-1.33.38a6,6,0,0,0-.71.25Zm.82-16h7.22v8.08h-7.22V89.31h5.58V84.19h-5.58Zm.13,3.31H193v1.41h-6.35Zm3.42,3.91a14.62,14.62,0,0,0,1,3,9.43,9.43,0,0,0,1.7,2.47,7.07,7.07,0,0,0,2.4,1.64,3.46,3.46,0,0,0-.42.43c-.14.17-.28.35-.41.53a3.74,3.74,0,0,0-.32.5,7.86,7.86,0,0,1-2.52-2,11,11,0,0,1-1.74-2.85,21.21,21.21,0,0,1-1.13-3.56Zm3.64,1.28,1.11,1.18c-.35.28-.71.56-1.1.84s-.78.55-1.17.8-.75.48-1.08.67l-.91-1.08c.32-.2.67-.44,1.06-.71s.76-.56,1.13-.86S193.48,91.46,193.75,91.2Z"/><path class="cls-1" d="M202.82,82.41l1.89.6a24.74,24.74,0,0,1-1.52,2.93,27.07,27.07,0,0,1-1.85,2.69,18.79,18.79,0,0,1-2,2.19,4.09,4.09,0,0,0-.43-.47l-.56-.53a5,5,0,0,0-.53-.42,15.5,15.5,0,0,0,1.93-2A19.36,19.36,0,0,0,201.48,85,19.75,19.75,0,0,0,202.82,82.41Zm-2.66,15.46-.19-.53-.25-.69a3.18,3.18,0,0,0-.27-.61,1.78,1.78,0,0,0,.81-.5,12.59,12.59,0,0,0,.94-1c.19-.21.47-.54.82-1s.75-1,1.18-1.67.87-1.34,1.31-2.09a24.53,24.53,0,0,0,1.21-2.25l2,.83c-.59,1.05-1.22,2.08-1.91,3.11s-1.39,2-2.11,2.91a30.77,30.77,0,0,1-2.17,2.48v.05c-.28.13-.5.25-.68.34a4.13,4.13,0,0,0-.46.32A.45.45,0,0,0,200.16,97.87Zm0,0-.06-1.44,1.19-.66,10.49-.63c0,.26.1.55.18.86s.14.57.2.76l-4.34.31-3.06.24-2.07.17-1.29.13c-.33,0-.58.08-.77.12A2.39,2.39,0,0,0,200.16,97.87Zm5.54-15.49h3.87v1.76H205.7Zm2.45,0h2A14.22,14.22,0,0,0,211.28,85a13.59,13.59,0,0,0,1.62,2.35,9.08,9.08,0,0,0,2,1.75c-.13.12-.28.28-.45.47s-.33.41-.48.62-.28.4-.39.58a12.64,12.64,0,0,1-2.08-2.06,16.78,16.78,0,0,1-1.72-2.58,17.2,17.2,0,0,1-1.22-2.81h-.41Zm0,9.86,1.64-.74c.49.65,1,1.35,1.51,2.09s1,1.47,1.44,2.18.81,1.34,1.1,1.89l-1.73.93c-.28-.56-.63-1.21-1.07-2s-.91-1.49-1.42-2.26S208.62,92.9,208.15,92.24Z"/><path class="cls-1" d="M218.08,83.06h13.5V84.7h-13.5Zm.14,3.26H229v1.49H218.22Zm1.06,3.18h1.66v7.24h-1.66Zm1.42,0h7.17v5.91H220.7V93.93h5.49V91H220.7ZM231,83.06h1.72V96.33a3.14,3.14,0,0,1-.19,1.23,1.26,1.26,0,0,1-.69.67,3.84,3.84,0,0,1-1.38.29c-.57,0-1.26,0-2.07,0a4.22,4.22,0,0,0-.11-.59,6.53,6.53,0,0,0-.22-.67,6.08,6.08,0,0,0-.25-.6c.38,0,.76,0,1.13,0s.71,0,1,0h.62a.49.49,0,0,0,.35-.1.5.5,0,0,0,.1-.35Z"/><path class="cls-1" d="M1,114.21v-6.63H5.33v.88H2.13v2H4.86v.87H2.13v2.85Z"/><path class="cls-1" d="M9.61,114.34A3.25,3.25,0,0,1,8,113.92a3,3,0,0,1-1.14-1.2,4,4,0,0,1-.41-1.84A3.88,3.88,0,0,1,6.81,109,3.05,3.05,0,0,1,8,107.87a3.35,3.35,0,0,1,1.66-.41,3.33,3.33,0,0,1,1.67.41A3,3,0,0,1,12.41,109a3.76,3.76,0,0,1,.41,1.84,3.84,3.84,0,0,1-.41,1.84,2.91,2.91,0,0,1-1.13,1.2A3.24,3.24,0,0,1,9.61,114.34Zm0-.92a1.82,1.82,0,0,0,1.07-.31,2,2,0,0,0,.7-.89,3.27,3.27,0,0,0,.25-1.34,3.21,3.21,0,0,0-.25-1.34,1.88,1.88,0,0,0-.7-.86,1.82,1.82,0,0,0-1.07-.31,1.81,1.81,0,0,0-1.06.31,1.88,1.88,0,0,0-.7.86,3.37,3.37,0,0,0-.25,1.34,3.44,3.44,0,0,0,.25,1.34,2,2,0,0,0,.7.89A1.81,1.81,0,0,0,9.61,113.42Z"/><path class="cls-1" d="M14.61,114.21v-6.63H17a4.38,4.38,0,0,1,1.36.19,1.9,1.9,0,0,1,.95.6,1.69,1.69,0,0,1,.35,1.14,1.76,1.76,0,0,1-.35,1.14,2.08,2.08,0,0,1-.95.67,3.84,3.84,0,0,1-1.36.22H15.77v2.67Zm1.16-3.51h1.11a2.11,2.11,0,0,0,1.23-.3,1,1,0,0,0,.42-.89.88.88,0,0,0-.42-.84,2.53,2.53,0,0,0-1.23-.24H15.77Zm2.86,3.51-1.83-2.95.86-.6,2.28,3.55Z"/><path class="cls-1" d="M21.45,114.21v-6.63H25.8v.88H22.61v1.85h2.7v.88h-2.7v2.13h3.3v.89Z"/><path class="cls-1" d="M27.54,114.21v-6.63h2.29a5.41,5.41,0,0,1,1.34.16,1.92,1.92,0,0,1,.92.52,1.34,1.34,0,0,1,.33.95,1.54,1.54,0,0,1-.12.61,1.49,1.49,0,0,1-.36.51,1.33,1.33,0,0,1-.57.32v0a1.92,1.92,0,0,1,1,.5,1.4,1.4,0,0,1,.41,1.07,1.65,1.65,0,0,1-.36,1.09,2.14,2.14,0,0,1-1,.64,4.63,4.63,0,0,1-1.46.21Zm1.16-3.86h1a2.14,2.14,0,0,0,1.22-.27.85.85,0,0,0,.37-.73.77.77,0,0,0-.39-.73,2.41,2.41,0,0,0-1.17-.22h-1Zm0,3.05h1.17a2.61,2.61,0,0,0,1.34-.29,1,1,0,0,0,.47-.89.86.86,0,0,0-.46-.82,2.87,2.87,0,0,0-1.35-.25H28.7Z"/><path class="cls-1" d="M37.33,114.34a3.23,3.23,0,0,1-1.66-.42,2.87,2.87,0,0,1-1.14-1.2,4,4,0,0,1-.41-1.84,3.88,3.88,0,0,1,.41-1.84,2.92,2.92,0,0,1,1.14-1.17,3.32,3.32,0,0,1,1.66-.41,3.36,3.36,0,0,1,1.67.41A3,3,0,0,1,40.13,109a3.88,3.88,0,0,1,.41,1.84,4,4,0,0,1-.41,1.84,2.91,2.91,0,0,1-1.13,1.2A3.26,3.26,0,0,1,37.33,114.34Zm0-.92a1.84,1.84,0,0,0,1.07-.31,2.1,2.1,0,0,0,.7-.89,3.27,3.27,0,0,0,.25-1.34,3.21,3.21,0,0,0-.25-1.34,2,2,0,0,0-.7-.86,1.84,1.84,0,0,0-1.07-.31,1.79,1.79,0,0,0-1.06.31,1.82,1.82,0,0,0-.7.86,3.21,3.21,0,0,0-.25,1.34,3.27,3.27,0,0,0,.25,1.34,2,2,0,0,0,.7.89A1.79,1.79,0,0,0,37.33,113.42Z"/><path class="cls-1" d="M42.33,114.21v-6.63h1.19l2.44,3.9.77,1.39h.05c0-.33-.07-.69-.1-1.08a10.6,10.6,0,0,1-.06-1.11v-3.1h1.11v6.63H46.54l-2.44-3.9-.77-1.39h0c0,.34.06.7.09,1.07s0,.75,0,1.11v3.11Z"/><path class="cls-1" d="M49.87,114.21v-6.63h1.91a4.64,4.64,0,0,1,1.93.37,2.66,2.66,0,0,1,1.21,1.11,3.68,3.68,0,0,1,.41,1.82,3.77,3.77,0,0,1-.41,1.82,2.68,2.68,0,0,1-1.2,1.13,4.18,4.18,0,0,1-1.88.38Zm1.16-.85h.67a2.89,2.89,0,0,0,1.34-.28,1.88,1.88,0,0,0,.82-.83,3.13,3.13,0,0,0,.27-1.37,3,3,0,0,0-.27-1.37,1.84,1.84,0,0,0-.82-.81,3.17,3.17,0,0,0-1.34-.26H51Z"/><path class="cls-1" d="M58.54,114.21,61,107.58h1.34l2.44,6.63H63.53l-1.19-3.59c-.12-.37-.24-.73-.35-1.1s-.23-.74-.34-1.11h0l-.33,1.12-.36,1.09-1.19,3.59Zm1.38-1.88v-.82h3.44v.82Z"/><path class="cls-1" d="M66.1,114.21v-6.63H68a4.61,4.61,0,0,1,1.93.37,2.66,2.66,0,0,1,1.21,1.11,3.68,3.68,0,0,1,.41,1.82,3.77,3.77,0,0,1-.41,1.82,2.68,2.68,0,0,1-1.2,1.13,4.15,4.15,0,0,1-1.88.38Zm1.16-.85h.67a2.89,2.89,0,0,0,1.34-.28,1.88,1.88,0,0,0,.82-.83,3.13,3.13,0,0,0,.27-1.37,3,3,0,0,0-.27-1.37,1.84,1.84,0,0,0-.82-.81,3.17,3.17,0,0,0-1.34-.26h-.67Z"/><path class="cls-1" d="M74.6,114.21l-2.31-6.63h1.23L74.61,111c.12.38.24.74.33,1.08s.21.7.34,1.09h0c.13-.39.25-.75.34-1.09s.21-.7.34-1.08l1.08-3.44h1.19L76,114.21Z"/><path class="cls-1" d="M78.29,114.21l2.44-6.63h1.34l2.44,6.63H83.28l-1.19-3.59c-.12-.37-.24-.73-.35-1.1s-.23-.74-.34-1.11h0c-.11.38-.22.75-.34,1.12s-.23.72-.35,1.09l-1.19,3.59Zm1.38-1.88v-.82h3.44v.82Z"/><path class="cls-1" d="M85.85,114.21v-6.63H87l2.44,3.9.77,1.39h0c0-.33-.07-.69-.1-1.08a10.6,10.6,0,0,1-.06-1.11v-3.1h1.11v6.63H90.06l-2.44-3.9-.77-1.39h0c0,.34.06.7.09,1.07s0,.75,0,1.11v3.11Z"/><path class="cls-1" d="M96.3,114.34a3.55,3.55,0,0,1-1.28-.23,2.9,2.9,0,0,1-1-.67,3.06,3.06,0,0,1-.7-1.07,4.13,4.13,0,0,1-.25-1.46,3.9,3.9,0,0,1,.26-1.45,3.38,3.38,0,0,1,.71-1.08,3,3,0,0,1,1.06-.68,3.58,3.58,0,0,1,1.31-.24,2.73,2.73,0,0,1,1.21.26,2.87,2.87,0,0,1,.87.58l-.62.67a2.48,2.48,0,0,0-.64-.43,1.88,1.88,0,0,0-.8-.17,2.09,2.09,0,0,0-1.12.31,2,2,0,0,0-.76.86,2.94,2.94,0,0,0-.28,1.34,3.3,3.3,0,0,0,.26,1.36,2.07,2.07,0,0,0,.74.88,2.1,2.1,0,0,0,1.13.3,2,2,0,0,0,.9-.19,2.75,2.75,0,0,0,.72-.52l.63.67a3,3,0,0,1-2.3,1Z"/><path class="cls-1" d="M100.11,114.21v-6.63h4.35v.88h-3.19v1.85H104v.88h-2.7v2.13h3.3v.89Z"/><path class="cls-1" d="M106.2,114.21v-6.63h1.91A4.61,4.61,0,0,1,110,108a2.66,2.66,0,0,1,1.21,1.11,3.58,3.58,0,0,1,.41,1.82,3.66,3.66,0,0,1-.41,1.82,2.68,2.68,0,0,1-1.2,1.13,4.15,4.15,0,0,1-1.88.38Zm1.16-.85H108a2.86,2.86,0,0,0,1.34-.28,1.83,1.83,0,0,0,.82-.83,3.13,3.13,0,0,0,.27-1.37,3,3,0,0,0-.27-1.37,1.79,1.79,0,0,0-.82-.81,3.14,3.14,0,0,0-1.34-.26h-.67Z"/><path class="cls-1" d="M115.84,114.21v-6.63h1.34l1.34,3.36c.09.22.17.43.25.66l.24.67h0c.09-.22.17-.45.25-.67l.23-.66,1.32-3.36h1.35v6.63h-1.08v-3.27q0-.3,0-.66l.06-.73c0-.24,0-.47.07-.66h-.05l-.59,1.53-1.28,3.16h-.72l-1.29-3.16-.59-1.53h0c0,.19.06.42.08.66l.06.73c0,.24,0,.46,0,.66v3.27Z"/><path class="cls-1" d="M123.55,114.21l2.44-6.63h1.34l2.44,6.63h-1.23l-1.19-3.59c-.12-.37-.24-.73-.35-1.1s-.23-.74-.34-1.11h0c-.11.38-.22.75-.34,1.12s-.23.72-.35,1.09l-1.19,3.59Zm1.38-1.88v-.82h3.44v.82Z"/><path class="cls-1" d="M131.92,114.21v-5.75h-2.15v-.88h5.49v.88H133.1v5.75Z"/><path class="cls-1" d="M136.77,114.21v-6.63h4.35v.88h-3.19v1.85h2.7v.88h-2.7v2.13h3.3v.89Z"/><path class="cls-1" d="M142.86,114.21v-6.63h2.41a4.38,4.38,0,0,1,1.36.19,1.9,1.9,0,0,1,1,.6,1.69,1.69,0,0,1,.35,1.14,1.76,1.76,0,0,1-.35,1.14,2.08,2.08,0,0,1-1,.67,3.84,3.84,0,0,1-1.36.22H144v2.67ZM144,110.7h1.11a2.11,2.11,0,0,0,1.23-.3,1,1,0,0,0,.42-.89.88.88,0,0,0-.42-.84,2.53,2.53,0,0,0-1.23-.24H144Zm2.86,3.51-1.83-2.95.86-.6,2.28,3.55Z"/><path class="cls-1" d="M149.69,114.21v-6.63h1.16v6.63Z"/><path class="cls-1" d="M152.19,114.21l2.44-6.63H156l2.44,6.63h-1.23L156,110.62c-.12-.37-.24-.73-.35-1.1s-.23-.74-.34-1.11h0c-.11.38-.22.75-.34,1.12s-.23.72-.35,1.09l-1.19,3.59Zm1.38-1.88v-.82H157v.82Z"/><path class="cls-1" d="M159.75,114.21v-6.63h1.16v5.74H164v.89Z"/><path class="cls-1" d="M170.85,114.34a3.55,3.55,0,0,1-1.28-.23,2.9,2.9,0,0,1-1-.67,3.06,3.06,0,0,1-.7-1.07,4.13,4.13,0,0,1-.25-1.46,3.9,3.9,0,0,1,.26-1.45,3.38,3.38,0,0,1,.71-1.08,2.88,2.88,0,0,1,1.06-.68,3.55,3.55,0,0,1,1.31-.24,2.73,2.73,0,0,1,1.21.26,2.87,2.87,0,0,1,.87.58l-.62.67a2.48,2.48,0,0,0-.64-.43,1.88,1.88,0,0,0-.8-.17,2.09,2.09,0,0,0-1.12.31,2,2,0,0,0-.76.86,2.94,2.94,0,0,0-.28,1.34,3.3,3.3,0,0,0,.26,1.36,2.07,2.07,0,0,0,.74.88,2.1,2.1,0,0,0,1.13.3,2,2,0,0,0,.9-.19,2.75,2.75,0,0,0,.72-.52l.63.67a3,3,0,0,1-2.3,1Z"/><path class="cls-1" d="M177.31,114.34a3.26,3.26,0,0,1-1.67-.42,2.91,2.91,0,0,1-1.13-1.2,3.84,3.84,0,0,1-.41-1.84,3.76,3.76,0,0,1,.41-1.84,3,3,0,0,1,1.13-1.17,3.61,3.61,0,0,1,3.34,0,3,3,0,0,1,1.13,1.17,3.88,3.88,0,0,1,.41,1.84,4,4,0,0,1-.41,1.84,3,3,0,0,1-1.13,1.2A3.26,3.26,0,0,1,177.31,114.34Zm0-.92a1.81,1.81,0,0,0,1.06-.31,2.12,2.12,0,0,0,.71-.89,3.44,3.44,0,0,0,.25-1.34,3.37,3.37,0,0,0-.25-1.34,2,2,0,0,0-.71-.86,2,2,0,0,0-2.13,0,1.88,1.88,0,0,0-.7.86,3.38,3.38,0,0,0-.24,1.34,3.45,3.45,0,0,0,.24,1.34,2,2,0,0,0,.7.89A1.82,1.82,0,0,0,177.31,113.42Z"/><path class="cls-1" d="M182.56,114.34a.79.79,0,0,1-.55-.21.69.69,0,0,1-.22-.53.66.66,0,0,1,.22-.52.79.79,0,0,1,.55-.21.77.77,0,0,1,.55.21.67.67,0,0,1,.23.52.7.7,0,0,1-.23.53A.77.77,0,0,1,182.56,114.34Z"/><path class="cls-1" d="M185.08,116l-.26-.58a1.94,1.94,0,0,0,.81-.53,1,1,0,0,0,.28-.73l-.08-.83.48.69a.48.48,0,0,1-.23.13.82.82,0,0,1-.28,0,.83.83,0,0,1-.53-.18.58.58,0,0,1-.24-.49.59.59,0,0,1,.24-.49.87.87,0,0,1,.56-.18.77.77,0,0,1,.66.3,1.27,1.27,0,0,1,.23.82,1.89,1.89,0,0,1-.43,1.24A2.55,2.55,0,0,1,185.08,116Z"/><path class="cls-1" d="M190.89,114.21v-6.63h1.16v5.74h3.12v.89Z"/><path class="cls-1" d="M197.46,114.21v-5.75h-2.15v-.88h5.49v.88h-2.16v5.75Z"/><path class="cls-1" d="M202.3,114.21v-6.63h1.91a4.64,4.64,0,0,1,1.93.37,2.59,2.59,0,0,1,1.2,1.11,3.58,3.58,0,0,1,.42,1.82,3.66,3.66,0,0,1-.42,1.82,2.61,2.61,0,0,1-1.19,1.13,4.18,4.18,0,0,1-1.88.38Zm1.16-.85h.67a2.82,2.82,0,0,0,1.33-.28,1.78,1.78,0,0,0,.82-.83,3,3,0,0,0,.28-1.37,2.9,2.9,0,0,0-.28-1.37,1.74,1.74,0,0,0-.82-.81,3.09,3.09,0,0,0-1.33-.26h-.67Z"/><path class="cls-1" d="M209.8,114.34a.76.76,0,0,1-.54-.21.7.7,0,0,1-.23-.53.67.67,0,0,1,.23-.52.76.76,0,0,1,.54-.21.79.79,0,0,1,.56.21.66.66,0,0,1,.22.52.69.69,0,0,1-.22.53A.79.79,0,0,1,209.8,114.34Z"/><path class="cls-1" d="M129.07,47.72l1,3.6h0l1.12-3.6h.54l1.12,3.6h0l1-3.6h.44l-1.26,4.11h-.46l-1.16-3.67h0l-1.15,3.67h-.48l-1.26-4.11Z"/><path class="cls-1" d="M136.56,50.85a1,1,0,0,0,.19.38,1.13,1.13,0,0,0,.34.27,1,1,0,0,0,.5.11.95.95,0,0,0,1-.76H139a1.53,1.53,0,0,1-.47.79,1.55,1.55,0,0,1-1,.27,1.76,1.76,0,0,1-.68-.12,1.23,1.23,0,0,1-.46-.34,1.42,1.42,0,0,1-.27-.5,2,2,0,0,1-.08-.6,1.89,1.89,0,0,1,.08-.58,1.51,1.51,0,0,1,.27-.5,1.27,1.27,0,0,1,.46-.36,1.59,1.59,0,0,1,.68-.13,1.38,1.38,0,0,1,.67.14,1.32,1.32,0,0,1,.46.38,1.37,1.37,0,0,1,.25.53,1.85,1.85,0,0,1,.07.62H136.5A1.44,1.44,0,0,0,136.56,50.85Zm2-1.11a1,1,0,0,0-.21-.33,1,1,0,0,0-.76-.33,1,1,0,0,0-.44.09,1,1,0,0,0-.33.24,1.17,1.17,0,0,0-.22.34,1.86,1.86,0,0,0-.1.39h2.14A1.77,1.77,0,0,0,138.56,49.74Z"/><path class="cls-1" d="M141.25,49.32a.92.92,0,0,1,.28-.31,1.28,1.28,0,0,1,.41-.18,2.81,2.81,0,0,1,.53,0,3.11,3.11,0,0,1,.43,0,1.38,1.38,0,0,1,.39.14.74.74,0,0,1,.28.3,1,1,0,0,1,.11.48v1.58c0,.14.08.22.24.22a.31.31,0,0,0,.13,0v.31l-.13,0h-.14a.78.78,0,0,1-.24,0,.45.45,0,0,1-.15-.11.44.44,0,0,1-.06-.16,1.5,1.5,0,0,1,0-.22h0a3.28,3.28,0,0,1-.22.26,1.1,1.1,0,0,1-.25.19,1,1,0,0,1-.32.11,1.66,1.66,0,0,1-.42,0,1.54,1.54,0,0,1-.43,0,1,1,0,0,1-.35-.15.78.78,0,0,1-.24-.27.93.93,0,0,1-.08-.39.74.74,0,0,1,.15-.49,1,1,0,0,1,.41-.26,2.38,2.38,0,0,1,.57-.13l.64-.08.22,0,.16-.06a.23.23,0,0,0,.1-.12.4.4,0,0,0,0-.2.56.56,0,0,0-.07-.3.55.55,0,0,0-.18-.19,1.15,1.15,0,0,0-.28-.09,1.79,1.79,0,0,0-.34,0,1.08,1.08,0,0,0-.62.17.62.62,0,0,0-.26.52h-.4A1.07,1.07,0,0,1,141.25,49.32Zm2,.89a.21.21,0,0,1-.14.09l-.19,0-.53.07a3.4,3.4,0,0,0-.5.1,1,1,0,0,0-.37.18.43.43,0,0,0-.14.34.48.48,0,0,0,.06.24,1,1,0,0,0,.16.19.66.66,0,0,0,.24.11.86.86,0,0,0,.28,0,1.61,1.61,0,0,0,.44-.06,1.16,1.16,0,0,0,.37-.18.89.89,0,0,0,.24-.3.71.71,0,0,0,.1-.39v-.47Z"/><path class="cls-1" d="M146.44,48.86v.7h0a1.18,1.18,0,0,1,.47-.56,1.38,1.38,0,0,1,.77-.18v.36a1.59,1.59,0,0,0-.5.07,1.19,1.19,0,0,0-.38.22,1,1,0,0,0-.35.78v1.58h-.4v-3Z"/><path class="cls-1" d="M149.86,51.83a.69.69,0,0,1,0,.25.8.8,0,0,1-.1.23.81.81,0,0,1-.18.19.65.65,0,0,1-.25.12v-.25a.34.34,0,0,0,.14-.09.42.42,0,0,0,.09-.14.44.44,0,0,0,.06-.16.81.81,0,0,0,0-.15h-.27v-.61h.54Z"/><path class="cls-1" d="M156.51,47.72,158,51.33l1.57-3.61h.64v4.11h-.43V48.28h0l-1.57,3.55h-.4l-1.51-3.55h0v3.55h-.44V47.72Z"/><path class="cls-1" d="M164.71,48.9a1.59,1.59,0,0,1,.49.34,1.48,1.48,0,0,1,.3.5,1.74,1.74,0,0,1,.1.61,1.77,1.77,0,0,1-.1.61,1.42,1.42,0,0,1-.79.83,1.74,1.74,0,0,1-.67.12,1.78,1.78,0,0,1-.67-.12,1.54,1.54,0,0,1-.49-.34,1.44,1.44,0,0,1-.3-.49,2.05,2.05,0,0,1-.1-.61,2,2,0,0,1,.1-.61,1.48,1.48,0,0,1,.3-.5,1.72,1.72,0,0,1,.49-.34,1.78,1.78,0,0,1,.67-.12A1.74,1.74,0,0,1,164.71,48.9Zm-1.17.29a.94.94,0,0,0-.36.29,1.2,1.2,0,0,0-.22.4,1.55,1.55,0,0,0-.08.47,1.44,1.44,0,0,0,.08.46,1.25,1.25,0,0,0,.22.41.92.92,0,0,0,.36.28,1,1,0,0,0,.5.11,1.06,1.06,0,0,0,.51-.11,1.09,1.09,0,0,0,.36-.28,1.47,1.47,0,0,0,.22-.41,1.77,1.77,0,0,0,.07-.46,1.91,1.91,0,0,0-.07-.47,1.41,1.41,0,0,0-.22-.4,1.12,1.12,0,0,0-.36-.29,1.19,1.19,0,0,0-.51-.11A1.12,1.12,0,0,0,163.54,49.19Z"/><path class="cls-1" d="M167.87,48.86l1,2.61h0l1-2.61h.41l-1.23,3h-.43l-1.27-3Z"/><path class="cls-1" d="M172.63,50.85a1.07,1.07,0,0,0,.2.38,1,1,0,0,0,.34.27.94.94,0,0,0,.49.11,1.11,1.11,0,0,0,.69-.2,1.12,1.12,0,0,0,.35-.56h.4a1.46,1.46,0,0,1-.47.79,1.53,1.53,0,0,1-1,.27,1.71,1.71,0,0,1-.67-.12,1.24,1.24,0,0,1-.73-.84,2,2,0,0,1-.09-.6,1.9,1.9,0,0,1,.09-.58,1.33,1.33,0,0,1,.26-.5,1.31,1.31,0,0,1,.47-.36,1.54,1.54,0,0,1,.67-.13,1.45,1.45,0,0,1,.68.14,1.32,1.32,0,0,1,.46.38,1.53,1.53,0,0,1,.25.53,2.14,2.14,0,0,1,.06.62h-2.54A1.44,1.44,0,0,0,172.63,50.85Zm2-1.11a1,1,0,0,0-.21-.33,1.08,1.08,0,0,0-.32-.24,1,1,0,0,0-.44-.09,1,1,0,0,0-.44.09,1,1,0,0,0-.33.24,1,1,0,0,0-.21.34,1.9,1.9,0,0,0-.11.39h2.14A1.35,1.35,0,0,0,174.63,49.74Z"/><path class="cls-1" d="M178,51.83a1,1,0,0,1,0,.25.9.9,0,0,1-.28.42.65.65,0,0,1-.25.12v-.25a.42.42,0,0,0,.14-.09.67.67,0,0,0,.09-.14.44.44,0,0,0,.06-.16.81.81,0,0,0,0-.15h-.27v-.61H178Z"/><path class="cls-1" d="M184.05,49.32a.92.92,0,0,1,.28-.31,1.28,1.28,0,0,1,.41-.18,2.81,2.81,0,0,1,.53,0,3.11,3.11,0,0,1,.43,0,1.38,1.38,0,0,1,.39.14.74.74,0,0,1,.28.3.85.85,0,0,1,.11.48v1.58c0,.14.08.22.24.22a.28.28,0,0,0,.13,0v.31l-.13,0h-.14a.78.78,0,0,1-.24,0,.58.58,0,0,1-.15-.11.44.44,0,0,1-.06-.16,1.5,1.5,0,0,1,0-.22h0a2,2,0,0,1-.22.26,1.1,1.1,0,0,1-.25.19,1,1,0,0,1-.32.11,1.62,1.62,0,0,1-.41,0,1.56,1.56,0,0,1-.44,0,1,1,0,0,1-.35-.15.67.67,0,0,1-.23-.27.8.8,0,0,1-.09-.39.74.74,0,0,1,.15-.49,1,1,0,0,1,.41-.26,2.38,2.38,0,0,1,.57-.13l.64-.08.22,0,.16-.06a.23.23,0,0,0,.1-.12.4.4,0,0,0,0-.2.56.56,0,0,0-.07-.3.55.55,0,0,0-.18-.19,1,1,0,0,0-.28-.09,1.76,1.76,0,0,0-.33,0,1.09,1.09,0,0,0-.63.17.62.62,0,0,0-.26.52h-.4A1.07,1.07,0,0,1,184.05,49.32Zm2,.89a.27.27,0,0,1-.15.09l-.19,0-.53.07a3.4,3.4,0,0,0-.5.1.87.87,0,0,0-.36.18.41.41,0,0,0-.15.34.48.48,0,0,0,.06.24.75.75,0,0,0,.17.19.55.55,0,0,0,.23.11.86.86,0,0,0,.28,0,1.61,1.61,0,0,0,.44-.06,1.16,1.16,0,0,0,.37-.18,1.05,1.05,0,0,0,.25-.3.8.8,0,0,0,.09-.39v-.47Z"/><path class="cls-1" d="M189.27,48.86v.51h0a.94.94,0,0,1,.41-.43,1.31,1.31,0,0,1,.65-.16,1.66,1.66,0,0,1,.58.08,1,1,0,0,1,.37.22.91.91,0,0,1,.2.36,1.86,1.86,0,0,1,.06.48v1.91h-.41V50a1.29,1.29,0,0,0,0-.35.7.7,0,0,0-.13-.29.65.65,0,0,0-.26-.19,1,1,0,0,0-.4-.07,1.19,1.19,0,0,0-.44.08,1,1,0,0,0-.32.21,1.16,1.16,0,0,0-.2.32,1.11,1.11,0,0,0-.08.41v1.73h-.4v-3Z"/><path class="cls-1" d="M196.43,51.83v-.56h0a.75.75,0,0,1-.19.26,1.21,1.21,0,0,1-.28.21,2,2,0,0,1-.34.13,1.47,1.47,0,0,1-.36,0,1.66,1.66,0,0,1-.66-.12,1.32,1.32,0,0,1-.46-.34,1.3,1.3,0,0,1-.28-.5,2,2,0,0,1,0-1.2,1.3,1.3,0,0,1,.28-.5,1.34,1.34,0,0,1,.46-.35,1.66,1.66,0,0,1,.66-.12,1.47,1.47,0,0,1,.36,0,1.31,1.31,0,0,1,.33.12,1.35,1.35,0,0,1,.27.2.88.88,0,0,1,.18.29h0V47.72h.41v4.11Zm-2.21-1a1.14,1.14,0,0,0,.19.4,1,1,0,0,0,.33.29,1,1,0,0,0,.5.11,1.13,1.13,0,0,0,.54-.11,1,1,0,0,0,.35-.29,1,1,0,0,0,.2-.4,1.88,1.88,0,0,0,.06-.46,1.76,1.76,0,0,0-.06-.46,1,1,0,0,0-.2-.41,1,1,0,0,0-.89-.4,1.09,1.09,0,0,0-.5.11,1.32,1.32,0,0,0-.33.29,1.18,1.18,0,0,0-.19.41,1.76,1.76,0,0,0-.06.46A1.88,1.88,0,0,0,194.22,50.81Z"/><path class="cls-1" d="M204.52,47.72a3.21,3.21,0,0,1,.55.05,1.31,1.31,0,0,1,.47.17.87.87,0,0,1,.32.31.9.9,0,0,1,.07.79.85.85,0,0,1-.16.28,1.64,1.64,0,0,1-.25.21.93.93,0,0,1-.33.12h0a1.18,1.18,0,0,1,.71.33,1,1,0,0,1,.26.67,2.15,2.15,0,0,1,0,.23.9.9,0,0,1-.08.25,1.22,1.22,0,0,1-.16.26,1.38,1.38,0,0,1-.29.22,2.37,2.37,0,0,1-.45.15,3,3,0,0,1-.64.06h-1.93V47.72Zm0,1.8a1.58,1.58,0,0,0,.46-.05,1.35,1.35,0,0,0,.32-.15.79.79,0,0,0,.19-.22.66.66,0,0,0,.06-.27c0-.52-.34-.77-1-.77H203v1.46Zm0,2a2.25,2.25,0,0,0,.46,0,1.2,1.2,0,0,0,.39-.13.84.84,0,0,0,.26-.27.8.8,0,0,0,.09-.41.65.65,0,0,0-.31-.59,1.57,1.57,0,0,0-.89-.2H203V51.5Z"/><path class="cls-1" d="M208.74,48.86v.7h0a1.18,1.18,0,0,1,.47-.56,1.41,1.41,0,0,1,.78-.18v.36a1.55,1.55,0,0,0-.5.07,1.24,1.24,0,0,0-.39.22,1,1,0,0,0-.25.35,1,1,0,0,0-.09.43v1.58h-.41v-3Z"/><path class="cls-1" d="M212.15,50.85a1,1,0,0,0,.19.38,1,1,0,0,0,.34.27,1,1,0,0,0,.49.11,1.07,1.07,0,0,0,.69-.2,1.06,1.06,0,0,0,.35-.56h.4a1.41,1.41,0,0,1-.47.79,1.53,1.53,0,0,1-1,.27,1.71,1.71,0,0,1-.67-.12,1.23,1.23,0,0,1-.46-.34,1.42,1.42,0,0,1-.27-.5,2,2,0,0,1-.09-.6,1.9,1.9,0,0,1,.09-.58,1.51,1.51,0,0,1,.27-.5,1.27,1.27,0,0,1,.46-.36,1.54,1.54,0,0,1,.67-.13,1.42,1.42,0,0,1,.68.14,1.32,1.32,0,0,1,.46.38,1.37,1.37,0,0,1,.25.53,2.56,2.56,0,0,1,.07.62h-2.54A1.44,1.44,0,0,0,212.15,50.85Zm2-1.11a1.21,1.21,0,0,0-.2-.33,1,1,0,0,0-.33-.24,1,1,0,0,0-.44-.09,1,1,0,0,0-.44.09,1,1,0,0,0-.32.24,1.17,1.17,0,0,0-.22.34,1.4,1.4,0,0,0-.1.39h2.13A1.1,1.1,0,0,0,214.14,49.74Z"/><path class="cls-1" d="M216.84,49.32a.92.92,0,0,1,.28-.31,1.19,1.19,0,0,1,.41-.18,2.78,2.78,0,0,1,.52,0,3.25,3.25,0,0,1,.44,0,1.64,1.64,0,0,1,.39.14.81.81,0,0,1,.28.3,1,1,0,0,1,.11.48v1.58a.2.2,0,0,0,.23.22.28.28,0,0,0,.13,0v.31l-.12,0h-.14a.9.9,0,0,1-.25,0,.4.4,0,0,1-.14-.11.46.46,0,0,1-.07-.16,1.55,1.55,0,0,1,0-.22h0a1.43,1.43,0,0,1-.22.26.79.79,0,0,1-.25.19,1,1,0,0,1-.31.11,1.76,1.76,0,0,1-.42,0,1.49,1.49,0,0,1-.43,0,1,1,0,0,1-.35-.15.78.78,0,0,1-.24-.27.8.8,0,0,1-.08-.39.74.74,0,0,1,.15-.49,1,1,0,0,1,.41-.26,2.18,2.18,0,0,1,.57-.13l.64-.08.22,0,.16-.06a.29.29,0,0,0,.1-.12.54.54,0,0,0,0-.2.66.66,0,0,0-.07-.3.58.58,0,0,0-.19-.19,1.07,1.07,0,0,0-.27-.09,1.87,1.87,0,0,0-.34,0,1.14,1.14,0,0,0-.63.17.61.61,0,0,0-.25.52h-.4A1.07,1.07,0,0,1,216.84,49.32Zm2,.89a.21.21,0,0,1-.14.09l-.2,0-.52.07a3.4,3.4,0,0,0-.5.1,1,1,0,0,0-.37.18A.43.43,0,0,0,217,51a.48.48,0,0,0,.06.24.7.7,0,0,0,.16.19.66.66,0,0,0,.24.11.84.84,0,0,0,.27,0,1.68,1.68,0,0,0,.45-.06,1,1,0,0,0,.36-.18.9.9,0,0,0,.35-.69v-.47Z"/><path class="cls-1" d="M223,48.86v.31h-.67v2a.7.7,0,0,0,0,.28c0,.07.13.1.28.11a1.94,1.94,0,0,0,.34,0v.31h-.36a.82.82,0,0,1-.56-.14.63.63,0,0,1-.15-.52v-2h-.58v-.31h.58V48h.4v.89Z"/><path class="cls-1" d="M225.53,47.72v1.65h0a.85.85,0,0,1,.41-.43,1.27,1.27,0,0,1,.64-.16,1.62,1.62,0,0,1,.58.08,1,1,0,0,1,.38.22.78.78,0,0,1,.19.36,1.86,1.86,0,0,1,.06.48v1.91h-.4V50a1.29,1.29,0,0,0,0-.35.86.86,0,0,0-.13-.29.73.73,0,0,0-.26-.19,1,1,0,0,0-.41-.07,1.14,1.14,0,0,0-.43.08.89.89,0,0,0-.32.21,1,1,0,0,0-.21.32,1.75,1.75,0,0,0-.08.41v1.73h-.4V47.72Z"/><path class="cls-1" d="M230.46,50.85a1,1,0,0,0,.19.38,1,1,0,0,0,.34.27,1,1,0,0,0,.49.11,1.07,1.07,0,0,0,.69-.2,1.12,1.12,0,0,0,.35-.56h.4a1.41,1.41,0,0,1-.47.79,1.53,1.53,0,0,1-1,.27,1.71,1.71,0,0,1-.67-.12,1.27,1.27,0,0,1-.47-.34,1.4,1.4,0,0,1-.26-.5,2,2,0,0,1-.09-.6,1.9,1.9,0,0,1,.09-.58,1.49,1.49,0,0,1,.26-.5,1.31,1.31,0,0,1,.47-.36,1.54,1.54,0,0,1,.67-.13,1.42,1.42,0,0,1,.68.14,1.32,1.32,0,0,1,.46.38,1.53,1.53,0,0,1,.25.53,2.14,2.14,0,0,1,.06.62h-2.54A1.16,1.16,0,0,0,230.46,50.85Zm2-1.11a1,1,0,0,0-.21-.33,1,1,0,0,0-.32-.24,1.12,1.12,0,0,0-.88,0,1,1,0,0,0-.33.24,1,1,0,0,0-.21.34,1.9,1.9,0,0,0-.11.39h2.14A1.1,1.1,0,0,0,232.45,49.74Z"/><path class="cls-1" d="M74.68,48.82A22.89,22.89,0,0,1,51.81,28.17H74.68A14.09,14.09,0,0,0,74.68,0a25.93,25.93,0,0,0-7.5,1.1h0l-.37.12h0l-.1,0h0L10.91,19a16.87,16.87,0,0,0,5.95,32.65H122.39V48.82ZM85.89,14.09A11.23,11.23,0,0,1,74.68,25.31h-23A22.88,22.88,0,0,1,67.67,4h0l.08,0L68,3.84a23.06,23.06,0,0,1,6.67-1A11.23,11.23,0,0,1,85.89,14.09Z"/><path class="cls-2" d="M213.16,1.63a20.94,20.94,0,0,0-20.94,21A20.95,20.95,0,1,0,213.16,1.63Zm0,37a16,16,0,0,1-15.47-11.86,15.68,15.68,0,0,1-.55-4.16,16,16,0,1,1,16,16Z"/><rect class="cls-2" x="128.54" y="18.66" width="4.57" height="25.12"/><polygon class="cls-2" points="92.48 5.67 106.72 5.67 106.72 43.77 111.29 43.77 111.29 5.67 124.45 5.67 124.45 1.1 92.48 1.1 92.48 5.67"/><path class="cls-2" d="M175.46,1.1H157V5.67h18.46a9.46,9.46,0,0,1,0,18.92h-7.75v4.57h7.75a14,14,0,0,0,0-28.06Z"/><polygon class="cls-2" points="157.01 38.31 135.17 1.1 128.54 1.1 128.54 12.53 133.11 12.53 133.11 6.62 154.91 43.77 161.58 43.77 161.58 11.88 157.01 11.88 157.01 38.31"/></g></g></svg>