<svg xmlns="http://www.w3.org/2000/svg" xmlns:xlink="http://www.w3.org/1999/xlink" viewBox="0 0 25.11 24.99"><defs><style>.cls-1{fill:none;}.cls-2{clip-path:url(#clip-path);}.cls-3{fill:#fff;}</style><clipPath id="clip-path" transform="translate(0 0)"><circle id="SVGID" class="cls-1" cx="12.56" cy="12.56" r="12.56"/></clipPath></defs><g id="圖層_2" data-name="圖層 2"><g id="obj2"><g class="cls-2"><path class="cls-3" d="M12.56,0a12.55,12.55,0,0,0-2.32,24.89v-9h-3c-.25,0-.25,0-.25-.26V12.23c0-.25,0-.25.24-.25h3.07v-.2c0-.85,0-1.7,0-2.55A7.78,7.78,0,0,1,10.37,8a4.42,4.42,0,0,1,1.42-2.69A4.66,4.66,0,0,1,15,4.12c1,0,2,.08,3,.12.18,0,.2.08.2.23v3c0,.26,0,.26-.26.26-.78,0-1.55,0-2.33,0a1.26,1.26,0,0,0-1.25,1,2.49,2.49,0,0,0-.08.61c0,.81,0,1.63,0,2.44a1.28,1.28,0,0,0,0,.18H18c-.06.48-.11.93-.17,1.38-.1.76-.2,1.51-.29,2.27,0,.16-.07.22-.24.22H14.25V25A12.55,12.55,0,0,0,12.56,0Z" transform="translate(0 0)"/></g></g></g></svg>