<svg xmlns="http://www.w3.org/2000/svg" viewBox="0 0 25.11 23.57"><defs><style>.cls-1{fill:#fff;fill-rule:evenodd;}</style></defs><g id="圖層_2" data-name="圖層 2"><g id="obj2"><path class="cls-1" d="M22.11,3.59A14,14,0,0,0,12.33,0c-.5.05-1.25.08-2,.19A13.15,13.15,0,0,0,2.61,4a8.62,8.62,0,0,0-1.38,10.6A11.27,11.27,0,0,0,7.5,19.47a25.75,25.75,0,0,0,2.88.71c.56.13.15.17.08.74s-.2.86-.25,1.29c-.09.78,1,1.4,1.79,1.36a2.48,2.48,0,0,0,1-.28c1.05-.57,2.09-1.15,3.08-1.79a30.57,30.57,0,0,0,6.52-5.31,8.91,8.91,0,0,0,2.47-5.75A8.78,8.78,0,0,0,22.11,3.59ZM6.94,13.36H4.82a.79.79,0,0,1-.89-.9V8a.8.8,0,0,1,.77-.9c.48,0,.79.35.8.91v3.79H6.94a.82.82,0,0,1,.91.77A.81.81,0,0,1,6.94,13.36Zm3.26-.91c0,.56-.32.92-.8.91a.79.79,0,0,1-.76-.9c0-.75,0-1.49,0-2.23s0-1.49,0-2.24c0-.55.32-.92.8-.9a.79.79,0,0,1,.76.9C10.21,9.48,10.21,11,10.2,12.45Zm5.5,0a.79.79,0,0,1-1.5.42c-.46-.71-.91-1.43-1.37-2.15-.06-.1-.14-.2-.27-.39v2.05c0,.59-.31,1-.8.95S11,13,11,12.42V8a.83.83,0,0,1,.58-.92c.37-.11.69,0,1,.49.51.83,1,1.66,1.52,2.49l.08,0V8A.79.79,0,1,1,15.7,8Zm3.76-3c.59,0,1,.32.95.8S20,11,19.46,11H18.08v.78h1.38c.58,0,.94.3.95.77s-.36.8-1,.8H17.38a.79.79,0,0,1-.89-.9q0-2.23,0-4.47a.8.8,0,0,1,.89-.91h2.16a.79.79,0,1,1,0,1.57H18.06v.79Z"/></g></g></svg>