<svg xmlns="http://www.w3.org/2000/svg" viewBox="0 0 111.42 25.04"><defs><style>.cls-1{fill:#fff;}</style></defs><g id="圖層_2" data-name="圖層 2"><g id="text"><path class="cls-1" d="M61.43,22.71l.49,1.71h0l.53-1.71h.26l.53,1.71h0l.5-1.71H64l-.6,2h-.22l-.55-1.75h0L62,24.67h-.22l-.6-2Z"/><path class="cls-1" d="M65,24.2a.51.51,0,0,0,.09.18.65.65,0,0,0,.16.13.47.47,0,0,0,.24,0,.54.54,0,0,0,.33-.09A.53.53,0,0,0,66,24.2h.19a.63.63,0,0,1-.22.37.7.7,0,0,1-.46.14.79.79,0,0,1-.32-.06.63.63,0,0,1-.22-.16.7.7,0,0,1-.13-.24.92.92,0,0,1,0-.29.84.84,0,0,1,0-.27.7.7,0,0,1,.13-.24.54.54,0,0,1,.22-.17.66.66,0,0,1,.32-.07.66.66,0,0,1,.54.25.89.89,0,0,1,.12.26,1.36,1.36,0,0,1,0,.29H65A.68.68,0,0,0,65,24.2Zm1-.53a.54.54,0,0,0-.1-.16.58.58,0,0,0-.15-.11.49.49,0,0,0-.21,0,.46.46,0,0,0-.21,0,.91.91,0,0,0-.16.11.86.86,0,0,0-.1.16,1.8,1.8,0,0,0-.05.19h1A.65.65,0,0,0,65.94,23.67Z"/><path class="cls-1" d="M67.22,23.47a.35.35,0,0,1,.13-.14.72.72,0,0,1,.2-.09,1,1,0,0,1,.25,0l.21,0a.48.48,0,0,1,.18.07.38.38,0,0,1,.14.14.49.49,0,0,1,0,.23v.75c0,.07,0,.1.11.1h.06v.15h-.12l-.12,0a.18.18,0,0,1-.07,0l0-.08s0-.06,0-.1h0a.65.65,0,0,1-.11.12.27.27,0,0,1-.12.09.52.52,0,0,1-.15.06l-.2,0a.64.64,0,0,1-.2,0,.44.44,0,0,1-.17-.07.35.35,0,0,1-.11-.13.34.34,0,0,1,0-.18.36.36,0,0,1,.07-.24.52.52,0,0,1,.19-.12,1.63,1.63,0,0,1,.28-.07l.3,0h.11l.07,0s0,0,0-.06a.2.2,0,0,0,0-.09.33.33,0,0,0,0-.15l-.09-.08a.29.29,0,0,0-.13-.05h-.16a.46.46,0,0,0-.3.08.27.27,0,0,0-.12.25h-.2A.71.71,0,0,1,67.22,23.47Zm1,.43s0,0-.07,0L68,24l-.25,0-.24.05a.54.54,0,0,0-.17.08.19.19,0,0,0-.07.16.21.21,0,0,0,0,.12.32.32,0,0,0,.08.09l.11.05a.27.27,0,0,0,.13,0,.76.76,0,0,0,.21,0,.67.67,0,0,0,.17-.08.53.53,0,0,0,.12-.14.41.41,0,0,0,0-.19V23.9Z"/><path class="cls-1" d="M69.69,23.25v.34h0a.51.51,0,0,1,.23-.27.6.6,0,0,1,.36-.08v.17a.45.45,0,0,0-.23,0,.57.57,0,0,0-.19.1.52.52,0,0,0-.12.17.45.45,0,0,0,0,.2v.76h-.19V23.25Z"/><path class="cls-1" d="M71.32,24.67a.5.5,0,0,1,0,.12.54.54,0,0,1,0,.11l-.08.09a.43.43,0,0,1-.12.05v-.12a.07.07,0,0,0,.06,0,.18.18,0,0,0,0-.07l0-.07v-.07h-.13v-.29h.26Z"/><path class="cls-1" d="M74.49,22.71l.72,1.72L76,22.71h.3v2h-.21V23h0l-.74,1.69h-.2L74.4,23h0v1.69h-.21v-2Z"/><path class="cls-1" d="M78.39,23.27a.66.66,0,0,1,.23.17.59.59,0,0,1,.14.23.87.87,0,0,1,0,.58.72.72,0,0,1-.14.24.79.79,0,0,1-.23.16.88.88,0,0,1-.64,0,.79.79,0,0,1-.23-.16.72.72,0,0,1-.14-.24.87.87,0,0,1,0-.58.59.59,0,0,1,.14-.23.66.66,0,0,1,.23-.17.88.88,0,0,1,.64,0Zm-.56.14a.47.47,0,0,0-.17.14.59.59,0,0,0-.11.19.83.83,0,0,0,0,.22.78.78,0,0,0,0,.22.59.59,0,0,0,.11.19.39.39,0,0,0,.17.14.6.6,0,0,0,.48,0,.39.39,0,0,0,.17-.14.59.59,0,0,0,.11-.19.78.78,0,0,0,0-.22.83.83,0,0,0,0-.22.59.59,0,0,0-.11-.19.47.47,0,0,0-.17-.14.6.6,0,0,0-.48,0Z"/><path class="cls-1" d="M79.89,23.25l.49,1.25h0l.49-1.25h.19l-.58,1.42h-.21l-.6-1.42Z"/><path class="cls-1" d="M82.16,24.2a.48.48,0,0,0,.25.31.47.47,0,0,0,.24,0,.54.54,0,0,0,.33-.09.61.61,0,0,0,.16-.27h.19a.63.63,0,0,1-.22.37.7.7,0,0,1-.46.14.76.76,0,0,1-.32-.06.63.63,0,0,1-.22-.16.7.7,0,0,1-.13-.24.92.92,0,0,1,0-.29.84.84,0,0,1,0-.27.7.7,0,0,1,.13-.24.54.54,0,0,1,.22-.17.63.63,0,0,1,.32-.07.66.66,0,0,1,.54.25.89.89,0,0,1,.12.26,1.36,1.36,0,0,1,0,.29H82.13A.68.68,0,0,0,82.16,24.2Zm1-.53a.86.86,0,0,0-.1-.16.64.64,0,0,0-.16-.11.45.45,0,0,0-.2,0,.46.46,0,0,0-.21,0,.64.64,0,0,0-.16.11.86.86,0,0,0-.1.16.77.77,0,0,0-.05.19h1A1.29,1.29,0,0,0,83.11,23.67Z"/><path class="cls-1" d="M84.72,24.67a.5.5,0,0,1,0,.12.54.54,0,0,1,0,.11l-.08.09a.43.43,0,0,1-.12.05v-.12a.1.1,0,0,0,.07,0,.43.43,0,0,0,0-.07l0-.07v-.07h-.13v-.29h.26Z"/><path class="cls-1" d="M87.59,23.47a.35.35,0,0,1,.13-.14.72.72,0,0,1,.2-.09,1,1,0,0,1,.25,0l.21,0a.48.48,0,0,1,.18.07.38.38,0,0,1,.14.14.49.49,0,0,1,0,.23v.75c0,.07,0,.1.11.1h.06v.15H88.8l-.12,0a.18.18,0,0,1-.07,0,.19.19,0,0,1,0-.08.31.31,0,0,1,0-.1h0a.65.65,0,0,1-.11.12.27.27,0,0,1-.12.09.52.52,0,0,1-.15.06l-.2,0a.64.64,0,0,1-.2,0,.44.44,0,0,1-.17-.07.35.35,0,0,1-.11-.13.34.34,0,0,1,0-.18.36.36,0,0,1,.07-.24.52.52,0,0,1,.19-.12l.27-.07.31,0h.11l.07,0s0,0,.05-.06a.2.2,0,0,0,0-.09.24.24,0,0,0,0-.15.3.3,0,0,0-.08-.08.29.29,0,0,0-.13-.05h-.16a.45.45,0,0,0-.3.08.27.27,0,0,0-.12.25h-.2A.71.71,0,0,1,87.59,23.47Zm1,.43s0,0-.07,0l-.09,0-.25,0L87.9,24a.54.54,0,0,0-.17.08.19.19,0,0,0-.07.16.21.21,0,0,0,0,.12.32.32,0,0,0,.08.09l.11.05a.27.27,0,0,0,.13,0,.76.76,0,0,0,.21,0,.67.67,0,0,0,.17-.08.53.53,0,0,0,.12-.14.41.41,0,0,0,0-.19V23.9Z"/><path class="cls-1" d="M90.08,23.25v.25h0a.41.41,0,0,1,.2-.21.61.61,0,0,1,.3-.08,1,1,0,0,1,.28,0,.54.54,0,0,1,.18.11.46.46,0,0,1,.09.17.8.8,0,0,1,0,.23v.91H91v-.88a.88.88,0,0,0,0-.17.35.35,0,0,0-.06-.14.38.38,0,0,0-.13-.09.5.5,0,0,0-.19,0,.46.46,0,0,0-.21,0,.31.31,0,0,0-.15.1.56.56,0,0,0-.1.15.58.58,0,0,0,0,.19v.83h-.2V23.25Z"/><path class="cls-1" d="M93.48,24.67V24.4h0a.57.57,0,0,1-.08.13.67.67,0,0,1-.14.09.52.52,0,0,1-.16.06l-.17,0a.79.79,0,0,1-.32-.06.73.73,0,0,1-.22-.16.7.7,0,0,1-.13-.24.92.92,0,0,1,0-.29,1,1,0,0,1,0-.29.58.58,0,0,1,.13-.23.62.62,0,0,1,.22-.17.79.79,0,0,1,.32-.06l.17,0a.67.67,0,0,1,.15.06.45.45,0,0,1,.13.1.38.38,0,0,1,.09.13h0v-.81h.19v2Zm-1-.49a.56.56,0,0,0,.09.19.54.54,0,0,0,.16.14.45.45,0,0,0,.24,0,.49.49,0,0,0,.25,0,.47.47,0,0,0,.17-.14.44.44,0,0,0,.1-.19.83.83,0,0,0,0-.22.89.89,0,0,0,0-.22.5.5,0,0,0-.1-.19.47.47,0,0,0-.17-.14.62.62,0,0,0-.25-.05.57.57,0,0,0-.24.05.54.54,0,0,0-.16.14.66.66,0,0,0-.09.19.89.89,0,0,0,0,.22A.83.83,0,0,0,92.43,24.18Z"/><path class="cls-1" d="M97.33,22.71a1.18,1.18,0,0,1,.27,0,.71.71,0,0,1,.22.07A.54.54,0,0,1,98,23a.41.41,0,0,1,.06.23.4.4,0,0,1,0,.15.33.33,0,0,1-.07.13l-.12.1a.44.44,0,0,1-.16.06h0a.49.49,0,0,1,.34.15.45.45,0,0,1,.12.32.45.45,0,0,1,0,.11.27.27,0,0,1,0,.12.83.83,0,0,1-.08.12.53.53,0,0,1-.14.11,1,1,0,0,1-.21.07,1.42,1.42,0,0,1-.31,0h-.92v-2Zm0,.86a.69.69,0,0,0,.22,0,.35.35,0,0,0,.15-.07.28.28,0,0,0,.09-.1.31.31,0,0,0,0-.13c0-.25-.16-.37-.49-.37h-.71v.7Zm0,.94.22,0a.6.6,0,0,0,.19-.06.37.37,0,0,0,.12-.13.38.38,0,0,0,0-.19.33.33,0,0,0-.15-.29.83.83,0,0,0-.43-.09h-.71v.78Z"/><path class="cls-1" d="M99.34,23.25v.34h0a.49.49,0,0,1,.22-.27.63.63,0,0,1,.37-.08v.17a.47.47,0,0,0-.24,0,.46.46,0,0,0-.3.27.46.46,0,0,0-.05.2v.76h-.19V23.25Z"/><path class="cls-1" d="M101,24.2a.4.4,0,0,0,.1.18.42.42,0,0,0,.16.13.41.41,0,0,0,.23,0,.54.54,0,0,0,.33-.09.53.53,0,0,0,.16-.27h.2a.64.64,0,0,1-.23.37.7.7,0,0,1-.46.14.79.79,0,0,1-.32-.06.73.73,0,0,1-.22-.16.7.7,0,0,1-.13-.24,1.35,1.35,0,0,1,0-.29,1.26,1.26,0,0,1,0-.27.7.7,0,0,1,.13-.24.62.62,0,0,1,.22-.17.66.66,0,0,1,.32-.07.72.72,0,0,1,.32.07.67.67,0,0,1,.22.18.57.57,0,0,1,.12.26.7.7,0,0,1,0,.29h-1.21A.68.68,0,0,0,101,24.2Zm1-.53a.39.39,0,0,0-.1-.16.58.58,0,0,0-.15-.11.57.57,0,0,0-.42,0,.58.58,0,0,0-.15.11.57.57,0,0,0-.11.16,1.8,1.8,0,0,0,0,.19h1A.43.43,0,0,0,101.91,23.67Z"/><path class="cls-1" d="M103.2,23.47a.29.29,0,0,1,.13-.14.56.56,0,0,1,.19-.09,1,1,0,0,1,.25,0l.21,0a.62.62,0,0,1,.19.07.35.35,0,0,1,.13.14.49.49,0,0,1,0,.23v.75c0,.07,0,.1.11.1h.07v.15h-.13l-.12,0a.1.1,0,0,1-.06,0,.2.2,0,0,1,0-.08v-.1h0a.43.43,0,0,1-.11.12.31.31,0,0,1-.11.09.94.94,0,0,1-.15.06l-.2,0a.71.71,0,0,1-.21,0,.51.51,0,0,1-.17-.07.47.47,0,0,1-.11-.13.34.34,0,0,1,0-.18.43.43,0,0,1,.07-.24.56.56,0,0,1,.2-.12l.27-.07.3,0H104l.08,0a.13.13,0,0,0,0-.06.2.2,0,0,0,0-.09.33.33,0,0,0,0-.15.24.24,0,0,0-.09-.08.29.29,0,0,0-.13-.05h-.16a.48.48,0,0,0-.3.08.27.27,0,0,0-.12.25h-.19A.4.4,0,0,1,103.2,23.47Zm1,.43s0,0-.07,0L104,24l-.25,0-.23.05a.75.75,0,0,0-.18.08.22.22,0,0,0-.07.16.21.21,0,0,0,0,.12l.08.09.11.05a.3.3,0,0,0,.13,0,.66.66,0,0,0,.21,0,.75.75,0,0,0,.18-.08.53.53,0,0,0,.12-.14.41.41,0,0,0,0-.19V23.9Z"/><path class="cls-1" d="M106.11,23.25v.15h-.32v1a.29.29,0,0,0,0,.14.14.14,0,0,0,.13.05h.16v.15h-.17a.37.37,0,0,1-.26-.07.3.3,0,0,1-.08-.24v-1h-.27v-.15h.27v-.42h.19v.42Z"/><path class="cls-1" d="M107.33,22.71v.79h0a.41.41,0,0,1,.2-.21.61.61,0,0,1,.3-.08,1.11,1.11,0,0,1,.28,0,.54.54,0,0,1,.18.11.46.46,0,0,1,.09.17.8.8,0,0,1,0,.23v.91h-.19v-.88a.88.88,0,0,0,0-.17.37.37,0,0,0-.07-.14.27.27,0,0,0-.12-.09.54.54,0,0,0-.19,0,.46.46,0,0,0-.21,0,.31.31,0,0,0-.15.1.56.56,0,0,0-.1.15,1.06,1.06,0,0,0,0,.19v.83h-.19v-2Z"/><path class="cls-1" d="M109.68,24.2a.48.48,0,0,0,.25.31.43.43,0,0,0,.23,0,.52.52,0,0,0,.33-.09.55.55,0,0,0,.17-.27h.19a.68.68,0,0,1-.22.37.73.73,0,0,1-.47.14.79.79,0,0,1-.32-.06.73.73,0,0,1-.22-.16.68.68,0,0,1-.12-.24.92.92,0,0,1,0-.29.84.84,0,0,1,0-.27.68.68,0,0,1,.12-.24.62.62,0,0,1,.22-.17.66.66,0,0,1,.32-.07.81.81,0,0,1,.33.07.79.79,0,0,1,.22.18.89.89,0,0,1,.12.26,1.36,1.36,0,0,1,0,.29h-1.21A.68.68,0,0,0,109.68,24.2Zm.95-.53a.86.86,0,0,0-.1-.16.91.91,0,0,0-.16-.11.46.46,0,0,0-.21,0,.52.52,0,0,0-.21,0,.58.58,0,0,0-.15.11.54.54,0,0,0-.1.16.77.77,0,0,0,0,.19h1A.63.63,0,0,0,110.63,23.67Z"/><path class="cls-1" d="M35.54,23.23a10.88,10.88,0,0,1-10.88-9.82H35.54A6.71,6.71,0,0,0,35.54,0,12.58,12.58,0,0,0,32,.52h0l-.18,0h0l-.05,0h0L5.19,9.06A8,8,0,0,0,8,24.6H58.25V23.23ZM40.88,6.7a5.35,5.35,0,0,1-5.34,5.35H24.61a10.89,10.89,0,0,1,7.6-10.17h0l.13,0a10.91,10.91,0,0,1,3.17-.47A5.35,5.35,0,0,1,40.88,6.7Z"/><path class="cls-1" d="M101.45.78a9.81,9.81,0,0,0-4,.82,10,10,0,0,0-6,9.15,9.85,9.85,0,0,0,.34,2.59A10,10,0,1,0,101.45.78Zm0,17.59a7.63,7.63,0,0,1-7.37-5.64,7.74,7.74,0,0,1-.26-2,7.63,7.63,0,1,1,7.63,7.62Z"/><rect class="cls-1" x="61.17" y="8.88" width="2.17" height="11.95"/><polygon class="cls-1" points="44.01 2.7 50.79 2.7 50.79 20.83 52.97 20.83 52.97 2.7 59.23 2.7 59.23 0.53 44.01 0.53 44.01 2.7"/><path class="cls-1" d="M83.5.53H74.72V2.7H83.5a4.5,4.5,0,0,1,0,9H79.81v2.18H83.5A6.68,6.68,0,1,0,83.5.53Z"/><polygon class="cls-1" points="74.72 18.23 64.33 0.53 61.17 0.53 61.17 5.96 63.35 5.96 63.35 3.15 73.72 20.83 76.9 20.83 76.9 5.66 74.72 5.66 74.72 18.23"/></g></g></svg>