<svg xmlns="http://www.w3.org/2000/svg" viewBox="0 0 62.25 62.25"><defs><style>.cls-1{fill:none;stroke-miterlimit:10;stroke-width:2.25px;}.cls-1,.cls-2{stroke:#fff;}.cls-2{fill:#fff;stroke-linejoin:round;stroke-width:1.87px;}</style></defs><g id="圖層_2" data-name="圖層 2"><g id="圖層_4" data-name="圖層 4"><circle class="cls-1" cx="31.13" cy="31.13" r="30"/><path class="cls-2" d="M53.06,26.86a9.52,9.52,0,0,1-9.52-9.52A9.52,9.52,0,0,1,34,26.86h0a9.52,9.52,0,0,1,9.52,9.52h0A9.52,9.52,0,0,1,53.06,26.86Z"/><path class="cls-2" d="M36.27,36.38a13.8,13.8,0,0,1-13.8-13.8,13.8,13.8,0,0,1-13.8,13.8h0a13.8,13.8,0,0,1,13.8,13.81h0A13.8,13.8,0,0,1,36.27,36.38Z"/></g></g></svg>