<svg xmlns="http://www.w3.org/2000/svg" viewBox="0 0 62.25 62.25"><defs><style>.cls-1{fill:#fff;}.cls-2{fill:none;stroke:#fff;stroke-miterlimit:10;stroke-width:2.25px;}</style></defs><g id="圖層_2" data-name="圖層 2"><g id="圖層_4" data-name="圖層 4"><path class="cls-1" d="M14.46,24.83v3.94H12.7V18h3.43a4.55,4.55,0,0,1,2.95.84,3,3,0,0,1,1,2.45,3.19,3.19,0,0,1-1.23,2.61,4.39,4.39,0,0,1-3,.93Zm0-5.44v4.05h1.26c1.69,0,2.54-.69,2.54-2.08s-.81-2-2.44-2Z"/><path class="cls-1" d="M29.27,19.43H25v3.35h3.94V24.2H25v4.57H23.24V18h6Z"/><path class="cls-1" d="M41.24,28.77H39.3L38.24,26H33.7l-1,2.8H30.76L35,18h2Zm-3.49-4.19-1.58-4.25a4.22,4.22,0,0,1-.18-.81h-.05a3.53,3.53,0,0,1-.18.8l-1.58,4.26Z"/><path class="cls-1" d="M43.87,26.54a4.88,4.88,0,0,0,3.07,1c1.5,0,2.26-.49,2.26-1.47a1.28,1.28,0,0,0-.25-.76,2.3,2.3,0,0,0-.67-.6c-.28-.17-.84-.44-1.67-.82a6.15,6.15,0,0,1-2.14-1.41,2.55,2.55,0,0,1-.61-1.68A2.52,2.52,0,0,1,45,18.62a5,5,0,0,1,3-.81,6.55,6.55,0,0,1,2.58.4v1.71a4.67,4.67,0,0,0-2.62-.69,3,3,0,0,0-1.61.39,1.17,1.17,0,0,0-.62,1.05,1.25,1.25,0,0,0,.45,1,9,9,0,0,0,1.9,1.05,6.72,6.72,0,0,1,2.34,1.5A2.6,2.6,0,0,1,51,26a2.55,2.55,0,0,1-1.11,2.23,5.31,5.31,0,0,1-3.09.77,8.84,8.84,0,0,1-1.61-.16,4.22,4.22,0,0,1-1.36-.45Z"/><path class="cls-1" d="M18.74,34.43H14.46v3.35h3.95V39.2H14.46v4.57H12.7V33h6Z"/><path class="cls-1" d="M31.16,43.77H29.1l-1.85-2.93a4.22,4.22,0,0,0-1-1.18,1.73,1.73,0,0,0-1-.31H24.3v4.42H22.54V33h3.61a4.35,4.35,0,0,1,2.73.75,2.56,2.56,0,0,1,1,2.14,2.79,2.79,0,0,1-.66,1.86,3.66,3.66,0,0,1-1.86,1.08v0a4,4,0,0,1,1.7,1.7Zm-6.86-9.4V38h1.56a2.2,2.2,0,0,0,1.56-.53A1.8,1.8,0,0,0,28,36.06c0-1.12-.7-1.69-2.11-1.69Z"/><path class="cls-1" d="M40.9,43.77H34.62V33h6v1.43H36.38V37.6h4V39h-4v3.31H40.9Z"/><path class="cls-1" d="M51.1,43.77H44.82V33h6v1.43H46.57V37.6h4V39h-4v3.31H51.1Z"/><circle class="cls-2" cx="31.13" cy="31.13" r="30"/></g></g></svg>