<svg xmlns="http://www.w3.org/2000/svg" viewBox="0 0 62.25 62.25"><defs><style>.cls-1,.cls-2{fill:none;stroke:#fff;stroke-miterlimit:10;}.cls-1{stroke-width:2.25px;}.cls-2{stroke-width:2px;}.cls-3{fill:#fff;}</style></defs><g id="圖層_2" data-name="圖層 2"><g id="圖層_4" data-name="圖層 4"><circle class="cls-1" cx="31.13" cy="31.13" r="30"/><path class="cls-2" d="M2.66,41.11a45,45,0,0,1,56.93,0"/><path class="cls-1" d="M19.5,17.64c-.67,3-2.81,3.65-2.81,7.73,0,4.85,3,4.85,3,9.69s-3,4.84-3,9.68,3,4.85,3,9.69"/><polygon class="cls-3" points="10.07 20.62 10.89 22.23 18.79 18.17 22.26 26.35 23.91 25.64 19.69 15.69 10.07 20.62"/><path class="cls-1" d="M32.83,12.15C32.19,15.34,30,16,30,20.26c0,5,3,5,3,10.06s-3,5-3,10.06,3,5,3,10.06"/><polygon class="cls-3" points="23.47 15.28 24.31 16.87 32.15 12.7 35.73 20.82 37.38 20.09 33.01 10.2 23.47 15.28"/><path class="cls-1" d="M45.59,21.46c-.72,2.55-2.76,3.18-2.76,6.78,0,4.37,3,4.37,3,8.73s-3,4.36-3,8.73,3,4.37,3,8.73"/><polygon class="cls-3" points="36.02 24.03 36.77 25.67 44.83 21.96 47.94 30.27 49.63 29.64 45.83 19.51 36.02 24.03"/></g></g></svg>