<svg xmlns="http://www.w3.org/2000/svg" viewBox="0 0 431.19 200.73"><defs><style>.cls-1{fill:#fff;}</style></defs><g id="圖層_2" data-name="圖層 2"><g id="text"><path class="cls-1" d="M0,89.77V46.12H16.61A18.51,18.51,0,0,1,25,47.86a12.5,12.5,0,0,1,5.35,4.91,14.36,14.36,0,0,1,1.86,7.41,14.15,14.15,0,0,1-1.91,7.44,12.8,12.8,0,0,1-5.42,4.91,18.68,18.68,0,0,1-8.38,1.74h-12V67.71H16a10.23,10.23,0,0,0,4.57-.94,6.82,6.82,0,0,0,2.87-2.62,7.72,7.72,0,0,0,1-4,7.63,7.63,0,0,0-1-4,6.76,6.76,0,0,0-2.87-2.59A10.23,10.23,0,0,0,16,52.71H7.79V89.77Z"/><path class="cls-1" d="M58.06,153.83l15.5-43.65h9.78l15.53,43.65H90.34L82.67,131q-1.14-3.6-2.39-7.76t-2.86-9.76h2.06q-1.59,5.59-2.85,9.76T74.2,131l-7.76,22.88Zm9.17-10.52V137h22.5v6.35Z"/><path class="cls-1" d="M145.14,115.49V71.84h16.91a18.74,18.74,0,0,1,8.32,1.71,12.43,12.43,0,0,1,5.35,4.85,14.2,14.2,0,0,1,1.86,7.38,13.47,13.47,0,0,1-2,7.34,12.86,12.86,0,0,1-5.52,4.78,19.78,19.78,0,0,1-8.47,1.68H149.71V93.17h11.75a10.49,10.49,0,0,0,4.57-.9,6.36,6.36,0,0,0,2.86-2.55,7.6,7.6,0,0,0,1-3.94,7.44,7.44,0,0,0-1-3.92A6.64,6.64,0,0,0,166,79.31a10.34,10.34,0,0,0-4.57-.91h-8.49v37.09Zm24.88,0L159.76,95.77h8.35l10.46,19.72Z"/><path class="cls-1" d="M208.5,163.76v-6.68h34.86v6.68H229.82v37H222v-37Z"/><path class="cls-1" d="M272.72,72.65V29h8.47l15.29,24.29c.47.72,1,1.65,1.69,2.79s1.34,2.38,2.06,3.71,1.43,2.67,2.11,4l-.85,1.47c-.08-1.31-.15-2.78-.22-4.42s-.12-3.21-.15-4.71,0-2.68,0-3.56V29h7.79V72.65h-8.49L286.61,50.8c-.57-.92-1.24-2-2-3.34S282.94,44.64,282,43s-2-3.57-3.11-5.6l1.2-.88q.18,3.26.28,6.05c.07,1.87.12,3.5.15,4.91s0,2.52,0,3.34V72.65Z"/><path class="cls-1" d="M340.46,141.93V98.27h29.91V105H348.25v11.58h20.48v6.56H348.25v12.16H370.4v6.68Z"/><path class="cls-1" d="M397.77,43.65V0h16.9A18.71,18.71,0,0,1,423,1.71a12.43,12.43,0,0,1,5.35,4.85A14.21,14.21,0,0,1,430.2,14a13.44,13.44,0,0,1-1.95,7.33,12.8,12.8,0,0,1-5.52,4.78,19.75,19.75,0,0,1-8.47,1.68H402.34V21.33h11.75a10.52,10.52,0,0,0,4.57-.9,6.37,6.37,0,0,0,2.85-2.54,7.56,7.56,0,0,0,1-3.94,7.45,7.45,0,0,0-1-3.93,6.74,6.74,0,0,0-2.87-2.55,10.52,10.52,0,0,0-4.57-.91h-8.5V43.65Zm24.87,0L412.39,23.94h8.35l10.45,19.71Z"/></g></g></svg>