<svg xmlns="http://www.w3.org/2000/svg" viewBox="0 0 292.32 49.98"><defs><style>.cls-1{fill:#004632;}</style></defs><g id="圖層_2" data-name="圖層 2"><g id="text"><path class="cls-1" d="M0,.7H4.23V2.61H2.16V15.36H0ZM3.73.7h.39L4.46.63l1.64.8c-.24.7-.49,1.43-.76,2.2s-.53,1.45-.79,2.06a4.88,4.88,0,0,1,1,1.78A5.56,5.56,0,0,1,5.81,9a4.3,4.3,0,0,1-.2,1.41,1.79,1.79,0,0,1-.66.86,2.42,2.42,0,0,1-.49.23,3.19,3.19,0,0,1-.59.14,4.46,4.46,0,0,1-1.17,0,5,5,0,0,0-.15-.94,3.26,3.26,0,0,0-.39-1l.39,0h.31a.82.82,0,0,0,.49-.13.46.46,0,0,0,.22-.32,2.38,2.38,0,0,0,.07-.59,4.83,4.83,0,0,0-.22-1.28A4.21,4.21,0,0,0,2.48,5.9c.12-.35.24-.73.36-1.15L3.2,3.47c.11-.43.21-.84.3-1.22s.17-.69.23-.94ZM5.72,6H16.33V7.84H5.72Zm.4-4.36h9.81V3.48H6.12Zm.5,7.24H15.5v6.43H13.09V10.72H8.93v4.64H6.62ZM7,3.77l2.11-.38A6.86,6.86,0,0,1,9.6,4.58a7.2,7.2,0,0,1,.28,1.14l-2.23.45A4.85,4.85,0,0,0,7.44,5,7.48,7.48,0,0,0,7,3.77Zm.79,8.88h6.45v1.91H7.79ZM9.47.36,11.79,0a9.79,9.79,0,0,1,.47,1.07,6.43,6.43,0,0,1,.29,1l-2.47.43a4.43,4.43,0,0,0-.23-1C9.73,1.08,9.6.7,9.47.36ZM13,3.29l2.45.48-.54,1.09c-.18.37-.36.71-.52,1s-.33.6-.49.84l-2.07-.45c.14-.29.29-.6.44-.94s.29-.7.42-1.06A7.9,7.9,0,0,0,13,3.29Z"/><path class="cls-1" d="M51.49.1l2.23.65a24.5,24.5,0,0,1-1.45,2.76,27.66,27.66,0,0,1-1.82,2.62,15.63,15.63,0,0,1-2,2.16,6.29,6.29,0,0,0-.3-.68c-.15-.28-.3-.56-.47-.85a8,8,0,0,0-.45-.68,14.68,14.68,0,0,0,1.64-1.69,17.48,17.48,0,0,0,1.49-2.06A14.75,14.75,0,0,0,51.49.1ZM49.8,4.67l2.27-2V15.31H49.8Zm3.06,4.47H64.58v2H52.86Zm.58-7.62,2-.66A10.81,10.81,0,0,1,56.05,2q.29.62.51,1.2a7.69,7.69,0,0,1,.33,1.05L54.73,5A6.23,6.23,0,0,0,54.45,4c-.14-.4-.29-.81-.47-1.24S53.63,1.89,53.44,1.52Zm.14,3.65H63.84v2H53.58ZM57.49.28H59.9V15.36H57.49ZM61.9.75l2.44.74c-.21.41-.43.82-.65,1.23s-.44.8-.66,1.18-.42.71-.61,1l-2-.68c.18-.33.36-.69.53-1.09s.35-.81.51-1.23S61.8,1.1,61.9.75Z"/><path class="cls-1" d="M99,.13l2.25.63a24.5,24.5,0,0,1-1.37,2.77,25.48,25.48,0,0,1-1.72,2.64,17.43,17.43,0,0,1-1.91,2.19c-.08-.17-.18-.4-.33-.69s-.3-.57-.48-.87A7,7,0,0,0,95,6.11a14.1,14.1,0,0,0,1.53-1.69,18,18,0,0,0,1.39-2A16.48,16.48,0,0,0,99,.13ZM97.3,4.68l2.27-2,0,0V15.34H97.3ZM102.92.11l2.35.49a23.65,23.65,0,0,1-.94,2.5,20.22,20.22,0,0,1-1.21,2.32,11.8,11.8,0,0,1-1.39,1.87c-.13-.12-.32-.27-.56-.45s-.48-.37-.72-.54S100,6,99.82,5.88a9.55,9.55,0,0,0,1.28-1.6,14.52,14.52,0,0,0,1.05-2A17,17,0,0,0,102.92.11Zm-.56,7.29,2.32.44a17.09,17.09,0,0,1-.61,2,15.46,15.46,0,0,1-.84,1.88,11.1,11.1,0,0,1-1,1.52,4.75,4.75,0,0,0-.6-.4l-.76-.42q-.39-.21-.66-.33a7.57,7.57,0,0,0,1.28-2.1A14.81,14.81,0,0,0,102.36,7.4Zm1.11-4.5h7.19v2h-8.07Zm1.88.89h2.35V13a3.51,3.51,0,0,1-.17,1.22,1.34,1.34,0,0,1-.69.74,4.15,4.15,0,0,1-1.19.34,13.92,13.92,0,0,1-1.56.08,6.8,6.8,0,0,0-.81-2.15l1,0H105a.47.47,0,0,0,.25-.05.26.26,0,0,0,.08-.21Zm2.8,4.08,2.15-.64A15.05,15.05,0,0,1,111.14,9c.25.63.47,1.24.66,1.85a12.87,12.87,0,0,1,.39,1.65l-2.29.71a12,12,0,0,0-.34-1.64c-.17-.62-.37-1.25-.61-1.9A15.56,15.56,0,0,0,108.15,7.87Zm1.88-5h.32l.36,0,1.69.26c-.11.68-.23,1.38-.38,2.09s-.27,1.32-.39,1.81l-2-.32c.06-.3.11-.65.17-1.05s.1-.81.16-1.24.09-.84.12-1.23Z"/><path class="cls-1" d="M143.93,2.69h2.16V14.87h-2.16ZM145.23,7h4.5V8.83h-4.5Zm.09-4.28h5.54v11h-5.54v-1.9h3.38V4.57h-3.38ZM146.43.05l2.62.34c-.22.56-.44,1.11-.65,1.66s-.42,1-.6,1.38l-1.91-.37c.08-.28.15-.6.22-1s.14-.72.2-1.07S146.41.35,146.43.05Zm6.72,0,2.28.49A19.85,19.85,0,0,1,154.59,3a24.33,24.33,0,0,1-1.09,2.23A14.36,14.36,0,0,1,152.3,7a6.09,6.09,0,0,0-.57-.42L151,6.11c-.25-.15-.47-.27-.65-.36a10.13,10.13,0,0,0,1.13-1.59,18,18,0,0,0,1-2A17.52,17.52,0,0,0,153.15.08Zm-.9,7.27,1.87-.93c.28.36.58.77.91,1.21s.64.87.94,1.29a8.86,8.86,0,0,1,.72,1.11l-2,1.1A9.62,9.62,0,0,0,154,10c-.27-.43-.57-.88-.88-1.34Zm5.29-4.79h2.22v.58a3.21,3.21,0,0,1,0,.36c-.06,1.81-.12,3.36-.18,4.62s-.14,2.32-.22,3.14a15.5,15.5,0,0,1-.3,1.94,2.56,2.56,0,0,1-.47,1,2.28,2.28,0,0,1-.83.7,4,4,0,0,1-1,.28,9.3,9.3,0,0,1-1.3.08c-.51,0-1,0-1.56,0a3.35,3.35,0,0,0-.24-1,4.31,4.31,0,0,0-.55-1.05c.57,0,1.11.07,1.61.08l1.09,0a1.13,1.13,0,0,0,.44-.07,1.25,1.25,0,0,0,.35-.22,2,2,0,0,0,.38-.87,12.9,12.9,0,0,0,.26-1.86c.06-.79.13-1.8.19-3s.11-2.63.14-4.29Zm-4.36,0h5.19V4.5h-5.19Z"/><path class="cls-1" d="M132.47,34.5l2.39.61a18.29,18.29,0,0,1-1.29,2.2,20.09,20.09,0,0,1-1.53,2A17.18,17.18,0,0,1,130.47,41l-.64-.41-.79-.47a5.28,5.28,0,0,0-.71-.36,11.46,11.46,0,0,0,1.61-1.47,14.36,14.36,0,0,0,1.43-1.84A15.63,15.63,0,0,0,132.47,34.5Zm-4,7.92h3.93v.06h9.14v-.06h3.8v1.91h-3.8v-.07h-9.14v.07h-3.93Zm3.21-3.36h2.39c-.08.73-.18,1.48-.28,2.26s-.21,1.56-.32,2.34-.23,1.5-.35,2.19-.24,1.32-.35,1.88h-2.44c.12-.57.24-1.21.37-1.91s.27-1.44.39-2.21.24-1.55.33-2.33S131.58,39.77,131.66,39.06Zm-.13,6.79h13v1.88h-13Zm.4-9.83h12.69v1.91H131.93Zm.84,3h8.62v1.88h-8.62Zm2,5.8,1.3-1.13c.34.13.68.29,1,.47s.71.37,1,.57a5.1,5.1,0,0,1,.79.55l-1.38,1.26a5.15,5.15,0,0,0-.74-.59c-.31-.21-.65-.42-1-.62A9,9,0,0,0,134.73,44.86Zm.17-3.3,1.31-1.14c.32.13.67.29,1,.47a10.63,10.63,0,0,1,1,.55A6.66,6.66,0,0,1,139,42l-1.39,1.26a6.62,6.62,0,0,0-.74-.58c-.3-.2-.62-.4-1-.6S135.23,41.7,134.9,41.56Zm5.56-2.5h2.36c0,.24,0,.43,0,.58s0,.26,0,.35q-.08,2.31-.15,3.93c-.06,1.07-.12,1.95-.2,2.64a12,12,0,0,1-.27,1.61,2.37,2.37,0,0,1-.37.84,1.89,1.89,0,0,1-.7.59,3.23,3.23,0,0,1-.85.25c-.31,0-.68,0-1.12.06h-1.35a2.79,2.79,0,0,0-.17-.82,3,3,0,0,0-.38-.81l1.07.06c.32,0,.56,0,.74,0a1,1,0,0,0,.38-.06.59.59,0,0,0,.27-.21,1.58,1.58,0,0,0,.27-.73c.07-.36.14-.87.2-1.54s.11-1.51.15-2.55.09-2.28.14-3.74Z"/><path class="cls-1" d="M178,43.34h5.74v2.14H178Zm.34-6.46h5.06V39h-5.06Zm8.66,2.7h2.57V41.2a14.8,14.8,0,0,1-.11,1.7,9.83,9.83,0,0,1-.45,1.86,7.85,7.85,0,0,1-1,1.89,9,9,0,0,1-1.76,1.79A11.15,11.15,0,0,1,183.53,50a4.48,4.48,0,0,0-.49-.6c-.21-.23-.43-.44-.67-.66a4,4,0,0,0-.64-.5A10.45,10.45,0,0,0,184.1,47a7.65,7.65,0,0,0,1.53-1.45A5.85,5.85,0,0,0,186.5,44a7.22,7.22,0,0,0,.39-1.48,9.08,9.08,0,0,0,.1-1.33Zm-1.89-5,2.64.42a23.08,23.08,0,0,1-.85,2.9,20,20,0,0,1-1.16,2.6,11.67,11.67,0,0,1-1.39,2.09c-.18-.12-.41-.26-.71-.42s-.59-.31-.9-.45-.56-.26-.78-.35a8.44,8.44,0,0,0,1.39-1.85,15.79,15.79,0,0,0,1.06-2.35A18,18,0,0,0,185.1,34.59Zm.49,2.5h7.11v2.15h-8.3Zm3.83,3.69a14.7,14.7,0,0,0,1,3.09,7.65,7.65,0,0,0,1.74,2.44,7.11,7.11,0,0,0,2.71,1.58,4.8,4.8,0,0,0-.58.55,7.94,7.94,0,0,0-.58.72,6.61,6.61,0,0,0-.45.68,8.47,8.47,0,0,1-2.95-2,9.35,9.35,0,0,1-1.83-3,22.25,22.25,0,0,1-1.12-3.81Zm2.52-3.69h.34l.47-.12,1.74.93q-.23.87-.54,1.74t-.66,1.65c-.23.52-.46,1-.68,1.42a6.54,6.54,0,0,0-.63-.29l-.73-.33c-.25-.1-.47-.19-.68-.26.17-.35.34-.78.52-1.27s.35-1,.5-1.52a14,14,0,0,0,.35-1.47Z"/><path class="cls-1" d="M227.83,35.34H242v5.93h-2.41V36.84h-9.49v4.43h-2.3Zm1.2,6.28H241v8.15h-2.42V43.13h-7.21v6.71H229Zm1.57,2.11h8.67v1.41H230.6Zm0,2h8.67v1.41H230.6Zm0,2.06h8.67v1.54H230.6Zm.34-10.35h8v1.41h-8Zm0,2h8v1.41h-8Z"/><path class="cls-1" d="M275.88,35.22h3.84v1.92h-1.86v12.7h-2Zm3.26,0h.38l.29-.08,1.49.76c-.19.71-.4,1.45-.62,2.22s-.44,1.48-.66,2.11a5.17,5.17,0,0,1,.84,1.78,6.87,6.87,0,0,1,.19,1.54,4.77,4.77,0,0,1-.17,1.37,1.64,1.64,0,0,1-.59.85,1.37,1.37,0,0,1-.43.24,4.27,4.27,0,0,1-.54.13l-.47,0h-.55a4.22,4.22,0,0,0-.12-.91,3.1,3.1,0,0,0-.35-.92h.59a.74.74,0,0,0,.4-.14.64.64,0,0,0,.18-.34,3.09,3.09,0,0,0,.05-.59A6.64,6.64,0,0,0,278.9,42a4.43,4.43,0,0,0-.73-1.58c.1-.34.19-.73.29-1.15s.19-.86.28-1.3.17-.84.24-1.21.13-.69.16-.94Zm3.66,9.58,2.05.39a9.4,9.4,0,0,1-1.52,2.74,9,9,0,0,1-2.26,2,5.54,5.54,0,0,0-.43-.44l-.56-.52a4.59,4.59,0,0,0-.52-.4,6.48,6.48,0,0,0,2-1.6A6.63,6.63,0,0,0,282.8,44.8Zm2.59-10.45,2.28.75a11.9,11.9,0,0,1-2.58,2.69,19,19,0,0,1-3.25,2c-.12-.14-.27-.31-.45-.5l-.57-.57a4.56,4.56,0,0,0-.54-.44,12.37,12.37,0,0,0,2-1.1,14.56,14.56,0,0,0,1.76-1.39A8.93,8.93,0,0,0,285.39,34.35Zm-4,6.17h4.45v4.17h-4.45Zm1.49,6.59L284,45.85a10.25,10.25,0,0,1,1.13.64,8.58,8.58,0,0,1,.94.69l-1.19,1.41a5.86,5.86,0,0,0-.89-.74C283.64,47.58,283.26,47.33,282.9,47.11Zm.2-5.16v1.31h1V42Zm.49-3.74h5.29v1.62h-5.29Zm2.93-3.33a7.2,7.2,0,0,0,1.13.9,12.86,12.86,0,0,0,1.43.85,13.85,13.85,0,0,0,1.61.73c.56.22,1.1.41,1.63.57a5.72,5.72,0,0,0-.35.63,6.12,6.12,0,0,0-.33.75c-.09.25-.16.47-.22.68A23.39,23.39,0,0,1,289,38.84a21.55,21.55,0,0,1-2.28-1.44,17.9,17.9,0,0,1-1.85-1.51Zm1.26,9.9,2.11.28a9,9,0,0,1-1.15,2.84,6.63,6.63,0,0,1-2,2c-.11-.1-.25-.25-.43-.43s-.37-.35-.56-.51-.37-.31-.52-.42A4.67,4.67,0,0,0,286.9,47,6.44,6.44,0,0,0,287.78,44.78Zm-1.19-4.26h4.58v4.17h-4.58Zm.89,6.71,1.33-1.3c.37.22.77.46,1.2.74s.85.55,1.25.82a11,11,0,0,1,1,.73l-1.41,1.46a11.08,11.08,0,0,0-.93-.78c-.39-.29-.79-.59-1.21-.88S287.86,47.47,287.48,47.23ZM288.3,42v1.31h1.05V42Z"/></g></g></svg>