<svg xmlns="http://www.w3.org/2000/svg" viewBox="0 0 216.86 72.24"><defs><style>.cls-1{fill:#fff;}</style></defs><g id="圖層_2" data-name="圖層 2"><g id="text"><path class="cls-1" d="M74.16,43.14h3.1v11.7c0,1.3,0,2.69-.09,4.2s-.19,3-.4,4.56a34.58,34.58,0,0,1-.88,4.51,19.52,19.52,0,0,1-1.51,4,4.85,4.85,0,0,0-.79-.54c-.34-.18-.68-.36-1-.53a4.75,4.75,0,0,0-1-.36A16.07,16.07,0,0,0,73.05,67a32.07,32.07,0,0,0,.75-4.11c.17-1.42.27-2.81.31-4.18s0-2.65,0-3.84ZM75.5,58.27h8.28v2.92H75.5Zm0-15.13h8.25V46H75.53Zm0,7.49h8.35v2.82H75.53Zm6.37-7.49H85V68.58a5.15,5.15,0,0,1-.27,1.81,2,2,0,0,1-1.07,1.1,4.83,4.83,0,0,1-1.92.47C81,72,80,72,78.77,72a4.91,4.91,0,0,0-.18-.92c-.09-.36-.2-.72-.32-1.08a4.13,4.13,0,0,0-.43-.94l2.1,0h1.32a1,1,0,0,0,.48-.15c.11-.07.16-.23.16-.47Zm5.8.07h13.5v2.85H90.94V72H87.7Zm1.91,11.14h12.85v2.79H89.61Zm11.91,0h.58l.58-.09,2,.58a28.77,28.77,0,0,1-2.52,7.47,23.08,23.08,0,0,1-4,5.68,21.47,21.47,0,0,1-5.21,3.92A7.87,7.87,0,0,0,92,70.75a7.2,7.2,0,0,0-1.1-1.07,17,17,0,0,0,4.7-3.4,21.65,21.65,0,0,0,3.69-5.09,22.92,22.92,0,0,0,2.23-6.32Zm-7.41,1.82a26.55,26.55,0,0,0,2.66,5.62,22.26,22.26,0,0,0,3.93,4.7,17.66,17.66,0,0,0,5,3.22,7.64,7.64,0,0,0-1.17,1.1,16.1,16.1,0,0,0-1,1.27,20.16,20.16,0,0,1-5.2-3.71,25.07,25.07,0,0,1-4-5.24,33.39,33.39,0,0,1-2.85-6.31Zm6.23-13h3.27v6.28a3.36,3.36,0,0,1-.34,1.67,2.29,2.29,0,0,1-1.31.93,9.87,9.87,0,0,1-2.4.35c-1,.05-2.14.07-3.51.07a6.06,6.06,0,0,0-.41-1.33A12.3,12.3,0,0,0,95,49.92l2,0h2.61a1,1,0,0,0,.59-.12.45.45,0,0,0,.17-.4Z"/><path class="cls-1" d="M114.79,51.21h3.13a15.1,15.1,0,0,1-.57,3.16,6.36,6.36,0,0,1-1.43,2.48,7.72,7.72,0,0,1-2.82,1.81,5,5,0,0,0-.76-1,5.46,5.46,0,0,0-1-.92,5.6,5.6,0,0,0,2-1.33,4.69,4.69,0,0,0,1-1.83A12.15,12.15,0,0,0,114.79,51.21ZM126,60l2.67,1.07a21.7,21.7,0,0,1-3.06,2.06,31.38,31.38,0,0,1-3.82,1.8c-1.37.54-2.77,1-4.21,1.42s-2.88.75-4.32,1a7.39,7.39,0,0,0-.83-1.17,7.26,7.26,0,0,0-1-1c1.39-.21,2.79-.49,4.19-.82s2.76-.73,4.07-1.17a30.29,30.29,0,0,0,3.6-1.46A13.82,13.82,0,0,0,126,60Zm-14-.74h32.51v2.36H112Zm.07-8.82h10.58V52.8H112.09Zm1.58-8h2.92v3.79h5.83v2.46h-8.75ZM119,72.24a3,3,0,0,0-.33-.78c-.16-.3-.33-.59-.48-.87a3,3,0,0,0-.49-.68,5.66,5.66,0,0,0,1.17-.91,2.34,2.34,0,0,0,.63-1.75V63.52l3.31,0v5.71l-1.33.76c-.38.23-.76.47-1.13.73a7.23,7.23,0,0,0-1,.79A1.11,1.11,0,0,0,119,72.24Zm0,0-.15-2.2,1.41-.94,10.51-1.88a9.78,9.78,0,0,0-.16,1.26c0,.48-.06.86-.06,1.17q-3.56.7-5.72,1.15l-3.33.69c-.78.18-1.34.32-1.69.42A4.17,4.17,0,0,0,119,72.24Zm2-30.26h3.24V58h-3.24Zm4.58,4.27h18.5v2.63h-18.5Zm0,11.12,3.31-.85a21.5,21.5,0,0,1,1.14,1.87,8.56,8.56,0,0,1,.77,1.8l-3.49,1a12.81,12.81,0,0,0-.7-1.85A18.38,18.38,0,0,0,125.66,57.37Zm.83-3.73h16.88v2.59H126.49ZM130.41,60a14.74,14.74,0,0,0,3.3,4.36,18.29,18.29,0,0,0,5,3.19,26.65,26.65,0,0,0,6.49,1.91,9.38,9.38,0,0,0-1.06,1.19,9.83,9.83,0,0,0-.88,1.34,29.26,29.26,0,0,1-6.88-2.36,19.14,19.14,0,0,1-5.2-3.79,20.52,20.52,0,0,1-3.62-5.25Zm2.7-18h3.35V55.13h-3.35Zm7.24,19.79,2.45,1.62a39.85,39.85,0,0,1-3.66,2c-1.33.65-2.56,1.21-3.69,1.69l-2.08-1.53c.74-.32,1.54-.7,2.41-1.13s1.69-.88,2.48-1.35S139.75,62.18,140.35,61.77Z"/><path class="cls-1" d="M0,32.74,19.56,0h2.71l7.49,32.74H27.49L22.22,9.27c-.25-1.18-.51-2.45-.8-3.81s-.59-2.88-.91-4.58h.68Q19.78,3.4,18.62,5.44c-.78,1.35-1.52,2.63-2.24,3.83L2.47,32.74ZM7.76,22.48l.35-1.87h18l-.34,1.87Z"/><path class="cls-1" d="M37.41,32.74,43.44,0h12A11.77,11.77,0,0,1,61,1.21,7.2,7.2,0,0,1,64.29,4.6a8.35,8.35,0,0,1,.46,5.07,10.83,10.83,0,0,1-2.32,5A12.19,12.19,0,0,1,57.94,18a15,15,0,0,1-6.06,1.19H41.12l.34-1.86H52.23a11.91,11.91,0,0,0,4.86-1,9.83,9.83,0,0,0,3.6-2.7,8.74,8.74,0,0,0,1.84-4.05,6.77,6.77,0,0,0-.35-4.08,5.77,5.77,0,0,0-2.6-2.71,9.57,9.57,0,0,0-4.52-1H45.32L39.63,32.74Z"/><path class="cls-1" d="M68.83,32.74,74.86,0h12a11.73,11.73,0,0,1,5.59,1.21A7.2,7.2,0,0,1,95.71,4.6a8.27,8.27,0,0,1,.46,5.07,10.81,10.81,0,0,1-2.31,5A12.23,12.23,0,0,1,89.36,18a14.91,14.91,0,0,1-6,1.19H72.54l.34-1.86H83.65a11.91,11.91,0,0,0,4.86-1,9.66,9.66,0,0,0,3.6-2.7A8.64,8.64,0,0,0,94,9.62a6.62,6.62,0,0,0-.35-4.08A5.77,5.77,0,0,0,91,2.83a9.57,9.57,0,0,0-4.52-1H76.74L71.05,32.74Z"/><path class="cls-1" d="M95,32.74,114.58,0h2.71l7.49,32.74h-2.27L117.24,9.27c-.24-1.18-.51-2.45-.79-3.81s-.59-2.88-.92-4.58h.68q-1.41,2.52-2.57,4.56c-.77,1.35-1.52,2.63-2.23,3.83L97.49,32.74Zm7.77-10.26.34-1.87h18l-.34,1.87Z"/><path class="cls-1" d="M132.43,32.74l6-32.74h12.11a12,12,0,0,1,5.6,1.19,7.05,7.05,0,0,1,3.29,3.34,8.13,8.13,0,0,1,.44,5,10.62,10.62,0,0,1-2.31,5,12.17,12.17,0,0,1-4.52,3.33A15,15,0,0,1,147,19.07H136.17l.34-1.87h10.76a12.17,12.17,0,0,0,4.9-.95,9.86,9.86,0,0,0,3.66-2.69,8.36,8.36,0,0,0,1.84-4.05,6,6,0,0,0-1.33-5.58q-2-2.06-6-2.06h-10l-5.69,30.87Zm21.46,0-6-14.83h2.34l6.1,14.83Z"/><path class="cls-1" d="M165.47,32.74,171.5,0h22.07l-.36,1.89h-19.8L171,15.14H189.2L188.84,17H170.62l-2.53,13.86H188l-.34,1.87Z"/><path class="cls-1" d="M196.06,32.74l6-32.74h2.27l-5.69,30.87h18.19l-.34,1.87Z"/></g></g></svg>