<svg xmlns="http://www.w3.org/2000/svg" viewBox="0 0 305.94 180.31"><defs><style>.cls-1{fill:#fff;}</style></defs><g id="圖層_2" data-name="圖層 2"><g id="text"><path class="cls-1" d="M33.45,33.2l6-32.74h3l6.93,24.41c.13.49.27,1,.43,1.59s.31,1.15.48,1.74L50.78,30c.15.57.28,1.11.39,1.6l-.71-.09,1-1.6,1.09-1.74c.37-.58.72-1.16,1.07-1.72l1-1.59L70.51.46h3.15l-6,32.74H65.43l4.22-23c.13-.63.26-1.28.38-2s.25-1.34.39-2,.27-1.38.4-2.06.26-1.37.39-2l.42.07c-.46.73-.9,1.46-1.34,2.19L69,6.53l-1.25,2c-.39.63-.78,1.23-1.15,1.78l-15,22.92h-2l-6.62-23L42.27,7.8C42,6.94,41.79,6,41.55,5.07s-.5-1.93-.76-2.92l.47.07c-.12.67-.23,1.36-.36,2s-.24,1.38-.35,2.06-.23,1.36-.34,2-.23,1.32-.34,1.93L35.64,33.2Z"/><path class="cls-1" d="M79.3,33.2l6-32.74H107.4L107,2.35H87.23L84.79,15.6H103l-.37,1.87H84.45L81.91,31.33h19.9l-.35,1.87Z"/><path class="cls-1" d="M118.13.46l-6,32.74h-2.22l6-32.74Zm2.15,32.74H111.1l.34-1.87h8.74a19.71,19.71,0,0,0,8.55-1.74,15.35,15.35,0,0,0,6-5,19.28,19.28,0,0,0,3.15-7.83A16.85,16.85,0,0,0,137.74,9,8.49,8.49,0,0,0,134,4.05a13.61,13.61,0,0,0-7.31-1.72h-10l.34-1.87h9.64a16.36,16.36,0,0,1,8.41,2A10.22,10.22,0,0,1,139.71,8a16.87,16.87,0,0,1,.37,8.74,21.88,21.88,0,0,1-3.56,8.87,17.28,17.28,0,0,1-6.72,5.64A21.93,21.93,0,0,1,120.28,33.2Z"/><path class="cls-1" d="M155,.46,149,33.2h-2.22l6-32.74Z"/><path class="cls-1" d="M174.22,33.66a14.26,14.26,0,0,1-7-1.61,11,11,0,0,1-4.49-4.54,14.29,14.29,0,0,1-1.57-6.88,22.25,22.25,0,0,1,5.12-14.15,18.39,18.39,0,0,1,6-4.72A17.22,17.22,0,0,1,180.12,0a14.82,14.82,0,0,1,5.45.91,11.13,11.13,0,0,1,3.86,2.46,10.46,10.46,0,0,1,2.3,3.47,10.88,10.88,0,0,1,.8,3.95h-2.22a10.18,10.18,0,0,0-.77-3.3,9,9,0,0,0-1.94-2.84,9.19,9.19,0,0,0-3.15-2,12.07,12.07,0,0,0-4.4-.74,14.7,14.7,0,0,0-6.77,1.57A16.79,16.79,0,0,0,168,7.71a20,20,0,0,0-3.4,6,20.28,20.28,0,0,0-1.2,6.9,12.14,12.14,0,0,0,1.41,6.07,9.46,9.46,0,0,0,3.85,3.78,11.92,11.92,0,0,0,5.63,1.29,14.62,14.62,0,0,0,4.76-.74,14.92,14.92,0,0,0,4-2,15.39,15.39,0,0,0,3-2.86,14.79,14.79,0,0,0,2-3.29h2.27a15.72,15.72,0,0,1-2.22,3.93,17.71,17.71,0,0,1-8.23,5.94A16.76,16.76,0,0,1,174.22,33.66Z"/><path class="cls-1" d="M193.32,33.2,212.88.46h2.71l7.49,32.74h-2.27L215.54,9.73c-.24-1.18-.51-2.45-.79-3.81s-.59-2.88-.92-4.58h.69c-1,1.69-1.81,3.2-2.58,4.56s-1.52,2.63-2.23,3.83L195.79,33.2Zm7.77-10.26.34-1.87h18l-.34,1.87Z"/><path class="cls-1" d="M230.73,33.2l6-32.74H239l-5.69,30.87h18.19l-.34,1.87Z"/><path class="cls-1" d="M0,83.2,6,50.46H18a11.88,11.88,0,0,1,5.59,1.21,7.22,7.22,0,0,1,3.27,3.4,8.23,8.23,0,0,1,.46,5.06,10.73,10.73,0,0,1-2.32,5,12,12,0,0,1-4.49,3.34,14.75,14.75,0,0,1-6.05,1.2H3.71l.34-1.87H14.82a11.75,11.75,0,0,0,4.86-1,9.56,9.56,0,0,0,3.6-2.7,8.65,8.65,0,0,0,1.84-4A6.65,6.65,0,0,0,24.77,56a5.71,5.71,0,0,0-2.6-2.7,9.45,9.45,0,0,0-4.52-1H7.91L2.22,83.2Z"/><path class="cls-1" d="M31.42,83.2l6-32.74H49.56a12.09,12.09,0,0,1,5.61,1.19A7.08,7.08,0,0,1,58.45,55a8.05,8.05,0,0,1,.44,5,10.52,10.52,0,0,1-2.31,5,12,12,0,0,1-4.51,3.33A15.08,15.08,0,0,1,46,69.53H35.16l.34-1.86H46.27a12.12,12.12,0,0,0,4.89-1A9.59,9.59,0,0,0,54.82,64a8.38,8.38,0,0,0,1.85-4,6,6,0,0,0-1.33-5.59q-2-2.05-6-2.06h-10L33.65,83.2Zm21.46,0L46.83,68.37h2.34L55.28,83.2Z"/><path class="cls-1" d="M78,83.66a14,14,0,0,1-6.9-1.61,11.13,11.13,0,0,1-4.46-4.56A14.32,14.32,0,0,1,65,70.63a22,22,0,0,1,1.32-7.49,21.6,21.6,0,0,1,3.8-6.64,18.8,18.8,0,0,1,5.95-4.73A16.9,16.9,0,0,1,83.88,50a13.79,13.79,0,0,1,6.88,1.63,11,11,0,0,1,4.46,4.54,14.55,14.55,0,0,1,1.55,6.88,22.38,22.38,0,0,1-5.1,14.13,18.56,18.56,0,0,1-5.94,4.72A16.81,16.81,0,0,1,78,83.66ZM78,81.75a14.5,14.5,0,0,0,6.86-1.61,16.61,16.61,0,0,0,5.22-4.31,19.73,19.73,0,0,0,3.3-6,20.19,20.19,0,0,0,1.15-6.71,12.72,12.72,0,0,0-1.32-6,9.22,9.22,0,0,0-3.74-3.86,11.55,11.55,0,0,0-5.7-1.35,14.48,14.48,0,0,0-6.89,1.62,16.41,16.41,0,0,0-5.21,4.31,20.28,20.28,0,0,0-3.32,6,20,20,0,0,0-1.16,6.7,12.47,12.47,0,0,0,1.33,6,9.41,9.41,0,0,0,3.76,3.87A11.5,11.5,0,0,0,78,81.75Z"/><path class="cls-1" d="M103,52.33l.35-1.87h26.7l-.34,1.87H117.5L111.81,83.2h-2.22l5.67-30.87Z"/><path class="cls-1" d="M132.28,83.2l6-32.74h22.07L160,52.35h-19.8L137.77,65.6H156l-.37,1.87H137.43l-2.54,13.86h19.9l-.35,1.87Z"/><path class="cls-1" d="M176.78,83.66a14.25,14.25,0,0,1-6.95-1.61,11.06,11.06,0,0,1-4.5-4.54,14.41,14.41,0,0,1-1.56-6.88,22,22,0,0,1,1.32-7.5,21.65,21.65,0,0,1,3.8-6.65,18.39,18.39,0,0,1,6-4.72A17.19,17.19,0,0,1,182.69,50a14.82,14.82,0,0,1,5.45.91A11.08,11.08,0,0,1,192,53.37a10.34,10.34,0,0,1,2.31,3.47,11.09,11.09,0,0,1,.8,3.95h-2.23a9.69,9.69,0,0,0-.77-3.3,8.71,8.71,0,0,0-1.94-2.84,9,9,0,0,0-3.15-2,12,12,0,0,0-4.39-.74,14.77,14.77,0,0,0-6.78,1.57,16.75,16.75,0,0,0-5.27,4.23,19.76,19.76,0,0,0-3.4,6,20.28,20.28,0,0,0-1.2,6.9,12.24,12.24,0,0,0,1.4,6.07,9.49,9.49,0,0,0,3.86,3.78,11.92,11.92,0,0,0,5.63,1.29,14.66,14.66,0,0,0,4.76-.74,15.07,15.07,0,0,0,4-2,15.39,15.39,0,0,0,3-2.86,14.79,14.79,0,0,0,2-3.29h2.27a16,16,0,0,1-2.22,3.93,17.71,17.71,0,0,1-8.23,5.94A16.78,16.78,0,0,1,176.78,83.66Z"/><path class="cls-1" d="M201.23,52.33l.34-1.87h26.71l-.34,1.87H215.7L210,83.2h-2.23l5.67-30.87Z"/><path class="cls-1" d="M238.73,50.46l-6,32.74h-2.22l6-32.74Z"/><path class="cls-1" d="M253.9,83.2l-7.52-32.74h2.25L254,73.93c.26,1.16.53,2.42.82,3.8s.59,2.91.91,4.59H255c.93-1.68,1.8-3.22,2.59-4.6s1.53-2.65,2.2-3.79l13.87-23.47h2.46L256.61,83.2Z"/><path class="cls-1" d="M277.84,83.2l6-32.74h22.07l-.37,1.89h-19.8L283.33,65.6h18.24l-.37,1.87H283l-2.54,13.86h19.9L300,83.2Z"/><path class="cls-1" d="M37.91,133.66a14.26,14.26,0,0,1-7-1.61,11,11,0,0,1-4.49-4.54,14.41,14.41,0,0,1-1.56-6.88,22.27,22.27,0,0,1,1.31-7.5,21.85,21.85,0,0,1,3.8-6.65,18.5,18.5,0,0,1,6-4.72A17.27,17.27,0,0,1,43.82,100a14.8,14.8,0,0,1,5.44.91,11.13,11.13,0,0,1,3.86,2.46,10.65,10.65,0,0,1,2.31,3.47,11.08,11.08,0,0,1,.79,4H54a9.93,9.93,0,0,0-.77-3.3,9,9,0,0,0-1.94-2.84,9.19,9.19,0,0,0-3.15-2,12.07,12.07,0,0,0-4.4-.74A14.7,14.7,0,0,0,37,103.48a16.75,16.75,0,0,0-5.27,4.23,19.79,19.79,0,0,0-3.41,6,20.28,20.28,0,0,0-1.2,6.9,12.14,12.14,0,0,0,1.41,6.07,9.46,9.46,0,0,0,3.85,3.78A12,12,0,0,0,38,131.75a14.62,14.62,0,0,0,4.76-.74,14.92,14.92,0,0,0,4-2,15.39,15.39,0,0,0,3-2.86,14.42,14.42,0,0,0,2-3.29H54a15.41,15.41,0,0,1-2.22,3.93,17.94,17.94,0,0,1-3.54,3.47,17.75,17.75,0,0,1-4.69,2.47A16.76,16.76,0,0,1,37.91,133.66Z"/><path class="cls-1" d="M61.66,133.2l6-32.74H70l-5.69,30.87H82.46l-.34,1.87Z"/><path class="cls-1" d="M101.76,133.66a14,14,0,0,1-6.9-1.61,11.16,11.16,0,0,1-4.47-4.56,14.32,14.32,0,0,1-1.57-6.86,22.26,22.26,0,0,1,5.11-14.13,18.83,18.83,0,0,1,6-4.73,16.9,16.9,0,0,1,7.78-1.77,13.81,13.81,0,0,1,6.88,1.63,11.08,11.08,0,0,1,4.46,4.54,14.55,14.55,0,0,1,1.55,6.88,22,22,0,0,1-1.32,7.48,21.71,21.71,0,0,1-3.79,6.65,18.42,18.42,0,0,1-5.93,4.72A16.81,16.81,0,0,1,101.76,133.66Zm.07-1.91a14.5,14.5,0,0,0,6.86-1.61,16.57,16.57,0,0,0,5.21-4.31,19.76,19.76,0,0,0,3.31-6,20.19,20.19,0,0,0,1.15-6.71,12.72,12.72,0,0,0-1.32-6,9.25,9.25,0,0,0-3.75-3.86,11.55,11.55,0,0,0-5.7-1.35,14.44,14.44,0,0,0-6.88,1.62,16.31,16.31,0,0,0-5.21,4.31,20.28,20.28,0,0,0-3.32,6,20,20,0,0,0-1.16,6.7,12.47,12.47,0,0,0,1.33,6,9.35,9.35,0,0,0,3.76,3.87A11.47,11.47,0,0,0,101.83,131.75Z"/><path class="cls-1" d="M126.81,102.33l.34-1.87h26.71l-.34,1.87H141.29L135.6,133.2h-2.22L139,102.33Z"/><path class="cls-1" d="M156.06,133.2l6-32.74h2.27l-2.78,15.08h21.88l2.76-15.08h2.24l-6,32.74h-2.24l2.9-15.8H161.24l-2.91,15.8Z"/><path class="cls-1" d="M202.35,100.46l-6,32.74H194.1l6-32.74Z"/><path class="cls-1" d="M208,133.2l6-32.74h2.27l14.11,23.64c.4.66.82,1.37,1.26,2.14s.87,1.55,1.31,2.36.89,1.63,1.33,2.45l-.44.2c.13-.79.27-1.62.41-2.48s.27-1.7.41-2.52.27-1.58.38-2.26l4.35-23.53h2.24l-6,32.74h-2.27l-13.69-22.83-1.31-2.26c-.46-.81-1-1.67-1.45-2.58s-1-1.89-1.59-2.91l.44-.27c-.18,1.07-.35,2.09-.5,3s-.3,1.86-.43,2.69-.27,1.58-.41,2.27l-4.2,22.85Z"/><path class="cls-1" d="M260.9,133.66a14.31,14.31,0,0,1-7-1.61,11,11,0,0,1-4.49-4.54,14.35,14.35,0,0,1-1.57-6.86,22.07,22.07,0,0,1,1.32-7.5A21.83,21.83,0,0,1,253,106.5a18.65,18.65,0,0,1,5.94-4.73,17,17,0,0,1,7.83-1.77,14.85,14.85,0,0,1,5.45.92,11.32,11.32,0,0,1,3.89,2.49,10.6,10.6,0,0,1,3.13,7.38h-2.27a9.13,9.13,0,0,0-.69-3.23,8.73,8.73,0,0,0-1.92-2.86,9.29,9.29,0,0,0-3.19-2,12.21,12.21,0,0,0-4.48-.76,14.53,14.53,0,0,0-6.91,1.63,16.33,16.33,0,0,0-5.23,4.33,19.91,19.91,0,0,0-3.31,6,20.39,20.39,0,0,0-1.15,6.73,11.28,11.28,0,0,0,2.87,8.1q2.87,3,8.07,3a14.87,14.87,0,0,0,6.75-1.52,14.21,14.21,0,0,0,5.13-4.27,15.2,15.2,0,0,0,2.74-6.47l.76.26H264l.34-1.86h13.77l-.34,1.91a18.15,18.15,0,0,1-2.1,5.67,16.25,16.25,0,0,1-3.73,4.38,16.61,16.61,0,0,1-5,2.82A18,18,0,0,1,260.9,133.66Z"/><path class="cls-1" d="M36.67,165.66H69.94v2H36.67ZM37.5,151H53.66v1.88H37.5Zm1.19,1.17h2.63v9.14a1.68,1.68,0,0,0,.32,1.18,1.74,1.74,0,0,0,1.26.34h7.2c.5,0,1.11,0,1.82-.05a13.88,13.88,0,0,0,1.6-.14c0,.32.1.65.14,1s.1.65.15.91a7.78,7.78,0,0,1-1.48.16q-1,0-2,0h-7.6a7.06,7.06,0,0,1-2.45-.34A2.08,2.08,0,0,1,39,163.25a5.24,5.24,0,0,1-.34-2.06ZM40.31,169H66.44v11.11h-3.2v-9.4H43.4v9.4H40.31Zm3.92-16.14,2,.42a10.12,10.12,0,0,1-1.19,2.06,12,12,0,0,1-1.58,1.77,5.18,5.18,0,0,0-.85-.52c-.37-.2-.68-.35-.92-.46A8.8,8.8,0,0,0,44.23,152.83ZM42,157.24H53.16v1.62H42Zm4.54-2.34h2.23v2.34a5.52,5.52,0,0,1-.38,1.89,4.94,4.94,0,0,1-1.48,2,9.85,9.85,0,0,1-3.33,1.7,5.31,5.31,0,0,0-.66-.76c-.28-.27-.54-.5-.78-.7a8.06,8.06,0,0,0,2.9-1.23,3.48,3.48,0,0,0,1.21-1.49,4.18,4.18,0,0,0,.29-1.43Zm-4.11,22.33H64.21V179H42.43Zm7-10.44h2.63v3.12a3.37,3.37,0,0,1-.32,1.44,3.43,3.43,0,0,1-1.14,1.23,8,8,0,0,1-2.21,1,22.17,22.17,0,0,1-3.57.73,7.17,7.17,0,0,0-.64-.92,7.78,7.78,0,0,0-.8-.86,25.78,25.78,0,0,0,3.06-.42,7.66,7.66,0,0,0,1.86-.6,2.19,2.19,0,0,0,.9-.75,1.72,1.72,0,0,0,.23-.85ZM44,154.22h8.49v1.56H44Zm2.19,20.32H60.94v1.62H46.21Zm.4-15,1.29-1.17q1.31.62,2.7,1.44a15.7,15.7,0,0,1,2.2,1.51l-1.4,1.33a16.43,16.43,0,0,0-2.15-1.56C48.33,160.51,47.45,160,46.61,159.54Zm9.68-8.69h2.63v1.72a5.34,5.34,0,0,1-.32,1.8,4.38,4.38,0,0,1-1.19,1.68,8.33,8.33,0,0,1-2.52,1.45,4.33,4.33,0,0,0-.52-.65l-.71-.72a3,3,0,0,0-.61-.48,7.87,7.87,0,0,0,2.09-1,2.65,2.65,0,0,0,.92-1,2.79,2.79,0,0,0,.23-1.11ZM64.65,157h.54l.5-.07,1.65.62a11.33,11.33,0,0,1-2.89,3.8A16.62,16.62,0,0,1,60.22,164a27.48,27.48,0,0,1-5,1.62,9.57,9.57,0,0,0-.63-1,5.66,5.66,0,0,0-.78-.89,26.29,26.29,0,0,0,4.56-1.3,14.61,14.61,0,0,0,3.83-2.14,8.76,8.76,0,0,0,2.49-2.95Zm-9.87,0h10.3v1.88H54.78Zm0,3.69L56,159.12l3.14,1.11,3.31,1.23c1.1.43,2.14.84,3.11,1.24s1.81.77,2.5,1.11L66.8,165.6c-.67-.35-1.48-.73-2.44-1.14l-3.08-1.29c-1.09-.46-2.2-.89-3.31-1.32Zm.43,6.16h2.66v4.53c0,.33.07.53.22.62a2.2,2.2,0,0,0,1,.13h3.6a4.21,4.21,0,0,0,.61,0,.34.34,0,0,0,.25-.17,5.4,5.4,0,0,0,1,.34,10.09,10.09,0,0,0,1.08.21,1.12,1.12,0,0,1-.72.91,5.13,5.13,0,0,1-1.87.26H58.74a9.89,9.89,0,0,1-2.14-.18,1.51,1.51,0,0,1-1.06-.68,2.82,2.82,0,0,1-.29-1.44Zm2.27-16H64V153H57.52Zm5.15,0h2.69v2.76a1.8,1.8,0,0,0,.08.63c0,.12.18.18.39.18h1.44l.83,0c.31,0,.56-.06.76-.1,0,.28.08.61.11,1a8.39,8.39,0,0,0,.1,1,3.2,3.2,0,0,1-.75.13l-.94,0H65.44a4.19,4.19,0,0,1-1.75-.29,1.54,1.54,0,0,1-.81-.94,5.43,5.43,0,0,1-.21-1.65Z"/><path class="cls-1" d="M76.4,168.25c.82-.32,1.78-.74,2.9-1.26l3.47-1.59.8,2.3c-1,.59-2,1.15-3.08,1.7s-2,1.09-3,1.61Zm.47-11.6,2.52-.87c.29.67.58,1.39.88,2.17s.58,1.52.83,2.24.45,1.32.59,1.84l-2.7,1.1c-.12-.54-.3-1.18-.54-1.94s-.49-1.53-.75-2.32S77.16,157.34,76.87,156.65ZM82,152.86h3.13v10.47c0,1.27-.07,2.65-.2,4.13a31.35,31.35,0,0,1-.74,4.49,20.76,20.76,0,0,1-1.58,4.37,14.32,14.32,0,0,1-2.74,3.79,4.46,4.46,0,0,0-.66-.69q-.45-.42-.9-.78a3.78,3.78,0,0,0-.81-.54,13.19,13.19,0,0,0,2.44-3.42,16.77,16.77,0,0,0,1.34-3.79A27.73,27.73,0,0,0,81.8,167c.1-1.29.15-2.52.15-3.68Zm1.65,0h26.54v2.63H83.6Zm6.27,20.32,3,.94c-.53.6-1.1,1.23-1.73,1.88s-1.27,1.27-1.94,1.88a22.91,22.91,0,0,1-1.91,1.55,5,5,0,0,0-.72-.58l-1-.65a7.44,7.44,0,0,0-.89-.52,25.87,25.87,0,0,0,2.72-2.14A30.07,30.07,0,0,0,89.87,173.18Zm5.61-17.69,3.21.35a21.56,21.56,0,0,1-2.38,4.62,21.21,21.21,0,0,1-3.83,4.23,24.78,24.78,0,0,1-5.6,3.5,6.26,6.26,0,0,0-.94-1.12,5.19,5.19,0,0,0-1.15-.89,23.05,23.05,0,0,0,5.26-3.06,17.38,17.38,0,0,0,3.51-3.71A14.05,14.05,0,0,0,95.48,155.49Zm-9,6.61,1.8-1.36A21.48,21.48,0,0,1,90.33,162a13,13,0,0,1,1.73,1.34l-1.87,1.52a20.32,20.32,0,0,0-1.67-1.37Q87.46,162.71,86.45,162.1Zm.1-4.09h23.22v2.37H86.55Zm3,5.74H106v9H89.54Zm6.52,7.91h3.27v5.67a3.6,3.6,0,0,1-.27,1.57,1.79,1.79,0,0,1-1.13.85,7,7,0,0,1-2,.36c-.81,0-1.77.07-2.9.07a7,7,0,0,0-.47-1.28c-.22-.47-.42-.87-.61-1.22l2.19,0c.68,0,1.13,0,1.37,0a.71.71,0,0,0,.45-.1.39.39,0,0,0,.13-.35Zm-3.6-6v1.65H103v-1.65Zm0,3.47v1.68H103v-1.68Zm1-18.54,3.42-.64c.31.64.61,1.36.9,2.13s.5,1.45.65,2l-3.57.78a13.93,13.93,0,0,0-.56-2.06C94,152,93.75,151.26,93.47,150.59Zm8,8.36a13.89,13.89,0,0,0,2.32,2.82,18.18,18.18,0,0,0,6.79,4.09,7.63,7.63,0,0,0-1.08,1,7.17,7.17,0,0,0-.9,1.15,19.86,19.86,0,0,1-3.8-2.08,20.18,20.18,0,0,1-3.31-2.87,18.85,18.85,0,0,1-2.54-3.35Zm.21,15.49,2.49-1.29c.57.49,1.2,1,1.87,1.65l2,1.76a16.79,16.79,0,0,1,1.53,1.54l-2.59,1.49a19.87,19.87,0,0,0-1.44-1.57l-1.91-1.85C102.91,175.54,102.27,175,101.67,174.44Zm5.66-13.93,2,1.3a23.57,23.57,0,0,1-1.85,1.49c-.66.47-1.27.87-1.82,1.19l-1.8-1.19c.55-.37,1.16-.83,1.84-1.38S106.92,160.9,107.33,160.51Z"/><path class="cls-1" d="M120.69,152.28h3.38V164c0,1.25-.07,2.6-.2,4.05a32.79,32.79,0,0,1-.7,4.39,19.58,19.58,0,0,1-1.49,4.24,13.27,13.27,0,0,1-2.65,3.65,4.26,4.26,0,0,0-.74-.72,12.47,12.47,0,0,0-1-.74,7.1,7.1,0,0,0-.91-.55,12.46,12.46,0,0,0,2.37-3.29,16.24,16.24,0,0,0,1.28-3.66,24.89,24.89,0,0,0,.54-3.79c.08-1.27.13-2.47.13-3.62Zm1.8,15.2h23v2.91h-23Zm.14-15.2h22.79v2.92H122.63Zm0,7.52h22.79v2.85H122.63Zm9.29-6.39h3.42v26.38h-3.42Zm12.2-1.13h3.39v24a4.26,4.26,0,0,1-.4,2.05,2.53,2.53,0,0,1-1.37,1.12,9.27,9.27,0,0,1-2.63.44c-1.1,0-2.5.07-4.21,0a6.23,6.23,0,0,0-.41-1.46,11.07,11.07,0,0,0-.7-1.49c.76,0,1.52.07,2.26.08h2l1.17,0a1.22,1.22,0,0,0,.74-.17.84.84,0,0,0,.19-.64Z"/><path class="cls-1" d="M157.17,151.44h9.1v2.75h-5.9v25.92h-3.2Zm8.13,0h.61l.51-.13,2.3,1.2c-.33,1-.71,1.94-1.13,3s-.84,2.07-1.24,3.09-.82,2-1.23,2.87a10.55,10.55,0,0,1,2.54,3.76,10,10,0,0,1,.59,3.24,7.24,7.24,0,0,1-.37,2.48,3,3,0,0,1-1.21,1.53,3.63,3.63,0,0,1-.95.46,6.58,6.58,0,0,1-1.07.23,11.05,11.05,0,0,1-1.22.06H162.1a7.7,7.7,0,0,0-.24-1.41,4.33,4.33,0,0,0-.59-1.38c.41,0,.78,0,1.12.05a7.9,7.9,0,0,0,.86,0,2.61,2.61,0,0,0,1.19-.26,1.51,1.51,0,0,0,.52-.83,4.7,4.7,0,0,0,.16-1.31,8.39,8.39,0,0,0-.59-2.85,9.81,9.81,0,0,0-2.47-3.4c.31-.76.63-1.58.94-2.45s.61-1.74.9-2.61.55-1.68.79-2.45.44-1.42.61-2Zm8,5.51h3.38q-.1,3.75-.43,7.2a30.05,30.05,0,0,1-1.28,6.42,16.24,16.24,0,0,1-2.91,5.36,16,16,0,0,1-5.31,4.08,8.55,8.55,0,0,0-1-1.21,7.68,7.68,0,0,0-1.25-1.09,14.36,14.36,0,0,0,4.85-3.64,14,14,0,0,0,2.57-4.8,25.89,25.89,0,0,0,1.06-5.78Q173.19,160.39,173.26,157ZM168,155.36h20.74v2.88H168Zm6.95,7.35h9.54v2.79H175Zm.9-12.05L179,150c.33.76.67,1.57,1,2.45s.59,1.61.76,2.21l-3.28.85a17.61,17.61,0,0,0-.66-2.29C176.44,152.29,176.14,151.44,175.85,150.66Zm7.45,12.05h3.39c0,.33,0,.6,0,.81s0,.39,0,.52c-.1,2.46-.19,4.56-.29,6.29s-.21,3.16-.36,4.29a18.22,18.22,0,0,1-.5,2.69,3.71,3.71,0,0,1-.69,1.44,3.14,3.14,0,0,1-1.17.87,5.09,5.09,0,0,1-1.49.36,16.71,16.71,0,0,1-2.09.1c-.86,0-1.77,0-2.73-.07a6.57,6.57,0,0,0-.31-1.5,5.69,5.69,0,0,0-.7-1.51c.91.07,1.75.11,2.52.13l1.69,0a1.72,1.72,0,0,0,1.3-.42,3.8,3.8,0,0,0,.66-1.8,38.31,38.31,0,0,0,.47-4.23c.13-1.87.25-4.36.34-7.45Z"/><path class="cls-1" d="M195.55,155.49h13V158h-13ZM197,168.58h2.84v11.11H197Zm0-8.72h10.33v2.4H197Zm0,4.34h10.33v2.37H197Zm1.4,4.38h9v9.65h-9v-2.52h6.16v-4.64h-6.16Zm1-17.5,2.52-1.2a25.58,25.58,0,0,1,1.55,2.19,14.26,14.26,0,0,1,1.15,2.09L202,155.52c-.26-.58-.64-1.3-1.13-2.15S199.93,151.75,199.47,151.08Zm12.71,4.15,2.74.71a25.49,25.49,0,0,1-2.41,4.5,19.88,19.88,0,0,1-3.14,3.7,3.7,3.7,0,0,0-.48-.72l-.69-.85a4.5,4.5,0,0,0-.63-.7,15.84,15.84,0,0,0,2.67-3A17,17,0,0,0,212.18,155.23Zm11.95,15.23h.62l.57-.13,2,.9a13,13,0,0,1-3.13,3.47,20.72,20.72,0,0,1-4.3,2.56,32.93,32.93,0,0,1-5.13,1.78,52,52,0,0,1-5.58,1.14,6.86,6.86,0,0,0-.61-1.28,8.9,8.9,0,0,0-.83-1.19,48.08,48.08,0,0,0,5.15-.84,34,34,0,0,0,4.73-1.39,18.16,18.16,0,0,0,3.91-2,9.35,9.35,0,0,0,2.62-2.63Zm-15.44-18.6h7.52v2.33h-7.52Zm.61,18.6h15.48v2.13H209.3Zm4.5-12.61h14v2h-14v10H211V159.15l1.37-1.3Zm1,14.32a12.05,12.05,0,0,0,3.54,2.58,25.82,25.82,0,0,0,5,1.86,39.35,39.35,0,0,0,6,1.07,6.06,6.06,0,0,0-1.08,1.15,10,10,0,0,0-.83,1.28,36.85,36.85,0,0,1-6.23-1.44,25.28,25.28,0,0,1-5.25-2.38,16.36,16.36,0,0,1-4-3.31Zm-2.31-11h14.33v1.65H212.54Zm0,3.05h14.33v1.65H212.54Zm0,3.14h16.09v1.88H212.54ZM214.16,150h3v5.8h-3ZM217.4,156l3-.68c.24.52.49,1.09.74,1.72a16.69,16.69,0,0,1,.56,1.59l-3.14.84a12.42,12.42,0,0,0-.48-1.65C217.84,157.14,217.62,156.54,217.4,156Zm.9,2.92h2.88v9.4H218.3Zm2.16-8.85h3v5.8h-3Zm.9,1.79h7.31v2.36h-7.31Z"/><path class="cls-1" d="M250.55,156l3.46,1.2a33,33,0,0,1-4.48,4.94,44,44,0,0,1-5.74,4.41,41.47,41.47,0,0,1-6.56,3.45,9.89,9.89,0,0,0-.55-.87c-.23-.33-.47-.65-.71-1a4.93,4.93,0,0,0-.68-.77,39.8,39.8,0,0,0,6.16-3.08,35.75,35.75,0,0,0,5.32-4A21.89,21.89,0,0,0,250.55,156Zm-14.22-.81h31.83v3H236.33Zm6.59,24.89a3.91,3.91,0,0,0-.47-.78,9.64,9.64,0,0,0-.7-.88c-.25-.28-.47-.5-.66-.68A6.69,6.69,0,0,0,242,177a4.23,4.23,0,0,0,.88-1.07,2.67,2.67,0,0,0,.38-1.44V163.59h3.46v12.89q-.8.53-1.35.93c-.37.27-.75.56-1.14.89a7.05,7.05,0,0,0-.95.94A1.34,1.34,0,0,0,242.92,180.05Zm0,0-.36-2.85,1.59-1.11L255.81,173a14.85,14.85,0,0,0,.34,1.47c.16.56.3,1,.42,1.35L251,177.36c-1.51.43-2.75.79-3.71,1.08s-1.72.54-2.28.73-1,.36-1.3.49A4.52,4.52,0,0,0,242.92,180.05Zm6.45-29.29,3.45-.94a26.89,26.89,0,0,1,1.39,2.41,15.25,15.25,0,0,1,.95,2.25l-3.67,1.07a16.22,16.22,0,0,0-.86-2.33A25.48,25.48,0,0,0,249.37,150.76Zm5.65,5.93a43.42,43.42,0,0,0,1.58,6.22,23.46,23.46,0,0,0,2.56,5.28,20.2,20.2,0,0,0,4,4.49,32,32,0,0,0,6,3.87,8.65,8.65,0,0,0-1.37,1.23,5.55,5.55,0,0,0-1,1.49,36.72,36.72,0,0,1-6.39-4.54,23.85,23.85,0,0,1-4.29-5,26.11,26.11,0,0,1-2.68-5.76,52.33,52.33,0,0,1-1.66-6.69Zm9.72,3.88,2.91,1.85c-.91.87-1.9,1.74-3,2.62s-2.16,1.73-3.23,2.53-2.07,1.5-3,2.11l-2.52-1.82c1-.6,2-1.31,3-2.13s2.11-1.69,3.13-2.6S264,161.37,264.74,160.57Z"/></g></g></svg>