<svg xmlns="http://www.w3.org/2000/svg" viewBox="0 0 217.7 65.54"><defs><style>.cls-1{fill:#004e42;}</style></defs><g id="圖層_2" data-name="圖層 2"><g id="圖層_4" data-name="圖層 4"><path class="cls-1" d="M26.25,22.2l-.72,2.51c-1.86.09-3.74.13-5.64.13a59.28,59.28,0,0,1-10.54-.59A10.67,10.67,0,0,1,4.78,22,23,23,0,0,1,2,25.4L0,23.91a20,20,0,0,0,5-8.09H.51V13.4A30.49,30.49,0,0,0,4.35,8.54H.12V6.15H7.47V8.54A42.75,42.75,0,0,1,3.9,13.4H7.62v2.42A20.31,20.31,0,0,1,6,19.9,7.88,7.88,0,0,0,10.13,22a56.72,56.72,0,0,0,8.83.45C21.5,22.42,23.94,22.34,26.25,22.2ZM7.59,3.39,5.76,5.11A28,28,0,0,0,.69,1.88L2.4,0A22.51,22.51,0,0,1,7.59,3.39ZM25,20.26H9.76V2.88h4.58A12,12,0,0,0,16,0L18.75.6q-.43.93-1.2,2.28h6.87v7.29H12.33v2.31H25ZM21.81,8V5.08H12.33V8ZM22.41,18v-3.3H12.33V18Z"/><path class="cls-1" d="M53,17.19h4.74v2.14H53v3.05a2.7,2.7,0,0,1-.89,2.35,6.32,6.32,0,0,1-3.38.62c-.62,0-1.49,0-2.6-.06L45,22.79c1.12.1,2.13.14,3,.14a6.78,6.78,0,0,0,1.93-.15c.21-.1.32-.33.32-.7V19.33H31.72V17.19H50.26v-1H53Zm-8.79-1.94q-6.88.66-11.75.82L32,14c1.52,0,3.23-.11,5.12-.24v-2H32.68v-2H43.76v2h-4v1.79c1.29,0,2.78-.18,4.47-.37Zm13-9.7H54.47v3h-20V6.64h17.3V5.55H32.38V3.65H51.79V2.53H34.49V.63h20v3h2.78ZM43.82,22.38,42,24.2a19.3,19.3,0,0,0-5.21-2.69l1.76-1.93A22.41,22.41,0,0,1,43.82,22.38ZM45.43,9.69H56.71v5.78H45.43Zm8.67,2H48v1.79H54.1Z"/><path class="cls-1" d="M90,21.05H78.29v4.11H75.54V21.05H63.86V18.63H75.54v-2H66.38V6.18H75.2V.35h2.74V2h8.67V4.38H77.94v1.8h9.59V16.64H78.29v2H90ZM84.81,10.26V8.43H69.12v1.83Zm0,4.13V12.48H69.12v1.91Z"/><path class="cls-1" d="M122.36,22.35l-.82,2.48q-9.06,0-12.39,0a15,15,0,0,1-5.82-1.17,10.42,10.42,0,0,1-4.23-3.46,20.05,20.05,0,0,1-1.23,5.24l-2.24-1.51A34.58,34.58,0,0,0,97,12.68h2.49l-.09,3.66a6,6,0,0,0,1.35,2.18V11.17H95.92V8.86h4.78V5.68H96.64V3.45h4.06V.28h2.58V3.45h3.66V5.68h-3.66V8.86h4.46v2.31h-4.46v3.19h3.92v2.26h-3.92v4.24a9.15,9.15,0,0,0,3.86,1.34q2.2.26,8.25.26C117.8,22.46,120.13,22.42,122.36,22.35ZM122.29,16q-.58,5-2.67,5c-1.09,0-2-.7-2.84-2.11a15.92,15.92,0,0,1-3,2.75L112,20.15a14.39,14.39,0,0,0,3.69-3.73A34.6,34.6,0,0,1,114.1,6.33h-2.78v9.74c1-.55,1.84-1.09,2.58-1.6l.65,2.26a24.14,24.14,0,0,1-5.58,3l-.74-2.19a1.07,1.07,0,0,0,.57-.89V4.08H114V.32h2.46V4.08h5.32V6.33h-5.23a30.5,30.5,0,0,0,.78,7,26.78,26.78,0,0,0,1.8-5.59l2.23.68a29.41,29.41,0,0,1-3.07,8.18,5.23,5.23,0,0,0,.52,1c.25.39.44.59.55.59s.25-.29.41-.87a14.53,14.53,0,0,0,.33-2.6Zm-.87-13.6-1.86,1.26a12.8,12.8,0,0,0-2.34-2L118.93.28A11.1,11.1,0,0,1,121.42,2.39Z"/><path class="cls-1" d="M119.52,50.06h-2.7V42.88H98.31v7.21h-2.7V40.74h23.91Zm-1.44,15h-2.66V63.91H99.73v1.22H97V51.26h21.06Zm-2.57-18.74H99.63v-2h15.88Zm0,3.38H99.63v-2h15.88Zm-.09,5.14V53.25H99.73v1.63Zm0,3.47V56.73H99.73v1.62Zm0,3.54V60.21H99.73v1.68Z"/><path class="cls-1" d="M134.36,43.28a20.53,20.53,0,0,1-.53,2.13,32,32,0,0,1-1.24,3.73,12.19,12.19,0,0,1,2,6.17,4.06,4.06,0,0,1-1,3.17,3.67,3.67,0,0,1-2.51.85l-.58,0-.6-2.6a6.36,6.36,0,0,0,1.06.11c.78,0,1.17-.49,1.17-1.46a11,11,0,0,0-2.23-6.18,31.55,31.55,0,0,0,2-6h-2.37v22H127V40.76h7.38Zm8.79,18.92-1.68,1.74a25.33,25.33,0,0,0-2.67-2.32,25.36,25.36,0,0,1-3.41,3.78l-2.11-1.52a17.37,17.37,0,0,0,5.07-6.42l2.4.67a17.53,17.53,0,0,1-.75,1.59A27,27,0,0,1,143.15,62.2ZM153,46.42l-1.42,2.12a30.45,30.45,0,0,1-3.15-1.74v1.69h-9.56V46.72a31.53,31.53,0,0,1-3.18,1.74l-1.46-2a24.86,24.86,0,0,0,8.87-6.34l2.64.77a3.88,3.88,0,0,1-.38.51A22.58,22.58,0,0,0,153,46.42Zm-10.1,10.65h-6.81V49.74h6.81Zm-2.46-2.28V52h-1.86v2.82Zm6.9-8.64a24.41,24.41,0,0,1-3.67-3,30.72,30.72,0,0,1-3.86,3Zm5.47,17.59L151,65.37a33.54,33.54,0,0,0-3.72-3.26,29.93,29.93,0,0,1-2.8,3.31l-2-1.48A19.52,19.52,0,0,0,147,57.56l2.37.66-.94,2A26.56,26.56,0,0,1,152.77,63.74Zm-1.4-6.67h-7V49.74h7Zm-2.52-2.28V52h-1.92v2.82Z"/><path class="cls-1" d="M185.09,58H159V55.7h3.82V51.86h-3.28V49.55h3.28v-3c-.46.38-1.14.92-2.05,1.63l-2-2A21.89,21.89,0,0,0,165.2,40l2.8.74A10.89,10.89,0,0,1,166.4,43h17.89v2.37H164.16a15.16,15.16,0,0,1-1.23,1.17h2.58v3h2.78v-3h2.55v3h3v-3h2.51v3h3v-3h2.58v3h2.66v2.31h-2.66V55.7h3.2Zm-20.3,1.76a24.33,24.33,0,0,1-3.43,5.77L158.87,64a23.23,23.23,0,0,0,3.37-5.29Zm3.5-4.07V51.86h-2.78V55.7Zm2.8,8.86-2.65.75a33.29,33.29,0,0,0-1.64-5.45l2.55-.85A30.55,30.55,0,0,1,171.09,64.56Zm2.73-8.86V51.86h-3V55.7Zm4.4,8.64-2.57,1a27.21,27.21,0,0,0-2.44-5.41l2.58-.95A33.89,33.89,0,0,1,178.22,64.34Zm1.09-8.64V51.86h-3V55.7Zm6,8.58-2.64,1.09a27.13,27.13,0,0,0-3.29-5.68L182,58.58A28.51,28.51,0,0,1,185.3,64.28Z"/><path class="cls-1" d="M217.7,56.56l-1.08,2.37a29.59,29.59,0,0,1-6.16-3v9.3h-2.72V55.64h2.33a14.14,14.14,0,0,1-3.42-3.35H202a16.74,16.74,0,0,1-3.51,3.35h2.35q0,5.22-1.79,7.1a10.44,10.44,0,0,1-5.18,2.71l-1.56-2.31a9.25,9.25,0,0,0,3.47-1.06,3.91,3.91,0,0,0,1.9-2.06,13.2,13.2,0,0,0,.45-4.09,31.76,31.76,0,0,1-5.82,3l-1.29-2.31a20.4,20.4,0,0,0,7.86-4.35H193.4V41h21.87V52.29H210A18.67,18.67,0,0,0,217.7,56.56ZM203.05,45.5V43.28h-7V45.5Zm0,4.45V47.67h-7V50Zm9.51-4.45V43.28h-6.9V45.5Zm0,4.45V47.67h-6.9V50Z"/></g></g></svg>