<svg xmlns="http://www.w3.org/2000/svg" viewBox="0 0 280.94 72.64"><defs><style>.cls-1{fill:#fff;}</style></defs><g id="圖層_2" data-name="圖層 2"><g id="text"><path class="cls-1" d="M103.43,64.34h16.45V67H103.43Zm.11-19.08h16.59v2.52H103.54Zm1.11,8.91h14.22v8.1H104.65Zm1.91-11.7h3v7.45h4.72V42.47h3.1v9.82H106.56Zm1,14V59.9h8.35V56.47Zm2.7-5.41h3.2V55h-3.2Zm.25,4.18h2.67v6h.25V72.54h-3.17V61.2h.25Zm8.53,13.31h17.82v2.89H119.05Zm.94-15h16.49v2.79H120Zm.54,7.46H135.9v2.78H120.53ZM121,46.52h14.72v2.79H121Zm5.65-4H130V55h-3.35Zm0,14.78H130V70.89h-3.35Z"/><path class="cls-1" d="M147.73,52.81l2.09.64a14.44,14.44,0,0,1-1.93,3.23,11.73,11.73,0,0,1-2.61,2.54,10.12,10.12,0,0,0-.94-1.07,5.83,5.83,0,0,0-1.08-.9A9.11,9.11,0,0,0,145,56.06a13,13,0,0,0,1.57-1.58A12.16,12.16,0,0,0,147.73,52.81Zm2.48,5.76h2.95v3.34a14.53,14.53,0,0,1-.27,2.74,8.57,8.57,0,0,1-1.08,2.77A9.53,9.53,0,0,1,149.4,70a17.11,17.11,0,0,1-4.26,2.28c-.13-.21-.28-.46-.47-.74a9.84,9.84,0,0,0-.65-.83,8.23,8.23,0,0,0-.65-.66,14.35,14.35,0,0,0,3.69-1.85,8.15,8.15,0,0,0,2-2.09A6.6,6.6,0,0,0,150,64a11.15,11.15,0,0,0,.21-2.1ZM144,49.47h15.59V52H144Zm0,11.92h15.84V64H144Zm.65-17,2.38-.77a18.47,18.47,0,0,1,1.26,2,7,7,0,0,1,.79,1.89l-2.48.91a8.81,8.81,0,0,0-.72-1.95A13.8,13.8,0,0,0,144.63,44.38Zm5.8-1.78h3V57.89h-3Zm.07,24.11,1.8-1.88c.74.39,1.54.83,2.39,1.34l2.47,1.49c.79.49,1.44.92,1.94,1.28l-1.87,2.14c-.48-.39-1.11-.84-1.89-1.36s-1.59-1-2.43-1.57S151.27,67.14,150.5,66.71Zm4.86-13.81c.22.13.55.35,1,.65l1.44,1,1.38,1,.92.7-1.87,2c-.24-.26-.56-.58-1-1s-.83-.77-1.28-1.18-.9-.8-1.32-1.15a13,13,0,0,0-1.06-.83Zm-.9,6.29,1.91-1.1c.45.37.93.79,1.42,1.28a9.67,9.67,0,0,1,1.13,1.28l-2,1.23a9.12,9.12,0,0,0-1.06-1.35A14.63,14.63,0,0,0,154.46,59.19Zm1.94-15.52,2.81.71-1.28,2.24a20.84,20.84,0,0,1-1.2,1.88l-2.23-.68c.33-.59.68-1.27,1-2.06S156.19,44.27,156.4,43.67Zm8.39,23,2.88,1.56a16.22,16.22,0,0,1-2,1.67,25.4,25.4,0,0,1-2.38,1.53,22.68,22.68,0,0,1-2.46,1.24c-.27-.29-.61-.62-1-1a12.42,12.42,0,0,0-1.17-1A21.7,21.7,0,0,0,161,69.51a19.08,19.08,0,0,0,2.18-1.43A10.93,10.93,0,0,0,164.79,66.64Zm-4.86-22.78h16.92v2.63H159.93Zm1.26,5.32h14.4v17h-14.4Zm3.1,2.33v2.63h8.06V51.51Zm0,4.83V59h8.06V56.34Zm0,4.83v2.68h8.06V61.17Zm2.12-15.91,3.71.42c-.36,1-.73,1.89-1.1,2.83s-.71,1.75-1,2.42l-2.88-.49c.16-.5.33-1,.5-1.65s.32-1.22.47-1.85S166.34,45.76,166.41,45.26Zm2.56,23,2.45-1.52q1,.58,2.19,1.32c.77.5,1.5,1,2.2,1.5a20.26,20.26,0,0,1,1.73,1.36l-2.63,1.65a19.78,19.78,0,0,0-1.62-1.35c-.67-.5-1.39-1-2.14-1.55S169.66,68.64,169,68.23Z"/><path class="cls-1" d="M0,33.2,6,.46H27.39L27,2.33H7.91L5.47,15.64H22.63l-.34,1.87H5.13L2.22,33.2Z"/><path class="cls-1" d="M43.37,33.66a14,14,0,0,1-6.9-1.61A11.07,11.07,0,0,1,32,27.49a14.32,14.32,0,0,1-1.58-6.86,22,22,0,0,1,1.32-7.49,21.6,21.6,0,0,1,3.8-6.64,18.8,18.8,0,0,1,6-4.73A16.9,16.9,0,0,1,49.28,0a13.79,13.79,0,0,1,6.88,1.63,11.08,11.08,0,0,1,4.46,4.54,14.55,14.55,0,0,1,1.55,6.88,22,22,0,0,1-1.32,7.48,21.89,21.89,0,0,1-3.78,6.65,18.56,18.56,0,0,1-5.94,4.72A16.81,16.81,0,0,1,43.37,33.66Zm.07-1.91a14.5,14.5,0,0,0,6.86-1.61,16.61,16.61,0,0,0,5.22-4.31,19.73,19.73,0,0,0,3.3-6A20.19,20.19,0,0,0,60,13.12a12.72,12.72,0,0,0-1.32-6,9.28,9.28,0,0,0-3.74-3.86A11.56,11.56,0,0,0,49.2,1.91a14.44,14.44,0,0,0-6.88,1.62,16.41,16.41,0,0,0-5.21,4.31,20.28,20.28,0,0,0-3.32,6,20,20,0,0,0-1.16,6.7A12.47,12.47,0,0,0,34,26.52a9.35,9.35,0,0,0,3.76,3.87A11.5,11.5,0,0,0,43.44,31.75Z"/><path class="cls-1" d="M82.37,33.66a14,14,0,0,1-6.9-1.61A11.16,11.16,0,0,1,71,27.49a14.44,14.44,0,0,1-1.57-6.86A22.26,22.26,0,0,1,74.54,6.5a19,19,0,0,1,6-4.73A16.9,16.9,0,0,1,88.28,0a13.79,13.79,0,0,1,6.88,1.63,11.08,11.08,0,0,1,4.46,4.54,14.55,14.55,0,0,1,1.55,6.88,22,22,0,0,1-1.32,7.48,21.89,21.89,0,0,1-3.78,6.65,18.56,18.56,0,0,1-5.94,4.72A16.81,16.81,0,0,1,82.37,33.66Zm.07-1.91a14.5,14.5,0,0,0,6.86-1.61,16.61,16.61,0,0,0,5.22-4.31,19.73,19.73,0,0,0,3.3-6A20.19,20.19,0,0,0,99,13.12a12.72,12.72,0,0,0-1.32-6,9.28,9.28,0,0,0-3.74-3.86A11.56,11.56,0,0,0,88.2,1.91a14.44,14.44,0,0,0-6.88,1.62,16.31,16.31,0,0,0-5.21,4.31,20.28,20.28,0,0,0-3.32,6,20,20,0,0,0-1.16,6.7A12.47,12.47,0,0,0,73,26.52a9.35,9.35,0,0,0,3.76,3.87A11.5,11.5,0,0,0,82.44,31.75Z"/><path class="cls-1" d="M107.42,2.33l.34-1.87h26.71l-.34,1.87H121.9L116.21,33.2H114l5.66-30.87Z"/><path class="cls-1" d="M145.07,33.2,140.92.46h2.22L146,23.91c.11.91.22,1.81.32,2.71s.19,1.81.28,2.71.17,1.82.25,2.73h-.39c.41-.91.82-1.82,1.24-2.73s.83-1.81,1.25-2.71l1.3-2.71L161.6.46h2.83l2.69,23.45c.11.91.22,1.81.31,2.71s.19,1.81.27,2.71.17,1.82.25,2.73h-.42c.41-.91.82-1.82,1.25-2.73s.85-1.81,1.28-2.71.87-1.8,1.31-2.71L182.86.46h2.37L169,33.2h-2.85L163.41,10c-.17-1.38-.31-2.76-.44-4.15s-.26-2.81-.37-4.24h.51c-.63,1.42-1.27,2.82-1.91,4.22s-1.31,2.78-2,4.17L148,33.2Z"/><path class="cls-1" d="M186.94,33.2,193,.46H215l-.37,1.89h-19.8L192.43,15.6h18.24l-.37,1.87H192.09l-2.54,13.86h19.9l-.34,1.87Z"/><path class="cls-1" d="M215.87,33.2,235.42.46h2.71l7.5,32.74h-2.27L238.08,9.73c-.24-1.18-.51-2.45-.79-3.81s-.59-2.88-.92-4.58h.69c-.95,1.69-1.8,3.2-2.58,4.56S233,8.53,232.25,9.73L218.33,33.2Zm7.76-10.26.34-1.87h18l-.35,1.87Z"/><path class="cls-1" d="M253.27,33.2l6-32.74h12.11A12.09,12.09,0,0,1,277,1.65,7.08,7.08,0,0,1,280.3,5a8.05,8.05,0,0,1,.44,5,10.52,10.52,0,0,1-2.31,5,12,12,0,0,1-4.51,3.33,15.08,15.08,0,0,1-6.07,1.18H257l.34-1.86h10.77a12.12,12.12,0,0,0,4.89-1A9.71,9.71,0,0,0,276.68,14a8.46,8.46,0,0,0,1.84-4,6,6,0,0,0-1.33-5.59q-2-2.05-6-2.06h-10L255.5,33.2Zm21.46,0-6.05-14.83H271l6.11,14.83Z"/></g></g></svg>