<svg xmlns="http://www.w3.org/2000/svg" viewBox="0 0 191.28 72.56"><defs><style>.cls-1{fill:#fff;}</style></defs><g id="圖層_2" data-name="圖層 2"><g id="text"><path class="cls-1" d="M56.1,59.21H88.86v3H56.1ZM82.92,42.46,85.44,45q-2.59.65-5.78,1.15c-2.12.33-4.35.61-6.66.84s-4.65.41-7,.55-4.6.25-6.78.34a10.46,10.46,0,0,0-.36-1.41,8.06,8.06,0,0,0-.51-1.28Q61.6,45,65,44.79t6.72-.56c2.2-.23,4.25-.49,6.17-.78A49.35,49.35,0,0,0,82.92,42.46ZM58.54,51.63H86.77v2.91H58.54Zm12.17-5.25h3.57V68.61a4,4,0,0,1-.49,2.2,3.05,3.05,0,0,1-1.64,1.1,12.94,12.94,0,0,1-3,.46c-1.26.06-2.83.08-4.7.06a6.35,6.35,0,0,0-.34-1c-.16-.37-.33-.74-.52-1.1a7,7,0,0,0-.58-.94l2.83,0q1.35,0,2.37,0l1.43,0a1.45,1.45,0,0,0,.86-.2.84.84,0,0,0,.25-.71Z"/><path class="cls-1" d="M109.18,42.46l3.53.55a28.18,28.18,0,0,1-3.57,5.06A30.53,30.53,0,0,1,104,52.7a37.55,37.55,0,0,1-7,3.89,4.75,4.75,0,0,0-.58-.81c-.24-.28-.5-.56-.77-.83a7.86,7.86,0,0,0-.77-.66,32,32,0,0,0,6.64-3.42,26.9,26.9,0,0,0,4.75-4.13A20.22,20.22,0,0,0,109.18,42.46ZM95.86,62.87h31.72v2.59H95.86ZM96,45.47H127.5v2.6H96Zm3.6,26.38a8.46,8.46,0,0,0-.25-.85c-.13-.34-.25-.69-.38-1a5.7,5.7,0,0,0-.42-.92,4.87,4.87,0,0,0,1.1-.36,8.13,8.13,0,0,0,1.17-.68c.31-.19.81-.52,1.48-1s1.41-1,2.21-1.7a19.83,19.83,0,0,0,2.18-2.1l3.1,1.45a44.36,44.36,0,0,1-4,3.18,33.33,33.33,0,0,1-4.2,2.56v.06c-.41.18-.74.33-1,.47a4.13,4.13,0,0,0-.71.46A.65.65,0,0,0,99.57,71.85Zm0,0V69.9l2-.94,19.4-.68q.25.56.63,1.2c.25.43.46.78.63,1q-5.76.28-9.61.45l-6.25.28c-1.6.07-2.83.14-3.71.19s-1.53.12-2,.18A6.9,6.9,0,0,0,99.53,71.85Zm3.17-20.8h17.78v2.36H106.16V64H102.7Zm1.58,4.08h16.31V57.2H104.28Zm0,3.82h16.31v2.11H104.28ZM116.7,46.19a20.71,20.71,0,0,0,3.28,3,33.39,33.39,0,0,0,4.27,2.72,31.76,31.76,0,0,0,4.48,2,6.3,6.3,0,0,0-.79.68,9.59,9.59,0,0,0-.81.88c-.26.3-.48.57-.67.8A34,34,0,0,1,122,53.93a36.89,36.89,0,0,1-4.38-3.16A29.2,29.2,0,0,1,114,47.25Zm-.5,20.28,2.84-1.3c.72.59,1.5,1.23,2.33,1.93s1.61,1.4,2.35,2.11,1.36,1.32,1.84,1.86l-3.06,1.49a23,23,0,0,0-1.71-1.88c-.71-.71-1.46-1.44-2.27-2.19S116.94,67.07,116.2,66.47Z"/><path class="cls-1" d="M13,33.68a14.27,14.27,0,0,1-7-1.61,11,11,0,0,1-4.49-4.54A14.34,14.34,0,0,1,0,20.68a22.13,22.13,0,0,1,1.32-7.51A21.84,21.84,0,0,1,5.1,6.53a18.69,18.69,0,0,1,6-4.74A17,17,0,0,1,18.87,0,14.69,14.69,0,0,1,24.33,1a11.11,11.11,0,0,1,3.88,2.48,10.59,10.59,0,0,1,2.33,3.48,10.72,10.72,0,0,1,.81,3.9H29.08a9.37,9.37,0,0,0-.7-3.23,8.68,8.68,0,0,0-1.92-2.86,9.3,9.3,0,0,0-3.18-2,12.25,12.25,0,0,0-4.48-.76,14.59,14.59,0,0,0-6.91,1.63A16.5,16.5,0,0,0,6.65,7.89a20.13,20.13,0,0,0-3.31,6A20.64,20.64,0,0,0,2.2,20.65a11.23,11.23,0,0,0,2.87,8.1c1.91,2,4.6,3,8.06,3a15.07,15.07,0,0,0,6.76-1.51A14.12,14.12,0,0,0,25,26a15.21,15.21,0,0,0,2.75-6.47l.76.27H16.16l.34-1.87H30.27l-.34,1.91a18.15,18.15,0,0,1-2.1,5.67,16,16,0,0,1-3.72,4.38,16.64,16.64,0,0,1-5,2.83A18.24,18.24,0,0,1,13,33.68Z"/><path class="cls-1" d="M37.46,33.22l6-32.74h2.27L40.08,31.36H58.26l-.34,1.86Z"/><path class="cls-1" d="M77.56,33.68a13.91,13.91,0,0,1-6.9-1.61,11.07,11.07,0,0,1-4.46-4.56,14.32,14.32,0,0,1-1.58-6.86,22,22,0,0,1,1.32-7.49,21.55,21.55,0,0,1,3.8-6.63,18.69,18.69,0,0,1,6-4.74A16.9,16.9,0,0,1,83.47,0a13.79,13.79,0,0,1,6.88,1.63A11,11,0,0,1,94.81,6.2a14.48,14.48,0,0,1,1.55,6.87A22.06,22.06,0,0,1,95,20.56a22,22,0,0,1-3.78,6.64,18.73,18.73,0,0,1-5.94,4.73A16.94,16.94,0,0,1,77.56,33.68Zm.07-1.91a14.5,14.5,0,0,0,6.86-1.61,16.47,16.47,0,0,0,5.22-4.31,19.73,19.73,0,0,0,3.3-6,20.19,20.19,0,0,0,1.15-6.71,12.72,12.72,0,0,0-1.32-6A9.26,9.26,0,0,0,89.1,3.29a11.46,11.46,0,0,0-5.71-1.36,14.44,14.44,0,0,0-6.88,1.62A16.31,16.31,0,0,0,71.3,7.87a20.65,20.65,0,0,0-4.48,12.72,12.47,12.47,0,0,0,1.33,5.95,9.41,9.41,0,0,0,3.76,3.87A11.5,11.5,0,0,0,77.63,31.77Z"/><path class="cls-1" d="M111.08,33.22,103.56.48h2.25L111.13,24c.26,1.16.54,2.43.82,3.8s.59,2.91.92,4.59h-.66c.93-1.68,1.79-3.22,2.59-4.6S116.33,25.09,117,24L130.86.48h2.47L113.79,33.22Z"/><path class="cls-1" d="M135,33.22l6-32.74h22.07l-.36,1.89H143l-2.45,13.25h18.24l-.36,1.87H140.17l-2.54,13.87h19.9l-.34,1.86Z"/><path class="cls-1" d="M175.32,33.73a15,15,0,0,1-6.09-1.12,7.68,7.68,0,0,1-3.67-3.16,7.35,7.35,0,0,1-.79-4.73H167a6,6,0,0,0,.64,3.82A5.81,5.81,0,0,0,170.54,31a12.18,12.18,0,0,0,4.85.85,15.44,15.44,0,0,0,5.42-.9,10.43,10.43,0,0,0,4-2.53,7.19,7.19,0,0,0,2-3.78,4.36,4.36,0,0,0-.26-2.83,5.16,5.16,0,0,0-2.15-2.12A18.92,18.92,0,0,0,180.08,18l-3.93-1.1a13.57,13.57,0,0,1-6.28-3.22,5.49,5.49,0,0,1-1.34-5,8.93,8.93,0,0,1,2.27-4.48,12.4,12.4,0,0,1,4.54-3.05,16.13,16.13,0,0,1,6-1.1A12.65,12.65,0,0,1,187,1.15a7.56,7.56,0,0,1,3.41,3.19,7.5,7.5,0,0,1,.74,4.71H189a6,6,0,0,0-1.73-5.22c-1.37-1.29-3.38-1.94-6.05-1.94a13.27,13.27,0,0,0-4.91.88,10.19,10.19,0,0,0-3.74,2.43,6.76,6.76,0,0,0-1.85,3.55,4.12,4.12,0,0,0,.3,2.72,5.3,5.3,0,0,0,2.1,2.08A16.2,16.2,0,0,0,177,15.1l3.9,1.09a22.11,22.11,0,0,1,3.9,1.43,9.48,9.48,0,0,1,2.66,1.86,5.54,5.54,0,0,1,1.39,2.36,6.58,6.58,0,0,1,.09,2.95,9.34,9.34,0,0,1-2.34,4.63,12.55,12.55,0,0,1-4.73,3.17A17.83,17.83,0,0,1,175.32,33.73Z"/></g></g></svg>