<svg xmlns="http://www.w3.org/2000/svg" viewBox="0 0 263.26 48.74"><defs><style>.cls-1{fill:#004632;}</style></defs><g id="圖層_2" data-name="圖層 2"><g id="text"><path class="cls-1" d="M2.38,4.63l1.17.47q-.17,1-.42,2C3,7.8,2.77,8.49,2.56,9.16a19.66,19.66,0,0,1-.71,1.89,10.2,10.2,0,0,1-.79,1.52,4,4,0,0,0-.28-.69c-.12-.26-.25-.52-.38-.77s-.27-.48-.4-.68A7.78,7.78,0,0,0,.77,9.25a13,13,0,0,0,.67-1.5c.2-.53.39-1.07.55-1.6S2.28,5.11,2.38,4.63ZM.52,3H6V4.92H.52ZM2.14.15H4.23V15.44H2.14Zm2,5.37.42.55.62.83c.22.3.42.58.59.84s.3.45.37.57L4.88,9.79c-.09-.24-.2-.52-.34-.83s-.3-.64-.47-1-.33-.65-.49-1-.29-.54-.41-.74Zm.78,7.65H17.24v1.88H4.9ZM5.78.44H16.7V2.28H5.78Zm.14,4.34H8.77V6.32H7.4v4.81H5.92Zm2.14,0H9.61V10.5H6.19V9H8.06ZM9.38,1.17h2.18c-.21.61-.43,1.25-.68,1.92s-.46,1.22-.66,1.69H8.06c.23-.5.47-1.08.71-1.74S9.21,1.75,9.38,1.17Zm1.19,2.07h2v.49a2.33,2.33,0,0,1,0,.29c0,1.38,0,2.55,0,3.51s-.05,1.75-.08,2.37a12.47,12.47,0,0,1-.14,1.44,1.94,1.94,0,0,1-.26.74,1.67,1.67,0,0,1-.54.5,2.43,2.43,0,0,1-.69.22,5.68,5.68,0,0,1-.82.08c-.33,0-.68,0-1.07,0A3.72,3.72,0,0,0,8.81,12a2.47,2.47,0,0,0-.37-.8l.77,0h.53a.56.56,0,0,0,.3,0,.48.48,0,0,0,.2-.2,1.31,1.31,0,0,0,.16-.58,11.66,11.66,0,0,0,.08-1.29c0-.57,0-1.3,0-2.2s0-2,0-3.32Zm-.9,0H11.3V4.78H9.14Zm5.59.57h.38l.36,0,1.17.31A16.3,16.3,0,0,1,15.8,9.13a7.83,7.83,0,0,1-2.53,3.12,3.25,3.25,0,0,0-.38-.46l-.51-.51a3.43,3.43,0,0,0-.48-.39,6.54,6.54,0,0,0,2.25-2.62,12.51,12.51,0,0,0,1.11-4.14Zm-2.84,3,1.37-.95A18.52,18.52,0,0,1,15.2,7.41c.46.58.88,1.15,1.25,1.71a12.28,12.28,0,0,1,.88,1.52l-1.51,1.11A10.25,10.25,0,0,0,15,10.19c-.36-.58-.77-1.17-1.21-1.77S12.88,7.28,12.42,6.77Zm.56-3h2.75V5.35H13Z"/><path class="cls-1" d="M51.19,1.47h2.37V5.78c0,.69,0,1.46-.06,2.29s-.12,1.68-.24,2.56a20.23,20.23,0,0,1-.52,2.53,10.78,10.78,0,0,1-.9,2.25,4,4,0,0,0-.66-.34l-.82-.35a4.63,4.63,0,0,0-.72-.24,8.93,8.93,0,0,0,.85-2.05,14.63,14.63,0,0,0,.46-2.3c.1-.78.16-1.54.19-2.29s0-1.42,0-2Zm1.11,0H66.49v2H52.3ZM63.16,9.53h.47L64,9.44l1.49.68a7.38,7.38,0,0,1-1.89,2.19A10.76,10.76,0,0,1,61,13.82a18.17,18.17,0,0,1-3.23.95,36,36,0,0,1-3.66.56,6.57,6.57,0,0,0-.41-.91,4.62,4.62,0,0,0-.57-.88c1.16-.07,2.26-.2,3.32-.37a19,19,0,0,0,2.9-.7,9.91,9.91,0,0,0,2.31-1.11,5.14,5.14,0,0,0,1.52-1.57ZM53.91,4.81H66.33V6.48H53.91ZM54,9.53h9.76v1.66H54Zm3.1,1.21a7.18,7.18,0,0,0,2.29,1.43,17.69,17.69,0,0,0,3.33.93,32.65,32.65,0,0,0,4.06.46c-.15.15-.32.34-.5.56a7.9,7.9,0,0,0-.5.68,6.37,6.37,0,0,0-.36.62,26,26,0,0,1-4.26-.68,15.17,15.17,0,0,1-3.46-1.3,10.62,10.62,0,0,1-2.65-2Zm-.9-6.9h2.25V7.39h3V3.84h2.36V9h-7.6ZM57.54.49,60,0c.18.37.35.76.51,1.18a5.25,5.25,0,0,1,.32,1.09l-2.57.53A6.52,6.52,0,0,0,58,1.68,7.79,7.79,0,0,0,57.54.49Z"/><path class="cls-1" d="M98.94,11.08h7.41v1.86H98.94Zm.27-9.44h6.93V3.48H99.21Zm.27,2.62H106v6H99.48Zm1.63,1.47v.8h3.14v-.8Zm0,2.19v.81h3.14V7.92Zm.56-7.76h2V5h-2ZM101.91,5h1.51V9.43h.23v6h-2v-6h.22Zm5.79-2.22,1.93.36c-.23.47-.47.92-.71,1.38s-.49.88-.73,1.28a16.09,16.09,0,0,1,1,1.42c.29.49.53.9.69,1.25L108,9.09a13.81,13.81,0,0,0-.74-1.55c-.32-.59-.68-1.17-1.08-1.76.19-.33.38-.68.58-1s.37-.72.54-1.07S107.61,3,107.7,2.75Zm-1.44,10.5H116v1.8h-9.76ZM106.6.76h9.13v1.8H106.6Zm.45,8.47h8.41V11h-8.41Zm3.55-6.48,1.91.36c-.23.47-.47.92-.73,1.36s-.51.87-.77,1.28a14.18,14.18,0,0,1,1,1.37,10.3,10.3,0,0,1,.74,1.26L111,9a11.56,11.56,0,0,0-.8-1.54A20.7,20.7,0,0,0,109,5.77q.33-.51.63-1c.2-.36.39-.71.57-1.06S110.49,3,110.6,2.75ZM110,10.09h2.4v4.57H110Zm3.69-7.34,2,.38c-.25.46-.52.92-.81,1.37L114,5.77c.25.3.5.61.74.93s.47.62.67.91a7.69,7.69,0,0,1,.48.81L114,9.09a10.35,10.35,0,0,0-.87-1.55c-.39-.59-.83-1.17-1.31-1.76q.36-.5.69-1c.23-.37.43-.72.62-1.07A10.12,10.12,0,0,0,113.64,2.75Z"/><path class="cls-1" d="M148.26,7.91l1.31-1.45c.35.13.72.29,1.12.47l1.13.57a7.3,7.3,0,0,1,.88.55l-1.38,1.59a7.14,7.14,0,0,0-.83-.58c-.35-.21-.72-.41-1.11-.62S148.62,8.06,148.26,7.91Zm.38,6.12q.39-.45.84-1.08c.3-.41.61-.86.93-1.33s.62-.95.91-1.43L153,11.44c-.24.43-.5.86-.76,1.3s-.53.88-.81,1.31-.56.87-.85,1.28Zm.1-13h7.8V2.82h-7.8ZM149,4.92l1.39-1.37c.31.13.65.28,1,.46s.71.36,1,.55a5.49,5.49,0,0,1,.8.54L151.8,6.63a4.56,4.56,0,0,0-.75-.58c-.31-.2-.65-.4-1-.6S149.34,5.08,149,4.92ZM152.36.13h2.36V3.52h-2.36Zm.69,10.9h11.84v1.61H153.05ZM153.24,4h11.42V5.3H153.24Zm.54,1.72h9.72V6.82H156v3.81h-2.2Zm.69,7.47,1.29-1.3,1,.48c.35.18.68.35,1,.53s.58.33.8.47l-1.37,1.44a6.42,6.42,0,0,0-.74-.52c-.31-.19-.63-.39-1-.58S154.78,13.29,154.47,13.14Zm.84-4.64h7.46v1h-7.46Zm.08-1.31h7.47v1h-7.47Zm1.72-6.14h7.73V2.82h-7.73Zm.74,2.38H160v7h-2.16Zm2.5,7.1h2.22v3a2.61,2.61,0,0,1-.16,1,1.12,1.12,0,0,1-.63.57,4,4,0,0,1-1.13.24c-.41,0-.89,0-1.43,0a7.11,7.11,0,0,0-.24-.89,7.92,7.92,0,0,0-.37-.86l.88,0h.59a.36.36,0,0,0,.21-.05.18.18,0,0,0,.06-.16ZM158.72.13h2.37V3.52h-2.37Zm3.18,5.54h2.2v4a1.71,1.71,0,0,1-.13.78,1,1,0,0,1-.52.42,3.12,3.12,0,0,1-.86.17c-.31,0-.67,0-1.07,0a3.59,3.59,0,0,0-.27-.7,6.39,6.39,0,0,0-.34-.61h.79a.22.22,0,0,0,.16,0,.18.18,0,0,0,0-.14ZM161,3.61l1.05-1.1a10,10,0,0,1,1.12.52,6.77,6.77,0,0,1,1,.57l-1.07,1.21a7,7,0,0,0-.94-.65A8.11,8.11,0,0,0,161,3.61Z"/><path class="cls-1" d="M99.65,48.4c-.05-.2-.12-.45-.21-.73s-.21-.55-.33-.82a3.41,3.41,0,0,0-.37-.67,2.09,2.09,0,0,0,.59-.41A1,1,0,0,0,99.6,45V34.19H102V46.78l-.83.32c-.24.11-.48.23-.72.37a2.33,2.33,0,0,0-.59.44A.68.68,0,0,0,99.65,48.4Zm0,0-.27-1.93.92-.69,5.1-1.27c.09.29.21.62.36,1s.27.64.37.87l-3.07.86-1.85.55c-.45.14-.79.26-1,.35A3.11,3.11,0,0,0,99.65,48.4Zm.69-14.21h7.07v8.17h-7.07V40.45H105V36.11h-4.68Zm.07,3.1h5.4v1.89h-5.4Zm3,6.27,2.07-.91c.3.44.61.92.93,1.43s.61,1,.89,1.51a13.77,13.77,0,0,1,.67,1.32L105.68,48a13.64,13.64,0,0,0-.59-1.35c-.25-.52-.53-1-.84-1.57S103.65,44,103.36,43.56Zm4.9-9.25h5.36v2h-3V48.69h-2.39Zm4.25,0h2.34v9.38a3.7,3.7,0,0,1-.16,1.15,1.17,1.17,0,0,1-.64.69,2.67,2.67,0,0,1-1.1.32q-.63.06-1.47.06a6.72,6.72,0,0,0-.23-1,5.06,5.06,0,0,0-.4-1l.83,0h.54a.3.3,0,0,0,.22-.06.27.27,0,0,0,.07-.2Z"/><path class="cls-1" d="M155.85,40.59l2.17.75a16.57,16.57,0,0,1-2.45,3,20.64,20.64,0,0,1-3.14,2.5,23.3,23.3,0,0,1-3.55,1.89,6.07,6.07,0,0,0-.38-.58c-.17-.24-.35-.47-.54-.7s-.36-.41-.5-.57a18.52,18.52,0,0,0,3.35-1.55,16.08,16.08,0,0,0,2.88-2.14A12.6,12.6,0,0,0,155.85,40.59Zm-8.23-5.33h10.22v2H147.62Zm7,2.3,2.16.62a14.35,14.35,0,0,1-2,2.89,17.66,17.66,0,0,1-2.63,2.41,17.29,17.29,0,0,1-3,1.84,6.38,6.38,0,0,0-.38-.55l-.53-.67a7.29,7.29,0,0,0-.49-.54,15.6,15.6,0,0,0,4.09-2.47A11.25,11.25,0,0,0,154.66,37.56Zm-6.12,3.76c0-.14-.1-.32-.19-.55s-.18-.47-.27-.72a3.93,3.93,0,0,0-.28-.64,1.58,1.58,0,0,0,.57-.24c.17-.12.37-.27.58-.44s.37-.34.68-.65.63-.67,1-1.08a10.47,10.47,0,0,0,.91-1.3l2.18.92a20.86,20.86,0,0,1-1.9,2,19.39,19.39,0,0,1-2.12,1.71v0l-.57.33a1.82,1.82,0,0,0-.4.3A.45.45,0,0,0,148.54,41.32Zm0,0-.06-1.47,1-.59,4.57-.19c0,.26,0,.55,0,.88a7.05,7.05,0,0,0,.09.82l-2.69.17-1.62.14c-.39,0-.69.08-.89.12Zm2.52-7.6,2.25-.47a8.66,8.66,0,0,1,.68,1.13,4.53,4.53,0,0,1,.43,1.11l-2.37.5a5.78,5.78,0,0,0-.37-1.08A10.25,10.25,0,0,0,151.06,33.72Zm2.1,11.6,1.59-1.21L156,45l1.27,1a9.54,9.54,0,0,1,1,.86l-1.67,1.38a10.6,10.6,0,0,0-.94-.89c-.38-.34-.79-.68-1.22-1S153.55,45.61,153.16,45.32Zm5.3-10.19h2.25V44.3h-2.25Zm3.15-1.55H164V46.25a3.23,3.23,0,0,1-.21,1.3,1.5,1.5,0,0,1-.78.72,5.19,5.19,0,0,1-1.43.3c-.57,0-1.25.07-2,.07a6,6,0,0,0-.3-1,6.8,6.8,0,0,0-.46-1l1.45,0h1a.54.54,0,0,0,.35-.09.41.41,0,0,0,.1-.3Z"/><path class="cls-1" d="M197.77,40.53h1.9v3.09c0,.52,0,1.09-.08,1.71a9.5,9.5,0,0,1-.33,1.83,4.73,4.73,0,0,1-.76,1.58c-.12-.1-.28-.21-.48-.35l-.63-.39c-.22-.12-.4-.21-.56-.28a3.9,3.9,0,0,0,.64-1.31,8,8,0,0,0,.24-1.45c0-.49.06-1,.06-1.37Zm-.89-2h7.46v2.59h-1.79V40h-4v1.16h-1.7Zm.69-4.66h6V39.2h-1.93V35.39h-2.26V39.2h-1.82Zm1.08,6.64h4V41.9h-4Zm.65,2.54.95-.87c.3.17.6.35.91.55a5.88,5.88,0,0,1,.73.52l-1,1a5.37,5.37,0,0,0-.7-.6C199.87,43.45,199.57,43.24,199.3,43.07Zm0,2c.41-.14.88-.32,1.42-.54l1.7-.7.34,1c-.49.28-1,.55-1.42.83s-.91.54-1.35.79Zm.61-9.17h3v1.17h-1.82V39h-1.19Zm1.64,4.59h1.95v6.38a2.66,2.66,0,0,1-.13.89,1,1,0,0,1-.52.55,2.58,2.58,0,0,1-.89.25c-.35,0-.75,0-1.22,0a4.7,4.7,0,0,0-.21-.79,6,6,0,0,0-.35-.79h1.14c.15,0,.23-.06.23-.19Zm2.58,6.4h9.59v1.54h-9.59Zm.18-6.58h9.27v1.51h-9.27Zm.25-5.8h8.71v5.3h-8.71Zm.39,7.76h7.94v3.24H205Zm.74,3.53,1.78-.48a10,10,0,0,1,.43.92c.13.33.25.62.33.86l-1.85.56a8.91,8.91,0,0,0-.29-.89C206,46.45,205.85,46.13,205.72,45.84Zm.6-9.91v.63h5.16v-.63Zm0,1.89v.65h5.16v-.65Zm.36-4.4h1.83V35.6h-1.83ZM207,43.59v.7h3.67v-.7Zm.07-8.26h1.42v4h-1.42Zm2-1.91H211V35.6h-1.86Zm.11,1.91h1.42v4h-1.42Zm.92,10,2.12.51-.76,1.06c-.25.35-.47.63-.66.86l-1.53-.47a7.74,7.74,0,0,0,.46-1C210,46,210.07,45.64,210.17,45.36Z"/><path class="cls-1" d="M246.74,43.72l1.18.36c0,.35-.08.75-.14,1.19s-.13.85-.22,1.26a10.63,10.63,0,0,1-.27,1.08L246,47.2c.11-.31.21-.67.31-1.08a12.16,12.16,0,0,0,.24-1.23C246.65,44.46,246.7,44.08,246.74,43.72ZM253.27,34v1.73h-4.48v5.75h3.76v1.74H247V34Zm-5.22,10.06L249,44a14.3,14.3,0,0,1,.11,1.55c0,.55,0,1,0,1.45l-1,.09c0-.41,0-.89,0-1.46S248.1,44.54,248.05,44.06Zm0-7.39H253v1.56h-4.9Zm0,2.4h5v1.55h-5ZM249.15,44l.92-.13c.09.41.19.86.28,1.36s.14.91.17,1.27l-1,.16a9.68,9.68,0,0,0-.13-1.29C249.35,44.84,249.26,44.38,249.15,44Zm.61-8.58h1.78v7.3h-1.78Zm1.85,6.1h1.86c0,.34,0,.55,0,.65,0,1.3-.07,2.35-.12,3.14a14.51,14.51,0,0,1-.18,1.84,2,2,0,0,1-.31.89,1.47,1.47,0,0,1-.46.39,1.82,1.82,0,0,1-.57.17,3.25,3.25,0,0,1-.68.08h-.83a3.18,3.18,0,0,0-.15-.8,3.62,3.62,0,0,0-.32-.76c.22,0,.41,0,.58,0h.39a.71.71,0,0,0,.26,0,.53.53,0,0,0,.19-.15,1.63,1.63,0,0,0,.18-.68c0-.35.07-.88.1-1.59s.06-1.68.08-2.9Zm-1.4,2.32.81-.23c.13.34.27.69.41,1.07a9.53,9.53,0,0,1,.29,1l-.86.3a7.49,7.49,0,0,0-.27-1C250.46,44.5,250.33,44.13,250.21,43.8Zm7.34-10.63,2.13.67a11.41,11.41,0,0,1-2.37,2.56,17.42,17.42,0,0,1-3,2,4,4,0,0,0-.42-.46c-.18-.18-.36-.36-.54-.52a4.59,4.59,0,0,0-.48-.4,12.08,12.08,0,0,0,1.87-1.08,12.68,12.68,0,0,0,1.63-1.32A8.12,8.12,0,0,0,257.55,33.17ZM255,43.57l2,.33a11.17,11.17,0,0,1-1,2.7,7.6,7.6,0,0,1-1.53,2.11,2.75,2.75,0,0,0-.45-.38l-.58-.44-.53-.35a5.35,5.35,0,0,0,1.35-1.74A8.49,8.49,0,0,0,255,43.57Zm-1.17-4.27h4v4.05h-4ZM255,46.15l1.12-1.28a13.23,13.23,0,0,1,1.16.66,5.4,5.4,0,0,1,1,.72l-1.17,1.41a5.4,5.4,0,0,0-.93-.77C255.76,46.6,255.38,46.35,255,46.15Zm.35-5.53V42h.82V40.62Zm.05-3.66h5.29v1.61h-5.29Zm3.13-3.25a11.26,11.26,0,0,0,1.3,1,14.6,14.6,0,0,0,1.66.93,15.2,15.2,0,0,0,1.74.71,4,4,0,0,0-.33.6,7.76,7.76,0,0,0-.31.74q-.14.38-.21.63a21.16,21.16,0,0,1-2-1,21.88,21.88,0,0,1-1.9-1.3A16,16,0,0,1,257,34.6Zm.87,9.83,2.1.33a12.8,12.8,0,0,1-.82,2.72,7.32,7.32,0,0,1-1.36,2.15,5.22,5.22,0,0,0-.49-.39l-.65-.44a5.24,5.24,0,0,0-.58-.35,5.37,5.37,0,0,0,1.18-1.78A9.62,9.62,0,0,0,259.43,43.54Zm-1.12-4.24h4.12v4.05h-4.12Zm.81,7.45,1.3-1.33c.3.16.61.35.94.55l1,.6a6.92,6.92,0,0,1,.74.53l-1.37,1.48A7.36,7.36,0,0,0,261,48q-.44-.33-.93-.66C259.72,47.12,259.41,46.92,259.12,46.75Zm.74-6.13V42h.93V40.62Z"/></g></g></svg>