<svg xmlns="http://www.w3.org/2000/svg" viewBox="0 0 597.01 307.42"><defs><style>.cls-1{fill:#fff;}</style></defs><g id="圖層_2" data-name="圖層 2"><g id="text"><path class="cls-1" d="M0,34.93V28.25H34.86v6.68H21.33v37H13.54v-37Z"/><path class="cls-1" d="M63,239.15V195.5H92.88v6.68H70.76v11.57H91.24v6.56H70.76v12.16H92.91v6.68Z"/><path class="cls-1" d="M134.31,150.05a20.28,20.28,0,0,1-10.56-2.75,19.13,19.13,0,0,1-7.24-7.81,28.52,28.52,0,0,1,0-23.88,19.06,19.06,0,0,1,7.25-7.8,20.23,20.23,0,0,1,10.55-2.76,20.86,20.86,0,0,1,6.86,1.09,17.84,17.84,0,0,1,5.64,3.12,16.93,16.93,0,0,1,4.07,4.89,19.15,19.15,0,0,1,2.15,6.46h-7.88a11.51,11.51,0,0,0-1.36-3.65,9.75,9.75,0,0,0-5.54-4.38,12.79,12.79,0,0,0-3.85-.56,11.86,11.86,0,0,0-6.75,1.91,12.24,12.24,0,0,0-4.4,5.39,22.84,22.84,0,0,0,0,16.49,12.1,12.1,0,0,0,4.4,5.38,11.93,11.93,0,0,0,6.75,1.89,12.69,12.69,0,0,0,3.82-.56,9.78,9.78,0,0,0,5.55-4.33,11.42,11.42,0,0,0,1.41-3.64H153a18,18,0,0,1-2.09,6.33,17.33,17.33,0,0,1-4.06,4.89,17.93,17.93,0,0,1-5.64,3.17A20.9,20.9,0,0,1,134.31,150.05Z"/><path class="cls-1" d="M182.71,307.42V263.76h7.79v18h20.16v-18h7.76v43.66h-7.76v-19H190.5v19Z"/><path class="cls-1" d="M236.69,205.38V161.72h8.47L260.45,186c.47.72,1,1.66,1.68,2.8s1.35,2.38,2.07,3.71,1.42,2.66,2.11,4l-.85,1.46c-.08-1.3-.15-2.78-.22-4.42s-.12-3.21-.15-4.7,0-2.68,0-3.56V161.72h7.79v43.66h-8.49l-13.77-21.86c-.57-.92-1.24-2-2-3.34s-1.65-2.81-2.6-4.51-2-3.56-3.11-5.6l1.2-.87q.18,3.24.28,6.05c.07,1.86.12,3.5.15,4.9s0,2.52,0,3.34v21.89Z"/><path class="cls-1" d="M324,113.43a19.73,19.73,0,0,1-10.42-2.77,19.38,19.38,0,0,1-7.22-7.82A25.32,25.32,0,0,1,303.68,91,25.53,25.53,0,0,1,306.32,79a19.26,19.26,0,0,1,7.22-7.82,21,21,0,0,1,20.82,0A19.23,19.23,0,0,1,341.57,79,25.65,25.65,0,0,1,344.2,91a25.51,25.51,0,0,1-2.63,11.91,19.33,19.33,0,0,1-7.21,7.81A19.83,19.83,0,0,1,324,113.43Zm0-7a11.57,11.57,0,0,0,6.36-1.8,12.24,12.24,0,0,0,4.43-5.26A19.67,19.67,0,0,0,336.38,91a19.79,19.79,0,0,0-1.63-8.48,12.21,12.21,0,0,0-4.43-5.27,12.13,12.13,0,0,0-12.75,0,12.3,12.3,0,0,0-4.44,5.27A20,20,0,0,0,311.51,91a19.82,19.82,0,0,0,1.62,8.44,12.33,12.33,0,0,0,4.44,5.26A11.62,11.62,0,0,0,324,106.46Z"/><path class="cls-1" d="M377,286.48V242.83h7.79v37h20v6.68Z"/><path class="cls-1" d="M448,201.21a19.82,19.82,0,0,1-10.42-2.77,19.45,19.45,0,0,1-7.22-7.82,28.23,28.23,0,0,1,0-23.84A19.32,19.32,0,0,1,437.6,159a21.08,21.08,0,0,1,20.82,0,19.3,19.3,0,0,1,7.21,7.82,28.4,28.4,0,0,1,0,23.87,19.3,19.3,0,0,1-7.21,7.8A19.74,19.74,0,0,1,448,201.21Zm0-7a11.57,11.57,0,0,0,6.36-1.8,12.18,12.18,0,0,0,4.43-5.26,19.59,19.59,0,0,0,1.63-8.43,19.87,19.87,0,0,0-1.63-8.49,12.21,12.21,0,0,0-4.43-5.27,12.19,12.19,0,0,0-12.75,0,12.3,12.3,0,0,0-4.44,5.27,20,20,0,0,0-1.62,8.49,19.74,19.74,0,0,0,1.62,8.43,12.27,12.27,0,0,0,4.44,5.26A11.62,11.62,0,0,0,448,194.23Z"/><path class="cls-1" d="M515.81,45a20,20,0,0,1-10.63-2.81,19.39,19.39,0,0,1-7.2-7.87,25.6,25.6,0,0,1-2.59-11.79,25.53,25.53,0,0,1,2.64-12,19.3,19.3,0,0,1,7.23-7.83A20,20,0,0,1,515.69,0a21.26,21.26,0,0,1,6.86,1.08,18.68,18.68,0,0,1,5.68,3.09,17.5,17.5,0,0,1,4.12,4.75A16.24,16.24,0,0,1,534.44,15h-7.91a11,11,0,0,0-1.37-3.33,10,10,0,0,0-2.32-2.54,9.83,9.83,0,0,0-3.13-1.63A12.68,12.68,0,0,0,515.87,7a11.77,11.77,0,0,0-6.68,1.89,12.38,12.38,0,0,0-4.41,5.38,20.17,20.17,0,0,0-1.57,8.29,20,20,0,0,0,1.57,8.23,12.31,12.31,0,0,0,4.44,5.38A12,12,0,0,0,516,38a12.46,12.46,0,0,0,5.8-1.31,9.69,9.69,0,0,0,3.94-3.67,10.52,10.52,0,0,0,1.42-5.51l2,.17H517V21.56h17.76v5.28a18.08,18.08,0,0,1-2.45,9.47,17.12,17.12,0,0,1-6.71,6.39A20.29,20.29,0,0,1,515.81,45Z"/><path class="cls-1" d="M573.39,146.74V129.86l-16.14-26.78h9l7.85,13.51q1.14,2,2.16,3.9t2.08,4.07h-2.08c.67-1.43,1.34-2.79,2-4.07s1.39-2.59,2.13-3.9l7.68-13.51H597l-16,26.78v16.88Z"/></g></g></svg>